<svg xmlns="http://www.w3.org/2000/svg" xmlns:xlink="http://www.w3.org/1999/xlink" width="256" height="256.004" viewBox="0 0 256 256.004"><defs><linearGradient id="a" y1="-0.063" x2="0.928" y2="1" gradientUnits="objectBoundingBox"><stop offset="0" stop-color="#65747c"/><stop offset="1" stop-color="#2f2f4d"/></linearGradient><linearGradient id="b" x1="0.072" y1="0.065" x2="0.987" y2="0.924" gradientUnits="objectBoundingBox"><stop offset="0" stop-color="#82bbff"/><stop offset="1" stop-color="#4c7cfa"/></linearGradient></defs><g transform="translate(-32 -31.999)"><g transform="translate(32 31.999)"><path d="M256,53.179c0-2.031,0-4.061-.012-6.092-.011-1.711-.03-3.42-.076-5.131a74.564,74.564,0,0,0-.977-11.166,37.717,37.717,0,0,0-3.5-10.62A35.709,35.709,0,0,0,235.82,4.561a37.682,37.682,0,0,0-10.615-3.5A74.614,74.614,0,0,0,214.034.081C212.324.035,210.614.015,208.9,0c-2.031-.012-4.061-.011-6.092-.011H53.19c-2.031,0-4.061,0-6.092.011-1.711.011-3.42.03-5.131.076A74.61,74.61,0,0,0,30.8,1.063a37.683,37.683,0,0,0-10.616,3.5A35.711,35.711,0,0,0,4.569,20.171,37.693,37.693,0,0,0,1.075,30.79,74.4,74.4,0,0,0,.1,41.957c-.047,1.71-.065,3.42-.076,5.131C0,49.118,0,51.149,0,53.179V202.815c0,2.031,0,4.061.012,6.092.011,1.711.03,3.42.076,5.131A74.408,74.408,0,0,0,1.065,225.2a37.691,37.691,0,0,0,3.5,10.62,35.708,35.708,0,0,0,15.61,15.609,37.713,37.713,0,0,0,10.615,3.5,74.514,74.514,0,0,0,11.171.983c1.71.046,3.42.066,5.131.076q3.053.012,6.1.008H202.811c2.031,0,4.061,0,6.092-.012,1.711-.011,3.42-.03,5.131-.076a74.522,74.522,0,0,0,11.171-.983,37.714,37.714,0,0,0,10.615-3.5,35.706,35.706,0,0,0,15.61-15.609,37.712,37.712,0,0,0,3.5-10.62,74.578,74.578,0,0,0,.977-11.166c.046-1.71.065-3.42.076-5.131.013-2.031.012-4.061.012-6.092V53.179Z" transform="translate(0 0.006)" fill-rule="evenodd" fill="url(#a)"/></g><path d="M6563.342,545.949a13.013,13.013,0,0,1-12.975-12.975V507.024a13.013,13.013,0,0,1,12.975-12.975h97.315a13.013,13.013,0,0,1,12.975,12.975v25.951a13.013,13.013,0,0,1-12.975,12.975Zm85.522-28.652,3.452,16.311h8.891l5.657-26.266h-7.015l-2.867,19.139h-.256l-4.226-19.139h-7.346l-4.042,19.139h-.183l-3.2-19.139h-7.273l5.584,26.266h9.294l3.343-16.311Zm-36.846,0h.182l3.453,16.311h8.89l5.657-26.266h-7.016l-2.864,19.139h-.259l-4.224-19.139h-7.347l-4.04,19.139h-.184l-3.2-19.139H6593.8l5.584,26.266h9.293l3.344-16.311Zm-36.479,0,3.454,16.311h8.89l5.657-26.266h-7.016l-2.865,19.139h-.259l-4.223-19.139h-7.348l-4.042,19.139h-.184l-3.2-19.139h-7.273l5.583,26.266h9.295l3.343-16.311Z" transform="translate(-6452 -359.999)" fill="#e2ecff"/><path d="M6544.042,587.97A96,96,0,0,1,6612.031,424h.015a96.359,96.359,0,0,1,31.632,5.327,10.35,10.35,0,0,1,3.97,17.089,10.427,10.427,0,0,1-7.336,3.035,10.261,10.261,0,0,1-3.368-.566,75.7,75.7,0,0,0-24.912-4.205,75.32,75.32,0,1,0,53.35,128.647,75.981,75.981,0,0,0,17.815-78.171,10.3,10.3,0,0,1,2.432-10.744,10.444,10.444,0,0,1,9.63-2.758,10.333,10.333,0,0,1,7.484,6.739,96.142,96.142,0,0,1-158.7,99.578Zm115.1-129.981a14.409,14.409,0,1,1,14.409,14.4A14.424,14.424,0,0,1,6659.14,457.989Z" transform="translate(-6452 -359.999)" fill="url(#b)"/></g></svg>