<svg xmlns="http://www.w3.org/2000/svg" xmlns:xlink="http://www.w3.org/1999/xlink" width="256" height="256.004" viewBox="0 0 256 256.004"><defs><linearGradient id="a" y1="-0.063" x2="0.928" y2="1" gradientUnits="objectBoundingBox"><stop offset="0" stop-color="#65747c"/><stop offset="1" stop-color="#2f2f4d"/></linearGradient><linearGradient id="b" x1="0.711" y1="0.046" x2="0.223" y2="1.03" gradientUnits="objectBoundingBox"><stop offset="0" stop-color="#fe285b"/><stop offset="1" stop-color="#933077"/></linearGradient><linearGradient id="c" x1="0.21" y1="0.086" x2="1.052" y2="1.062" gradientUnits="objectBoundingBox"><stop offset="0" stop-color="#fd8626"/><stop offset="1" stop-color="#fdf84a"/></linearGradient><linearGradient id="d" x1="1.261" y1="0.86" x2="0.179" y2="0.19" gradientUnits="objectBoundingBox"><stop offset="0" stop-color="#fe9022"/><stop offset="1" stop-color="#fe285b"/></linearGradient></defs><g transform="translate(-32 -32)"><g transform="translate(32 32)"><path d="M256,53.179c0-2.031,0-4.061-.012-6.092-.011-1.711-.03-3.42-.076-5.131a74.564,74.564,0,0,0-.977-11.166,37.717,37.717,0,0,0-3.5-10.62A35.709,35.709,0,0,0,235.82,4.561a37.682,37.682,0,0,0-10.615-3.5A74.614,74.614,0,0,0,214.034.081C212.324.035,210.614.015,208.9,0c-2.031-.012-4.061-.011-6.092-.011H53.19c-2.031,0-4.061,0-6.092.011-1.711.011-3.42.03-5.131.076A74.61,74.61,0,0,0,30.8,1.063a37.683,37.683,0,0,0-10.616,3.5A35.711,35.711,0,0,0,4.569,20.171,37.693,37.693,0,0,0,1.075,30.79,74.4,74.4,0,0,0,.1,41.957c-.047,1.71-.065,3.42-.076,5.131C0,49.118,0,51.149,0,53.179V202.815c0,2.031,0,4.061.012,6.092.011,1.711.03,3.42.076,5.131A74.408,74.408,0,0,0,1.065,225.2a37.691,37.691,0,0,0,3.5,10.62,35.708,35.708,0,0,0,15.61,15.609,37.713,37.713,0,0,0,10.615,3.5,74.514,74.514,0,0,0,11.171.983c1.71.046,3.42.066,5.131.076q3.053.012,6.1.008H202.811c2.031,0,4.061,0,6.092-.012,1.711-.011,3.42-.03,5.131-.076a74.522,74.522,0,0,0,11.171-.983,37.714,37.714,0,0,0,10.615-3.5,35.706,35.706,0,0,0,15.61-15.609,37.712,37.712,0,0,0,3.5-10.62,74.578,74.578,0,0,0,.977-11.166c.046-1.71.065-3.42.076-5.131.013-2.031.012-4.061.012-6.092V53.179Z" transform="translate(0 0.006)" fill-rule="evenodd" fill="url(#a)"/></g><g transform="translate(-115.157 -109.996)"><path d="M326.709,532.83a6.943,6.943,0,0,0,6.943,0l36.937-21.107a6.943,6.943,0,0,0,3.61-6.11V463.123a6.943,6.943,0,0,0-3.333-6.11l-37.214-21.107a6.943,6.943,0,0,0-6.943,0L290.05,457.013a6.943,6.943,0,0,0-3.333,6.11v42.491a6.943,6.943,0,0,0,3.61,6.11ZM301.158,468.4l27.772-18.607,31.1,18.607v33.049l-31.1,17.5-27.772-17.5Z" transform="translate(-107.189 -170.419)" fill="url(#b)"/><path d="M377.418,538.7m-7.5,0a7.5,7.5,0,1,0,7.5-7.5A7.5,7.5,0,0,0,369.92,538.7Z" transform="translate(-154.288 -224.887)" fill="#fff"/><path d="M525.44,463.123v42.491a6.943,6.943,0,0,0,3.61,6.11l36.937,21.384a6.943,6.943,0,0,0,6.943,0l36.937-21.384a6.943,6.943,0,0,0,3.61-6.11V463.123a6.943,6.943,0,0,0-3.333-6.11L572.93,435.907a6.943,6.943,0,0,0-6.943,0L529.05,457.291A6.943,6.943,0,0,0,525.44,463.123Zm13.886,3.888,29.994-17.219L599.313,468.4v33.049L569.32,518.667l-29.994-17.219Z" transform="translate(-242.322 -170.419)" fill="url(#c)"/><path d="M616.778,538.7m-7.5,0a7.5,7.5,0,1,0,7.5-7.5A7.5,7.5,0,0,0,609.28,538.7Z" transform="translate(-289.781 -224.887)" fill="#fff"/><path d="M444.577,330.591a6.943,6.943,0,0,0,6.943,0l36.937-21.384a6.943,6.943,0,0,0,3.61-6.11V260.883a6.943,6.943,0,0,0-3.333-6.11l-38.325-21.107a6.943,6.943,0,0,0-6.943,0L406.53,255.051a6.943,6.943,0,0,0-3.333,6.11v42.213a6.943,6.943,0,0,0,3.61,6.11Zm-27.772-65.819L446.8,247.553l31.382,17.219v33.6l-29.994,17.219-29.994-17.219Z" transform="translate(-173.124 -55.938)" fill="url(#d)"/><path d="M497.1,336.458m-7.5,0a7.5,7.5,0,1,0,7.5-7.5,7.5,7.5,0,0,0-7.5,7.5Z" transform="translate(-222.035 -110.407)" fill="#fff"/></g></g></svg>