<svg xmlns="http://www.w3.org/2000/svg" xmlns:xlink="http://www.w3.org/1999/xlink" width="256" height="256.003" viewBox="0 0 256 256.003"><defs><style>.a{fill-rule:evenodd;fill:url(#a);}.b{fill:url(#b);}.c{fill:#fff;}.d{fill:url(#c);}.e{fill:url(#d);}</style><linearGradient id="a" y1="-0.063" x2="0.928" y2="1" gradientUnits="objectBoundingBox"><stop offset="0" stop-color="#2f2f2f"/><stop offset="1" stop-color="#000525"/></linearGradient><linearGradient id="b" x1="0.711" y1="0.046" x2="0.223" y2="1.03" gradientUnits="objectBoundingBox"><stop offset="0" stop-color="#fe285b"/><stop offset="1" stop-color="#933077"/></linearGradient><linearGradient id="c" x1="0.21" y1="0.086" x2="1.052" y2="1.062" gradientUnits="objectBoundingBox"><stop offset="0" stop-color="#fd8626"/><stop offset="1" stop-color="#fdf84a"/></linearGradient><linearGradient id="d" x1="1.261" y1="0.86" x2="0.179" y2="0.19" gradientUnits="objectBoundingBox"><stop offset="0" stop-color="#fe9022"/><stop offset="1" stop-color="#fe285b"/></linearGradient></defs><g transform="translate(-32 -32)"><g transform="translate(32 32)"><path class="a" d="M256,41.463c0-1.583,0-3.166-.009-4.75-.008-1.334-.024-2.667-.059-4a58.143,58.143,0,0,0-.762-8.706,29.408,29.408,0,0,0-2.728-8.28A27.842,27.842,0,0,0,240.266,3.555,29.38,29.38,0,0,0,231.989.828a58.176,58.176,0,0,0-8.71-.766c-1.333-.036-2.667-.051-4-.059-1.583-.009-3.167-.008-4.75-.008H41.472c-1.583,0-3.167,0-4.75.008-1.334.008-2.667.024-4,.059a58.174,58.174,0,0,0-8.71.766,29.381,29.381,0,0,0-8.277,2.728A27.844,27.844,0,0,0,3.563,15.726a29.389,29.389,0,0,0-2.725,8.28,58.008,58.008,0,0,0-.762,8.706c-.037,1.333-.051,2.667-.059,4C0,38.3,0,39.879,0,41.463V214.53c0,1.583,0,3.166.009,4.75.008,1.334.024,2.667.059,4a58.016,58.016,0,0,0,.762,8.706,29.387,29.387,0,0,0,2.728,8.28A27.841,27.841,0,0,0,15.73,252.438a29.405,29.405,0,0,0,8.277,2.727,58.1,58.1,0,0,0,8.71.766c1.333.036,2.667.051,4,.059Q39.1,256,41.472,256H214.529c1.583,0,3.167,0,4.75-.009,1.334-.008,2.667-.024,4-.059a58.1,58.1,0,0,0,8.71-.766,29.405,29.405,0,0,0,8.277-2.727,27.84,27.84,0,0,0,12.171-12.171,29.4,29.4,0,0,0,2.729-8.28,58.147,58.147,0,0,0,.762-8.706c.036-1.333.051-2.667.059-4,.01-1.583.009-3.166.009-4.75V41.463Z" transform="translate(0 0.006)"/></g><g transform="translate(-115.157 -109.996)"><path class="b" d="M326.709,532.83a6.943,6.943,0,0,0,6.943,0l36.937-21.107a6.943,6.943,0,0,0,3.61-6.11V463.123a6.943,6.943,0,0,0-3.333-6.11l-37.214-21.107a6.943,6.943,0,0,0-6.943,0L290.05,457.013a6.943,6.943,0,0,0-3.333,6.11v42.491a6.943,6.943,0,0,0,3.61,6.11ZM301.158,468.4l27.772-18.607,31.1,18.607v33.049l-31.1,17.5-27.772-17.5Z" transform="translate(-107.189 -170.419)"/><path class="c" d="M377.418,538.7m-7.5,0a7.5,7.5,0,1,0,7.5-7.5A7.5,7.5,0,0,0,369.92,538.7Z" transform="translate(-154.288 -224.887)"/><path class="d" d="M525.44,463.123v42.491a6.943,6.943,0,0,0,3.61,6.11l36.937,21.384a6.943,6.943,0,0,0,6.943,0l36.937-21.384a6.943,6.943,0,0,0,3.61-6.11V463.123a6.943,6.943,0,0,0-3.333-6.11L572.93,435.907a6.943,6.943,0,0,0-6.943,0L529.05,457.291A6.943,6.943,0,0,0,525.44,463.123Zm13.886,3.888,29.994-17.219L599.313,468.4v33.049L569.32,518.667l-29.994-17.219Z" transform="translate(-242.322 -170.419)"/><path class="c" d="M616.778,538.7m-7.5,0a7.5,7.5,0,1,0,7.5-7.5A7.5,7.5,0,0,0,609.28,538.7Z" transform="translate(-289.781 -224.887)"/><path class="e" d="M444.577,330.591a6.943,6.943,0,0,0,6.943,0l36.937-21.384a6.943,6.943,0,0,0,3.61-6.11V260.883a6.943,6.943,0,0,0-3.333-6.11l-38.325-21.107a6.943,6.943,0,0,0-6.943,0L406.53,255.051a6.943,6.943,0,0,0-3.333,6.11v42.213a6.943,6.943,0,0,0,3.61,6.11Zm-27.772-65.819L446.8,247.553l31.382,17.219v33.6l-29.994,17.219-29.994-17.219Z" transform="translate(-173.124 -55.938)"/><path class="c" d="M497.1,336.458m-7.5,0a7.5,7.5,0,1,0,7.5-7.5,7.5,7.5,0,0,0-7.5,7.5Z" transform="translate(-222.035 -110.407)"/></g></g></svg>