<svg xmlns="http://www.w3.org/2000/svg" xmlns:xlink="http://www.w3.org/1999/xlink" width="256" height="256.004" viewBox="0 0 256 256.004"><defs><linearGradient id="a" y1="-0.063" x2="0.928" y2="1" gradientUnits="objectBoundingBox"><stop offset="0" stop-color="#65747c"/><stop offset="1" stop-color="#2f2f4d"/></linearGradient></defs><g transform="translate(-32 -31.999)"><g transform="translate(32 31.999)"><path d="M256,53.179c0-2.031,0-4.061-.012-6.092-.011-1.711-.03-3.42-.076-5.131a74.564,74.564,0,0,0-.977-11.166,37.717,37.717,0,0,0-3.5-10.62A35.709,35.709,0,0,0,235.82,4.561a37.682,37.682,0,0,0-10.615-3.5A74.614,74.614,0,0,0,214.034.081C212.324.035,210.614.015,208.9,0c-2.031-.012-4.061-.011-6.092-.011H53.19c-2.031,0-4.061,0-6.092.011-1.711.011-3.42.03-5.131.076A74.61,74.61,0,0,0,30.8,1.063a37.683,37.683,0,0,0-10.616,3.5A35.711,35.711,0,0,0,4.569,20.171,37.693,37.693,0,0,0,1.075,30.79,74.4,74.4,0,0,0,.1,41.957c-.047,1.71-.065,3.42-.076,5.131C0,49.118,0,51.149,0,53.179V202.815c0,2.031,0,4.061.012,6.092.011,1.711.03,3.42.076,5.131A74.408,74.408,0,0,0,1.065,225.2a37.691,37.691,0,0,0,3.5,10.62,35.708,35.708,0,0,0,15.61,15.609,37.713,37.713,0,0,0,10.615,3.5,74.514,74.514,0,0,0,11.171.983c1.71.046,3.42.066,5.131.076q3.053.012,6.1.008H202.811c2.031,0,4.061,0,6.092-.012,1.711-.011,3.42-.03,5.131-.076a74.522,74.522,0,0,0,11.171-.983,37.714,37.714,0,0,0,10.615-3.5,35.706,35.706,0,0,0,15.61-15.609,37.712,37.712,0,0,0,3.5-10.62,74.578,74.578,0,0,0,.977-11.166c.046-1.71.065-3.42.076-5.131.013-2.031.012-4.061.012-6.092V53.179Z" transform="translate(0 0.006)" fill-rule="evenodd" fill="url(#a)"/></g><g transform="translate(-245.657 -106.568)"><path d="M117.392-9.417H80.4L57.186-60.588h-10.7V-9.417H12.213V-148h54.4q23.756.581,33.911,12.017,10.155,11.242,9.793,27.524Q109.05-78.614,89.284-69.31ZM54.647-86.949a24.9,24.9,0,0,0,13.963-3.489q5.8-3.683,6.166-14.537.363-15.119-17.409-15.506H46.487v33.532ZM127.729-9.223l48.056-109.513H123.377V-148H210.6v26.167L163.091-9.223Z" transform="translate(294.25 347.75)" fill="#fff"/></g></g></svg>