<svg xmlns="http://www.w3.org/2000/svg" xmlns:xlink="http://www.w3.org/1999/xlink" width="256" height="256.003" viewBox="0 0 256 256.003"><defs><style>.a{fill-rule:evenodd;fill:url(#a);}.b{fill:url(#b);}</style><linearGradient id="a" y1="-0.063" x2="0.928" y2="1" gradientUnits="objectBoundingBox"><stop offset="0" stop-color="#2f2f2f"/><stop offset="1" stop-color="#000525"/></linearGradient><linearGradient id="b" x2="1" y2="1" gradientUnits="objectBoundingBox"><stop offset="0" stop-color="#ffe69c"/><stop offset="1" stop-color="#ffca3a"/></linearGradient></defs><g transform="translate(-32 -31.999)"><g transform="translate(32 31.999)"><path class="a" d="M256,41.463c0-1.583,0-3.166-.009-4.75-.008-1.334-.024-2.667-.059-4a58.143,58.143,0,0,0-.762-8.706,29.408,29.408,0,0,0-2.728-8.28A27.842,27.842,0,0,0,240.266,3.555,29.38,29.38,0,0,0,231.989.828a58.176,58.176,0,0,0-8.71-.766c-1.333-.036-2.667-.051-4-.059-1.583-.009-3.167-.008-4.75-.008H41.472c-1.583,0-3.167,0-4.75.008-1.334.008-2.667.024-4,.059a58.174,58.174,0,0,0-8.71.766,29.381,29.381,0,0,0-8.277,2.728A27.844,27.844,0,0,0,3.563,15.726a29.389,29.389,0,0,0-2.725,8.28,58.008,58.008,0,0,0-.762,8.706c-.037,1.333-.051,2.667-.059,4C0,38.3,0,39.879,0,41.463V214.53c0,1.583,0,3.166.009,4.75.008,1.334.024,2.667.059,4a58.016,58.016,0,0,0,.762,8.706,29.387,29.387,0,0,0,2.728,8.28A27.841,27.841,0,0,0,15.73,252.438a29.405,29.405,0,0,0,8.277,2.727,58.1,58.1,0,0,0,8.71.766c1.333.036,2.667.051,4,.059Q39.1,256,41.472,256H214.529c1.583,0,3.167,0,4.75-.009,1.334-.008,2.667-.024,4-.059a58.1,58.1,0,0,0,8.71-.766,29.405,29.405,0,0,0,8.277-2.727,27.84,27.84,0,0,0,12.171-12.171,29.4,29.4,0,0,0,2.729-8.28,58.147,58.147,0,0,0,.762-8.706c.036-1.333.051-2.667.059-4,.01-1.583.009-3.166.009-4.75V41.463Z" transform="translate(0 0.006)"/></g><path class="b" d="M6162.207-126.352a9.733,9.733,0,0,1-6.193-2.133c-2.663-2.226-4.014-6.024-4.014-11.286V-263.263a16.92,16.92,0,0,1,1.836-6.831,12.273,12.273,0,0,1,4.223-4.7,14.792,14.792,0,0,1,8.139-2.135h50.668a5.238,5.238,0,0,1,.995-.08,9.528,9.528,0,0,1,4.329,1.11,15.663,15.663,0,0,1,5.807,5.568c4.8,7.35,7.546,12.095,7.661,12.293a7.944,7.944,0,0,0,5.681,2.093h.113c-.009,0-.039,0-.04,0,.02.02,5.2.03,15.4.03,18.723,0,48.57-.034,49.832-.036h.011s.291-.03.767-.03a11.753,11.753,0,0,1,6.333,1.771c2.922,1.928,4.4,5.243,4.4,9.853V-139.06l.005-.006s0,0,0,.01a15.677,15.677,0,0,1-.022,3.354,11.342,11.342,0,0,1-2.474,6.17c-1.8,2.06-4.485,3.1-7.976,3.1H6163.379A8.063,8.063,0,0,1,6162.207-126.352Zm32.628-40.976a3.765,3.765,0,0,0-3.761,3.76v12.5a11.28,11.28,0,0,0,11.268,11.268h69.32a11.28,11.28,0,0,0,11.268-11.268v-82.6a11.28,11.28,0,0,0-11.268-11.266h-69.32a11.28,11.28,0,0,0-11.268,11.266v12.619a3.765,3.765,0,0,0,3.761,3.76,3.764,3.764,0,0,0,3.759-3.76v-12.619a3.764,3.764,0,0,1,3.76-3.759h69.32a3.764,3.764,0,0,1,3.759,3.759v82.6a3.764,3.764,0,0,1-3.759,3.76h-69.32a3.765,3.765,0,0,1-3.76-3.76v-12.5A3.764,3.764,0,0,0,6194.835-167.327Zm42.259-22.287a20.036,20.036,0,0,0-19.619,16.131,3.244,3.244,0,0,0,.678,2.7,3.232,3.232,0,0,0,2.506,1.188h32.909a3.239,3.239,0,0,0,2.505-1.181,3.269,3.269,0,0,0,.691-2.708,20.05,20.05,0,0,0-19.645-16.131Zm-45.854,8.541a3.764,3.764,0,0,0-3.76,3.759,3.764,3.764,0,0,0,3.76,3.76h6.884a3.765,3.765,0,0,0,3.76-3.76,3.764,3.764,0,0,0-3.76-3.759Zm0-15a3.764,3.764,0,0,0-3.76,3.76,3.764,3.764,0,0,0,3.76,3.759h6.884a3.764,3.764,0,0,0,3.76-3.759,3.765,3.765,0,0,0-3.76-3.76Zm45.88-18.986a10.492,10.492,0,0,0-10.48,10.48,10.492,10.492,0,0,0,10.48,10.48,10.492,10.492,0,0,0,10.48-10.48A10.492,10.492,0,0,0,6237.12-215.064Zm-45.88,3.925a3.764,3.764,0,0,0-3.76,3.759,3.764,3.764,0,0,0,3.76,3.76h6.884a3.765,3.765,0,0,0,3.76-3.76,3.764,3.764,0,0,0-3.76-3.759Z" transform="translate(-6075.123 361.678)"/></g></svg>