<svg xmlns="http://www.w3.org/2000/svg" xmlns:xlink="http://www.w3.org/1999/xlink" width="256" height="256.004" viewBox="0 0 256 256.004"><defs><linearGradient id="a" y1="-0.063" x2="0.928" y2="1" gradientUnits="objectBoundingBox"><stop offset="0" stop-color="#65747c"/><stop offset="1" stop-color="#2f2f4d"/></linearGradient><linearGradient id="b" x2="1" y2="1" gradientUnits="objectBoundingBox"><stop offset="0" stop-color="#ffe69c"/><stop offset="1" stop-color="#ffca3a"/></linearGradient></defs><g transform="translate(-32 -31.999)"><g transform="translate(32 31.999)"><path d="M256,53.179c0-2.031,0-4.061-.012-6.092-.011-1.711-.03-3.42-.076-5.131a74.564,74.564,0,0,0-.977-11.166,37.717,37.717,0,0,0-3.5-10.62A35.709,35.709,0,0,0,235.82,4.561a37.682,37.682,0,0,0-10.615-3.5A74.614,74.614,0,0,0,214.034.081C212.324.035,210.614.015,208.9,0c-2.031-.012-4.061-.011-6.092-.011H53.19c-2.031,0-4.061,0-6.092.011-1.711.011-3.42.03-5.131.076A74.61,74.61,0,0,0,30.8,1.063a37.683,37.683,0,0,0-10.616,3.5A35.711,35.711,0,0,0,4.569,20.171,37.693,37.693,0,0,0,1.075,30.79,74.4,74.4,0,0,0,.1,41.957c-.047,1.71-.065,3.42-.076,5.131C0,49.118,0,51.149,0,53.179V202.815c0,2.031,0,4.061.012,6.092.011,1.711.03,3.42.076,5.131A74.408,74.408,0,0,0,1.065,225.2a37.691,37.691,0,0,0,3.5,10.62,35.708,35.708,0,0,0,15.61,15.609,37.713,37.713,0,0,0,10.615,3.5,74.514,74.514,0,0,0,11.171.983c1.71.046,3.42.066,5.131.076q3.053.012,6.1.008H202.811c2.031,0,4.061,0,6.092-.012,1.711-.011,3.42-.03,5.131-.076a74.522,74.522,0,0,0,11.171-.983,37.714,37.714,0,0,0,10.615-3.5,35.706,35.706,0,0,0,15.61-15.609,37.712,37.712,0,0,0,3.5-10.62,74.578,74.578,0,0,0,.977-11.166c.046-1.71.065-3.42.076-5.131.013-2.031.012-4.061.012-6.092V53.179Z" transform="translate(0 0.006)" fill-rule="evenodd" fill="url(#a)"/></g><path d="M6162.207-126.352a9.733,9.733,0,0,1-6.193-2.133c-2.663-2.226-4.014-6.024-4.014-11.286V-263.263a16.92,16.92,0,0,1,1.836-6.831,12.273,12.273,0,0,1,4.223-4.7,14.792,14.792,0,0,1,8.139-2.135h50.668a5.238,5.238,0,0,1,.995-.08,9.528,9.528,0,0,1,4.329,1.11,15.663,15.663,0,0,1,5.807,5.568c4.8,7.35,7.546,12.095,7.661,12.293a7.944,7.944,0,0,0,5.681,2.093h.113c-.009,0-.039,0-.04,0,.02.02,5.2.03,15.4.03,18.723,0,48.57-.034,49.832-.036h.011s.291-.03.767-.03a11.753,11.753,0,0,1,6.333,1.771c2.922,1.928,4.4,5.243,4.4,9.853V-139.06l.005-.006s0,0,0,.01a15.677,15.677,0,0,1-.022,3.354,11.342,11.342,0,0,1-2.474,6.17c-1.8,2.06-4.485,3.1-7.976,3.1H6163.379A8.063,8.063,0,0,1,6162.207-126.352Zm32.628-40.976a3.765,3.765,0,0,0-3.761,3.76v12.5a11.28,11.28,0,0,0,11.268,11.268h69.32a11.28,11.28,0,0,0,11.268-11.268v-82.6a11.28,11.28,0,0,0-11.268-11.266h-69.32a11.28,11.28,0,0,0-11.268,11.266v12.619a3.765,3.765,0,0,0,3.761,3.76,3.764,3.764,0,0,0,3.759-3.76v-12.619a3.764,3.764,0,0,1,3.76-3.759h69.32a3.764,3.764,0,0,1,3.759,3.759v82.6a3.764,3.764,0,0,1-3.759,3.76h-69.32a3.765,3.765,0,0,1-3.76-3.76v-12.5A3.764,3.764,0,0,0,6194.835-167.327Zm42.259-22.287a20.036,20.036,0,0,0-19.619,16.131,3.244,3.244,0,0,0,.678,2.7,3.232,3.232,0,0,0,2.506,1.188h32.909a3.239,3.239,0,0,0,2.505-1.181,3.269,3.269,0,0,0,.691-2.708,20.05,20.05,0,0,0-19.645-16.131Zm-45.854,8.541a3.764,3.764,0,0,0-3.76,3.759,3.764,3.764,0,0,0,3.76,3.76h6.884a3.765,3.765,0,0,0,3.76-3.76,3.764,3.764,0,0,0-3.76-3.759Zm0-15a3.764,3.764,0,0,0-3.76,3.76,3.764,3.764,0,0,0,3.76,3.759h6.884a3.764,3.764,0,0,0,3.76-3.759,3.765,3.765,0,0,0-3.76-3.76Zm45.88-18.986a10.492,10.492,0,0,0-10.48,10.48,10.492,10.492,0,0,0,10.48,10.48,10.492,10.492,0,0,0,10.48-10.48A10.492,10.492,0,0,0,6237.12-215.064Zm-45.88,3.925a3.764,3.764,0,0,0-3.76,3.759,3.764,3.764,0,0,0,3.76,3.76h6.884a3.765,3.765,0,0,0,3.76-3.76,3.764,3.764,0,0,0-3.76-3.759Z" transform="translate(-6075.123 361.678)" fill="url(#b)"/></g></svg>