<svg xmlns="http://www.w3.org/2000/svg" xmlns:xlink="http://www.w3.org/1999/xlink" width="256" height="256.003" viewBox="0 0 256 256.003"><defs><style>.a{fill-rule:evenodd;fill:url(#a);}.b{fill:#4485bf;}.c{fill:#20428a;}.d{fill:#fff;}</style><linearGradient id="a" y1="-0.063" x2="0.928" y2="1" gradientUnits="objectBoundingBox"><stop offset="0" stop-color="#2f2f2f"/><stop offset="1" stop-color="#000525"/></linearGradient></defs><g transform="translate(-32 -31.999)"><g transform="translate(32 31.999)"><path class="a" d="M256,41.463c0-1.583,0-3.166-.009-4.75-.008-1.334-.024-2.667-.059-4a58.143,58.143,0,0,0-.762-8.706,29.408,29.408,0,0,0-2.728-8.28A27.842,27.842,0,0,0,240.266,3.555,29.38,29.38,0,0,0,231.989.828a58.176,58.176,0,0,0-8.71-.766c-1.333-.036-2.667-.051-4-.059-1.583-.009-3.167-.008-4.75-.008H41.472c-1.583,0-3.167,0-4.75.008-1.334.008-2.667.024-4,.059a58.174,58.174,0,0,0-8.71.766,29.381,29.381,0,0,0-8.277,2.728A27.844,27.844,0,0,0,3.563,15.726a29.389,29.389,0,0,0-2.725,8.28,58.008,58.008,0,0,0-.762,8.706c-.037,1.333-.051,2.667-.059,4C0,38.3,0,39.879,0,41.463V214.53c0,1.583,0,3.166.009,4.75.008,1.334.024,2.667.059,4a58.016,58.016,0,0,0,.762,8.706,29.387,29.387,0,0,0,2.728,8.28A27.841,27.841,0,0,0,15.73,252.438a29.405,29.405,0,0,0,8.277,2.727,58.1,58.1,0,0,0,8.71.766c1.333.036,2.667.051,4,.059Q39.1,256,41.472,256H214.529c1.583,0,3.167,0,4.75-.009,1.334-.008,2.667-.024,4-.059a58.1,58.1,0,0,0,8.71-.766,29.405,29.405,0,0,0,8.277-2.727,27.84,27.84,0,0,0,12.171-12.171,29.4,29.4,0,0,0,2.729-8.28,58.147,58.147,0,0,0,.762-8.706c.036-1.333.051-2.667.059-4,.01-1.583.009-3.166.009-4.75V41.463Z" transform="translate(0 0.006)"/></g><path class="b" d="M0,12.683s9.845,3.5,21.512,24.721c15.97,27.711,16.7,61.766,61.182,68.766,64.537,3.427,59.578-57.755,59.578-57.755s2.625,48.64-57.463,48.931c-43.17-3.792-42.952-51.7-61.62-73.652C46.232,20.121,63.442,6.631,63.442,6.631s-19.252,6.636-36.389,8.24A82.806,82.806,0,0,1,0,12.683ZM186.391,93.555s-9.845-3.5-21.512-24.721C148.909,41.2,148.179,7.141,103.7.213,39.232-3.141,44.191,57.9,44.191,57.9S41.639,9.329,101.581,9.037c43.17,3.792,42.952,51.63,61.62,73.579-23.117,3.573-40.254,16.991-40.254,16.991s19.179-6.636,36.389-8.24a82.806,82.806,0,0,1,27.055,2.188Z" transform="translate(64.107 80.622)"/><path class="c" d="M92.611,30.7A22.169,22.169,0,1,0,114.78,52.864,22.159,22.159,0,0,0,92.611,30.7Zm0,35.295a13.053,13.053,0,1,1,13.053-13.053A13.04,13.04,0,0,1,92.611,65.99Z" transform="translate(64.107 80.622)"/><path class="d" d="M25.449,118.859,5.76,146.935H18.011a8.573,8.573,0,0,0,2.479-.292,4.654,4.654,0,0,0,1.9-.948,5.686,5.686,0,0,0,1.458-1.9,20,20,0,0,0,1.24-3.136l.729.146-1.458,7.949H0v-.8l19.179-27.273H9.625a10.556,10.556,0,0,0-2.917.292,3.182,3.182,0,0,0-1.677.948,4.036,4.036,0,0,0-.948,1.75,17.006,17.006,0,0,0-.583,2.7H2.7l.583-7.438H25.449v-.073Zm12.907,9.115a9.641,9.641,0,0,1,3.865.8,9.377,9.377,0,0,1,3.063,2.188,10.824,10.824,0,0,1,2.042,3.282,10.583,10.583,0,0,1,.729,4.011,12.045,12.045,0,0,1-.365,2.771,25,25,0,0,1-.948,2.771,9.1,9.1,0,0,1-8.678,5.615,8.883,8.883,0,0,1-6.855-3.209,11,11,0,0,1-1.969-3.354,10.583,10.583,0,0,1-.729-4.011A11.776,11.776,0,0,1,29.9,133.3a13.823,13.823,0,0,1,1.6-2.406,10.843,10.843,0,0,1,2.042-1.677,8.983,8.983,0,0,1,2.261-1.021,15.079,15.079,0,0,1,2.552-.219ZM37.7,129.36a4.254,4.254,0,0,0-1.9.438,4.559,4.559,0,0,0-1.6,1.313,7.727,7.727,0,0,0-1.094,2.334,12.047,12.047,0,0,0-.438,3.5,19.119,19.119,0,0,0,.438,4.157,13.45,13.45,0,0,0,1.24,3.427,7.149,7.149,0,0,0,2.042,2.334,4.369,4.369,0,0,0,2.625.875,6.252,6.252,0,0,0,1.969-.365,4.342,4.342,0,0,0,1.531-1.313,6.139,6.139,0,0,0,1.021-2.406,17.284,17.284,0,0,0,.365-3.719,18.45,18.45,0,0,0-.438-4.084,10.706,10.706,0,0,0-1.24-3.354,5.993,5.993,0,0,0-1.969-2.261,3.873,3.873,0,0,0-2.552-.875Zm23.263-1.386a9.641,9.641,0,0,1,3.865.8,10.216,10.216,0,0,1,3.063,2.188,10.824,10.824,0,0,1,2.042,3.282,10.583,10.583,0,0,1,.729,4.011,12.045,12.045,0,0,1-.365,2.771,24.994,24.994,0,0,1-.948,2.771,9.1,9.1,0,0,1-8.678,5.615,8.883,8.883,0,0,1-6.855-3.209,12.7,12.7,0,0,1-1.969-3.354,10.583,10.583,0,0,1-.729-4.011A11.776,11.776,0,0,1,52.5,133.3a13.823,13.823,0,0,1,1.6-2.406,10.843,10.843,0,0,1,2.042-1.677,8.4,8.4,0,0,1,2.334-1.021,13.637,13.637,0,0,1,2.479-.219Zm-.656,1.386a4.254,4.254,0,0,0-1.9.438,4.559,4.559,0,0,0-1.6,1.313,7.727,7.727,0,0,0-1.094,2.334,12.047,12.047,0,0,0-.438,3.5,19.119,19.119,0,0,0,.438,4.157,13.45,13.45,0,0,0,1.24,3.427,7.149,7.149,0,0,0,2.042,2.334,4.369,4.369,0,0,0,2.625.875,5.894,5.894,0,0,0,1.969-.365,4.342,4.342,0,0,0,1.531-1.313,6.139,6.139,0,0,0,1.021-2.406,17.284,17.284,0,0,0,.365-3.719,18.45,18.45,0,0,0-.438-4.084,10.705,10.705,0,0,0-1.24-3.354,5.993,5.993,0,0,0-1.969-2.261,3.741,3.741,0,0,0-2.552-.875Zm19.4,2.917,1.75-1.75c.438-.438.729-.656.875-.8a8.311,8.311,0,0,1,2.188-1.313,6.525,6.525,0,0,1,2.261-.438,4.953,4.953,0,0,1,3.282,1.094,5.6,5.6,0,0,1,1.823,3.209A20.475,20.475,0,0,1,94,130.089a10.857,10.857,0,0,1,1.75-1.313,7.441,7.441,0,0,1,1.6-.656,5.983,5.983,0,0,1,1.6-.146,6.775,6.775,0,0,1,2.115.365,3.883,3.883,0,0,1,1.677,1.24,6.365,6.365,0,0,1,1.167,2.334,12.583,12.583,0,0,1,.438,3.573v8.678a12.923,12.923,0,0,0,.073,1.75,1.856,1.856,0,0,0,.365,1.167,1.991,1.991,0,0,0,.875.656,5.691,5.691,0,0,0,1.75.219v.8h-9.99v-.8h.438a6.712,6.712,0,0,0,1.386-.146,1.75,1.75,0,0,0,.875-.51,2.446,2.446,0,0,0,.438-1.167,13.638,13.638,0,0,0,.146-1.969v-8.678a11.287,11.287,0,0,0-.219-2.406,3.731,3.731,0,0,0-.656-1.531,2.624,2.624,0,0,0-1.021-.8,4.385,4.385,0,0,0-1.458-.219,6.383,6.383,0,0,0-1.167.146,3.812,3.812,0,0,0-1.167.438,6.849,6.849,0,0,0-1.313.875,12.25,12.25,0,0,0-1.531,1.313v10.866a10.819,10.819,0,0,0,.073,1.677,2.1,2.1,0,0,0,.146.875,2.012,2.012,0,0,0,.875.875,5.148,5.148,0,0,0,2.188.365v.8H85.246v-.8a10.74,10.74,0,0,0,1.823-.146,1.6,1.6,0,0,0,1.021-.583,1.856,1.856,0,0,0,.365-1.167,13.5,13.5,0,0,0,.073-1.823v-8.678a10.122,10.122,0,0,0-.219-2.334,3.75,3.75,0,0,0-.729-1.531,2.384,2.384,0,0,0-1.094-.8,4.246,4.246,0,0,0-1.386-.219,3.476,3.476,0,0,0-1.458.292,8.858,8.858,0,0,0-1.458.656,14.788,14.788,0,0,0-1.313.948,11.54,11.54,0,0,0-.948.948v10.866a9.822,9.822,0,0,0,.073,1.6,2.587,2.587,0,0,0,.219.948.93.93,0,0,0,.365.51,3.087,3.087,0,0,0,.51.365,4.961,4.961,0,0,0,2.188.292v.8h-9.99v-.8a9.513,9.513,0,0,0,1.677-.146,1.765,1.765,0,0,0,.948-.583,2.446,2.446,0,0,0,.438-1.167,13.506,13.506,0,0,0,.073-1.823v-7.73c0-1.313,0-2.334-.073-3.063s-.146-1.313-.219-1.677a1.443,1.443,0,0,0-.51-.729,2.251,2.251,0,0,0-.8-.146,4.609,4.609,0,0,0-1.531.365L73,130.6l6.053-2.479H80v4.157H79.7Zm37.191-11.814v11.814h6.563a10.122,10.122,0,0,0,2.334-.219,2.6,2.6,0,0,0,1.386-.8,2.917,2.917,0,0,0,.729-1.313,7.338,7.338,0,0,0,.219-1.969h.8V138.4h-.8c-.146-.8-.219-1.531-.365-2.115a3.5,3.5,0,0,0-.656-1.386,2.308,2.308,0,0,0-1.313-.729,9.7,9.7,0,0,0-2.334-.219h-6.563V143.8a13,13,0,0,0,.146,2.406,1.594,1.594,0,0,0,.219.365.67.67,0,0,0,.438.292,3.39,3.39,0,0,0,.656.219,4.171,4.171,0,0,0,1.021.073h5.1a19.158,19.158,0,0,0,2.188-.073,8.176,8.176,0,0,0,1.531-.292,5.646,5.646,0,0,0,1.167-.51,5.752,5.752,0,0,0,1.094-.875,17.022,17.022,0,0,0,2.771-4.084h.875l-2.625,7.511H108.436v-.8h1.021a3.55,3.55,0,0,0,.875-.073,4.11,4.11,0,0,0,.875-.292,2.561,2.561,0,0,0,1.24-1.24,10.9,10.9,0,0,0,.292-2.917v-19.4a19.879,19.879,0,0,0-.146-2.334,2.214,2.214,0,0,0-.438-1.24,3.42,3.42,0,0,0-2.7-.875h-1.021v-.8h23.044v6.563h-.51a22.7,22.7,0,0,0-.656-2.625,3.341,3.341,0,0,0-1.021-1.531,2.9,2.9,0,0,0-1.6-.656,21.585,21.585,0,0,0-2.479-.146h-8.313Zm18.45,8.094h9.407v.8h-.438a2.393,2.393,0,0,0-1.531.438,1.312,1.312,0,0,0-.51,1.094A5.733,5.733,0,0,0,143,133.3l4.886,10.209,4.521-11.157a5.78,5.78,0,0,0,.365-1.823.925.925,0,0,0-.073-.438,1.28,1.28,0,0,0-.292-.365,5.026,5.026,0,0,0-.583-.219,4.829,4.829,0,0,0-1.094-.073v-.8h6.563v.8a3.7,3.7,0,0,0-.948.146,1.943,1.943,0,0,0-.729.438,4.546,4.546,0,0,0-.656.875c-.219.365-.438.948-.729,1.6l-8.24,20.2a12.12,12.12,0,0,1-1.386,2.552,8.729,8.729,0,0,1-1.75,1.9,7.4,7.4,0,0,1-1.9,1.167,4.28,4.28,0,0,1-1.823.365,3.023,3.023,0,0,1-1.167-.219,3.929,3.929,0,0,1-.948-.51,2.068,2.068,0,0,1-.583-.8,2.019,2.019,0,0,1-.219-.948,2.215,2.215,0,0,1,.583-1.531,2.461,2.461,0,0,1,1.677-.583,6.108,6.108,0,0,1,.729.146c.292.073.656.219.948.292a6.081,6.081,0,0,1,.875.292c.292.073.438.146.51.146a3.209,3.209,0,0,0,.729-.146,2.222,2.222,0,0,0,.729-.51,7.121,7.121,0,0,0,.8-1.021,10.9,10.9,0,0,0,.8-1.6l1.458-3.5-7.292-15.241c-.073-.146-.219-.365-.365-.656a7.685,7.685,0,0,0-.51-.8,6.377,6.377,0,0,0-.583-.729,3.291,3.291,0,0,0-.51-.51,4.37,4.37,0,0,0-1.6-.583v-1.094h.146Zm40.836,1.24c-9.772,0-15.605,9.772-15.605,9.772s4.886,11.668,15.605,11.741,15.605-11.741,15.605-11.741-5.834-9.772-15.605-9.772Zm0,18.522c-7-.073-11.741-8.678-11.741-8.678s4.667-6.928,11.741-6.928,11.741,6.928,11.741,6.928S183.181,148.393,176.181,148.32Zm0-12.689a4.886,4.886,0,1,0,4.886,4.886A4.886,4.886,0,0,0,176.181,135.631Z" transform="translate(64.107 80.622)"/></g></svg>