<svg xmlns="http://www.w3.org/2000/svg" viewBox="0 0 378 370" width="378" height="370"><style></style><path id="Path 0" fill-rule="evenodd" d="M114.5-.02 176 0c36.19.01 62.94.41 65 .97 1.93.53 4.95 2.44 6.72 4.25 2.89 2.95 5.54 10.55 26.29 75.28 12.69 39.6 26.68 83.25 31.09 97s9.56 29.73 14.86 46l7.27 2.29c4 1.26 10.65 4.24 14.77 6.61 4.49 2.59 10.42 7.29 14.77 11.71 3.99 4.07 7.25 7.95 7.25 8.64-.01.69.43 1.25.98 1.25s2.76 3.71 4.91 8.25c2.14 4.54 4.64 10.73 5.55 13.75.9 3.02 1.9 10.23 2.22 16 .4 7.39.12 12.87-.96 18.5-.84 4.4-3.06 11.38-4.93 15.5-1.87 4.13-4.94 9.75-6.82 12.5s-5.91 7.43-8.94 10.4c-3.04 2.97-7.55 6.77-10.03 8.45-2.48 1.67-7.87 4.59-12 6.47-4.12 1.88-10.76 4.04-14.75 4.8-3.99.76-10.29 1.38-14 1.39-3.71 0-9.45-.47-12.75-1.05-3.3-.58-9.94-2.61-14.75-4.51-4.81-1.9-11.11-5.14-14-7.2-2.89-2.06-7.56-6-10.39-8.75-2.83-2.75-7.47-8.6-10.31-13-2.84-4.4-6.35-11.6-7.81-16-2.4-7.25-2.65-9.47-2.74-39.52l-116.8.52-8.19 28.5c-4.51 15.68-8.66 29.4-9.22 30.5-.57 1.1-2.44 3.24-7.29 7.5l-85.17-.5-2.91-3.25C.44 340.49 0 339.17 0 334.5c0-4.41 4.09-18.26 20.58-69.75 11.32-35.34 34.3-107 51.06-159.25 16.76-52.25 31.25-96.35 32.19-98 .94-1.65 3.73-4.02 6.19-5.26m30.34 192.51c-.28.98 7.02 1.25 34.14 1.25 18.98 0 34.49-.34 34.48-.75-.01-.41-3.2-11.78-7.09-25.25-3.89-13.47-11.55-40.03-17.02-59-5.48-18.97-10.05-34.59-10.16-34.7-.12-.11-7.81 26.22-17.1 58.5-9.3 32.29-17.06 59.26-17.25 59.95z" style="fill:#fff"/></svg>