<svg xmlns="http://www.w3.org/2000/svg" viewBox="0 0 310 310" width="310" height="310"><style></style><path id="Path 0" fill-rule="evenodd" d="M0 0h310v310H0V155m23.25.25.25 131.25h194l.5-60.5h23l.5 60.5h45l.48-262.5H22.99m76.45 29.95 26.79.55 1.34 3.5c.75 1.92 5.37 13.85 10.29 26.5 4.91 12.65 14.38 36.95 21.03 54 6.66 17.05 12.1 31.56 12.11 32.25 0 .95-3.06 1.19-25.27.75l-11.28-31-42.95-.53L80 172H67.5c-11.25 0-12.5-.18-12.48-1.75.02-.96 3.14-9.62 6.95-19.25 3.81-9.62 12.61-32.12 19.56-50 6.95-17.87 13.83-35.77 15.28-39.78m2.69 56.72c23.39.05 26.41-.23 26.12-1.19-.2-.69-2.97-8.45-6.14-17.25-3.18-8.8-6.05-16.31-6.38-16.69-.33-.38-3.52 7.37-7.1 17.22l-6.5 17.91z" style="fill:#fff"/></svg>