<svg xmlns="http://www.w3.org/2000/svg" viewBox="0 0 303 95" width="303" height="95"><style></style><path id="Path 0" fill-rule="evenodd" d="M119.5.52c3.3.26 8.44 1.27 11.43 2.23s7.26 3.36 9.5 5.33c2.24 1.97 4.66 4.89 5.38 6.5.73 1.61 1.18 4.03 1 5.39-.19 1.5-1.68 3.37-3.81 4.77-1.93 1.28-4.85 2.31-6.5 2.3-1.65-.01-5.25-1.44-8-3.19-3.35-2.14-6.65-3.33-10-3.62-3.99-.35-5.51-.03-7.5 1.6-2.04 1.67-2.3 2.38-1.41 3.86.64 1.05 5.89 3.51 12.5 5.86 6.28 2.22 12.76 4.76 14.41 5.63 1.65.87 4.52 2.87 6.39 4.45 1.86 1.58 4.22 4.56 5.25 6.62C149.21 50.4 150 54.13 150 57c0 2.86-.8 6.61-1.86 8.75-1.02 2.06-3.6 5.22-5.75 7.02-2.14 1.8-6.36 4.2-9.39 5.33-3.1 1.16-9.21 2.31-14 2.63-5.33.35-10.55.09-14-.71-3.03-.69-8.12-2.67-11.33-4.39-3.6-1.93-6.85-4.63-8.5-7.04-1.77-2.61-2.67-5.23-2.67-7.84 0-3.03.63-4.47 2.75-6.34 2.01-1.76 3.9-2.4 7-2.37 3.46.03 4.99.71 8.25 3.68 2.2 2 5.46 4.24 7.25 4.96 1.79.73 5.84 1.31 9 1.29 4.06-.01 6.27-.53 7.53-1.75.98-.94 1.79-2.17 1.79-2.72 0-.55-.81-1.76-1.79-2.69-.98-.93-6.5-3.34-12.28-5.35-5.78-2.02-11.85-4.35-13.5-5.18-1.65-.83-4.46-2.59-6.25-3.9S88.1 36.2 87 34c-1.33-2.67-2-6-2-10 0-3.3.62-7.24 1.37-8.75.76-1.51 3.01-4.21 5-6 2-1.79 5.09-3.98 6.88-4.88 1.79-.9 5.95-2.24 9.25-2.98 3.3-.74 8.7-1.13 12-.87zM165 .04c.82-.01 3.07.39 5 .9 1.93.52 4.18 1.71 5 2.65 1 1.13 1.67 4.74 2.5 19.81l7.72-8.95c4.24-4.92 9.08-9.74 10.75-10.7C197.64 2.79 200.35 2 202 2c2.02 0 4.23 1.12 6.75 3.42 2.97 2.71 3.75 4.16 3.75 6.93 0 1.99-.86 4.59-2 6.03-1.1 1.4-5.25 6.04-16.46 18.12l9.59 14c5.27 7.7 9.99 14.79 10.48 15.75.49.96.89 2.88.89 4.25 0 1.38-.46 3.51-1.02 4.75-.56 1.24-2.36 3.04-4 4-1.64.96-4.1 1.75-5.48 1.75-1.37 0-3.74-.63-5.25-1.39-1.69-.86-6.42-6.88-21.75-29.75l-.53 12.32c-.29 6.77-.97 13.17-1.5 14.21-.53 1.04-2.21 2.5-3.72 3.25-1.51.75-4.55 1.36-6.75 1.36-3.01 0-4.8-.72-10.5-5.83l-.25-32.59c-.21-27.14 0-33.16 1.25-36.08.94-2.2 2.71-4.04 4.75-4.96 1.79-.8 3.93-1.48 4.75-1.5zm-97.5 1c1.65-.02 4.46.87 6.25 1.96 2.17 1.34 3.6 3.25 4.31 5.75.68 2.4.95 15.04.44 66.42l-3.25 2.91C72.58 80.48 71.11 81 67 81c-3.87 0-5.68-.57-8-2.5-2.22-1.85-3-3.35-2.96-9l-3.27 3.14c-1.8 1.72-4.85 3.97-6.77 5-2.71 1.44-5.65 1.86-13 1.86-7.8-.01-10.22-.39-13.5-2.15-2.2-1.18-5.69-3.77-7.75-5.75-2.06-1.98-4.85-5.51-6.2-7.85C4.2 61.41 2.34 56.58 1.42 53 .27 48.5-.11 44.04.21 38.5c.36-6.26 1.15-9.47 3.63-14.75 1.74-3.71 5.07-8.67 7.41-11.02 2.34-2.35 6.5-5.38 9.25-6.73 4.17-2.05 6.49-2.46 14-2.48 6.88-.01 9.83.43 12.5 1.85 1.92 1.02 4.75 3.04 6.27 4.49 2.76 2.63 2.77 2.63 2.75.39-.01-1.24.43-3.15.98-4.25s2.46-2.66 4.25-3.46c1.79-.8 4.6-1.48 6.25-1.5zM28.09 30.1c-1.16 1.32-2.46 4.65-2.89 7.4-.43 2.75-.42 7.02.04 9.5.45 2.48 1.48 5.51 2.29 6.75.81 1.24 3.04 2.92 4.97 3.75 1.92.83 4.51 1.5 5.75 1.5 1.24-.01 3.6-.82 5.25-1.81 1.65-1 3.79-3.47 4.75-5.5C49.31 49.45 50 45.64 50 42c0-3.3-.65-7.46-1.44-9.25-.86-1.93-2.89-3.96-5-5-1.96-.96-4.8-1.72-6.31-1.69-1.51.04-3.72.42-4.9.86-1.18.43-3.09 1.86-4.26 3.18zM245.5 15.27c6.85.23 7.01.29 7.25 2.98.14 1.51-.2 3.65-.75 4.75-.77 1.54-1.98 1.99-5.25 1.97-2.84-.02-4.78.55-5.85 1.75-.88.98-1.89 2.57-2.25 3.53-.59 1.59.2 1.75 8.35 1.75 7.11 0 9.1.31 9.5 1.5.43 1.28 1.19 1.19 5.25-.63 3.48-1.55 5.82-1.96 8.75-1.51 2.2.33 4.9 1.53 8 4.72l5-2.62c4.05-2.13 5.95-2.53 10-2.15 3.78.37 5.55 1.12 7.25 3.09 1.65 1.91 2.25 3.86 2.25 7.35 0 2.61-.92 11.5-2.03 19.75-1.12 8.25-2.47 16.01-3 17.25-.82 1.9-1.74 2.25-5.97 2.25-3.06 0-5.2-.49-5.52-1.25-.29-.69.39-7.44 1.5-15 1.11-7.56 2.02-15.77 2.02-18.25 0-4.23-.16-4.5-2.75-4.54-1.51-.03-3.78.76-5.04 1.75-2 1.57-2.56 3.78-4.57 18.29-1.26 9.08-2.6 17.06-2.97 17.75-.4.74-2.7 1.25-5.67 1.25-3.04 0-5.22-.49-5.55-1.25-.31-.69.4-8 1.56-16.25 1.17-8.25 1.98-16.35 1.81-18-.25-2.33-.87-3.07-2.82-3.34-1.56-.21-3.51.54-5.18 2-2.48 2.17-2.84 3.53-4.82 18.34-1.18 8.8-2.67 16.58-3.32 17.29-.66.73-3.26 1.28-5.93 1.25-2.91-.02-4.89-.52-5.11-1.29-.19-.69.69-8.67 1.97-17.75s2.34-17.29 2.36-18.25c.02-1.34-.79-1.75-3.47-1.75-3.04 0-3.56.36-3.96 2.75-.26 1.51-1.44 9.72-2.62 18.25-1.18 8.53-2.8 17.3-3.6 19.5-.81 2.2-2.27 5.13-3.24 6.5-.98 1.38-3.43 3.29-5.43 4.25-2.01.96-5.22 1.75-7.15 1.75-1.93 0-4.18-.67-5-1.5-.82-.83-1.5-2.17-1.5-3 0-.83.34-2.23.75-3.12.41-.89 2.45-2.58 4.53-3.75s4.39-3.48 5.14-5.13c.74-1.65 2.31-9.75 3.47-18 1.17-8.25 2.12-15.67 2.12-16.5 0-.83-1.02-1.95-2.26-2.5-1.49-.66-2.34-2.01-2.52-4-.16-1.65.29-3.58 1-4.29.7-.72 2.17-1.27 3.27-1.23 1.45.05 2.22-.83 2.8-3.21.43-1.8 1.67-4.73 2.75-6.52 1.07-1.79 3.64-4.14 5.7-5.23 2.87-1.51 5.39-1.92 10.75-1.75z" style="fill:#fdfefe"/></svg>