<svg xmlns="http://www.w3.org/2000/svg" viewBox="0 0 512 512" width="512" height="512"><style></style><path id="Path 0" fill-rule="evenodd" d="m50.5.1 398 .4 5 2.47c2.75 1.35 6.91 4.39 9.25 6.75 2.34 2.35 5.49 6.87 9.75 15.78l1 219 2.65 6c1.46 3.3 3.8 9.82 5.2 14.5 1.4 4.68 3.26 12.32 4.11 17 .86 4.68 1.96 13.9 2.45 20.5.48 6.64.51 18.25.05 26-.46 7.7-1.96 19.63-3.35 26.5-1.38 6.88-4.44 17.9-6.79 24.5-4.19 11.77-4.28 12.31-4.79 28-.48 14.54-.77 16.5-3.13 21.5-1.43 3.02-4.58 7.5-7 9.95-2.42 2.45-6.88 5.57-9.9 6.94-3.02 1.37-7.98 2.68-11 2.93-5.36.42-5.74.66-14.5 9.12-4.95 4.77-12.6 11.36-17 14.64-4.4 3.27-11.82 8.26-16.5 11.07-4.68 2.82-11.2 6.47-14.5 8.13-3.3 1.65-10.05 4.56-15 6.48-4.95 1.92-12.37 4.43-16.5 5.58-4.12 1.16-10.87 2.81-15 3.68-4.12.87-12.68 2.23-19 3.02s-19.82 1.45-30 1.46c-10.75 0-23.32-.62-30-1.49-6.32-.83-15.1-2.21-19.5-3.08-4.4-.87-13.29-3.12-19.75-5-6.46-1.89-15.91-5.07-21-7.08-5.09-2-12.62-5.29-16.75-7.3-4.12-2.02-10.65-5.41-14.5-7.54-3.85-2.14-11.5-6.88-17-10.55-5.5-3.66-13.82-9.84-27-20.79l-35-.33c-34.79-.34-35.03-.35-40-2.79-2.75-1.35-7.28-4.72-10.08-7.5-3.32-3.31-5.91-7.12-9.92-17.05v-394l2.37-6c1.66-4.19 4.08-7.68 8-11.57 3.72-3.68 7.5-6.3 11.13-7.7m122 16.51c-6.32 4.79-17.36 14.56-24.53 21.73-7.16 7.17-16.98 17.98-21.81 24.03-4.83 6.05-11.84 15.5-15.57 21-3.73 5.5-8.74 13.38-11.14 17.5-2.4 4.13-6.79 12.45-9.77 18.5-2.97 6.05-7.1 15.28-9.17 20.5-2.07 5.22-5.44 14.68-7.47 21-2.04 6.32-4.79 16-6.11 21.5-1.32 5.5-3.35 15.85-4.51 23-1.54 9.47-2.26 19.52-2.64 37-.35 15.45-.11 28.27.67 36 .67 6.6 2.07 16.95 3.11 23 1.04 6.05 3.29 15.95 4.99 22 1.71 6.05 4.42 14.49 6.03 18.75L72 352c12.01.15 19.21.49 23.74.85l8.23.65-17.58 27c7.56 11.63 12.3 18.38 15.41 22.5 3.11 4.13 10.16 12.18 15.67 17.89l10.03 10.39c27.13-9.52 35.09-12.17 35.2-12.03.11.14-1.13 7.34-2.75 16s-2.95 16.54-2.95 17.5c0 1.11 3.04 3.66 8.25 6.94 4.54 2.85 13.88 7.87 20.75 11.15 6.88 3.28 16.44 7.36 21.25 9.06 4.81 1.71 9.31 3.11 10 3.12.69.01 6.43-5.88 12.75-13.08 6.32-7.21 11.78-12.73 12.12-12.27.34.46 3.26 8.35 6.5 17.53l5.88 16.7c15.5 1.1 25.85 1.37 33 1.31 7.15-.05 17.59-.69 23.2-1.41l10.2-1.3c9.77-27.74 13.05-35.93 13.6-36.09.55-.16 5.84 5.53 11.75 12.65s11.31 12.94 12 12.95c.69 0 6.89-2.81 13.77-6.25 6.89-3.44 17.02-9.5 22.5-13.46 5.49-3.96 11.68-8.68 13.76-10.5l3.78-3.3c-8.63-29.45-10.87-38.23-10.55-38.5.32-.27 8.44 1.41 18.04 3.75s17.79 4.27 18.2 4.29c.41.02 3.08-3.69 5.94-8.25 2.85-4.56 6.97-12.11 9.16-16.79 2.19-4.68 5.56-13.23 7.48-19 1.93-5.77 4.43-15 5.55-20.5 1.13-5.5 2.51-14.95 3.07-21 .7-7.41.71-15.56.04-25-.55-7.7-1.72-17.6-2.61-22-.88-4.4-2.93-12.05-4.55-17-1.61-4.95-4.86-12.82-7.2-17.5-2.35-4.68-6.68-12.1-9.62-16.5-2.95-4.4-10.34-12.98-16.43-19.06-6.84-6.83-14.72-13.47-20.58-17.36-5.23-3.46-13.1-8.02-17.5-10.14-4.4-2.11-12.05-5.15-17-6.76-4.95-1.6-13.5-3.7-19-4.66-6.5-1.14-14.73-1.72-23.5-1.65-7.43.05-17.55.8-22.5 1.66-4.95.87-12.26 2.68-16.25 4.02-3.99 1.35-10.06 3.86-13.5 5.58-3.44 1.72-9.58 5.43-13.65 8.25-4.07 2.82-10.99 8.94-15.38 13.62-4.4 4.68-9.05 10.64-10.36 13.25-1.3 2.61-2.38 6.44-2.39 8.5-.02 2.16.76 4.81 1.84 6.25 1.03 1.38 3.41 2.84 5.28 3.26 2.35.52 5.75.13 10.91-1.26 4.13-1.12 10.2-2.68 13.5-3.48 3.3-.81 10.95-1.89 17-2.42 7.18-.63 15-.62 22.5.03 6.32.55 15.32 1.89 20 2.98 4.68 1.1 12.55 3.61 17.5 5.59 4.95 1.99 12.09 5.45 15.87 7.7 3.78 2.26 9.85 6.6 13.5 9.65 3.65 3.05 8.8 8.23 11.46 11.5 2.66 3.27 6.6 9.44 8.75 13.7 2.16 4.26 4.83 11.01 5.94 15 1.11 3.99 2.29 11.07 2.63 15.75.35 4.85.09 12.37-.6 17.5-.67 4.95-2.35 12.6-3.74 17-1.38 4.4-4.6 12.05-7.15 17-2.55 4.95-7.16 12.38-10.24 16.5-3.08 4.13-9.39 11.1-14.01 15.51-4.63 4.41-11.78 10.23-15.91 12.93-4.12 2.71-10.65 6.38-14.5 8.17-3.85 1.78-10.82 4.35-15.5 5.71-4.68 1.36-12.55 2.96-17.5 3.57-4.95.61-14.4 1.1-21 1.1s-16.5-.68-22-1.5c-5.5-.83-13.6-2.42-18-3.55s-11.15-3.18-15-4.56c-3.85-1.38-11.05-4.48-16-6.9-4.95-2.41-11.93-6.26-15.5-8.56-3.57-2.29-10.32-7.23-15-10.97s-11.24-9.65-14.58-13.13c-3.35-3.47-8.12-8.8-10.6-11.82-2.48-3.02-6.3-8.2-8.48-11.5-2.19-3.3-5.71-9.15-7.83-13-2.12-3.85-5.16-10.15-6.76-14-1.59-3.85-3.97-10.37-5.29-14.5-1.32-4.12-3.32-12-4.44-17.5-1.13-5.5-2.55-15.18-3.17-21.5-.65-6.69-.88-19.24-.55-30 .37-11.98 1.31-22.73 2.67-30.5 1.16-6.6 3.24-16.28 4.61-21.5 1.38-5.22 4.1-14 6.06-19.5 1.95-5.5 5.62-14.5 8.15-20 2.53-5.5 7.06-14.28 10.05-19.5 3-5.22 8.17-13.33 11.5-18 3.32-4.67 9.52-12.55 13.77-17.5 4.25-4.95 11.25-12.42 15.56-16.61 4.31-4.18 11.65-10.68 16.33-14.44 4.68-3.76 13.22-9.92 19-13.7 5.78-3.78 16.8-9.97 24.5-13.75 7.7-3.79 17.82-8.29 22.5-10 4.68-1.72 20.2-6.51 34.5-10.66s26.19-7.72 26.42-7.94c.23-.22-35.1-.39-78.5-.38l-78.92.02M78.9 367l2.81 5.5c6.45-10.17 6.74-11.1 5.38-11.68-.87-.37-3.73-.71-6.34-.75-2.61-.04-4.73.27-4.7.68.02.41 1.31 3.23 2.85 6.25zm337.38 64.82 2.22 7.32 15-15.42c-14.54-3.66-19.2-4.72-19.73-4.72-.54 0-.69 1.21-.34 2.75.35 1.51 1.63 6.04 2.85 10.07zm-281.51 5.68c8.31 6.88 11.49 9.58 12.42 10.44 1.57 1.44 1.77 1.19 2.67-3.44.54-2.75 1.19-6.69 1.44-8.75.29-2.4.04-3.72-.68-3.67-.61.05-4.44 1.29-8.49 2.75l-7.36 2.67zm198.27 43.25c-2.65 7.19-2.82 8.2-1.29 7.83.96-.22 5.21-1.46 9.44-2.75l7.69-2.33c-2.92-3.87-5.56-7.02-7.74-9.5-2.93-3.32-4.11-4.11-4.52-3-.3.82-1.92 5.21-3.58 9.75zm-104.54 5.22c.55.45 3.47 1.33 6.5 1.97 3.03.63 6.51 1.35 7.75 1.6 2.25.46 2.25.46-.79-7.79-1.68-4.54-3.18-8.35-3.34-8.47-.16-.12-2.72 2.5-5.7 5.82-3.34 3.73-5.04 6.36-4.42 6.87zm76-305.56c4.46.37 7.02 1.22 10 3.34 2.2 1.56 5.08 4.84 6.4 7.29 1.69 3.15 2.4 6.08 2.41 9.96.01 4.11-.66 6.7-2.65 10.25-1.75 3.12-4.12 5.57-6.91 7.14-2.34 1.31-6.05 2.68-8.25 3.04-2.51.42-5.87.1-9-.84-2.96-.88-6.3-2.84-8.2-4.79-1.76-1.82-3.9-4.99-4.75-7.05-.85-2.06-1.55-5.55-1.55-7.75s.7-5.69 1.55-7.75c.86-2.06 2.77-5.04 4.25-6.63 1.49-1.58 4.5-3.73 6.7-4.79 3.07-1.47 5.39-1.8 10-1.42zm-12.93 15.62c-1.69 3.04-1.79 4-.75 7.72.75 2.72 2.35 5.17 4.43 6.8 2.36 1.84 4.42 2.53 7.5 2.5 2.34-.03 5.26-.75 6.5-1.6 1.24-.85 3.03-2.76 3.99-4.25.96-1.48 1.75-4.39 1.75-6.45.01-2.06-.82-4.99-1.84-6.5-1.02-1.51-3.5-3.54-5.5-4.5-2.01-.96-4.47-1.75-5.47-1.75s-3.36 1.03-5.25 2.28c-1.89 1.26-4.3 3.84-5.36 5.75z" style="fill:#fff"/></svg>