<svg xmlns="http://www.w3.org/2000/svg" viewBox="0 0 144 183" width="144" height="183"><style></style><path id="Path 0" d="M0 50.5c0 30.41.43 53.58 1.07 58.25.59 4.26 2.17 10.9 3.51 14.75 1.34 3.85 3.89 9.47 5.68 12.5 1.78 3.03 6.16 8.43 9.74 12 4.54 4.54 12.99 10.64 28 20.22 11.82 7.54 22.51 13.73 23.75 13.75 1.24.02 12.04-6.15 24-13.69 16.27-10.27 23.52-15.5 28.77-20.75 5.22-5.23 8.1-9.21 11.22-15.53 2.31-4.68 4.94-11.43 5.85-15 1.3-5.1 1.74-12.71 2.04-35.25C143.87 63 143.65 53 143 53c-.55 0-5.61 2.96-11.25 6.57-5.64 3.62-21.05 13.46-34.25 21.87l-24 15.29c-.53-5.8.06-8.55 1.17-10.56 1.42-2.6 8.49-7.56 31.83-22.37 16.5-10.47 31.07-20 32.38-21.17 1.31-1.17 2.99-3.59 3.75-5.38.98-2.32 1.37-8.1 1.37-20.25 0-10.67-.37-17-1-17-.55 0-2.24.84-3.75 1.87-1.51 1.03-17.26 11.16-35 22.5L72 45C17.36 10.07 1.16-.05.75-.04.34-.02 0 22.72 0 50.5z" style="fill:#fff"/></svg>