<svg xmlns="http://www.w3.org/2000/svg" viewBox="0 0 262 320" width="262" height="320"><style></style><path id="Path 0" d="M62.51 1.25c-.25.69-13.48 46.92-29.4 102.75C17.19 159.83 3.42 209.32 2.52 214c-.91 4.68-1.91 13.68-2.23 20-.35 7.05-.1 14.79.66 20 .68 4.68 2.31 11.88 3.62 16 1.31 4.13 4.08 10.42 6.15 13.99 2.08 3.58 6.94 9.65 10.8 13.5 4.82 4.82 9.5 8.3 15 11.14 4.39 2.26 10.9 5.05 14.48 6.18s9.2 2.64 12.5 3.35c3.64.79 13.07 1.29 24 1.29 14.82 0 20.03-.41 29.5-2.31 6.33-1.27 16.68-4 23-6.08 6.32-2.07 16.68-6.28 23-9.37 6.32-3.08 16.22-8.68 22-12.45 5.78-3.77 14.55-10.26 19.5-14.42 4.95-4.16 12.26-10.99 16.25-15.19 3.99-4.2 9.85-11.12 13.02-15.38 3.17-4.26 8.09-11.8 10.93-16.75 2.85-4.95 6.82-13.28 8.83-18.5 2.01-5.22 4.62-13.32 5.79-18 1.8-7.17 2.14-11.4 2.12-27-.01-17.62-.14-18.9-2.84-27-1.56-4.68-3.88-10.53-5.16-13-1.28-2.47-3.71-6.53-5.38-9-1.68-2.47-5.65-7.15-8.81-10.4-3.16-3.24-8.9-7.98-12.75-10.53-3.85-2.55-10.37-6.05-14.5-7.79-4.12-1.74-11.55-4.12-16.5-5.29-4.95-1.17-10.3-1.99-11.9-1.81-2.84.31-3.24 1.21-21.25 46.82-10.1 25.57-18.36 46.61-18.36 46.75.01.14 9.49.36 21.08.5l21.07.25c-77.05 112.38-99.19 144.1-98.92 143 .28-1.1 8.94-23.37 19.25-49.5 10.32-26.12 18.93-48.06 19.14-48.75.3-.97-4.17-1.25-20.11-1.25-11.28 0-20.5-.22-20.5-.5s7.45-26.71 16.55-58.75c9.1-32.04 22.82-80.19 30.5-107C139.72 23.94 146 1.55 146 1c0-.65-14.51-1-41.52-1-32.32 0-41.63.28-41.97 1.25z" style="fill:#fff"/></svg>