<svg xmlns="http://www.w3.org/2000/svg" viewBox="0 0 270 282" width="270" height="282"><style></style><path id="Path 0" fill-rule="evenodd" d="M74.95 0c3.26 0 4.45.54 6.08 2.75C82.25 4.4 83.06 7 83 13h104V9c0-2.9.67-4.69 2.45-6.5C191.23.69 192.96.01 195.7.02c2.56.02 4.54.75 6.08 2.25 1.67 1.64 2.26 3.36 2.22 10.73l20.75-.01c15.2-.01 22.09.38 25.75 1.44 2.84.82 6.95 3.14 9.5 5.34 2.66 2.3 5.52 6.1 9.5 14.73l.26 111.5c.22 94.18.03 112.28-1.17 116.5-.79 2.75-2.93 7-4.76 9.44-2.05 2.74-5.44 5.53-14.33 10.12l-229-.09-4.48-2.23c-2.47-1.23-5.97-3.81-7.79-5.74-1.82-1.93-4.08-5.07-5.02-7-1.58-3.23-1.73-12.3-1.96-118.25-.24-109.57-.17-114.94 1.59-119 1.01-2.34 3.15-5.77 4.75-7.64 1.6-1.86 5.16-4.56 7.91-6C20.41 13.55 20.9 13.5 66 13l.05-4.05c.03-2.88.73-4.74 2.45-6.5C70.27.65 71.98 0 74.95 0zM18.5 37.5C17.2 40.54 17 55.11 17 148c0 102.28.08 107.17 1.86 110.75 1.17 2.36 3.21 4.4 5.5 5.5C27.76 265.88 35.15 266 135 266c99.83 0 107.25-.12 110.69-1.75 2.03-.96 4.51-3.1 5.5-4.75 1.73-2.86 1.81-8.29 1.56-112.73l-.25-109.73-6.53-6.54L204 30c.05 21.65-.12 22.67-2.22 24.73-1.53 1.49-3.52 2.23-6.03 2.25-2.69.01-4.46-.69-6.25-2.48-2.36-2.36-2.5-3.1-2.5-13.5V30H83c.06 20.03-.21 21.88-1.97 24.25C79.41 56.45 78.2 57 75 57c-2.93 0-4.67-.67-6.5-2.5C66.14 52.14 66 51.4 66 41V30c-37.73.01-39.79.19-42.75 2-1.79 1.1-3.92 3.58-4.75 5.5zM142 104.08c3.57-.02 9.65.63 13.5 1.46 3.85.83 9.7 2.99 13 4.81 5.2 2.87 6.03 3.74 6.25 6.48.22 2.78-.06 3.17-2.25 3.17-1.37 0-4.64-1.35-7.25-2.99-2.61-1.65-7.45-3.72-10.75-4.61-4.04-1.09-8.62-1.5-14-1.23-6.38.32-9.32 1.03-14.5 3.52-3.99 1.92-8.75 5.38-12.33 8.97-3.21 3.21-6.93 8.09-8.26 10.84s-2.95 7.7-3.59 11c-.9 4.58-.9 7.53 0 12.5.64 3.57 2.4 8.97 3.9 12 1.5 3.03 5.1 7.86 8 10.75 2.91 2.89 7.64 6.43 10.53 7.87 2.89 1.45 8.29 3.25 12 4 4.77.98 8.44 1.12 12.5.5 3.16-.48 8-1.86 10.75-3.07 2.75-1.22 6.24-3.07 7.75-4.13 1.51-1.06 3.88-1.92 5.25-1.92 2.19 0 2.47.39 2.25 3.16-.22 2.73-1.06 3.6-6.25 6.48-3.3 1.83-9.37 4.07-13.5 4.98-5.4 1.2-9.67 1.48-15.25 1.02-4.6-.38-10.49-1.71-14.5-3.27-3.71-1.44-9.11-4.37-12-6.5-2.89-2.13-7.3-6.68-9.81-10.12-2.73-3.73-5.36-8.87-6.53-12.75-1.27-4.25-1.95-9.44-1.95-15 0-5.56.68-10.75 1.95-15 1.17-3.88 3.8-9.02 6.53-12.75 2.51-3.44 6.92-8 9.81-10.13 2.89-2.14 6.71-4.61 8.5-5.5 1.79-.89 5.61-2.27 8.5-3.05 2.89-.79 8.18-1.46 11.75-1.49z" style="fill:#fff"/></svg>