<svg xmlns="http://www.w3.org/2000/svg" viewBox="0 0 252 252" width="252" height="252"><style></style><path id="Path 0" fill-rule="evenodd" d="M124.75.1c3.44-.05 11.43.58 17.75 1.4 7.18.94 15.91 2.95 23.25 5.37 6.46 2.13 14.9 5.57 18.75 7.64 3.85 2.07 10.36 6.06 14.46 8.88 4.1 2.81 11.3 8.94 16 13.62 4.7 4.67 11.4 12.77 14.89 18 3.49 5.22 7.84 12.64 9.65 16.49 1.82 3.85 4.49 10.6 5.95 15 1.45 4.4 3.38 12.05 4.28 17 1 5.47 1.64 14.3 1.64 22.5s-.64 17.03-1.64 22.5c-.9 4.95-2.83 12.6-4.28 17-1.46 4.4-4.13 11.15-5.95 15-1.81 3.85-6.16 11.27-9.65 16.49-3.49 5.23-10.18 13.33-14.86 18-4.67 4.68-12.77 11.37-18 14.86-5.22 3.49-12.64 7.84-16.49 9.65-3.85 1.82-10.6 4.49-15 5.95-4.4 1.45-12.05 3.38-17 4.28-5.47 1-14.3 1.64-22.5 1.64s-17.03-.64-22.5-1.64c-4.95-.9-12.6-2.83-17-4.28-4.4-1.46-11.15-4.13-15-5.95-3.85-1.81-11.27-6.16-16.49-9.65-5.23-3.49-13.33-10.18-18-14.86-4.68-4.67-11.37-12.77-14.86-18-3.49-5.22-7.84-12.64-9.65-16.49-1.82-3.85-4.49-10.6-5.94-15-1.46-4.4-3.27-11.6-4.03-16-.77-4.4-1.7-11.82-2.09-16.5-.4-4.93-.2-12.91.48-19 .64-5.77 2.07-14.1 3.16-18.5 1.1-4.4 3.18-11.15 4.63-15 1.44-3.85 4.19-9.93 6.09-13.5 1.91-3.57 5.77-9.86 8.59-13.96 2.81-4.1 8.94-11.3 13.62-16 4.67-4.7 12.55-11.27 17.5-14.6 4.94-3.34 12.37-7.68 16.49-9.65 4.13-1.97 12-4.98 17.5-6.7 5.5-1.72 14.5-3.75 20-4.51C114 .83 121.31.16 124.75.1zm-7.61 49.65c-2.83 10.59-5.15 20.26-5.17 21.5-.01 1.24 1 3.78 2.25 5.66 1.25 1.87 3.41 4.27 4.78 5.33 1.62 1.25 4.09 1.93 7 1.93s5.38-.68 7-1.93c1.38-1.06 3.53-3.46 4.78-5.33 1.25-1.88 2.26-4.53 2.25-5.91-.02-1.37-2.55-11.72-5.62-23-3.08-11.28-6.11-21.08-6.75-21.79-.64-.72-1.49-1.28-1.89-1.25-.4.02-1.35 1.28-2.11 2.79-.76 1.51-3.69 11.41-6.52 22zm53.36 52.46c-3.3 2.17-9.6 5.66-14 7.76-4.4 2.1-11.82 5.17-16.5 6.82-4.68 1.65-13.9 4.15-20.5 5.55-6.6 1.4-16.1 2.91-21.11 3.35-8.6.76-9.15.7-9.76-1.19-.35-1.1-.3-4.17.12-6.82l.75-4.81c-10.07 1.05-15.47 1.99-18.5 2.76-3.03.78-8.2 2.72-11.5 4.33-3.3 1.6-8.14 4.97-10.75 7.48-2.61 2.51-5.94 6.47-7.4 8.81-1.46 2.34-3.27 6.05-4.03 8.25-.76 2.2-1.81 6.7-2.34 10-.56 3.56-.6 8.23-.08 11.5.48 3.02 2.05 8.43 3.49 12 1.44 3.57 4.08 8.92 5.87 11.88 1.78 2.96 6.21 8.58 9.84 12.5s10.15 9.57 14.5 12.57c4.34 3 11.05 6.91 14.9 8.69 3.85 1.78 11.27 4.41 16.5 5.86 6.89 1.9 12.93 2.78 22 3.18 9.15.4 14.98.12 21.75-1.06 5.09-.89 12.06-2.55 15.5-3.68 3.44-1.13 9.85-3.82 14.25-5.98 4.4-2.16 11.6-6.76 16-10.22 4.4-3.47 10.39-9.21 13.31-12.77 2.92-3.56 7.28-10.52 9.69-15.47 2.41-4.95 5.04-11.7 5.86-15 .81-3.3 1.76-8.7 2.12-12 .36-3.3.14-9.15-.49-13-.62-3.85-2.44-10.37-4.05-14.5-1.6-4.12-4.67-10.2-6.82-13.5-2.15-3.3-6.43-8.59-9.51-11.75-3.09-3.16-7.75-7.11-10.36-8.76-2.61-1.66-5.23-3.01-5.82-3-.58 0-2.38 1.42-4 3.15-1.61 1.72-5.63 4.91-8.93 7.07zM63.42 159.99c2.24 0 5.09.67 6.33 1.5 1.83 1.23 2.25 2.44 2.25 6.51 0 3.67-.53 5.53-2 7-1.38 1.38-3.31 1.99-6.25 1.98-3.03-.02-4.9-.66-6.53-2.25-1.51-1.48-2.33-3.55-2.44-6.17-.12-2.95.42-4.51 2.2-6.25 1.68-1.65 3.53-2.31 6.44-2.32zm129.5-.02c3.42-.03 5.09.51 6.58 2.1 1.38 1.48 2 3.52 2 6.62 0 3.6-.5 4.87-2.5 6.44-1.62 1.26-4 1.94-6.75 1.91-3.45-.03-4.63-.56-6.28-2.79-1.12-1.51-2.11-4.3-2.2-6.19-.11-2.43.54-4.11 2.21-5.75 1.76-1.72 3.53-2.32 6.94-2.34zM112.67 176c1.96 0 4.66.99 6.58 2.42 1.79 1.33 4.38 2.73 5.75 3.1 1.38.38 4.07.2 6-.38 1.93-.58 4.4-2 5.5-3.13 1.34-1.39 3.24-2.06 5.75-2.04 2.73.02 4.02.57 4.75 2.03.55 1.1 1 2.68 1 3.5 0 .82-1.24 2.91-2.75 4.64-1.51 1.72-4.55 4.04-6.75 5.14-2.82 1.42-5.91 2-10.5 1.97-3.57-.02-8.07-.71-10-1.53-1.93-.82-4.96-2.67-6.75-4.11-2.56-2.05-3.29-3.43-3.42-6.44-.09-2.11.21-4.14.67-4.5.46-.37 2.33-.67 4.17-.67z" style="fill:#fff"/></svg>