<svg xmlns="http://www.w3.org/2000/svg" viewBox="0 0 225 225" width="225" height="225"><style></style><path id="Path 0" fill-rule="evenodd" d="M113.25 23.04c5.73-.03 7.69.45 12.95 3.21 4.02 2.11 7.38 4.83 9.58 7.75 1.86 2.48 4.08 6.98 4.93 10 .96 3.4 1.36 7.6 1.06 11-.28 3.02-1.41 7.52-2.53 10-1.12 2.47-3.2 5.74-4.63 7.25-1.44 1.51-2.5 2.91-2.36 3.1.14.19 3.51 2.22 14.75 8.65v4.5c0 2.47-.68 6.08-1.5 8-1.49 3.48-1.55 3.5-17.64 5l.56 4.5c.31 2.47 1.24 10.13 2.08 17 .84 6.88 1.97 13.63 2.5 15 .6 1.54 2.79 3.35 5.74 4.73 2.62 1.23 7.91 3.4 11.76 4.83 3.85 1.42 8.24 3.46 9.75 4.52 1.52 1.06 3.25 3.6 3.87 5.67.71 2.36.81 4.81.25 6.61-.77 2.52-.43 3.29 2.84 6.5 3.27 3.22 3.71 4.22 3.74 8.64.03 3.3-.64 6.1-1.95 8.25-1.32 2.14-4.14 4.28-8.25 6.26-3.44 1.65-10.75 3.99-16.25 5.2-8.62 1.9-13.03 2.2-32 2.2s-23.38-.3-32-2.2c-5.5-1.21-12.81-3.55-16.25-5.2-4.11-1.98-6.93-4.12-8.25-6.26-1.25-2.05-1.99-5.01-2-8 0-4 .55-5.38 3.5-8.75 2.79-3.18 3.38-4.56 2.91-6.75-.33-1.51-.1-4.44.5-6.5.69-2.37 2.28-4.56 4.34-5.95 1.79-1.21 6.85-3.49 11.25-5.07 4.4-1.59 9.35-3.5 11-4.26 1.65-.75 3.56-2.63 4.24-4.17.69-1.54 2.15-9.89 3.25-18.55 1.11-8.66 2.01-16.31 2.02-17 .01-.84-2.65-1.5-8-2-6.9-.65-8.17-1.06-9.15-3-.63-1.24-1.36-4.72-2.1-13.25l7.62-4.25C89.57 77.91 93 75.78 93 75.5c0-.28-1.6-2.41-3.54-4.75-1.95-2.34-4.21-6.5-5.01-9.25-.81-2.75-1.47-6.8-1.47-9s.68-6.25 1.51-9 2.6-6.58 3.93-8.5 4.15-4.74 6.25-6.25c2.11-1.52 5.63-3.41 7.83-4.21 2.2-.8 7.04-1.47 10.75-1.5zM98.3 38.01c-1.29 1.92-2.34 4.28-2.33 5.24.02.96.48 1.75 1.03 1.75s2.69-.84 4.75-1.86c2.06-1.03 5.03-3.39 6.6-5.25 2.71-3.23 2.76-3.45 1-4.66-1.02-.69-2.3-1.25-2.85-1.23-.55.02-2.09.59-3.42 1.28-1.33.69-3.48 2.82-4.78 4.73z" style="fill:#fff"/></svg>