<svg xmlns="http://www.w3.org/2000/svg" viewBox="0 0 125 157" width="125" height="157"><style></style><path id="Path 0" d="M60 2.42c-3.58.66-8.75 2.03-11.5 3.06-2.75 1.02-8.15 3.66-12 5.86-3.85 2.2-9.97 6.97-13.59 10.58-3.62 3.62-8.7 10.18-11.27 14.58C9.06 40.9 5.53 48.78 3.8 54 .8 63.03.64 64.25.71 78.5c.06 12.98.4 16.08 2.53 23 1.35 4.4 4.44 11.8 6.86 16.44 2.54 4.86 6.98 11.21 10.49 15 3.35 3.61 8.97 8.47 12.5 10.79 3.52 2.33 9.79 5.64 13.91 7.34 4.13 1.71 11.33 3.74 16 4.52 4.67.77 12.21 1.4 16.75 1.41 4.54 0 11.51-.48 15.5-1.06 3.99-.59 9.5-1.76 12.25-2.61 2.75-.86 7.6-2.74 10.79-4.19 4.82-2.2 5.78-3.06 5.75-5.14-.01-1.37-1.36-6.32-2.98-11-2.69-7.73-3.21-8.53-5.76-8.8-1.54-.17-4.83.42-7.3 1.31-2.47.88-8.1 2.26-12.5 3.05S84.01 130 79.75 130s-10.11-.51-13-1.13c-2.89-.61-7.95-2.49-11.25-4.16s-8.03-4.92-10.5-7.23c-2.47-2.31-6.17-7.3-8.2-11.09-2.04-3.79-4.63-10.49-5.76-14.89-1.14-4.4-2.06-10.7-2.06-14 .01-3.3.7-8.7 1.54-12 .84-3.3 2.96-8.92 4.73-12.5 1.76-3.58 5.46-8.79 8.23-11.58 2.76-2.8 6.82-6.21 9.02-7.59 2.2-1.39 6.7-3.57 10-4.85 4.99-1.95 7.85-2.34 17-2.34 8.11 0 12.97.55 18.5 2.09 4.13 1.15 9 2.69 10.83 3.43 2.91 1.17 3.48 1.14 4.5-.27.64-.88 2.74-5.77 4.67-10.87l3.5-9.25c-3.87-3.01-7.47-4.8-10.5-5.91-3.03-1.12-9.1-2.67-13.5-3.44-4.4-.78-13.17-1.37-19.5-1.31-6.33.06-14.42.65-18 1.31z" style="fill:#fefefe"/></svg>