<svg xmlns="http://www.w3.org/2000/svg" width="46" height="46" viewBox="0 0 46 46" fill="none"><path fill-rule="evenodd" clip-rule="evenodd" d="M46 23c0 12.703-10.297 23-23 23-.61 0-1.214-.024-1.811-.07l2.262-6.216c.374-1.027 1.619-2.4 2.719-3.615l.007-.008c.631-.694 1.175-1.295 1.382-1.648.927-1.578 3.613-6.084 4.033-6.79l.055-.092c.628-.9 1.636-2.44 2.257-3.445l3.392-5.512c.621-1.007.668-2.272.105-2.817a.97.97 0 0 0-.344-.215c-.622-.227-1.449.14-2.057.913l-3.41 4.756c-.395.5-.836.912-1.263 1.31a13.43 13.43 0 0 0-1.05 1.056l-.35.407a.24.24 0 0 1-.165.083.44.44 0 0 1-.18-.024c-.122-.044-.318-.183-.265-.616v-.005c.03-.129.583-2.568-.975-3.226l-.07-.026c-.855-.312-1.537.224-2.293 1.123-.114.136-.346.148-.464.105a.447.447 0 0 1-.28-.54c.27-1.208-.228-2.337-1.184-2.684l-.074-.025c-.831-.267-1.835.075-2.437.834a.24.24 0 0 1-.078.065c-.12.114-.325.272-.548.191-.24-.087-.296-.378-.318-.59l-.027-.262c-.026-.26-.06-.56-.097-.882l-.001-.009c-.12-1.052-.268-2.358-.244-3.226l.367-6.189c.025-.904-.39-1.674-1.034-1.908a1.206 1.206 0 0 0-.569-.062c-.91.117-1.692 1.149-1.78 2.35l-.676 6.256c-.047.634-.032 1.519-.018 2.374v.004c.011.633.022 1.232.007 1.715l-.06 1.995c-.02.673-.235 1.154-.638 1.433-.223.156-.97.694-1.78 1.448-.079.074-.159.145-.237.214l-.03.026c-.597.53-1.112.987-1.162 2.505-.026.713.007 1.437.11 2.502.107 1.117.437 1.818.788 2.56.056.12.12.247.185.38.515 1.038 1.219 2.456.634 4.063l-2.408 6.614C4.37 38.528 0 31.274 0 23 0 10.297 10.297 0 23 0s23 10.297 23 23z" fill="#fff"/></svg>