<svg xmlns="http://www.w3.org/2000/svg" viewBox="0 0 225 203" width="225" height="203"><style></style><path id="Path 0" fill-rule="evenodd" d="M108.5.48c6.05.24 13.25 1.06 16 1.81s7.47 2.67 10.5 4.28c3.03 1.61 8.88 6.33 13 10.48 4.48 4.52 9.03 10.35 11.3 14.5 2.09 3.82 4.46 9.2 5.26 11.95.8 2.75 1.45 8.83 1.43 13.5-.01 4.67-.71 11.42-1.56 15-.85 3.58-2.94 9.42-4.65 13-1.7 3.58-5.43 9.65-8.28 13.5-2.85 3.85-8.52 10.16-12.59 14.03-4.08 3.86-10.22 8.93-13.66 11.25-4.57 3.08-5.99 4.56-5.28 5.47.77.99 2.37.89 7.75-.5 3.73-.97 11.5-2.21 17.28-2.75 5.78-.55 26.14-1 80-1v14.5l-37.25-.32c-30.3-.25-38.98-.02-55.75 2.82l4.61 6.25c2.53 3.44 5.63 8.28 6.89 10.75 1.25 2.47 3.01 6.97 3.9 10 .89 3.03 1.62 7.07 1.63 9 0 1.93-1.24 5.97-2.76 8.99-1.6 3.18-4.46 6.79-6.77 8.55-2.2 1.68-6.7 4.1-10 5.36-4.8 1.84-7.3 2.21-12.5 1.82-4.14-.31-8.82-1.52-12.89-3.35-3.66-1.64-7.83-4.47-9.75-6.62-1.85-2.06-4.36-5.66-5.59-8-1.86-3.56-2.23-5.87-2.25-14.25-.02-9.26.2-10.37 2.9-15 1.6-2.75 5.76-7.81 9.25-11.25 3.48-3.44 6.33-6.47 6.33-6.75 0-.28-.67-.72-1.5-1s-6.11.61-11.75 1.97c-5.64 1.37-14.3 2.94-19.25 3.51-4.95.57-18.9 1.32-31 1.67C29.4 144 15.11 144 0 143v-16l4.75.68c2.61.38 14.2.68 25.75.68 11.55-.01 28.2-.56 37-1.22 8.8-.66 17.46-1.42 22.5-2.14l-9-7.5c-4.95-4.12-11.51-10.54-14.59-14.25-3.07-3.71-7.58-10.12-10.02-14.25-2.44-4.12-5.59-11.1-7-15.5-2.01-6.26-2.57-10.07-2.58-17.5 0-7.02.57-11.33 2.19-16.5 1.21-3.85 3.68-9.48 5.5-12.5 1.81-3.02 6.16-8.2 9.67-11.5 3.52-3.3 9.3-7.45 12.86-9.22 3.56-1.76 9.62-3.9 13.47-4.73C95.36.49 100.86.16 108.5.48zM84.58 18.77c-3.8 2.05-9.2 5.98-12 8.73-2.8 2.75-6.44 7.48-8.08 10.5-2.75 5.03-3 6.3-2.97 15 .04 9.09.23 9.91 4.44 19 2.42 5.22 6.53 12.42 9.14 16 2.6 3.58 8.93 10.58 14.06 15.57 5.13 4.98 11.02 10.27 13.08 11.75 3.19 2.28 4.09 2.51 6 1.52 1.24-.64 5.51-3.56 9.5-6.5s10.06-8.3 13.5-11.92c3.44-3.63 7.76-8.69 9.62-11.25 1.85-2.57 5.2-8.5 7.45-13.17 3.37-6.98 4.18-9.84 4.56-16 .41-6.61.15-8.16-2.18-13-1.46-3.02-4.68-8.09-7.17-11.25s-7.12-7.77-10.28-10.24c-3.16-2.46-8-5.7-10.75-7.2-4.16-2.25-6.43-2.75-13.5-2.96-4.67-.13-10.53.19-13 .73-2.47.53-7.61 2.64-11.42 4.69zm26.69 135.73c-3.21 3.3-7.07 8.47-8.57 11.5-1.69 3.41-2.72 7.12-2.71 9.75.01 2.99.7 5.06 2.35 7 1.29 1.51 3.65 3.35 5.25 4.08 1.8.82 5.39 1.19 9.41.97 3.95-.21 8.07-1.16 10.5-2.4 2.44-1.24 4.66-3.37 5.68-5.47 1.51-3.07 1.54-3.9.26-7.93-.78-2.47-3-6.75-4.94-9.5-1.94-2.75-5.29-7.03-7.45-9.5l-3.92-4.5" style="fill:#feffff"/></svg>