<svg xmlns="http://www.w3.org/2000/svg" viewBox="0 0 500 436" width="500" height="436"><style></style><path id="Path 0" fill-rule="evenodd" d="M262 0c3.33 0 6 .44 6 1 0 .55-.45 1.9-1 3-.89 1.78-.78 1.89 1 1 1.1-.55 2.45-.78 3-.5.55.28 1.01 2.64 1.03 5.25.01 2.61-.21 5.09-.5 5.5-.29.41-1.65.07-3.03-.75-1.37-.82-2.5-1.05-2.5-.5s.45 1.23 1 1.5.87 1.29.72 2.25c-.17 1.03.86 2.47 2.5 3.5 1.64 1.04 3.24 3.28 3.91 5.5.63 2.09.8 5.08.39 6.75-.4 1.65-2.15 4.4-7.02 9.22l3 1.27c1.85.78 4.34.99 6.5.54 1.93-.39 7.44-2.25 12.25-4.12C295.42 38 299.62 37 303.5 37c3.06 0 6.94.72 8.75 1.62 1.79.89 4.31 2.57 5.6 3.75 1.29 1.17 3.3 3.93 4.46 6.13 1.51 2.85 2.13 5.86 2.15 10.5.04 5.97-.43 7.44-5.77 18-3.2 6.33-6.12 13.46-6.5 15.86-.38 2.4-1.03 4.54-1.44 4.75-.41.22-1.76-.29-3-1.12-1.24-.83-3.15-1.52-6.25-1.56l2 2.15c1.1 1.18 3.01 2.55 4.25 3.03 1.5.59 2.25 1.73 2.25 3.39 0 1.38-.45 5.88-2 17.5h-45c-35.11 0-45.09-.27-45.42-1.25-.23-.69-.68-5.19-1-10-.44-6.65-.28-8.74.67-8.73.69.01 2.6-1.35 4.25-3.02 2.66-2.7 2.77-3.04 1-3.02-1.1.02-3.24.7-4.75 1.53-2.64 1.43-2.8 1.38-4.11-1.26-.76-1.51-2.1-5-2.99-7.75-.89-2.75-2.97-7.14-4.63-9.75-1.66-2.61-3.76-7.11-4.67-10A28.496 28.496 0 0 1 200.18 57c.27-3.02 1.35-7.25 2.4-9.38 1.06-2.13 3.72-5.2 5.92-6.81 3.13-2.29 5.41-3.04 10.5-3.46 5.76-.47 7.52-.13 15.5 2.97 4.95 1.93 11.35 3.88 14.23 4.34 3.96.64 5.24.54 5.25-.41.01-.69 1.03-1.28 2.27-1.32 2.16-.06 2.17-.1.25-1.02-1.1-.52-2.79-2.29-3.75-3.93-.96-1.64-1.75-4.78-1.75-6.98s.68-5.35 1.5-7c.82-1.65 1.95-3 2.5-3s.98-.79.96-1.75c-.03-.96.67-2.43 1.54-3.25.87-.82 1.57-1.84 1.54-2.25-.02-.41-1.28-.08-5.54 2.23l-.26-5.74c-.14-3.16-.01-5.96.3-6.24.3-.28 1.43.06 2.51.75 1.07.69 2.18 1.25 2.45 1.25s-.18-1.12-1-2.5c-.82-1.37-1.5-2.73-1.5-3s2.7-.5 6-.5zm28.5 48.73c-2.2 1.13-7.49 2.67-11.76 3.41-4.83.85-7.75 1.83-7.75 2.61.01.8 1.54 1.26 4.26 1.27 2.34.01 8.52.69 13.75 1.5 7.05 1.11 10.34 2.14 12.75 3.99 1.79 1.37 4.55 4.85 6.15 7.74l2.89 5.25c5.04-8.83 5.71-11.29 5.71-15.5 0-4.61-.49-6.11-3-9.27-1.8-2.26-4.39-4.15-6.5-4.74-1.93-.54-3.73-.95-4-.92-.27.04-2.3.63-4.5 1.33-2.2.7-5.8 2.2-8 3.33zm-81.15 3.52c-.91 1.79-1.65 5.05-1.65 7.25.01 2.63 1.18 6.15 3.41 10.28l3.39 6.28c2.8-6.63 5.27-10.26 7.31-12.33 2.03-2.07 5.04-4.17 6.69-4.66 1.65-.5 7.5-1.43 13-2.09 5.5-.66 10.56-1.37 11.25-1.59.69-.21 1.25-.84 1.25-1.39 0-.55-1.46-1-3.25-1s-6.4-.88-10.25-1.95c-3.85-1.08-8.8-2.88-11-4.01-2.2-1.13-5.8-2.05-8-2.04-2.23 0-5.44.89-7.25 2-1.79 1.1-3.99 3.46-4.9 5.25zM240.5 100c-.82 0-2.85-1.12-4.5-2.5-1.65-1.37-3.56-2.5-4.25-2.5s1 1.58 3.75 3.52 6.01 3.51 7.25 3.5c1.24-.01 4.84-.98 8-2.14 3.16-1.17 6.14-2.41 6.61-2.75.47-.35.58-1.19.25-1.88-.47-.95-1.85-.75-5.86.84-2.89 1.15-5.54 2.62-5.89 3.25-.35.64-1.14.82-1.75.41-.66-.45-1.11-4-1.11-8.75 0-5.4-.38-8-1.16-8-.84 0-.98 2.34-.5 8.5.56 7.18.43 8.5-.84 8.5zm40.78-.75c-.43.42-2.69-.37-5.03-1.75-2.34-1.37-5.37-2.5-6.75-2.5-1.37 0-2.51.56-2.51 1.25-.01.69 3.03 2.26 6.75 3.49 3.72 1.23 8.11 2.23 9.76 2.22 1.92-.02 4.53-1.27 7.25-3.49 2.34-1.91 4.03-3.81 3.77-4.22-.27-.41-2.3.49-4.5 2-2.21 1.51-4.47 2.53-5.02 2.25-.55-.28-1-3.87-1-8 0-4.33-.42-7.5-1-7.5-.58 0-.99 3.23-.97 7.75.01 4.26-.32 8.09-.75 8.5zM8.05 116l7.22 5.52c3.98 3.04 11.28 7.51 16.23 9.94 4.95 2.43 12.6 5.74 17 7.37s14.75 4.76 23 6.96 24 5.9 35 8.21c11 2.32 22.03 4.98 24.5 5.91 2.47.93 9 4.69 14.5 8.36 5.5 3.67 14.95 10.69 32 24.54l2.61-7.66c1.43-4.21 4.64-11.7 7.13-16.65 2.49-4.95 7.2-12.6 10.46-17 3.27-4.4 8.16-10.21 10.87-12.9 2.71-2.7 6.28-5.91 7.93-7.13 2.97-2.21 3.49-2.24 93.5-3.47l4 6c2.2 3.3 3.99 6.34 3.98 6.75-.01.41 2.35 1.75 5.25 2.97 2.9 1.23 7.75 4.06 10.77 6.31 3.02 2.25 5.84 4.73 6.25 5.53.45.85.11 2.05-.82 2.94-.87.82-2.33 1.5-3.25 1.49-.92 0-4.72 1.57-8.43 3.5-4.73 2.46-6.88 4.18-7.19 5.76-.24 1.24-.72 5.18-1.07 8.75-.34 3.57-1.61 8.42-2.81 10.77-2.18 4.27-2.18 4.27-.18 6.2 1.98 1.91 2.05 1.89 7.67-2.77 3.11-2.58 7.16-5.94 9-7.47 1.83-1.52 5.35-4.4 7.83-6.4 2.48-2.01 9.23-6.75 15-10.55 6.25-4.11 12.93-7.63 16.5-8.69 3.3-.98 12.07-3.02 19.5-4.54 7.43-1.51 21.6-4.76 31.5-7.23 9.9-2.46 20.7-5.52 24-6.81 3.3-1.28 7.13-2.64 8.5-3.02 1.38-.38 6.1-2.42 10.5-4.52 4.4-2.1 10.48-5.46 13.5-7.47 3.02-2.01 6.85-5.02 8.5-6.68 1.65-1.67 3.56-2.76 4.25-2.43.69.34 1.7 2.3 2.24 4.36.55 2.06 1 5.89 1 8.5.01 2.61-.98 7.34-2.2 10.5-1.21 3.16-3.91 7.89-6 10.5-2.08 2.61-6.52 6.89-9.85 9.5-3.34 2.61-7.27 5.45-8.75 6.31-1.48.86-4.38 2.55-6.44 3.75-2.06 1.21-3.75 2.41-3.75 2.69 0 .28 2.81-.36 6.25-1.41 3.44-1.05 8.27-2.66 10.75-3.58 2.48-.92 6.07-2.83 8-4.26 1.93-1.43 5.88-5.11 8.79-8.17 2.91-3.07 5.27-5.92 5.25-6.33-.02-.41.41-.75.96-.75.63 0 .91 4.58.75 12.25-.25 11.84-.38 12.5-3.92 19.75-2.02 4.13-5.68 10.2-8.14 13.5-2.45 3.3-7.1 8.06-10.33 10.59-3.22 2.52-8.79 6.47-12.36 8.76-3.57 2.3-8.64 4.85-11.25 5.67-2.61.81-4.98 1.93-5.25 2.48-.27.55.51 1.01 1.75 1.02 1.24.01 5.4-.93 9.25-2.09 3.85-1.16 10.6-4.2 15-6.76 4.4-2.56 9.46-5.9 11.25-7.42 1.79-1.51 3.93-2.53 4.75-2.25.92.31 1.5 1.76 1.51 3.75.01 1.79-.45 5.72-1.01 8.75-.57 3.03-2.02 7.97-3.24 11-1.21 3.03-3.23 7.19-4.48 9.25-1.26 2.06-5.09 6.48-8.53 9.82-3.44 3.34-9.85 8.13-14.25 10.65-4.4 2.52-9.57 5.16-15 7.14l4.5.05c2.48.03 6.3-.59 8.5-1.38 2.2-.79 4.56-1.46 5.25-1.49.89-.03 1.07 1.04.64 3.71-.34 2.06-1.81 5.5-3.25 7.63-1.45 2.14-3.32 4.84-4.14 6-.82 1.17-3.75 4.47-6.5 7.34-2.75 2.86-5.45 5.24-6 5.26-.55.03-1.96 1.06-3.13 2.29s-5.89 4.14-10.5 6.48c-4.6 2.33-12.19 5.4-16.87 6.8-4.68 1.41-12.1 3.21-16.5 4.01-4.73.85-14.34 1.43-23.5 1.43-8.52 0-19.55-.63-24.5-1.39-4.95-.77-9.68-1.67-10.5-2.02-1.21-.51-1.86 1.33-3.38 9.65-1.03 5.65-2.67 13.2-3.63 16.77-.97 3.57-2.72 8.98-3.88 12-1.16 3.02-2.11 6.06-2.11 6.75 0 .69-1.6 4.96-3.57 9.5-1.96 4.54-4.49 10.05-5.63 12.25-1.13 2.2-3.35 6.36-4.93 9.25-1.58 2.89-5.91 9.69-9.62 15.12-3.71 5.43-8.21 11.5-10 13.5-1.79 2-3.93 3.63-4.75 3.63-.82 0-2.08-1.01-2.8-2.25-.71-1.24-2.85-6.9-8.2-22.9l-2.14 7.32c-1.17 4.03-3.09 9.81-4.25 12.83-1.16 3.02-2.11 6.06-2.11 6.75 0 .69-1.69 4.87-3.75 9.29-2.89 6.19-4.21 8.02-5.75 7.98-1.1-.03-2.49-.38-3.1-.79-.6-.4-1.82-2.08-2.71-3.73-.9-1.65-2.58-5.02-3.74-7.5-1.16-2.48-3.85-8.32-5.98-13-2.12-4.68-4.44-10.17-5.16-12.21-.72-2.04-1.41-3.61-1.53-3.5-.12.12-1.59 4.03-3.27 8.71-1.68 4.68-4.06 9.52-5.28 10.78-1.23 1.25-3.13 2.28-4.23 2.29-1.1.01-3.81-1.92-6.03-4.28-2.21-2.36-6.07-7.44-8.58-11.29-2.5-3.85-6.03-9.48-7.85-12.5-1.83-3.02-4.75-8.2-6.49-11.5-1.75-3.3-3.91-7.35-4.81-9-.9-1.65-3.21-6.37-5.14-10.5-1.94-4.12-5.1-11.55-7.03-16.5-1.94-4.95-3.52-9.45-3.53-10 0-.55-1.48-6.24-6.54-24.27l-3 .92c-1.65.5-7.5 1.57-13 2.36-5.5.8-16.75 1.46-25 1.46-8.25.01-17.92-.44-21.5-1-3.58-.55-10.55-2.15-15.5-3.55-4.95-1.4-13.23-4.65-18.4-7.23-5.17-2.58-10.46-5.7-11.75-6.94-1.29-1.24-2.69-2.27-3.1-2.29-.41-.02-3.54-2.83-6.96-6.25s-6.23-6.77-6.25-7.46c-.02-.69-.38-1.24-.79-1.22-.41.02-1.97-2.12-3.47-4.75-1.49-2.63-2.73-6.02-2.75-7.53-.02-1.51.31-2.76.72-2.77.41-.01 2.77.67 5.25 1.52s6.52 1.49 13.5 1.3l-4-1.25c-2.2-.69-7.37-3.23-11.49-5.65-4.34-2.55-10.58-7.55-14.86-11.9-5.29-5.37-8.3-9.48-10.64-14.5-1.8-3.85-3.77-9.36-4.39-12.25C9.5 215.36 9 210.75 9 208c0-3.78.37-5 1.5-5 .82 0 3.86 1.85 6.75 4.11 2.89 2.26 7.95 5.59 11.25 7.41 3.3 1.82 9.15 4.25 13 5.41 3.85 1.16 8.13 2.07 9.5 2.02 1.78-.07.05-1.26-6-4.1-4.67-2.2-8.73-4.35-9-4.78-.27-.44-1.85-1.5-3.5-2.37-1.65-.87-5.59-3.64-8.75-6.14-3.16-2.51-7.79-7.15-10.29-10.31-2.5-3.16-5.57-7.78-6.83-10.25-1.27-2.47-3.27-7.31-4.46-10.75C.54 168.55 0 164.65 0 157.5c0-7.78.27-9.5 1.5-9.5.83 0 1.5.45 1.5 1s2.41 3.59 5.35 6.75c2.95 3.16 8.01 7.17 11.25 8.91 3.25 1.75 8.71 4.11 12.15 5.25 3.44 1.15 6.81 2.1 7.5 2.11.69.01-.33-1.13-2.25-2.52-1.92-1.39-3.84-2.53-4.25-2.52-.41.01-3.79-2.38-7.5-5.31-3.71-2.93-8.69-7.54-11.07-10.25-2.37-2.71-5.48-7.39-6.9-10.42-1.97-4.18-2.62-7.19-2.69-12.54-.07-5.19.38-7.76 1.68-9.76m268.63 25.91c-2.06 3.08-2.19 3.72-.9 4.5.82.5 3.98 1.63 7 2.5 3.02.88 6.85 1.34 8.5 1.03 1.65-.31 4.24-1.48 5.75-2.6 1.51-1.12 2.75-2.6 2.75-3.29s-3.26-2.71-7.25-4.5-7.93-3.24-8.75-3.22c-.82.02-2.22.47-3.1 1.01-.88.53-2.68 2.59-4 4.57z" style="fill:#fff"/></svg>