<svg xmlns="http://www.w3.org/2000/svg" viewBox="0 0 550 550" width="550" height="550"><style></style><path id="Path 0" fill-rule="evenodd" d="M0 0h550v550H0V275m314.25-151.04c-.14.02-.25 21.19-.25 47.04 0 36.61-.28 47.13-1.25 47.61-.69.33-2.82-.96-4.75-2.88-1.93-1.92-5.75-5.17-8.5-7.23-2.75-2.06-7.48-4.98-10.5-6.5-3.02-1.52-9.1-3.91-13.5-5.3-4.4-1.4-12.73-3.1-18.5-3.79-8.16-.97-12.95-.99-21.5-.1-6.05.64-14.94 2.29-19.75 3.67-4.81 1.39-11.79 3.9-15.5 5.58-3.71 1.69-10.57 5.62-15.24 8.75s-11.67 8.84-15.56 12.69c-3.88 3.85-9.44 10.38-12.35 14.5-2.9 4.13-7.1 11.1-9.32 15.5-2.22 4.4-5.5 12.5-7.29 18s-3.86 13.38-4.61 17.5c-.78 4.32-1.35 14.49-1.35 24 0 9.44.57 19.71 1.34 24 .74 4.13 2.7 11.77 4.36 17 1.65 5.23 4.49 12.65 6.31 16.5 1.82 3.85 5.51 10.38 8.2 14.5 2.69 4.13 7.57 10.37 10.83 13.88 3.26 3.51 8.63 8.5 11.93 11.1 3.3 2.59 9.15 6.6 13 8.9 3.85 2.3 10.6 5.57 15 7.27 4.4 1.7 12.05 3.92 17 4.94 4.95 1.02 13.28 2.14 18.5 2.49 5.48.37 13.74.14 19.5-.54 5.5-.66 13.82-2.46 18.5-4 4.68-1.55 10.98-4.27 14-6.05 3.02-1.77 7.3-4.84 9.5-6.81 2.2-1.98 5.69-5.75 7.75-8.39 2.06-2.63 4.43-4.79 5.25-4.79 1.26 0 1.5 2.22 1.5 14v14l63.5-.5.51-320.5c-3.5.17-18.46 3.3-35.51 7.07-17.05 3.77-31.11 6.87-31.25 6.89zM261.5 255.47c4.95.24 11.93 1.35 15.5 2.46 3.57 1.11 9.37 3.72 12.87 5.79 3.5 2.08 8.68 6.27 11.5 9.32 2.82 3.05 6.57 8.22 8.32 11.5 1.76 3.28 3.97 8.89 4.92 12.46 1.1 4.15 1.71 10.12 1.7 16.5-.03 8.13-.53 11.45-2.67 17.75-1.45 4.26-4.15 10.11-5.99 13-1.84 2.89-5.21 7.16-7.5 9.5-2.28 2.34-6.96 6.07-10.4 8.3-3.44 2.23-9.4 5.03-13.25 6.23-5.39 1.67-9.53 2.17-18 2.17s-12.61-.5-18-2.17c-3.85-1.2-9.7-3.92-13-6.05-3.3-2.13-8.42-6.55-11.38-9.8-2.96-3.26-6.62-8.41-8.15-11.43-1.52-3.02-3.54-8.43-4.48-12-1.05-4-1.72-10.34-1.73-16.5-.02-6.6.56-12.04 1.71-16 .96-3.3 3.11-8.7 4.78-12 1.73-3.41 5.88-8.87 9.64-12.65 4.7-4.73 8.78-7.69 14.11-10.25 4.13-1.98 10.43-4.27 14-5.09 4.26-.98 9.6-1.33 15.5-1.04z" style="fill:#fff"/></svg>