<svg xmlns="http://www.w3.org/2000/svg" viewBox="0 0 320 124" width="320" height="124"><style></style><path id="Path 0" fill-rule="evenodd" d="M58 0h22v122l-6.75.05c-6.66.04-6.79-.01-9.67-3.75a271.9 271.9 0 0 1-3.26-4.3c-.18-.27-1.34.47-2.57 1.66-1.24 1.19-4.5 3.34-7.25 4.78-4.18 2.18-6.31 2.61-13 2.6-4.81-.01-10-.69-13-1.7-3.65-1.22-6.77-3.45-11.55-8.26-5.03-5.05-7.06-7.98-8.72-12.58-1.19-3.3-2.64-9.37-3.22-13.5-.73-5.19-.74-9.73-.04-14.75.57-3.99 1.99-9.84 3.15-13 1.17-3.16 3.8-8.08 5.84-10.94 2.04-2.85 5.25-6.33 7.13-7.72 1.87-1.39 5.77-3.44 8.66-4.56 3.58-1.38 7.56-2.02 12.5-2.01 5.13.02 8.57.62 11.75 2.07 2.47 1.12 5.3 2.8 6.28 3.73 1.71 1.61 1.78.8 1.75-19.07M29.21 57.88c-.73.89-2.39 3.87-3.68 6.62s-2.64 7.25-2.98 10c-.35 2.75-.15 7.48.43 10.5.59 3.02 2.12 7.52 3.41 10 1.28 2.48 4.08 5.76 6.22 7.29 2.14 1.54 5.69 3.06 7.89 3.38 2.76.4 5.08.04 7.5-1.16 1.93-.95 4.97-3.15 6.77-4.87l3.27-3.14L58 61c-5.04-4.9-7.96-6.93-9.75-7.66-1.79-.74-4.94-1.34-7-1.34-2.06.01-5.31.96-7.23 2.13-1.91 1.17-4.07 2.85-4.81 3.75zM268 0h21v122l-5.75-.01c-5.52-.01-5.94-.21-15.28-9.49l.02-56.25M299 0h21v122l-5.75-.01c-5.52-.01-5.94-.21-15.28-9.49l.02-56.25m-72.74-22.22c5.5-.02 9.42.59 13.5 2.1 4.01 1.48 7.26 3.68 10.75 7.26 2.75 2.82 6 7.15 7.22 9.62 1.22 2.47 2.71 8.09 3.32 12.49.6 4.4.96 9.8.46 16l-25.75.25c-19.79.19-25.75.54-25.76 1.5-.01.69.67 3.61 1.5 6.5s2.75 6.66 4.26 8.39c1.51 1.72 4.55 4.03 6.75 5.13 2.22 1.1 6 1.99 8.5 1.98 2.55 0 6.83-1.03 9.88-2.38 2.96-1.3 5.88-2.95 6.5-3.66.62-.72 1.57-1.28 2.12-1.25.55.03 3.38 2.18 6.29 4.79 2.9 2.61 5.27 5.54 5.25 6.5-.02.96-1.73 3.18-3.79 4.93-2.06 1.74-6.23 4.33-9.25 5.74-4.98 2.32-6.68 2.56-18 2.57-12.31.01-12.6-.04-19.39-3.49-3.78-1.93-8.62-5.41-10.75-7.75-2.12-2.34-4.93-6.39-6.24-9-1.3-2.61-2.88-7.11-3.5-10-.61-2.89-1.12-9.07-1.12-13.75s.67-11.54 1.49-15.25c.92-4.18 2.94-9.03 5.3-12.75 2.11-3.3 5.81-7.57 8.24-9.5 2.43-1.93 6.68-4.27 9.45-5.22 2.99-1.02 8.15-1.73 12.77-1.75zm-9.1 20.36c-1.29 1.16-3.14 3.68-4.12 5.61-.97 1.93-2.06 4.51-2.4 5.75L210 68c30.58 0 32-.16 31.99-1.75-.01-.96-1.13-4.11-2.5-7-1.9-4-3.44-5.73-6.49-7.25-2.2-1.1-5.24-1.99-6.75-1.97-1.51.02-3.65.53-4.75 1.14-1.1.61-3.06 2.05-4.35 3.22zM83.87 34.93l20.63.57 2.11 8.5c1.16 4.68 3.5 14.57 5.19 22 1.7 7.43 3.62 16.43 4.27 20 .8 4.36 1.46 6.01 2 5 .45-.82 1.91-5.55 3.25-10.5s3.67-13.5 5.18-19c2.73-9.94 2.73-10.04 1.11-17-.9-3.85-1.63-7.56-1.62-8.25.01-.93 2.6-1.19 20.51-.75l2.6 11.5c1.43 6.32 4.04 18.02 5.8 26 1.77 7.98 3.56 15.4 3.98 16.5.54 1.41 1.55-1.83 3.4-11 1.44-7.15 3.99-19.3 5.67-27 1.67-7.7 3.27-14.56 3.55-15.25.35-.88 3.44-1.25 10.5-1.25 7.35 0 9.99.33 9.96 1.25-.02.69-.65 3.72-1.4 6.75-.75 3.03-3.89 14.72-6.99 26-3.1 11.27-7.23 26.35-9.18 33.5-1.94 7.15-3.95 14.46-5.39 19.5l-19.42-.5-1.33-4.5c-.73-2.48-3.27-11.48-9.97-35.5l-1.64 5.5c-.89 3.02-3.61 12.02-10.43 34.5L108 122l-1.94-6.75c-1.06-3.71-4.71-16.65-8.1-28.75-3.39-12.1-7.64-27.18-9.44-33.5-1.81-6.32-3.59-12.98-3.97-14.79" style="fill:#fefffe"/></svg>