<svg xmlns="http://www.w3.org/2000/svg" viewBox="0 0 320 345" width="320" height="345"><style></style><path id="Path 0" fill-rule="evenodd" d="M163.5.69c2.75.25 6.57.94 8.5 1.54 1.93.6 8.45 3.78 14.5 7.07 6.05 3.28 12.13 6.73 13.5 7.65 1.38.92 5.09 3 8.25 4.61 3.16 1.62 5.75 3.28 5.75 3.69 0 .41.68.75 1.5.75s2.51.64 3.75 1.43c1.24.78 9.22 5.29 17.75 10.01s15.84 8.58 16.25 8.57c.41 0 .75.33.75.74s1.23 1.3 2.75 1.96c1.51.67 8.15 4.23 14.75 7.9 6.6 3.68 12.45 7.27 13 7.99.55.71 3.48 2.19 6.5 3.28 3.02 1.1 6.18 2.72 7 3.6.82.89 2.06 1.59 2.75 1.56.69-.02 3.95 2.66 7.25 5.96s6 6.45 6 7c0 .55.45 1 1 1s1.79 2.14 2.75 4.75c1.61 4.37 1.75 10.87 1.75 157.75l-2.49 5c-1.36 2.75-4.09 7.02-6.06 9.5-1.97 2.48-5.67 5.63-8.24 7-2.56 1.38-13.33 7.42-23.93 13.44s-25.35 14.29-32.78 18.38-15.97 8.81-19 10.49c-3.03 1.68-7.75 4.25-10.5 5.71-2.75 1.45-7.02 3.73-9.5 5.06-2.47 1.33-4.72 2.67-5 2.98-.27.31-6.8 3.99-14.5 8.19-7.7 4.2-16.03 8.1-18.5 8.67-2.47.57-6.41 1.04-8.75 1.06-2.34.01-5.94-.7-8-1.59-2.06-.88-6.9-3.09-10.75-4.9-3.85-1.82-8.12-3.55-9.5-3.84-1.37-.3-4.19-1.69-6.25-3.09-2.06-1.41-3.97-2.56-4.25-2.56-.28 0-1.4-.9-2.5-2s-2.79-2-3.75-1.99c-.96 0-2.65-.62-3.75-1.38-1.1-.76-5.6-3.28-10-5.61-4.4-2.33-8.67-4.85-9.5-5.6-.83-.75-2.06-1.38-2.75-1.39-.69-.02-1.25-.48-1.25-1.03s-.9-1-2-1-2-.45-2-1-.56-1.01-1.25-1.03c-.69-.01-5.97-2.66-11.75-5.89-5.78-3.22-14.33-7.99-19-10.61-4.67-2.61-11.42-6.33-15-8.25-3.58-1.93-6.73-3.8-7-4.17-.27-.36-2.07-1.31-3.98-2.11-1.91-.79-5.96-3.19-9-5.33s-6.02-4.62-6.63-5.5c-.6-.89-1.75-2.29-2.55-3.11-.79-.82-2.4-3.52-3.57-6-1.16-2.47-2.6-6.3-3.19-8.5C.37 244.84.01 219.95.01 173 0 107.46.13 102.04 1.85 96c1.01-3.58 2.99-8.3 4.39-10.5 1.4-2.2 4.05-5.39 5.9-7.09 1.85-1.71 7.07-5.19 11.61-7.75C28.29 68.1 32.23 66 32.5 66c.27 0 2.19-1.06 4.25-2.37 2.06-1.3 6.45-3.82 9.75-5.6 3.3-1.78 11.85-6.51 19-10.52 7.15-4 20.31-11.38 29.25-16.4 8.94-5.01 16.36-9.1 16.5-9.08.14.01 7.67-4.2 16.75-9.36 9.07-5.16 18.3-9.9 20.5-10.52 2.2-.63 5.35-1.31 7-1.52 1.65-.21 5.25-.19 8 .06zM134 28.49c-3.57 2.07-8.41 4.83-10.75 6.13-2.34 1.31-6.39 3.57-9 5.02-2.61 1.45-9.7 5.33-15.75 8.61-6.05 3.29-15.95 8.79-22 12.23-6.05 3.44-17.75 10-26 14.58s-17.25 9.55-20 11.06c-2.75 1.5-6.32 4.23-7.94 6.06-1.61 1.82-3.63 4.9-4.5 6.82-1.37 3.07-1.56 12.1-1.56 73 0 62.83.16 69.93 1.69 74 .93 2.47 3.41 6.07 5.52 8 2.1 1.93 18.44 11.58 36.3 21.46 17.87 9.88 32.83 18.54 33.24 19.25.41.71 1.54 1.27 2.5 1.26.96-.02 2.88.79 4.25 1.81 1.38 1.02 3.98 2.5 5.79 3.29 1.8.79 3.49 1.99 3.75 2.68.25.69 1.13 1.25 1.96 1.25.83 0 5.33 2.02 10 4.5s8.49 4.84 8.48 5.25c-.02.41 1.33 1.09 3 1.5 1.66.41 3.58 1.35 4.27 2.09.69.74 2.26 1.64 3.5 2 1.24.36 2.25 1.11 2.25 1.66 0 .55.79.98 1.75.96.96-.03 2.43.67 3.25 1.54.82.87 2.06 1.57 2.75 1.54.69-.02 1.36.47 1.5 1.09.14.62 2.05 1.23 4.25 1.35 2.2.11 5.8-.21 8-.73 2.2-.51 9.85-4.22 17-8.23 7.15-4.02 15.47-8.66 18.5-10.31 3.03-1.65 8.65-4.77 12.5-6.93 3.85-2.16 11.28-6.31 16.5-9.23 5.22-2.91 11.3-6.29 13.5-7.51 2.2-1.22 15.22-8.48 28.94-16.13 20.61-11.49 25.44-14.6 27.8-17.91 1.57-2.2 3.28-5.57 3.81-7.5.58-2.11.86-31.03.7-73l-.25-69.5c-3.87-6.79-5.56-9.83-6.25-11.13-.69-1.3-2.15-2.37-3.25-2.37s-2-.45-2-1-1.01-1.4-2.25-1.89-4.18-1.73-6.53-2.75c-2.36-1.02-4.27-2.2-4.25-2.61.02-.41-.53-.75-1.22-.76-.69 0-6.43-2.94-12.75-6.53-6.32-3.59-11.61-6.51-11.75-6.49-.14.02-4.41-2.39-9.5-5.35-5.09-2.96-11.28-6.5-13.75-7.86-2.47-1.36-13.28-7.34-24-13.29-10.72-5.96-20.85-11.5-22.5-12.32-1.65-.82-3.22-1.75-3.5-2.07-.28-.32-3.87-2.27-8-4.35-5.47-2.74-8.75-3.76-12.12-3.75-3.41.02-6.56 1.04-12 3.89-4.06 2.12-10.31 5.55-13.88 7.62zm35.5 17.21L193 58.75c12.93 7.18 26.2 14.52 29.5 16.31 3.3 1.8 10.95 6.05 17 9.46 6.05 3.41 13.7 7.68 17 9.49 3.3 1.82 7.57 4.29 9.5 5.49 1.93 1.21 4.87 3.72 6.55 5.6 1.68 1.87 3.83 5.65 4.77 8.4 1.55 4.53 1.69 10.31 1.45 61-.27 55.06-.31 56.07-2.41 60-1.18 2.2-3.65 5.49-5.5 7.32-1.85 1.82-6.51 5.08-10.36 7.24-3.85 2.15-7.9 4.33-9 4.82-1.1.5-7.51 4.11-14.25 8.01-6.74 3.91-12.47 7.11-12.75 7.11-.28 0-7.59 3.98-16.25 8.84-8.66 4.86-18.22 10.2-21.25 11.88-3.03 1.67-8.54 4.67-12.25 6.66-6.12 3.28-7.48 3.62-14.5 3.59-6.52-.02-8.62-.48-13.25-2.87-3.03-1.56-7.97-4.18-11-5.83-3.03-1.65-7.53-4.13-10-5.52-2.47-1.38-8.33-4.65-13-7.25-4.67-2.61-15.03-8.35-23-12.75-7.97-4.4-19.9-11.04-26.5-14.76-6.6-3.71-13.31-8.26-14.9-10.12-1.6-1.85-3.73-5.17-4.73-7.37-1.7-3.72-1.83-7.97-1.83-61 0-54.69.08-57.17 1.98-61.25 1.09-2.34 3.72-5.94 5.85-8 2.13-2.06 7.42-5.67 11.75-8.01s11.03-6 14.88-8.12C80.35 84.99 90.92 79.09 100 74c9.08-5.08 23.46-13.13 31.97-17.87 8.5-4.75 17.05-9.19 19-9.87 2.02-.71 6.73-1.09 18.53-.56zm-1 112.3c.28 0 5.11-2.54 10.75-5.65 5.64-3.11 13.63-7.54 17.75-9.86 4.13-2.31 18.41-10.23 31.75-17.6L253 111.5c-4.26-2.46-11.8-6.72-19.5-11.05-7.7-4.32-15.8-8.84-18-10.02-2.2-1.19-13.45-7.4-25-13.81-11.55-6.4-21.34-11.63-21.75-11.63-.41.01-.75 20.93-.75 46.51 0 25.57.22 46.5.5 46.5zM107 89.26c-11.83 6.59-25.64 14.29-30.7 17.11-5.06 2.82-9.11 5.18-9 5.25.11.07 7.79 4.34 17.07 9.5l16.88 9.38c2.87-3.87 5.8-8.6 8.36-13 2.56-4.4 8.11-13.62 12.34-20.5 4.23-6.87 9.11-15.09 10.84-18.25 1.73-3.16 3.05-5.75 2.93-5.75-.12.01-1.79.97-3.72 2.14-1.93 1.18-13.17 7.53-25 14.12zm27.21 20.31c-9.51 15.91-16.93 29.23-16.5 29.6.43.37 8.21 4.78 17.29 9.8 9.07 5.01 16.6 8.99 16.73 8.82.13-.16.13-17.58 0-38.72l-.23-38.43M58.08 164.7l-.1 38.8C67.41 188 72.4 179.68 75.16 175c2.75-4.68 7.89-13.34 11.42-19.25L93 145c-10.46-5.64-15.3-8.28-17.5-9.51-2.2-1.23-7-3.89-10.66-5.91l-6.66-3.69M210 154.76c-3.57 1.95-12.35 6.84-19.5 10.87-10.53 5.93-12.62 7.46-11 8.06 1.1.41 8.97 4.64 17.5 9.41l15.5 8.67c18.7-31.21 26.47-44.09 29.34-48.77 2.87-4.68 5.06-8.54 4.86-8.58-.2-.04-7.07 3.72-15.28 8.36-8.21 4.64-17.85 10.03-21.42 11.98zm38.93 9.24c-.94 1.38-6.06 9.82-11.37 18.76-5.31 8.94-9.63 16.59-9.61 17 .02.41 4.21 2.97 9.3 5.69 5.09 2.72 12.96 7.11 17.5 9.75L263 220c0-60.45-.21-78-.47-78s-3.05 4.39-6.19 9.75c-3.13 5.36-6.47 10.88-7.41 12.25zM76.25 209.35c1.79-.9 13.82-7.57 26.75-14.82 12.93-7.24 27.18-15.16 31.69-17.6l8.18-4.43c-8.81-4.73-14.97-8.06-19.37-10.46-4.4-2.4-9.35-5.19-11-6.2-1.65-1.01-3.46-1.83-4.02-1.84-.57 0-8.78 12.82-18.25 28.5-15.68 25.93-16.94 28.35-13.98 26.85zm13.25 12.07c-3.3 1.81-9.51 5.27-13.81 7.69-4.29 2.41-7.44 4.69-7 5.06.45.37 5.09 3.11 10.31 6.1 5.22 2.98 11.97 6.77 15 8.42 3.03 1.65 9.55 5.27 14.5 8.04 4.95 2.77 14.17 7.94 20.5 11.49 6.32 3.55 14.09 7.87 17.25 9.61L152 281c0-72.85-.11-93.98-.25-93.96-.14.03-12.85 7.03-28.25 15.56-15.4 8.54-30.7 17-34 18.82zm78.47 44.08c4.37-6.98 12.36-20.21 20.58-33.91l14.95-24.92c-3.71-2.46-11.4-6.88-19.49-11.42-8.08-4.54-14.99-8.25-15.35-8.25-.36 0-.67 17.66-.67 39.25l-.02 39.25zm46.81-45.04c.12.3-1.72 3.58-4.09 7.29s-8.73 14.18-14.13 23.25-10.57 17.63-11.5 19c-1.26 1.87 4.17-.76 21.38-10.35 12.68-7.06 28.36-15.84 34.83-19.5l11.76-6.65c-4.28-2.43-8.68-4.86-12.53-6.96a964.43 964.43 0 0 1-13.75-7.68c-3.71-2.12-7.16-3.86-7.65-3.86-.5 0-1.72 1.11-2.72 2.46-1 1.36-1.72 2.71-1.6 3z" style="fill:#fdfdfe"/></svg>