<svg xmlns="http://www.w3.org/2000/svg" viewBox="0 0 361 330" width="361" height="330"><style></style><path id="Path 0" fill-rule="evenodd" d="M347.8.02c7.63.02 8.98.29 10.98 2.25 1.39 1.37 2.26 3.39 2.23 5.23-.02 1.65-.88 5.92-1.9 9.5-1.03 3.57-2.88 10.32-4.11 15-1.23 4.68-2.7 10.07-3.26 12-.56 1.93-1.25 4.18-1.53 5-.28.82-.65 2.18-.82 3-.17.82-1.43 5.78-2.79 11s-3.14 11.97-3.96 15c-.82 3.03-2.44 9.1-3.6 13.5-1.16 4.4-2.38 8.68-2.73 9.5-.34.82-.8 2.63-1.02 4-.21 1.38-1.09 4.75-1.94 7.5-.86 2.75-1.92 6.57-2.37 8.5-.45 1.93-1.72 6.88-2.82 11-1.1 4.13-2.68 9.97-3.51 13-.82 3.02-2.45 9.1-3.61 13.5-1.16 4.4-2.8 9.8-3.66 12-.85 2.2-2.27 5.57-3.16 7.5-.89 1.93-1.87 3.73-2.18 4-.31.27-1.45 2.3-2.55 4.5-1.09 2.2-6.94 8.98-12.99 15.06-9.75 9.81-12.08 11.6-20.5 15.72-5.23 2.55-13.1 5.67-17.5 6.92-7.43 2.12-9.92 2.28-35 2.29-20.9.01-28.02-.32-31.5-1.44-2.48-.8-5.85-2.19-7.5-3.09-1.65-.9-4.01-2.27-5.25-3.05-1.83-1.14-2.59-1.17-4-.16-.96.69-4 2.34-6.75 3.67s-7.03 2.94-9.5 3.59c-3.15.82-12.73 1.01-32 .66-20.09-.37-28.85-.9-32.5-1.98-2.75-.82-7.47-2.47-10.5-3.68-3.03-1.21-8.43-3.91-12-6-3.57-2.09-9.43-6.66-13.02-10.15-3.59-3.5-8.61-9.29-11.16-12.86-2.54-3.57-6.01-9.43-7.69-13-1.69-3.57-6.2-16.18-10.02-28-3.83-11.82-9.74-30.28-13.14-41-3.4-10.72-7.08-22.43-8.18-26-1.1-3.57-3.36-10.55-5.01-15.5C2.12 63.55.7 57.43.63 54.9c-.08-2.8.46-5.29 1.37-6.36 1.31-1.55 2.88-1.72 12.5-1.34 9.14.36 11.93.87 16.5 3 3.3 1.55 7.5 4.73 10.5 7.96 2.83 3.05 5.95 7.77 7.18 10.86 1.19 3.02 5.33 15.38 9.19 27.48 3.87 12.1 8.44 26.5 10.17 32 1.74 5.5 4.51 14.05 6.16 19 1.65 4.95 4.27 11.25 5.82 14 1.54 2.75 5.21 7.28 8.14 10.08 2.94 2.79 7.14 6.22 9.34 7.62 2.2 1.4 7.15 3.57 11 4.82 3.85 1.25 7.79 2.66 8.75 3.13.96.47 6.25.85 11.75.85 7.62 0 11.25-.48 15.25-2.01 2.89-1.11 7.95-4.28 17.25-12.08l32.21.59 4.4 3.94c2.41 2.17 7.32 5.26 10.89 6.86 6.13 2.74 7.07 2.88 16.5 2.41 5.5-.27 11.8-.91 14-1.41 2.2-.5 7.6-2.67 12-4.81 5.42-2.65 9.97-5.86 14.11-9.95 3.44-3.4 7.44-8.66 9.15-12.04 1.67-3.3 4.23-10.5 5.7-16 1.46-5.5 3.58-13.37 4.71-17.5 1.13-4.12 2.29-8.18 2.59-9 .3-.82.68-2.18.84-3 .17-.82 1.03-4.2 1.91-7.5l4.58-17c1.63-6.05 4.04-15.05 5.35-20 1.32-4.95 3.3-12.37 4.41-16.5 1.11-4.12 3.15-11.78 4.53-17 1.38-5.22 3.43-11.64 4.56-14.25 1.14-2.61 3.97-6.82 6.31-9.35 2.34-2.52 6.27-5.91 8.75-7.52 2.48-1.61 5.51-2.91 6.75-2.9 1.24.01 2.5-.43 2.8-.98.3-.55 4.46-.99 9.25-.98zM119 52.06c3.03-.05 6.96.36 8.75.92S131 54.45 131 55s.9 1.22 2 1.5 2 1.18 2 2c0 .82.45 1.5 1 1.5s1.9 2.03 3 4.5 1.99 5.96 1.98 7.75c-.01 1.79-.57 5.01-1.25 7.16-.67 2.15-2.92 5.64-4.98 7.75-2.06 2.11-5.44 4.53-7.5 5.36-2.06.84-5.89 1.52-8.5 1.5-2.61-.01-4.97-.47-5.25-1.02-.28-.55-1.4-1-2.5-1s-1.99-.34-1.97-.75c.01-.41-1.11-1.31-2.5-2s-3.65-3.05-5.03-5.25c-2.05-3.28-2.5-5.27-2.5-11 0-5.32.51-7.9 2.14-10.75 1.18-2.06 3.3-4.65 4.7-5.75 1.41-1.1 3.7-2.53 5.11-3.17 1.4-.64 5.02-1.21 8.05-1.27zm58.25-.02c3.16-.02 6.99.51 8.5 1.19 1.51.68 4.68 3.27 7.03 5.75 2.35 2.49 4.34 5.51 4.41 6.71.07 1.21.57 2.56 1.1 3 .54.45.71 2.38.4 4.31-.32 1.93-.94 5.04-1.38 6.92-.45 1.88-2.5 5.14-4.56 7.25-2.06 2.11-5.44 4.52-7.5 5.35-2.06.84-5.89 1.52-8.5 1.5-2.61-.01-5.89-.58-7.28-1.27-1.39-.69-2.51-1.59-2.5-2 .02-.41-.87-.75-1.97-.75-1.11 0-2-.67-2-1.5 0-.82-.9-1.95-2-2.5s-2-1.9-2-3-.45-2.22-1-2.5c-.55-.28-1-3.65-1-7.5 0-5.44.5-7.84 2.22-10.75 1.22-2.06 2.89-4.43 3.72-5.25.83-.82 3.09-2.27 5.03-3.21 2.03-.98 5.97-1.73 9.28-1.75zm58 0c3.16-.02 6.99.45 8.5 1.05 1.51.6 4.57 2.97 6.79 5.25 2.26 2.32 4.41 5.71 4.87 7.66.45 1.93.82 5.53.82 8 0 2.47-.8 6.07-1.77 8-.98 1.93-3.17 4.79-4.87 6.36-1.7 1.57-4.66 3.49-6.59 4.27-1.93.78-5.52 1.4-8 1.37-2.48-.02-6.3-.91-8.5-1.97-2.2-1.05-4.73-2.51-5.62-3.23-.89-.71-2.65-3.1-3.92-5.3-1.75-3.05-2.3-5.54-2.3-10.5 0-4.98.54-7.44 2.32-10.5 1.27-2.2 3.02-4.68 3.89-5.5.86-.82 3.16-2.27 5.1-3.21 2.03-.98 5.97-1.73 9.28-1.75zM119.55 110c3.55 0 6.67.45 6.95 1 .28.55 1.29 1 2.25.99.96-.01 2.43.9 3.25 2.01.82 1.11 1.95 2 2.5 1.98.55-.02 2.3 2.56 3.88 5.74 2.32 4.65 2.78 6.66 2.36 10.28-.28 2.47-1.31 6.07-2.29 8-.97 1.93-3.16 4.79-4.86 6.36-1.7 1.57-4.66 3.49-6.59 4.27-1.93.78-5.41 1.41-7.75 1.39-2.34-.01-5.94-.72-8-1.57-2.06-.86-5.01-2.77-6.56-4.25-1.54-1.49-3.46-4.05-4.27-5.7-.85-1.75-1.45-5.81-1.44-9.75.01-5.12.56-7.72 2.27-10.75 1.24-2.2 3.27-4.56 4.53-5.25 1.25-.69 2.26-1.59 2.25-2-.02-.41.87-.75 1.97-.75s2.25-.45 2.55-1c.3-.55 3.45-1 7-1zm57.2.07c3.44-.04 7.49.48 9 1.16 1.51.68 2.98 1.46 3.25 1.75.27.29 1.34.97 2.36 1.52 1.02.55 2.93 3.03 4.25 5.5 1.32 2.47 2.68 6.07 3.04 8 .36 2 .04 5.63-.76 8.47-.9 3.24-2.78 6.4-5.39 9.08-2.2 2.26-5.57 4.65-7.5 5.3-1.93.65-5.64 1.18-8.25 1.17-2.77-.01-6.31-.84-8.5-2-2.06-1.09-4.48-2.55-5.37-3.25-.89-.7-2.63-3.07-3.88-5.27-1.71-3.03-2.26-5.58-2.25-10.5 0-3.84.63-7.73 1.53-9.5.84-1.65 2.36-3.96 3.37-5.12 1.02-1.17 3.42-3.05 5.35-4.18 2.47-1.45 5.35-2.08 9.75-2.13zm58.5-.03c3.16-.02 6.99.45 8.5 1.05 1.51.6 4.57 2.97 6.79 5.25 2.23 2.29 4.34 5.51 4.69 7.16.36 1.65.95 4.35 1.32 6 .36 1.65.2 3.9-.37 5-.56 1.1-1.28 3.24-1.6 4.75-.32 1.51-2.15 4.32-4.08 6.25-1.93 1.93-5.19 4.19-7.25 5.02-2.06.84-5.77 1.48-8.25 1.43-2.48-.06-5.88-.63-7.57-1.28-1.69-.64-4.21-2.07-5.61-3.17-1.39-1.1-3.59-3.8-4.88-6-1.96-3.34-2.32-5.24-2.19-11.5.1-4.23.62-7.61 1.21-7.75.57-.14 1.04-.81 1.04-1.5s1.01-2.46 2.25-3.93c1.24-1.47 4.05-3.59 6.25-4.71 2.6-1.32 6.02-2.04 9.75-2.07zM64.5 248.54c3.85.16 8.78.61 10.95.99s3.85.98 3.72 1.33c-.12.35 1.14.98 2.81 1.39 1.7.42 5.65 3.38 9.02 6.75 3.3 3.3 6.01 6.34 6.02 6.75.01.41.9 1.88 1.98 3.25 1.08 1.38 1.97 3.51 1.98 4.75.01 1.24.47 2.25 1.02 2.25.61 0 1 4.5 1 11.5 0 6.67-.42 11.71-1 12-.55.27-1 1.4-1 2.5s-1 3.69-2.22 5.75c-1.22 2.06-4.7 6.13-7.75 9.04-3.04 2.91-6.09 5.27-6.78 5.25-.69-.02-1.25.41-1.25.96s-.68 1-1.5 1-2.29.41-3.25.9c-.96.5-3.55 1.44-5.75 2.09-2.2.66-6.7.97-10 .71-3.3-.27-7.35-.79-9-1.17-1.65-.37-4.12-1.21-5.5-1.86-1.37-.64-3.06-1.73-3.75-2.42S42.55 321 42 321s-3.47-2.48-6.5-5.5c-3.27-3.27-6.55-7.83-8.08-11.25-2.24-5-2.58-7.12-2.58-16.25 0-9.1.34-11.23 2.52-16 1.39-3.02 3.56-6.8 4.83-8.4 1.27-1.59 2.89-3.39 3.61-4 .71-.6 2.38-2.11 3.7-3.35 1.33-1.24 3.1-2.25 3.95-2.25.85 0 1.55-.45 1.55-1s.9-1 2-1 1.99-.34 1.99-.75c-.01-.41 1.91-1.26 4.25-1.89 2.34-.62 7.41-.99 11.26-.82zm-11.18 31.71c-.18.96-.77 1.75-1.32 1.75s-1 2.02-1 4.5.63 5.74 1.4 7.25c.76 1.51 2.23 3.48 3.25 4.37 1.02.9 3.54 2.13 5.6 2.75 2.06.62 4.65.9 5.75.63 1.1-.27 3.79-2.19 5.97-4.25 3.46-3.28 3.97-4.32 3.99-8.25.02-2.79-.73-5.74-1.96-7.75-1.1-1.79-3.46-4.15-5.25-5.25-1.79-1.09-4.15-1.99-5.25-2-1.1 0-3.99 1.01-6.43 2.25-2.44 1.24-4.58 3.04-4.75 4zm236.48-30.24c4.23.01 9.27.52 11.2 1.14 1.93.62 4.63 1.61 6 2.21 1.38.59 4.52 2.42 7 4.05 2.48 1.64 5.63 4.24 7 5.78 1.38 1.54 3.22 4.26 4.11 6.05.89 1.8 2.09 4.39 2.67 5.76.59 1.38 1.4 3.85 1.79 5.5.4 1.65.71 5.93.69 9.5-.03 3.57-.32 8.19-.65 10.25-.34 2.06-1.06 3.75-1.61 3.75s-.99 1.01-.98 2.25c.01 1.24-.89 3.26-2 4.5-1.11 1.24-2 2.59-1.97 3 .02.41-1.89 2.46-4.25 4.55-2.37 2.09-4.75 4.15-5.3 4.58-.55.43-2.35 1.48-4 2.34-1.65.85-5.81 2.28-9.25 3.17-3.44.88-7.71 1.6-9.5 1.59-1.79-.01-5.05-.49-7.25-1.08-2.2-.58-5.74-1.59-7.86-2.23-2.13-.64-4.72-1.96-5.75-2.92-1.04-.96-2.23-1.73-2.64-1.7-.41.02-2.44-1.67-4.51-3.75-2.07-2.09-3.75-4.36-3.75-5.05.01-.69-.33-1.24-.74-1.22-.41.02-1.72-1.89-2.91-4.25-1.18-2.35-2.71-6.53-3.4-9.28-.72-2.87-1.04-7.99-.76-12 .36-5.2 1.35-8.8 3.85-14 2.06-4.27 5.29-8.85 8.29-11.75 2.71-2.61 5.55-4.75 6.3-4.75.76 0 1.38-.45 1.38-1s.9-1 2-1 2-.45 2-1 1.35-1 3-1 3.25-.45 3.55-1c.3-.55 4.01-.99 8.25-.99zm-8.3 30.48c-1.1 1.11-2.56 3.7-3.25 5.76-1 3-1 4.5 0 7.5.69 2.06 2.36 4.65 3.71 5.75 1.35 1.1 4.27 2.52 6.5 3.15 3.04.86 4.54.86 6.04 0 1.1-.63 2.92-1.83 4.04-2.65 1.12-.82 3.04-2.96 4.25-4.75 1.22-1.79 2.21-4.37 2.21-5.75 0-1.37-.45-2.73-1-3s-1-1.18-1-2c0-.82-1.01-2.54-2.25-3.81s-3.82-2.85-5.75-3.51c-1.93-.67-4.18-1.18-5-1.13-.82.05-2.62.61-4 1.26-1.37.65-3.4 2.08-4.5 3.18z" style="fill:#fffeff"/></svg>