<svg xmlns="http://www.w3.org/2000/svg" viewBox="0 0 512 509" width="512" height="509"><style></style><path id="Path 0" d="M212 1.97c-5.78 1.03-15 3.02-20.5 4.42s-13.82 3.85-18.5 5.44c-4.68 1.59-12.55 4.58-17.5 6.64-4.95 2.06-12.49 5.49-16.75 7.64-4.26 2.14-12.36 6.71-18 10.15-5.64 3.45-14.53 9.49-19.75 13.43-5.22 3.93-13.55 10.84-18.5 15.35-4.95 4.51-12.75 12.31-17.32 17.33C60.6 87.39 53.63 95.78 49.69 101c-3.94 5.22-10.06 14.22-13.6 20-3.54 5.78-9.01 15.9-12.16 22.5-3.14 6.6-7.31 16.28-9.25 21.5-1.95 5.22-4.71 13.55-6.15 18.5-1.44 4.95-3.83 14.63-5.32 21.5C.53 217.37.5 217.89.5 256s.03 38.63 2.71 51c1.49 6.88 3.88 16.55 5.32 21.5 1.44 4.95 4.2 13.27 6.15 18.5 1.94 5.23 6.11 14.9 9.25 21.5 3.15 6.6 8.62 16.73 12.16 22.5 3.54 5.77 9.66 14.77 13.6 20 3.94 5.23 10.91 13.6 15.49 18.61 4.57 5.01 11.7 12.21 15.82 16.01 4.13 3.8 10.65 9.4 14.5 12.43 3.85 3.04 9.92 7.56 13.5 10.06 3.58 2.5 10.33 6.82 15 9.6 4.68 2.79 11.65 6.64 15.5 8.57 3.85 1.93 11.05 5.19 16 7.25 4.95 2.06 12.82 5.06 17.5 6.66 4.68 1.6 13.9 4.24 20.5 5.86 6.6 1.63 14.59 2.95 17.75 2.95H217V329h-65v-72h65c-.02-62.6.34-73.62 1.44-80 .8-4.68 2.88-12.55 4.61-17.5 1.73-4.95 4.53-11.47 6.22-14.5 1.7-3.03 4.96-7.97 7.25-11 2.29-3.03 6.68-7.75 9.75-10.5 3.07-2.75 7.98-6.46 10.91-8.24 2.92-1.78 8.92-4.79 13.32-6.69 4.4-1.9 12.73-4.43 18.5-5.61 9.37-1.92 12.76-2.1 31.5-1.67 11.55.26 26.63 1.23 33.5 2.14 6.88.92 13.06 1.87 13.75 2.12.96.35 1.25 7.41 1.25 30.7l.01 30.25c-38.54 1.23-43.77 1.75-49.26 3.43-5.29 1.62-7.96 3.2-12.34 7.32-3.43 3.22-6.56 7.38-8.11 10.75-1.62 3.52-2.84 8.57-3.4 14-.47 4.68-.87 18.96-.88 31.75L295 257c55.02 0 71 .23 71 .5s-2.25 15.24-5.01 33.25c-2.75 18.01-5.23 33.99-5.5 35.5L355 329h-60v180c8.91 0 16.9-1.32 23.5-2.95 6.6-1.62 15.82-4.26 20.5-5.86 4.68-1.6 12.55-4.6 17.5-6.66 4.95-2.06 12.15-5.32 16-7.25 3.85-1.93 10.82-5.78 15.5-8.57 4.68-2.78 11.43-7.1 15-9.6 3.57-2.5 9.65-7.02 13.5-10.06 3.85-3.03 10.38-8.63 14.5-12.43 4.13-3.8 11.25-11 15.82-16.01 4.58-5.01 11.55-13.38 15.49-18.61 3.94-5.23 10.06-14.23 13.6-20 3.54-5.77 9.01-15.9 12.16-22.5 3.14-6.6 7.31-16.27 9.25-21.5 1.95-5.23 4.71-13.55 6.15-18.5 1.44-4.95 3.83-14.62 5.32-21.5 2.68-12.37 2.71-12.89 2.71-51s-.03-38.63-2.71-51c-1.49-6.87-3.88-16.55-5.32-21.5-1.44-4.95-4.2-13.28-6.15-18.5-1.94-5.22-6.11-14.9-9.25-21.5-3.15-6.6-8.62-16.72-12.16-22.5-3.54-5.78-9.66-14.78-13.6-20-3.93-5.22-10.84-13.55-15.35-18.5-4.51-4.95-12.31-12.75-17.33-17.32-5.02-4.58-13.4-11.55-18.63-15.49-5.23-3.94-14.23-10.06-20-13.6-5.77-3.54-15.9-9.01-22.5-12.16-6.6-3.14-16.27-7.31-21.5-9.25-5.23-1.95-13.55-4.71-18.5-6.15-4.95-1.44-14.4-3.79-21-5.23C295.97.78 294.07.67 259 .38c-32.2-.26-37.74-.07-47 1.59z" style="fill:#fffffe"/></svg>