<svg xmlns="http://www.w3.org/2000/svg" viewBox="0 0 595 512" width="595" height="512"><style></style><path id="Path 0" fill-rule="evenodd" d="M345.25.12c24.52-.1 32.61.24 46 1.92 8.94 1.13 20.3 2.97 25.25 4.08 4.95 1.12 9.68 1.78 10.5 1.46.82-.33 1.95-.16 2.5.36s6.85 2.81 14 5.1c7.15 2.28 15.02 5.19 17.5 6.47 2.48 1.27 8.89 4.15 14.25 6.4C480.61 28.16 485.45 30 486 30c.55 0 1 .45 1 1s1.35 1 3 1c2.17 0 3.14.56 3.5 2 .27 1.1 1.74 2.38 3.25 2.84 1.51.46 4.77 2.69 7.25 4.96 2.48 2.26 6.3 5 8.5 6.08s7.83 5.37 12.5 9.52c4.67 4.14 9.3 8.34 10.29 9.32.98.98 4.8 5.08 8.5 9.1 3.69 4.03 7.72 7.52 8.96 7.75 1.44.28 2.25 1.15 2.25 2.43 0 1.1-.56 2-1.25 1.99-.69 0-.24.67 1 1.5s2.69 2.52 3.24 3.76c.54 1.24 2.92 4.95 5.29 8.25s5.07 8.03 5.99 10.5c.92 2.47 2.58 5.51 3.7 6.75 1.12 1.24 2.03 2.7 2.03 3.25 0 .55.95 3.14 2.12 5.75 1.16 2.61 2.7 6.1 3.42 7.75.72 1.65 2.01 5.03 2.87 7.5.86 2.47 1.64 5.27 1.74 6.2.1.94.89 2.12 1.77 2.64 1.01.6 1.31 1.51.83 2.55-.41.88.12 5.1 1.17 9.36 1.06 4.26 2.75 11.35 3.75 15.75 1.61 7.05 1.82 12.59 1.73 46.5-.06 25.57-.49 40.18-1.26 43.5-.65 2.75-1.84 8.82-2.65 13.5-.82 4.68-2.42 12.32-3.58 17-1.15 4.68-3.17 11.65-4.49 15.5-1.32 3.85-2.4 7.79-2.41 8.75 0 .96-.99 3.44-2.18 5.5-1.2 2.06-2.72 4.43-3.38 5.25-.67.82-1.54 2.63-1.93 4-.4 1.38-2.65 6.77-5 12-3 6.65-4.17 10.47-3.9 12.75.21 1.79-.07 3.25-.62 3.25s-1.2-.56-1.44-1.25c-.33-.93-.69-.86-1.4.25-.53.82-2.81 3.98-5.07 7-2.26 3.02-4.1 6.51-4.1 7.75.01 1.42-.73 2.43-1.99 2.75-1.1.27-2.01 1.29-2.01 2.25-.01.96-1.16 2.88-2.56 4.25-1.4 1.38-5.81 6.55-9.8 11.5-3.99 4.95-12.85 14.48-19.69 21.18-6.84 6.69-14.24 13.55-16.44 15.23-2.2 1.68-6.36 4.64-9.25 6.57-2.89 1.94-6.15 5.09-7.25 7.02-1.24 2.17-2.76 3.5-4 3.5-1.1 0-4.7 1.8-8 4s-6.34 4.02-6.75 4.04c-.41.03-3.9 2.02-7.75 4.43-3.85 2.41-11.27 6.47-16.5 9.02-5.23 2.54-10.59 4.94-11.93 5.32-1.34.38-2.91 1.48-3.5 2.44-.59.97-2.08 1.76-3.32 1.75-1.24 0-3.04.44-4 .98s-4.23 1.65-7.25 2.47c-4.17 1.12-5.67 2.03-6.19 3.77-.57 1.9-1.12 2.15-3.25 1.53-1.87-.55-2.69-.35-3.06.75-.33 1-1.24 1.3-2.75.91-1.24-.33-4.05.1-6.25.95s-8.5 2.67-14 4.04-16.3 3.59-24 4.94c-7.7 1.35-16.7 3.03-20 3.72-4.66.99-41.7 1.35-165.5 1.64-87.72.2-160.51.13-161.75-.16-1.24-.3-2.25-1.22-2.25-2.04 0-.82 2.01-3.19 4.46-5.25s4.47-4.2 4.49-4.75c.02-.55 1.27-1.53 2.79-2.18 1.52-.65 4.11-2 5.76-3 1.65-1 3.2-2.27 3.45-2.82.24-.55 1.21-1.68 2.14-2.5.94-.82 4.21-3.3 7.26-5.5 3.86-2.77 5.58-4.69 5.61-6.25.03-1.82.61-2.25 3.04-2.25 1.65 0 4.82-1.24 7.04-2.75 2.22-1.51 4.02-3.31 4-4-.02-.69 1.87-2.33 4.21-3.65 2.34-1.31 5.15-3.35 6.25-4.53 1.1-1.17 2.45-2.1 3-2.07.55.04 3.08-1.86 5.61-4.21 2.54-2.36 4.87-4.97 5.18-5.79.44-1.18.74-1.23 1.38-.22.63.98 1.3.76 2.83-.89 1.1-1.2 3.25-2.9 7.55-5.39l-4.78-4.54c-2.62-2.49-5.89-5.28-7.27-6.2-1.49-1-2.23-2.19-1.84-2.97.4-.76-1.86-4.59-5.5-9.33-3.39-4.42-7.51-10.61-9.16-13.76-1.65-3.14-3.79-5.94-4.75-6.21-1.08-.3-1.69-1.35-1.58-2.74.09-1.24-1.31-5.85-3.11-10.25-1.79-4.4-3.97-9.57-4.82-11.5-.86-1.93-2.17-3.95-2.91-4.5-.75-.55-1.75-3.48-2.24-6.5-.48-3.02-1.61-7.3-2.51-9.5-.9-2.2-1.62-6.14-1.6-8.75.01-3.41-.44-4.96-1.59-5.5-1.16-.54-1.44-1.52-1-3.5.34-1.51.16-2.98-.39-3.25s-.76-1.51-.46-2.75.05-6.07-.54-10.75c-.59-4.68-1.08-20.43-1.07-35 .01-14.57.45-28.52.98-31 .53-2.47 1.67-8.55 2.52-13.5.85-4.95 1.57-10.57 1.59-12.5.01-1.93.92-6.2 2.02-9.5 1.09-3.3 1.98-7.01 1.97-8.25 0-1.24 1.1-4.39 2.45-7 1.36-2.61 4.1-9.47 6.09-15.25 2-5.78 4.08-12.07 4.64-14 .55-1.93 1.64-4.29 2.41-5.25.86-1.07 1.01-1.94.4-2.25-.55-.28-1-1.18-1-2 0-.83.89-1.5 2-1.5 1.39 0 2.23-.92 2.75-3.02.41-1.65 1.31-3.23 2-3.5.69-.26 1.25-1.6 1.25-2.98 0-1.53.68-2.69 1.75-2.98.96-.27 3.29-3.53 5.16-7.25 1.88-3.72 4.81-8.55 6.5-10.72 1.7-2.17 3.54-4.7 4.09-5.61.55-.91 2.24-3.52 3.75-5.8 1.51-2.28 3.2-4.14 3.75-4.14.55 0 2.8-2.59 5.01-5.75 2.2-3.16 6.36-8.36 9.25-11.54 2.88-3.19 5.58-5.78 6.01-5.75.42.02 2.89-2.1 5.5-4.72 2.6-2.62 6.64-6.9 8.98-9.5 2.34-2.61 4.81-4.74 5.5-4.74.69-.01 2.6-.86 4.25-1.89 1.65-1.04 5.29-4.07 8.09-6.75 2.8-2.67 6.75-5.76 8.77-6.86 2.02-1.1 3.89-2.79 4.16-3.75.29-1.07 1.45-1.75 2.98-1.75 1.38 0 3.96-1.31 5.75-2.91 1.79-1.59 4.5-3.28 6.03-3.75 1.52-.46 2.98-1.4 3.25-2.09.26-.69 3.4-2.6 6.97-4.25 3.78-1.74 6.5-3.63 6.5-4.5 0-1.06 1.09-1.5 3.75-1.52 2.06 0 4.2-.34 4.75-.75.55-.4 1-1.62 1-2.72 0-1.2.79-2.12 2-2.33 1.12-.19 2.33.35 2.75 1.24.64 1.35 1.01 1.38 2.5.23.96-.74 4.22-2.14 7.25-3.1 3.03-.96 5.95-2.1 6.5-2.53.55-.43 2.57-1.12 4.5-1.52 1.93-.4 4.18-1.31 5-2.02.82-.71 4.88-2.26 9-3.45 4.13-1.18 8.18-2.52 9-2.97.82-.46 3.3-1.17 5.5-1.58 2.2-.42 6.03-1.53 8.5-2.49 2.48-.95 7.65-2.07 11.5-2.47 3.85-.41 8.13-1.18 9.5-1.71 1.38-.52 8.57-1.61 16-2.4 7.43-.8 15.75-1.84 18.5-2.31 2.75-.48 18.39-.92 34.75-.98zM309.13 102c-1.15 3.58-2.39 8.75-2.75 11.5-.36 2.75-1.25 5.67-1.98 6.5-.73.83-1.84 4.2-2.45 7.5-.62 3.3-1.95 6.9-2.97 8-1.02 1.1-2.96 5.82-4.32 10.5-1.36 4.68-3.36 11.2-4.45 14.5-1.09 3.3-3.38 10.5-5.08 16-1.7 5.5-3.08 10.9-3.07 12 .02 1.1-.69 2.68-1.56 3.5-.87.82-1.57 2.4-1.54 3.5.03 1.1-.85 3.8-1.96 6-1.11 2.2-2.01 5.01-2.01 6.25.01 1.24-.67 2.93-1.49 3.75-1.07 1.07-1.21 1.93-.5 3 .55.82.77 1.95.5 2.5-.32.64-15.58 1-42.75 1-23.24 0-52.6.29-65.25.64l-23 .65c5.43 4.44 7.34 5.73 7.75 5.72.41 0 2.78 1.34 5.25 2.99 2.47 1.65 5.18 3 6 3 .82 0 1.5.68 1.5 1.5 0 .89.61 1.3 1.5 1 .95-.32 2.05.6 3 2.5.82 1.65 2.51 3.53 3.75 4.18 1.24.64 6.46 4.36 11.6 8.25 5.14 3.89 11.03 8.2 13.09 9.57 2.06 1.38 5.08 3.4 6.71 4.5 1.62 1.1 4.73 3.45 6.9 5.23 2.17 1.77 8.56 6.61 14.2 10.75 5.64 4.13 10.59 7.53 11 7.54.41.01 1.65.94 2.75 2.06s3.13 2.13 4.5 2.23c2.16.16 2.54.73 2.79 4.19.16 2.22-.84 7.79-2.25 12.5-1.4 4.68-2.55 9.4-2.57 10.5-.02 1.1-.7 2.9-1.52 4-.82 1.1-1.48 2.79-1.47 3.75.01.96-.37 2.54-.84 3.5s-1.52 3.1-2.32 4.75c-.81 1.65-2.05 5.02-2.75 7.5-.7 2.48-1.9 6.3-2.67 8.5-.76 2.2-1.39 4.56-1.39 5.25-.01.69-.53 2.49-1.17 4-.63 1.51-1.08 3.54-1 4.5.09.96-.74 3.55-1.84 5.75s-2.29 6.14-2.63 8.75c-.35 2.61-1.2 5.43-1.88 6.25-.68.82-1.56 3.3-1.95 5.5-.39 2.2-1.32 4.68-2.07 5.5-.75.82-2.06 3.41-2.92 5.75-.85 2.34-1.33 4.7-1.05 5.25.28.55-.12 2.01-.87 3.25-.76 1.24-1.88 3.94-2.5 6L206 419c6.47-3.49 8.95-5.51 9.67-6.75.73-1.24 2.01-2.25 2.83-2.25.82 0 4.31-2.25 7.75-5 3.44-2.76 6.7-5.01 7.25-5 .55 0 2.46-1.57 4.25-3.5 1.79-1.92 3.81-3.49 4.5-3.47.69.02 2.15-.89 3.25-2.03 1.1-1.14 2.45-2.04 3-2 .55.04 1.9-.86 3-2 1.1-1.14 2.34-2.05 2.75-2.03.41.02 1.99-1.09 3.5-2.46 1.51-1.36 6.13-5.11 10.25-8.33 4.13-3.21 9.07-6.66 11-7.66 1.93-1 5.52-3.59 8-5.77 2.48-2.17 5.85-4.64 7.5-5.49 1.65-.85 4.47-2.71 6.26-4.15 1.79-1.44 4.82-3.85 6.75-5.36L311 343c9.69 5.7 13.74 8.4 15.25 9.68 1.51 1.28 3.54 2.32 4.5 2.32s2.99 1.58 4.5 3.5c1.51 1.93 4.44 4.62 6.5 5.99 2.06 1.37 6 4.07 8.75 6 2.75 1.93 7.48 5.16 10.5 7.17 3.02 2.02 6.85 4.95 8.5 6.52 1.65 1.57 3.56 2.85 4.25 2.84.69-.01 1.59.66 2 1.49.41.83 1.71 2.07 2.87 2.75 1.17.68 4.55 2.86 7.5 4.85 2.96 1.98 6.28 3.81 7.38 4.06 1.1.25 1.89.98 1.75 1.64-.14.65 2.56 3.17 6 5.59s7.94 5.34 10 6.5c2.81 1.57 3.9 1.79 4.34.85.33-.69-.6-5.52-2.06-10.75s-3.29-10.18-4.07-11c-.77-.82-1.44-3.07-1.47-5-.03-1.93-.86-5.75-1.85-8.5-.99-2.75-2.43-6.35-3.2-8-.77-1.65-1.97-3.34-2.67-3.75-.76-.45-1.17-2.32-1.02-4.65.16-2.57-.33-4.53-1.46-5.75-.94-1.02-1.67-3.2-1.61-4.85.05-1.65-.47-4.57-1.17-6.5-.7-1.93-1.67-4.29-2.14-5.25-.48-.96-.87-2.43-.87-3.25 0-.82-.68-1.73-1.5-2-.99-.33-1.36-1.43-1.1-3.25.22-1.51-.18-4.32-.9-6.25-.71-1.93-2.29-6.87-3.5-11-1.21-4.12-2.38-7.95-2.61-8.5-.23-.55-1.27-2.35-2.33-4-1.05-1.65-1.93-3.68-1.95-4.5-.01-.82 1.39-3.07 3.11-5 1.73-1.93 4.41-4.06 5.96-4.75 1.55-.69 2.82-1.7 2.82-2.25s1.46-1.68 3.25-2.5c1.79-.83 5.05-3.14 7.25-5.14 2.2-1.99 5.13-4.18 6.5-4.86 1.38-.68 5.2-3.48 8.5-6.23 3.3-2.74 7.8-5.83 10-6.88 2.2-1.04 4.45-2.9 5-4.14.55-1.24 1.56-2.26 2.25-2.25.69 0 1.48-.9 1.75-2 .33-1.33 1.33-2 3-2 1.38 0 2.73-.45 3-1s3.09-2.46 6.25-4.24c3.16-1.79 8.45-5.5 11.75-8.25 3.3-2.76 6.74-5.46 7.64-6.01.9-.55 4.62-3.03 8.26-5.5 3.65-2.47 6.62-4.72 6.62-5-.01-.28-5.07-.84-11.26-1.25-6.2-.41-34.44-.75-62.76-.76-31.1-.01-52.09-.4-53-.98-.82-.53-2.99-5.36-4.81-10.73-1.82-5.38-3.51-11.24-3.75-13.03-.26-1.92-1.36-3.85-2.69-4.72-1.72-1.13-2.08-2.01-1.52-3.75.4-1.25.28-3.85-.27-5.78-.56-1.93-1.8-4.4-2.77-5.5-.98-1.1-1.9-3.35-2.06-5-.15-1.65-.96-5.03-1.78-7.5-.83-2.47-1.88-4.95-2.34-5.5-.46-.55-1.29-3.25-1.85-6-.57-2.75-1.43-6.57-1.93-8.5-.49-1.93-1.42-4.51-2.07-5.75-.64-1.24-1.16-3.04-1.17-4 0-.96-.6-2.87-1.34-4.25-.73-1.37-1.87-4.97-2.54-8-.66-3.03-1.78-6.4-2.5-7.5-.71-1.1-1.59-3.24-1.95-4.75-.36-1.51-1.11-2.75-1.66-2.75-.55 0-1.03-1.69-1.07-3.75-.04-2.06-.44-4.65-.89-5.75-.65-1.58-.93-1.68-1.33-.5-.27.83-1.44 4.42-2.58 8z" style="opacity:.98;fill:#feffff"/></svg>