<svg xmlns="http://www.w3.org/2000/svg" viewBox="0 0 380 352" width="380" height="352"><style></style><path id="Path 0" fill-rule="evenodd" d="M219 1.55c11.27.22 26.57 1.07 34 1.87 7.43.81 18.23 2.21 24 3.11 5.77.91 15.68 2.75 22 4.1 6.32 1.34 17.35 3.98 24.5 5.85 7.15 1.88 19.75 5.71 28 8.52 8.25 2.81 16.69 6.21 18.75 7.56 2.57 1.67 4.59 4.25 6.42 8.19 2.15 4.64 2.55 6.62 2.04 10.25-.34 2.47-8.4 25.57-35.21 98.14l1.18 9.18c.65 5.05 1.22 14.13 1.26 20.18.03 6.05-.41 14.82-.99 19.5-.58 4.68-1.74 11.88-2.59 16-.84 4.13-3.13 12.45-5.08 18.5-1.95 6.05-6.42 16.63-9.93 23.5-3.51 6.88-9.41 16.77-13.11 22-3.7 5.23-12.36 15.13-19.24 22.01-6.87 6.89-16.66 15.44-21.75 19-5.08 3.57-13.18 8.63-18 11.24-4.81 2.61-13.25 6.52-18.75 8.69s-14.73 5.1-20.5 6.51c-5.77 1.41-15.56 3.24-21.75 4.06-6.19.82-15.41 1.49-20.5 1.49s-13.07-.46-17.75-1.02c-4.68-.57-12.1-1.74-16.5-2.6-4.4-.87-12.95-3.14-19-5.06-6.05-1.92-15.95-5.9-22-8.85-6.05-2.94-14.82-7.91-19.5-11.04-4.68-3.13-11.65-8.27-15.5-11.41-3.85-3.14-10.83-9.78-15.5-14.74-4.67-4.96-11.04-12.56-14.14-16.9-3.1-4.33-7.95-11.93-10.77-16.88-2.83-4.95-6.89-13.5-9.04-19-2.15-5.5-5.02-13.82-6.37-18.5-1.35-4.68-3.26-13-4.24-18.5-1.27-7.14-1.78-15.15-1.78-28s.51-20.86 1.78-28c.98-5.5 2.89-13.82 4.24-18.5s4.22-13 6.37-18.5c2.15-5.5 6.22-14.05 9.05-19 2.83-4.95 7.88-12.82 11.21-17.5 3.33-4.68 11.49-13.9 18.13-20.5 6.63-6.6 16.22-14.93 21.31-18.5 5.08-3.58 13.18-8.64 18-11.25 4.81-2.61 13.25-6.52 18.75-8.7 5.5-2.17 16.07-5.52 23.5-7.43 7.43-1.92 20.03-4.44 28-5.59 7.97-1.15 19.45-2.5 25.5-3 6.05-.49 20.23-.71 31.5-.48zm-45 22.53c-5.22.59-15.35 2.2-22.5 3.59-7.15 1.38-18.18 4.21-24.5 6.28-6.32 2.08-15.78 5.92-21 8.54-5.22 2.62-13.55 7.5-18.5 10.85-5.26 3.56-14.01 11.09-21.06 18.12-7.8 7.78-14.3 15.4-18.37 21.54-3.47 5.22-8.23 13.32-10.57 18-2.35 4.68-5.62 12.32-7.28 17-1.65 4.68-4.07 13.22-5.36 19-2.08 9.24-2.36 13.01-2.33 31.5.02 17.7.36 22.49 2.15 30.5 1.17 5.23 3.31 13.1 4.75 17.5 1.45 4.4 5.3 13.4 8.56 20 3.48 7.02 9.21 16.36 13.83 22.5 4.34 5.77 12.35 14.71 17.79 19.86 5.44 5.16 13.94 12.07 18.89 15.37 4.95 3.31 13.05 8.04 18 10.52 4.95 2.48 13.5 5.98 19 7.77 5.5 1.79 13.82 4.1 18.5 5.12 6.77 1.47 12.77 1.85 29.5 1.85s22.73-.38 29.5-1.85c4.68-1.02 13-3.33 18.5-5.12s14.05-5.29 19-7.77c4.95-2.48 13.27-7.37 18.5-10.86 5.68-3.79 13.95-10.77 20.58-17.37 6.09-6.06 13.4-14.17 16.23-18.02 2.83-3.85 7.39-11.05 10.14-16 2.75-4.95 6.54-12.82 8.44-17.5 1.89-4.68 4.39-12.1 5.55-16.5 1.16-4.4 2.77-12.05 3.58-17 .85-5.22 1.45-15.31 1.42-24-.02-8.25-.61-18.37-1.3-22.5l-1.26-7.5c27.6-74.4 35.5-96.61 35.37-97.36-.14-.75-5.2-3.12-11.25-5.28s-17.3-5.7-25-7.87c-7.7-2.17-20.75-5.29-29-6.94-8.25-1.65-21.98-3.95-30.5-5.11-11.92-1.62-22.08-2.18-44-2.43-15.68-.19-29.85-.15-31.5.08-1.65.22-7.28.89-12.5 1.49zM203 28h11v12h-11v-6m30.31-5.26 3.59.62c1.98.34 4.39.62 5.35.63 1.14.01 1.75.79 1.76 2.26.01 1.24-.33 3.72-.75 5.52-.73 3.14-.96 3.28-10.26 3.23l.15-6.13m-53.9-4.71c.96-.09 1.92.18 2.14.59.21.41.69 3 1.76 10.75l-5.33.77c-2.92.42-5.39.64-5.47.5-.09-.15-.43-2.86-1.35-11.77l3.25-.34c1.79-.19 4.04-.41 5-.5zm89.08 3.85c1.75.01 4.18.24 5.42.5 2.03.44 2.25 1.08 2.25 12.49l-3.75-.01c-2.06-.01-4.76-.24-6-.5-1.93-.42-2.25-1.13-2.25-4.99 0-2.47.26-5.17.58-6 .36-.9 1.86-1.49 3.75-1.49zm-120.95 3.35c.49.08 1.52 2.39 2.3 5.14.78 2.75 1.06 5.33.62 5.72-.44.4-2.83 1.02-9.8 2.03l-1.25-4.62c-.69-2.55-1.35-5.05-1.48-5.57-.12-.52 1.79-1.37 4.25-1.89 2.47-.52 4.88-.88 5.36-.81zm152.08 4.06c1.67.33 4.05.6 5.29.59 2.11-.01 2.23.36 2 5.9-.14 3.25-.48 6.12-.75 6.39-.27.26-2.87.19-11.02-.8l.01-4.75c0-2.61.33-5.47.72-6.35.52-1.17 1.51-1.43 3.75-.98zM116 47.05c.95-.05 1.96 1.59 2.75 4.44.69 2.48 1.25 4.96 1.25 5.51 0 .55-1.46 1.46-3.25 2.02s-4.04 1.01-5 1c-.96-.01-2.16-1.03-2.65-2.27-.5-1.24-1.06-3.59-1.25-5.23-.31-2.62.06-3.12 3.15-4.19 1.93-.67 4.18-1.25 5-1.28zm217.47 4.42c3.32.38 6.15.77 6.29.86.15.09-.2 3.1-.77 6.67-.56 3.57-1.13 6.64-1.26 6.81-.13.16-3.08-.06-12.92-1.31l.67-4.5c.36-2.47.96-5.56 1.31-6.86.63-2.26.93-2.34 6.68-1.67zM207 83h11v12h-11v-6m33.75-1.55c.69.3 3.05.55 9.25.55v12h-6c-5.04 0-6-.28-6.01-1.75 0-.96.33-3.91.75-6.55.52-3.29 1.15-4.63 2.01-4.25zm35.7 10.01c2.78.38 5.19.77 5.37.86.18.1-.05 2.88-.52 6.18-.78 5.59-1.01 5.98-3.32 5.77-1.36-.13-3.94-.47-5.73-.75-2.98-.48-3.21-.77-2.75-3.52.27-1.65.82-4.4 1.2-6.11.7-3.11.72-3.12 5.75-2.43zM176 105.4c8.63.28 13.37.98 19 2.78 4.13 1.33 10.65 4.14 14.5 6.26 4.66 2.56 10.03 6.9 16.04 12.96 7.29 7.34 9.84 10.74 13.19 17.6 2.28 4.68 4.95 11.43 5.93 15 1.25 4.58 1.77 10.05 1.75 18.5-.01 6.6-.58 14.02-1.27 16.5-.68 2.48-2.2 6.98-3.39 10-1.18 3.02-3.7 8.2-5.6 11.5-1.9 3.3-7.1 9.61-11.55 14.02-5.8 5.75-10.37 9.2-16.1 12.18-4.4 2.29-11.6 5.16-16 6.38-5.94 1.65-10.71 2.23-18.5 2.23-6.44 0-13.21-.66-17.5-1.7-3.85-.93-10.6-3.44-15-5.58s-10.68-6.06-13.95-8.71c-3.28-2.65-8.12-7.52-10.77-10.82-2.65-3.3-6.34-8.93-8.2-12.5-1.86-3.57-4.34-9.65-5.51-13.5-1.17-3.85-2.39-10.6-2.72-15-.33-4.47-.08-11.31.58-15.5.64-4.12 2.28-10.65 3.63-14.5 1.35-3.85 3.91-9.47 5.7-12.5 1.78-3.03 7.06-9.37 11.74-14.09 5.2-5.26 11.02-9.99 15-12.2 3.57-1.99 8.53-4.35 11-5.24 2.47-.9 7.2-2.26 10.5-3.04 3.97-.92 9.89-1.27 17.5-1.03zm130.21 2c2.09.33 4.92 1.05 8.79 2.6l-1.5 5.75c-.82 3.16-1.83 6.04-2.25 6.4-.41.36-3.16.14-11.48-1.65l.63-5.16c.35-2.85.95-5.93 1.33-6.86.55-1.33 1.5-1.56 4.48-1.08zm-60.54 8.21c1.56.27 7.78 2.2 13.83 4.29 6.05 2.1 16.63 6.15 23.5 9 6.88 2.86 17.43 7.76 23.45 10.9 6.03 3.13 11.09 6.26 11.25 6.95.18.75-1.8 1.84-10.2 4.23l-13.5-8.07c-7.43-4.44-19.12-10.86-26-14.27-6.87-3.41-15.31-7.43-18.75-8.92-3.44-1.5-6.29-3.14-6.33-3.65-.04-.52 1.19-.72 2.75-.46z" style="fill:#fff"/></svg>