<svg xmlns="http://www.w3.org/2000/svg" viewBox="0 0 246 246" width="246" height="246"><style></style><path id="Path 0" fill-rule="evenodd" d="M245 1v244H1L.83 123.67c-.09-66.74.21-121.64.67-122C1.96 1.3 56.93 1 245 1zM53.47 16.25c-3.83 3.72-7.34 6.42-7.8 6-.46-.41-.69-.26-.5.35.18.6-2.37 4.86-5.67 9.47-3.3 4.6-7.92 12.21-10.26 16.9-2.34 4.69-4.26 9.09-4.25 9.78.01.69-.44 1.02-.99.75-.62-.31-.73.36-.29 1.75.58 1.83.44 2.07-.75 1.26-1.07-.73-1.26-.66-.71.25.41.68.08 3.83-.73 6.99-.82 3.16-1.49 6.99-1.5 8.5-.01 1.51-.36 2.75-.77 2.75-.41.01-.88 4.17-1.05 9.25-.16 5.09-.03 11.5.3 14.25l.59 5c7.29.14 11.18 1.04 13.33 2.09 2.16 1.05 5.09 3.45 6.5 5.33 2.16 2.86 2.65 4.75 2.99 11.5.3 5.97.1 7.88-.75 7.33-.75-.48-.98-.22-.66.75.27.82-.78 2.96-2.34 4.75-1.57 1.79-4.49 4.04-6.5 5S25.75 148 23 148c-3 0-6.6-.8-9-2-2.65-1.33-3.75-2.42-3.26-3.25.49-.83.32-1-.5-.5-.91.55-1.24 5.19-1.24 17.25 0 15.01.16 16.51 1.75 16.61.96.06 2.65.04 3.75-.05s5.15.32 9 .9c3.85.57 11.4 2.06 16.77 3.29 5.37 1.24 9.76 2.59 9.75 3-.01.41.43.53.98.25s3.45.29 6.44 1.25c3.14 1.01 5.15 2.17 4.76 2.75-.4.59-.18.7.56.25.69-.42 4.88.81 9.49 2.79 4.54 1.94 13.31 6.44 19.5 10 7.74 4.44 11.02 6.85 10.5 7.7-.5.82-.33.99.5.5.77-.45 4.25 1.54 9 5.15 4.26 3.24 11.69 9.99 16.5 15L137 238c14.83 0 15.07-.08 18-3.5 1.65-1.93 4-5.41 5.23-7.75 1.69-3.24 2.22-5.92 2.2-11.25-.02-5.3-.64-8.34-2.53-12.5-1.37-3.03-4.39-7.41-6.7-9.75-2.82-2.85-4.78-4.07-5.95-3.71-.96.3-4.56.97-8 1.5-3.9.6-8.41.61-12 .03-3.16-.51-7.78-1.66-10.25-2.56-2.47-.9-6.97-3.13-10-4.96-3.03-1.84-7.19-5.19-9.25-7.44-2.06-2.26-4.82-6.25-6.13-8.86-1.3-2.61-2.88-7.11-3.5-10-.61-2.89-1.12-8.62-1.12-12.75 0-4.12.22-8.18.5-9 .28-.82.95-1.5 1.5-1.5s4.71 3.75 9.25 8.34c5.85 5.91 10.14 9.26 14.75 11.51 3.58 1.74 8.75 3.63 11.5 4.2 2.75.57 7.47.9 10.48.74 4.87-.26 5.56-.57 6.21-2.79.41-1.37 2.01-8.57 3.58-16l2.84-13.5c-18.58-.91-20.8-1.36-22.56-3-1.19-1.1-2.61-3.8-3.15-6-.68-2.72-.67-5.04.05-7.25.58-1.8 2.18-3.81 3.58-4.5 1.39-.69 2.51-1.59 2.5-2-.02-.41-1.04-.76-2.28-.78-1.24-.02-3.83-.94-5.75-2.04-1.92-1.11-4.62-3.65-6-5.65-1.81-2.65-2.6-5.31-2.87-9.71-.29-4.64.1-7.01 1.64-10.07 1.11-2.2 2.85-4.76 3.87-5.69 1.02-.93 3.55-2.39 5.61-3.25 3.59-1.49 3.75-1.76 3.74-6.31-.01-2.61-.69-7.56-1.5-11-.82-3.44-1.16-6.81-.75-7.5.49-.83.32-1-.5-.5-.83.5-1.44-.16-1.83-2-.33-1.51-1.79-4.77-3.25-7.23-1.46-2.46-4.91-6.77-7.66-9.58-2.75-2.8-7.66-6.86-10.91-9.02l-5.9-3.92C67.71 8.72 60.22 8.72 60.3 9c.08.28-3 3.54-6.83 7.25zM9 52.5c0 42.18.06 43.58 2.03 46.25l2.04 2.75c-.06-10.08.37-16.6.92-21 .54-4.4 1.9-11.6 3.01-16 1.11-4.4 3.85-11.83 6.08-16.5 2.24-4.67 6.46-12.1 9.38-16.5 2.93-4.4 8.29-11.26 11.93-15.25L51 9H9m216.82 4.75c1.16 3.55 1.56 9.16 1.57 22.25.01 13.39-.36 18.67-1.6 22.5-.88 2.75-1.89 5.9-2.24 7-.51 1.63.25 2.46 4.15 4.5 3.16 1.66 5.52 3.84 7.02 6.5 1.6 2.84 2.25 5.66 2.26 9.75.01 3.16-.46 6.99-1.04 8.5-.59 1.51-2.28 4.02-3.75 5.58-1.48 1.56-4.26 3.48-6.19 4.28-1.93.79-5.64 1.43-8.25 1.41-2.64-.01-6.41-.86-8.5-1.92-2.06-1.05-4.73-2.96-5.93-4.25-1.2-1.29-2.67-3.59-3.25-5.1-.59-1.51-1.06-5.34-1.04-8.5.03-4.06.69-6.89 2.25-9.62 1.37-2.38 4.04-4.88 6.95-6.5l4.73-2.63c-7.6-12.4-12.23-18.92-15.19-22.5-2.96-3.58-8.84-9.31-13.08-12.75-4.23-3.44-7.35-6.59-6.94-7 .41-.41.3-.42-.25-.02-.55.4-3.7-.82-7-2.72l-6-3.44c-2.84 16.23-4.55 21.74-6.89 26.43-1.92 3.85-5.29 8.8-7.5 11l-4.01 4c12.03 13.95 21.19 24.75 28.11 33 6.93 8.25 13.09 16.24 13.69 17.75.61 1.51 1.1 4.1 1.1 5.75 0 1.96-1.01 4.04-2.92 6l-2.93 3-29.65-.05c-3.36 13.6-5.16 21.77-6.17 26.93-1.54 7.9-2.18 9.51-4.08 10.25-1.24.48-5.51.87-9.5.88-3.99 0-9.95-.71-13.25-1.57-3.3-.87-8.25-2.66-11-3.98-2.75-1.32-7.9-4.77-11.44-7.68l-6.45-5.28c.96 7.75 2.25 12.7 3.48 16 1.56 4.14 3.83 7.57 7.33 11.07 3.04 3.03 8.1 6.55 12.58 8.75 4.13 2.03 9.86 4.13 12.75 4.68 3.99.76 6.99.64 12.5-.5 3.99-.82 8.15-1.51 9.25-1.52 1.1-.01 3.8 1.5 6 3.35 2.2 1.86 5.32 5.81 6.93 8.78 1.6 2.96 3.51 7.64 4.23 10.39.73 2.75 1.33 7.03 1.34 9.5.01 2.47-.64 6.75-1.44 9.5-.8 2.75-2.6 6.69-4.01 8.75L160 238l77.5-.5.51-228.5h-13.74m-54.08 6.5c3.43 1.65 9.63 5.5 13.77 8.56 4.15 3.05 9.96 8 12.91 11 2.96 2.99 7.29 7.92 9.62 10.94 2.34 3.02 5.85 8.42 7.81 12l3.57 6.5c2.41-8.52 3.57-13.48 4.13-16.5.56-3.02 1.01-7.98 1-11 0-3.02-.46-8.2-1-11.5-.54-3.3-1.67-8.36-2.49-11.25L218 9c-52.04 0-54 .13-54.02 1.75-.02 1.17 2.05 2.75 6.21 4.75zm-63.69-4.21c.55-.28 3.12 1.67 5.71 4.35 2.59 2.67 4.39 5.31 4.01 5.86-.42.6-.2.7.54.25.82-.49 2.43 1.04 4.72 4.5 1.92 2.89 4.44 7.95 5.61 11.25s2.19 7.68 2.27 9.74c.08 2.06.48 3.75.89 3.75.41.01.67 1.7.58 3.76-.1 2.06.12 4.65.49 5.75.36 1.1 1.52 2 2.57 2 1.06 0 1.75-.23 1.55-.5-.2-.27 1.08-1.58 2.85-2.91 1.76-1.33 3.89-2.49 4.71-2.6.82-.1 1.51-.59 1.52-1.09 0-.49.34-1.46.75-2.15.4-.69 1.29-.92 1.98-.51.74.44.96.34.53-.25-.39-.54.28-2.45 1.5-4.23 1.22-1.78 2.59-2.91 3.04-2.5.45.41.46-.16.02-1.26-.58-1.46-.47-1.8.43-1.25.87.53 1.02.24.5-1-.58-1.39-.42-1.54.74-.75.98.67 1.24.67.79 0-.37-.55-.14-2.94.51-5.3.65-2.37 1.41-4.11 1.69-3.87.28.24.39-.64.25-1.95s.09-2.38.5-2.38c.41 0 .64-4.27.5-9.5L158 9c-48.32 0-52.65.23-52.58 1.4.04.78.53 1.18 1.08.89zm36.13 57.96c1.99 1.79 4.24 4.49 5 6 .75 1.51 1.36 5.56 1.35 9-.01 4.58-.61 7.32-2.25 10.25-1.55 2.77-3.76 4.78-7.23 6.53-3.96 2.01-4.95 3-4.75 4.75.2 1.77-.47 2.42-3.25 3.22-2.61.75-3.66 1.7-4.15 3.75-.39 1.68-.08 3.73.79 5.25l1.44 2.5c50.08.58 50.99.52 52.92-1.48 1.79-1.85 1.86-2.35.64-4.79-.75-1.5-10.2-13.25-21-26.1-10.8-12.86-19.93-23.52-20.27-23.71-.35-.19-1.14.09-1.75.62-.79.68-.04 1.92 2.51 4.21zM126.65 71c-.74 0-2.88 1.34-4.75 2.98s-3.77 2.65-4.22 2.25c-.45-.4-.46.17-.02 1.27.58 1.46.47 1.8-.43 1.25-.81-.5-1.06-.24-.73.75.28.83.13 2.06-.31 2.75-.45.69-.77 1.7-.71 2.25.05.55.98 2.76 2.06 4.91 1.08 2.15 3.09 4.73 4.46 5.73 1.38 1.01 2.95 2.2 3.5 2.66.55.46 3.03.52 5.5.13s4.95-.46 5.5-.16c.55.3.78.24.5-.15s.85-2.16 2.5-3.95c1.65-1.78 3.34-3.12 3.75-2.96.41.16.53-.38.25-1.21s-.16-1.51.25-1.52c.41-.01.39-2.15-.05-4.75-.45-2.6-1.68-5.97-2.75-7.48-1.07-1.51-2.85-2.97-3.95-3.25-1.1-.28-1.78-.95-1.5-1.5.29-.57-.36-.79-1.5-.5-1.1.28-2 .05-2-.5s-.9-1-2-1-2 .45-2 1-.61 1-1.35 1zM211 75.02c-1.37.77-2.84 1.31-3.25 1.19-.41-.11-.65.13-.53.54.13.41-.44 2.21-1.25 4S204.16 84 203.75 84c-.41 0-.33 1.69.18 3.75s.63 4.2.26 4.75c-.4.59-.16.69.57.25.68-.41 1.23-.41 1.22 0-.01.41 1 1.87 2.25 3.23 1.25 1.37 2.16 2.83 2.02 3.25-.14.42.54.44 1.5.04 1.24-.52 1.53-.37 1 .5-.52.86-.15 1.08 1.25.73 1.1-.28 2-.16 2 .25 0 .41.9.75 2 .75s2-.34 2-.75 1.01-.52 2.25-.24 1.91.17 1.5-.25c-.42-.42.48-1.46 2-2.32 1.51-.86 3.54-3.22 4.5-5.25S232 88.1 232 87c0-1.1-.68-3.58-1.5-5.5s-1.16-3.76-.75-4.08c.41-.32.3-.45-.25-.28-.55.17-2.35-.57-4-1.64-1.65-1.08-3.3-2.19-3.66-2.49-.36-.29-2.39-.27-4.5.04s-4.96 1.19-6.34 1.97zM10.9 113.75c1.31-.17 1.77-.86 1.49-2.25-.22-1.1-1.08-2.67-1.91-3.5-1.34-1.33-1.5-1.09-1.49 2.25.01 3.1.34 3.71 1.91 3.5zm2.57 5.69c-1.67 1.87-3.58 5.24-4.25 7.48-.77 2.57-.85 4.08-.22 4.08.55 0 1 .68 1 1.5s1.24 2.91 2.75 4.64c1.51 1.73 4.7 4.09 7.09 5.25 3.76 1.83 4.45 1.91 5.16.61.52-.95 1.41-1.22 2.41-.75 1.12.53 1.37.38.84-.48-.53-.87-.24-1.02 1-.5.96.4 1.65.39 1.52-.02-.12-.41 1.02-2.1 2.54-3.75 1.55-1.69 2.89-4.42 3.06-6.24.17-1.79.15-4.37-.03-5.75-.19-1.38-1.88-4.2-3.76-6.26-3.27-3.58-3.74-3.76-10.25-3.95-3.76-.1-6.6.02-6.33.27.27.26-.86 2-2.53 3.87zm-4.94 61.69L8.5 238.5 128 238c-3.49-4.95-6.85-8.44-9.72-10.94-2.86-2.51-4.89-5.01-4.5-5.55.4-.54.27-.68-.28-.29-.55.38-2.01.04-3.25-.76-1.37-.89-1.96-1.95-1.51-2.71.49-.83.32-1-.5-.5-.7.43-2.21-.07-3.49-1.14-1.24-1.05-6.17-4.31-10.96-7.25-4.8-2.95-8.4-5.73-8-6.18.39-.45-.19-.46-1.29-.02-1.63.65-1.82.52-1.01-.68.73-1.09.66-1.28-.25-.73-.69.42-3.68-.46-6.78-2-3.08-1.53-5.19-3.15-4.75-3.66.45-.51.25-.62-.46-.25-.69.36-2.39.1-3.78-.59-1.39-.69-2.51-1.59-2.5-2 .02-.41-.53-.68-1.22-.59-.69.08-2.04.08-3 0-.96-.09-1.52-.61-1.25-1.16.27-.55-.17-.78-1-.5s-1.5.05-1.5-.5-.67-.78-1.5-.5-1.5.05-1.5-.5-.45-.78-1-.5-3.03-.06-5.51-.75-4.51-1.59-4.5-2c.01-.41-.89-.53-1.99-.25s-2 .16-2-.25c-.01-.41-2.15-.87-4.75-1.03-2.61-.15-4.86-.71-5-1.25-.14-.53-1.04-.69-2-.35-.96.35-2.65.29-3.75-.13s-3.57-.68-5.5-.57c-1.93.1-3.72-.18-4-.63-.28-.45-1.62-.67-2.99-.49l-2.48.33zM81.5 29.38c8.14.25 12.43.89 16.5 2.44 3.03 1.16 6.51 3.03 7.75 4.14 1.24 1.12 2.14 2.82 2 3.77-.14.96-1.04 1.86-2 2-.96.15-3.44-.84-5.5-2.19S93.58 36.33 90 35.42c-4.61-1.18-8.39-1.47-13-1.02-3.58.36-8.41.86-10.75 1.12-3.95.45-4.22.32-3.83-1.73.29-1.51 1.63-2.61 4.25-3.48 2.48-.83 7.71-1.16 14.83-.93zm-3 23.95c7.27.25 9.96.79 14 2.85 2.75 1.4 6.31 4.07 7.9 5.93 1.6 1.87 3.51 4.85 4.25 6.64.74 1.79 1.35 5.95 1.35 9.25s-.7 7.69-1.55 9.75c-.86 2.06-2.77 5.03-4.25 6.59-1.49 1.56-4.5 3.89-6.7 5.18-2.2 1.28-6.7 2.81-10 3.4-4.12.73-7.88.75-12 .06-3.3-.55-8.25-2.28-11-3.83-3.19-1.8-6.19-4.6-8.27-7.73-1.9-2.85-3.53-6.82-3.89-9.42-.33-2.47-.1-6.64.53-9.25.62-2.61 2.08-6.21 3.24-8 1.16-1.79 3.75-4.46 5.75-5.93 2-1.48 5.44-3.38 7.64-4.24 2.83-1.1 6.62-1.46 13-1.25zm-19 11.66-2 2.11c6.2-3.19 9.8-4.12 12-4.12 2.2 0 6.02 1.02 8.5 2.26 2.94 1.48 5.29 3.64 6.79 6.26 1.83 3.2 2.23 5.19 1.98 10-.23 4.46-.95 6.88-2.79 9.44-1.36 1.89-4.28 4.2-6.48 5.12-2.4 1.02-3.5 1.94-2.75 2.31.69.35 3.16.35 5.5.01 2.34-.34 6.05-1.52 8.25-2.61 2.2-1.1 5.06-2.96 6.35-4.13 1.29-1.18 3.2-3.83 4.25-5.89 1.04-2.06 1.92-5.66 1.94-8 .03-3.17-.8-5.51-3.25-9.21-2.27-3.42-4.84-5.75-8.27-7.5-3.46-1.77-6.97-2.64-11.5-2.86-5.37-.26-7.4.13-11.52 2.19-2.75 1.38-5.9 3.46-7 4.62z" style="fill:#fefefe"/></svg>