<svg xmlns="http://www.w3.org/2000/svg" viewBox="0 0 368 353" width="368" height="353"><style></style><path id="Path 0" fill-rule="evenodd" d="M172 .08c2.49-.03 6.39.83 8.75 1.93 2.87 1.35 5.05 3.37 6.73 6.24 1.81 3.11 2.48 5.73 2.49 9.75.02 3.86-.61 6.54-2.1 9-1.17 1.92-2.56 3.72-3.09 4-.57.3-.7 3.15.32 13.5l17.2.78c9.46.42 20.64 1.32 24.84 2 4.2.67 8.02 1.58 8.5 2.02.48.44.27 3.99-.47 8-.72 3.96-1.51 7.99-1.75 8.95-.27 1.13-1.39 1.76-3.17 1.77-1.51.01-4.1-.42-5.75-.95-1.65-.53-8.51-1.44-15.25-2.02-8.35-.71-15.99-.73-24-.05-6.46.55-14.45 1.5-17.75 2.11-3.3.61-9.15 2-13 3.08-3.85 1.09-8.8 2.57-11 3.29-2.2.73-5.8 2.1-8 3.04-2.2.95-4.79 2.12-5.75 2.6s-2.54.89-3.5.9c-1.18.01-2.79-2.17-4.97-6.75-1.77-3.72-3.24-7.78-3.25-9.02-.02-1.7 1.01-2.71 4.22-4.11 2.34-1.03 8.07-3.23 12.75-4.89 4.68-1.66 10.53-3.5 13-4.09 2.47-.58 7.43-1.77 11-2.64 3.57-.86 6.55-1.67 6.61-1.8.06-.12-.17-2.83-.5-6.03-.51-4.91-1.1-6.23-3.77-8.5-1.73-1.48-3.87-4.15-4.75-5.94-.87-1.79-1.59-5.5-1.59-8.25s.45-6.12 1-7.5c.55-1.37 2.24-3.81 3.75-5.42 1.51-1.61 3.88-3.38 5.25-3.94 1.38-.56 4.53-1.04 7-1.06zM294.1 74c1.04 0 3.14.77 4.65 1.71 1.51.94 5.45 3.75 8.75 6.24s7.35 5.76 9 7.27c1.65 1.51 4.8 4.32 11 9.77l4-3.05c2.2-1.67 4.57-3.81 5.27-4.74.69-.94 1.26-2.6 1.25-3.7-.01-1.1.99-3.15 2.23-4.56 1.24-1.4 3.38-3.32 4.75-4.25 1.45-.99 4.39-1.7 7-1.69 2.57.01 5.65.76 7.17 1.76 1.48.96 3.61 2.75 4.75 3.99 1.23 1.33 2.3 4.2 2.63 7 .3 2.61.14 6.1-.34 7.75-.49 1.65-2.43 4.24-4.3 5.75-2.18 1.76-5.39 3.08-8.91 3.65-3.02.5-5.61 1.4-5.75 2-.14.61-.7 1.1-1.25 1.1s-1.85 1.01-2.88 2.25c-1.76 2.1-1.78 2.42-.28 4.75.89 1.38 1.88 2.72 2.2 3 .33.28 2.02 2.64 3.78 5.25 1.75 2.61 3.18 5.2 3.18 5.75 0 .55.34.98.75.96.41-.02 1.96 2.57 3.45 5.75 1.48 3.19 3.38 6.69 4.22 7.79.83 1.1 1.53 3.01 1.55 4.25.02 1.81-1.25 2.84-6.47 5.25-3.57 1.65-7.51 3-8.75 3-1.77.01-3-1.44-5.75-6.75-1.93-3.71-3.85-7.2-4.27-7.75-.42-.55-2.67-3.89-5-7.43-2.33-3.53-4.68-7.09-5.23-7.9-.55-.81-3.14-3.77-5.76-6.57-2.62-2.81-4.76-5.66-4.75-6.35.01-.69-.67-1.25-1.49-1.25s-1.73-.9-2-2-1.06-2.01-1.75-2.01c-.69-.01-3.5-2.17-6.25-4.8s-6.57-5.88-8.5-7.21a299.01 299.01 0 0 1-4.5-3.16c-.55-.4-2.48-1.99-4.29-3.53-3.07-2.61-3.2-2.97-2-5.53.71-1.51 1.63-2.75 2.04-2.75.41-.01.75-.69.75-1.51 0-.82.34-1.48.75-1.46.41.02 1.36-1.33 2.1-3 .82-1.85 2.09-3.04 3.25-3.04zM201 81.59c6.88.17 15.65.78 19.5 1.36 3.85.57 8.8 1.52 11 2.11 2.2.6 6.93 1.97 10.5 3.06 3.57 1.09 7.4 2.35 8.5 2.8 1.1.44 7.51 3.57 14.25 6.95 6.74 3.37 12.81 6.59 13.5 7.15.69.56 4.4 3.34 8.25 6.17 3.85 2.84 10.38 8.57 14.5 12.74 4.13 4.16 8.85 9.37 10.49 11.57 1.65 2.2 3.23 4.22 3.51 4.5.28.28 1.73 2.3 3.23 4.5s3.62 5.57 4.71 7.5c1.09 1.93 3.19 5.97 4.67 9 1.49 3.03 3.47 7.3 4.42 9.5.95 2.2 2.65 7.15 3.77 11 1.13 3.85 2.52 8.8 3.1 11 .57 2.2 1.58 8.5 2.24 14 .65 5.5.89 11.24.52 12.75-.36 1.51-1.34 2.75-2.16 2.75-.82 0-1.5.34-1.51.75 0 .41-1.69 1.88-3.75 3.25-2.06 1.38-4.64 3.3-5.74 4.27-1.1.97-2.56 1.76-3.25 1.75-.69-.01-1.23.32-1.21.73.02.41-1.35 1.43-3.04 2.25-1.69.82-3.06 1.84-3.04 2.25.02.41-.52.75-1.21.76-.69.01-6.2 2.45-12.25 5.43-6.05 2.99-17.07 7.44-24.5 9.91-7.43 2.47-16.2 5.24-19.5 6.16-3.3.92-8.02 2.06-10.5 2.54-2.48.47-9.23 1.78-15 2.91-5.77 1.14-14.1 2.51-18.5 3.06-4.4.55-15.43 1.65-24.5 2.46-9.07.8-25.5 1.46-36.5 1.45-11 0-26.75-.67-35-1.48-8.25-.82-17.7-1.9-21-2.41-3.3-.52-9.82-1.83-14.5-2.91-4.68-1.09-10.07-2.4-12-2.9-1.93-.5-4.96-1.66-6.75-2.57-1.79-.91-3.93-1.66-4.75-1.66-.83 0-1.5-.34-1.5-.75.01-.41-.97-1.2-2.16-1.75-1.2-.55-2.51-1.68-2.93-2.5-.41-.82-1.28-4.65-1.94-8.5-.78-4.54-1.03-13.49-.71-25.5.33-12.62 1.02-20.57 2.16-25 .92-3.57 2.61-9.65 3.74-13.5 1.14-3.85 2.47-7.45 2.97-8 .5-.55.9-1.79.89-2.75-.01-.96.43-1.75.98-1.75s1.02-.79 1.04-1.75c.02-.96 1.48-4.45 3.25-7.75s5.02-8.83 7.21-12.29c2.2-3.46 4.34-6.27 4.75-6.25.41.02.97-.86 1.25-1.96s5.11-6.65 10.75-12.34c5.64-5.69 12.05-11.65 14.25-13.25 2.2-1.6 4.59-3.47 5.32-4.16.73-.69 1.71-1.25 2.18-1.25.47 0 1.45-.59 2.18-1.31.73-.71 3.35-2.4 5.82-3.75 2.47-1.34 4.72-2.66 5-2.94.28-.28 3.43-1.92 7-3.65s11-4.58 16.5-6.33 11.35-3.59 13-4.08c1.65-.5 6.6-1.36 11-1.91 4.4-.56 9.57-1.18 11.5-1.38 1.93-.21 9.13-.23 16-.06zm-76.5 73.62c-1.65.86-5.25 3.75-8 6.43-2.75 2.67-5.79 5.87-6.75 7.11-.96 1.24-2.57 4.16-3.57 6.5s-2.4 6.72-3.12 9.75c-.76 3.18-1.06 7.61-.7 10.5.33 2.75.91 6.57 1.28 8.5.38 1.93 2.14 5.98 3.93 9 1.78 3.02 5.04 7.3 7.23 9.5 2.19 2.2 4.93 4.79 6.09 5.75 1.16.96 4.02 2.59 6.36 3.62 2.34 1.03 6.05 2.38 8.25 2.99 2.2.61 6.47 1.11 9.5 1.11 3.03 0 7.75-.58 10.5-1.31 2.75-.72 7.25-2.52 10-4 2.75-1.49 7.04-4.6 9.53-6.93 2.49-2.33 6.02-7.16 7.85-10.73 1.83-3.57 3.73-7.29 4.22-8.25.5-.96.96-5.46 1.03-10 .09-6.24-.45-10.02-2.25-15.53-1.31-4-2.72-7.27-3.13-7.25-.41.02-.97-.76-1.23-1.72s-2.63-4.05-5.25-6.85c-2.73-2.93-7.44-6.45-11.02-8.25-3.44-1.73-6.93-3.15-7.75-3.15-.82 0-1.5-.45-1.5-1 0-.6-3.85-.96-9.75-.9-6.65.06-11.18.64-14.25 1.82-2.47.96-5.85 2.44-7.5 3.29zm120.03-.6c-2.18 1.04-5.83 3.69-8.1 5.89-2.28 2.2-5.06 5.8-6.19 8-1.12 2.2-2.65 6.8-3.39 10.21-1.12 5.16-1.13 6.86-.03 10 .72 2.09 2.3 5.75 3.5 8.15 1.2 2.4 3.53 5.83 5.18 7.63 1.65 1.79 5.7 4.65 9 6.36 5.06 2.61 7.13 3.1 13.25 3.12 5.55.02 8.48-.53 12.5-2.36 2.89-1.31 7.11-4.12 9.39-6.25 2.28-2.12 5.31-6.34 6.74-9.36 2.08-4.4 2.6-7 2.6-13 0-5.74-.54-8.67-2.32-12.5-1.27-2.75-4.31-7.03-6.76-9.5-2.44-2.47-6.45-5.48-8.92-6.67-2.46-1.2-6.5-2.35-8.98-2.56-2.48-.21-6.52-.08-9 .28-2.48.37-6.28 1.52-8.47 2.56zm-178.16-54.6c.62 0 3.95 2.82 7.39 6.25 3.44 3.43 6.24 6.69 6.22 7.24-.02.55-2.12 3.25-4.66 6s-6.67 7.93-9.18 11.5c-2.52 3.57-4.85 6.72-5.18 7-.34.28-1.7 2.53-3.03 5-1.34 2.47-2.68 4.72-2.98 5-.3.28-1.71 2.97-3.14 6-1.43 3.03-3.3 7.07-4.15 9-.86 1.93-2.88 7.55-4.49 12.5-1.62 4.95-3.55 11.59-4.3 14.75-1.3 5.45-1.53 5.76-4.37 5.71-1.65-.03-5.7-.62-15-2.59l.21-4.43c.12-2.44 1.19-8.26 2.39-12.94 1.19-4.68 2.48-8.95 2.86-9.5.37-.55 1.29-3.03 2.03-5.5.75-2.47 1.74-4.95 2.2-5.5.46-.55.84-1.79.83-2.75-.01-1.06-1.71-2.58-4.27-3.84-3.11-1.53-5.19-1.91-7.75-1.42-1.92.37-5.08.26-7-.24s-4.55-1.77-5.83-2.83c-1.28-1.06-2.97-3.16-3.75-4.67-.78-1.51-1.43-4.44-1.44-6.5-.02-2.06.66-5.44 1.5-7.5.87-2.14 2.91-4.59 4.77-5.72 1.94-1.17 5.07-1.98 7.75-1.99 2.47-.01 5.95.54 7.73 1.22 1.96.75 4.33 2.95 6 5.57s4.56 5.3 7.27 6.76c2.47 1.34 4.54 2.31 4.58 2.17.05-.14 2.93-4.54 6.41-9.76s9.23-12.76 12.78-16.75c3.55-3.99 6.97-7.25 7.6-7.24zM334.2 246c1.2 0 1.8.75 1.8 2.25 0 1.24-1.06 5.18-2.36 8.75-1.3 3.57-3.92 9.65-5.84 13.5-1.91 3.85-4.56 8.92-5.89 11.27-1.32 2.35-2.75 4.26-3.16 4.25-.41-.01-.75.54-.75 1.23s-1.14 2.6-2.53 4.25-2.52 3.34-2.5 3.75c.02.41-6.04 6.82-13.47 14.25-7.43 7.43-13.84 13.49-14.25 13.47-.41-.02-2.1 1.11-3.75 2.5s-3.56 2.53-4.25 2.53-1.23.34-1.21.75c.02.41-1.35 1.43-3.04 2.25-1.69.82-3.06 1.84-3.04 2.25.02.41-.86.75-1.96.75s-2 .45-2 1-.68 1-1.5 1-2.74.82-4.25 1.83c-1.51 1.01-5.23 2.79-8.25 3.96-3.02 1.17-8.65 3.07-12.5 4.21-3.85 1.15-8.57 2.51-10.5 3.01-1.93.51-6.65 1.42-10.5 2.04-4.22.67-14.55.93-26 .65-10.45-.25-21.93-.94-25.5-1.52-3.57-.59-8.07-1.49-10-2-1.93-.52-7.1-2.16-11.5-3.65-4.4-1.49-8.45-3.12-9-3.63-.55-.52-1.79-.93-2.75-.92-.96.01-1.75-.43-1.75-.98s-.9-1-2-1-2-.45-2-1-.9-1-2-1-2-.45-2-1-.45-1-1-1-3.59-1.52-6.75-3.37-6.44-3.99-7.28-4.75c-.84-.76-3.09-2.48-5-3.82-1.91-1.34-4.82-3.72-6.47-5.27-1.65-1.56-4.82-4.51-7.05-6.56-2.22-2.05-6.32-6.43-9.1-9.73-2.79-3.3-6.93-8.81-9.21-12.25C69.86 284.81 68 281.1 68 280c0-1.67.46-1.9 2.75-1.37 1.51.35 4.55 1.03 6.75 1.52 2.2.48 8.72 1.82 14.5 2.96 5.78 1.14 14.1 2.48 18.5 2.97 4.4.49 16.1 1.33 26 1.88 9.9.54 24.07.77 31.5.5s19.35-.96 26.5-1.53c7.15-.57 17.73-1.73 23.5-2.58 5.77-.84 16.13-2.62 23-3.94 6.88-1.33 14.3-2.91 16.5-3.53 2.2-.61 5.13-1.46 6.5-1.88 1.38-.41 5.88-1.77 10-3 4.13-1.23 8.4-2.61 9.5-3.07 1.1-.46 4.02-1.48 6.5-2.28 2.48-.8 6.3-2.24 8.5-3.21 2.2-.97 6.93-3.06 10.5-4.64 3.57-1.58 7.4-3.39 8.5-4.02 1.1-.62 4.48-2.43 7.5-4.02 3.02-1.59 5.93-3.31 6.45-3.83.52-.51 1.76-.93 2.75-.93z" style="fill:#fffeff"/></svg>