<svg xmlns="http://www.w3.org/2000/svg" viewBox="0 0 375 247" width="375" height="247"><style></style><path id="Path 0" d="M221.5 1.87c-2.2 1-5.6 3.58-7.56 5.72-2.41 2.64-4 5.7-4.89 9.41-.74 3.11-1.04 7.35-.68 9.75.35 2.34 1.36 5.71 2.25 7.5.89 1.79 2.57 4.31 3.75 5.6 1.17 1.29 3.7 3.15 5.63 4.13 1.93.98 5.52 2.1 8 2.49 2.54.39 6.46.22 9-.4 2.48-.61 6.25-2.56 8.39-4.34 2.15-1.78 4.78-5.03 5.86-7.23s2.2-6.03 2.48-8.5c.31-2.67-.12-6.74-1.06-10-1.08-3.78-2.77-6.66-5.37-9.2-2.09-2.04-5.49-4.4-7.55-5.25-2.06-.85-6.11-1.54-9-1.53-2.9.01-7.04.84-9.25 1.85zm109.75-.75c-2.89.48-8.06 1.91-11.5 3.16-3.44 1.26-8.91 4.07-12.17 6.25-3.26 2.18-8.88 7.15-12.5 11.04-3.93 4.22-8.09 10.06-10.32 14.5-2.06 4.08-4.51 10.13-5.45 13.43-1.49 5.22-1.76 12.72-2.09 58-.29 39.09-.07 53.37.87 57.5.97 4.31 2.23 6.5 5.83 10.15 2.89 2.93 6.06 5.05 8.58 5.74 2.2.61 5.57 1.1 7.5 1.1 1.93 0 5.19-.45 7.25-1 2.06-.54 5.38-2.45 7.38-4.24 1.99-1.79 4.57-5.05 5.73-7.25 1.79-3.43 2.13-6.05 2.37-18.25L323 137c30.09 0 34.86-.36 37.75-1.55 2.06-.86 5.03-2.77 6.59-4.25 1.56-1.49 3.75-4.5 4.87-6.7 1.66-3.28 1.95-5.43 1.64-12-.33-6.67-.84-8.66-3.11-12-1.49-2.2-4.37-5.12-6.4-6.5-3.53-2.4-4.47-2.52-22.76-3l-19.08-.5c-.43-15.5-.02-22.47.64-25.5.71-3.22 2.48-7.13 4.28-9.42 1.7-2.16 5.1-4.98 7.58-6.28 3.64-1.89 6.03-2.34 12.5-2.33 4.4.01 9.57-.42 11.5-.96 1.93-.53 5.27-2.44 7.43-4.24 2.16-1.8 4.74-5.07 5.73-7.27 1.17-2.62 1.8-6.42 1.8-11 .01-5.27-.54-8.1-2.22-11.43-1.23-2.44-3.81-5.69-5.74-7.22-1.93-1.54-5.41-3.26-7.75-3.82-2.34-.57-8.19-.98-13-.91-4.81.06-11.11.51-14 1zM.86 38.63C-.29 40-.29 41.68.88 49.38c.76 5.01 2.4 12.94 3.65 17.62C5.78 71.68 8.2 79.21 9.9 83.75c2.25 5.99 3.58 8.25 4.85 8.26 1.2.02 2.37-1.63 3.72-5.25 1.08-2.89 4.05-8.41 6.59-12.26 2.55-3.85 7.3-9.47 10.56-12.5 3.26-3.03 7.68-6.85 9.83-8.5 2.45-1.89 3.7-3.56 3.37-4.5-.3-.85-4.37-2.67-9.43-4.22-4.89-1.49-14.18-3.85-20.64-5.25C12.29 38.14 5.93 37 4.61 37c-1.31 0-3 .73-3.75 1.63zm171.64.8c-5.5 1.24-13.6 3.29-18 4.54-4.4 1.26-9.03 2.79-10.28 3.41-1.25.62-2.26 1.68-2.25 2.37.02.69 2.17 2.77 4.78 4.64 2.61 1.86 8.01 6.81 12 11 5.39 5.65 8.47 10.06 12 17.14 2.61 5.23 5.09 9.51 5.5 9.5.41-.02 1.64-1.49 2.72-3.28 1.09-1.79 3.31-7.3 4.94-12.25 1.63-4.95 3.89-13.61 5.03-19.25 1.13-5.64 2.07-11.94 2.08-14 .01-2.06-.56-4.32-1.25-5.02-.7-.69-2.62-1.22-4.27-1.16-1.65.06-7.5 1.12-13 2.36zm-87 3.56c-3.85.41-9.7 1.52-13 2.47-3.3.94-8.92 3.26-12.5 5.14-3.58 1.87-9.2 5.74-12.5 8.58-3.3 2.84-8.16 7.68-10.8 10.74-2.64 3.07-6.76 9.63-9.17 14.58-2.41 4.95-5.15 12.6-6.09 17-1.32 6.13-1.61 11.04-1.24 21 .41 11.02.93 14.3 3.43 21.5 1.62 4.68 4.7 11.65 6.86 15.5 2.15 3.85 5.85 8.91 8.21 11.25 2.37 2.34 5.76 5.03 7.55 5.98 2.34 1.25 5.64 1.74 11.82 1.75 7.82.02 9.01-.25 13.5-3.02 3.37-2.07 5.96-4.76 8.17-8.5 1.91-3.22 3.49-7.51 3.85-10.46.33-2.75.11-6.8-.49-9-.61-2.2-3.42-8.05-6.25-13-3.71-6.48-5.28-10.4-5.63-14-.35-3.63.05-6.23 1.49-9.5 1.08-2.47 3.09-5.85 4.46-7.5 1.37-1.65 4.93-4.24 7.91-5.76 3.6-1.84 6.93-2.75 9.92-2.73 2.47.02 6.3.86 8.5 1.86 2.2 1.01 5.83 3.81 8.07 6.23 2.24 2.42 4.72 6.2 5.5 8.4 1.12 3.13 1.43 10.53 1.43 34 0 25.21-.25 30.56-1.58 33.5-.87 1.93-3.12 5.25-5 7.38s-5.22 4.82-7.42 5.97c-3.52 1.84-6.29 2.16-23 2.63-16.32.46-19.55.81-22.92 2.53-2.16 1.09-5.43 3.79-7.27 5.99-1.84 2.2-4.02 6.02-4.84 8.5-.82 2.48-1.49 6.52-1.49 9 0 2.48.68 6.52 1.51 9 .83 2.48 2.78 6.07 4.33 8 1.55 1.93 5.26 4.74 8.25 6.26 5.39 2.74 5.58 2.76 25.18 2.75 14.15-.01 21.95-.46 27.5-1.61 4.26-.88 10.45-2.81 13.75-4.3 3.3-1.49 8.25-4.24 11-6.12s6.97-5.23 9.38-7.45c2.41-2.21 6.45-6.73 8.97-10.03 2.51-3.3 6.23-9.6 8.24-14 2.02-4.4 4.29-10.48 5.04-13.5 1.04-4.19 1.37-14.94 1.37-45 0-30.06-.33-40.81-1.37-45-.75-3.03-3.02-9.1-5.04-13.5-2.01-4.4-5.72-10.7-8.22-14-2.51-3.3-7.44-8.61-10.96-11.79-3.9-3.52-9.94-7.54-15.41-10.25-4.95-2.45-11.7-5.09-15-5.87-3.3-.78-9.37-1.63-13.5-1.88-4.12-.25-10.65-.12-14.5.28zm136 20.38c-1.65.7-4.72 3.05-6.81 5.21-2.38 2.44-4.36 5.8-5.27 8.92-1.2 4.1-1.41 12.48-1.19 46.5.26 40.1.34 41.64 2.39 45.5 1.17 2.2 3.76 5.46 5.75 7.25 2 1.79 5.32 3.7 7.38 4.24 2.06.55 5.32 1 7.25 1 1.93 0 5.3-.49 7.5-1.1 2.52-.69 5.69-2.81 8.58-5.74 3.6-3.65 4.85-5.83 5.83-10.15.91-4.04 1.16-16.38.92-46.5-.29-35.98-.53-41.37-1.99-44-.92-1.65-3.17-4.44-5-6.2-1.84-1.76-5.03-3.9-7.09-4.75-2.06-.85-6.34-1.53-9.5-1.51-3.16.02-7.1.62-8.75 1.33z" style="fill:#fffffe"/></svg>