<svg xmlns="http://www.w3.org/2000/svg" viewBox="0 0 512 512" width="512" height="512"><style></style><path id="Path 0" fill-rule="evenodd" d="M190.43 0h140.79c91.52 0 141.65.35 143.28 1 1.38.55 4.13 2.46 6.13 4.25 1.99 1.79 4.47 4.94 5.5 7 1.8 3.62 1.86 8.72 1.37 287.58l-3 4.27c-1.82 2.59-4.96 5.29-12.94 9.4l-130.06 1-18 9.9c-9.9 5.45-27.68 14.74-39.5 20.65-11.82 5.91-22.4 11.01-23.5 11.33-1.68.48-2.69 3.5-6.34 18.85-2.38 10.05-6.6 26.15-9.38 35.77-2.77 9.63-7.04 23.13-9.48 30-2.45 6.88-6.03 16.32-7.96 21-1.93 4.68-6.39 14.13-9.91 21-3.53 6.88-9.34 16.21-12.92 20.75-3.58 4.54-7.12 8.14-7.86 8-.75-.14-3.72-2.95-6.61-6.25s-6.96-8.48-9.04-11.5c-2.08-3.02-5.57-9.1-7.75-13.5-2.18-4.4-5.12-11.15-6.54-15-1.42-3.85-3.48-10.37-4.58-14.5-1.1-4.12-2.68-11.32-3.51-16-.83-4.68-1.98-13.45-2.57-19.5-.58-6.05-1.06-14.04-1.05-24.5l-15.25.07c-9.53.04-19-.54-25.25-1.54-5.5-.89-12.7-2.3-16-3.14-3.3-.84-8.92-2.56-12.5-3.83s-8.97-3.55-12-5.07c-3.03-1.52-7.97-4.46-11-6.52-3.02-2.07-8.37-6.39-11.88-9.61-3.52-3.22-8.77-9.46-11.69-13.86-2.91-4.4-6.65-11.15-8.3-15-1.65-3.85-3.93-10.82-5.06-15.5-1.58-6.52-2.06-11.81-2.06-22.75-.01-7.84.22-14.25.49-14.25s6.91 2.99 14.75 6.64c7.84 3.65 18.3 8.33 23.25 10.39 4.95 2.07 13.5 5.33 19 7.23 5.5 1.91 14.95 4.64 21 6.07 6.05 1.42 15.72 3.07 21.5 3.65 7.21.73 13.32.75 19.5.06 4.95-.56 11.7-1.71 15-2.57 3.3-.86 9.02-3 19.41-7.97l-1.7-3c-1.58-2.78-1.73-13.03-2.01-139.5-.16-75.08-.06-138.75.24-141.5.37-3.44 1.58-6.52 3.9-9.87 1.95-2.84 5.19-5.87 7.73-7.25M399.5 9.94c-2.75 1.2-7.25 3.6-10 5.32-2.75 1.72-8.6 6.1-13 9.75-4.4 3.64-11.76 11.09-16.35 16.56-4.6 5.46-11.38 14.2-15.07 19.43-3.7 5.22-9.89 14.67-13.77 21-3.87 6.33-9.49 16-12.49 21.5-2.99 5.5-10.43 20.13-16.52 32.5-6.09 12.38-13.11 27.68-15.6 34s-7.54 19.15-11.22 28.5c-3.68 9.35-9.26 22.63-12.41 29.5-3.15 6.88-8.32 17.22-11.49 23-3.17 5.77-9.52 16.13-14.11 23-4.59 6.88-11.29 15.88-14.89 20-3.6 4.13-10.26 10.74-14.81 14.7-4.55 3.95-11.64 9.24-15.77 11.75-4.12 2.5-10.43 5.74-14 7.19-3.57 1.45-9.43 3.44-13 4.43-3.57.99-10.55 2.33-15.5 3-5.57.74-13.76.96-21.5.58-7.04-.35-17.52-1.69-24-3.07-6.33-1.34-15.44-3.6-20.25-5.01-4.81-1.41-14.94-5.04-22.5-8.05-7.56-3.01-13.83-5.37-13.93-5.25-.1.13.98 3.16 2.4 6.73 1.41 3.57 4.48 9.43 6.8 13 2.33 3.57 6.65 8.82 9.61 11.65 2.95 2.83 7.84 6.72 10.87 8.63 3.03 1.91 8.2 4.6 11.5 5.97 3.3 1.37 8.25 3.2 11 4.06 2.75.86 8.83 2.38 13.5 3.37 6.83 1.44 13.22 1.8 32.5 1.8 13.2.01 25.91-.33 28.25-.74L178 368c-1.06 8.91-1.35 18.7-1.32 27.5.03 9.26.74 20.63 1.67 27 .89 6.05 2.5 14.6 3.56 19 1.07 4.4 2.68 10.25 3.58 13 .91 2.75 3.53 8.95 5.83 13.78 2.3 4.83 4.4 8.78 4.68 8.78.28 0 3.03-5.3 6.13-11.78 3.1-6.48 7.67-17.18 10.16-23.78 2.5-6.6 6.57-18.52 9.05-26.5 2.47-7.98 6.52-22.6 8.98-32.5 2.47-9.9 5.47-22.5 6.66-28 1.2-5.5 2.36-10.79 2.6-11.75.23-.98 2.08-2.25 4.17-2.89 2.06-.63 9.6-3.72 16.75-6.87 7.15-3.16 18.63-8.55 25.5-12 6.88-3.44 17.45-9.07 23.5-12.51 6.05-3.44 14.82-8.62 19.5-11.52 4.68-2.89 11.43-7.29 15-9.78 3.57-2.5 10.55-7.48 15.5-11.07 4.95-3.6 14.4-11.09 21-16.66 6.6-5.56 17.5-15.92 24.23-23.03 6.72-7.11 15.27-16.98 19-21.95 3.72-4.96 9.33-13.28 12.45-18.5 3.12-5.21 7.02-12.4 8.67-15.97 1.65-3.57 4.47-10.1 6.27-14.5 1.81-4.4 5.86-11.82 9-16.5 3.14-4.68 8.9-11.99 12.8-16.25L480 125c-.03-69.28-.38-81.17-1.39-86-.75-3.58-2.16-8.07-3.15-10-.99-1.93-4.08-5.78-6.88-8.56-2.79-2.79-7.67-6.27-10.83-7.75-3.16-1.48-8.79-3.32-12.5-4.09-3.71-.76-10.57-1.61-15.25-1.88-4.68-.27-12.32-.15-17 .27-5.03.45-10.54 1.66-13.5 2.95zM285.62 41.12c-2.68.76-5.11 2.05-5.39 2.88-.28.83.23 7.58 1.15 15 1.44 11.76 1.49 14.66.33 22.5-1.25 8.44-1.16 10.36 1.51 31 1.56 12.1 2.94 22.1 3.06 22.23.12.12 1.76-3.26 3.63-7.5 1.88-4.25 7.59-16.06 12.7-26.23 5.11-10.17 12.09-23.22 15.52-29 3.43-5.78 8.95-14.33 12.27-19 3.32-4.67 7.72-10.3 9.78-12.5 2.06-2.2 3.76-4.34 3.78-4.75.02-.41-2.1-.69-4.71-.62-2.61.07-14.65 1.14-26.75 2.37-12.1 1.23-24.2 2.86-26.88 3.62zM428.74 29c.59 0 1.75 5.98 2.66 13.75.9 7.56 2.75 19.15 4.12 25.75 1.38 6.6 3.66 15.83 5.08 20.5s4.23 11.61 6.24 15.4c2.01 3.8 4.9 7.96 6.41 9.25 1.51 1.29 3.99 2.35 5.5 2.36 1.51 0 3.76-.67 5-1.5 1.24-.83 2.48-1.29 2.75-1.01s-1.33 3.76-3.57 7.75c-2.24 3.99-5.51 8.73-7.25 10.55-1.75 1.81-4.08 3.54-5.18 3.85-1.1.3-3.01.06-4.25-.55-1.24-.6-3.37-2.9-4.75-5.1-1.37-2.2-3.39-7.26-4.47-11.25-1.09-3.99-2.66-11.53-3.5-16.75-.84-5.22-2.18-16.47-2.98-25-.8-8.53-1.76-22.81-2.15-31.75-.47-10.98-.36-16.25.34-16.25z" style="fill:#fff"/></svg>