<svg xmlns="http://www.w3.org/2000/svg" viewBox="0 0 600 700" width="600" height="700"><style>.shp0{opacity:.737}.shp0,.shp1{fill:#fff}</style><g id="Background"><path id="Path 0" class="shp0" d="M99.58.58c-.54.45-.85 35.95-.75 87.59L99 175H50l.48 96.5L51 176h49v99c-43.44 0-49-.28-48.98-1.25.01-1-.23-1-1.2 0-.91.93-7.4 1.25-25.52 1.25H0v151.5l100-1.5v99H51l-.52-96.5L50 525h49c0 144 .34 174.17 1 174.5.66.33 1-29 1-87V525c77.5.39 100 .16 100-.25 0-.41-.68-.98-1.5-1.25s-23.32-.5-50-.5H101v-99H51V276h50v-99c92.61 0 99.06-.19 99.5-1.5.28-.82.5-12.07.5-25V127l47.5-.55-48 .05-1 49h-98C100.7 34.62 100.14.13 99.58.58z"/><path id="Path 1" class="shp1" d="m101.24 87.75.26 87.75 99 .47V126.5l48.5-.5v249h50V126h51v50l98.5-.5.45-175.5H100.99"/><path id="Path 2" class="shp0" d="m449 87.5-.5 88-98.5.5v-50h-51v249l-50.5.54 51.5.46V127h49v50h99c0 74.4.23 96.68.5 97.5.43 1.28 3.72 1.47 22.75 1.27l22.25-.23L450 275v-99c37.98.39 49 .16 49-.25 0-.41-11.02-.75-24.5-.75H450L449.49-.5"/><path id="Path 3" class="shp1" d="M50.77 224.25c-.15 26.54-.16 48.81-.02 49.5.19.96 5.95 1.25 24.75 1.25H100v-99H51.04M450 225.5V275c43.86.5 43.91.49 44.95-1.75.88-1.87 1.31-2.04 2.59-1 1.39 1.12 1.54-3.62 1.5-47L499 177c-3.49-.75-14.51-.98-26.75-.99L450 176"/><path id="Path 4" class="shp0" d="M495.11 272.84c-.71 1.12-1.25 2.28-1.2 2.59.05.32.99.57 2.09.57 1.98 0 2 .67 2.01 71.75.01 39.46.24 72.76.5 74L499 424h-50c-.82 3.49-.94 25.88-.78 52l.28 47.5c-73.62-.44-96.01-.32-97.25-.03L349 524v50H201l-.56-46.5.06 47h149l.5-49.5h99l.51 175.5L450 525c37.98 0 49-.34 49-.75s-11.02-.64-24.5-.5L450 524v-99h49c.2 3.84.34 3.99.62 2.75.35-1.61 2.38-1.75 25.38-1.75h25v-50h50v-51h-50v-50c-48.45-.04-49.59-.13-51.55-2.12l-2.06-2.07"/><path id="Path 5" class="shp1" d="M1 350.5V425l48.5-.5L50 276H1m497.99 71.25c-.01 39.19.33 72.72.75 74.52l.76 3.28L547 425c.75-3.49.98-14.29.99-26.25 0-11.96.24-22.31.52-23 .39-.96 5.44-1.17 21.75-.92 11.68.18 22.7.07 24.49-.25L598 374v-48c-37.59.05-48.78-.35-49.13-.84-.34-.49-.71-11.76-.82-25.03l-.19-24.13H499M50.8 425.75c-.17.41-.19 22.69-.05 49.5L51 524h49v-99c-37.9 0-49.04.34-49.2.75zM450 474.5V524c32.94.02 43.97-.32 45.77-.74l3.28-.76L499 425h-49M101.01 612.49 101 700h348V525h-99l-.5 49.5h-149l-.33-49-99.15-.52"/></g></svg>