<svg xmlns="http://www.w3.org/2000/svg" viewBox="0 0 216 184" width="216" height="184"><style></style><path id="Path 0" d="M149.5 5.13c-10.12 2.85-14.5 4.55-15.79 6.15-1.61 1.99-1.79 4.55-1.76 24.72.01 12.38.37 23.98.79 25.79l.76 3.3 36-.59v-63c-4.65-.24-12.3 1.47-20 3.63zM77.78 24.77c-1.26.16-8.35 1.92-15.78 3.91-7.43 2-14.3 4.35-15.28 5.23-.98.87-1.78 2.94-1.77 4.59.01 1.65.59 3.57 1.28 4.27.93.92 5.91 1.26 18.52 1.25 15.45-.02 17.33-.2 18.04-1.77.43-.96.71-4.68.61-8.25-.1-3.58-.25-7.01-.34-7.64-.08-.63-.79-1.31-1.58-1.52-.78-.2-2.45-.23-3.7-.07zM70.5 52.45c-4.4 1.22-12.28 3.39-17.5 4.82-5.22 1.43-11.97 3.28-15 4.1-3.03.83-12.25 3.37-20.5 5.65-8.25 2.29-15.34 4.34-15.75 4.57-.41.22-.75 1.54-.75 2.91V77c31.33 0 40.87.43 42 1 1.84.92 2 1.99 1.98 13.75-.01 8.98.36 13.12 1.25 14.02.99.98 10.55 1.26 42.52 1.25 31.95-.02 41.42.26 42 1.23.41.69.97 6.43 1.25 12.75.49 11.36.53 11.5 3 11.82 1.38.18 10.15-1.78 19.5-4.35 9.35-2.57 21.95-6.02 28-7.65 6.05-1.63 13.48-3.63 16.5-4.44 3.02-.81 7.86-2.13 10.75-2.93 4.55-1.26 5.25-1.79 5.25-3.95 0-1.37-.68-2.72-1.5-3-.82-.28-10.16-.51-20.75-.52-10.59 0-19.93-.44-20.75-.96-1.17-.73-1.61-3.9-2-14.23l-.5-13.29c-82.22-.98-83.71-1.07-85.1-3-1.04-1.45-1.43-4.98-1.42-12.75.02-8.68-.27-10.85-1.48-11.25-.82-.28-1.84-.45-2.25-.39-.41.06-4.35 1.11-8.75 2.34zm-24.89 68.03c-.34.84-.61 15.02-.61 31.52v30c4.26.97 7.08.75 9 .13 1.93-.62 7.78-2.26 13-3.66 5.22-1.4 10.77-3.09 12.33-3.76 1.56-.66 3.03-2.11 3.28-3.21s.33-13.25.17-27l-.28-25c-33.63-.5-36.37-.32-36.89.98zm89.26 20.19c-.89.24-1.9 1.43-2.23 2.63-.34 1.21-.61 4.23-.61 6.7 0 2.47.33 5.56.73 6.86.65 2.07 1.23 2.3 4.74 1.91 2.2-.24 9.85-2.1 17-4.14 7.15-2.03 13.58-4.25 14.29-4.91.72-.67 1.28-2.91 1.25-4.97-.03-3.06-.45-3.84-2.29-4.24-1.24-.26-8.78-.44-16.75-.38-7.97.06-15.23.3-16.13.54z" style="fill:#fefefe"/></svg>