<svg xmlns="http://www.w3.org/2000/svg" viewBox="0 0 261 321" width="261" height="321"><style></style><path id="Path 0" d="M203 2.11c-2.47.48-7.43 1.85-11 3.02-3.57 1.18-8.3 3.04-10.5 4.12-2.2 1.09-4.8 2.72-5.78 3.62-1.69 1.54-1.78 6.23-1.75 83.88L174 179c-15.11 4.67-25.12 7.11-32 8.44-6.87 1.32-17.45 2.9-23.5 3.49-6.05.59-15.39 1.08-20.75 1.07H88l-.5-153.5c-7.75-.47-13.37.13-17.5 1.04-4.12.91-10.42 2.79-14 4.19-3.58 1.39-7.96 3.59-9.75 4.9L43 51c0 106.95-.11 138-.25 138s-6.77-1.13-14.75-2.51-16.3-2.77-18.5-3.1c-3.13-.47-4.38-.19-5.72 1.26-.95 1.02-2.26 4.32-2.91 7.35-.65 3.05-.88 7.51-.51 10 .37 2.47 1.57 5.96 2.66 7.75 1.35 2.22 3.16 3.56 5.73 4.24 2.06.54 10.62 2.22 19.01 3.75l15.25 2.76L43 311c3.91 1.95 6.39 1.95 11.75 1.12 3.99-.61 11.41-2.45 16.5-4.07s10.83-4.01 12.75-5.29l3.5-2.34.52-75.92c28.27-1.09 41.2-2.12 46.98-2.99 5.78-.88 15.9-2.91 22.5-4.53 6.6-1.61 13.01-3.16 14.25-3.45L174 213c0 99.22.19 106.06 1.5 106.5.82.27 3.19.51 5.25.51 2.06.01 8.25-1.12 13.75-2.52 5.5-1.39 12.47-3.68 15.5-5.08 3.03-1.39 6.3-3.3 7.28-4.22 1.67-1.58 1.78-5.31 1.75-59.44L219 191c11.63-8.53 18.42-14.26 22.61-18.25 4.18-3.99 10.02-10.18 12.96-13.75 4.34-5.26 5.37-7.22 5.4-10.25.01-2.06-.81-5.44-1.83-7.5-1.03-2.06-3.28-4.99-5-6.5-1.76-1.54-3.69-2.45-4.39-2.07-.69.37-4.13 3.19-7.65 6.25-3.52 3.06-9.82 8.13-14 11.25l-7.6 5.69c-.5-134.23-.86-152.68-1.79-153.66-.69-.75-3.13-1.23-5.71-1.14-2.47.08-6.53.55-9 1.04z" style="fill:#f9f9f9"/></svg>