<svg xmlns="http://www.w3.org/2000/svg" viewBox="0 0 802 98" width="802" height="98"><style></style><path id="Path 0" fill-rule="evenodd" d="M677.5-.61c6.26.25 11.94 1.1 15.18 2.26 2.85 1.02 7.24 3.31 9.75 5.1 2.51 1.79 5.7 5.16 7.07 7.5 1.38 2.34 2.84 6.84 4 15.77L693 30l-.48-2.75c-.26-1.51-1.5-4.05-2.75-5.64-1.25-1.59-3.17-3.34-4.27-3.88-1.1-.55-4.25-1.32-7-1.72-2.75-.41-6.8-.32-9 .18-2.2.51-5.25 2.14-6.77 3.62-1.98 1.92-2.78 3.69-2.78 6.19-.01 2.09.7 4.15 1.77 5.13.98.9 3.13 2.3 4.78 3.13 1.65.82 9.52 3.17 17.5 5.22s15.74 4.35 17.25 5.12c1.51.77 4.6 3.09 6.87 5.15 2.27 2.06 4.97 5.44 6 7.5 1.36 2.72 1.87 5.88 1.86 11.5-.02 5.27-.6 9.03-1.82 11.75-.99 2.2-3.45 5.69-5.48 7.75-2.02 2.06-5.48 4.65-7.68 5.75-2.2 1.1-6.81 2.67-10.25 3.49-3.44.81-9.51 1.49-13.5 1.5-3.99 0-9.61-.5-12.5-1.12-2.89-.62-7.5-2.11-10.25-3.3-2.75-1.2-7-4.18-9.45-6.62-2.44-2.45-5.31-6.48-6.36-8.95-1.06-2.47-2.2-6.64-3.19-14.03L657 65l-.03 2.75c-.01 1.51 1.02 4.33 2.29 6.25s4.32 4.59 6.78 5.93c3.41 1.85 5.98 2.42 10.96 2.43 3.58 0 8.08-.5 10-1.11 1.92-.62 4.74-2.5 6.25-4.19 1.71-1.9 2.75-4.2 2.75-6.06 0-2.03-1.05-4.09-3.25-6.36-2.1-2.17-5.2-3.94-8.75-4.97-3.02-.88-10.34-2.97-16.25-4.64-5.91-1.67-12.44-3.88-14.5-4.91-2.06-1.04-5.59-3.85-7.85-6.25-3.22-3.44-4.36-5.65-5.33-10.37-.7-3.4-.93-7.73-.54-10 .39-2.2 1.38-5.35 2.2-7 .82-1.65 3.13-4.72 5.13-6.83 2-2.11 4.99-4.55 6.64-5.42 1.65-.88 5.48-2.42 8.5-3.43 4.32-1.44 7.65-1.75 15.5-1.43zM1 1h21v37l38.5-.5.31-36.5H82v96H61V56H22v41H1V49M115.41 1.5l10.54 17.78c5.8 9.78 11 17.77 11.55 17.76.55-.01 5.74-8.01 22.06-35.54l10.47-.26c5.76-.14 10.92.17 11.47.69.65.62-4.97 10.84-33.5 58.07v37h-21V60.5l-17-28.25C100.65 16.71 93.01 3.31 93.03 2.47c.03-1.3 1.73-1.49 22.38-.97zM220 1.26c14.5.25 27.01.91 29 1.53 1.93.61 5.71 2.59 8.42 4.41 3.31 2.23 5.9 5.09 7.96 8.8 2.51 4.53 3.11 6.91 3.44 13.5.22 4.4-.08 9.8-.67 12-.58 2.2-2.42 6.02-4.09 8.5-1.67 2.48-4.95 5.76-7.3 7.29-2.34 1.54-5.83 3.21-7.76 3.71-1.93.49-4.85 1.11-6.5 1.37-1.65.26-8.74.5-28.5.63v34h-21l-.17-47.33c-.09-27.7.22-47.65.75-48.09.51-.41 12.39-.55 26.42-.32zM214 32v14c21.33-.04 24.29-.41 27.75-2.02 3.09-1.44 4.69-3 5.86-5.73 1.07-2.5 1.43-5.25 1.06-8.25-.3-2.48-1.41-5.62-2.45-7-1.05-1.37-3.44-3.04-5.31-3.69-1.88-.66-8.7-1.22-15.16-1.25L214 18m67-17h72v18l-50.5.5L302 39h47v17h-47v23h52v18h-73V49M367.21.8l28.14.43c23.59.37 28.88.72 32.65 2.18 2.48.95 5.74 2.6 7.25 3.66 1.51 1.06 3.75 3.84 4.97 6.18 1.67 3.21 2.22 5.97 2.23 11.25 0 5.01-.56 8.11-1.97 10.89-1.09 2.14-3.78 5.15-9.98 9.48l4 1.97c2.2 1.09 5.22 3.26 6.7 4.82 1.49 1.56 3.41 4.86 4.27 7.34.87 2.48 1.55 6.97 1.53 10-.02 3.03-.59 7.25-1.27 9.39-.67 2.15-2.8 5.7-4.73 7.9-1.93 2.19-5.52 5-8 6.23-2.48 1.23-6.86 2.74-9.75 3.36C420.14 96.54 407.6 97 367 97l.1-48.1m21.12-20.15.28 10.75c17.05.48 23.69.14 25.75-.44 2.06-.58 4.67-2.3 5.78-3.81 1.22-1.65 2.03-4.25 2-6.5-.01-2.06-.48-4.65-1.03-5.75-.55-1.1-2.57-2.68-4.5-3.5-2.49-1.07-7.11-1.5-16.03-1.5h-12.54m-.1 49.67L388 80c25.82 0 29.16-.33 31.99-1.75 1.91-.96 4.07-2.87 4.79-4.25.8-1.54 1.14-4.62.88-8-.33-4.39-.94-5.95-3.04-7.75-1.44-1.24-4.31-2.7-6.37-3.24-2.06-.55-8.96-1-15.33-1-6.37-.01-11.96.29-12.42.66-.46.36-.76 6.21-.67 13zM459 1h72v18l-50.5.5L480 39h47l-.5 16.5-46.5.5v23h52v18h-73V49M575.96 1 597.5.99l17.22 46.25c9.47 25.44 17.34 46.93 17.5 47.76.23 1.25-1.54 1.54-21.22 2l-6.66-20.5-35.84-.56-7.24 20.56-10.13.25c-9.3.23-10.12.1-9.95-1.58.09-1.01 7.48-21.38 16.42-45.25 8.94-23.88 16.72-44.66 17.3-46.17m.09 55c.01.93 2.98 1.25 11.51 1.25 6.33 0 11.51-.34 11.52-.75.02-.41-2.47-7.95-5.53-16.75-3.05-8.8-5.67-16.13-5.8-16.29-.14-.15-2.83 6.82-5.98 15.5-3.16 8.69-5.73 16.35-5.72 17.04zM723 1h78v18l-28.5.5L772 97h-21V19h-28v-9" style="fill:#fefefe"/></svg>