<svg xmlns="http://www.w3.org/2000/svg" viewBox="0 0 546 546" width="546" height="546"><style></style><path id="Path 0" d="M226.11 4.25c-1 2.34-4.12 11.22-6.92 19.75s-6.24 20.22-7.65 26c-1.41 5.78-4.12 19.72-6.01 31-1.9 11.28-4.37 27.47-5.5 36-1.13 8.53-2.05 17.3-2.05 19.5 0 3.93.32 4.28 19.26 21.18 10.59 9.45 27.58 24.6 37.76 33.66l18.5 16.48c5.47-4.9 12.87-11.5 19.97-17.82s16.36-14.65 20.57-18.5c4.22-3.85 13.82-12.4 21.34-19l13.68-12c-.72-8.53-1.64-17.08-2.51-24.5-.88-7.42-2.51-19.12-3.64-26-1.12-6.87-3.58-19.25-5.46-27.5s-4.81-20.17-6.51-26.5c-1.69-6.32-4.68-15.77-6.63-21-1.95-5.22-4.17-10.74-4.93-12.25L318 0h-90.06M173 54.41c-6.32 2.9-16.9 8.55-23.5 12.56-6.6 4-16.72 10.92-22.5 15.36-5.78 4.45-16.12 13.73-23 20.63-6.87 6.9-16.59 17.94-21.58 24.54-5 6.6-11.27 15.6-13.93 20-2.67 4.4-7.47 13.18-10.67 19.5s-6.15 13.27-6.57 15.44l-.75 3.93c4.65-1.21 11.4-2.62 18-3.92 6.6-1.3 21.63-3.62 33.4-5.15l21.4-2.8c6.26-8.53 11.11-14.6 14.82-19 3.71-4.4 10.04-10.95 14.06-14.56 4.03-3.61 10.83-9.23 15.12-12.5 6.09-4.64 7.89-6.59 8.24-8.94.24-1.65.92-6.83 1.5-11.5.59-4.67 2.19-15.25 3.57-23.5s3.27-19.02 4.2-23.92c.94-4.91 1.59-9.52 1.45-10.25-.14-.73-.6-1.3-1.01-1.26-.41.04-5.93 2.44-12.25 5.34zm186.26-3.6c.37.93 1.13 3.83 1.7 6.44.57 2.61 2.8 15.44 4.95 28.5 2.16 13.06 4.24 26.67 4.62 30.25l.71 6.5c13.38 9.68 22.1 17.33 28.01 23.24 5.91 5.92 13.79 14.78 17.5 19.69l6.75 8.94c37.2 5.09 53.63 7.71 60.5 9.12 6.88 1.41 12.64 2.44 12.8 2.29.17-.16-1.1-3.65-2.81-7.78-1.71-4.12-5.47-12-8.35-17.5-2.89-5.5-8.19-14.5-11.78-20s-10.04-14.28-14.34-19.5c-4.29-5.22-12.58-14.22-18.43-20-5.84-5.78-16.02-14.56-22.61-19.52-6.59-4.96-17.04-12.05-23.23-15.75-6.19-3.7-15.86-8.77-21.5-11.27-5.64-2.49-11.35-4.72-12.7-4.94-1.97-.33-2.32-.07-1.79 1.29zM115 199.1c-7.97 1.05-20.8 3.01-28.5 4.35-7.7 1.34-21.87 4.23-31.5 6.42-9.62 2.18-22 5.42-27.5 7.19-5.5 1.77-13.71 4.73-18.25 6.58L1 227v90c6.59 2.88 14.57 5.83 22 8.41s17.77 5.77 23 7.08c5.23 1.31 17.6 3.97 27.5 5.91 9.9 1.94 27.56 4.89 39.25 6.56C124.44 346.63 135.8 348 138 348c2.34 0 4.31-.57 4.75-1.36.41-.75 11.78-13.65 25.25-28.67 13.47-15.03 27.98-31.18 32.24-35.89 4.26-4.72 7.74-9.03 7.74-9.58 0-.55-4.84-6.46-10.74-13.13-5.91-6.67-20.86-23.45-33.24-37.28l-22.5-25.15c-9.3.19-18.53 1.11-26.5 2.16zm266.35 24.6c-13.12 14.69-28.24 31.56-33.6 37.5L338 272c4.9 5.81 20.09 22.91 36.91 41.75 30.57 34.24 30.59 34.26 34.59 34.25 2.2-.01 6.7-.45 10-.98s12.75-1.9 21-3.06c8.25-1.15 24.9-4.05 37-6.46 12.1-2.4 27.29-5.97 33.75-7.93 6.46-1.96 16.81-5.5 23-7.87l11.25-4.29.5-90.41c-11.24-4.55-19.45-7.53-25.5-9.55-6.05-2.03-20-5.67-31-8.09s-25.18-5.29-31.5-6.36c-6.32-1.07-18.59-2.86-27.25-3.98-8.66-1.11-17.95-2.02-20.65-2.02h-4.9M266.5 342.77c-3.3 3.15-11.84 10.91-18.97 17.23-7.12 6.32-15.7 13.98-19.05 17a2724.8 2724.8 0 0 1-18.51 16.42c-11.82 10.41-12.4 11.1-12.19 14.5.12 1.97 1.13 10.78 2.24 19.58 1.11 8.8 3.6 25.23 5.54 36.5 1.93 11.27 4.67 25.23 6.09 31s4.37 16.13 6.56 23c2.19 6.88 5.29 15.76 6.89 19.75L228 545l90.25-.5c6.96-17.05 11.18-30.33 13.88-40.5 2.69-10.18 6.46-26.6 8.38-36.5 1.92-9.9 4.41-25.65 5.54-35 1.13-9.35 2.31-19.48 2.62-22.5l.56-5.5c-32.31-28.68-46.17-41.05-51.64-46-5.47-4.95-13.01-11.81-16.77-15.25-3.75-3.44-7.16-6.24-7.57-6.23-.41.01-3.45 2.6-6.75 5.75zM50.42 360.75c.39 1.51 2.96 7.48 5.71 13.25s7.18 14.32 9.85 19c2.68 4.68 8.31 13.23 12.51 19 4.21 5.77 11.42 14.77 16.02 20s12.78 13.43 18.18 18.24c5.4 4.8 14.09 11.92 19.31 15.82 5.22 3.9 14.68 10.09 21 13.75s16.34 8.8 22.25 11.42c5.91 2.63 11.09 4.53 11.5 4.23.41-.29-.73-7.61-2.53-16.25-1.81-8.64-4.65-25.16-6.32-36.71s-3.12-21.04-3.22-21.08c-.1-.05-3.31-2.3-7.13-5-3.83-2.71-10.58-8.26-15-12.34-4.43-4.08-11.09-10.95-14.8-15.25-3.71-4.31-8.44-10.32-10.5-13.37-2.06-3.04-3.97-5.52-4.25-5.49-.28.02-7.7-.86-16.5-1.95-8.8-1.09-20.72-2.86-26.5-3.93-5.78-1.07-14.6-2.88-19.61-4.02-5.01-1.14-9.46-2.07-9.89-2.07-.43 0-.46 1.24-.08 2.75zM476 362.11c-10.18 2.11-26.15 4.75-35.5 5.87-15.23 1.83-17.16 2.28-18.5 4.26-.82 1.22-4.91 6.51-9.08 11.74-4.17 5.24-11.82 13.53-17 18.44-5.18 4.9-12.79 11.27-16.92 14.14l-7.5 5.21c-2.07 15.29-4.23 29.18-6.15 40.73-1.92 11.55-4.11 23.7-4.87 27-.76 3.3-1.29 6.07-1.18 6.16.11.08 2.22-.53 4.7-1.36 2.48-.83 7.88-3.07 12-4.97 4.13-1.9 12.68-6.52 19-10.27 6.32-3.74 16-10.17 21.5-14.27s14.05-11.17 19-15.71c4.95-4.54 11.7-11.25 15-14.92 3.3-3.66 8.69-10.03 11.98-14.16 3.29-4.12 9.3-12.68 13.35-19 4.06-6.32 10.21-17.35 13.68-24.5 3.47-7.15 6.49-14.24 6.72-15.75.24-1.6-.03-2.69-.66-2.61-.59.08-9.39 1.87-19.57 3.97z" style="fill:#fefeff"/></svg>