<svg xmlns="http://www.w3.org/2000/svg" viewBox="0 0 442 256" width="442" height="256"><style></style><path id="Path 0" fill-rule="evenodd" d="M116.5.47c12.95.25 20.95.93 28.5 2.41 5.78 1.14 14.1 3.24 18.5 4.66 4.4 1.43 11.6 4.31 16 6.41 4.4 2.09 8.85 4.43 9.89 5.18 1.78 1.29.93 2.86-14.7 27.37-9.12 14.3-17.23 26.9-18.02 28-1.43 1.98-1.53 1.96-8.31-1.22-3.77-1.77-10.46-4.2-14.86-5.4-6.32-1.72-10.95-2.2-22-2.28-10.78-.07-15.15.3-19 1.61-2.75.94-7.18 3.64-9.86 6-2.99 2.64-5.96 6.59-7.74 10.29-1.58 3.3-3.67 9.6-4.64 14-1.44 6.54-1.76 12.93-1.76 35 0 22.09.32 28.54 1.79 35.5.98 4.68 3.07 11.2 4.64 14.5 1.7 3.58 4.61 7.52 7.21 9.78 2.4 2.07 6.61 4.55 9.36 5.5 3.72 1.28 8.21 1.71 17.5 1.69 8.24-.01 13.86-.51 16.5-1.45 2.2-.79 5.3-2.58 6.88-3.98 1.59-1.39 3.59-3.89 4.46-5.54 1.16-2.22 1.64-6.7 2.16-31.5H97v-2.25c0-1.24 1.34-12.15 2.98-24.25s3.21-23.46 4.02-28.5h97v151l-31.25.06c-17.19.03-33.5.46-36.25.95-2.75.49-12.42 1.2-21.5 1.58-10.54.43-20.29.26-27-.49-5.78-.64-14.1-2.08-18.5-3.19-4.4-1.12-11.6-3.76-16-5.88-4.4-2.11-10.7-5.91-14-8.43-3.3-2.53-8.38-7.41-11.28-10.85-2.9-3.44-7.26-10.07-9.67-14.75-2.42-4.68-5.57-12.1-7-16.5-1.43-4.4-3.51-12.72-4.62-18.5-1.11-5.78-2.54-19.28-3.17-30-.87-14.71-.87-24.04 0-38 .64-10.17 2.12-23.45 3.29-29.5 1.18-6.05 3.58-15.05 5.34-20 1.77-4.95 4.97-12.15 7.13-16 2.15-3.85 6.06-9.59 8.7-12.75 2.63-3.16 7.59-7.84 11.03-10.4 3.44-2.55 10.3-6.56 15.25-8.91C56.45 9.09 65.22 6.01 71 4.59c5.78-1.42 14.33-3.01 19-3.52 4.67-.52 16.6-.78 26.5-.6zm221 .01c12.34.26 19.88.95 27.5 2.51 5.77 1.19 13.88 3.47 18 5.07 4.13 1.6 10.4 4.6 13.94 6.67 3.54 2.07 9.34 6.47 12.88 9.77 3.55 3.3 8.36 8.7 10.7 12 2.33 3.3 5.58 8.7 7.22 12 1.64 3.3 3.9 8.7 5.03 12 1.13 3.3 2.74 8.7 3.58 12 .84 3.3 2.23 10.72 3.09 16.5.85 5.78 1.83 18.83 2.18 29 .39 11.28.18 24.16-.54 33-.64 7.97-2.09 19.22-3.22 25-1.13 5.78-3.59 14.78-5.47 20-1.88 5.22-5.32 12.88-7.65 17-2.73 4.82-7.28 10.54-12.74 16-4.68 4.68-11.42 10.2-15 12.27-3.57 2.07-9.87 5.07-14 6.67-4.12 1.6-12.11 3.84-17.75 4.98-5.64 1.15-16.44 2.37-24 2.72-7.94.36-18.61.16-25.25-.49-6.32-.61-16-2.23-21.5-3.6-6.32-1.57-13.84-4.43-20.45-7.77-7.75-3.91-12.37-7.09-17.88-12.28-4.08-3.85-8.9-9.03-10.71-11.5-1.82-2.47-5.09-8.1-7.28-12.5-2.2-4.4-5.19-11.82-6.65-16.5s-3.64-13.9-4.83-20.5c-1.93-10.62-2.18-15.51-2.18-42.5 0-26.99.25-31.88 2.18-42.5 1.19-6.6 3.37-15.83 4.83-20.5s4.45-12.1 6.65-16.5c2.19-4.4 5.46-10.02 7.28-12.5 1.81-2.48 6.63-7.65 10.71-11.5 5.51-5.19 10.13-8.37 17.88-12.28 6.58-3.32 14.16-6.21 20.45-7.78 5.5-1.37 13.6-2.91 18-3.41s15.65-.75 25-.55zm-26 69.24c-2.2 1.16-5.44 3.61-7.2 5.44-1.75 1.84-4.33 5.81-5.73 8.84-1.39 3.03-3.31 8.88-4.25 13-1.37 6-1.73 12.61-1.77 33-.04 21.12.27 26.96 1.78 34 1.01 4.68 2.9 10.75 4.19 13.5 1.3 2.75 4.07 6.75 6.17 8.89 2.1 2.14 6.29 5.03 9.31 6.43 4.46 2.07 7.49 2.64 16 3.01 8.65.38 11.73.09 17.5-1.62 4.82-1.43 8.4-3.3 11.5-6 2.48-2.16 5.7-6.12 7.17-8.82 1.46-2.69 3.37-7.59 4.23-10.89.87-3.3 2.07-12.3 2.68-20 .64-8.07.82-20.14.43-28.5-.37-7.97-1.27-17.65-2-21.5-.73-3.85-2.35-9.7-3.6-13a30.044 30.044 0 0 0-17.41-17.41c-4.08-1.54-8.88-2.39-15-2.66-5.3-.23-11.26.13-14.5.89-3.02.71-7.3 2.24-9.5 3.4z" style="fill:#fefefe"/></svg>