<svg xmlns="http://www.w3.org/2000/svg" viewBox="0 0 149 312" width="149" height="312"><style></style><path id="Path 0" d="M0 10v10c7.36.83 13.32 1.73 18 2.55 4.68.81 9.85 2.28 11.5 3.26 1.65.99 4.01 3.35 5.25 5.24 1.24 1.9 2.5 5.7 2.8 8.45.3 2.75.41 56.97.25 120.5-.3 114.81-.31 115.52-2.38 119.5-1.25 2.4-3.65 4.88-6 6.19-2.16 1.21-7.97 2.9-12.92 3.77-4.95.86-10.69 1.56-12.75 1.55L0 291v21h149l.01-20.5c-15.9-1.87-22.75-3.22-25.48-4.21-2.74-.98-6.11-2.93-7.5-4.33-1.39-1.4-3.09-4.66-3.78-7.25-.97-3.64-1.24-30.88-1.23-119.96.02-68.64.41-116.87.97-119.25.52-2.2 1.79-5.12 2.83-6.5 1.04-1.37 3.19-3.28 4.78-4.24 1.6-.96 6.72-2.4 11.4-3.21 4.68-.82 10.64-1.72 13.25-2.02L149 20V0H0" style="fill:#fff"/></svg>