<svg xmlns="http://www.w3.org/2000/svg" viewBox="0 0 300 51" width="300" height="51"><style></style><path id="Path 0" fill-rule="evenodd" d="M3 1h8l.03 18.5 4.49-4.75c4.05-4.3 4.91-4.75 8.98-4.75 2.48 0 4.51.34 4.52.75.01.41-2.02 2.89-4.5 5.5-3.56 3.74-4.38 5.23-3.87 7 .36 1.24 2.34 4.95 4.39 8.25s4.23 5.89 4.84 5.75c.69-.15.83.36.37 1.33-.57 1.2-1.94 1.5-5.71 1.25-4.82-.32-5.05-.48-8-5.56-1.67-2.88-3.49-5.09-4.04-4.92-.55.17-1.11 2.63-1.5 10.65H3V20.5M61 1h9v5.5c0 5.17.12 5.44 2 4.5 1.1-.55 3.69-1.02 5.75-1.03 2.43-.03 4.78.77 6.68 2.25 1.61 1.25 3.52 3.74 4.25 5.53.72 1.79 1.31 5.16 1.31 7.5-.01 2.38-1 6.2-2.25 8.69-1.59 3.15-3.25 4.84-5.74 5.84-2.31.92-4.69 1.14-7 .64-1.92-.42-5.86-.69-14-.42V20.5m8.76 3.63c-.03 1.86.23 4.38.59 5.62.4 1.37 1.73 2.5 3.4 2.88 1.51.35 3.42.2 4.25-.34.83-.54 1.95-2.66 2.5-4.7.78-2.91.67-4.31-.53-6.4-1.04-1.83-2.51-2.79-4.59-2.99-1.74-.17-3.59.31-4.31 1.13-.69.79-1.28 2.95-1.31 4.8zM239.43 1c2.19 0 2.57.44 2.57 3 0 2.52-.36 2.96-2.25 2.75-1.63-.18-2.34-1.01-2.57-3-.28-2.37.03-2.75 2.25-2.75zM109 9.59c1.92.31 4.85 1.33 6.5 2.27 1.65.94 3.79 3.27 4.75 5.17.96 1.91 1.75 5.49 1.75 7.97 0 2.48-.79 6.04-1.75 7.93-.96 1.88-2.87 4.27-4.25 5.29-1.37 1.02-4.3 2.13-6.5 2.45-2.2.32-5.69.08-7.75-.54-2.36-.71-4.77-2.49-6.5-4.82-1.91-2.55-2.88-5.24-3.16-8.75-.34-4.1.09-5.96 2.22-9.81 1.46-2.61 2.77-4.76 2.92-4.77.15 0 2.07-.67 4.27-1.48 2.31-.85 5.48-1.24 7.5-.91zm-8.01 15.16c0 2.06.67 4.76 1.5 6 .99 1.48 2.51 2.25 4.44 2.25 1.61 0 3.63-.67 4.5-1.5.97-.93 1.57-3.21 1.57-6 0-3.17-.59-5.09-2-6.5-1.1-1.1-2.9-2-4-2s-2.9.9-4 2c-1.28 1.28-2 3.34-2.01 5.75zM142 9.62c1.93.27 4.63 1.27 6 2.24 1.38.97 3.54 3.76 4.81 6.2 1.84 3.51 2.19 5.38 1.71 8.94-.33 2.48-1.59 6.05-2.81 7.93-1.22 1.89-3.67 4.03-5.46 4.75-1.79.73-4.82 1.32-6.75 1.32-1.93 0-4.96-.6-6.75-1.33-1.79-.73-4.12-2.65-5.17-4.25-1.06-1.61-2.27-4.49-2.7-6.42-.42-1.93-.34-5.52.17-8 .55-2.63 2.09-5.66 3.7-7.28 1.51-1.53 4.32-3.18 6.25-3.68 1.93-.49 5.07-.68 7-.42zm-8.5 15.83c0 2.35.67 5 1.5 5.94.82.93 2.85 1.7 4.5 1.7s3.57-.58 4.27-1.3c.7-.71 1.38-3.38 1.5-5.94.17-3.49-.27-5.18-1.77-6.78-1.1-1.17-2.95-2.12-4.1-2.1-1.16.02-2.96.98-4 2.13-1.24 1.37-1.9 3.59-1.9 6.35zM43.75 10.04c2.89-.02 6.49.57 8 1.32 1.51.75 3.09 2.1 3.5 3 .41.9.75 6.36.75 12.14 0 6 .43 10.71 1 11 .55.27 1 .95 1 1.5s-2.02 1-4.5 1-4.73-.45-5-1c-.31-.62-1.63-.43-3.5.5-1.65.83-4.12 1.5-5.5 1.5-1.37 0-3.62-.56-5-1.25-1.37-.69-2.94-2.26-3.5-3.5-.55-1.24-1-3.37-1-4.75 0-1.37.45-3.4 1-4.5s2.01-2.52 3.25-3.17c1.24-.64 4.73-1.65 7.75-2.25 3.74-.73 5.5-1.56 5.5-2.58 0-.97-1.14-1.59-3.25-1.75-2.35-.18-3.6.31-4.5 1.75-.89 1.43-2.33 2.01-5 2-3.08 0-3.75-.36-3.75-2 0-1.1.45-2.9 1-4s2.24-2.66 3.75-3.46c1.51-.8 5.11-1.48 8-1.5zm-4.5 21.25c-.22 2.34.12 2.72 2.5 2.75 1.51.03 3.26-.53 3.88-1.25.62-.71 1.41-2.3 1.75-3.54.48-1.73.22-2.23-1.13-2.15-.96.05-2.87.41-4.25.79-1.78.49-2.57 1.47-2.75 3.4zM163.17 10c2.11 0 3.83.45 3.83 1 0 .67.67.67 2 0 1.1-.55 3.69-1.01 5.75-1.03 2.56-.02 4.31.61 7.25 4.03l2.25-2.02c1.49-1.34 3.61-2.01 6.25-1.98 2.98.03 4.7.73 6.77 2.77C200 15.46 200.04 15.68 200 40h-9l-.25-10.64c-.2-8.63-.57-10.86-1.91-11.75-1.27-.85-2.05-.75-3.3.39-1.31 1.21-1.62 3.51-1.54 22h-9V29.5c0-9.5-.19-10.6-2-11.5-1.1-.55-2.19-1-2.43-1-.23 0-1.13.68-2 1.5-1.22 1.17-1.57 3.71-1.57 21.5h-9l-.17-14.33c-.09-7.89.21-14.64.67-15 .46-.37 2.56-.67 4.67-.67zm58.83.57c1.93.36 4.59 1.39 5.92 2.29 1.33.9 3.02 3.1 3.75 4.89.73 1.79 1.33 5.27 1.33 7.75 0 2.48-.79 6.12-1.75 8.1-.96 1.98-2.65 4.18-3.75 4.89-1.1.7-3.57 1.58-5.5 1.94-2.57.48-4.5.12-11-3.43v6.5c0 5.83-.21 6.5-2 6.5-1.93 0-2-.67-2-19.5s.07-19.5 2-19.5c1.16 0 1.96.63 1.9 1.5-.09 1.23.59 1.14 3.75-.54 2.81-1.49 4.8-1.86 7.35-1.39zm-9.5 8.52c-.82 1.6-1.5 4.48-1.5 6.41 0 1.93.79 4.87 1.75 6.55.96 1.67 2.88 3.34 4.25 3.7 1.38.36 3.4.54 4.5.4s3.01-1.36 4.25-2.7c1.72-1.88 2.26-3.68 2.28-7.7.03-3.75-.54-6.03-2-8-1.61-2.19-2.8-2.73-5.78-2.67-2.06.04-4.31.31-5 .59-.68.28-1.92 1.82-2.75 3.42zM259.25 10c.96 0 3.21.61 5 1.36 1.79.75 3.98 2.21 4.88 3.25.9 1.04 1.91 2.9 2.25 4.14.52 1.9.23 2.25-1.88 2.25-1.37 0-2.5-.45-2.5-1s-.9-1.9-2-3c-1.11-1.11-3.33-2-5-2-1.65 0-3.74.34-4.64.75-.9.41-2.35 1.97-3.21 3.45-.86 1.49-1.47 4.3-1.36 6.25.12 1.95.89 4.9 1.71 6.55.87 1.73 2.77 3.42 4.5 4 1.65.55 3.79.71 4.75.35s2.55-1.37 3.53-2.25c.98-.88 1.77-2.39 1.75-3.35-.02-1.21.74-1.75 2.47-1.75 2.2 0 2.43.33 1.93 2.75-.32 1.51-1.56 3.79-2.75 5.05-1.2 1.27-3.75 2.8-5.68 3.41-2.81.88-4.44.77-8.25-.55-3.54-1.24-5.16-2.49-6.36-4.91-.89-1.79-1.82-5.27-2.07-7.75-.37-3.66.05-5.3 2.26-8.8 1.5-2.37 4.12-5.18 5.82-6.26 1.71-1.07 3.89-1.95 4.85-1.94zm26 0c.96 0 3.21.61 5 1.35 1.79.73 3.78 1.97 4.42 2.75.64.77 1.43 2.64 1.75 4.15.48 2.28.24 2.75-1.42 2.75-1.16 0-2.53-1.08-3.25-2.57-.69-1.41-2.15-2.79-3.25-3.07-1.1-.27-3.35-.35-5-.18-2.34.25-3.07.87-3.31 2.82-.17 1.38.28 2.83 1 3.23.72.41 3.56 1.41 6.31 2.22 2.75.82 6.01 2.17 7.25 3.02 1.7 1.16 2.25 2.5 2.25 5.53 0 3.21-.54 4.4-2.75 6.01-1.51 1.1-4.32 2.26-6.25 2.58-2.16.35-4.94-.04-7.25-1.01-2.6-1.1-4.21-2.65-5.25-5.08-.82-1.92-1.5-3.73-1.5-4s1.01-.51 2.25-.53c1.43-.02 2.71.9 3.5 2.5.69 1.39 2.26 2.93 3.5 3.43 1.24.49 3.54.6 5.12.25 1.59-.36 3.27-1.44 3.75-2.4.61-1.21.34-2.37-.87-3.75-.96-1.1-3.55-2.28-5.75-2.62-2.2-.33-5.26-1.34-6.8-2.24-1.54-.9-3.06-2.76-3.39-4.14-.32-1.37-.18-3.62.31-5 .5-1.37 2.47-3.29 4.39-4.25 1.92-.96 4.28-1.75 5.24-1.75zM240 11c1.91 0 2 .67 2 14.5s-.09 14.5-2 14.5-2-.67-2-14.5.09-14.5 2-14.5z" style="fill:#fff"/></svg>