<svg xmlns="http://www.w3.org/2000/svg" viewBox="0 0 332 348" width="332" height="348"><style></style><path id="Path 0" d="M107.5 1.36C104.2 2 98.57 3.95 95 5.7c-3.97 1.93-8.74 5.43-12.25 8.98-3.16 3.2-7.26 8.07-9.1 10.82-1.85 2.75-7.42 11.97-12.37 20.5-4.96 8.53-13.87 23.82-19.8 34-5.93 10.18-17.27 29.75-25.2 43.5S2.12 149.06 2.43 149.75c.31.69.91 1.26 1.32 1.27.41.02 3.45-2.99 6.75-6.69s8.7-8.68 12-11.08c3.3-2.4 9.38-5.66 13.5-7.23 4.13-1.58 10.88-3.68 15-4.68 6.29-1.51 11.94-1.81 35-1.82 15.13-.01 56.07.18 91 .42 59.01.42 63.92.32 69.5-1.35 3.3-.99 8.25-2.94 11-4.33 2.75-1.39 7.2-4.38 9.88-6.64 2.69-2.27 6.34-6.15 8.13-8.62 1.78-2.47 10.2-16.43 18.7-31 8.51-14.57 16.6-28.53 17.99-31 1.39-2.47 6.41-11.14 11.16-19.25S332 2.33 332 1.5C332 .18 319.24.01 222.75.1 144.01.17 111.82.52 107.5 1.36zM1 153.5c0 .82 1.01 1.7 2.25 1.94s5.63 1.22 9.75 2.17c4.13.95 10.2 3.12 13.5 4.83 3.3 1.7 7.35 4.14 9 5.43 1.65 1.28 5.03 4.2 7.5 6.48 2.47 2.28 6.46 6.4 8.85 9.15 2.4 2.75 7.4 10.18 11.12 16.5 3.73 6.32 9.67 16.68 13.21 23 3.55 6.32 16.14 28.6 27.98 49.5 11.83 20.9 22.77 40.25 24.29 43 1.52 2.75 4.24 7.02 6.03 9.5 1.79 2.48 5.68 6.69 8.64 9.37 2.96 2.67 7.18 5.77 9.38 6.89 2.2 1.11 6.47 2.97 9.5 4.11 5.32 2.02 7.45 2.1 64.75 2.36 52.12.24 59.25.09 59.25-1.23 0-.82-4.77-9.71-10.6-19.75-5.84-10.04-15.82-27.25-22.18-38.25-6.37-11-14.58-25.18-18.25-31.5-3.68-6.32-11.53-19.82-17.46-30-5.93-10.18-11.99-20.52-13.47-23-1.47-2.48-6.25-10.55-10.61-17.95-5.02-8.52-10.04-15.58-13.68-19.25-3.16-3.19-8.34-7.09-11.5-8.67-3.16-1.59-9.01-3.61-13-4.5-6.33-1.42-16.53-1.63-80.75-1.63-64.67 0-73.5.18-73.5 1.5z" style="fill:#fff"/></svg>