<svg xmlns="http://www.w3.org/2000/svg" viewBox="0 0 225 225" width="225" height="225"><style></style><path id="Path 0" fill-rule="evenodd" d="M0 0h19.99l.51 204.5 203.5.5v19H0V112M46.5 0H225v170h-9.5c-6 0-9.32.37-9 1 .28.55-.18 1-1 1-1.31 0-1.47-5.22-1-84H47l-.25-44m21.25.5V67h136V22H68m49.4 85c4.73 0 7.41.38 7.1 1-.31.63.53.74 2.25.3 2.23-.57 2.56-.44 1.75.68-.8 1.11-.55 1.25 1.25.7 1.42-.43 3.63.02 6 1.24 2.06 1.06 4.65 2.67 5.75 3.58 1.1.9 1.32 1.28.5.83-1.06-.57-1.28-.45-.75.43.41.68 1.31 1 2 .7.69-.29 2.27.55 3.52 1.87 1.24 1.32 2.14 3 2 3.74-.15.74.41 1.37 1.23 1.41.82.04 1.5.79 1.5 1.67 0 .88.34 1.44.75 1.23.41-.21 1.24.63 1.84 1.87.59 1.24.82 2.81.5 3.5-.33.69-.14 1.03.41.75s1.28.51 1.62 1.75c.34 1.24.23 2.93-.24 3.75-.67 1.17-.54 1.28.57.5 1.2-.84 1.31-.25.74 3.75-.45 3.05-.33 4.57.31 4.25.55-.28 1 .4 1 1.5s-.45 2-1 2c-.62 0-.73 1.62-.3 4.25.52 3.19.4 4.06-.5 3.5-.87-.54-1-.12-.49 1.5.58 1.83.44 2.06-.73 1.25-1.13-.79-1.28-.63-.71.75.4.96.17 2.86-.52 4.21-.69 1.35-1.59 2.25-2 2-.41-.25-.42.33-.02 1.29.58 1.39.42 1.55-.75.76-1.16-.77-1.29-.66-.62.5.64 1.09-.56 2.89-4.5 6.76-2.95 2.9-5.92 5.04-6.61 4.75-.79-.33-.97-.07-.5.71.53.87.24 1.02-1 .5-1.05-.44-1.55-.33-1.25.27.28.55-.18 1.22-1 1.5-.82.28-2.06.17-2.75-.24-.83-.49-1-.32-.5.5.48.79.02 1.42-1.25 1.74-1.1.28-2.56.16-3.24-.25-.91-.55-.98-.36-.25.7.83 1.22.39 1.34-2.76.75-2.3-.43-3.75-.31-3.75.3 0 .55-2.03 1-4.5 1-2.67 0-4.3-.41-4-1 .32-.64-.86-.75-3.25-.31-3.08.57-3.57.45-2.75-.68.8-1.1.54-1.24-1.25-.69-1.29.39-2.25.25-2.25-.32 0-.55-.45-.78-1-.5s-1.67.28-2.5 0c-.83-.28-1.28-.95-1-1.5.3-.6-.2-.71-1.25-.27-1.06.44-1.5.34-1.12-.25.34-.54-.11-.98-1-.98-.9 0-1.52-.56-1.38-1.25.14-.69-.31-1-1-.7-.69.31-3.16-1.49-5.5-4-2.63-2.81-3.97-5.03-3.51-5.8.44-.74.34-.97-.25-.56-.54.39-1.78-.63-2.74-2.25-.96-1.61-1.53-3.62-1.25-4.44.33-.99.08-1.25-.73-.75-.87.53-1.02.24-.5-1 .41-.99.29-1.75-.27-1.75-.55 0-.78-1.12-.5-2.5.28-1.37.16-2.32-.25-2.1-.41.23-.75-3.33-.75-7.9s.22-8.18.5-8.02c.28.15.3-.9.05-2.35-.36-2.13-.17-2.44.99-1.63 1.06.74 1.24.67.7-.25-.41-.69-.52-2.15-.24-3.25s.95-1.78 1.5-1.5c.6.3.71-.2.27-1.25-.44-1.06-.34-1.5.25-1.12.54.34.98-.11.98-1 0-.9.56-1.52 1.25-1.38.69.14 1.02-.31.73-1-.29-.69 1.63-3.44 4.25-6.11 2.73-2.78 5.3-4.6 6.02-4.25.7.34 1.14.06 1-.64-.14-.69.48-1.25 1.38-1.25.89 0 1.46-.34 1.25-.75-.21-.41.52-.97 1.62-1.25s2.56-.17 3.25.24c.92.54.99.36.25-.71-.81-1.18-.58-1.32 1.25-.74 1.62.51 2.04.38 1.5-.49-.55-.88-.02-1.02 2-.5 1.74.44 2.53.33 2.15-.3-.38-.63 2.2-1 7-1zm-31.9 16.5c5.84-5.42 7.53-7.11 7.52-7.25-.01-.14-.16-.25-.33-.25s-1.85 1.69-3.75 3.75l-3.44 3.75zm27.25 6.66c-1.24.08-2.81.08-3.5 0-.69-.09-1.14.4-1 1.09.14.69-.56 1.26-1.55 1.26-.99.01-2.34.59-3 1.3-.66.71-1.2 2.05-1.2 2.99 0 .93-.56 1.59-1.25 1.45-.83-.17-1 .34-.52 1.5.52 1.24.37 1.53-.5 1-.9-.55-1.04-.14-.52 1.5.43 1.37.34 2-.25 1.6-.57-.39-.96 1.3-.96 4.15 0 2.86.39 4.54.96 4.15.59-.39.68.23.25 1.6-.52 1.64-.38 2.05.52 1.5.87-.53 1.02-.24.5 1-.44 1.05-.33 1.55.27 1.25.55-.28 1-.05 1 .5s.11 1.43.25 1.95.83 1.53 1.55 2.25c.71.71 2.06 1.3 3 1.3.93 0 1.59.56 1.45 1.25-.17.83.34 1 1.5.52 1.24-.52 1.53-.37 1 .5-.56.91-.04 1.05 2 .53 2.02-.52 2.55-.38 2 .5-.53.85.27 1.2 2.75 1.2 2.47 0 3.28-.35 2.75-1.2-.53-.85.01-1.06 1.88-.75 1.57.27 2.38.06 2-.53-.38-.59.06-.69 1.12-.25 1.05.44 1.55.33 1.25-.27-.28-.55.08-.89.78-.75.7.14 1.41-.2 1.57-.75.16-.55 1.05-1.78 1.97-2.73.92-.95 2.02-1.52 2.43-1.25.41.26.7.14.63-.27-.06-.41-.06-1.31 0-2 .07-.69.57-1.03 1.12-.75.62.31.73-.36.29-1.75-.43-1.37-.34-1.99.25-1.6.58.4.96-1.65.96-5.15 0-3.5-.38-5.55-.96-5.15-.59.39-.68-.23-.25-1.6.49-1.55.32-2.17-.54-2-.69.14-1.25-.48-1.25-1.38 0-.89-.22-1.46-.5-1.27-.28.2-1.4-.58-2.5-1.72-1.1-1.15-1.99-2.38-1.97-2.73.02-.36-.55-.54-1.25-.4s-1.06-.2-.78-.75c.3-.6-.2-.71-1.25-.27-1.24.52-1.53.37-1-.5.52-.86.15-1.08-1.25-.73-1.1.28-2.05.14-2.1-.3-.06-.44-1.73-.85-3.72-.9-2.01-.06-3.29.3-2.89.8.39.49-.3.97-1.54 1.06zm29.75 49.34c5.07-4.65 6.53-6.11 6.52-6.25-.01-.14-.16-.25-.34-.25-.17 0-1.63 1.46-3.25 3.25l-2.93 3.25z" style="opacity:.957;fill:#fff"/></svg>