<svg xmlns="http://www.w3.org/2000/svg" viewBox="0 0 308 260" width="308" height="260"><style></style><path id="Path 0" d="M95.5 1.81c-1.65.99-3.97 3.35-5.15 5.24C89.17 8.95 78.66 27.82 67.01 49c-11.66 21.18-31.5 57.17-44.09 80C3.27 164.64.04 171.1.02 174.75c-.02 3.46.62 4.95 3.4 8l3.42 3.75L73 187v66l7 7c41.37.01 45.91-.26 47.75-1.49 1.24-.83 2.93-2.86 3.75-4.51 1.24-2.48 1.5-8.61 1.5-35.5V186c-13.56-.09-19.06-.65-20.97-1.31-2.03-.7-4.41-2.63-5.77-4.69-1.28-1.93-2.29-4.62-2.26-6 .04-1.37 11.19-22.63 24.78-47.24 13.6-24.61 24.94-44.74 25.22-44.74.28 0 3.39 5.29 6.93 11.74 3.53 6.46 6.72 11.96 7.07 12.24.36.28.98 1.4 1.39 2.5.41 1.1 8.35 15.72 17.65 32.5 9.29 16.78 16.91 31.51 16.93 32.75.02 1.24-.59 3.49-1.34 5-.75 1.51-2.66 3.63-4.25 4.7-2.19 1.47-5.29 2.07-12.88 2.5l-10 .55c-.47 56.11-.22 64.72.73 66.91.7 1.6 2.4 3.75 3.77 4.78 2.28 1.71 4.53 1.88 25.25 1.84L228 260l6.5-6.05 1-67.45 66-.43c5.86-6.38 6.5-7.9 6.48-11.32-.01-3.09-1.19-6.43-4.34-12.25-2.38-4.4-11.54-21.05-20.35-37-8.81-15.95-24.69-44.75-35.29-64-10.6-19.25-19.66-35.11-20.13-35.25-.48-.14-.86-.81-.84-1.5.01-.69-2.21-5.3-4.94-10.25-2.73-4.95-6.16-10.12-7.61-11.5-2.05-1.93-3.95-2.58-8.32-2.84-4.64-.28-6.27.08-9.08 2-2.73 1.87-7.34 9.49-23 38.06-10.77 19.64-19.8 35.72-20.08 35.72-.28.01-9.32-16.07-20.11-35.71-15.72-28.64-20.28-36.18-23-38.01C108.58.67 106.06-.05 103-.02c-2.5.01-5.83.83-7.5 1.83z" style="fill:#fefefe"/></svg>