<svg xmlns="http://www.w3.org/2000/svg" viewBox="0 0 370 129" width="370" height="129"><style></style><path id="Path 0" fill-rule="evenodd" d="M63.25 1c5.31 0 8.91.55 11.44 1.75 2.03.96 4.53 3.1 5.55 4.75 1.44 2.32 1.8 4.52 1.56 9.68-.26 5.86-.67 7.07-3.3 9.79-1.65 1.71-4.57 3.53-6.5 4.06-1.93.53-5.97.95-9 .95-3.4-.01-7.03-.75-9.5-1.96-2.2-1.07-4.89-3.42-5.97-5.23-1.31-2.19-1.98-5.14-2-8.83-.02-3.63.58-6.49 1.72-8.25.96-1.49 3.21-3.61 5-4.71 2.51-1.54 5.01-1.99 11-2zM215.5 2.43c.61.14 1.1 6.99 1.5 34.57h20l.01 6.25c0 3.44-.34 9.05-1.51 18.7l-18 .55-.25 17.25C217 96.97 217 97 219.5 99.5c1.38 1.38 3.29 2.51 4.25 2.52.96.01 4-1.11 6.75-2.48 2.75-1.37 5.36-2.16 5.8-1.76.45.39.31 4.32-.29 8.72s-1.53 10.36-2.05 13.25c-.87 4.75-1.32 5.41-4.71 6.92-2.64 1.18-7.47 1.8-16.25 2.09-11.73.38-12.78.26-17-2.01-3.3-1.78-5.16-3.72-7-7.31-2.43-4.74-2.51-5.6-3.5-56.94L172 63V37h14l.5-23.38 14-5.72c7.7-3.14 14.45-5.61 15-5.47zM30.21 4.05c1.48-.04 1.78 1.44 2.24 11.2.3 6.19.54 34.09.55 112.75H1L.98 72.75c-.01-43.06.27-55.62 1.25-56.94.7-.93 6.9-3.94 13.77-6.7 6.88-2.76 13.27-5.03 14.21-5.06zm337.11-.01c1.52-.03 1.89.97 2.26 6.21.23 3.44.43 31.34.42 117.75l-31.5-.5.28-113.49 5.86-2.52c3.22-1.39 6.54-2.51 7.36-2.49.82.02 4.2-1.08 7.5-2.44 3.3-1.36 6.82-2.49 7.82-2.52zM134.5 35.45c10.41.3 14.8.9 22 3.03 4.95 1.47 9.22 2.87 9.5 3.12.28.26-1.01 5.51-2.86 11.68-1.84 6.17-3.87 11.77-4.5 12.45-.89.97-2.8.59-8.89-1.75-4.26-1.64-10.98-3.44-14.93-4-6.09-.86-7.58-.77-9.75.6-2.56 1.61-2.56 1.62-.57 3.43 1.1 1 6.72 3.26 12.5 5.02 5.78 1.76 12.97 4.44 16 5.96 3.03 1.51 6.87 4.27 8.56 6.13 1.68 1.86 3.65 5.18 4.38 7.38.86 2.61 1.18 7.13.91 13-.34 7.18-.92 9.91-2.9 13.5-1.53 2.78-4.38 5.76-7.46 7.81-2.75 1.82-7.24 3.96-9.99 4.76-3.22.93-9.55 1.45-17.75 1.44-7.01-.01-15.11-.5-18-1.1-2.89-.59-8.29-1.94-12-3-5.45-1.54-6.75-2.3-6.75-3.91 0-1.1 1.46-6.73 3.25-12.51 2.51-8.13 3.65-10.51 5-10.5.96 0 3.44.71 5.5 1.56 2.06.85 7.24 2.42 11.5 3.5 4.26 1.07 9.89 1.94 12.5 1.93 2.61 0 5.35-.34 6.07-.75.73-.4 1.18-1.61 1-2.69-.22-1.36-1.86-2.46-5.32-3.6-2.75-.9-8.37-2.66-12.5-3.91-4.12-1.25-9.07-3.07-11-4.03-1.93-.96-5.02-3.05-6.89-4.63-1.86-1.58-4.22-4.56-5.25-6.62-1.02-2.06-2.14-6.34-2.48-9.5-.34-3.16-.13-8.22.47-11.25.6-3.03 2.57-7.74 4.37-10.48 2.39-3.62 4.78-5.73 8.78-7.77 3.03-1.53 7.53-3.21 10-3.73 2.47-.51 10.35-.77 17.5-.57zm154.5 0c8.75.24 14 .88 17.5 2.14 3.04 1.08 6.78 3.57 9.56 6.35 2.66 2.66 5.35 6.65 6.45 9.56 1.69 4.48 1.92 8.6 2.49 74.5h-15.5c-14.83 0-15.5-.09-15.5-2 0-1.1-.23-2-.5-2s-2.86 1.12-5.75 2.49c-4.45 2.11-6.7 2.49-14.75 2.49-7.82 0-10.39-.41-14.5-2.31-2.75-1.27-6.46-4.08-8.25-6.24s-3.93-5.95-4.76-8.43c-.93-2.76-1.51-8.18-1.51-14 0-8.4.32-10.13 2.76-14.93 1.52-2.99 4.33-6.71 6.26-8.28 1.93-1.57 6.43-3.75 10-4.84 3.9-1.19 9.3-1.99 13.5-1.98 3.85.01 9.35.59 17.45 2.53l.03-2.75c.01-1.51-1.07-3.99-2.4-5.5-2.3-2.62-2.83-2.75-11.25-2.68-7.18.05-10.04.56-15.33 2.73-3.57 1.47-6.95 2.69-7.5 2.71-.55.02-2.74-4.36-4.86-9.74-2.17-5.48-3.6-10.54-3.25-11.52.39-1.11 3.43-2.66 8.36-4.23 4.26-1.37 10.23-2.92 13.25-3.45 3.02-.53 11.13-.81 18-.62zm-14.95 62c-.04 2.49.69 4.29 2.45 6.05 1.66 1.66 3.6 2.49 5.75 2.48 1.79-.01 5.16-.91 7.5-2C294 102 294 101.99 294 96.5V91c-6.98-1.55-10.37-2-12.05-2-1.91 0-3.94.91-5.45 2.45-1.6 1.64-2.42 3.65-2.45 6zM48 37h32v91H48V82.5" style="fill:#fefefe"/></svg>