<svg xmlns="http://www.w3.org/2000/svg" viewBox="0 0 389 308" width="389" height="308"><style></style><path id="Path 0" d="M7.13 1.25c-.6.69-.86 2.6-.57 4.25.29 1.65 1.53 4.13 2.75 5.5 1.22 1.38 4.02 4.75 6.21 7.5 2.19 2.75 4.43 5.5 4.98 6.11.55.61 2.13 2.41 3.51 4 1.37 1.59 4.3 5.14 6.5 7.89 2.19 2.75 4.23 5.23 4.53 5.5.3.27 2.65 3.2 5.23 6.5 2.58 3.3 5.15 7.58 5.71 9.5.66 2.27 1.02 34.78 1.02 92.25 0 57.59-.36 90.24-1.03 93-.57 2.34-2.04 5.38-3.27 6.75-1.23 1.38-4.03 4.75-6.22 7.5-2.19 2.75-4.21 5.23-4.5 5.5-.28.27-3.66 4.32-7.5 8.99s-7.88 9.59-8.98 10.93c-1.1 1.34-3.37 4.05-5.05 6.01-1.68 1.96-4.49 5.48-6.25 7.82-2.11 2.81-3.12 5.18-2.95 7l.25 2.75h114c.46-5.96-.58-7.8-5.95-14.25-3.55-4.26-11.52-13.82-17.7-21.25-6.19-7.43-13.09-15.98-15.34-19-2.25-3.03-4.64-6.74-5.3-8.25-.91-2.07-1.21-21.26-1.21-77.25 0-40.98.34-74.51.75-74.53.41-.02 1.53.77 2.47 1.75.95.98 1.74 2.12 1.75 2.53.02.41 1.42 3.79 3.13 7.5 1.7 3.71 4.35 9.45 5.88 12.75 1.54 3.3 4.46 9.6 6.5 14s4.62 10.03 5.74 12.5c1.12 2.47 3.35 7.43 4.97 11 1.62 3.57 4.3 9.43 5.97 13 1.66 3.57 4.26 9.2 5.78 12.5 1.52 3.3 3.68 8.03 4.81 10.5 1.13 2.47 3.5 7.65 5.27 11.5 1.77 3.85 4.56 9.93 6.21 13.5 1.65 3.57 4.02 8.75 5.26 11.5 1.25 2.75 3.4 7.47 4.78 10.5 1.37 3.03 3.62 7.97 5 11 1.37 3.03 3.85 8.43 5.49 12 1.65 3.57 4.64 10.1 6.64 14.5s4.42 9.73 5.37 11.84c.95 2.12 3.53 7.52 5.73 12l4 8.16c8.29.54 10.36.2 11.06-.67.58-.73 1.82-3.24 2.75-5.58.93-2.34 2.42-6.16 3.31-8.5.89-2.34 1.99-5.15 2.45-6.25.45-1.1 1.79-4.48 2.97-7.5 1.19-3.02 2.84-7.3 3.68-9.5.84-2.2 2.11-5.35 2.81-7 .71-1.65 2.06-5.02 3-7.5.95-2.47 2.3-5.85 3-7.5.71-1.65 2.06-5.03 3.01-7.5.95-2.47 2.35-5.96 3.1-7.75s1.36-3.7 1.36-4.25c0-.55.64-2.24 1.42-3.75.78-1.51 2.19-4.78 3.12-7.25.93-2.47 2.08-5.4 2.55-6.5.47-1.1 1.78-4.47 2.91-7.5 1.13-3.03 2.49-6.4 3.01-7.5.53-1.1 2.55-6.28 4.49-11.5 1.94-5.22 3.92-10.4 4.4-11.5.47-1.1 1.54-3.8 2.38-6 .83-2.2 2.96-7.6 4.72-12 1.76-4.4 3.89-9.8 4.73-12 .84-2.2 2.1-5.35 2.8-7 .71-1.65 1.96-4.8 2.77-7 .82-2.2 2.94-7.6 4.7-12 1.76-4.4 3.88-9.8 4.71-12 .83-2.2 2.13-5.24 2.9-6.75.76-1.51 1.39-3.42 1.39-4.25 0-.83.45-1.5 1-1.5s1.23.67 1.5 1.5.5 40.54.49 88.25v86.75c-25.32 24.8-33.19 33.01-33.83 34.25-.8 1.55-.85 2.87-.16 4.25.99 1.97 2 2 74.5 2 40.43 0 74.18-.23 75-.5.85-.28 1.5-1.7 1.5-3.25.01-2.22-2.98-5.72-15.6-18.25-8.58-8.52-16.23-16.96-17-18.75-1.17-2.72-1.4-21.27-1.4-113.25 0-102.7.12-110.24 1.75-113.67.99-2.08 8.59-10.2 17.54-18.75C385.3 9.15 388.07 6.02 388.04 3.75c-.02-1.53-.71-2.97-1.54-3.25-.82-.27-24.45-.5-52.5-.5-49.67 0-51.05.05-53 2-1.1 1.1-2 2.56-2.01 3.25 0 .69-.58 2.38-1.28 3.75-.71 1.38-2.11 4.75-3.13 7.5-1.01 2.75-2.4 6.35-3.09 8-.69 1.65-2.23 5.48-3.42 8.5-1.2 3.02-2.55 6.4-3.01 7.5-.46 1.1-2.19 5.38-3.84 9.5-1.65 4.13-4.4 10.99-6.11 15.25l-6.22 15.5c-1.71 4.26-4.36 10.9-5.89 14.75-1.53 3.85-4.23 10.6-6 15-1.77 4.4-3.6 8.9-4.06 10-.46 1.1-1.8 4.47-2.99 7.5-1.19 3.03-2.54 6.4-3 7.5-.46 1.1-1.81 4.47-3 7.5-1.19 3.03-2.54 6.4-3.02 7.5-.47 1.1-2.47 6.05-4.44 11-1.98 4.95-3.99 9.9-4.48 11-.48 1.1-1.92 4.81-3.2 8.24-1.89 5.1-2.72 6.23-4.56 6.25-1.34 0-2.25-.6-2.25-1.49 0-.82-1.08-3.64-2.39-6.25A393.67 393.67 0 0 1 194.7 169c-1.38-3.03-3.96-8.65-5.72-12.5-1.76-3.85-4.23-9.25-5.47-12-1.25-2.75-3.4-7.47-4.78-10.5-1.37-3.03-3.5-7.75-4.73-10.5-1.23-2.75-3.35-7.47-4.73-10.5-1.37-3.03-3.76-8.2-5.3-11.5-1.53-3.3-3.78-8.25-5-11-1.21-2.75-3.55-7.92-5.2-11.5-1.65-3.58-4.11-8.97-5.48-12-1.37-3.03-3.85-8.42-5.51-12-1.67-3.58-4.37-9.42-6-13S133 33.7 132 31.5c-.99-2.2-3.25-7.15-5.02-11-1.76-3.85-4.27-9.25-5.57-12-1.3-2.75-2.38-5.56-2.39-6.25-.01-.69-.69-1.48-1.52-1.75-.83-.27-25.75-.5-55.39-.5C20.25 0 7.98.28 7.13 1.25z" style="fill:#fefefe"/></svg>