<svg xmlns="http://www.w3.org/2000/svg" viewBox="0 0 400 400" width="400" height="400"><style></style><path id="Path 0" fill-rule="evenodd" d="M0 0h400v400H0V200m261-83.14c-1.93 1.56-4.87 4.59-6.55 6.73-1.68 2.15-4.04 6.5-5.25 9.66s-2.65 8.56-3.19 12c-.55 3.44-1 9.06-1 12.5L245 164h-16v24h16l.5 101.5 27.5.5.5-101.5 22-1 .5-23.5-22.5-.5c.14-15.31.66-18.97 1.83-21.25.92-1.79 2.91-4.17 4.42-5.28 2.14-1.59 4.24-2.03 9.5-2l6.75.03c0-23.63-.07-24.01-2.25-24.49-1.24-.26-5.85-.47-10.25-.46-5.41.01-9.78.66-13.5 2.01-3.02 1.09-7.07 3.25-9 4.8zm-155.5-4.36L105 290h27l.5-63.5c23.13-1.11 30.79-2.08 36-3.46 4.4-1.17 10.9-3.56 14.45-5.33 3.68-1.83 9.07-5.78 12.57-9.21 4.26-4.18 7.2-8.27 9.71-13.5 1.97-4.12 4.13-10.2 4.8-13.5.66-3.3 1.17-10.05 1.13-15-.05-4.95-.77-11.59-1.62-14.75-.85-3.16-2.5-7.66-3.67-10-1.16-2.34-3.59-6.28-5.38-8.75-1.79-2.47-5.9-6.44-9.12-8.82-3.23-2.38-8.34-5.37-11.37-6.66-3.03-1.29-9.1-3.03-13.5-3.87-4.4-.84-12.72-1.66-18.5-1.84-5.78-.17-17.7-.09-26.5.19l-16 .5zm42.5 23.96c8.98.26 13.87.88 17.36 2.2 2.67 1.01 6.69 3.41 8.92 5.34 2.24 1.93 5.11 5.75 6.39 8.5 1.92 4.16 2.31 6.68 2.33 15 .02 6.32-.53 11.66-1.49 14.5-.83 2.47-2.86 6.19-4.51 8.25-1.84 2.3-5.61 5.01-9.73 7-6.51 3.15-7.19 3.26-35.27 3.75l-.24-31.93c-.24-31.14-.19-31.94 1.75-32.45 1.09-.29 7.62-.36 14.49-.16z" style="fill:#fffffe"/></svg>