<svg xmlns="http://www.w3.org/2000/svg" viewBox="0 0 400 400" width="400" height="400"><style></style><path id="Path 0" fill-rule="evenodd" d="M-.04 0 42.5-.02l3.17 9.76c1.74 5.37 5.26 16.51 7.81 24.76 2.56 8.25 5.4 16.8 6.31 19 .92 2.2 1.57 4.9 1.45 6-.12 1.1-.78 2.31-1.48 2.68-.69.38-1.49.54-1.76.35-.27-.19-.62.18-.78.82-.15.63-.46 2.95-.68 5.15-.22 2.2-.66 6.36-.97 9.25-.31 2.89-1.33 6.94-2.27 9-.93 2.06-2.17 4.08-2.75 4.48-.65.46-.67.75-.05.77.67.02.67.28 0 .77-.55.4-1.56 1.74-2.25 2.98S47 99.13 47 100.5c0 1.38-.45 2.5-1 2.5s-.91.34-.81.75c.11.41-.12 2.21-.5 4-.46 2.17-1.27 3.25-2.44 3.25-1.04 0-2.83-1.92-4.42-4.75-1.47-2.61-4.77-8.8-7.33-13.75-2.56-4.95-5.27-9.67-6.01-10.5-.74-.83-1.84-2.62-2.44-4-.6-1.37-2.41-4.53-4.02-7-1.61-2.47-4.75-8.1-6.97-12.5-2.22-4.4-5.06-9.95-6.3-12.33-1.24-2.38-2.71-4.29-3.26-4.24C.87 41.97.4 34.22.23 21M105.5-.04l1.26 5.77c.69 3.17 2.15 10.38 3.25 16.02C111.1 27.39 112 33.35 112 35c0 2.03-.73 3.46-2.25 4.41-1.24.78-5.17 2.64-8.75 4.14-3.58 1.5-7.09 3.34-7.82 4.09-.73.75-1.97 1.36-2.75 1.36-.79 0-1.54.34-1.68.75-.14.41-2.84 2.66-6 5S76.1 59 75 59c-1.24 0-2.43-1.04-3.13-2.75-.62-1.51-1.72-4.1-2.44-5.75-.71-1.65-1.96-5.02-2.77-7.5-.81-2.48-2.21-6.52-3.1-9-.9-2.48-2.91-7.2-4.46-10.5-1.55-3.3-3.16-7.57-3.56-9.5-.4-1.93-1.59-4.96-2.64-6.75C51.86 5.46 51 3.1 51 2c0-1.95.67-2 54.5-2.04zM163 0l.26 10.75c.14 5.91-.08 11.54-.5 12.5-.5 1.16-2.37 1.96-5.51 2.38-2.61.35-7 1.43-9.75 2.4-2.75.98-5.68 1.8-6.5 1.83-.82.03-3.53.57-6 1.19s-6.3 1.36-8.5 1.65c-3.26.43-4.15.18-4.8-1.34-.43-1.02-2.15-7.71-3.8-14.86-1.65-7.15-3.24-13.79-3.54-14.75C113.85.12 115.45 0 163 0zm7.68 0H220l-.57 7.75c-.31 4.26-.99 9.44-2.43 15.25l-20.25.29c-11.14.16-21.26-.07-22.5-.5-1.76-.62-2.22-1.5-2.12-4.04.08-1.79-.22-6.74-.66-11M228 0h52l-1.39 3.75c-.77 2.06-2.11 6.22-2.99 9.25-.88 3.02-1.61 6.63-1.62 8-.02 1.38-.59 4.23-2.5 10.19l-5-.47c-2.75-.26-7.02-1.02-9.5-1.68-2.47-.66-5.4-1.44-6.5-1.72-1.1-.29-3.8-.62-6-.74s-4.56-.52-5.25-.9c-.69-.37-3.05-.68-5.25-.68-3 0-4.25-.5-5-2-.55-1.1-1-6.72-1-12.5M312.98 0c22.55 0 29.02.28 29.01 1.25 0 .69-2.05 6.2-4.55 12.25s-5.85 14.82-7.43 19.5c-1.59 4.67-3.59 9.85-4.44 11.5-.86 1.65-1.56 3.56-1.56 4.25-.01.69-.8 2.83-1.76 4.76-.96 1.94-2.31 3.74-3 4-.69.27-3.94-1.2-7.24-3.26-3.29-2.06-6.78-4.46-7.75-5.32-.97-.87-2.77-1.88-4.01-2.25-1.24-.38-2.24-1.02-2.23-1.43.01-.41-3.7-2.29-8.25-4.16-4.55-1.88-9.06-4.13-10.02-5-1.36-1.24-1.62-2.58-1.18-6.09.31-2.48 1.49-9.68 2.61-16 1.12-6.32 2.2-12.06 2.4-12.75.29-.96 7.04-1.25 29.4-1.25zm86.77 0-.13 14.75c-.09 11.22-.42 14.69-1.37 14.5-.69-.14-2.78 2.34-4.64 5.5-1.86 3.16-4.64 8.23-6.18 11.25-1.53 3.02-5.35 10-8.5 15.5-3.14 5.5-7.97 14.28-10.74 19.5-2.77 5.22-6.08 11.38-7.36 13.68-1.69 3.02-2.88 4.1-4.33 3.9-1.1-.16-3.53-.69-5.4-1.18-1.87-.5-3.55-1.46-3.75-2.15-.19-.69-.8-1.25-1.35-1.25s-1.89-1.01-2.97-2.25c-1.08-1.24-1.98-2.81-2-3.5-.02-.69-1.32-3.16-2.9-5.5-1.59-2.34-3.16-5.26-3.5-6.5-.35-1.24-.97-2.24-1.38-2.22-.41.01-1.31-1.11-2-2.5S329.32 69 328.5 69c-.82 0-1.81-1.01-2.2-2.25-.38-1.24-.58-2.92-.45-3.75.13-.83 4.55-15 9.82-31.5 5.27-16.5 9.77-30.34 10-30.75.24-.41 12.5-.75 54.08-.75zm.25 135-2.92 3.25c-1.61 1.79-4.53 5.28-6.5 7.75-1.97 2.47-5.15 6.86-7.08 9.75-1.92 2.89-3.95 5.25-4.5 5.25-.55 0-1.31.11-1.68.25-.37.14-.99-.87-1.38-2.25-.39-1.37-.1-7.68.64-14 .73-6.32 1.35-15.89 1.38-21.25.03-6.61-.36-10.1-1.21-10.83-.69-.59-3.01-2.05-5.15-3.25-2.15-1.19-4.4-2.94-5-3.87-.88-1.36.07-4.17 4.73-14 3.2-6.77 6.38-13.42 7.06-14.8.67-1.37 2.62-5.2 4.33-8.5 1.7-3.3 5.4-11.17 8.22-17.5 2.82-6.33 5.9-12.08 6.84-12.79 1.62-1.22 1.73 1.57 2.22 96.79zM1.5 60c.83 0 1.52.84 1.55 1.86.03 1.03 1.39 3.61 3.02 5.75C7.7 69.75 9.26 72.63 9.52 74c.26 1.38 1.62 4.75 3.02 7.5s3.27 6.35 4.16 8c.89 1.65 2 3.67 2.46 4.5.47.83 1.31 2.63 1.87 4 .56 1.38 1.67 3.85 2.46 5.5s2.74 5.92 4.32 9.5c1.59 3.58 3.65 7.17 4.57 8 .92.83 1.94 2.85 2.26 4.5.32 1.65 1.54 4.03 2.72 5.29 2.08 2.22 2.09 2.39.41 5.5-.96 1.77-2.98 3.89-4.5 4.71-1.53.82-3.22 1.85-3.77 2.28-.55.44-1.78 1.34-2.73 2-1 .71-2.58 4.6-3.74 9.22-1.1 4.4-2.01 9.01-2.01 10.25-.01 1.24-.25 2.93-.52 3.75-.39 1.17-1.06.9-3.08-1.25-1.42-1.51-4.42-5.22-6.68-8.25-2.25-3.03-5.6-7.3-10.78-13.5l.02-42.75C0 65.43.19 60 1.5 60zM143 70.47c42.97.22 58.89.65 70.5 1.92 8.25.9 21.75 2.75 30 4.12 8.25 1.36 23.1 4.51 33 7 9.9 2.48 23.4 6.36 30 8.61 6.6 2.25 17.63 6.3 24.5 9.01 6.88 2.71 17.68 7.5 35.5 16.37l.77 5c.43 2.75.5 9.95.17 16-.33 6.05-1.23 15.72-1.99 21.5-.76 5.78-3.09 20.07-5.17 31.76-2.55 14.36-4.19 21.26-5.03 21.25-.69 0-19.59-3.86-42-8.56-22.41-4.7-44.8-9.42-49.75-10.49-4.95-1.07-9.07-2.07-9.15-2.21-.08-.14-.88-5.2-1.78-11.25s-1.98-12.57-2.39-14.5c-.69-3.19-1.2-3.61-5.72-4.72-2.73-.67-9.68-1.68-15.46-2.25-5.78-.57-14.89-1.04-30-1.03l-6.5 11.5c-6.43 11.38-6.53 11.5-9.75 11.04-1.79-.25-5.28-.7-7.75-1-2.47-.31-13.72-1.22-25-2.04-11.28-.82-35.65-1.83-87.84-3l-.74-11.5c-.43-6.67-.22-22.01.5-36.5.68-13.75 1.99-31.37 2.91-39.16.92-7.79 1.89-14.41 2.17-14.71.28-.3 5-.98 10.5-1.5s34.97-.82 65.5-.66zM398.7 151c1.08 0 1.28 5.67 1.06 30.25-.2 23.56-.54 30.19-1.51 30-.69-.14-3.76 2.34-6.83 5.5-3.07 3.16-8.36 8.56-11.75 11.99-3.39 3.42-7.87 7.47-9.95 9-3.05 2.22-4.03 2.51-5 1.49-.96-1-.95-2.67.03-7.75.69-3.56 1.05-6.82.81-7.23-.24-.41.46-7.72 1.55-16.25 1.09-8.53 2.52-16.44 3.18-17.59.67-1.15 3.01-4.7 5.21-7.89 2.2-3.19 4.68-6.81 5.5-8.04.82-1.23 3.29-4.88 5.47-8.11a443.8 443.8 0 0 1 7.43-10.62c1.91-2.61 4.07-4.75 4.8-4.75zM.7 161c.38 0 1.46 1.91 2.4 4.25s3.3 6.5 5.25 9.25c1.95 2.75 5.97 8.6 8.94 13 2.97 4.4 5.98 9.8 6.69 12 .71 2.2 1.66 4.9 2.1 6 .44 1.1 1.39 8.19 2.11 15.76 1 10.53 1.04 14.16.14 15.5-.64.96-.98 2.75-.75 3.99.23 1.24.31 2.26.17 2.28-.14.02-6.43-5.94-27.72-26.53l-.01-27.75C.01 173.49.31 161 .7 161zm202.1 10c2.03-.01 8.65.65 14.7 1.45 6.05.79 13.36 1.92 16.25 2.5 4.24.85 5.33 1.48 5.68 3.3.23 1.24 1.02 6.69 1.75 12.11.72 5.43 1.54 10.01 1.82 10.19.28.17 8.82 2.17 19 4.44 10.18 2.27 22.44 5 27.25 6.07 4.81 1.07 10.1 2.62 11.75 3.44 1.65.82 3.45 2.63 4 4 .78 1.96.26 5.16-2.42 14.75-1.88 6.74-4.61 15.4-6.06 19.25-1.45 3.85-3.74 8.46-5.08 10.25-1.34 1.79-3.9 4.13-5.69 5.2-1.79 1.07-5.05 2.2-7.25 2.52-2.2.32-8.95-.1-15-.93-6.05-.83-20.45-2.2-32-3.03-11.55-.83-26.4-2-33-2.59-6.6-.59-23.93-1.39-65-2.48l-5.32-2.97c-2.93-1.63-6.41-4.54-7.75-6.47-1.33-1.93-3.05-5.53-3.81-8-.75-2.47-2.54-11.47-3.96-20s-2.85-17.53-3.17-20c-.46-3.53-.09-5.47 1.71-9 1.38-2.71 3.49-5.07 5.3-5.92 2.55-1.21 5.76-1.24 21.5-.2 10.18.68 24.35 1.9 31.5 2.71 7.15.81 13.66 1.58 14.47 1.69.9.14 3.12-2.84 5.8-7.78 2.38-4.4 5.45-9.46 6.83-11.25 2.01-2.63 3.2-3.25 6.2-3.25zm-63.99 37.06c.1.24 7.95.77 17.44 1.16 9.49.4 23.32 1.63 30.75 2.74 7.43 1.11 17.55 2.72 22.5 3.57 4.95.86 13.28 2.65 18.5 3.98 5.22 1.33 17.82 4.69 28 7.47 10.18 2.77 18.84 5.04 19.25 5.03.41 0 .14-1.7-.6-3.76-1.25-3.46-1.89-3.92-8.25-5.9-3.8-1.18-13.43-3.52-21.4-5.2-7.97-1.68-22.15-4.4-31.5-6.04-9.35-1.64-23.3-3.92-31-5.06-7.7-1.15-19.62-2.35-26.5-2.69-12.28-.59-12.54-.56-14.94 1.84-1.34 1.33-2.36 2.62-2.25 2.86zM194 241.29c3.92 1.93 5.91 2.18 15.5 2 6.05-.12 13.24-.8 15.99-1.5 2.88-.75 5.11-1.92 5.28-2.79.24-1.26-2.23-1.6-15.49-2.16-11.28-.46-17.78-1.23-22.78-2.68-3.85-1.12-7.9-2.35-9-2.74-1.34-.48-.69.66 2 3.47 2.2 2.3 6.03 5.18 8.5 6.4zm205.25-13.26c.41-.02.75 9.19.75 20.47 0 17.78-.2 20.43-1.5 20-.82-.27-3.19.89-5.25 2.58-2.06 1.7-9.37 6.81-16.25 11.37-6.87 4.56-13.18 9.05-14 9.97-.82.92-1.95 1.63-2.5 1.59-.55-.05-3.25 1.62-6 3.7-2.76 2.09-5.91 4.37-7 5.07-1.1.7-3.29 2.05-4.86 3-1.57.95-5.4 3.64-8.5 5.99-3.1 2.35-6.09 4.27-6.64 4.26-.55-.01-2.01-.69-3.25-1.52-1.24-.83-2.25-2.41-2.25-3.51 0-1.32 1.44-2.78 4.25-4.31 2.34-1.27 5.49-2.62 7-3 1.51-.38 3.76-1.7 5-2.94 1.24-1.24 2.35-3.6 2.46-5.25.12-1.65.46-4.01.75-5.25.3-1.24 2.23-4.07 4.29-6.3 2.06-2.22 4.09-4.02 4.5-4 .41.03 2.79-1.41 5.28-3.2 2.49-1.79 4.52-3.93 4.51-4.75-.02-.82.76-2.68 1.72-4.13.96-1.45 7.14-8.37 13.74-15.38 6.6-7 14.48-15.37 17.5-18.58 3.02-3.22 5.84-5.87 6.25-5.88zM.02 234.5l2.72 3.5c1.5 1.93 8.36 9.34 15.24 16.48 6.89 7.14 14.54 15.19 17.02 17.88 2.48 2.7 6.3 6.8 8.5 9.13 2.57 2.72 4.26 5.62 4.74 8.12.41 2.14.73 5.02.72 6.39-.01 1.83 1.2 3.37 4.51 5.75 2.49 1.79 4.54 3.81 4.56 4.5.01.69-1.11 1.81-2.5 2.5-2.28 1.13-2.9.94-6.28-1.87-2.06-1.72-5.49-4.3-7.62-5.75-2.12-1.45-5.31-3.53-7.08-4.63-1.77-1.1-5.1-3.24-7.39-4.75-2.29-1.51-4.39-3.2-4.66-3.75-.27-.55-1.75-1.56-3.28-2.25-1.53-.69-6.48-3.73-19.26-12.25l.03-19.5m398.76 31.04c.95-.03 1.24 3.54 1.19 29.46l-13.22 5.7c-7.27 3.13-16.37 6.91-20.22 8.4-3.85 1.49-7.68 3.3-8.5 4.02-.82.72-4.09 2.67-7.25 4.34s-6.43 3.04-7.25 3.04c-.82 0-1.99-1.24-2.59-2.75-.6-1.51-1.31-4.1-1.59-5.75-.46-2.67.01-3.38 4.33-6.46 2.67-1.9 4.96-3.82 5.1-4.25.14-.43 1.15-.79 2.25-.79s3.24-.91 4.75-2.03c1.51-1.12 6.88-5.28 11.92-9.25 5.04-3.97 11.25-8.79 13.8-10.72 2.54-1.93 7.19-5.62 10.33-8.21 3.13-2.59 6.26-4.73 6.95-4.75zM.5 290c.27 0 2.19 1.34 4.25 2.98s6 4.79 8.75 7 9.85 7.73 15.78 12.27c5.93 4.54 10.76 8.25 10.74 8.25-.03 0-.62 1.57-1.31 3.5-.7 1.93-1.93 4.51-2.74 5.75-.81 1.24-2.26 2.26-3.22 2.25-.96 0-8.73-3.04-32.76-13.5v-14.25C0 296.41.23 290 .5 290zm100.67 20.32c5.87.1 10.94.41 11.27.68.33.27-.89 2.75-2.72 5.5s-4.35 7.7-5.6 11-2.58 8.16-2.95 10.8c-.52 3.72-.33 5.02.83 5.74.83.51 3.75 1.58 6.5 2.38 2.75.8 9.72 2.15 15.5 3.01 7.18 1.06 18 1.55 34.25 1.56 13.06.01 29.49-.47 36.5-1.06 7.01-.58 14.1-1.23 15.75-1.43 1.65-.2 3.22-.39 3.5-.41.28-.03 1.09-2.65 1.82-5.82.72-3.17 2.27-8.7 3.44-12.27 1.18-3.57 3.51-8.02 5.19-9.88 1.68-1.85 5.08-4.52 7.55-5.92 3.46-1.96 6.35-2.66 12.5-3.01 4.4-.25 13.18.06 19.5.7 6.32.65 12.85 1.41 14.5 1.7 1.65.3 3 1.17 3 1.94 0 .76-1.75 2.2-3.88 3.18s-5.71 3.81-7.95 6.29-5.09 6.75-6.33 9.5c-1.24 2.75-2.77 8.38-3.41 12.5-.65 4.23-.88 10.77-.52 15 .35 4.13 1.57 9.98 2.71 13 1.14 3.02 2.71 6.74 3.48 8.25.77 1.51 3.09 4.6 5.15 6.85 2.06 2.26 5.45 5.07 7.52 6.25 2.08 1.18 3.77 2.49 3.75 2.9-.01.41-49.74.75-221.02.75l.54-9.25c.3-5.09.99-13.98 1.54-19.75.54-5.77 1.87-15.56 2.95-21.75 1.08-6.19 3.07-14.74 4.42-19s3.49-9.28 4.75-11.16c1.27-1.87 3.43-4.27 4.8-5.32 1.38-1.06 4.3-2.3 6.5-2.77 2.2-.47 8.8-.77 14.67-.68zm297.08 22.83c1.58-.14 1.75 1.05 1.75 12.35 0 9.67-.28 12.36-1.25 11.88-.69-.35-9.57 1.5-19.75 4.11-15.56 3.99-18.94 4.57-21.25 3.63-2.08-.85-2.87-1.98-3.25-4.62-.27-1.93-.11-4.06.37-4.75.48-.69 4.65-3.19 9.25-5.55 4.61-2.37 13.78-7.14 20.38-10.6s12.79-6.36 13.75-6.45zM.47 336c.29 0 5.37 2.38 11.28 5.3 5.91 2.91 12.89 6.51 15.5 8 2.61 1.48 4.75 3.38 4.75 4.2 0 .82-1.69 3.28-3.75 5.45-2.07 2.19-5.09 4.22-6.75 4.54-1.77.35-6.68-.37-21-4.11l-.28-11.69C.06 341.26.18 336 .47 336zM398 374.32c1.23.17 1.55 2.5 2 25.68h-3.5c-2.66 0-3.68-.51-4.25-2.12-.41-1.16-2.55-2.91-4.75-3.87-2.3-1.01-5.38-3.61-7.27-6.13-1.79-2.41-3.16-4.86-3.04-5.45.11-.58 2.48-1.97 5.26-3.09 2.78-1.12 7.07-2.75 9.55-3.62 2.48-.88 5.18-1.51 6-1.4zM.58 376.75c.23.69 1.09 1.25 1.92 1.25.83 0 1.51.11 1.52.25.01.14-.66 1.71-1.5 3.5S.77 385 .5 385s-.46-2.14-.42-4.75c.04-2.61.27-4.19.5-3.5z" style="fill:#fff"/></svg>