<svg xmlns="http://www.w3.org/2000/svg" viewBox="0 0 264 264" width="264" height="264"><style></style><path id="Path 0" fill-rule="evenodd" d="M131 .14c6.32-.06 15.55.53 20.5 1.3 4.95.77 13.05 2.58 18 4.02 4.95 1.44 13.95 5.02 20 7.96 6.05 2.94 15.5 8.7 21 12.81 5.5 4.11 12.7 10.36 16 13.89 3.3 3.54 7.14 7.77 8.54 9.4 1.4 1.64 4.52 5.9 6.94 9.48 2.42 3.58 6.54 11 9.16 16.5 2.61 5.5 5.92 14.05 7.34 19 1.43 4.95 3.25 13.05 4.05 18 .81 4.95 1.46 13.72 1.46 19.5 0 5.78-.65 14.55-1.46 19.5-.8 4.95-2.62 13.05-4.05 18-1.42 4.95-4.73 13.5-7.34 19-2.62 5.5-6.74 12.93-9.16 16.5-2.42 3.57-5.54 7.84-6.94 9.48-1.4 1.64-5.47 6.07-9.04 9.84-3.57 3.77-10.32 9.75-15 13.29-4.68 3.54-13.9 9.11-20.5 12.39-6.6 3.27-16.05 7.12-21 8.55-4.95 1.43-13.05 3.24-18 4.01-4.95.77-13.72 1.4-19.5 1.4-5.78 0-14.55-.65-19.5-1.44-4.95-.79-12.15-2.3-16-3.35-3.85-1.06-9.25-2.82-12-3.92S76.58 251.79 73 250s-9.42-5.14-13-7.43c-3.58-2.3-7.85-5.28-9.5-6.62-1.65-1.34-6.61-6.04-11.02-10.44-4.4-4.41-9.15-9.36-10.53-11.01-1.39-1.65-4.51-5.93-6.93-9.5-2.42-3.57-6.54-11-9.16-16.5-2.61-5.5-5.92-14.05-7.36-19-1.43-4.95-3.25-13.28-4.05-18.5-.79-5.22-1.44-14-1.44-19.5s.65-14.05 1.46-19c.8-4.95 2.62-13.05 4.05-18 1.42-4.95 4.73-13.5 7.34-19C15.48 70 19.6 62.58 22.02 59s5.54-7.85 6.93-9.5c1.38-1.65 6.13-6.6 10.53-11.01 4.41-4.4 9.37-9.1 11.02-10.44 1.65-1.34 5.92-4.32 9.5-6.62s9.65-5.73 13.5-7.64c3.85-1.9 9.47-4.41 12.5-5.58 3.03-1.17 8.42-2.89 12-3.83 3.58-.93 9.88-2.25 14-2.92 4.13-.67 12.67-1.27 19-1.32zM97.5 17.06c-3.85 1.17-8.58 2.81-10.5 3.65-1.92.84-6.2 2.89-9.5 4.57-3.3 1.67-9.15 5.07-13 7.54-3.85 2.47-11.54 9.04-17.09 14.59-6.01 6-12.39 13.64-15.75 18.84-3.11 4.81-6.75 11.11-8.08 14-1.33 2.89-2.96 6.6-3.61 8.25-.65 1.65-2.06 5.92-3.12 9.5-1.07 3.58-2.6 10.78-3.4 16-.81 5.22-1.46 13.44-1.46 18.25.01 4.81.67 12.91 1.48 18 .81 5.09 2.43 12.4 3.6 16.25 1.17 3.85 2.81 8.57 3.64 10.5.84 1.93 2.88 6.2 4.55 9.5 1.66 3.3 5.26 9.38 8 13.5 2.74 4.13 9.32 11.81 14.61 17.08 5.3 5.27 12.78 11.62 16.63 14.12 3.85 2.5 9.47 5.87 12.5 7.49 3.03 1.62 7.97 3.9 11 5.08 3.03 1.18 7.97 2.84 11 3.69 3.03.85 9.55 2.21 14.5 3.03 4.95.81 13.16 1.48 18.25 1.49 5.09.01 13.41-.65 18.5-1.47s12.18-2.33 15.75-3.35c3.57-1.02 8.3-2.65 10.5-3.62 2.2-.98 6.7-3.13 10-4.8 3.3-1.66 9.38-5.27 13.5-8.02 4.13-2.75 11.55-9 16.5-13.89 4.95-4.9 10.12-10.57 11.49-12.61 1.37-2.05 2.73-3.94 3.01-4.22.29-.28 2.15-3.2 4.14-6.5 1.99-3.3 4.75-8.47 6.12-11.5 1.38-3.03 3.39-8.2 4.48-11.5 1.08-3.3 2.47-8.25 3.08-11 .61-2.75 1.58-7.7 2.15-11 .58-3.3 1.05-10.28 1.04-15.5 0-5.22-.65-13.78-1.44-19-.79-5.22-2.41-12.65-3.6-16.5-1.19-3.85-2.85-8.58-3.68-10.5-.84-1.92-2.48-5.53-3.66-8-1.17-2.47-4.77-8.55-7.99-13.5-3.47-5.33-9.79-12.91-15.5-18.58-5.3-5.27-12.79-11.62-16.64-14.12-3.85-2.5-9.47-5.87-12.5-7.49-3.03-1.62-7.97-3.9-11-5.08-3.03-1.18-7.97-2.83-11-3.67-3.03-.85-9.32-2.21-14-3.03-4.68-.82-13.45-1.45-19.5-1.39-6.05.06-14.6.71-19 1.45-4.4.75-11.15 2.31-15 3.47zM99.67 65c.18 0 3.82 1.97 8.08 4.38 4.26 2.4 9.33 5.27 11.25 6.37 1.92 1.1 10.47 6.04 19 10.98s17.86 10.4 20.75 12.13c2.89 1.72 5.47 3.14 5.75 3.14.28 0 1.74.85 3.25 1.88 1.51 1.04 5 3.12 7.75 4.63 2.75 1.51 9.05 5.12 14 8.03 4.95 2.9 11.03 6.46 13.5 7.89 2.47 1.44 5.97 3.39 7.77 4.34 1.8.95 3.27 2.41 3.27 3.23 0 .82-1.47 2.28-3.27 3.23-1.8.95-5.3 2.9-7.77 4.34-2.47 1.43-8.55 4.99-13.5 7.89-4.95 2.91-11.25 6.52-14 8.03-2.75 1.51-6.24 3.59-7.75 4.63-1.51 1.03-2.97 1.88-3.25 1.88-.28 0-3.43 1.8-7 4s-6.72 4-7 4c-.28 0-2.19 1.06-4.25 2.35s-13.31 7.81-25 14.5c-11.69 6.68-21.7 11.93-22.25 11.65-.6-.3-1-6.17-1-28.5l-5.25 2.9c-2.89 1.6-6.83 3.79-8.75 4.87s-5.19 2.92-7.25 4.09c-2.06 1.18-4.2 1.92-4.75 1.64-.65-.32-1-18.5-1-51.5s.35-51.18 1-51.5c.55-.28 2.69.46 4.75 1.64 2.06 1.17 5.66 3.2 8 4.5 2.34 1.3 6.28 3.49 13.25 7.36l-.17-13.83c-.09-7.61.21-14.14.67-14.5.46-.37.98-.67 1.17-.67zm10.38 36.5c27.29 15.5 37.74 21.48 40.83 23.29 3.09 1.81 6.65 3.83 7.9 4.5 1.25.66 2.26 1.89 2.25 2.71-.02.82-3.29 3.35-7.28 5.6-3.99 2.26-15.35 8.75-25.25 14.42s-18.14 10.35-18.31 10.4c-.16.04-.26 3.9-.2 8.58s.2 8.62.31 8.78c.11.15 4.25-2.05 9.2-4.88 4.95-2.84 11.03-6.28 13.5-7.65 2.47-1.36 6.53-3.73 9-5.25 2.47-1.53 11.03-6.49 19-11.03 7.97-4.53 17.65-10.13 21.5-12.43 3.85-2.31 7.79-4.49 8.75-4.87.96-.37 1.75-1.12 1.75-1.67 0-.55-.79-1.3-1.75-1.67-.96-.38-4.9-2.56-8.75-4.87-3.85-2.3-13.53-7.91-21.5-12.46-7.97-4.55-17.76-10.24-21.75-12.64-3.99-2.4-7.47-4.36-7.75-4.36-.28 0-3.43-1.8-7-4-3.58-2.2-6.84-4.01-7.25-4.02-.41-.01-1.87-.9-3.25-1.98-1.37-1.08-2.84-1.97-3.25-1.98-.41-.01-.74 3.92-.73 8.73l.03 8.75zm-27.96 30.43c-.06 21.44.26 33.07.91 33.07.55 0 4.15-1.8 8-4l7-4v-50c-8.91-5.18-12.47-7.01-13.66-7.41l-2.15-.72M110 132v17.5c0 .28 5.51-2.71 12.25-6.64 6.74-3.93 13.48-7.86 14.99-8.75 1.51-.89 2.75-1.83 2.75-2.11 0-.28-1.24-1.22-2.75-2.11-1.51-.89-8.29-4.8-15.08-8.7-6.79-3.89-12.3-6.88-12.25-6.64.05.25.09 8.1.09 17.45z" style="fill:#fff"/></svg>