<svg xmlns="http://www.w3.org/2000/svg" viewBox="0 0 512 512" width="512" height="512"><style></style><path id="Path 0" d="M253 3.5c0 .83-3.71 8.81-8.25 17.75s-12.12 22.1-16.85 29.25c-4.74 7.15-12.37 17.72-16.96 23.5-4.6 5.78-12.03 14.33-16.53 19-5.5 5.72-10 9.4-13.79 11.25-3.76 1.84-8.02 2.96-12.87 3.39-4.37.39-8.04.24-9.25-.39-1.1-.57-3.01-2.99-4.24-5.39-1.23-2.4-2.51-6.16-2.85-8.36-.34-2.2-1.45-6.47-2.47-9.5-1.02-3.03-2.97-7.53-4.33-10-1.37-2.47-3.52-5.43-4.8-6.57-1.27-1.14-5.12-3.73-8.56-5.75C125.92 58.54 124.11 58 119 58c-3.33 0-6 .44-6 1 0 .55-1.01.99-2.25.97-1.24-.02-6.41 2.68-11.5 6S89.46 72 88.8 72c-.66 0-5.96 5.06-11.77 11.25-5.82 6.19-12.34 14.17-14.49 17.75-2.16 3.58-4.74 8.86-5.73 11.75-1 2.89-2.1 7.61-2.46 10.5-.44 3.52-.27 5.5.5 6 .63.41 1.15 1.88 1.15 3.25 0 1.38 1.29 4.41 2.86 6.75 1.58 2.34 4.62 5.47 6.75 6.95 2.14 1.49 6.36 3.79 9.39 5.12 3.03 1.33 9.21 3.15 13.75 4.05 4.54.9 9.44 2.42 10.88 3.38 1.45.96 3.53 3.55 4.62 5.75 1.48 2.99 1.81 5.01 1.31 8-.36 2.2-1.88 6.43-3.36 9.4-1.86 3.72-6.05 8.64-13.45 15.75-5.91 5.69-15.36 14.03-21 18.52-5.64 4.49-15.65 11.74-22.25 16.1-6.6 4.36-15.82 9.97-20.5 12.48s-9.35 5.28-10.39 6.16c-1.05.87-4.65 2.51-8 3.63-5.92 1.97-6.12 2.15-6.36 5.75-.2 2.91 1.21 6.55 6.57 16.96 3.76 7.29 9.72 17.89 13.25 23.57 3.54 5.68 9.54 14.45 13.35 19.5 3.8 5.05 10.62 13.45 15.14 18.68 4.52 5.23 10.86 12.01 14.08 15.07 3.22 3.06 8.11 6.86 10.86 8.44 3.82 2.19 6.66 2.97 12 3.31 5.58.34 7.67.05 10.29-1.44 1.81-1.04 4.02-3.45 4.92-5.38.89-1.93 1.81-5.75 2.03-8.5.22-2.75.8-5.9 1.28-7 .49-1.1 2.26-5.04 3.93-8.75 1.83-4.04 4.96-8.67 7.8-11.52 3.04-3.05 6.55-5.4 9.75-6.52 2.75-.95 6.35-1.74 8-1.74 1.65 0 4.57.5 6.5 1.11 1.93.61 5.75 2.14 8.5 3.4 2.75 1.25 7.81 4.36 11.25 6.9 3.44 2.54 9.67 7.88 13.85 11.87 4.19 3.99 10.01 10.4 12.95 14.25 2.93 3.85 6.56 9.7 8.05 13 1.54 3.39 2.94 8.61 3.23 12 .43 5.07.1 6.89-2.16 11.75-1.71 3.68-4.2 6.97-6.92 9.13-2.34 1.85-5.82 4.2-7.75 5.2-1.93 1.01-5.97 2.84-9 4.07-3.44 1.39-6.62 2.03-8.5 1.7-2.15-.38-3.71.07-5.5 1.59-1.37 1.17-2.95 2.09-3.5 2.06-.55-.04-1.74.74-2.65 1.72-.91.98-2.23 3.8-2.93 6.28-1.04 3.67-1.04 5.42.04 9.5.72 2.75 2.21 6.8 3.31 9 1.11 2.2 5.21 7.08 9.12 10.85 3.91 3.77 11.61 10.57 17.11 15.12 5.5 4.55 14.5 11.39 20 15.19 5.5 3.81 15.4 10.02 22 13.82 6.6 3.79 17.29 9.28 23.75 12.21 6.46 2.92 12.31 5.32 13 5.33.69.01 2.33-2.58 3.66-5.75 1.32-3.17 5.53-11.84 9.34-19.27 3.82-7.43 11.15-19.8 16.28-27.5 5.14-7.7 12.4-17.82 16.14-22.5s11.08-12.92 16.31-18.32c6.19-6.38 11.27-10.66 14.52-12.23 2.75-1.33 6.57-2.71 8.5-3.06 2.08-.38 5.09-.09 7.41.73 2.57.91 5.07 2.93 7.28 5.88 2.62 3.49 3.37 5.45 3.34 8.75-.02 2.34.92 7.06 2.07 10.5 1.16 3.44 3.59 8.5 5.4 11.25 1.81 2.75 4.8 6.15 6.65 7.56 1.84 1.41 4.92 3.21 6.85 4 1.98.82 6.53 1.41 10.5 1.37 5.69-.06 8.31-.68 14-3.31 3.85-1.78 10.33-5.8 14.4-8.93 4.08-3.13 10.78-9.29 14.9-13.69 4.12-4.4 9.31-10.7 11.55-14 2.23-3.3 5.3-8.93 6.83-12.5 1.98-4.65 2.77-8.21 2.79-12.5.01-3.3-.43-7.69-.98-9.75-.54-2.06-2.9-5.83-5.24-8.38-2.34-2.54-6.5-5.91-9.25-7.49-2.75-1.57-5.68-2.86-6.5-2.87-.82 0-3.07-.85-5-1.88-1.93-1.03-6.43-2.22-10-2.64-5.39-.63-7.04-1.29-9.64-3.87-1.93-1.93-3.42-4.65-3.88-7.12-.51-2.73-.24-5.59.85-9 .88-2.75 2.92-7.02 4.55-9.5 1.62-2.48 7.6-8.78 13.28-14.02 5.69-5.24 14.61-12.93 19.84-17.09 5.23-4.17 14.23-10.74 20-14.62 5.77-3.87 15.45-9.79 21.5-13.16 6.05-3.36 14.27-7.58 18.27-9.36 6.5-2.9 7.27-3.54 7.25-6-.01-1.51-3.28-9.16-7.27-17-3.99-7.84-11.57-20.78-16.84-28.75-5.27-7.97-14.1-19.9-19.6-26.5-5.51-6.6-14.47-16.33-19.92-21.61-8.38-8.16-10.73-9.87-15.39-11.26-3.02-.91-7.3-1.64-9.5-1.62-2.27.01-5.73 1-8 2.29-3.98 2.25-4 2.3-4.2 8.73-.12 3.56-1.04 9.17-2.07 12.47-1.02 3.3-3.51 8.47-5.54 11.5-2.04 3.03-4.27 6.18-4.96 7-.69.82-2.61 2.28-4.25 3.23-1.64.96-4.78 2.63-6.98 3.73-2.36 1.18-6.05 2.01-9 2.02-2.75.01-7.48-.88-10.5-1.99-3.02-1.11-7.86-3.59-10.75-5.5-2.89-1.92-5.59-3.51-6-3.52-.41-.02-3.68-2.46-7.25-5.42s-9.2-8.44-12.5-12.19c-3.3-3.74-7.83-9.52-10.06-12.83-2.23-3.32-5.05-8.62-6.25-11.78-1.2-3.16-2.2-7.44-2.2-9.5-.01-2.06.77-6 1.73-8.75 1.14-3.28 3.29-6.45 6.26-9.23 2.49-2.32 7.45-5.77 11.02-7.66 3.57-1.89 9.99-4.15 14.25-5.02 4.26-.88 9.1-2.26 10.75-3.09 1.65-.83 3.23-2.4 3.5-3.5s.95-2 1.5-2c.56 0 1-2.83 1-6.5 0-4.85-.66-7.96-2.59-12.25-1.62-3.58-5.1-8.33-9.25-12.61-3.66-3.77-7.56-7.21-8.66-7.64-1.1-.43-6.95-4.78-13-9.67-6.05-4.88-13.93-10.97-17.5-13.52-3.57-2.55-11.34-7.6-17.25-11.22-5.91-3.63-16.37-9.29-23.25-12.59-6.87-3.3-13.62-6-15-6-1.56 0-2.5.57-2.5 1.5z" style="fill:#fff"/></svg>