<svg xmlns="http://www.w3.org/2000/svg" viewBox="0 0 166 162" width="166" height="162"><style></style><path id="Path 0" fill-rule="evenodd" d="M84.5.42c9.05.21 16.12.91 20 1.98 3.3.92 9.38 3.26 13.5 5.21 4.13 1.95 10.2 5.48 13.5 7.83 3.3 2.36 8.71 7.16 12.03 10.68 3.31 3.51 7.9 9.53 10.19 13.38 2.3 3.85 5.61 11.27 7.37 16.5 2.6 7.77 3.27 11.59 3.68 21 .36 8.28.05 13.74-1.1 19.5-.88 4.4-2.9 11.15-4.47 15-1.58 3.85-4.13 9.03-5.68 11.5-1.54 2.47-4.09 6.19-8.52 12l10 11.5c5.5 6.32 9.78 11.95 9.5 12.5-.3.61-7.17 1-34.5 1l-7.77-8.5-8.12 3.75c-4.46 2.06-11.6 4.48-15.86 5.37-5.71 1.19-10.91 1.48-19.75 1.11-6.6-.27-14.7-1.23-18-2.12-3.3-.89-10.5-3.82-16-6.51-7.57-3.7-11.92-6.67-17.9-12.24-4.35-4.05-10.11-10.51-12.79-14.36-2.68-3.85-6.18-10.15-7.76-14-1.59-3.85-3.59-10.49-4.47-14.75C.71 93.49 0 85.95 0 81c0-4.95.67-12.26 1.48-16.25.82-3.99 2.53-9.95 3.81-13.25 1.27-3.3 4.09-8.92 6.26-12.5 2.16-3.58 6.64-9.37 9.94-12.88 3.31-3.52 8.71-8.3 12.01-10.64 3.3-2.33 8.7-5.59 12-7.22 3.3-1.64 7.8-3.58 10-4.3 2.2-.72 6.48-1.88 9.5-2.59C68.51.56 75.56.21 84.5.42zM61 36.64c-4.62 2.28-9.42 5.68-12.5 8.82-2.75 2.82-6.43 7.8-8.19 11.08-1.75 3.28-3.89 8.66-4.75 11.96-.86 3.3-1.56 9.15-1.55 13 .01 3.85.68 9.47 1.49 12.5.81 3.03 2.69 7.97 4.17 11 1.48 3.03 5.42 8.25 8.76 11.6 3.34 3.36 8.43 7.29 11.32 8.75 2.89 1.46 8.06 3.38 11.5 4.27 4.38 1.14 8.5 1.46 13.75 1.08 4.13-.3 8.96-1.03 10.75-1.62 1.79-.6 3.25-1.42 3.25-1.83 0-.41-6.52-8.29-14.5-17.5-7.97-9.21-14.28-17.2-14-17.75.31-.61 7.19-.98 17.75-.94l17.25.05c12.4 14.68 16.34 18.93 16.75 18.92.41-.02 1.85-1.94 3.2-4.28 1.34-2.34 3.15-6.95 4-10.25.86-3.3 1.56-9.6 1.56-14 .01-4.41-.71-10.47-1.6-13.5-.88-3.03-3.02-8.19-4.76-11.47-1.73-3.28-5.62-8.39-8.65-11.35-3.18-3.1-8.45-6.82-12.5-8.79-3.85-1.89-9.7-3.87-13-4.4-3.3-.54-7.35-.93-9-.87-1.65.06-5.25.49-8 .96-2.75.46-8.37 2.51-12.5 4.56z" style="fill:#fdfdfd"/></svg>