<svg xmlns="http://www.w3.org/2000/svg" viewBox="0 0 118 158" width="118" height="158"><style></style><path id="Path 0" fill-rule="evenodd" d="M79.5 1.35c12.24.25 13.35.45 19 3.32 3.49 1.78 7.8 5.1 10.31 7.94 2.37 2.69 5.17 6.69 6.23 8.89 1.2 2.47 1.93 6.1 1.92 9.5-.01 3.84-.53 6.04-1.74 7.28-.94.98-2.62 1.79-3.72 1.8-1.1.01-3.58-1.74-5.5-3.88-1.92-2.13-5.3-6.23-7.5-9.1-2.2-2.86-5.35-6.26-7-7.55-1.65-1.3-4.35-2.88-6-3.52-1.65-.65-5.14-1.59-7.75-2.1-3.15-.62-6.51-.56-10 .18-2.89.61-8.36 2.75-12.17 4.75-4.22 2.22-10.84 7.26-17 12.94-5.54 5.11-10.87 9.5-11.83 9.75-.96.25-2.45-.11-3.29-.8-.85-.69-1.54-2.6-1.52-4.25.02-1.65 1.31-5.02 2.87-7.5 1.56-2.48 5.76-7.2 9.35-10.5 3.58-3.3 9.85-7.77 13.93-9.93C52.16 6.41 57.98 3.84 61 2.85c4.36-1.41 8.18-1.72 18.5-1.5zm-15 30.73c3.3-.05 8.47.62 11.5 1.51 4.15 1.21 6.66 2.81 10.25 6.51 3.92 4.05 4.71 5.46 4.5 8.14-.17 2.2-.81 3.33-2 3.5-.96.14-3.44-1.03-5.5-2.6-2.06-1.58-5.33-3.65-7.25-4.61-1.92-.97-5.53-1.98-8-2.25-2.47-.27-6.3-.03-8.5.55-2.2.57-6.81 3.1-10.25 5.61-3.44 2.51-7.04 4.44-8 4.3-1.12-.16-1.85-1.29-2.03-3.13-.23-2.38.83-3.95 6.25-9.24 3.68-3.59 7.95-6.77 9.78-7.28 1.79-.5 5.95-.95 9.25-1.01zm-4 29.04c3.85.04 8.13.39 9.5.76 1.46.4 3.87 2.76 5.79 5.65 3.06 4.63 3.28 5.54 3.25 13.22-.03 5.26-.58 9.34-1.54 11.25-.83 1.65-3.15 4.24-5.17 5.75-3.4 2.54-4.38 2.75-22.48 2.75l-3.43-3.75c-1.88-2.06-3.87-5.44-4.41-7.5-.55-2.06-.99-6.45-.99-9.75.01-4.34.63-7.09 2.25-9.96 1.25-2.23 3.98-4.96 6.23-6.24 3.17-1.79 5.46-2.25 11-2.18zM55.77 74.4c-.41.6-.74 2.23-.75 3.6 0 1.38.44 4.19.99 6.25.54 2.06 1.89 4.2 2.99 4.75 1.56.78 2.44.56 4-1 1.1-1.1 2.01-3.24 2.02-4.75.01-1.51-.44-4.21-1-6s-1.85-3.64-2.86-4.11c-1.01-.47-2.47-.63-3.25-.35-.77.28-1.74 1-2.14 1.61zM80 105.23c2.07.22 2.55.87 2.78 3.77.21 2.54-.48 4.56-2.5 7.38-1.53 2.14-4.36 5.13-6.28 6.66-1.92 1.52-6.09 4.16-9.25 5.87-4.91 2.64-6.81 3.09-13 3.1-3.99.01-9.61-.67-12.5-1.5-3.86-1.11-6.57-2.83-10.25-6.51-2.75-2.75-5.28-6.01-5.62-7.25-.34-1.24-.34-3.04 0-4S24.9 111 26 111s4.81 1.71 8.25 3.8c4.15 2.53 8.09 4.06 11.75 4.55 3.28.45 7.52.3 10.5-.36 2.75-.6 5.9-1.69 7-2.4 1.1-.72 4.7-3.63 8-6.47 4.31-3.7 6.71-5.08 8.5-4.89zm20 7.98c3.39.28 3.51.43 3.77 4.79.19 3.19-.35 5.52-1.86 8-1.17 1.92-4.31 6.2-6.98 9.5-2.67 3.3-7.01 7.62-9.64 9.6-2.64 1.97-7.26 4.84-10.29 6.37-3.03 1.53-8.87 3.63-13 4.66-4.12 1.04-10.42 1.89-14 1.89-3.58-.01-9.2-.69-12.5-1.53-3.3-.84-9.15-3.04-13-4.91-4.48-2.17-9.1-5.49-12.82-9.23-3.21-3.22-6.71-7.65-7.79-9.85-1.08-2.2-1.83-5.35-1.68-7 .23-2.36.83-3.06 2.79-3.3 2.03-.25 3.93 1.27 10.08 8 6.01 6.59 8.89 8.9 14 11.22 4.65 2.12 8.49 3.06 13.92 3.4 5.01.31 9.83-.09 14.5-1.2 3.85-.91 9.7-3.23 13-5.15 3.45-2.01 10.68-8.19 17-14.52 10.23-10.25 11.24-11 14.5-10.74z" style="opacity:.918;fill:#fffffe"/></svg>