<svg xmlns="http://www.w3.org/2000/svg" viewBox="0 0 447 541" width="447" height="541"><style></style><path id="Path 0" d="M139 .67c-1.93.19-8 1.06-13.5 1.94-5.5.88-14.95 3.22-21 5.19-6.05 1.97-15.72 6-21.5 8.95-5.78 2.95-14.05 7.92-18.39 11.05-4.34 3.14-12.17 9.75-17.39 14.7-5.23 4.95-13.05 13.72-17.38 19.5-4.33 5.78-10.27 15.22-13.22 21-2.94 5.78-6.98 15.56-8.98 21.75-2 6.19-4.39 14.96-5.3 19.5-1.45 7.16-1.71 18.22-2 83.5L0 283c92.23 0 119.1-.11 119.22-.25.13-.14.46-31.3.75-69.25l.53-69c5.42-9.91 8.57-14.15 10.5-15.82 1.93-1.67 5.97-4.19 9-5.61l5.5-2.57L273 120V0C171.86.25 140.93.48 139 .67zm188.78 328.08-.28 69.75c-3.49 6.59-6.41 10.56-8.75 13.08-2.34 2.52-6.73 5.78-9.75 7.25l-5.5 2.67-128.5.5v118c137.83-.61 140.86-.71 150-2.77 5.23-1.18 13.55-3.56 18.5-5.29 4.95-1.73 12.6-4.85 17-6.93 4.4-2.09 12.95-7.09 19-11.13 6.84-4.56 14.82-11.13 21.11-17.36 5.56-5.51 12.6-13.39 15.64-17.52 3.05-4.12 7.85-11.55 10.67-16.5 2.82-4.95 6.87-13.5 9-19 2.14-5.5 4.82-13.82 5.97-18.5 1.15-4.68 2.59-11.43 3.2-15 .71-4.21 1.19-31.9 1.37-78.75l.27-72.25H328.05" style="fill:#fff"/></svg>