<svg xmlns="http://www.w3.org/2000/svg" viewBox="0 0 512 512" width="512" height="512"><style></style><path id="Path 0" fill-rule="evenodd" d="M254.75 1.01c2.34-.01 5.71.66 7.5 1.47 1.81.83 31.76 30.14 67.68 66.25 35.44 35.62 90.21 90.65 121.71 122.27 31.5 31.63 57.74 58.74 58.32 60.25.57 1.51 1.04 4.1 1.04 5.75 0 1.65-.62 4.46-1.39 6.25-.81 1.91-25.97 27.89-61 63C415.83 359.11 388.55 386 388 386c-.55 0-1 .45-1 1s-26.67 27.66-59.27 60.25-60.72 60.49-62.5 62c-2.74 2.34-4.13 2.75-9.23 2.75-3.3 0-7.12-.45-8.5-1-1.37-.55-57.63-56.01-247.52-245.5l.01-7.25c.01-3.99.51-8.26 1.11-9.5.61-1.24 28.17-29.36 61.24-62.5 33.08-33.14 60.71-60.25 61.4-60.25.69 0 1.26-.56 1.26-1.25s26.89-28.12 59.75-60.96c32.86-32.83 61.1-60.39 62.75-61.24 1.65-.85 4.91-1.54 7.25-1.54zM253.37 33c-.27 3.58-.89 8.08-1.38 10-.49 1.92-.73 3.73-.53 4 .2.27-.04 3.88-.54 8-.49 4.13-1.15 10.42-1.47 14-.32 3.58-1.26 12.58-2.08 20-.83 7.42-1.69 15.97-1.93 19-.23 3.03-.69 7.3-1.01 9.5-.33 2.2-.81 6.7-1.07 10-.27 3.3-1.14 11.4-1.94 18-.79 6.6-1.65 14.7-1.9 18-.25 3.3-1.15 12.19-1.99 19.75-.84 7.56-1.53 14.43-1.53 15.25 0 .82-.68 1.72-1.5 2s-5.66-2.29-10.75-5.69c-5.09-3.41-25.22-17.2-44.75-30.64-19.53-13.44-38.42-26.51-41.99-29.05l-6.49-4.62c6.29 8.53 23.05 31.59 41.3 56.75C190.07 212.41 205 233.68 205 234.5c0 1.05-1.42 1.65-4.75 2.01-2.61.27-13.75 1.41-24.75 2.52s-28.55 2.9-39 3.97c-10.45 1.08-36.32 3.74-57.5 5.93-21.18 2.19-44.24 4.56-51.26 5.27-7.01.72-12.75 1.52-12.75 1.8 0 .27 5.74 1.08 12.75 1.8 7.02.71 30.08 3.08 51.26 5.27 21.18 2.19 47.28 4.88 58 5.98 10.72 1.1 28.28 2.89 39 3.97 10.72 1.08 21.64 2.2 24.25 2.47 3.33.36 4.75.96 4.75 2.01 0 .82-16.63 24.34-36.95 52.25-20.32 27.91-36.75 50.86-36.5 51 .25.14 1.69-.88 3.2-2.25 1.51-1.38 3.06-2.51 3.43-2.5.37 0 1.27-.57 2-1.28.73-.7 7.06-5.42 14.07-10.5 7.01-5.07 12.97-9.22 13.25-9.22.28 0 1.51-.95 2.75-2.1 1.24-1.16 7.43-5.93 13.75-10.6s12.18-8.76 13-9.09c.82-.32 1.95-1.13 2.5-1.79.55-.66 5.72-4.61 11.5-8.77 5.78-4.17 10.95-7.95 11.5-8.4.55-.46 3.14-2.28 5.75-4.04 2.61-1.77 5.31-3.05 6-2.85.81.24 1.72 4.68 2.59 12.75.74 6.82 1.77 16.44 2.29 21.39.52 4.95 1.36 13.27 1.86 18.5.51 5.23 1.83 18.05 2.94 28.5 1.1 10.45 2.5 23.5 3.1 29 .61 5.5 1.5 14.73 1.99 20.5s1.37 14.55 1.94 19.5c.57 4.95 1.86 16.43 2.87 25.5 1.72 15.51 1.87 16.14 2.5 10.5.37-3.3 1.12-8.48 1.66-11.5.55-3.02 1-7.52 1-10 0-2.48.44-8.1.99-12.5.54-4.4 2.16-19.25 3.59-33 1.43-13.75 3.04-28.82 3.57-33.5.52-4.68 1.37-12.77 1.88-18 .5-5.23 1.36-14.23 1.89-20 .54-5.77 1.46-15 2.05-20.5.59-5.5 1.32-12.48 1.61-15.5.3-3.02.74-6.96.98-8.75.28-2.02 1.02-3.25 1.95-3.25.82 0 6.56 3.69 12.75 8.2s12.44 9.12 13.9 10.25c1.46 1.13 5.85 4.3 9.76 7.05 3.92 2.75 7.11 5.34 7.1 5.75 0 .41.55.75 1.24.75.69.01 2.6 1.27 4.25 2.81s3.68 3.07 4.5 3.4c.82.34 6.45 4.27 12.5 8.74 6.05 4.47 11.68 8.68 12.51 9.34.84.67 3.2 2.34 5.25 3.71 2.05 1.38 3.73 2.84 3.73 3.25.01.41.46.75 1.01.75s3.14 1.63 5.75 3.61c2.61 1.99 5.54 4.02 6.5 4.5 1.19.61.78-.47-1.28-3.36a832 832 0 0 0-7.48-10.25c-2.44-3.3-6.03-8.25-7.99-11-1.95-2.75-5.9-8.24-8.78-12.19-2.87-3.96-12.42-17.09-21.22-29.17-8.8-12.09-16.68-22.96-17.5-24.17-.82-1.21-2.92-4.06-4.66-6.33-1.75-2.28-2.98-4.7-2.75-5.39.24-.74 2.97-1.47 6.66-1.79 3.44-.29 8.27-.74 10.75-1 2.48-.25 9-.74 14.5-1.09 5.5-.34 10.68-.98 11.5-1.43.82-.44 4.65-.88 8.5-.98 3.85-.09 8.8-.56 11-1.05 2.2-.49 7.15-1.09 11-1.33 3.85-.23 11.73-.83 17.5-1.33 5.77-.5 10.95-1.18 11.5-1.5.55-.33 3.7-.69 7-.79 3.3-.11 7.8-.57 10-1.02 2.2-.45 6.7-.9 10-.99 3.3-.1 8.02-.57 10.5-1.05 2.48-.47 7.88-1.09 12-1.37 4.13-.28 12.23-.99 18-1.57 5.77-.59 13.65-1.38 17.5-1.76 3.85-.39 6.55-.97 6-1.29-.55-.33-3.48-.7-6.5-.84s-5.95-.53-6.5-.87c-.55-.35-5.5-.99-11-1.42-5.5-.44-13.37-1.03-17.5-1.31-4.12-.28-9.52-.9-12-1.37-2.48-.48-7.2-.95-10.5-1.05-3.3-.09-7.8-.54-10-.99-2.2-.45-6.7-.91-10-1.02-3.3-.1-6.45-.46-7-.79-.55-.33-5.5-.98-11-1.45-5.5-.46-14.27-1.28-19.5-1.82-5.23-.53-13.55-1.24-18.5-1.58-4.95-.34-9.68-.97-10.5-1.41-.82-.44-4.99-.84-9.25-.89-4.26-.06-8.76-.5-10-.98-1.24-.49-5.4-.95-9.25-1.02-3.85-.07-8.64-.68-10.63-1.36-2.98-1.02-3.52-1.6-3-3.26.34-1.11 1.45-3.14 2.46-4.5 1-1.36 4.92-6.76 8.71-11.98 3.78-5.22 9.24-12.87 12.12-17 2.88-4.12 7.96-11.06 11.29-15.42 3.33-4.35 8.08-10.88 10.56-14.5 2.48-3.62 6.53-9.28 8.99-12.58 2.47-3.3 5.55-7.57 6.86-9.5 1.31-1.93 3-3.84 3.76-4.25.76-.41 1.38-1.2 1.38-1.75s1.24-2.6 2.75-4.55c1.51-1.95 2.52-3.53 2.25-3.51-.27.02-22.77 16.23-50 36.02-27.23 19.78-50.29 35.99-51.25 36.01-1.02.02-1.95-.91-2.23-2.22-.26-1.24-.69-5.62-.94-9.75-.25-4.12-.69-8.18-.97-9-.29-.82-.73-5.1-1-9.5-.26-4.4-.74-9.35-1.06-11-.32-1.65-.76-5.7-.97-9-.22-3.3-1.1-11.85-1.96-19-.86-7.15-1.62-15.7-1.71-19-.08-3.3-.53-7.35-.99-9-.47-1.65-1.04-6.15-1.29-10-.24-3.85-1.16-13.3-2.03-21-.88-7.7-1.78-16.7-2-20-.23-3.3-1.36-14.33-2.51-24.5-1.16-10.18-2.26-18.95-2.43-19.5-.18-.55-.66 2.38-1.07 6.5-.41 4.13-.96 10.42-1.22 14z" style="fill:#fff"/></svg>