<svg xmlns="http://www.w3.org/2000/svg" viewBox="0 0 388 97" width="388" height="97"><style></style><path id="Path 0" fill-rule="evenodd" d="M290 0h10v94h-5c-4.08 0-5.01-.32-5.04-1.75-.03-1.6-.45-1.55-4.75.52-3.79 1.82-6.37 2.26-13.21 2.23-6.02-.03-9.67-.57-12.5-1.87-2.2-1-5.6-3.58-7.56-5.72-1.96-2.15-4.64-6.61-5.95-9.91-2.11-5.29-2.39-7.61-2.39-19.5s.28-14.21 2.39-19.5c1.31-3.3 3.99-7.76 5.95-9.91 1.96-2.14 5.36-4.72 7.56-5.72 2.77-1.27 6.46-1.84 12-1.87 6.6-.03 8.87.4 13 2.48 2.75 1.38 5.11 2.51 5.25 2.52.14 0 .25-5.85.25-13m-30.66 23.87c-1.29 1.72-3.02 5.49-3.85 8.38-.83 2.89-1.51 8.63-1.51 12.75 0 4.13.68 9.86 1.51 12.75.83 2.89 2.75 6.66 4.26 8.38 1.51 1.73 3.99 3.75 5.5 4.5 1.51.76 4.32 1.37 6.25 1.37 1.93 0 5.19-.7 7.25-1.56 2.06-.85 4.81-2.54 6.1-3.75 1.28-1.2 2.97-3.43 3.75-4.94.99-1.94 1.4-6.56 1.4-15.75 0-10.8-.32-13.64-1.9-16.75-1.05-2.06-2.96-4.74-4.25-5.94-1.29-1.21-4.04-2.9-6.1-3.75-2.06-.86-4.99-1.54-6.5-1.52-1.51.02-4.28.64-6.16 1.37-1.87.73-4.46 2.73-5.75 4.46zM314.17 0c4.29 0 5.96.4 6.33 1.5.27.83.5 2.63.5 4 0 1.38-.9 3.4-2 4.5-1.2 1.2-3.31 1.99-5.25 1.97-1.79-.01-4.05-.8-5.03-1.75-.98-.95-1.85-3.33-1.92-5.3-.07-1.97.24-3.89.7-4.25.46-.37 3.46-.67 6.67-.67zM158.45 3.98c1.68-.01 3.62.56 4.32 1.25.8.81 1.26 4.08 1.23 16.77h7c6.41 0 7.05.19 7.61 2.25.33 1.24.33 3.49 0 5-.59 2.68-.79 2.75-14.61 2.75l.25 25.08c.24 23.79.35 25.16 2.25 26.52 1.19.85 4.33 1.43 13.5 1.4l.5 3.5c.29 2.04-.02 4.14-.75 5.04-.94 1.17-3.23 1.55-9.25 1.54-6.47-.01-8.53-.4-10.75-2.05-1.51-1.11-3.53-3.49-4.49-5.28-1.51-2.81-1.78-6.78-2.26-55.75l-11.5-.5v-9L153 22l-.2-7.8c-.14-5.65.19-8.13 1.2-9 .77-.66 2.77-1.21 4.45-1.22zM56.98 14.35c6.48.15 6.49.16 8.71 4.15 1.23 2.2 3.22 7.6 4.42 12 1.8 6.54 2.21 10.83 2.28 23.5.08 14.16-.12 16.02-2.32 21.5-1.64 4.1-4.17 7.77-7.99 11.58-3.98 3.98-7.3 6.23-11.58 7.85-5.15 1.93-7.42 2.2-16 1.85-7.93-.33-11.04-.91-15-2.81-2.75-1.33-7.04-4.45-9.53-6.94-2.49-2.49-5.61-6.78-6.93-9.53C1.2 73.65.54 70.31.19 63c-.28-5.95 0-11 .77-13.5.68-2.2 2.87-6.38 4.88-9.3 2.63-3.8 4.3-5.28 5.91-5.25 2.22.05 2.24.19 1.61 9.3-.45 6.48-.24 10.45 1.98 17.25l1.18-7c.65-3.85 2.66-10.15 4.47-14 2.51-5.34 5.33-9.03 11.9-15.56C39.88 18 42.35 16.18 46 15.29c2.48-.6 7.42-1.02 10.98-.94zm58.52 6.68c4.58-.03 9.92.59 12.5 1.44 2.47.83 6.03 2.97 7.9 4.76 1.87 1.8 4 4.73 4.75 6.52.74 1.79 1.35 5.28 1.35 12.25h-5c-4.52 0-5-.22-5-2.25-.01-1.24-.91-3.71-2-5.5-1.1-1.79-3.46-3.98-5.25-4.87-1.79-.9-5.5-1.83-8.25-2.07-3.88-.35-6 .07-9.5 1.87-2.66 1.37-4.86 3.34-5.39 4.82-.49 1.38-.63 3.63-.31 5 .35 1.51 2.1 3.36 4.39 4.67 2.1 1.19 8.09 3.37 13.31 4.84 5.22 1.47 10.85 3.36 12.5 4.2 1.65.84 4.06 2.48 5.35 3.66 1.28 1.17 2.97 3.37 3.75 4.88.79 1.56 1.4 5.67 1.4 9.5-.01 4.99-.53 7.6-2 10-1.1 1.79-3.46 4.32-5.25 5.63-1.79 1.3-5.05 2.94-7.25 3.63-2.57.8-7.58 1.1-14 .82-7.62-.33-10.95-.94-14-2.54-2.2-1.16-5.21-3.39-6.69-4.95-1.47-1.56-3.16-4.08-3.75-5.59C88.48 80.24 88 77.2 88 71l4.75-.02c4.62-.03 4.78.07 5.94 3.75.66 2.07 2.01 4.55 3 5.51 1 .96 3.61 2.4 5.81 3.21 2.2.8 6.03 1.48 8.5 1.49 2.47.02 6.41-.86 8.75-1.95 2.73-1.28 4.82-3.15 5.83-5.24 1.36-2.78 1.39-3.67.25-6.14-.73-1.59-3.13-3.92-5.33-5.19-2.2-1.26-7.83-3.25-12.5-4.41-4.67-1.17-10.75-3.34-13.5-4.82-3.73-2.01-5.57-3.83-7.26-7.19-1.34-2.68-2.26-6.32-2.26-9 0-2.69.91-6.28 2.26-8.94 1.24-2.44 3.39-5.27 4.76-6.27 1.38-1.01 4.3-2.48 6.5-3.27s7.6-1.46 12-1.49zm240.5.04c4.18-.05 9.49.56 12 1.39 2.48.81 6.52 3.23 9 5.36 2.52 2.17 5.82 6.49 7.5 9.78 2.92 5.75 3 6.27 3 20.4 0 12.52-.28 15.11-2.06 19-1.13 2.47-3.83 6.48-6 8.91-2.17 2.42-6.19 5.45-8.94 6.74-4.07 1.9-6.67 2.33-14 2.33-7.34 0-9.92-.43-14-2.34-2.75-1.28-6.83-4.32-9.07-6.74-2.23-2.42-5.13-7.1-6.43-10.4-2.01-5.08-2.37-7.76-2.37-17.5 0-9.72.37-12.43 2.36-17.5 1.57-4 4.05-7.7 7.43-11.08 3.04-3.04 6.88-5.71 9.58-6.67 2.48-.87 7.88-1.63 12-1.68zM340.19 40.9c-1.78 2.53-3.68 6.18-4.21 8.1-.53 1.92-.98 6.2-.99 9.5-.01 3.3.75 8.25 1.69 11 1.01 2.96 3.37 6.66 5.77 9.07 2.23 2.23 5.85 4.66 8.05 5.38 2.32.76 5.89 1.07 8.5.74 2.62-.33 6.13-1.74 8.4-3.38 2.14-1.54 5.26-5.28 6.93-8.31 2.25-4.06 3.16-7.2 3.49-12 .29-4.23-.13-8.51-1.19-12.25-1.05-3.7-2.96-7.23-5.38-9.91-2.06-2.28-5.55-4.97-7.75-5.97-2.2-1.01-5.35-1.84-7-1.86-1.65-.02-5.26 1.16-8.03 2.62-3.12 1.65-6.26 4.41-8.28 7.27zM188.48 22c3.13 0 4.67.46 5.02 1.5.28.83.5 12.3.5 25.5 0 18.08.34 24.8 1.37 27.25.76 1.79 2.44 4.27 3.75 5.52s4.18 2.55 6.38 2.9c2.2.34 6.03.08 8.5-.59 2.47-.67 5.43-1.98 6.56-2.9 1.13-.92 2.93-3.01 4-4.63 1.75-2.67 1.99-5.39 2.94-54.05l4.75-.25c4.2-.22 4.81.01 5.28 2 .29 1.24.4 17.32-.03 69.25l-4.75.25c-3.49.18-4.88-.15-5.25-1.25-.43-1.3-.92-1.27-3.75.25-2.56 1.38-5.71 1.75-14.82 1.75-10.94 0-11.8-.15-15.75-2.75-2.96-1.95-4.98-4.42-9.68-14.25l-.29-26.3c-.16-14.47-.06-26.96.23-27.75.34-.98 1.99-1.45 5.04-1.45zm120.63-.11 9.39.61v71l-9.5.5.06-36.05" style="fill:#fff"/></svg>