<svg xmlns="http://www.w3.org/2000/svg" viewBox="0 0 334 292" width="334" height="292"><style></style><path id="Path 0" fill-rule="evenodd" d="M172 .36c5.58.29 9.55 1.25 15.5 3.72 4.4 1.83 11.82 5.9 16.5 9.05 4.68 3.15 12.51 9.47 17.41 14.05S234.1 40.22 238.73 46c4.62 5.78 11.35 15.22 14.95 21 3.6 5.78 8.68 13.2 11.28 16.5 2.6 3.3 6.94 7.47 9.64 9.26 2.69 1.79 8.05 4.2 11.9 5.36 3.85 1.15 9.02 3.11 11.5 4.35 2.48 1.24 7.2 4.74 10.5 7.77 3.3 3.03 8.54 9.06 11.65 13.39 3.11 4.33 7.01 10.57 8.66 13.87 1.65 3.3 3.53 8.7 4.17 12 .88 4.49.89 7.26.05 11-.62 2.75-2.17 6.8-3.45 9-1.28 2.2-3.96 5.46-5.95 7.25-2 1.79-5.99 4.43-8.88 5.87-2.89 1.45-8.62 3.52-12.75 4.62-5.53 1.47-11.96 2.11-24.5 2.47-13.37.39-18.5.15-24-1.11-3.85-.88-7.09-1.49-7.21-1.35-.11.14-.48 1.6-.83 3.25-.57 2.77-.32 3.11 3.21 4.44 2.11.8 5.35 2.82 7.21 4.5 1.85 1.68 3.99 4.3 4.75 5.81.75 1.51 1.38 4.66 1.4 7 .02 2.81-.76 5.43-2.3 7.75-1.28 1.93-3.88 4.53-5.78 5.79-1.9 1.26-5.02 2.72-6.95 3.25-1.93.52-6.2.96-15.5 1.01l-4.5 7.23c-2.5 4.01-9.17 11.94-15 17.83-5.78 5.83-14.1 13-18.5 15.94-4.4 2.93-12.05 7.22-17 9.54-4.95 2.31-13.05 5.36-18 6.77-4.95 1.41-13.05 3.09-18 3.73-5.29.69-13.94.93-21 .58-6.6-.32-15.15-1.28-19-2.13-3.85-.85-10.15-2.54-14-3.76-3.85-1.21-11.28-4.39-16.5-7.06-5.22-2.67-12.42-6.93-16-9.48-3.58-2.54-10.55-8.7-15.5-13.68-4.95-4.98-11.39-12.66-14.3-17.06-2.91-4.4-6.82-11.15-8.69-15-1.87-3.85-4.71-11.05-6.32-16-1.6-4.95-3.54-12.82-4.3-17.5-.76-4.68-1.34-13.68-1.29-20 .06-6.32.85-15.66 1.75-20.75 1.6-8.94 1.59-9.34-.27-12-1.06-1.51-2.64-5.45-3.52-8.75-1.23-4.66-1.37-7.12-.6-11 .54-2.75 2.46-7.24 4.26-9.97 1.81-2.74 5.3-6.22 7.78-7.75 2.48-1.53 7.42-3.34 11-4.01 6.18-1.17 6.82-1.57 13-8.13 3.58-3.79 10.33-9.77 15-13.29 4.67-3.52 13-8.62 18.5-11.34 5.5-2.72 12.03-5.6 14.5-6.41 2.47-.81 8.33-2.49 13-3.74 7.35-1.96 11.01-2.28 45.68-2.36l-5.89-7c-3.23-3.85-6.99-9.25-8.35-12-1.39-2.83-2.46-6.74-2.45-9 .01-2.22.91-5.45 2.01-7.25 1.1-1.79 3.57-3.93 5.5-4.75 1.93-.82 5.75-1.5 8.5-1.5 3.98 0 5.97-.66 9.75-3.21 2.61-1.77 6.32-3.8 8.25-4.52 2.19-.83 6.3-1.16 11-.91zm-6.78 14.14c2.34 1.1 7.42 4.06 11.27 6.58 3.86 2.52 9.94 6.93 13.51 9.79 3.57 2.87 11.38 10.03 17.35 15.92 5.97 5.89 13.68 14.31 17.13 18.71 3.45 4.4 8.11 10.92 10.36 14.5 2.61 4.15 3.75 6.86 3.15 7.5-.61.65-5.79-3.76-14.71-12.52-7.58-7.43-18.73-17.47-24.78-22.31-6.05-4.84-16.4-12.44-23-16.89-6.6-4.45-15.6-9.83-20-11.97-4.4-2.13-10-4.14-12.45-4.45-3.18-.4-4.67-.18-5.22.79-.42.74-.32 2.92.23 4.85.55 1.93 2.87 5.98 5.15 9 2.29 3.02 8.24 9.5 13.23 14.39 4.98 4.88 13.78 12.69 19.56 17.34 5.78 4.66 15.68 11.91 22.01 16.12 6.33 4.21 14.09 9 17.25 10.65 3.15 1.65 5.75 3.67 5.76 4.5.01.83-1.22 2.72-2.75 4.22-1.77 1.74-5.11 3.31-9.27 4.36-5.93 1.5-6.98 1.51-12 .09-3.03-.85-11.57-5.25-19-9.76s-17.1-9.89-21.5-11.94c-4.4-2.05-11.15-4.66-15-5.8-3.85-1.14-11.05-2.6-16-3.25-5.23-.69-13.19-.93-19-.57-5.5.33-13.83 1.56-18.5 2.73-4.67 1.16-12.55 4.01-17.5 6.32-4.95 2.31-11.48 5.83-14.5 7.81-3.02 1.99-8.76 6.57-12.75 10.2-6.53 5.93-7.47 6.48-9.5 5.46-1.24-.62-4.57-.96-7.41-.75-3.08.23-6.26 1.19-7.88 2.38-1.49 1.1-3.58 3.13-4.63 4.5-1.05 1.38-2.17 4.53-2.48 7a18.38 18.38 0 0 0 1.04 8.75c.89 2.34 2.92 5.26 4.52 6.5l2.91 2.25c-2.98 11.63-4.24 19.28-4.72 24.5-.52 5.51-.51 13.49.01 19 .49 5.22 1.59 12.2 2.44 15.5.86 3.3 2.92 9.38 4.59 13.5 1.67 4.13 5.09 10.65 7.6 14.5 2.5 3.85 7.3 9.86 10.66 13.35 3.35 3.49 8.8 8.38 12.1 10.86 3.3 2.49 9.6 6.33 14 8.55 4.4 2.21 11.15 5.1 15 6.41 3.85 1.32 10.83 3.06 15.5 3.87 4.67.82 12.1 1.46 16.5 1.44 4.4-.03 11.38-.65 15.5-1.39 4.13-.74 11.1-2.58 15.5-4.09 4.4-1.5 12.04-4.82 16.99-7.37 5.21-2.69 11.45-6.94 14.87-10.13 3.24-3.03 6.78-7.3 7.87-9.5 1.08-2.2 1.95-5.8 1.92-8-.03-2.2-.64-4.62-1.36-5.37-.71-.75-2.53-1.99-4.04-2.75-1.65-.83-5.86-1.37-10.5-1.35-4.26.01-11.57.9-16.25 1.97-4.68 1.07-8.84 1.96-9.25 1.97-.41.02-.75-.53-.76-1.22 0-.69 1.84-3.72 4.1-6.75s4.93-7.3 5.94-9.5c1.01-2.2 2.6-6.93 3.53-10.5 1.24-4.8 1.55-8.98 1.18-16-.34-6.5-1.25-11.55-2.88-16-1.31-3.57-4.52-9.54-7.12-13.25-2.85-4.05-7.24-8.59-10.99-11.36-3.44-2.54-8.5-5.62-11.25-6.85-2.75-1.23-7.36-2.76-10.25-3.39-2.89-.63-8.74-1.14-13-1.13-4.26.01-10.45.72-13.75 1.58-3.3.86-8.7 2.98-12 4.7-3.39 1.77-9.06 6.2-13.04 10.17-4.85 4.85-8.03 9.12-10.25 13.78-1.86 3.91-3.84 6.75-4.71 6.75-.9 0-1.49-.91-1.47-2.25.01-1.24 1.02-5.19 2.25-8.78 1.22-3.6 3.8-9.16 5.72-12.37 1.92-3.2 6.88-8.96 11-12.8 4.19-3.9 10.15-8.27 13.5-9.89 3.3-1.59 9.6-3.81 14-4.92 4.4-1.1 10.7-2.01 14-2.01 3.3 0 9.6.91 14 2.01 4.4 1.11 10.93 3.46 14.5 5.21 4.49 2.2 8.99 5.68 14.55 11.24 4.85 4.87 9.28 10.44 11.17 14.06 1.72 3.3 4.07 9.38 5.21 13.5 1.3 4.71 2.08 10.48 2.08 15.5 0 4.99-.78 10.82-2.07 15.5-1.13 4.13-3.68 10.43-5.66 14l-3.6 6.5c6.06-3.73 10.07-6.51 12.82-8.58 2.75-2.08 6.01-4.93 7.25-6.34L181 191c12.79 11.03 19.88 16.22 24 18.64 4.13 2.43 11.1 5.57 15.5 6.99 5.63 1.81 10.37 2.61 16 2.69 5.78.07 8.9-.37 11.25-1.61 1.79-.94 3.52-2.72 3.85-3.96.33-1.24.16-3.15-.38-4.25-.55-1.1-2.5-2.78-4.35-3.72-1.86-.95-6.97-3.18-11.37-4.96-4.94-1.99-9.67-4.77-12.37-7.27-2.4-2.23-5.39-6.08-6.64-8.55-1.26-2.47-2.61-6.53-3.01-9-.41-2.47-.34-4.82.14-5.21.49-.39 2.29-.17 4.01.5 2.65 1.03 3.52.95 5.75-.54 1.44-.96 3.07-2.87 3.62-4.25.55-1.37 1.22-2.5 1.5-2.5s2.64 1.75 5.25 3.89 6.55 4.8 8.75 5.9c2.2 1.1 6.7 2.82 10 3.82 4.75 1.45 9.22 1.81 21.5 1.75 8.52-.03 18.2-.63 21.5-1.33 3.3-.69 8.48-2.19 11.5-3.34 3.02-1.14 7.26-3.67 9.4-5.63 2.15-1.96 4.51-5.02 5.25-6.81.74-1.79 1.35-5.05 1.35-7.25s-.88-6.36-1.95-9.25c-1.08-2.89-4.06-8.4-6.63-12.25-2.57-3.85-6.22-8.8-8.12-11-1.9-2.2-5.79-5.72-8.63-7.82-3.02-2.24-8.08-4.69-12.17-5.9-3.85-1.14-9.25-3.2-12-4.58s-7.64-5.02-10.87-8.1c-3.47-3.31-9.77-11.53-15.4-20.1-5.24-7.97-12.33-18.1-15.77-22.5-3.43-4.4-10.45-12.08-15.6-17.07s-12.51-11.28-16.36-13.99c-3.85-2.7-10.37-6.38-14.5-8.16-6.1-2.65-8.8-3.26-14.5-3.25-3.85 0-7.57.33-8.27.74-.85.48.17 1.41 2.99 2.73zM285.5 122c1.38 0 3.51.5 4.75 1.12 1.24.61 3.03 2.07 3.98 3.25.95 1.17 1.74 3.59 1.75 5.38.01 2.4-.7 3.78-2.73 5.28-1.51 1.12-3.76 2.02-5 2-1.24-.01-3.82-1.6-5.75-3.53-2.44-2.44-3.5-4.4-3.5-6.5 0-1.67.89-3.89 2-5 1.1-1.1 3.13-2 4.5-2z" style="fill:#fff"/></svg>