<svg xmlns="http://www.w3.org/2000/svg" viewBox="0 0 294 318" width="294" height="318"><style></style><path id="Path 0" d="M136.5.9c-1.65.44-5.25 2.06-8 3.6-2.75 1.55-11.75 6.63-20 11.31-8.25 4.67-17.03 9.61-19.5 10.98-2.47 1.37-7.54 4.22-11.25 6.35-3.71 2.12-9.79 5.6-13.5 7.72-3.71 2.13-9 5.09-11.75 6.6-2.75 1.5-9.05 5.03-14 7.83-4.95 2.8-13.05 7.43-18 10.28-4.95 2.85-10.31 6.7-11.91 8.55-1.6 1.86-4.08 5.85-5.5 8.88L.5 88.5v141.04c4.93 10.17 8.01 14.47 10.28 16.46 2.2 1.93 12.01 8 21.79 13.5s20.07 11.28 22.86 12.85A681164 681164 0 0 0 98 296.3l37.5 21.1c16 .68 20.26.36 23-.59 2.2-.77 27.4-14.62 56-30.78 28.6-16.15 55.15-31.12 59-33.26 3.85-2.13 8.57-5.4 10.5-7.27 1.93-1.87 4.85-6.01 6.5-9.2l3-5.8v-143c-3.87-7.55-6.39-11.38-8.1-13.37-1.7-2-8.45-6.78-15-10.63-11.67-6.87-12.03-7-18.9-7-5.5 0-8.04.54-11.88 2.5-2.68 1.38-7.4 5.21-10.5 8.53-3.65 3.92-9.46 12.68-16.58 25-6.03 10.43-11.77 21.11-12.75 23.72-1.26 3.34-1.79 7.57-1.79 14.25 0 7.33.48 10.7 2.11 14.75 1.15 2.89 3.81 7.72 5.89 10.75 2.09 3.02 8.01 10.14 13.15 15.81 5.14 5.68 10.38 11.75 11.65 13.5 1.26 1.76 2.72 4.88 3.25 6.94.52 2.06.66 4.99.31 6.5-.35 1.51-1.44 4.32-2.4 6.25-.97 1.93-2.82 4.49-4.11 5.69-1.29 1.21-4.04 2.9-6.1 3.75-2.06.86-5.32 1.56-7.25 1.56-1.93 0-5.19-.7-7.25-1.56-2.06-.85-4.81-2.54-6.1-3.75-1.29-1.2-3.2-3.88-4.25-5.94-1.26-2.48-2-6.38-2.21-11.5-.21-5.33-.97-9.16-2.44-12.25-1.17-2.48-3.29-5.74-4.69-7.25-1.7-1.82-3.57-2.75-5.56-2.75-1.65 0-4.24.61-5.75 1.36-1.51.75-4.45 3.34-6.53 5.75-2.08 2.42-4.73 6.41-5.89 8.89-1.16 2.48-3.35 8.77-4.87 14s-3.26 12.31-3.86 15.75c-.99 5.64-.9 6.66 1.01 10.5 1.27 2.58 2.11 6.22 2.12 9.25.02 3.27-.8 6.69-2.35 9.87-1.31 2.68-3.95 6.12-5.88 7.64-1.93 1.53-5.75 3.54-8.5 4.47-4.62 1.57-5.44 1.58-10.75.11-4.38-1.21-6.89-2.72-10.55-6.34-3.19-3.16-5.24-6.25-6.11-9.25-.81-2.76-1.06-6.24-.65-9 .36-2.48 1.7-6.3 2.97-8.5 1.27-2.2 4.62-5.69 7.45-7.75 5.11-3.73 5.16-3.82 9.15-16.5 2.2-7.01 4.54-16.57 5.2-21.25 1.06-7.58 1.01-8.8-.51-11.25-1.28-2.07-2.5-2.76-4.95-2.78-1.94-.01-4.91 1.1-7.35 2.75-2.26 1.53-6.37 4.58-9.13 6.78-2.77 2.2-6.47 6.02-8.22 8.5-1.75 2.48-4.47 6.52-6.04 9-1.64 2.6-4.67 5.54-7.18 6.96-3 1.71-5.86 2.46-9.33 2.46-3.49 0-6.3-.75-9.28-2.46-2.35-1.35-5.17-3.7-6.25-5.21-1.08-1.51-2.66-4.66-3.5-7-.92-2.55-1.28-5.45-.88-7.25.36-1.65 1.5-4.69 2.53-6.75 1.03-2.06 3.34-4.84 5.13-6.17 1.79-1.34 5.95-3.44 9.25-4.67 3.3-1.24 8.7-3.83 12-5.76 3.3-1.93 10.05-6.17 15-9.42 4.95-3.25 10.02-6.89 11.28-8.07 1.47-1.4 2.26-3.3 2.25-5.41-.03-2.71-.49-3.36-2.78-3.92-1.51-.36-6.57-.1-11.25.58-4.68.69-9.4 1.73-10.5 2.32-1.1.58-2.34 1.67-2.75 2.42-.41.74-2.66 2.3-5 3.46-2.52 1.26-6.08 2.09-8.75 2.06-3.29-.04-5.58-.83-8.5-2.91-2.2-1.58-5.03-4.64-6.29-6.81-1.68-2.89-2.21-5.15-1.98-8.45.19-2.64 1.37-6.16 2.86-8.5 1.64-2.6 4.26-4.85 7.47-6.44 4.84-2.39 5.15-2.42 15.44-1.25 5.78.65 14.44 1.19 19.25 1.19 4.81 0 12.01-.73 16-1.62 3.99-.89 10.6-3.25 14.69-5.25 4.72-2.3 10.02-6.05 14.5-10.25 6.04-5.67 8.53-9.19 17.3-24.5 5.64-9.83 11.19-20.35 12.34-23.38 1.7-4.46 2.03-7.2 1.76-14.5-.27-7.27-.75-9.58-2.5-12-1.31-1.82-6.8-5.54-14-9.48L158.5.54C143.78.2 138.15.46 136.5.9z" style="fill:#fff"/></svg>