<svg xmlns="http://www.w3.org/2000/svg" viewBox="0 0 102 183" width="102" height="183"><style></style><path id="Path 0" d="M25 3.5c0 1.92.53 5.64 1.18 8.25.88 3.53 2.49 6.04 6.25 9.78 3.6 3.58 6.67 5.56 10.57 6.83 3.02.99 8.99 2.1 13.26 2.47l7.75.67L64 38H0v34h25c.56 77.68.76 81.97 2.46 86.5 1.03 2.75 2.85 6.57 4.04 8.5 1.2 1.93 4.39 5.43 7.09 7.78 3.03 2.65 7.21 5.04 10.91 6.26 5.29 1.74 8.77 1.98 29.25 1.97L102 183l-.5-33.5c-19.22-.87-22.8-1.45-24.8-2.75-1.48-.96-3.49-3.21-4.45-5-1.55-2.88-1.78-7.04-2-36.5L70 72l31.5-.5.5-33.5H70V0H25v3.5z" style="fill:#fff"/></svg>