<svg xmlns="http://www.w3.org/2000/svg" viewBox="0 0 354 406" width="354" height="406"><style></style><path id="Path 0" d="M159.5 1.51c-7.15.68-15.47 1.77-18.5 2.42-3.03.65-8.2 1.83-11.5 2.62-3.3.79-9.37 2.52-13.5 3.85-4.12 1.34-10.87 3.84-15 5.56-4.12 1.72-11.32 5.2-16 7.72-4.68 2.52-11.65 6.63-15.5 9.13-3.85 2.49-11.05 7.77-16 11.73-4.95 3.96-13.69 12.09-19.42 18.08-5.73 5.98-12.75 14.03-15.59 17.88-2.85 3.85-6.37 8.91-7.83 11.25S8 96.68 8 97.5c0 1.28 2.76 1.5 18.75 1.53l18.75.02c7.94-8.95 13.57-14.78 17.62-18.73 4.06-3.95 9.18-8.62 11.38-10.39 2.2-1.76 8.05-5.89 13-9.17 4.95-3.28 12.15-7.56 16-9.5 3.85-1.94 11.05-5.1 16-7.01 4.95-1.92 11.47-4.15 14.5-4.97 3.03-.82 7.07-1.89 9-2.38 1.93-.49 8.45-1.61 14.5-2.49 6.05-.89 16.18-1.61 22.5-1.61s15.1.52 19.5 1.16c4.4.64 11.15 1.78 15 2.55 3.85.77 11.95 3.04 18 5.06 6.05 2.02 15.27 5.77 20.5 8.34 5.23 2.57 12.88 6.85 17 9.51 4.13 2.65 10.43 7.07 14 9.8 3.57 2.73 11.58 10.22 17.79 16.63 6.21 6.41 11.28 11.99 11.25 12.4-.02.41 8.06.75 17.96.75 13.41 0 18.16-.32 18.61-1.25.34-.69-1.87-4.85-4.92-9.25s-9.11-12.28-13.46-17.5c-4.36-5.22-11.64-12.87-16.19-17-4.55-4.12-11.7-10.13-15.9-13.35-4.2-3.21-11.46-8.19-16.14-11.06-4.68-2.87-11.43-6.6-15-8.3-3.57-1.69-9.43-4.31-13-5.81-3.57-1.5-9.87-3.83-14-5.19-4.12-1.36-12.23-3.57-18-4.91-5.77-1.34-17.48-3.09-26-3.9S179.47.07 177 .14c-2.47.07-10.35.69-17.5 1.37zM7 118.75c.01.41-1.57 9.3-3.51 19.75-1.93 10.45-3.51 19.56-3.5 20.25.01.97 6.02 1.24 26.76 1.22 14.71-.01 27.06.32 27.43.75.38.43.31 2.13-.14 3.78s-1.57 7.28-2.48 12.5c-.92 5.22-2.07 11.53-2.57 14-.49 2.47-1.62 8.55-2.5 13.5-.89 4.95-1.99 11.02-2.46 13.5-.47 2.48-1.56 8.32-2.42 13-.86 4.68-2.71 14.8-4.11 22.5-1.39 7.7-2.96 16.25-3.47 19-.52 2.75-1.19 7.14-1.49 9.75L32 287l55.33-.5c1.92-10.07 3.67-19.52 5.13-27.5l5.16-28 4.98-27c1.36-7.43 2.99-16.43 3.62-20 .63-3.57 1.9-10.32 2.82-15l1.67-8.5 54.79-.48c1.21-5.05 2.2-10.12 2.99-14.52.78-4.4 2.11-11.82 2.95-16.5.84-4.68 1.53-9.06 1.54-9.75.02-.99-17.24-1.25-82.98-1.25-45.65 0-83 .34-83 .75zm177.11 5c-.61 3.16-3.36 18.13-6.1 33.25-2.74 15.13-5.48 30.2-6.09 33.5-.6 3.3-1.7 9.15-2.44 13-.73 3.85-1.85 9.93-2.48 13.5-.63 3.57-1.75 9.65-2.48 13.5-.74 3.85-1.83 9.7-2.42 13-.59 3.3-2.19 11.85-3.55 19-1.37 7.15-2.83 15.59-3.27 18.76l-.78 5.77c49.06-.03 55.59-.32 55.9-1.28.21-.69.92-4.4 1.57-8.25.65-3.85 3.3-18.48 5.89-32.5l4.71-25.5 56.93-.5c-1.07 7.36-2.09 13.32-2.95 18-.87 4.68-2.49 13.68-3.61 20-1.12 6.32-2.43 13.07-2.92 15-.49 1.93-1.14 6.09-1.45 9.25L268 287l55.5.01c2.07-11.24 3.31-17.88 4.09-22.01.78-4.12 1.9-10.2 2.49-13.5.6-3.3 1.71-9.37 2.49-13.5.77-4.12 2.55-13.8 3.94-21.5 1.4-7.7 3.02-16.7 3.6-20 .59-3.3 1.67-9.15 2.41-13 .73-3.85 1.85-9.93 2.48-13.5.63-3.57 1.55-8.53 2.03-11 .48-2.47 1.6-8.55 2.48-13.5.89-4.95 2.02-11.03 2.52-13.5.5-2.47 1.15-6.64 1.44-9.25L354 118l-55.5-.02c-2.05 10.48-3.07 15.77-3.58 18.52-.52 2.75-2.03 11.07-3.35 18.5-1.33 7.43-2.67 15.19-2.99 17.25L288 176l-57.5.03c1.07-5.84 1.83-10 2.38-13.03.56-3.03 1.75-9.55 2.67-14.5.91-4.95 2.46-13.5 3.44-19 .99-5.5 1.62-10.34 1.4-10.75-.21-.41-12.71-.75-27.78-.75h-27.38m119.63 196.56c-4.05 4.71-10.06 10.93-13.36 13.81-3.3 2.89-8.93 7.51-12.5 10.27-3.57 2.76-9.87 7.1-14 9.64-4.12 2.54-11.77 6.62-17 9.07-5.23 2.44-13.1 5.6-17.5 7.02-4.4 1.41-10.7 3.28-14 4.14-3.3.86-10.5 2.21-16 3.01-5.5.79-15.85 1.44-23 1.44s-17.5-.65-23-1.44c-5.5-.79-13.6-2.38-18-3.53s-11.37-3.28-15.5-4.73c-4.12-1.45-12-4.85-17.5-7.55s-13.6-7.26-18-10.12c-4.4-2.86-11.15-7.86-15-11.1-3.85-3.24-9.25-8.02-12-10.62-2.75-2.6-7.25-7.45-10-10.79l-5-6.07c-33.98-.01-35.5.14-35.52 1.74-.01.96 2.29 5.13 5.1 9.25 2.82 4.13 7.51 10.43 10.43 14 2.92 3.57 7.93 9.22 11.15 12.54 3.21 3.32 8.54 8.47 11.84 11.43 3.3 2.96 9.15 7.71 13 10.55 3.85 2.84 9.93 7.01 13.5 9.26 3.57 2.26 12.13 6.78 19 10.05 6.88 3.27 15.88 7.1 20 8.52 4.13 1.42 10.88 3.46 15 4.53 4.13 1.07 11.1 2.63 15.5 3.48 4.4.85 14.3 2.03 22 2.64 10.02.78 17.84.79 27.5.03 7.43-.59 17.32-1.78 22-2.64 4.68-.87 11.88-2.45 16-3.52 4.13-1.06 10.88-3.09 15-4.5 4.13-1.41 13.35-5.4 20.5-8.86 7.15-3.46 17.05-8.96 22-12.23 4.95-3.27 12.58-8.83 16.95-12.36 4.37-3.53 11.51-10.02 15.87-14.42 4.36-4.4 10.65-11.37 13.97-15.5 3.33-4.12 8.24-10.87 10.91-15 2.68-4.12 4.85-8.06 4.83-8.75-.02-.95-4.49-1.25-18.92-1.25h-18.89" style="fill:#fff"/></svg>