<svg xmlns="http://www.w3.org/2000/svg" viewBox="0 0 469 546" width="469" height="546"><style></style><path id="Path 0" fill-rule="evenodd" d="M97.49 1H468v273.5L293.5 449h-77.13l-47.93 48c-26.37 26.4-48.39 47.85-48.94 47.67-.64-.22-1.18-17.48-2-95.17l-116-1-.5-351 48.25-48.25M119 186v145h87v66.5l66.68-66.5h77.82l78.5-78.5-.5-211-309.49-.51M264 107v119l-39.5-.5-.26-58c-.14-31.9-.04-58.56.23-59.25.36-.94 5.31-1.25 39.53-1.25zm107 0v119l-39.5-.5-.26-58c-.14-31.9-.04-58.56.23-59.25.36-.94 5.31-1.25 39.53-1.25z" style="fill:#fefefe"/></svg>