<svg xmlns="http://www.w3.org/2000/svg" viewBox="0 0 303 265" width="303" height="265"><style></style><path id="Path 0" d="M240 2c-3.03.49-8.43 1.84-12 2.99-3.57 1.16-9.43 3.75-13 5.78-3.57 2.02-9.37 6.39-12.88 9.7-3.52 3.32-8.31 8.73-10.66 12.03-2.35 3.3-6.32 10.05-8.82 15-2.5 4.95-5.47 11.7-6.6 15-1.13 3.3-2.05 6.79-2.05 7.75.01.96.46 1.75 1.01 1.75s4.71-.96 9.25-2.14c7.3-1.88 9.06-2 15.25-1.01 5.36.85 7.67 1.76 9.87 3.88 1.58 1.52 3.5 4.23 4.25 6.02.78 1.83 1.38 6.63 1.37 11-.01 4.26-.63 9.78-1.38 12.25-.75 2.47-2.7 7.42-4.33 11-1.64 3.58-5.12 10.33-7.76 15-2.63 4.68-5.29 9.4-5.92 10.5-.62 1.1-2.02 3.35-3.1 5-1.07 1.65-4.2 5.93-6.94 9.5-2.74 3.57-6.35 8.01-8.02 9.85-1.67 1.85-4.61 4.18-6.54 5.19-3.34 1.76-3.63 1.76-6.5.09-1.65-.96-3.97-3.07-5.16-4.69-1.19-1.61-3.15-5.19-4.36-7.94-1.2-2.75-2.99-7.47-3.97-10.5-.98-3.03-2.76-9.55-3.95-14.5-1.19-4.95-2.56-10.8-3.05-13-.48-2.2-1.36-6.7-1.94-10-.59-3.3-1.93-10.95-2.98-17-1.06-6.05-2.86-17.08-4.01-24.5-1.14-7.42-2.55-15.75-3.13-18.5-.58-2.75-1.56-7.02-2.19-9.5-.63-2.48-1.73-5.62-2.45-7-.71-1.37-1.3-2.84-1.3-3.25-.01-.41-1.66-3.34-3.68-6.5-2.02-3.16-4.61-6.67-5.75-7.8-1.14-1.14-4.11-3.26-6.58-4.73-2.96-1.76-7.06-3.01-12-3.67-6.07-.82-8.55-.71-13 .55-3.03.86-8.31 3.1-11.75 4.98-3.44 1.88-8.89 5.33-12.12 7.67-3.22 2.34-8.72 6.73-12.22 9.75-3.49 3.02-9.29 8.2-12.89 11.5-3.6 3.3-11.93 10.72-18.49 16.5-6.57 5.78-12.98 11.51-14.24 12.75C2.03 69.99 1 71.67 1 72.5c0 .83 2.81 5.12 6.25 9.53 3.66 4.71 6.97 8.02 8 8 .96-.01 5.01-2.21 9-4.86 3.99-2.66 8.6-5.64 10.25-6.62 2.04-1.21 3.96-1.57 6-1.13 1.65.35 3.7 1.19 4.56 1.86.85.67 3.34 3.69 5.52 6.72 2.18 3.03 5.37 8.88 7.1 13 1.73 4.13 3.85 9.53 4.72 12 .86 2.47 3.6 11.92 6.08 21 2.48 9.07 4.92 17.85 5.42 19.5.51 1.65 3.24 11.78 6.08 22.5 2.83 10.72 6.89 25.57 9.02 33 2.12 7.43 5.62 17.32 7.77 22 2.16 4.68 5.65 11.2 7.77 14.5 2.11 3.3 6.35 8.38 9.4 11.29 3.06 2.91 7.36 6.15 9.56 7.2 2.2 1.06 6.93 2.22 10.5 2.59 5.06.51 8.49.16 15.5-1.58 4.95-1.23 11.7-3.69 15-5.46 3.3-1.77 7.8-4.35 10-5.74 2.2-1.38 7.49-5.27 11.75-8.65 4.26-3.38 12.36-10.77 18-16.43 5.64-5.65 14.12-14.76 18.84-20.25 4.73-5.48 12.83-15.59 18.01-22.47 5.18-6.87 10.88-14.53 12.68-17 1.8-2.47 6.41-9.11 10.25-14.75 3.83-5.64 6.97-10.7 6.97-11.25 0-.55.34-1 .75-1.01.41 0 1.25-1.01 1.86-2.25.61-1.23 3.33-6.06 6.03-10.74 2.71-4.67 7.1-13.22 9.77-19 2.66-5.78 6.15-14.55 7.76-19.5 1.6-4.95 3.6-14.17 4.44-20.5 1.26-9.56 1.32-13.35.33-22.5-.82-7.58-2.13-13.49-4.23-19-2.54-6.65-4.08-9.01-9.18-14-4.67-4.56-7.68-6.56-12.58-8.33-5.06-1.84-9.03-2.42-18.45-2.7-6.6-.2-14.47.04-17.5.53z" style="fill:#fffeff"/></svg>