<svg xmlns="http://www.w3.org/2000/svg" viewBox="0 0 316 214" width="316" height="214"><style></style><path id="Path 0" d="M11.5 3.72C9.85 5.27 7.94 7.54 7.25 8.77S6 12.13 6 13.5c0 1.38-.45 2.72-1 3-.55.28-1.19 2.19-1.42 4.25C3.35 22.81 2.64 26.53 2 29 1.36 31.47.6 35.07.31 37c-.38 2.47.14 4.82 1.75 8 1.25 2.47 3.24 5.4 4.42 6.5 1.17 1.1 3.12 2.56 4.33 3.25 1.2.69 2.86 1.25 3.69 1.25.83 0 1.5.45 1.5 1s.67 1 1.5 1 3.41.91 5.75 2.01c2.34 1.11 4.59 2.01 5 2 .41 0 2.77.89 5.25 1.99 2.47 1.1 6.53 2.9 9 4 2.47 1.1 4.72 2 5 2 .28 0 2.64.94 5.25 2.1 2.61 1.15 5.65 2.47 6.75 2.92 1.1.44 3.5 1.41 5.33 2.15 3.18 1.27 3.3 1.5 2.67 5.33-.37 2.2-1.09 6.7-1.61 10s-1.4 9.6-1.96 14-1.43 11.15-1.94 15c-.51 3.85-1.43 11.28-2.04 16.5-.6 5.22-.82 13.32-.49 18 .34 4.68 1.61 11.43 2.82 15 1.22 3.57 2.55 6.61 2.97 6.75.41.14.75.7.75 1.25s1.44 3.14 3.2 5.75c1.76 2.61 3.68 5.3 4.25 5.97.58.66 1.55 1.79 2.15 2.5.61.7 2.86 2.88 5 4.84 2.15 1.96 6.94 5.22 10.65 7.25 3.71 2.03 8.66 4.18 11 4.79 2.34.6 8.07 1.54 12.75 2.08 5.79.68 11.21.66 17-.06 4.68-.59 10.3-1.37 12.5-1.74 2.2-.37 5.46-1.51 7.25-2.53 1.79-1.02 3.93-1.85 4.75-1.85.82 0 1.5-.45 1.5-1s.9-1 2-1 2-.45 2-1 .45-1 1-1 3.36-1.56 6.25-3.47c2.89-1.91 5.47-3.5 5.75-3.54.28-.04 2.3 1.53 4.5 3.49 2.2 1.95 4.56 3.55 5.25 3.54.69-.01 1.24.32 1.22.73-.01.41 1 1.26 2.25 1.88 1.26.62 4.31 2.05 6.78 3.18 2.47 1.12 6.53 2.63 9 3.36 2.96.88 9.45 1.28 19 1.18 12.73-.14 15.48-.48 22.5-2.8 4.4-1.45 10.37-3.85 13.26-5.34 2.9-1.49 5.26-3.05 5.25-3.46 0-.41.55-.74 1.24-.73.69.01 2.26-.89 3.5-2 1.24-1.11 2.59-2.01 3-2 .41.01 3.71-2.8 7.33-6.25s8.93-9.42 11.78-13.27c2.86-3.85 5.19-7.34 5.17-7.75-.02-.41.82-1.99 1.85-3.5 1.03-1.51 3.24-6.8 4.91-11.75 1.66-4.95 3.29-11.7 3.62-15 .32-3.3 1.01-8.93 1.52-12.5.51-3.57 1.4-9.87 1.97-14 .56-4.12 1.51-10.87 2.1-15 .59-4.12 1.48-11.32 1.97-16s.66-9.62.37-11c-.28-1.37-1.71-3.4-3.18-4.5-2.41-1.81-4.21-2-19.21-2-14.06 0-16.95.26-19.25 1.75-1.48.96-4.06 3.89-5.71 6.5-1.87 2.94-3.02 6.08-3.02 8.25-.01 1.93-.69 7.32-1.52 12-.83 4.68-1.98 12.32-2.55 17-.57 4.68-1.41 10.97-1.87 14-.46 3.03-1.15 8.2-1.53 11.5-.38 3.3-1.6 8.03-2.71 10.5-1.11 2.47-4.33 6.78-7.15 9.57-2.83 2.79-6.71 5.69-8.64 6.43-1.93.75-6.65 1.34-10.5 1.32-4.37-.03-7.09-.48-7.25-1.19-.14-.62-.81-1.13-1.5-1.13s-2.37-1.01-3.75-2.25c-1.37-1.24-3.58-4.28-4.9-6.75-2.16-4.03-2.34-5.28-1.75-12 .36-4.12 1.09-10.43 1.61-14 .52-3.57 1.39-10.55 1.93-15.5.54-4.95.76-10.12.5-11.5-.27-1.37-1.48-3.63-2.69-5.01s-3.77-3.06-5.7-3.74c-1.97-.69-8.54-1.24-15-1.25-9.75-.02-12.18.3-16 2.13-2.47 1.18-5.34 3.1-6.36 4.26-1.02 1.16-2.3 3.24-2.85 4.61-.54 1.38-1.41 5.43-1.93 9-.52 3.57-1.39 9.65-1.95 13.5-.56 3.85-1.24 9.47-1.53 12.5-.29 3.03-1.37 7.75-2.42 10.5-1.22 3.23-3.68 6.69-6.93 9.75-2.77 2.61-6.72 5.49-8.78 6.39-2.3 1-6.45 1.63-10.75 1.62-4.38 0-7.09-.42-7.25-1.13-.14-.62-.93-1.13-1.75-1.13s-2.89-1.46-4.6-3.25c-1.7-1.79-3.8-4.82-4.66-6.75-1.23-2.73-1.43-5.36-.92-12 .35-4.68 1.09-11.43 1.63-15 .54-3.57 1.47-9.87 2.06-14 .6-4.12 1.51-10.65 2.02-14.5.51-3.85 1.35-9.93 1.85-13.5.51-3.57 1.4-10.78 1.97-16 .57-5.22.82-11.3.55-13.5-.32-2.6-1.62-5.27-3.7-7.62-1.76-1.99-5.45-4.62-8.2-5.85-2.75-1.23-7.03-3.14-9.5-4.26-2.47-1.11-5.51-2.42-6.75-2.9-1.24-.48-3.49-1.38-5-2-1.51-.63-3.65-1.48-4.75-1.9-1.1-.42-3.8-1.54-6-2.48s-5.35-2.34-7-3.12c-1.65-.78-3.34-1.4-3.75-1.39-.41.01-2.89-.93-5.5-2.1-2.61-1.16-6.1-2.68-7.75-3.38-1.65-.69-7.05-2.93-12-4.98-4.95-2.05-10.91-4.58-13.25-5.62-2.34-1.05-6.16-2.15-8.5-2.45-3.69-.47-4.65-.17-7.25 2.27z" style="fill:#fefeff"/></svg>