<svg xmlns="http://www.w3.org/2000/svg" viewBox="0 0 963 830" width="400" height="340"><style></style><path id="Path 0" fill-rule="evenodd" d="M481 .1C721.5.01 728.83.07 740 1.95c6.33 1.07 16.9 3.35 23.5 5.08 6.6 1.74 14.25 4.08 17 5.22 2.75 1.14 5.45 2.46 6 2.93.55.47 1.67.83 2.5.81.83-.03 2.63.88 4 2.01 1.38 1.13 3.51 2.05 4.75 2.03 1.24-.02 3.04.38 4 .89s6.48 3.21 12.25 5.99c5.77 2.79 12.98 6.49 16 8.21 3.02 1.72 8.2 4.95 11.5 7.18 3.3 2.22 9.38 6.54 13.5 9.59 4.13 3.05 8.63 6.52 10 7.72 1.38 1.19 7 6.3 12.5 11.36 5.5 5.07 12.72 12.2 16.05 15.87 3.33 3.66 7.54 8.24 9.35 10.16 1.81 1.92 3.81 4.48 4.44 5.67.64 1.19 3.3 4.91 5.91 8.25 2.61 3.34 4.75 6.53 4.75 7.08 0 .55.45 1 1 1s1 .45 1 1 1.51 3.14 3.37 5.75c1.85 2.61 5.22 8.13 7.49 12.25 2.26 4.13 5 9.3 6.08 11.5 1.08 2.2 3.29 6.93 4.9 10.5 1.62 3.57 3.27 7.63 3.67 9 .41 1.38 1.06 2.95 1.46 3.5.4.55 2.11 5.28 3.81 10.5 1.69 5.22 3.6 11.3 4.23 13.5.63 2.2 1.57 5.57 2.09 7.5.52 1.93 1.38 5.75 1.91 8.5s1.64 8.38 2.48 12.5c1.31 6.53 1.51 31.03 1.49 189.5-.01 157.99-.22 183.12-1.53 190.5-.83 4.67-1.96 8.95-2.5 9.5-.54.55-.98 2.58-.97 4.5 0 1.92-.7 6.42-1.56 10-.86 3.58-1.83 7.17-2.16 8-.33.83-1.14 3.3-1.81 5.5-.67 2.2-2.66 8.05-4.44 13-1.77 4.95-4.89 12.38-6.94 16.5-2.05 4.13-5.58 11.33-7.85 16-2.27 4.67-7.86 14.13-12.43 21-4.56 6.88-12.62 17.67-17.91 24-5.29 6.33-14.74 16.46-21 22.52-6.26 6.06-14.98 13.9-19.38 17.43-4.4 3.52-14.08 10.4-21.5 15.29-7.42 4.89-17.77 10.99-23 13.57s-9.61 5.03-9.75 5.44c-.14.41-1.15.75-2.25.75s-3.46.87-5.25 1.93-11.58 4.63-21.75 7.95c-10.17 3.31-22.55 6.92-27.5 8.02-4.95 1.09-12.83 2.47-17.5 3.05-5.75.71-87.65 1.05-253.5 1.04-209.83 0-246.29-.21-254-1.46-4.95-.8-13.05-2.33-18-3.4-4.95-1.07-13.95-3.56-20-5.54-6.05-1.98-12.12-4.1-13.5-4.71-1.37-.61-3.29-1.51-4.25-2-.96-.48-2.54-.89-3.5-.9-.96-.02-4.68-1.48-8.25-3.25-3.57-1.78-6.72-3.46-7-3.75-.28-.29-3.43-2.01-7-3.84-3.57-1.82-8.97-4.68-12-6.36-3.03-1.67-10-6.07-15.5-9.76-5.5-3.69-12.08-8.47-14.62-10.62-2.54-2.14-5.46-4.59-6.5-5.44-1.03-.85-5.1-4.45-9.04-8-3.94-3.55-11.14-10.78-16-16.05-4.86-5.28-10.18-11.13-11.81-13-1.63-1.88-3.43-4.13-4-5.02-.57-.89-2.71-3.81-4.77-6.5-2.05-2.69-4.3-6.36-5-8.15-.69-1.8-1.71-3.26-2.26-3.24-.55.01-2.45-2.34-4.23-5.24-1.78-2.89-3.81-6.73-4.5-8.52-.7-1.79-1.61-3.25-2.02-3.25-.41.01-3.27-5.28-6.35-11.74-3.08-6.46-6.01-12.54-6.5-13.5-.5-.96-.9-2.87-.9-4.25 0-1.37-.46-2.61-1.02-2.75-.56-.14-2.61-4.75-4.56-10.25-1.95-5.5-4.67-14.73-6.05-20.5s-2.88-12.08-3.34-14c-.46-1.92-1.42-5.52-2.14-8C.84 603.38.53 566.23-.02 232.5l2.95-15c1.63-8.25 5.29-22.2 8.13-31 2.85-8.8 6.08-18.03 7.19-20.5 1.1-2.47 4.7-10.12 7.99-17 3.29-6.87 6.99-13.85 8.23-15.5 1.23-1.65 2.52-3.9 2.86-5 .34-1.1 1.43-2.9 2.42-4s3.12-4.25 4.73-7c1.61-2.75 7.44-10.62 12.97-17.5C62.98 93.13 72.22 82.8 78 77.06c5.77-5.74 15.22-14.22 21-18.86 5.78-4.63 14.1-10.82 18.5-13.75 4.4-2.93 11.15-7.13 15-9.34 3.85-2.2 11.72-6.31 17.5-9.14 5.78-2.82 11.29-5.54 12.25-6.05.96-.5 2.31-.91 3-.9.69.02 3.39-1.11 6-2.5 2.61-1.38 5.54-2.51 6.5-2.5.96.01 3.1-.64 4.75-1.45 1.65-.8 5.7-2.2 9-3.11 3.3-.9 9.38-2.55 13.5-3.66 4.13-1.11 12.22-2.83 18-3.82C232.9.29 247.73.18 481 .1zM244.5 108.51c-4.4.79-12.05 2.59-17 4-4.95 1.4-13.5 4.44-19 6.75-5.5 2.3-14.5 6.9-20 10.22-5.5 3.32-14.05 9.23-19 13.14-4.95 3.91-13.23 11.55-18.41 16.99-5.17 5.44-12.54 14.61-16.36 20.39-3.82 5.78-8.98 14.55-11.47 19.5-2.48 4.95-5.84 12.6-7.46 17s-4.36 13.4-6.08 20l-3.14 12c-.66 311.36-.54 325.88 1.01 335.5.93 5.77 3.01 15 4.63 20.5s4.67 14.05 6.76 19c2.1 4.95 5.21 11.25 6.9 14 1.7 2.75 3.51 5.9 4.03 7 .52 1.1 2.44 4.08 4.27 6.63 1.82 2.55 5.3 7.27 7.71 10.5 2.42 3.23 8.72 10.09 14 15.25 5.29 5.16 12.76 11.69 16.61 14.51 3.85 2.82 8.8 6.3 11 7.73 2.2 1.43 8.16 4.68 13.25 7.24 5.09 2.55 12.63 5.99 16.75 7.64 4.13 1.65 12.79 4.46 19.25 6.25l11.75 3.25 469.5.5c22.09-5.52 32.55-8.74 37.5-10.71 4.95-1.97 12.83-5.6 17.5-8.08 4.67-2.48 11.2-6.31 14.5-8.53 3.3-2.22 9.15-6.59 13-9.71 3.85-3.13 10.79-9.68 15.43-14.58 4.63-4.89 10.73-12.04 13.56-15.89 2.82-3.85 6.74-9.7 8.71-13 1.97-3.3 4.93-8.7 6.58-12 1.65-3.3 4.38-9.6 6.08-14 1.69-4.4 4.19-12.27 5.55-17.5 1.37-5.23 3.07-13.33 3.79-18 1.03-6.72 1.3-41.64 1.3-166.5 0-126.3-.27-159.81-1.33-167-.73-4.95-2.48-13.28-3.87-18.5-1.4-5.22-3.9-12.87-5.55-17-1.65-4.12-4.91-11.32-7.26-16-2.34-4.68-6.96-12.55-10.26-17.5-3.31-4.95-9.55-13.03-13.87-17.95-4.32-4.92-12.81-12.97-18.86-17.88-6.05-4.91-15.27-11.43-20.5-14.49-5.23-3.06-12.42-6.88-16-8.5s-11-4.5-16.5-6.4c-5.5-1.9-13.83-4.4-18.5-5.55-8.49-2.09-8.77-2.1-237.5-2.29-125.95-.1-230.35 0-232 .23-1.65.22-6.6 1.05-11 1.84zm350.75 27.51c2.06-.01 4.88.43 6.25.98 1.68.67 3.81 3.54 6.5 8.75 2.2 4.26 5.68 11.13 7.73 15.25 2.06 4.13 5.21 9.64 7 12.25 1.8 2.61 3.27 5.43 3.27 6.25 0 .82 1.5 3.86 3.34 6.75 1.84 2.89 5.91 10.2 9.03 16.25 3.13 6.05 5.67 11.56 5.66 12.25-.02.69 1.1 2.49 2.48 4 1.37 1.51 2.76 3.88 3.07 5.25.32 1.38 1.18 3.18 1.92 4 .75.82 15.36 27.82 32.47 60 17.12 32.18 33.87 64.13 37.23 71 3.35 6.88 6.37 13 6.7 13.6.33.61 1.77 2.86 3.21 5 1.43 2.15 6.55 11.55 11.38 20.9 4.82 9.35 10.46 19.93 12.52 23.5 2.06 3.57 5.6 10.21 7.87 14.75 2.27 4.54 4.12 8.93 4.12 9.75 0 .82.45 1.5 1 1.5s2.36 2.81 4.02 6.25c2.3 4.76 3.02 7.62 3 12-.02 4.44-.36 5.75-1.52 5.75-.83 0-1.84.96-2.25 2.14-.41 1.17-2.44 2.97-4.5 4-2.06 1.02-4.42 1.86-5.25 1.86-.83 0-1.5.45-1.5 1s-2.14 2.06-4.75 3.35-6.77 3.54-9.25 4.99c-2.48 1.45-5.51 2.64-6.75 2.65-1.24 0-2.36.41-2.5.9-.14.5-1.83 1.82-3.75 2.95-1.92 1.13-7.1 4.04-11.5 6.47-4.4 2.42-10.48 5.65-13.5 7.16-3.02 1.51-6.17 3.16-7 3.66-.83.5-5.19 2.81-9.7 5.14-4.51 2.33-13.28 7.03-19.5 10.45-6.21 3.42-12.09 6.24-13.05 6.25-.96.02-2.76.94-4 2.05-1.24 1.11-2.81 2.01-3.5 2-.69-.01-2.04.79-3 1.78-.96.98-4 2.64-6.75 3.68s-6.13 2.82-7.51 3.96c-1.39 1.13-6.22 3.97-10.75 6.31-4.53 2.34-8.91 4.25-9.74 4.25-.83 0-2.74 1.13-4.25 2.5-1.51 1.38-3.76 2.51-5 2.5-1.24 0-2.41.56-2.61 1.25-.19.69-3.46 2.57-7.25 4.19-3.79 1.61-7.23 3.52-7.64 4.25-.41.72-1.65 1.31-2.75 1.31s-2.56.46-3.25 1.01c-.69.56-3.05 2.21-5.25 3.66-2.2 1.46-6.7 3.98-10 5.61-3.3 1.62-9.88 5.04-14.62 7.59-4.74 2.55-11.83 6.32-15.75 8.38-3.92 2.06-7.8 3.75-8.63 3.75-.83 0-1.5.45-1.5 1s-2.36 2.19-5.25 3.65-9.3 4.8-14.25 7.42c-4.95 2.63-12.82 6.76-17.5 9.19-4.68 2.42-13 6.97-18.5 10.09-5.5 3.13-11.8 6.22-14 6.87-2.2.65-4.34 1.76-4.75 2.48-.41.71-1.65 1.3-2.75 1.3s-2 .45-2 1-2.87 2.46-6.38 4.25-10.59 5.37-15.75 7.97c-5.15 2.6-9.93 4.73-10.62 4.75-.69.02-1.25.48-1.25 1.03s-1.57 1.67-3.5 2.5c-1.93.83-3.73 1.95-4 2.5s-1.29.98-2.25.96c-.96-.03-2.25.53-2.87 1.25-.61.71-4.21 2.62-8 4.26-3.78 1.63-7.22 3.54-7.63 4.25-.41.7-1.87 1.28-3.25 1.28-1.37 0-2.73.67-3 1.5s-1.85 1.73-3.5 2-3 .95-3 1.5-2.93 2.35-6.5 4c-4.73 2.18-8 3-12 3-4.61 0-5.99-.45-8.5-2.75-1.65-1.51-3.01-3.65-3.02-4.75-.01-1.1-.87-2.9-1.9-4-1.03-1.1-4.5-6.73-7.71-12.5s-6.55-12.52-7.41-15c-.86-2.48-3.16-6.98-5.12-10-1.95-3.02-14.72-26.42-28.37-52-13.64-25.58-26.18-49.42-27.85-53-1.68-3.58-4.69-9.2-6.69-12.5-2.01-3.3-5.74-10.16-8.29-15.25-2.55-5.09-4.64-9.7-4.64-10.25 0-.55-1.01-2.24-2.25-3.76-1.24-1.51-5.46-9.05-9.38-16.75-3.91-7.69-10.27-19.61-14.11-26.49-3.85-6.87-10.65-19.59-15.13-28.25-4.47-8.66-8.13-16.65-8.13-17.75 0-1.11-.67-2-1.5-2-.82 0-1.79-1.24-2.14-2.75-.35-1.51-1.14-3.35-1.75-4.09-.61-.74-2.77-4.56-4.81-8.5-2.03-3.94-5.52-10.87-7.75-15.41-2.53-5.16-4.05-9.65-4.06-12 0-2.06.67-4.76 1.5-6 .83-1.24 3.42-3.19 5.76-4.34 2.34-1.14 7.85-4.04 12.25-6.44 4.4-2.4 11.6-6.23 16-8.51 4.4-2.29 11.6-6.11 16-8.5 4.4-2.39 11.6-6.22 16-8.5 4.4-2.29 11.6-6.11 16-8.5 4.4-2.39 11.26-5.94 15.25-7.9 4.64-2.28 8.69-3.56 11.25-3.56 2.2 0 5.15.56 6.56 1.25 1.52.74 3.97 3.91 6.01 7.75 1.89 3.57 5.3 10.1 7.57 14.5 2.27 4.4 6.07 11.6 8.45 16 2.38 4.4 5.37 10.02 6.65 12.5 1.27 2.48 4.16 7.65 6.42 11.5 2.25 3.85 5.73 10.26 7.72 14.25 1.99 3.99 3.62 7.93 3.62 8.75 0 .82 1.15 2.74 2.54 4.25 1.4 1.51 5.9 9.39 10 17.5 4.11 8.11 7.46 15.2 7.46 15.75 0 .55 1.13 2.24 2.51 3.75 1.37 1.51 2.72 3.76 3 5 .27 1.24 1.66 3.94 3.09 6 1.42 2.06 4.12 6.79 6 10.5 1.87 3.71 3.41 7.54 3.42 8.5.01.96.9 2.65 1.97 3.75 1.07 1.1 4.81 7.4 8.31 14 3.5 6.6 11.46 21.45 17.69 33 6.22 11.55 13.18 24.83 15.46 29.5 2.28 4.67 5.7 10.89 7.6 13.82 1.9 2.93 4.35 5.55 5.45 5.84 1.15.3 4.99-.94 9-2.89 3.85-1.87 12.58-6.52 19.39-10.34 6.82-3.81 13.01-7.94 13.75-9.18.92-1.51 1.06-2.82.43-4-.51-.96-2.93-5.12-5.37-9.25-2.44-4.12-9.08-16.27-14.74-27s-11.47-21.98-12.91-25c-1.44-3.02-4.51-8.65-6.84-12.5-2.32-3.85-4.79-8.8-5.49-11-.7-2.2-2.89-6.48-4.87-9.5-1.99-3.02-7.48-12.93-12.21-22s-8.61-17.29-8.62-18.25c-.01-.96-.47-1.75-1.02-1.75s-1.9-1.8-3-4-2-4.45-2-5c0-.55-1.62-3.36-3.61-6.25-1.99-2.89-6.26-10.54-9.5-17-3.24-6.46-5.89-12.43-5.89-13.25 0-.82-.34-1.49-.75-1.47-.41.02-1.97-2.12-3.47-4.75-1.49-2.63-2.73-5.57-2.75-6.53-.02-.96-.71-1.98-1.53-2.25-.82-.27-1.5-1.4-1.5-2.5s-.55-2.34-1.21-2.75c-.67-.41-2.75-3.9-4.63-7.75-1.87-3.85-5.35-10.6-7.72-15-2.38-4.4-6.6-12.5-9.39-18-3.75-7.39-5.07-11.11-5.06-14.25.01-3.48.6-4.82 3.26-7.39 1.79-1.73 6.18-4.62 9.75-6.43 3.57-1.82 10.1-5.17 14.5-7.45 4.4-2.28 11.6-6.1 16-8.5 4.4-2.4 11.6-6.24 16-8.52 4.4-2.29 11.6-6.11 16-8.49 4.4-2.39 9.8-5.26 12-6.38 2.2-1.13 5.8-2.06 8-2.08 2.2-.01 5.01.65 6.25 1.48 1.24.83 3.14 3.2 4.22 5.26 1.08 2.06 3.61 6.9 5.62 10.75 2.01 3.85 6.05 11.5 8.98 17 2.93 5.5 6.64 12.7 8.23 16 1.59 3.3 3.52 6.51 4.3 7.14.77.62 2.23 3.1 3.25 5.5s2.24 5.04 2.72 5.86c.47.82 2.22 3.75 3.87 6.5s3.01 6.01 3.03 7.25c.02 1.24.48 2.25 1.03 2.25s2.54 2.81 4.41 6.25c1.88 3.44 3.77 7.6 4.21 9.25.43 1.65 2.43 5.48 4.45 8.5 2.01 3.02 14.91 26.65 28.67 52.5 13.75 25.85 26.64 50.26 28.63 54.25 2 3.99 3.63 7.7 3.63 8.25 0 .55 1.01 2.26 2.25 3.81 1.24 1.54 5.63 9.18 9.75 16.98 4.13 7.8 8.17 14.37 9 14.59.83.23 2.63-.2 4-.95 1.38-.76 6.1-3.22 10.5-5.48 4.4-2.25 11.65-5.98 16.12-8.27 4.46-2.3 9.09-5.08 10.28-6.18 1.19-1.1 2.15-2.56 2.13-3.25-.02-.69-3.46-8.11-7.65-16.5s-10.71-20.87-14.5-27.75c-3.78-6.87-8.9-16.44-11.38-21.25-2.47-4.81-4.5-9.65-4.5-10.75 0-1.1-.67-2.23-1.5-2.5s-2.97-3.54-4.76-7.25c-1.79-3.71-4.68-9-6.42-11.75-1.74-2.75-3.95-7.02-4.9-9.5-.95-2.48-2.31-5.18-3.01-6-.71-.82-2.46-3.98-3.9-7s-5.96-11.57-10.04-19c-4.09-7.43-13.25-24.52-20.36-38-7.11-13.48-13.99-26.57-15.27-29.11-1.29-2.54-4.13-8.16-6.31-12.5-2.19-4.34-5.75-10.82-7.91-14.39-2.17-3.57-5.67-10.1-7.79-14.5-2.63-5.45-3.85-9.35-3.84-12.25.01-2.98.68-5 2.26-6.77 1.24-1.38 3.82-3.41 5.75-4.5 1.93-1.1 6.65-3.6 10.5-5.57 3.85-1.96 10.6-5.54 15-7.96 4.4-2.41 11.6-6.25 16-8.52 4.4-2.27 11.6-6.08 16-8.47 4.4-2.39 11.15-5.99 15-8.01 3.85-2.01 10.38-5.41 14.5-7.54 4.75-2.45 8.88-3.88 11.25-3.89z" style="fill:#fff"/></svg>