<svg xmlns="http://www.w3.org/2000/svg" xmlns:xlink="http://www.w3.org/1999/xlink" width="256" height="256.005" viewBox="0 0 256 256.005"><defs><linearGradient id="a" y1="-0.063" x2="0.928" y2="1" gradientUnits="objectBoundingBox"><stop offset="0" stop-color="#65747c"/><stop offset="1" stop-color="#2f2f4d"/></linearGradient></defs><g transform="translate(-32 -31.999)"><g transform="translate(32 32)"><path d="M256,53.179c0-2.031,0-4.061-.012-6.092-.011-1.711-.03-3.42-.076-5.131a74.564,74.564,0,0,0-.977-11.166,37.717,37.717,0,0,0-3.5-10.62A35.709,35.709,0,0,0,235.82,4.561a37.682,37.682,0,0,0-10.615-3.5A74.614,74.614,0,0,0,214.034.081C212.324.035,210.614.015,208.9,0c-2.031-.012-4.061-.011-6.092-.011H53.19c-2.031,0-4.061,0-6.092.011-1.711.011-3.42.03-5.131.076A74.61,74.61,0,0,0,30.8,1.063a37.683,37.683,0,0,0-10.616,3.5A35.711,35.711,0,0,0,4.569,20.171,37.693,37.693,0,0,0,1.075,30.79,74.4,74.4,0,0,0,.1,41.957c-.047,1.71-.065,3.42-.076,5.131C0,49.118,0,51.149,0,53.179V202.815c0,2.031,0,4.061.012,6.092.011,1.711.03,3.42.076,5.131A74.408,74.408,0,0,0,1.065,225.2a37.691,37.691,0,0,0,3.5,10.62,35.708,35.708,0,0,0,15.61,15.609,37.713,37.713,0,0,0,10.615,3.5,74.514,74.514,0,0,0,11.171.983c1.71.046,3.42.066,5.131.076q3.053.012,6.1.008H202.811c2.031,0,4.061,0,6.092-.012,1.711-.011,3.42-.03,5.131-.076a74.522,74.522,0,0,0,11.171-.983,37.714,37.714,0,0,0,10.615-3.5,35.706,35.706,0,0,0,15.61-15.609,37.712,37.712,0,0,0,3.5-10.62,74.578,74.578,0,0,0,.977-11.166c.046-1.71.065-3.42.076-5.131.013-2.031.012-4.061.012-6.092V53.179Z" transform="translate(0 0.006)" fill-rule="evenodd" fill="url(#a)"/></g><path d="M9036.5,681.5v-9h-61v9h-2v-9h-63v9h-2v-9h-53.633q-.186-.191-.367-.386V617.5h-8v-2h8V553.532l-8-.03v-2l8,.03V489.5h-8v-2h8V434.893q.672-.721,1.394-1.394H8908.5v-8h2v8h63v-8h2v8h61v-8h2v8h54.612q.195.181.386.366V487.5h9v2h-9v62.965l9,.035v2l-9-.035V615.5h9v2h-9v55h-55v9Zm21.343-45.063a120.182,120.182,0,0,1-19.341,15.334V670.5h53v-53h-17.9A119.64,119.64,0,0,1,9057.846,636.438Zm-49.92,29.219a120.607,120.607,0,0,1-32.422,4.834v.009h61V653.019A119.4,119.4,0,0,1,9007.926,665.658ZM8910.5,670.5l63,0a119.66,119.66,0,0,1-63-18.1Zm-54,0h52V651.128a119.751,119.751,0,0,1-34.1-33.629h-17.9Zm54-20.463a117.285,117.285,0,0,0,39.813,16.095A119.34,119.34,0,0,0,8973.5,668.5v-24a92.089,92.089,0,0,1-17.812-1.832,91.067,91.067,0,0,1-32.539-13.586,92.239,92.239,0,0,1-12.647-10.2Zm113.666-20.5a91.055,91.055,0,0,1-48.665,14.955v24a119.485,119.485,0,0,0,22.183-2.36,117.194,117.194,0,0,0,38.816-15.464V619.827A92.071,92.071,0,0,1,9024.169,629.534ZM9038.5,617.9v31.493c.4-.265.8-.528,1.2-.793a117.677,117.677,0,0,0,31.487-31.1H9038.9C9038.761,617.645,9038.63,617.776,9038.5,617.9Zm-147.592,16.472A118.428,118.428,0,0,0,8908.3,648.6l.2.133V617.5h-31.685A117.51,117.51,0,0,0,8890.913,634.373Zm33.051-7.155A89.141,89.141,0,0,0,8973.5,642.5v-25h-61.55A90.415,90.415,0,0,0,8923.964,627.218Zm51.54,15.268a89.994,89.994,0,0,0,16.535-1.8,88.988,88.988,0,0,0,32-13.463,90.428,90.428,0,0,0,12.013-9.719H8975.5Zm110.6-49.353a118.057,118.057,0,0,1-11.192,22.37H9091.5V573.7A116.831,116.831,0,0,1,9086.105,593.132Zm-27.577-5.031a91.683,91.683,0,0,1-17.7,27.4h31.7a115.234,115.234,0,0,0,18.946-61.046l-25.982-.1A90.933,90.933,0,0,1,9058.528,588.1Zm-27.444-5.04A64.558,64.558,0,0,1,8990,615.5H9036.5V569A64.125,64.125,0,0,1,9031.084,583.062ZM8910.5,615.5h47.5a64.486,64.486,0,0,1-47.5-51.115Zm-51.612-40.025a115.145,115.145,0,0,0,6.845,21.868,116.578,116.578,0,0,0,9.739,18.158h31.7a92.287,92.287,0,0,1-9.814-12.5,91.062,91.062,0,0,1-14.854-49.358l-25.991-.1A116.457,116.457,0,0,0,8858.891,575.477ZM8856.5,615.5h16.591a117.2,117.2,0,0,1-16.591-41.8Zm59.91-38.175A62.45,62.45,0,0,0,8973.5,615.5V554l-62-.242A62.181,62.181,0,0,0,8916.413,577.328Zm59.091,38.154a62.11,62.11,0,0,0,33.44-10.655,62.66,62.66,0,0,0,22.647-27.5,62.028,62.028,0,0,0,4.9-23.085L8975.5,554Zm63-.434a89.21,89.21,0,0,0,24.988-60.7l-24.988-.1Zm-152.184-44.01a88.833,88.833,0,0,0,13.468,32,90.175,90.175,0,0,0,8.713,10.954V553.742l-24-.094A90.073,90.073,0,0,0,8886.321,571.038Zm163.743-68.918a91.126,91.126,0,0,1,15.437,50.235l26,.1V552a115.205,115.205,0,0,0-18.32-62.5h-33.3A92.074,92.074,0,0,1,9050.064,502.12Zm-11.56,50.13,25,.1a90.294,90.294,0,0,0-1.818-17.385,88.941,88.941,0,0,0-13.465-32,90.339,90.339,0,0,0-9.714-12.008Zm-63-.247,61,.24a62.231,62.231,0,0,0-10.669-34.188,62.836,62.836,0,0,0-16.886-16.883,62.2,62.2,0,0,0-33.44-10.653Zm-25.83-56.591a62.235,62.235,0,0,0-10.611,5.759,62.7,62.7,0,0,0-22.649,27.5,62.029,62.029,0,0,0-4.9,23.081L8973.5,552V490.5A62.1,62.1,0,0,0,8949.674,495.413Zm-49.885,7.548a89.067,89.067,0,0,0-15.274,48.686l23.987.1V492.011A89.971,89.971,0,0,0,8899.789,502.961Zm-34.054,3.7a115.222,115.222,0,0,0-9.229,44.88l26,.1a92.359,92.359,0,0,1,1.926-17.454,91.437,91.437,0,0,1,23.688-44.686h-33.3A116.187,116.187,0,0,0,8865.735,506.657Zm44.98-16.942c-.068.071-.142.142-.213.217V541.6a64.227,64.227,0,0,1,10.263-25.025A64.672,64.672,0,0,1,8949.06,493.5a64.032,64.032,0,0,1,13.545-4h-51.672C8910.859,489.573,8910.789,489.644,8910.716,489.715Zm86.5,3.089A64.589,64.589,0,0,1,9036.5,537V489.5h-51.119A63.944,63.944,0,0,1,8997.216,492.8Zm89.1,18.635A116.787,116.787,0,0,1,9091.5,530.3V489.5h-15.951A117.9,117.9,0,0,1,9086.318,511.439ZM8856.5,530.3a117.088,117.088,0,0,1,15.953-40.8H8856.5Zm182-78.072a119.634,119.634,0,0,1,35.76,35.274H9091.5v-52h-53Zm0,35.274h33.363c-.144-.21-.285-.423-.427-.628A117.63,117.63,0,0,0,9039.7,455.4c-.4-.267-.8-.532-1.2-.793Zm-63,0h59.489a90.392,90.392,0,0,0-10.952-8.716,89.1,89.1,0,0,0-48.537-15.27Zm-19.54-22.181a89.018,89.018,0,0,0-32,13.465,90.921,90.921,0,0,0-10.952,8.716h60.49v-24A90.144,90.144,0,0,0,8955.964,465.318ZM8908.3,455.4a117.593,117.593,0,0,0-31.734,31.472c-.14.2-.283.416-.428.628H8908.5V455.264C8908.434,455.309,8908.367,455.355,8908.3,455.4Zm-51.8,32.1h17.237A119.624,119.624,0,0,1,8908.5,452.87V435.5h-52Zm93.813-49.632a117.409,117.409,0,0,0-39.813,16.095v33.16a91.565,91.565,0,0,1,28.322-18.615,91.019,91.019,0,0,1,16.974-5.2,92.47,92.47,0,0,1,17.7-1.809v-26A119.311,119.311,0,0,0,8950.316,437.867Zm25.188,23.645a91.054,91.054,0,0,1,48.665,14.955,91.872,91.872,0,0,1,12.334,9.7v-32.84a117.326,117.326,0,0,0-38.816-15.464,119.277,119.277,0,0,0-22.183-2.358Zm-65-9.917a119.318,119.318,0,0,1,41.522-16.095H8910.5Zm104.13-11.071a119.824,119.824,0,0,1,21.87,10.454V435.5h-40.525A119.409,119.409,0,0,1,9014.633,440.524Z" transform="translate(-8814.503 -393.5)" fill="#aaa"/></g></svg>