<svg xmlns="http://www.w3.org/2000/svg" xmlns:xlink="http://www.w3.org/1999/xlink" width="256" height="256.003" viewBox="0 0 256 256.003"><defs><style>.a{fill-rule:evenodd;fill:url(#a);}.b{fill:#e2ecff;}.c{fill:url(#b);}</style><linearGradient id="a" y1="-0.063" x2="0.928" y2="1" gradientUnits="objectBoundingBox"><stop offset="0" stop-color="#2f2f2f"/><stop offset="1" stop-color="#000525"/></linearGradient><linearGradient id="b" x1="0.072" y1="0.065" x2="0.987" y2="0.924" gradientUnits="objectBoundingBox"><stop offset="0" stop-color="#82bbff"/><stop offset="1" stop-color="#4c7cfa"/></linearGradient></defs><g transform="translate(-32 -31.999)"><g transform="translate(32 31.999)"><path class="a" d="M256,41.463c0-1.583,0-3.166-.009-4.75-.008-1.334-.024-2.667-.059-4a58.143,58.143,0,0,0-.762-8.706,29.408,29.408,0,0,0-2.728-8.28A27.842,27.842,0,0,0,240.266,3.555,29.38,29.38,0,0,0,231.989.828a58.176,58.176,0,0,0-8.71-.766c-1.333-.036-2.667-.051-4-.059-1.583-.009-3.167-.008-4.75-.008H41.472c-1.583,0-3.167,0-4.75.008-1.334.008-2.667.024-4,.059a58.174,58.174,0,0,0-8.71.766,29.381,29.381,0,0,0-8.277,2.728A27.844,27.844,0,0,0,3.563,15.726a29.389,29.389,0,0,0-2.725,8.28,58.008,58.008,0,0,0-.762,8.706c-.037,1.333-.051,2.667-.059,4C0,38.3,0,39.879,0,41.463V214.53c0,1.583,0,3.166.009,4.75.008,1.334.024,2.667.059,4a58.016,58.016,0,0,0,.762,8.706,29.387,29.387,0,0,0,2.728,8.28A27.841,27.841,0,0,0,15.73,252.438a29.405,29.405,0,0,0,8.277,2.727,58.1,58.1,0,0,0,8.71.766c1.333.036,2.667.051,4,.059Q39.1,256,41.472,256H214.529c1.583,0,3.167,0,4.75-.009,1.334-.008,2.667-.024,4-.059a58.1,58.1,0,0,0,8.71-.766,29.405,29.405,0,0,0,8.277-2.727,27.84,27.84,0,0,0,12.171-12.171,29.4,29.4,0,0,0,2.729-8.28,58.147,58.147,0,0,0,.762-8.706c.036-1.333.051-2.667.059-4,.01-1.583.009-3.166.009-4.75V41.463Z" transform="translate(0 0.006)"/></g><path class="b" d="M6563.342,545.949a13.013,13.013,0,0,1-12.975-12.975V507.024a13.013,13.013,0,0,1,12.975-12.975h97.315a13.013,13.013,0,0,1,12.975,12.975v25.951a13.013,13.013,0,0,1-12.975,12.975Zm85.522-28.652,3.452,16.311h8.891l5.657-26.266h-7.015l-2.867,19.139h-.256l-4.226-19.139h-7.346l-4.042,19.139h-.183l-3.2-19.139h-7.273l5.584,26.266h9.294l3.343-16.311Zm-36.846,0h.182l3.453,16.311h8.89l5.657-26.266h-7.016l-2.864,19.139h-.259l-4.224-19.139h-7.347l-4.04,19.139h-.184l-3.2-19.139H6593.8l5.584,26.266h9.293l3.344-16.311Zm-36.479,0,3.454,16.311h8.89l5.657-26.266h-7.016l-2.865,19.139h-.259l-4.223-19.139h-7.348l-4.042,19.139h-.184l-3.2-19.139h-7.273l5.583,26.266h9.295l3.343-16.311Z" transform="translate(-6452 -359.999)"/><path class="c" d="M6544.042,587.97A96,96,0,0,1,6612.031,424h.015a96.359,96.359,0,0,1,31.632,5.327,10.35,10.35,0,0,1,3.97,17.089,10.427,10.427,0,0,1-7.336,3.035,10.261,10.261,0,0,1-3.368-.566,75.7,75.7,0,0,0-24.912-4.205,75.32,75.32,0,1,0,53.35,128.647,75.981,75.981,0,0,0,17.815-78.171,10.3,10.3,0,0,1,2.432-10.744,10.444,10.444,0,0,1,9.63-2.758,10.333,10.333,0,0,1,7.484,6.739,96.142,96.142,0,0,1-158.7,99.578Zm115.1-129.981a14.409,14.409,0,1,1,14.409,14.4A14.424,14.424,0,0,1,6659.14,457.989Z" transform="translate(-6452 -359.999)"/></g></svg>