<svg xmlns="http://www.w3.org/2000/svg" xmlns:xlink="http://www.w3.org/1999/xlink" width="256" height="256.003" viewBox="0 0 256 256.003"><defs><style>.a{fill-rule:evenodd;fill:url(#a);}.b{fill:url(#b);}.c{fill:#fff;}</style><linearGradient id="a" y1="-0.063" x2="0.928" y2="1" gradientUnits="objectBoundingBox"><stop offset="0" stop-color="#2f2f2f"/><stop offset="1" stop-color="#000525"/></linearGradient><linearGradient id="b" x2="1" y2="1.022" gradientUnits="objectBoundingBox"><stop offset="0" stop-color="#dff4ff"/><stop offset="1" stop-color="#2588d3"/></linearGradient></defs><g transform="translate(-32 -32)"><g transform="translate(32 32)"><path class="a" d="M256,41.463c0-1.583,0-3.166-.009-4.75-.008-1.334-.024-2.667-.059-4a58.143,58.143,0,0,0-.762-8.706,29.408,29.408,0,0,0-2.728-8.28A27.842,27.842,0,0,0,240.266,3.555,29.38,29.38,0,0,0,231.989.828a58.176,58.176,0,0,0-8.71-.766c-1.333-.036-2.667-.051-4-.059-1.583-.009-3.167-.008-4.75-.008H41.472c-1.583,0-3.167,0-4.75.008-1.334.008-2.667.024-4,.059a58.174,58.174,0,0,0-8.71.766,29.381,29.381,0,0,0-8.277,2.728A27.844,27.844,0,0,0,3.563,15.726a29.389,29.389,0,0,0-2.725,8.28,58.008,58.008,0,0,0-.762,8.706c-.037,1.333-.051,2.667-.059,4C0,38.3,0,39.879,0,41.463V214.53c0,1.583,0,3.166.009,4.75.008,1.334.024,2.667.059,4a58.016,58.016,0,0,0,.762,8.706,29.387,29.387,0,0,0,2.728,8.28A27.841,27.841,0,0,0,15.73,252.438a29.405,29.405,0,0,0,8.277,2.727,58.1,58.1,0,0,0,8.71.766c1.333.036,2.667.051,4,.059Q39.1,256,41.472,256H214.529c1.583,0,3.167,0,4.75-.009,1.334-.008,2.667-.024,4-.059a58.1,58.1,0,0,0,8.71-.766,29.405,29.405,0,0,0,8.277-2.727,27.84,27.84,0,0,0,12.171-12.171,29.4,29.4,0,0,0,2.729-8.28,58.147,58.147,0,0,0,.762-8.706c.036-1.333.051-2.667.059-4,.01-1.583.009-3.166.009-4.75V41.463Z" transform="translate(0 0.006)"/></g><g transform="translate(87.7 67.329)"><path class="b" d="M6442.927-1029.987a51.112,51.112,0,0,1-19.286-4.422,50.9,50.9,0,0,1-15.673-10.909,50.3,50.3,0,0,1-10.531-15.864,49.756,49.756,0,0,1-3.854-19.281,49.857,49.857,0,0,1,2.774-16.44,50.244,50.244,0,0,1,7.719-14.219,50.9,50.9,0,0,1,11.761-11.033,50.888,50.888,0,0,1,14.908-6.894l.025-.006.246-.065a57.813,57.813,0,0,1,6.5-18.669,58.878,58.878,0,0,1,12.639-15.693,59.345,59.345,0,0,1,17.279-10.612,59.582,59.582,0,0,1,20.541-4.219l.024,0,1.605-.023h.015a59.666,59.666,0,0,1,21.1,3.823,59.331,59.331,0,0,1,17.793,10.537,58.845,58.845,0,0,1,13.029,15.863,57.708,57.708,0,0,1,6.673,18.994,50.975,50.975,0,0,1,13.909,6.138,50.951,50.951,0,0,1,12.109,10.708,50.221,50.221,0,0,1,8.136,13.988,49.752,49.752,0,0,1,3.258,16.3v.029l.023,1.5a49.711,49.711,0,0,1-3.833,19.224,50.251,50.251,0,0,1-10.475,15.832,50.819,50.819,0,0,1-15.6,10.909,51.022,51.022,0,0,1-19.2,4.466c-.109,0-.222.006-.333.006a9,9,0,0,1-6.272-2.532,9,9,0,0,1-2.767-6.194,9.062,9.062,0,0,1,8.721-9.372,32.473,32.473,0,0,0,31.655-32.345,32.351,32.351,0,0,0-27.477-31.913l-1.291-.188-7.618-.938-.3-7.69c-.849-21.893-18.961-39.043-41.236-39.043-21.547,0-39.624,16.554-41.166,37.689l-.072,1.356-.3,7.677-7.633.942a32.577,32.577,0,0,0-28.752,32.109c0,17.272,14.156,31.787,31.562,32.373l58.652-.023a9.064,9.064,0,0,1,9.056,9.049,9,9,0,0,1-2.648,6.4,8.99,8.99,0,0,1-6.4,2.653l-58.95.023Z" transform="translate(-6416.501 1197.325)"/><path class="c" d="M298.546,347h13.569a4.729,4.729,0,0,0,3.392-8.024l-20.319-20.84a4.729,4.729,0,0,0-6.767,0L268.1,338.973a4.729,4.729,0,0,0,3.4,8.041h13.552v18.359a6.75,6.75,0,0,0,13.495,0Z" transform="translate(-216.854 -244.133)"/></g></g></svg>