<svg xmlns="http://www.w3.org/2000/svg" xmlns:xlink="http://www.w3.org/1999/xlink" width="256" height="256.004" viewBox="0 0 256 256.004"><defs><linearGradient id="a" y1="-0.063" x2="0.928" y2="1" gradientUnits="objectBoundingBox"><stop offset="0" stop-color="#65747c"/><stop offset="1" stop-color="#2f2f4d"/></linearGradient><linearGradient id="b" x2="1" y2="1.022" gradientUnits="objectBoundingBox"><stop offset="0" stop-color="#dff4ff"/><stop offset="1" stop-color="#2588d3"/></linearGradient></defs><g transform="translate(-32 -32)"><g transform="translate(32 32)"><path d="M256,53.179c0-2.031,0-4.061-.012-6.092-.011-1.711-.03-3.42-.076-5.131a74.564,74.564,0,0,0-.977-11.166,37.717,37.717,0,0,0-3.5-10.62A35.709,35.709,0,0,0,235.82,4.561a37.682,37.682,0,0,0-10.615-3.5A74.614,74.614,0,0,0,214.034.081C212.324.035,210.614.015,208.9,0c-2.031-.012-4.061-.011-6.092-.011H53.19c-2.031,0-4.061,0-6.092.011-1.711.011-3.42.03-5.131.076A74.61,74.61,0,0,0,30.8,1.063a37.683,37.683,0,0,0-10.616,3.5A35.711,35.711,0,0,0,4.569,20.171,37.693,37.693,0,0,0,1.075,30.79,74.4,74.4,0,0,0,.1,41.957c-.047,1.71-.065,3.42-.076,5.131C0,49.118,0,51.149,0,53.179V202.815c0,2.031,0,4.061.012,6.092.011,1.711.03,3.42.076,5.131A74.408,74.408,0,0,0,1.065,225.2a37.691,37.691,0,0,0,3.5,10.62,35.708,35.708,0,0,0,15.61,15.609,37.713,37.713,0,0,0,10.615,3.5,74.514,74.514,0,0,0,11.171.983c1.71.046,3.42.066,5.131.076q3.053.012,6.1.008H202.811c2.031,0,4.061,0,6.092-.012,1.711-.011,3.42-.03,5.131-.076a74.522,74.522,0,0,0,11.171-.983,37.714,37.714,0,0,0,10.615-3.5,35.706,35.706,0,0,0,15.61-15.609,37.712,37.712,0,0,0,3.5-10.62,74.578,74.578,0,0,0,.977-11.166c.046-1.71.065-3.42.076-5.131.013-2.031.012-4.061.012-6.092V53.179Z" transform="translate(0 0.006)" fill-rule="evenodd" fill="url(#a)"/></g><g transform="translate(87.7 67.329)"><path d="M6442.927-1029.987a51.112,51.112,0,0,1-19.286-4.422,50.9,50.9,0,0,1-15.673-10.909,50.3,50.3,0,0,1-10.531-15.864,49.756,49.756,0,0,1-3.854-19.281,49.857,49.857,0,0,1,2.774-16.44,50.244,50.244,0,0,1,7.719-14.219,50.9,50.9,0,0,1,11.761-11.033,50.888,50.888,0,0,1,14.908-6.894l.025-.006.246-.065a57.813,57.813,0,0,1,6.5-18.669,58.878,58.878,0,0,1,12.639-15.693,59.345,59.345,0,0,1,17.279-10.612,59.582,59.582,0,0,1,20.541-4.219l.024,0,1.605-.023h.015a59.666,59.666,0,0,1,21.1,3.823,59.331,59.331,0,0,1,17.793,10.537,58.845,58.845,0,0,1,13.029,15.863,57.708,57.708,0,0,1,6.673,18.994,50.975,50.975,0,0,1,13.909,6.138,50.951,50.951,0,0,1,12.109,10.708,50.221,50.221,0,0,1,8.136,13.988,49.752,49.752,0,0,1,3.258,16.3v.029l.023,1.5a49.711,49.711,0,0,1-3.833,19.224,50.251,50.251,0,0,1-10.475,15.832,50.819,50.819,0,0,1-15.6,10.909,51.022,51.022,0,0,1-19.2,4.466c-.109,0-.222.006-.333.006a9,9,0,0,1-6.272-2.532,9,9,0,0,1-2.767-6.194,9.062,9.062,0,0,1,8.721-9.372,32.473,32.473,0,0,0,31.655-32.345,32.351,32.351,0,0,0-27.477-31.913l-1.291-.188-7.618-.938-.3-7.69c-.849-21.893-18.961-39.043-41.236-39.043-21.547,0-39.624,16.554-41.166,37.689l-.072,1.356-.3,7.677-7.633.942a32.577,32.577,0,0,0-28.752,32.109c0,17.272,14.156,31.787,31.562,32.373l58.652-.023a9.064,9.064,0,0,1,9.056,9.049,9,9,0,0,1-2.648,6.4,8.99,8.99,0,0,1-6.4,2.653l-58.95.023Z" transform="translate(-6416.501 1197.325)" fill="url(#b)"/><path d="M298.546,347h13.569a4.729,4.729,0,0,0,3.392-8.024l-20.319-20.84a4.729,4.729,0,0,0-6.767,0L268.1,338.973a4.729,4.729,0,0,0,3.4,8.041h13.552v18.359a6.75,6.75,0,0,0,13.495,0Z" transform="translate(-216.854 -244.133)" fill="#fff"/></g></g></svg>