<svg xmlns="http://www.w3.org/2000/svg" xmlns:xlink="http://www.w3.org/1999/xlink" width="256" height="256.004" viewBox="0 0 256 256.004"><defs><linearGradient id="a" y1="-0.063" x2="0.928" y2="1" gradientUnits="objectBoundingBox"><stop offset="0" stop-color="#65747c"/><stop offset="1" stop-color="#2f2f4d"/></linearGradient><linearGradient id="b" y1="-0.066" x2="1" y2="1.068" gradientUnits="objectBoundingBox"><stop offset="0" stop-color="#a2b9fd"/><stop offset="0.305" stop-color="#d2b8ff"/><stop offset="0.75" stop-color="#708cfa"/><stop offset="1" stop-color="#5b83fa"/></linearGradient></defs><g transform="translate(-32 -31.999)"><g transform="translate(32 31.999)"><path d="M256,53.179c0-2.031,0-4.061-.012-6.092-.011-1.711-.03-3.42-.076-5.131a74.564,74.564,0,0,0-.977-11.166,37.717,37.717,0,0,0-3.5-10.62A35.709,35.709,0,0,0,235.82,4.561a37.682,37.682,0,0,0-10.615-3.5A74.614,74.614,0,0,0,214.034.081C212.324.035,210.614.015,208.9,0c-2.031-.012-4.061-.011-6.092-.011H53.19c-2.031,0-4.061,0-6.092.011-1.711.011-3.42.03-5.131.076A74.61,74.61,0,0,0,30.8,1.063a37.683,37.683,0,0,0-10.616,3.5A35.711,35.711,0,0,0,4.569,20.171,37.693,37.693,0,0,0,1.075,30.79,74.4,74.4,0,0,0,.1,41.957c-.047,1.71-.065,3.42-.076,5.131C0,49.118,0,51.149,0,53.179V202.815c0,2.031,0,4.061.012,6.092.011,1.711.03,3.42.076,5.131A74.408,74.408,0,0,0,1.065,225.2a37.691,37.691,0,0,0,3.5,10.62,35.708,35.708,0,0,0,15.61,15.609,37.713,37.713,0,0,0,10.615,3.5,74.514,74.514,0,0,0,11.171.983c1.71.046,3.42.066,5.131.076q3.053.012,6.1.008H202.811c2.031,0,4.061,0,6.092-.012,1.711-.011,3.42-.03,5.131-.076a74.522,74.522,0,0,0,11.171-.983,37.714,37.714,0,0,0,10.615-3.5,35.706,35.706,0,0,0,15.61-15.609,37.712,37.712,0,0,0,3.5-10.62,74.578,74.578,0,0,0,.977-11.166c.046-1.71.065-3.42.076-5.131.013-2.031.012-4.061.012-6.092V53.179Z" transform="translate(0 0.006)" fill-rule="evenodd" fill="url(#a)"/></g><path d="M8904.467,373.891a15.808,15.808,0,1,1,15.809,15.808A15.808,15.808,0,0,1,8904.467,373.891Zm-47.425-3.952A11.856,11.856,0,1,1,8868.9,381.8,11.856,11.856,0,0,1,8857.042,369.939Zm-63.232-7.9a19.76,19.76,0,1,1,19.76,19.76A19.76,19.76,0,0,1,8793.81,362.035Zm158.082-19.76a7.9,7.9,0,1,1,7.9,7.9A7.9,7.9,0,0,1,8951.892,342.274ZM8849.138,314.61a27.665,27.665,0,1,1,27.665,27.665A27.665,27.665,0,0,1,8849.138,314.61ZM8778,302.754a15.808,15.808,0,1,1,15.809,15.808A15.808,15.808,0,0,1,8778,302.754Zm150.178-7.9a15.809,15.809,0,1,1,15.809,15.808A15.808,15.808,0,0,1,8928.179,294.85Zm-110.657-35.569a19.76,19.76,0,1,1,19.761,19.76A19.76,19.76,0,0,1,8817.521,259.281Zm63.233,0a11.856,11.856,0,1,1,11.855,11.856A11.856,11.856,0,0,1,8880.755,259.281Zm31.616-27.665a15.808,15.808,0,1,1,15.808,15.808A15.808,15.808,0,0,1,8912.371,231.617Zm-126.466-3.952a11.856,11.856,0,1,1,11.855,11.856A11.856,11.856,0,0,1,8785.905,227.665Zm79.041-15.809a11.856,11.856,0,1,1,11.856,11.856A11.856,11.856,0,0,1,8864.946,211.856Z" transform="translate(-8712.85 -134.85)" fill="url(#b)"/></g></svg>