<svg xmlns="http://www.w3.org/2000/svg" xmlns:xlink="http://www.w3.org/1999/xlink" width="256" height="256.003" viewBox="0 0 256 256.003"><defs><style>.a{fill-rule:evenodd;fill:url(#a);}.b{fill:url(#b);}</style><linearGradient id="a" y1="-0.063" x2="0.928" y2="1" gradientUnits="objectBoundingBox"><stop offset="0" stop-color="#2f2f2f"/><stop offset="1" stop-color="#000525"/></linearGradient><linearGradient id="b" y1="-0.066" x2="1" y2="1.068" gradientUnits="objectBoundingBox"><stop offset="0" stop-color="#a2b9fd"/><stop offset="0.305" stop-color="#d2b8ff"/><stop offset="0.75" stop-color="#708cfa"/><stop offset="1" stop-color="#5b83fa"/></linearGradient></defs><g transform="translate(-32 -31.999)"><g transform="translate(32 31.999)"><path class="a" d="M256,41.463c0-1.583,0-3.166-.009-4.75-.008-1.334-.024-2.667-.059-4a58.143,58.143,0,0,0-.762-8.706,29.408,29.408,0,0,0-2.728-8.28A27.842,27.842,0,0,0,240.266,3.555,29.38,29.38,0,0,0,231.989.828a58.176,58.176,0,0,0-8.71-.766c-1.333-.036-2.667-.051-4-.059-1.583-.009-3.167-.008-4.75-.008H41.472c-1.583,0-3.167,0-4.75.008-1.334.008-2.667.024-4,.059a58.174,58.174,0,0,0-8.71.766,29.381,29.381,0,0,0-8.277,2.728A27.844,27.844,0,0,0,3.563,15.726a29.389,29.389,0,0,0-2.725,8.28,58.008,58.008,0,0,0-.762,8.706c-.037,1.333-.051,2.667-.059,4C0,38.3,0,39.879,0,41.463V214.53c0,1.583,0,3.166.009,4.75.008,1.334.024,2.667.059,4a58.016,58.016,0,0,0,.762,8.706,29.387,29.387,0,0,0,2.728,8.28A27.841,27.841,0,0,0,15.73,252.438a29.405,29.405,0,0,0,8.277,2.727,58.1,58.1,0,0,0,8.71.766c1.333.036,2.667.051,4,.059Q39.1,256,41.472,256H214.529c1.583,0,3.167,0,4.75-.009,1.334-.008,2.667-.024,4-.059a58.1,58.1,0,0,0,8.71-.766,29.405,29.405,0,0,0,8.277-2.727,27.84,27.84,0,0,0,12.171-12.171,29.4,29.4,0,0,0,2.729-8.28,58.147,58.147,0,0,0,.762-8.706c.036-1.333.051-2.667.059-4,.01-1.583.009-3.166.009-4.75V41.463Z" transform="translate(0 0.006)"/></g><path class="b" d="M8904.467,373.891a15.808,15.808,0,1,1,15.809,15.808A15.808,15.808,0,0,1,8904.467,373.891Zm-47.425-3.952A11.856,11.856,0,1,1,8868.9,381.8,11.856,11.856,0,0,1,8857.042,369.939Zm-63.232-7.9a19.76,19.76,0,1,1,19.76,19.76A19.76,19.76,0,0,1,8793.81,362.035Zm158.082-19.76a7.9,7.9,0,1,1,7.9,7.9A7.9,7.9,0,0,1,8951.892,342.274ZM8849.138,314.61a27.665,27.665,0,1,1,27.665,27.665A27.665,27.665,0,0,1,8849.138,314.61ZM8778,302.754a15.808,15.808,0,1,1,15.809,15.808A15.808,15.808,0,0,1,8778,302.754Zm150.178-7.9a15.809,15.809,0,1,1,15.809,15.808A15.808,15.808,0,0,1,8928.179,294.85Zm-110.657-35.569a19.76,19.76,0,1,1,19.761,19.76A19.76,19.76,0,0,1,8817.521,259.281Zm63.233,0a11.856,11.856,0,1,1,11.855,11.856A11.856,11.856,0,0,1,8880.755,259.281Zm31.616-27.665a15.808,15.808,0,1,1,15.808,15.808A15.808,15.808,0,0,1,8912.371,231.617Zm-126.466-3.952a11.856,11.856,0,1,1,11.855,11.856A11.856,11.856,0,0,1,8785.905,227.665Zm79.041-15.809a11.856,11.856,0,1,1,11.856,11.856A11.856,11.856,0,0,1,8864.946,211.856Z" transform="translate(-8712.85 -134.85)"/></g></svg>