<svg xmlns="http://www.w3.org/2000/svg" xmlns:xlink="http://www.w3.org/1999/xlink" width="256" height="256.004" viewBox="0 0 256 256.004"><defs><linearGradient id="a" y1="-0.063" x2="0.928" y2="1" gradientUnits="objectBoundingBox"><stop offset="0" stop-color="#65747c"/><stop offset="1" stop-color="#2f2f4d"/></linearGradient><linearGradient id="b" x1="-0.028" x2="0.976" y2="1.055" gradientUnits="objectBoundingBox"><stop offset="0" stop-color="#1fa3e3"/><stop offset="1" stop-color="#0582bd"/></linearGradient></defs><g transform="translate(-32 -31.999)"><g transform="translate(32 31.999)"><path d="M256,53.179c0-2.031,0-4.061-.012-6.092-.011-1.711-.03-3.42-.076-5.131a74.564,74.564,0,0,0-.977-11.166,37.717,37.717,0,0,0-3.5-10.62A35.709,35.709,0,0,0,235.82,4.561a37.682,37.682,0,0,0-10.615-3.5A74.614,74.614,0,0,0,214.034.081C212.324.035,210.614.015,208.9,0c-2.031-.012-4.061-.011-6.092-.011H53.19c-2.031,0-4.061,0-6.092.011-1.711.011-3.42.03-5.131.076A74.61,74.61,0,0,0,30.8,1.063a37.683,37.683,0,0,0-10.616,3.5A35.711,35.711,0,0,0,4.569,20.171,37.693,37.693,0,0,0,1.075,30.79,74.4,74.4,0,0,0,.1,41.957c-.047,1.71-.065,3.42-.076,5.131C0,49.118,0,51.149,0,53.179V202.815c0,2.031,0,4.061.012,6.092.011,1.711.03,3.42.076,5.131A74.408,74.408,0,0,0,1.065,225.2a37.691,37.691,0,0,0,3.5,10.62,35.708,35.708,0,0,0,15.61,15.609,37.713,37.713,0,0,0,10.615,3.5,74.514,74.514,0,0,0,11.171.983c1.71.046,3.42.066,5.131.076q3.053.012,6.1.008H202.811c2.031,0,4.061,0,6.092-.012,1.711-.011,3.42-.03,5.131-.076a74.522,74.522,0,0,0,11.171-.983,37.714,37.714,0,0,0,10.615-3.5,35.706,35.706,0,0,0,15.61-15.609,37.712,37.712,0,0,0,3.5-10.62,74.578,74.578,0,0,0,.977-11.166c.046-1.71.065-3.42.076-5.131.013-2.031.012-4.061.012-6.092V53.179Z" transform="translate(0 0.006)" fill-rule="evenodd" fill="url(#a)"/></g><g transform="translate(77.449 74.236)"><path d="M11.428,7.975,89.915,1.153a11,11,0,0,1,5.132.766,11.881,11.881,0,0,1,4.222,2.955,14.26,14.26,0,0,1,2.863,4.693,16.929,16.929,0,0,1,1.053,5.961V155.52a17.27,17.27,0,0,1-1.053,6,15.008,15.008,0,0,1-2.863,4.8,12.547,12.547,0,0,1-4.222,3.119,11.21,11.21,0,0,1-5.132.967l-78.487-3.762A9.865,9.865,0,0,1,6.953,165.3a12.5,12.5,0,0,1-3.629-3.236,15.763,15.763,0,0,1-2.434-4.64A17.788,17.788,0,0,1,0,151.838V23.234A18.112,18.112,0,0,1,.89,17.61a16.529,16.529,0,0,1,2.434-4.74A13.236,13.236,0,0,1,6.953,9.492a10.2,10.2,0,0,1,4.475-1.517Z" fill="url(#b)"/><path d="M7.619.136,50.842.911a7.227,7.227,0,0,1,3.213.827A8.62,8.62,0,0,1,56.691,3.89a10.37,10.37,0,0,1,1.784,3.16,11.464,11.464,0,0,1,.655,3.842,11.173,11.173,0,0,1-.655,3.808,9.707,9.707,0,0,1-1.784,3.068,8,8,0,0,1-2.636,2.016,6.989,6.989,0,0,1-3.213.661L7.619,18.988a6.572,6.572,0,0,1-2.977-.839,8.136,8.136,0,0,1-2.42-2.091A10.134,10.134,0,0,1,.6,13.029,11.425,11.425,0,0,1,0,9.366,11.148,11.148,0,0,1,.6,5.734,9.5,9.5,0,0,1,2.222,2.788,7.547,7.547,0,0,1,4.642.822,6.337,6.337,0,0,1,7.619.136Z" transform="translate(22.02 131.52)" fill="#fff"/><path d="M12.4,15.666,0,15.346a18.909,18.909,0,0,0,.965,6A16.724,16.724,0,0,0,3.606,26.32a13.351,13.351,0,0,0,3.939,3.448,10.708,10.708,0,0,0,4.859,1.4,10.271,10.271,0,0,0,4.9-1.033,12.253,12.253,0,0,0,4.031-3.2,15.58,15.58,0,0,0,2.733-4.882,18.43,18.43,0,0,0,1.005-6.07,18.893,18.893,0,0,0-1-6.122,16.625,16.625,0,0,0-2.733-5.023,13.2,13.2,0,0,0-4.031-3.4A10.627,10.627,0,0,0,12.4.158,10.316,10.316,0,0,0,7.545,1.31,12.383,12.383,0,0,0,3.606,4.555,15.686,15.686,0,0,0,.965,9.393,18.455,18.455,0,0,0,0,15.346Z" transform="translate(9.593 125.22)" fill="#fff"/><path d="M2.5,3.149,0,3.1A3.774,3.774,0,0,0,.2,4.3a3.319,3.319,0,0,0,.535,1,2.641,2.641,0,0,0,.8.683,2.128,2.128,0,0,0,.975.267,2.062,2.062,0,0,0,.977-.22,2.475,2.475,0,0,0,.8-.646,3.143,3.143,0,0,0,.539-.975,3.7,3.7,0,0,0,.2-1.2,3.773,3.773,0,0,0-.2-1.214,3.316,3.316,0,0,0-.539-1,2.635,2.635,0,0,0-.8-.681A2.125,2.125,0,0,0,2.5.048a2.064,2.064,0,0,0-.975.225,2.48,2.48,0,0,0-.8.648A3.147,3.147,0,0,0,.2,1.894,3.7,3.7,0,0,0,0,3.1Z" transform="translate(19.496 132.793)" fill="#0f277f"/><path d="M2.586,3.214,0,3.147a3.787,3.787,0,0,0,.2,1.23A3.378,3.378,0,0,0,.756,5.393a2.738,2.738,0,0,0,.822.7,2.236,2.236,0,0,0,1.008.276A2.155,2.155,0,0,0,3.6,6.148a2.535,2.535,0,0,0,.826-.654,3.161,3.161,0,0,0,.557-.989,3.693,3.693,0,0,0,.2-1.225,3.786,3.786,0,0,0-.2-1.235,3.372,3.372,0,0,0-.557-1.018A2.732,2.732,0,0,0,3.6.331,2.233,2.233,0,0,0,2.586.06,2.157,2.157,0,0,0,1.578.284,2.539,2.539,0,0,0,.756.94,3.163,3.163,0,0,0,.2,1.927,3.694,3.694,0,0,0,0,3.147Z" transform="translate(39.326 138.186)" fill="#0f277f"/><path d="M2.627,3.239,0,3.171a3.791,3.791,0,0,0,.206,1.24A3.4,3.4,0,0,0,.768,5.435a2.776,2.776,0,0,0,.835.7,2.285,2.285,0,0,0,1.024.279A2.2,2.2,0,0,0,3.652,6.2a2.57,2.57,0,0,0,.839-.658,3.178,3.178,0,0,0,.566-1,3.694,3.694,0,0,0,.208-1.234,3.789,3.789,0,0,0-.208-1.245,3.392,3.392,0,0,0-.566-1.026,2.771,2.771,0,0,0-.839-.7A2.282,2.282,0,0,0,2.627.061,2.2,2.2,0,0,0,1.6.287a2.576,2.576,0,0,0-.835.66,3.183,3.183,0,0,0-.562,1A3.7,3.7,0,0,0,0,3.171Z" transform="translate(48.673 138.403)" fill="#0f277f"/><path d="M2.668,3.265,0,3.2A3.792,3.792,0,0,0,.209,4.45,3.415,3.415,0,0,0,.78,5.477a2.816,2.816,0,0,0,.848.709,2.335,2.335,0,0,0,1.04.281,2.252,2.252,0,0,0,1.041-.222,2.607,2.607,0,0,0,.852-.663,3.2,3.2,0,0,0,.575-1,3.7,3.7,0,0,0,.211-1.244,3.793,3.793,0,0,0-.211-1.255,3.413,3.413,0,0,0-.575-1.034A2.809,2.809,0,0,0,3.709.338,2.331,2.331,0,0,0,2.668.062a2.254,2.254,0,0,0-1.04.227A2.612,2.612,0,0,0,.78.955a3.2,3.2,0,0,0-.571,1A3.7,3.7,0,0,0,0,3.2Z" transform="translate(58.082 138.621)" fill="#0f277f"/><path d="M2.71,3.291,0,3.221a3.8,3.8,0,0,0,.213,1.26,3.436,3.436,0,0,0,.58,1.04,2.854,2.854,0,0,0,.861.715,2.386,2.386,0,0,0,1.056.283A2.3,2.3,0,0,0,3.768,6.3a2.643,2.643,0,0,0,.865-.668A3.214,3.214,0,0,0,5.217,4.62a3.7,3.7,0,0,0,.214-1.254A3.8,3.8,0,0,0,5.217,2.1a3.432,3.432,0,0,0-.584-1.042A2.85,2.85,0,0,0,3.768.341,2.383,2.383,0,0,0,2.71.063,2.3,2.3,0,0,0,1.654.292a2.65,2.65,0,0,0-.861.67,3.218,3.218,0,0,0-.58,1.01A3.7,3.7,0,0,0,0,3.221Z" transform="translate(67.723 138.844)" fill="#0f277f"/><path d="M9.708,8.03a1.986,1.986,0,0,0,.963-.215,2.109,2.109,0,0,0,.746-.635,2.159,2.159,0,0,0,.391-.939,2.368,2.368,0,0,0-.1-1.127,8.587,8.587,0,0,0-.966-2.007,7.307,7.307,0,0,0-1.36-1.552A6.075,6.075,0,0,0,7.729.542,5.251,5.251,0,0,0,5.889.153,5.086,5.086,0,0,0,4.054.445a5.613,5.613,0,0,0-1.637.92A6.669,6.669,0,0,0,1.076,2.832,7.977,7.977,0,0,0,.127,4.765a2.331,2.331,0,0,0-.1,1.11A2.3,2.3,0,0,0,1.145,7.506a2.038,2.038,0,0,0,.949.275Z" transform="translate(16.109 141.025)" fill="#0f277f"/></g><g transform="translate(-14.542 5.695)"><rect width="13.518" height="91.251" rx="6.759" transform="translate(183.01 156.557) rotate(-45)" fill="#656a70"/><path d="M41.967,16.273A25.694,25.694,0,1,0,67.66,41.967,25.694,25.694,0,0,0,41.967,16.273M41.967,0A41.967,41.967,0,1,1,0,41.967,41.967,41.967,0,0,1,41.967,0Z" transform="translate(147.991 195.143) rotate(-85)" fill="#eaeaeb"/><circle cx="29.12" cy="29.12" r="29.12" transform="translate(161.909 183.464) rotate(-85)" fill="#0271c8"/></g></g></svg>