<svg xmlns="http://www.w3.org/2000/svg" xmlns:xlink="http://www.w3.org/1999/xlink" width="256" height="256.004" viewBox="0 0 256 256.004"><defs><linearGradient id="a" y1="-0.063" x2="0.928" y2="1" gradientUnits="objectBoundingBox"><stop offset="0" stop-color="#65747c"/><stop offset="1" stop-color="#2f2f4d"/></linearGradient><linearGradient id="b" x1="-0.052" x2="1.052" y2="1.078" gradientUnits="objectBoundingBox"><stop offset="0" stop-color="#c0fad4"/><stop offset="1" stop-color="#42cadf"/></linearGradient><linearGradient id="c" x1="0.305" y1="-0.157" x2="1.267" y2="1.285" gradientUnits="objectBoundingBox"><stop offset="0" stop-color="#5fa5e1"/><stop offset="1" stop-color="#ebdddd"/></linearGradient></defs><g transform="translate(-32 -31.997)"><g transform="translate(32 31.997)"><path d="M256,53.179c0-2.031,0-4.061-.012-6.092-.011-1.711-.03-3.42-.076-5.131a74.564,74.564,0,0,0-.977-11.166,37.717,37.717,0,0,0-3.5-10.62A35.709,35.709,0,0,0,235.82,4.561a37.682,37.682,0,0,0-10.615-3.5A74.614,74.614,0,0,0,214.034.081C212.324.035,210.614.015,208.9,0c-2.031-.012-4.061-.011-6.092-.011H53.19c-2.031,0-4.061,0-6.092.011-1.711.011-3.42.03-5.131.076A74.61,74.61,0,0,0,30.8,1.063a37.683,37.683,0,0,0-10.616,3.5A35.711,35.711,0,0,0,4.569,20.171,37.693,37.693,0,0,0,1.075,30.79,74.4,74.4,0,0,0,.1,41.957c-.047,1.71-.065,3.42-.076,5.131C0,49.118,0,51.149,0,53.179V202.815c0,2.031,0,4.061.012,6.092.011,1.711.03,3.42.076,5.131A74.408,74.408,0,0,0,1.065,225.2a37.691,37.691,0,0,0,3.5,10.62,35.708,35.708,0,0,0,15.61,15.609,37.713,37.713,0,0,0,10.615,3.5,74.514,74.514,0,0,0,11.171.983c1.71.046,3.42.066,5.131.076q3.053.012,6.1.008H202.811c2.031,0,4.061,0,6.092-.012,1.711-.011,3.42-.03,5.131-.076a74.522,74.522,0,0,0,11.171-.983,37.714,37.714,0,0,0,10.615-3.5,35.706,35.706,0,0,0,15.61-15.609,37.712,37.712,0,0,0,3.5-10.62,74.578,74.578,0,0,0,.977-11.166c.046-1.71.065-3.42.076-5.131.013-2.031.012-4.061.012-6.092V53.179Z" transform="translate(0 0.006)" fill-rule="evenodd" fill="url(#a)"/></g><g transform="translate(28.865 -28.261)"><path d="M8515.143-246.119a15.812,15.812,0,0,1-6.3-1.3,16.058,16.058,0,0,1-5.13-3.533,16.4,16.4,0,0,1-3.447-5.221,16.589,16.589,0,0,1-1.261-6.373V-375.576a16.585,16.585,0,0,1,1.261-6.372,16.391,16.391,0,0,1,3.447-5.221,16.05,16.05,0,0,1,5.131-3.533,15.8,15.8,0,0,1,6.3-1.3h94.513a15.816,15.816,0,0,1,6.3,1.3,16.075,16.075,0,0,1,5.13,3.533,16.391,16.391,0,0,1,3.447,5.221,16.573,16.573,0,0,1,1.261,6.372v84.135l.689,4.747-3.063-3.518a27.891,27.891,0,0,0-2.284-2.389,27.606,27.606,0,0,0-6.857-4.673l-.781-.375v-77.928a4,4,0,0,0-3.846-4.128h-94.513a4,4,0,0,0-3.846,4.128v113.032a4,4,0,0,0,3.846,4.129h63.019l.4.658c.263.428.539.853.822,1.264,1.686,2.444-3.333,4.593-.959,6.389.673.509,1.377.993,2.092,1.437l3.872,2.409-4.751.139Zm13.62-18.575a3.72,3.72,0,0,1-2.893-1.367,3.643,3.643,0,0,1-.758-3.042,15.288,15.288,0,0,1,1.953-4.984,15.668,15.668,0,0,1,3.47-3.975,15.806,15.806,0,0,1,4.643-2.634,15.989,15.989,0,0,1,5.461-.953,16.075,16.075,0,0,1,5.486.952,15.888,15.888,0,0,1,4.647,2.632,15.667,15.667,0,0,1,3.475,3.976,15.289,15.289,0,0,1,1.958,4.989,3.672,3.672,0,0,1-.771,3.048,3.73,3.73,0,0,1-2.891,1.359Zm5.574-19.956a8.685,8.685,0,0,1-2.63-6.241,8.684,8.684,0,0,1,2.63-6.24,8.963,8.963,0,0,1,6.321-2.571,8.968,8.968,0,0,1,6.32,2.571,8.685,8.685,0,0,1,2.629,6.24,8.687,8.687,0,0,1-2.629,6.242,8.968,8.968,0,0,1-6.32,2.571A8.961,8.961,0,0,1,8534.337-284.651ZM8529-312.912a6.111,6.111,0,0,1-4.348-1.8,6.106,6.106,0,0,1-1.8-4.347,6.106,6.106,0,0,1,1.8-4.348,6.1,6.1,0,0,1,4.348-1.8h66.792a6.109,6.109,0,0,1,4.349,1.8,6.111,6.111,0,0,1,1.8,4.348,6.108,6.108,0,0,1-1.8,4.347,6.109,6.109,0,0,1-4.348,1.8Zm0-33.4a6.108,6.108,0,0,1-4.348-1.8,6.11,6.11,0,0,1-1.8-4.348,6.106,6.106,0,0,1,1.8-4.347,6.107,6.107,0,0,1,4.348-1.8h66.792a6.11,6.11,0,0,1,4.349,1.8,6.108,6.108,0,0,1,1.8,4.347,6.108,6.108,0,0,1-1.8,4.348,6.108,6.108,0,0,1-4.348,1.8Z" transform="translate(-8428.906 504.658)" fill="url(#b)"/><path d="M38.953,0a5.425,5.425,0,0,0-3.837,9.262,5.425,5.425,0,0,0,7.673-7.672A5.389,5.389,0,0,0,38.953,0ZM57.948.129a4.981,4.981,0,0,0-2.977,1,4.9,4.9,0,0,0-1.794,2.649,6.059,6.059,0,0,0,4.08,7.248,21.5,21.5,0,0,1,2.463.9,27.136,27.136,0,0,1-10.5,51.829c-.228.006-.47.01-.74.01A27.135,27.135,0,0,1,22.222,43.444l3.266,1.65a5.425,5.425,0,0,0,5.75-9.147l-.836-.521L17.492,28.85a7.593,7.593,0,0,0-9.624,2.343l-.586.977L.587,45.31a5.425,5.425,0,0,0,4.835,7.879,5.474,5.474,0,0,0,2.372-.544,5.37,5.37,0,0,0,1.94-1.584l.521-.836,1.659-3.281A37.986,37.986,0,1,0,63.289,1.638,33.85,33.85,0,0,0,59.253.3,4.963,4.963,0,0,0,57.948.129ZM22.515,10.384a5.425,5.425,0,1,0,3.836,1.589A5.392,5.392,0,0,0,22.515,10.384Z" transform="translate(231.41 263.37) rotate(169)" fill="url(#c)"/></g></g></svg>