<svg xmlns="http://www.w3.org/2000/svg" xmlns:xlink="http://www.w3.org/1999/xlink" width="256" height="256.004" viewBox="0 0 256 256.004"><defs><linearGradient id="a" y1="-0.063" x2="0.928" y2="1" gradientUnits="objectBoundingBox"><stop offset="0" stop-color="#65747c"/><stop offset="1" stop-color="#2f2f4d"/></linearGradient><linearGradient id="b" y1="0.074" x2="1" y2="1.071" gradientUnits="objectBoundingBox"><stop offset="0" stop-color="#de3252"/><stop offset="1" stop-color="#da6d81"/></linearGradient><linearGradient id="c" x1="-0.057" x2="1.084" y2="1" gradientUnits="objectBoundingBox"><stop offset="0" stop-color="#bed2fd"/><stop offset="1" stop-color="#7e93bf"/></linearGradient></defs><g transform="translate(-32 -31.999)"><g transform="translate(32 31.999)"><path d="M256,53.179c0-2.031,0-4.061-.012-6.092-.011-1.711-.03-3.42-.076-5.131a74.564,74.564,0,0,0-.977-11.166,37.717,37.717,0,0,0-3.5-10.62A35.709,35.709,0,0,0,235.82,4.561a37.682,37.682,0,0,0-10.615-3.5A74.614,74.614,0,0,0,214.034.081C212.324.035,210.614.015,208.9,0c-2.031-.012-4.061-.011-6.092-.011H53.19c-2.031,0-4.061,0-6.092.011-1.711.011-3.42.03-5.131.076A74.61,74.61,0,0,0,30.8,1.063a37.683,37.683,0,0,0-10.616,3.5A35.711,35.711,0,0,0,4.569,20.171,37.693,37.693,0,0,0,1.075,30.79,74.4,74.4,0,0,0,.1,41.957c-.047,1.71-.065,3.42-.076,5.131C0,49.118,0,51.149,0,53.179V202.815c0,2.031,0,4.061.012,6.092.011,1.711.03,3.42.076,5.131A74.408,74.408,0,0,0,1.065,225.2a37.691,37.691,0,0,0,3.5,10.62,35.708,35.708,0,0,0,15.61,15.609,37.713,37.713,0,0,0,10.615,3.5,74.514,74.514,0,0,0,11.171.983c1.71.046,3.42.066,5.131.076q3.053.012,6.1.008H202.811c2.031,0,4.061,0,6.092-.012,1.711-.011,3.42-.03,5.131-.076a74.522,74.522,0,0,0,11.171-.983,37.714,37.714,0,0,0,10.615-3.5,35.706,35.706,0,0,0,15.61-15.609,37.712,37.712,0,0,0,3.5-10.62,74.578,74.578,0,0,0,.977-11.166c.046-1.71.065-3.42.076-5.131.013-2.031.012-4.061.012-6.092V53.179Z" transform="translate(0 0.006)" fill-rule="evenodd" fill="url(#a)"/></g><path d="M310.586,287.118C280.564,262.554,265.1,238.9,265.1,216.156a45.489,45.489,0,0,1,90.977,0c0,22.744-15.466,46.4-45.489,70.962Zm0-22.744c18.2-16.376,27.293-31.842,27.293-48.218a27.293,27.293,0,0,0-54.586,0C283.293,232.532,292.391,248,310.586,264.374Zm0-39.12c-5.459,0-9.1-3.639-9.1-9.1s3.639-9.1,9.1-9.1,9.1,3.639,9.1,9.1S316.045,225.253,310.586,225.253Z" transform="translate(-150.586 -87.998)" fill="url(#b)"/><path d="M346.977,307.133v-18.2h-18.2l18.2-18.2h18.2v54.586H256V270.742h18.2l18.2,18.2H274.2v18.2h72.782Z" transform="translate(-150.586 -87.998)" fill="url(#c)"/></g></svg>