<svg xmlns="http://www.w3.org/2000/svg" xmlns:xlink="http://www.w3.org/1999/xlink" width="256" height="256.003" viewBox="0 0 256 256.003"><defs><style>.a{fill-rule:evenodd;fill:url(#a);}.b{fill:url(#b);}</style><linearGradient id="a" y1="-0.063" x2="0.928" y2="1" gradientUnits="objectBoundingBox"><stop offset="0" stop-color="#2f2f2f"/><stop offset="1" stop-color="#000525"/></linearGradient><linearGradient id="b" x1="0.114" x2="0.95" y2="1.071" gradientUnits="objectBoundingBox"><stop offset="0" stop-color="#77a9ff"/><stop offset="1" stop-color="#3871d3"/></linearGradient></defs><g transform="translate(-32 -32)"><g transform="translate(32 32)"><path class="a" d="M256,41.463c0-1.583,0-3.166-.009-4.75-.008-1.334-.024-2.667-.059-4a58.143,58.143,0,0,0-.762-8.706,29.408,29.408,0,0,0-2.728-8.28A27.842,27.842,0,0,0,240.266,3.555,29.38,29.38,0,0,0,231.989.828a58.176,58.176,0,0,0-8.71-.766c-1.333-.036-2.667-.051-4-.059-1.583-.009-3.167-.008-4.75-.008H41.472c-1.583,0-3.167,0-4.75.008-1.334.008-2.667.024-4,.059a58.174,58.174,0,0,0-8.71.766,29.381,29.381,0,0,0-8.277,2.728A27.844,27.844,0,0,0,3.563,15.726a29.389,29.389,0,0,0-2.725,8.28,58.008,58.008,0,0,0-.762,8.706c-.037,1.333-.051,2.667-.059,4C0,38.3,0,39.879,0,41.463V214.53c0,1.583,0,3.166.009,4.75.008,1.334.024,2.667.059,4a58.016,58.016,0,0,0,.762,8.706,29.387,29.387,0,0,0,2.728,8.28A27.841,27.841,0,0,0,15.73,252.438a29.405,29.405,0,0,0,8.277,2.727,58.1,58.1,0,0,0,8.71.766c1.333.036,2.667.051,4,.059Q39.1,256,41.472,256H214.529c1.583,0,3.167,0,4.75-.009,1.334-.008,2.667-.024,4-.059a58.1,58.1,0,0,0,8.71-.766,29.405,29.405,0,0,0,8.277-2.727,27.84,27.84,0,0,0,12.171-12.171,29.4,29.4,0,0,0,2.729-8.28,58.147,58.147,0,0,0,.762-8.706c.036-1.333.051-2.667.059-4,.01-1.583.009-3.166.009-4.75V41.463Z" transform="translate(0 0.006)"/></g><g transform="translate(32 86.857)"><path class="b" d="M309.943,243.2a28.486,28.486,0,0,1,28.343,28.343A25.526,25.526,0,0,1,332.8,288l13.714,12.8-7.314,7.314-14.629-12.8a25.3,25.3,0,0,1-14.629,4.571A28.486,28.486,0,0,1,281.6,271.543C281.6,256,295.314,243.2,309.943,243.2Zm0,10.971a17.371,17.371,0,1,0,0,34.743c9.143,0,18.286-7.314,18.286-17.371S320,254.171,309.943,254.171Z" transform="translate(-186.514 -208.457)"/><path class="b" d="M69.486,11.886,128,0l58.514,11.886c3.657.914,5.486,3.657,5.486,6.4V85.029c0,13.714-7.314,25.6-19.2,32.914L128,146.286,83.2,117.943C71.314,110.629,64,98.743,64,85.029V18.286C64,15.543,65.829,12.8,69.486,11.886Zm8.229,11.886V85.029a24.621,24.621,0,0,0,12.8,21.943L128,130.743l37.486-22.857a24.621,24.621,0,0,0,12.8-21.943V23.771L128,13.714Z"/></g></g></svg>