<svg xmlns="http://www.w3.org/2000/svg" xmlns:xlink="http://www.w3.org/1999/xlink" width="256" height="256.004" viewBox="0 0 256 256.004"><defs><linearGradient id="a" y1="-0.063" x2="0.928" y2="1" gradientUnits="objectBoundingBox"><stop offset="0" stop-color="#65747c"/><stop offset="1" stop-color="#2f2f4d"/></linearGradient><linearGradient id="b" x1="0.114" x2="0.95" y2="1.071" gradientUnits="objectBoundingBox"><stop offset="0" stop-color="#77a9ff"/><stop offset="1" stop-color="#3871d3"/></linearGradient></defs><g transform="translate(-32 -32)"><g transform="translate(32 32)"><path d="M256,53.179c0-2.031,0-4.061-.012-6.092-.011-1.711-.03-3.42-.076-5.131a74.564,74.564,0,0,0-.977-11.166,37.717,37.717,0,0,0-3.5-10.62A35.709,35.709,0,0,0,235.82,4.561a37.682,37.682,0,0,0-10.615-3.5A74.614,74.614,0,0,0,214.034.081C212.324.035,210.614.015,208.9,0c-2.031-.012-4.061-.011-6.092-.011H53.19c-2.031,0-4.061,0-6.092.011-1.711.011-3.42.03-5.131.076A74.61,74.61,0,0,0,30.8,1.063a37.683,37.683,0,0,0-10.616,3.5A35.711,35.711,0,0,0,4.569,20.171,37.693,37.693,0,0,0,1.075,30.79,74.4,74.4,0,0,0,.1,41.957c-.047,1.71-.065,3.42-.076,5.131C0,49.118,0,51.149,0,53.179V202.815c0,2.031,0,4.061.012,6.092.011,1.711.03,3.42.076,5.131A74.408,74.408,0,0,0,1.065,225.2a37.691,37.691,0,0,0,3.5,10.62,35.708,35.708,0,0,0,15.61,15.609,37.713,37.713,0,0,0,10.615,3.5,74.514,74.514,0,0,0,11.171.983c1.71.046,3.42.066,5.131.076q3.053.012,6.1.008H202.811c2.031,0,4.061,0,6.092-.012,1.711-.011,3.42-.03,5.131-.076a74.522,74.522,0,0,0,11.171-.983,37.714,37.714,0,0,0,10.615-3.5,35.706,35.706,0,0,0,15.61-15.609,37.712,37.712,0,0,0,3.5-10.62,74.578,74.578,0,0,0,.977-11.166c.046-1.71.065-3.42.076-5.131.013-2.031.012-4.061.012-6.092V53.179Z" transform="translate(0 0.006)" fill-rule="evenodd" fill="url(#a)"/></g><g transform="translate(32 86.857)"><path d="M309.943,243.2a28.486,28.486,0,0,1,28.343,28.343A25.526,25.526,0,0,1,332.8,288l13.714,12.8-7.314,7.314-14.629-12.8a25.3,25.3,0,0,1-14.629,4.571A28.486,28.486,0,0,1,281.6,271.543C281.6,256,295.314,243.2,309.943,243.2Zm0,10.971a17.371,17.371,0,1,0,0,34.743c9.143,0,18.286-7.314,18.286-17.371S320,254.171,309.943,254.171Z" transform="translate(-186.514 -208.457)" fill="url(#b)"/><path d="M69.486,11.886,128,0l58.514,11.886c3.657.914,5.486,3.657,5.486,6.4V85.029c0,13.714-7.314,25.6-19.2,32.914L128,146.286,83.2,117.943C71.314,110.629,64,98.743,64,85.029V18.286C64,15.543,65.829,12.8,69.486,11.886Zm8.229,11.886V85.029a24.621,24.621,0,0,0,12.8,21.943L128,130.743l37.486-22.857a24.621,24.621,0,0,0,12.8-21.943V23.771L128,13.714Z" fill="url(#b)"/></g></g></svg>