<svg xmlns="http://www.w3.org/2000/svg" xmlns:xlink="http://www.w3.org/1999/xlink" width="256" height="256.004" viewBox="0 0 256 256.004"><defs><linearGradient id="a" y1="-0.063" x2="0.928" y2="1" gradientUnits="objectBoundingBox"><stop offset="0" stop-color="#65747c"/><stop offset="1" stop-color="#2f2f4d"/></linearGradient><linearGradient id="b" y1="-0.071" x2="1" y2="1.033" gradientUnits="objectBoundingBox"><stop offset="0" stop-color="#aab4fe"/><stop offset="1" stop-color="#6fe8ff"/></linearGradient></defs><g transform="translate(-32 -31.999)"><g transform="translate(32 31.999)"><path d="M256,53.179c0-2.031,0-4.061-.012-6.092-.011-1.711-.03-3.42-.076-5.131a74.564,74.564,0,0,0-.977-11.166,37.717,37.717,0,0,0-3.5-10.62A35.709,35.709,0,0,0,235.82,4.561a37.682,37.682,0,0,0-10.615-3.5A74.614,74.614,0,0,0,214.034.081C212.324.035,210.614.015,208.9,0c-2.031-.012-4.061-.011-6.092-.011H53.19c-2.031,0-4.061,0-6.092.011-1.711.011-3.42.03-5.131.076A74.61,74.61,0,0,0,30.8,1.063a37.683,37.683,0,0,0-10.616,3.5A35.711,35.711,0,0,0,4.569,20.171,37.693,37.693,0,0,0,1.075,30.79,74.4,74.4,0,0,0,.1,41.957c-.047,1.71-.065,3.42-.076,5.131C0,49.118,0,51.149,0,53.179V202.815c0,2.031,0,4.061.012,6.092.011,1.711.03,3.42.076,5.131A74.408,74.408,0,0,0,1.065,225.2a37.691,37.691,0,0,0,3.5,10.62,35.708,35.708,0,0,0,15.61,15.609,37.713,37.713,0,0,0,10.615,3.5,74.514,74.514,0,0,0,11.171.983c1.71.046,3.42.066,5.131.076q3.053.012,6.1.008H202.811c2.031,0,4.061,0,6.092-.012,1.711-.011,3.42-.03,5.131-.076a74.522,74.522,0,0,0,11.171-.983,37.714,37.714,0,0,0,10.615-3.5,35.706,35.706,0,0,0,15.61-15.609,37.712,37.712,0,0,0,3.5-10.62,74.578,74.578,0,0,0,.977-11.166c.046-1.71.065-3.42.076-5.131.013-2.031.012-4.061.012-6.092V53.179Z" transform="translate(0 0.006)" fill-rule="evenodd" fill="url(#a)"/></g><path d="M10119.844,580.288a19.854,19.854,0,0,1-19.25-15h-.75a19.866,19.866,0,0,1-19.25-15h-.75A19.846,19.846,0,0,1,10060,530.443v-86.6A19.846,19.846,0,0,1,10079.844,424h115.464a19.868,19.868,0,0,1,19.253,15h.747a19.869,19.869,0,0,1,19.254,15h.747a19.845,19.845,0,0,1,19.846,19.846v86.6a19.845,19.845,0,0,1-19.846,19.846Zm-9.021-19.846a9.02,9.02,0,0,0,9.021,9.021h115.465a9.02,9.02,0,0,0,9.021-9.021V506.32h-133.506Zm-20-15a9.03,9.03,0,0,0,9.019,9.021h.154V491.32h-9.173Zm-20-15a9.029,9.029,0,0,0,9.019,9.021h.156V476.318h-9.175Zm40-56.6v21.65h133.506v-21.65a9.02,9.02,0,0,0-9.021-9.021h-115.465A9.02,9.02,0,0,0,10110.823,473.845Zm-20-15v21.647H10100v-6.648a19.819,19.819,0,0,1,1-6.248,5.412,5.412,0,0,1,5.642-8.572,19.773,19.773,0,0,1,13.2-5.026h103.069a9.022,9.022,0,0,0-7.605-4.175h-115.464A9.029,9.029,0,0,0,10090.825,458.845Zm-20-15v21.647H10080v-6.648a19.888,19.888,0,0,1,1-6.248,5.408,5.408,0,0,1,5.642-8.569,19.707,19.707,0,0,1,13.2-5.028h103.071a9.024,9.024,0,0,0-7.607-4.175h-115.464A9.029,9.029,0,0,0,10070.825,443.846Zm92.318,35.412a5.413,5.413,0,1,1,5.413,5.413A5.411,5.411,0,0,1,10163.144,479.257Zm-21.649,0a5.413,5.413,0,1,1,5.412,5.413A5.411,5.411,0,0,1,10141.494,479.257Zm-21.65,0a5.413,5.413,0,1,1,5.413,5.413A5.413,5.413,0,0,1,10119.844,479.257Z" transform="translate(-9997 -341.999)" fill="url(#b)"/></g></svg>