<svg xmlns="http://www.w3.org/2000/svg" xmlns:xlink="http://www.w3.org/1999/xlink" width="256" height="256.003" viewBox="0 0 256 256.003"><defs><style>.a{fill-rule:evenodd;fill:url(#a);}.b{fill:url(#b);}</style><linearGradient id="a" y1="-0.063" x2="0.928" y2="1" gradientUnits="objectBoundingBox"><stop offset="0" stop-color="#2f2f2f"/><stop offset="1" stop-color="#000525"/></linearGradient><linearGradient id="b" y1="-0.071" x2="1" y2="1.033" gradientUnits="objectBoundingBox"><stop offset="0" stop-color="#aab4fe"/><stop offset="1" stop-color="#6fe8ff"/></linearGradient></defs><g transform="translate(-32 -31.999)"><g transform="translate(32 31.999)"><path class="a" d="M256,41.463c0-1.583,0-3.166-.009-4.75-.008-1.334-.024-2.667-.059-4a58.143,58.143,0,0,0-.762-8.706,29.408,29.408,0,0,0-2.728-8.28A27.842,27.842,0,0,0,240.266,3.555,29.38,29.38,0,0,0,231.989.828a58.176,58.176,0,0,0-8.71-.766c-1.333-.036-2.667-.051-4-.059-1.583-.009-3.167-.008-4.75-.008H41.472c-1.583,0-3.167,0-4.75.008-1.334.008-2.667.024-4,.059a58.174,58.174,0,0,0-8.71.766,29.381,29.381,0,0,0-8.277,2.728A27.844,27.844,0,0,0,3.563,15.726a29.389,29.389,0,0,0-2.725,8.28,58.008,58.008,0,0,0-.762,8.706c-.037,1.333-.051,2.667-.059,4C0,38.3,0,39.879,0,41.463V214.53c0,1.583,0,3.166.009,4.75.008,1.334.024,2.667.059,4a58.016,58.016,0,0,0,.762,8.706,29.387,29.387,0,0,0,2.728,8.28A27.841,27.841,0,0,0,15.73,252.438a29.405,29.405,0,0,0,8.277,2.727,58.1,58.1,0,0,0,8.71.766c1.333.036,2.667.051,4,.059Q39.1,256,41.472,256H214.529c1.583,0,3.167,0,4.75-.009,1.334-.008,2.667-.024,4-.059a58.1,58.1,0,0,0,8.71-.766,29.405,29.405,0,0,0,8.277-2.727,27.84,27.84,0,0,0,12.171-12.171,29.4,29.4,0,0,0,2.729-8.28,58.147,58.147,0,0,0,.762-8.706c.036-1.333.051-2.667.059-4,.01-1.583.009-3.166.009-4.75V41.463Z" transform="translate(0 0.006)"/></g><path class="b" d="M10119.844,580.288a19.854,19.854,0,0,1-19.25-15h-.75a19.866,19.866,0,0,1-19.25-15h-.75A19.846,19.846,0,0,1,10060,530.443v-86.6A19.846,19.846,0,0,1,10079.844,424h115.464a19.868,19.868,0,0,1,19.253,15h.747a19.869,19.869,0,0,1,19.254,15h.747a19.845,19.845,0,0,1,19.846,19.846v86.6a19.845,19.845,0,0,1-19.846,19.846Zm-9.021-19.846a9.02,9.02,0,0,0,9.021,9.021h115.465a9.02,9.02,0,0,0,9.021-9.021V506.32h-133.506Zm-20-15a9.03,9.03,0,0,0,9.019,9.021h.154V491.32h-9.173Zm-20-15a9.029,9.029,0,0,0,9.019,9.021h.156V476.318h-9.175Zm40-56.6v21.65h133.506v-21.65a9.02,9.02,0,0,0-9.021-9.021h-115.465A9.02,9.02,0,0,0,10110.823,473.845Zm-20-15v21.647H10100v-6.648a19.819,19.819,0,0,1,1-6.248,5.412,5.412,0,0,1,5.642-8.572,19.773,19.773,0,0,1,13.2-5.026h103.069a9.022,9.022,0,0,0-7.605-4.175h-115.464A9.029,9.029,0,0,0,10090.825,458.845Zm-20-15v21.647H10080v-6.648a19.888,19.888,0,0,1,1-6.248,5.408,5.408,0,0,1,5.642-8.569,19.707,19.707,0,0,1,13.2-5.028h103.071a9.024,9.024,0,0,0-7.607-4.175h-115.464A9.029,9.029,0,0,0,10070.825,443.846Zm92.318,35.412a5.413,5.413,0,1,1,5.413,5.413A5.411,5.411,0,0,1,10163.144,479.257Zm-21.649,0a5.413,5.413,0,1,1,5.412,5.413A5.411,5.411,0,0,1,10141.494,479.257Zm-21.65,0a5.413,5.413,0,1,1,5.413,5.413A5.413,5.413,0,0,1,10119.844,479.257Z" transform="translate(-9997 -341.999)"/></g></svg>