<svg xmlns="http://www.w3.org/2000/svg" xmlns:xlink="http://www.w3.org/1999/xlink" width="256" height="256.004" viewBox="0 0 256 256.004"><defs><linearGradient id="a" y1="-0.063" x2="0.928" y2="1" gradientUnits="objectBoundingBox"><stop offset="0" stop-color="#65747c"/><stop offset="1" stop-color="#2f2f4d"/></linearGradient><linearGradient id="b" x1="0.024" y1="-0.03" x2="1.045" y2="1" gradientUnits="objectBoundingBox"><stop offset="0" stop-color="#487edd"/><stop offset="1" stop-color="#487edd"/></linearGradient></defs><g transform="translate(-32 -31.999)"><g transform="translate(32 31.999)"><path d="M256,53.179c0-2.031,0-4.061-.012-6.092-.011-1.711-.03-3.42-.076-5.131a74.564,74.564,0,0,0-.977-11.166,37.717,37.717,0,0,0-3.5-10.62A35.709,35.709,0,0,0,235.82,4.561a37.682,37.682,0,0,0-10.615-3.5A74.614,74.614,0,0,0,214.034.081C212.324.035,210.614.015,208.9,0c-2.031-.012-4.061-.011-6.092-.011H53.19c-2.031,0-4.061,0-6.092.011-1.711.011-3.42.03-5.131.076A74.61,74.61,0,0,0,30.8,1.063a37.683,37.683,0,0,0-10.616,3.5A35.711,35.711,0,0,0,4.569,20.171,37.693,37.693,0,0,0,1.075,30.79,74.4,74.4,0,0,0,.1,41.957c-.047,1.71-.065,3.42-.076,5.131C0,49.118,0,51.149,0,53.179V202.815c0,2.031,0,4.061.012,6.092.011,1.711.03,3.42.076,5.131A74.408,74.408,0,0,0,1.065,225.2a37.691,37.691,0,0,0,3.5,10.62,35.708,35.708,0,0,0,15.61,15.609,37.713,37.713,0,0,0,10.615,3.5,74.514,74.514,0,0,0,11.171.983c1.71.046,3.42.066,5.131.076q3.053.012,6.1.008H202.811c2.031,0,4.061,0,6.092-.012,1.711-.011,3.42-.03,5.131-.076a74.522,74.522,0,0,0,11.171-.983,37.714,37.714,0,0,0,10.615-3.5,35.706,35.706,0,0,0,15.61-15.609,37.712,37.712,0,0,0,3.5-10.62,74.578,74.578,0,0,0,.977-11.166c.046-1.71.065-3.42.076-5.131.013-2.031.012-4.061.012-6.092V53.179Z" transform="translate(0 0.006)" fill-rule="evenodd" fill="url(#a)"/></g><path d="M10.274,82.191H30.822V92.465H10.274ZM0,92.465H10.274v10.274H0Zm10.274,10.274H20.548v10.274H10.274Zm10.274,10.274H30.822v10.274H20.548ZM0,123.287H20.548V133.56H0Zm61.643-20.548H51.369V82.191H41.1V133.56H51.369V113.013H61.643V133.56H71.917V82.191H61.643ZM82.191,92.465v41.1h30.822V123.287H92.465V113.013h20.548V102.739H92.465V92.465h20.548V82.191H82.191Zm51.369,30.822v-41.1H123.287V133.56H133.56Zm10.274-41.1h10.274V133.56H143.834Z" transform="translate(82.946 77.809)" fill="#fff"/><path d="M102.739,0V41.1h41.1Zm41.1,71.917H10.274V10.274A10.271,10.271,0,0,1,20.548,0H92.465V51.369h51.369Zm0,82.191a10.271,10.271,0,0,1-10.274,10.274H20.548a10.271,10.271,0,0,1-10.274-10.274h0V143.834h133.56v10.274Z" transform="translate(82.946 77.809)" fill="url(#b)"/></g></svg>