<?xml version="1.0" encoding="UTF-8"?>
<svg width="100px" height="100px" viewBox="0 0 100 100" version="1.1" xmlns="http://www.w3.org/2000/svg" xmlns:xlink="http://www.w3.org/1999/xlink">
   
    <g id="页面-1" stroke="none" stroke-width="1" fill="none" fill-rule="evenodd" opacity="0.400000006">
        <g id="反制管理-目录爆破-列表展开" transform="translate(-1424.000000, -117.000000)" fill-rule="nonzero">
            <g id="当前配置100x100px" transform="translate(1424.000000, 117.000000)">
                <rect id="矩形" fill="#000000" opacity="0" x="0" y="0" width="100" height="100"></rect>
                <path d="M52.2344698,61.7424284 C52.5023932,60.224196 54.4671646,59.6883492 55.5388581,60.7600427 L64.8268683,69.9587452 C66.1664852,71.298362 68.3098722,71.298362 69.649489,69.9587452 L74.382802,65.2254323 C75.7224188,63.8858154 75.7224188,61.7424284 74.382802,60.4921193 L65.0947917,51.1148013 C63.9337904,50.0431078 64.4696372,48.0783364 65.9878696,47.810413 C71.4356449,46.7387195 77.2406513,48.3462598 81.5274252,52.6330337 C86.1714304,57.2770389 87.6896628,63.8858154 85.903507,69.8694374 C85.6355836,70.8518231 85.8141992,71.9235166 86.5286615,72.6379789 L95.9952874,82.0152969 C97.3349042,83.3549138 97.3349042,85.4983008 95.9952874,86.7486099 L91.1726666,91.4819228 C89.8330498,92.8215396 87.6896628,92.8215396 86.3500459,91.4819228 L76.8834201,81.9259892 C76.1689578,81.2115268 75.0972643,81.0329112 74.1148786,81.3008346 C68.2205644,82.9976826 61.6117879,81.568758 56.9677827,76.9247529 C52.8596244,72.8165945 51.3413919,67.1008959 52.2344698,61.7424284 L52.2344698,61.7424284 Z M89.3865108,87.1951488 C90.8154355,87.1951488 91.9764368,86.0341475 91.9764368,84.6052229 C91.9764368,83.1762982 90.8154355,82.0152969 89.3865108,82.0152969 C87.9575862,82.0152969 86.7965849,83.1762982 86.7965849,84.6052229 C86.7965849,86.0341475 87.9575862,87.1951488 89.3865108,87.1951488 Z M88.2255095,43.6129469 L86.2607381,36.4683236 C86.0821226,35.7538613 85.5462758,35.1287067 84.9211213,34.7714756 C84.206659,34.3249366 83.4028888,34.0570132 82.6884265,34.2356288 L78.4909603,35.3073223 C76.6154967,35.6645535 74.6507253,34.9500912 73.4897241,33.3425509 L69.8281046,28.609238 C68.5777956,27.2696211 68.2205644,24.9476186 69.1136423,23.3400783 L71.3463371,19.4105355 C72.0607994,18.0709187 71.5249527,16.3740707 70.1853358,15.7489161 L63.4872515,11.8193733 C62.8620969,11.4621422 62.0583268,11.3728344 61.3438645,11.5514499 C60.6294022,11.7300655 60.0935554,12.1766045 59.7363243,12.801759 L57.5036295,16.5526862 C56.5212438,18.1602265 54.5564724,18.9639966 52.6810088,18.6067654 L46.7866946,17.8029953 C45.0005388,17.6243797 42.9464596,16.1954551 42.5892284,14.4092993 L41.4282271,10.2118331 C41.2496115,9.49737075 40.7137648,8.87221622 40.0886103,8.51498506 C39.3741479,8.0684461 38.48107,7.88983052 37.6772999,8.0684461 L30.4433689,9.85460192 C28.9251364,10.2118331 28.0320585,11.8193733 28.4785975,13.248298 L29.6395987,17.4457641 C30.0861377,19.3212278 29.3716754,21.1966914 27.7641351,22.2683848 L23.0308222,25.8406965 C21.6018976,27.0910056 19.4585106,27.2696211 17.6723548,26.3765432 L13.8321198,24.1438485 C12.5818107,23.3400783 10.9742704,23.6973095 10.0811925,24.9476186 L6.06234195,31.8243185 C5.79441857,32.449473 5.70511078,33.0746275 5.88372636,33.6997821 C6.15164974,34.4142444 6.59818869,35.0393989 7.22334323,35.3966301 L11.0635782,37.6293249 C12.7604263,38.7010184 13.5641964,40.6657898 13.2069652,42.5412534 L12.5818107,48.4355676 C12.4925029,50.2217234 11.0635782,52.1864948 9.27742242,52.4544182 L5.07995625,53.5261117 C3.5617238,53.9726506 2.66864589,55.4908831 3.11518485,57.0091155 L5.07995625,64.1537388 C5.5264952,65.6719712 7.04472764,66.5650491 8.65226788,66.207818 L12.9390418,65.1361245 C14.8145055,64.7788933 16.7792768,65.4933556 17.9402781,67.1008959 L21.6018976,71.8342088 C22.8522066,73.2631334 23.12013,75.4065204 22.2270521,77.0140607 L19.9943573,80.7649879 C19.6371262,81.3901424 19.5478184,82.1939125 19.7264339,82.9083749 C19.9050495,83.6228372 20.4408963,84.2479917 21.0660508,84.6052229 L27.7641351,88.4454579 C28.3892897,88.802689 29.1930598,88.8919968 29.9075221,88.7133813 C30.6219844,88.5347657 31.247139,88.0882267 31.6043701,87.4630722 L33.8370649,83.712145 C34.9087584,82.1046047 36.8735298,81.3008346 38.7489934,81.6580658 L44.7326154,82.4618359 C46.5187712,82.5511437 48.4835426,84.0693761 48.9300816,85.8555319 L50.0910828,90.0529981 C50.5376218,91.5712306 52.0558542,92.4643085 53.6633945,92.1070773 L60.8973255,90.3209215 C61.969019,90.0529981 62.6834814,89.1599202 62.9514047,88.1775345 C58.9325541,87.0165332 55.2709347,84.962454 52.2344698,81.9259892 C49.3766205,79.0681398 47.3225413,75.585136 46.2508478,71.8342088 L45.9829245,71.8342088 C33.9263727,71.8342088 24.1918235,62.0996596 24.1918235,50.0431078 C24.1918235,37.986556 33.9263727,28.2520068 45.9829245,28.2520068 C54.6457802,28.2520068 62.1476346,33.2532431 65.6306385,40.576482 C66.9702553,40.3978664 68.3098722,40.2192508 69.649489,40.2192508 C75.9903422,40.2192508 81.8846564,42.6305612 86.4393537,46.9173351 L86.5286615,46.9173351 C87.6896628,46.6494118 88.5827407,45.1311793 88.2255095,43.6129469 L88.2255095,43.6129469 Z M45.2684621,60.4921193 C45.3577699,59.6883492 45.6256933,58.9738869 45.9829245,58.3487324 C44.5539998,58.4380402 43.0357674,58.080809 41.6961505,57.2770389 C37.8559155,55.0443441 36.5162986,50.1324156 38.7489934,46.2921806 C40.9816882,42.4519456 45.8936167,41.1123287 49.7338517,43.3450235 C53.2168555,45.3097949 54.5564724,49.5072611 53.2168555,53.1688805 C53.5740867,53.1688805 53.8420101,53.0795727 54.1992412,53.0795727 C55.7174737,53.0795727 57.1463983,53.4368039 58.3967074,54.0619584 C57.3250139,52.0078792 56.9677827,49.5072611 57.6822451,47.1852585 C58.2180918,45.3097949 59.3790931,43.7022547 60.8080177,42.6305612 C58.0394762,37.0041703 52.2344698,33.1639353 45.5363855,33.1639353 C36.1590675,33.1639353 28.4785975,40.7550976 28.4785975,50.2217234 C28.4785975,59.4204259 35.7125285,66.8329725 44.8219232,67.1902037 C44.7326154,64.9575089 44.8219232,62.7248141 45.2684621,60.4921193 Z" id="形状" fill="#FFFFFF"></path>
            </g>
        </g>
    </g>
</svg>