<?xml version="1.0" standalone="no"?>
<!DOCTYPE svg PUBLIC "-//W3C//DTD SVG 1.1//EN" "http://www.w3.org/Graphics/SVG/1.1/DTD/svg11.dtd"><svg t="1653901571202"
    class="icon" viewBox="0 0 1024 1024" version="1.1" xmlns="http://www.w3.org/2000/svg" p-id="6822"
    xmlns:xlink="http://www.w3.org/1999/xlink" width="200" height="200">
    <defs>
        <style type="text/css"></style>
    </defs>
    <path
        d="M512 741.9C385 741.9 282.1 639 282.1 512S385 282.1 512 282.1 741.9 385 741.9 512c0 25.4-20.6 46-46 46s-46-20.6-46-46c0-76.2-61.8-137.9-137.9-137.9S374.1 435.8 374.1 512 435.9 649.9 512 649.9c25.4 0 46 20.6 46 46s-20.6 46-46 46z m0 183.9C283.4 925.8 98.2 740.6 98.2 512S283.4 98.2 512 98.2 925.8 283.4 925.8 512c0 25.4-20.6 46-46 45.9-25.4 0-45.9-20.6-45.9-45.9-0.1-177.8-144.2-321.8-322-321.8-121.8 0-233.2 68.8-287.7 177.7-79.6 158.9-15.4 352.3 143.6 432 108.9 54.6 239.3 43 336.9-29.9L479.4 544.7c-16.5-19.3-14.3-48.3 5-64.8 17.2-14.7 42.6-14.7 59.8 0l260.3 260.3c17.8 17.9 17.8 46.9 0 64.8-77.7 77.4-182.9 120.9-292.5 120.8z"
        p-id="6823" fill="#fff"></path>
</svg>