<?xml version="1.0" encoding="UTF-8"?>
<svg width="100px" height="100px" viewBox="0 0 100 100" version="1.1" xmlns="http://www.w3.org/2000/svg" xmlns:xlink="http://www.w3.org/1999/xlink">
   
    <g id="页面-1" stroke="none" stroke-width="1" fill="none" fill-rule="evenodd" opacity="0.400000006">
        <g id="反制管理-目录爆破-列表展开" transform="translate(-891.000000, -117.000000)" fill-rule="nonzero">
            <g id="扫描进度100x100px" transform="translate(891.000000, 117.000000)">
                <rect id="矩形" fill="#000000" opacity="0" x="0" y="0" width="100" height="100"></rect>
                <path d="M50,7.4999104 C44.0386395,7.487713 38.1423842,8.73921877 32.7,11.172 C32.6775,11.1815 32.6545,11.1895 32.632,11.199 L32.582,11.2215 L32.5735,11.225 C29.2943401,12.6102649 26.2237627,14.4448369 23.45,16.676 L50.172,45.55 C51.3527625,46.8265424 51.2757736,48.8184069 50,50 C48.7234576,51.1807625 46.7315931,51.1037736 45.55,49.828 L34.767,38.178 C29.2669363,45.2682614 29.3841884,55.2152504 35.0498564,62.1738935 C40.7155244,69.1325366 50.4322285,71.2637335 58.4902157,67.3151452 C66.548203,63.3665569 70.8178273,54.3817561 68.7901619,45.6404129 C66.7624965,36.8990697 58.9734332,30.7114344 50,30.7135 L49.98,30.7135 C48.1073727,30.6730158 46.6060115,29.1515006 46.5905,27.2785 C46.6,24.307 49.9,24.4125 50,24.4125 C62.0105858,24.4071498 72.4100719,32.752316 75.0062036,44.4789651 C77.6023353,56.2056142 71.6970146,68.1604583 60.8064969,73.2251226 C49.9159792,78.2897868 36.9687174,75.1023865 29.6740099,65.5608225 C22.3793025,56.0192586 22.6986913,42.689251 30.442,33.508 L18.9085,21.0465 C18.582,21.4105 18.2405,21.7625 17.921,22.1315 C17.6965,22.39 17.486,22.659 17.268,22.9225 C17.024,23.218 16.774,23.509 16.5385,23.811 C16.3195,24.0915 16.1145,24.3815 15.903,24.667 C15.6835,24.963 15.458,25.254 15.247,25.5555 C15.036,25.857 14.8375,26.169 14.634,26.476 C14.4385,26.771 14.234,27.061 14.048,27.36 C13.848,27.682 13.6585,28.013 13.465,28.34 C13.291,28.634 13.11,28.9235 12.943,29.2215 C12.752,29.563 12.5765,29.913 12.393,30.26 C12.24,30.5515 12.079,30.8395 11.933,31.1345 C11.754,31.4955 11.592,31.864 11.4235,32.23 C11.2905,32.519 11.149,32.804 11.0235,33.0955 C10.8615,33.4685 10.7165,33.849 10.5655,34.227 C10.4485,34.519 10.3235,34.807 10.213,35.1015 C10.0665,35.4925 9.937,35.8905 9.802,36.2855 C9.702,36.5725 9.597,36.856 9.505,37.145 C9.376,37.5505 9.265,37.962 9.148,38.371 C9.0665,38.656 8.976,38.9385 8.898,39.2255 C8.7875,39.6445 8.698,40.069 8.598,40.4915 C8.533,40.773 8.4585,41.052 8.398,41.3355 C8.308,41.765 8.237,42.1985 8.1605,42.631 C8.1105,42.912 8.051,43.191 8.0065,43.473 C7.935,43.9285 7.884,44.3875 7.827,44.8455 C7.7945,45.108 7.752,45.3685 7.727,45.6315 C7.674,46.142 7.6415,46.6555 7.6065,47.1685 C7.592,47.3825 7.5675,47.595 7.5565,47.809 C7.51883333,48.5363333 7.5,49.2666667 7.5,50 C7.5,73.4721019 26.5278981,92.5 50,92.5 C73.4721019,92.5 92.5,73.4721019 92.5,50 C92.5,26.5278981 73.4721019,7.4999104 50,7.4999104 Z" id="路径" fill="#FFFFFF"></path>
            </g>
        </g>
    </g>
</svg>