<?xml version="1.0" encoding="UTF-8"?>
<svg width="80px" height="80px" viewBox="0 0 80 80" version="1.1" xmlns="http://www.w3.org/2000/svg" xmlns:xlink="http://www.w3.org/1999/xlink">
   
    <g id="页面-1" stroke="none" stroke-width="1" fill="none" fill-rule="evenodd">
        <g id="溯源反制首页-工具箱" transform="translate(-1677.000000, -54.000000)" fill-rule="nonzero">
            <g id="编组-11" transform="translate(1514.000000, 0.000000)">
                <g id="工具箱80x80px" transform="translate(163.000000, 54.000000)">
                    <rect id="矩形" fill="#000000" opacity="0" x="0" y="0" width="80" height="80"></rect>
                    <path d="M52.1051927,20.641605 L52.1051927,13.7194183 C52.1593159,12.0717354 50.2022429,10.2583248 48.6440993,10.2583248 L29.6082056,10.2583248 C28.0128873,10.2583248 26.1471123,12.0032218 26.1471123,13.7194182 L26.1471123,20.6416049 L15.763912,20.641605 C13.1782252,20.641605 10.572312,23.4004545 10.572312,25.8331252 L10.572312,34.4858186 L69.4106596,34.4858186 L69.4106596,25.8331252 C69.4106596,23.256712 66.7886773,20.641605 64.2191395,20.641605 L52.1051927,20.641605 Z M46.9135127,20.641605 L31.3387123,20.641605 L31.3387123,17.1805116 C31.3387123,16.1301837 32.0232083,15.4500049 33.0692191,15.4500049 L45.1829259,15.4500049 C46.2282173,15.4500049 46.9135127,16.1302637 46.9135127,17.1805116 L46.9135127,20.641605 L46.9135127,20.641605 Z M39.9238516,44.8065012 C43.3325805,44.8065012 43.4524992,40.6171016 43.4524992,37.946912 L34.7998057,37.946912 C34.8580862,40.0956952 34.8674398,44.8690188 38.2608991,44.8690188 C38.2608991,44.8690188 39.2106552,44.8065012 39.9238516,44.8065012 Z M46.9135127,37.946912 C46.9135127,37.946912 49.656373,48.3301122 39.125273,48.3301122 C28.2519252,48.3301122 31.3387123,37.946912 31.3387123,37.946912 L10.572232,37.946912 L10.572232,62.1744058 C10.572232,64.8327634 12.9060897,67.3660059 15.7638321,67.3660059 L64.2189795,67.3660059 C66.8181773,67.3660059 69.4104997,65.1267241 69.4104997,62.1744058 L69.4104997,37.946912 L46.9135127,37.946912 Z" id="形状" fill="#027AFF"></path>
                </g>
            </g>
        </g>
    </g>
</svg>