<?xml version="1.0" encoding="UTF-8"?>
<svg width="31px" height="30px" viewBox="0 0 31 30" version="1.1" xmlns="http://www.w3.org/2000/svg" xmlns:xlink="http://www.w3.org/1999/xlink">
   
    <g id="页面-1" stroke="none" stroke-width="1" fill="none" fill-rule="evenodd">
        <g id="溯源反制首页" transform="translate(-351.000000, -288.000000)" fill-rule="nonzero">
            <g id="编组-2" transform="translate(310.000000, 100.000000)">
                <g id="编组-7" transform="translate(41.500000, 184.000000)">
                    <g id="累计溯源事件30x30px" transform="translate(0.000000, 4.000000)">
                        <rect id="矩形" fill="#000000" opacity="0" x="0" y="0" width="30" height="30"></rect>
                        <path d="M23.2065105,27.1338318 L5.7156883,27.1338318 C3.84304374,27.1338318 2.31958386,25.6103719 2.31958386,23.7377273 L2.31958386,6.24714908 C2.31958386,4.37450452 3.84304374,2.85104464 5.7156883,2.85104464 L5.7156883,2.97300923 C3.91036819,2.97300923 2.44154845,4.44170701 2.44154848,6.24714908 L2.44154848,23.7377273 C2.44154848,25.5430474 3.91024626,27.0118672 5.7156883,27.0118672 L23.2065105,27.0118672 C25.0118306,27.0118672 26.4806503,25.5430474 26.4806503,23.7377273 L26.6026149,23.7377273 C26.6026149,25.6103719 25.079155,27.1338318 23.2065105,27.1338318 Z" id="路径" fill="#594BC8"></path>
                        <path d="M23.2065105,28.597529 L5.7156883,28.597529 C3.03612592,28.597529 0.856008574,26.4175337 0.856008574,23.7378493 L0.856008574,6.24714908 C0.856008574,3.56746474 3.03612592,1.38746936 5.7156883,1.38746936 L16.5177276,1.38746936 C17.3596492,1.38746936 18.0422851,2.07010526 18.0422851,2.91202693 C18.0422851,3.7539486 17.3596492,4.43658451 16.5177276,4.43658451 L5.7156883,4.43658451 C4.71728604,4.43658451 3.90512373,5.24874683 3.90512373,6.24714908 L3.90512373,23.7378493 C3.90512373,24.7362515 4.71728604,25.5484138 5.7156883,25.5484138 L23.2065105,25.5484138 C24.2049127,25.5484138 25.017075,24.7362515 25.0170751,23.7378493 L25.0170751,13.1396129 C25.0170751,12.2976912 25.699711,11.6150553 26.5416326,11.6150553 C27.3835542,11.6150554 28.0661902,12.2976912 28.0661902,13.1396129 L28.0661902,23.7378493 C28.0661902,26.4175336 25.8861948,28.597529 23.2065105,28.597529 L23.2065105,28.597529 Z" id="路径" fill="#7D70E3"></path>
                        <path d="M16.2953861,10.7732556 L6.95716603,10.7732556 C6.11512239,10.7732556 5.43260845,10.0907417 5.43260845,9.24869804 C5.43260845,8.4066544 6.11512239,7.72414046 6.95716603,7.72414046 L16.2953861,7.72414046 C17.1373078,7.72414046 17.8199437,8.4066544 17.8199437,9.24869804 C17.8199437,10.0907417 17.1373078,10.7732556 16.2953861,10.7732556 Z M21.40924,16.6097498 L6.95716603,16.6097498 C6.11512239,16.6097498 5.43260845,15.9271139 5.43260845,15.0851923 C5.43260845,14.2432706 6.11512239,13.5606347 6.95716603,13.5606347 L21.40924,13.5606347 C22.2511617,13.5606347 22.9337976,14.2432706 22.9337976,15.0851923 C22.9337976,15.9271139 22.2511617,16.6097498 21.40924,16.6097498 Z M18.7411423,22.4461221 L6.95716603,22.4461221 C6.11524436,22.4461221 5.43260845,21.7634862 5.43260845,20.9215646 C5.43260845,20.0796429 6.11524436,19.397007 6.95716603,19.397007 L18.7411423,19.397007 C19.583064,19.397007 20.2656999,20.0796429 20.2656999,20.9215646 C20.2656999,21.7634862 19.583064,22.4461221 18.7411423,22.4461221 Z" id="形状" fill="#B0A7F7"></path>
                        <path d="M26.5416326,10.2853972 L20.9213816,10.2853972 C20.0794599,10.2853972 19.3968241,9.60276126 19.3968241,8.76083959 L19.3968241,3.14058861 C19.3968241,2.29866694 20.07946,1.61603104 20.9213816,1.61603104 L26.5416326,1.61603104 C27.3835543,1.61603104 28.0661902,2.29866694 28.0661902,3.14058861 L28.0661902,8.76083959 C28.0661902,9.60288322 27.3835543,10.2853972 26.5416326,10.2853972 Z M22.4459392,7.23628204 L25.0170751,7.23628204 L25.0170751,4.66514616 L22.4459392,4.66514616 L22.4459392,7.23628204 Z" id="形状" fill="#B0A7F7"></path>
                    </g>
                </g>
            </g>
        </g>
    </g>
</svg>