<?xml version="1.0" encoding="UTF-8"?>
<svg width="31px" height="30px" viewBox="0 0 31 30" version="1.1" xmlns="http://www.w3.org/2000/svg" xmlns:xlink="http://www.w3.org/1999/xlink">
   
    <g id="页面-1" stroke="none" stroke-width="1" fill="none" fill-rule="evenodd">
        <g id="溯源反制首页" transform="translate(-351.000000, -198.000000)" fill-rule="nonzero">
            <g id="编组-2" transform="translate(310.000000, 100.000000)">
                <g id="编组-8" transform="translate(41.500000, 95.000000)">
                    <g id="溯源IP总数30x30px" transform="translate(0.000000, 3.000000)">
                        <rect id="矩形" fill="#000000" opacity="0" x="0" y="0" width="30" height="30"></rect>
                        <path d="M28.3562667,14.3086333 C28.3562,7.14356667 22.5666667,1.30883333 15.3666667,1.30006667 L15.3666667,14.9666667 L28.3629,14.9666667 C28.3729333,14.7333333 28.3562667,14.5207 28.3562667,14.3086333 L28.3562667,14.3086333 Z" id="路径" fill="#83B6FF"></path>
                        <path d="M14.839,27.1418 C8.4397,27.1420667 3.24803333,21.9636667 3.24826667,15.5644 C3.2481,9.68426667 7.63333333,4.83756667 13.3,4.08833333 L13.3,2.4382 C6.7,3.19723333 1.61036667,8.78833333 1.61036667,15.574 C1.61036667,22.8778333 7.53333333,28.7800333 14.837,28.7800333 C21.531,28.7800333 27.0641667,23.8 27.9411,17.3333333 L26.2856667,17.3333333 C25.4222,22.9 20.6269667,27.1419333 14.839,27.1418 Z" id="路径" stroke="#1E7BFF" stroke-width="1.2" fill="#1E7BFF"></path>
                    </g>
                </g>
            </g>
        </g>
    </g>
</svg>