<?xml version="1.0" encoding="UTF-8"?>
<svg width="100px" height="100px" viewBox="0 0 100 100" version="1.1" xmlns="http://www.w3.org/2000/svg" xmlns:xlink="http://www.w3.org/1999/xlink">
   
    <g id="页面-1" stroke="none" stroke-width="1" fill="none" fill-rule="evenodd" opacity="0.400000006">
        <g id="反制管理-目录爆破-列表展开" transform="translate(-358.000000, -117.000000)" fill-rule="nonzero">
            <g id="待爆破100x100px" transform="translate(358.000000, 117.000000)">
                <rect id="矩形" fill="#000000" opacity="0" x="0" y="0" width="100" height="100"></rect>
                <path d="M87.5195312,9.36523438 C87.5195312,7.64648438 86.1132812,6.23046875 84.3847656,6.23046875 L15.703125,6.23046875 C13.984375,6.23046875 12.5683594,7.63671875 12.5683594,9.36523438 C12.5683594,11.0839844 13.9746094,12.5 15.703125,12.5 L21.1425781,12.5 C20.4003906,13.8574219 20.0585938,15.2539063 19.8535156,16.3867188 C19.3652344,19.0429688 19.3359375,22.1972656 19.3359375,27.0800781 C19.3359375,29.4140625 20.0585938,31.8945313 21.4941406,34.4628906 C22.734375,36.6992188 24.4824219,38.9453125 26.6796875,41.1328125 C29.453125,43.90625 32.8027344,46.4355469 36.3378906,48.4570313 C32.7734375,50.6542969 29.3945312,53.4082031 26.6015625,56.4257813 C21.9238281,61.484375 19.3457031,66.7871094 19.3457031,71.3671875 C19.3457031,78.5742188 20.5078125,83.7304688 22.96875,87.3046875 L15.7226562,87.3046875 C14.0039062,87.3046875 12.5878906,88.7109375 12.5878906,90.4394531 C12.5878906,92.1582031 13.9941406,93.5742188 15.7226562,93.5742188 L35.2929687,93.5742188 C36.6113281,93.6914063 37.96875,93.7304688 39.3652344,93.7304688 C41.0253906,93.7304688 42.734375,93.671875 44.4628906,93.6132813 C44.8535156,93.6035156 45.2441406,93.5839844 45.6445312,93.5742188 L54.921875,93.5742188 L55.9179688,93.6035156 C59.0234375,93.7011719 62.0605469,93.7988281 64.9023438,93.5742188 L84.4140625,93.5742188 C86.1328125,93.5742188 87.5488281,92.1679688 87.5488281,90.4394531 C87.5488281,88.7207031 86.1425781,87.3046875 84.4140625,87.3046875 L77.4609375,87.3046875 C79.9414062,83.7207031 81.1132812,78.5742188 81.1132812,71.3671875 C81.1132812,66.7871094 78.515625,61.484375 73.8085938,56.4160156 C71.0058594,53.3984375 67.6074219,50.6542969 64.0429688,48.4570313 C67.578125,46.4355469 70.9472656,43.90625 73.7304688,41.1425781 C75.9375,38.9453125 77.6953125,36.6992188 78.9453125,34.4726563 C80.390625,31.9042969 81.1230469,29.4140625 81.1230469,27.0800781 C81.1230469,25.7910156 81.1328125,24.609375 81.1523437,23.4667969 C81.2109375,18.7207031 81.25,15.1953125 80.0195312,12.5 L84.4238281,12.5 C86.1035156,12.5 87.5195312,11.09375 87.5195312,9.36523438 Z M69.3457031,60.546875 C71.9921875,63.3886719 73.8085937,66.2597656 74.5898437,68.7792969 L25.8105469,68.7792969 C26.5917969,66.2597656 28.3984375,63.3789063 31.0253906,60.546875 C34.6875,56.5917969 39.5019531,53.1640625 44.2285156,51.1523437 C44.5019531,51.0351562 44.7460937,50.8789062 44.9707031,50.703125 C45.1269531,50.7128906 45.2832031,50.7128906 45.4296875,50.7128906 L54.3164062,50.7128906 C54.6386719,50.7128906 54.9609375,50.6933594 55.2832031,50.6640625 C55.5175781,50.8691406 55.78125,51.0351562 56.0742187,51.1523437 C60.8300781,53.1542969 65.6640625,56.5820313 69.3457031,60.546875 Z M74.0527344,14.3945313 C75.1464844,15.5078125 75.1171875,18.8183594 75.0585937,23.3984375 C75.0488281,24.5019531 75.0292969,25.7519531 75.0292969,27.0800781 C75.0292969,28.3691406 74.5507812,29.8632813 73.6621094,31.4648438 L26.7382812,31.4648438 C25.859375,29.8632813 25.3808594,28.3691406 25.3808594,27.0800781 C25.3808594,18.5839844 25.5566406,15.4980469 27.5488281,14.21875 C29.296875,13.0957031 32.9296875,12.6660156 38.2226562,12.5 L62.8710937,12.5 C68.8964844,12.6757813 72.8125,13.1445313 74.0527344,14.3945313 Z" id="形状" fill="#FFFFFF"></path>
            </g>
        </g>
    </g>
</svg>