<?xml version="1.0" encoding="UTF-8"?>
<svg width="60px" height="60px" viewBox="0 0 60 60" version="1.1" xmlns="http://www.w3.org/2000/svg" xmlns:xlink="http://www.w3.org/1999/xlink">
   
    <g id="页面-1" stroke="none" stroke-width="1" fill="none" fill-rule="evenodd">
        <g id="事件列表弹窗" transform="translate(-1275.000000, -428.000000)" fill-rule="nonzero">
            <g id="编组-6" transform="translate(1070.000000, 348.000000)">
                <g id="删除数据警示24x24px" transform="translate(205.000000, 80.000000)">
                    <rect id="矩形" fill="#000000" opacity="0" x="0" y="0" width="60" height="60"></rect>
                    <path d="M55.3275,54.28125 C53.50875,54.28125 7.23375,54.28125 4.5975,54.28125 C2.0025,54.28125 0.73875,51.225 1.87875,48.8925 C3.43875,45.70875 25.8525,7.9725 27.25125,5.28375 C28.50375,2.86875 31.4925,2.8275 32.745,5.28375 C34.65375,9.0225 56.95875,46.59 58.0575,48.77625 C59.44125,51.51 57.69,54.28125 55.3275,54.28125 L55.3275,54.28125 Z M27.33375,19.49625 L29.11875,38.22375 L31.7925,38.22375 L33.58125,19.49625 L27.33375,19.49625 L27.33375,19.49625 Z M33.58125,40.905 L27.33375,40.905 L27.33375,46.2525 L33.58125,46.2525 L33.58125,40.905 L33.58125,40.905 Z" id="形状" fill="#FFA630"></path>
                </g>
            </g>
        </g>
    </g>
</svg>