<svg xmlns="http://www.w3.org/2000/svg" xmlns:xlink="http://www.w3.org/1999/xlink" width="256" height="256.004" viewBox="0 0 256 256.004"><defs><linearGradient id="a" y1="-0.063" x2="0.928" y2="1" gradientUnits="objectBoundingBox"><stop offset="0" stop-color="#65747c"/><stop offset="1" stop-color="#2f2f4d"/></linearGradient><linearGradient id="b" x1="0.114" x2="0.95" y2="1.071" gradientUnits="objectBoundingBox"><stop offset="0" stop-color="#77a9ff"/><stop offset="1" stop-color="#3871d3"/></linearGradient></defs><g transform="translate(-32 -31.999)"><g transform="translate(32 31.999)" style="isolation:isolate"><path d="M256,53.179c0-2.031,0-4.061-.012-6.092-.011-1.711-.03-3.42-.076-5.131a74.564,74.564,0,0,0-.977-11.166,37.717,37.717,0,0,0-3.5-10.62A35.709,35.709,0,0,0,235.82,4.561a37.682,37.682,0,0,0-10.615-3.5A74.614,74.614,0,0,0,214.034.081C212.324.035,210.614.015,208.9,0c-2.031-.012-4.061-.011-6.092-.011H53.19c-2.031,0-4.061,0-6.092.011-1.711.011-3.42.03-5.131.076A74.61,74.61,0,0,0,30.8,1.063a37.683,37.683,0,0,0-10.616,3.5A35.711,35.711,0,0,0,4.569,20.171,37.693,37.693,0,0,0,1.075,30.79,74.4,74.4,0,0,0,.1,41.957c-.047,1.71-.065,3.42-.076,5.131C0,49.118,0,51.149,0,53.179V202.815c0,2.031,0,4.061.012,6.092.011,1.711.03,3.42.076,5.131A74.408,74.408,0,0,0,1.065,225.2a37.691,37.691,0,0,0,3.5,10.62,35.708,35.708,0,0,0,15.61,15.609,37.713,37.713,0,0,0,10.615,3.5,74.514,74.514,0,0,0,11.171.983c1.71.046,3.42.066,5.131.076q3.053.012,6.1.008H202.811c2.031,0,4.061,0,6.092-.012,1.711-.011,3.42-.03,5.131-.076a74.522,74.522,0,0,0,11.171-.983,37.714,37.714,0,0,0,10.615-3.5,35.706,35.706,0,0,0,15.61-15.609,37.712,37.712,0,0,0,3.5-10.62,74.578,74.578,0,0,0,.977-11.166c.046-1.71.065-3.42.076-5.131.013-2.031.012-4.061.012-6.092V53.179Z" transform="translate(0 0.006)" fill-rule="evenodd" fill="url(#a)"/></g><path d="M8561.448-253.227a31.405,31.405,0,0,1-8.587-1.475,63.974,63.974,0,0,1-10.147-4.077,98.288,98.288,0,0,1-20.816-13.877,83.061,83.061,0,0,1-16.913-20.469,50.187,50.187,0,0,1-4.457-10.365,35.9,35.9,0,0,1-1.528-10.1v-58.284h5.552a80.972,80.972,0,0,0,29.142-5.552,175.948,175.948,0,0,0,22.447-11.135l.013-.007a15.435,15.435,0,0,1,2.521-1.346l3.47-2.082,3.47,2.082c.1.073,2.554,1.8,6.765,4.163a125.979,125.979,0,0,0,18.213,8.326,136.094,136.094,0,0,0,29.144,5.552h5.55v58.284a32.251,32.251,0,0,1-1.908,10.5,71.024,71.024,0,0,1-5.03,11.015c-2.387,3.41-4.854,6.935-7.546,10.234a60.907,60.907,0,0,1-9.107,9.194,94.882,94.882,0,0,1-9.887,7.72,75.371,75.371,0,0,1-10.929,6.157,81.934,81.934,0,0,1-10.5,4.077A31.389,31.389,0,0,1,8561.448-253.227Zm-11.191-71.242a31.571,31.571,0,0,0-19.371,32.8l41.748.119V-323.3a17.374,17.374,0,0,1-4.948,2.6,17.383,17.383,0,0,1-5.517.9h-.047a17.364,17.364,0,0,1-11.866-4.668h0Zm25.874,29.144v3.5h17.483v-3.5Zm0-9.324v3.5h13.986v-3.5Zm0-9.322v3.5h10.489v-3.5Zm0-9.326v3.5h6.994v-3.5Zm-13.987-34.966a17.5,17.5,0,0,0-17.481,17.483,17.5,17.5,0,0,0,17.481,17.483,17.5,17.5,0,0,0,17.484-17.483A17.5,17.5,0,0,0,8562.144-358.263Z" transform="translate(-8401.283 482.722)" fill="url(#b)"/><g transform="translate(-2000 -975.627)"><rect width="9.234" height="62.333" rx="4.617" transform="translate(2183.921 1155.551) rotate(-45)" fill="#656a70"/><path d="M28.667,11.116A17.551,17.551,0,1,0,46.218,28.667,17.551,17.551,0,0,0,28.667,11.116M28.667,0A28.667,28.667,0,1,1,0,28.667,28.667,28.667,0,0,1,28.667,0Z" transform="translate(2160 1181.909) rotate(-85)" fill="#eaeaeb"/><circle cx="19.891" cy="19.891" r="19.891" transform="translate(2169.507 1173.931) rotate(-85)" fill="#0271c8"/></g></g></svg>