<svg xmlns="http://www.w3.org/2000/svg" xmlns:xlink="http://www.w3.org/1999/xlink" width="256" height="256.003" viewBox="0 0 256 256.003"><defs><style>.a{fill-rule:evenodd;fill:url(#a);}.b{fill:url(#b);}.c{fill:url(#c);}</style><linearGradient id="a" y1="-0.063" x2="0.928" y2="1" gradientUnits="objectBoundingBox"><stop offset="0" stop-color="#2f2f2f"/><stop offset="1" stop-color="#000525"/></linearGradient><linearGradient id="b" y1="0.074" x2="1" y2="1.071" gradientUnits="objectBoundingBox"><stop offset="0" stop-color="#de3252"/><stop offset="1" stop-color="#da6d81"/></linearGradient><linearGradient id="c" x1="-0.057" x2="1.084" y2="1" gradientUnits="objectBoundingBox"><stop offset="0" stop-color="#bed2fd"/><stop offset="1" stop-color="#7e93bf"/></linearGradient></defs><g transform="translate(-32 -31.999)"><g transform="translate(32 31.999)"><path class="a" d="M256,41.463c0-1.583,0-3.166-.009-4.75-.008-1.334-.024-2.667-.059-4a58.143,58.143,0,0,0-.762-8.706,29.408,29.408,0,0,0-2.728-8.28A27.842,27.842,0,0,0,240.266,3.555,29.38,29.38,0,0,0,231.989.828a58.176,58.176,0,0,0-8.71-.766c-1.333-.036-2.667-.051-4-.059-1.583-.009-3.167-.008-4.75-.008H41.472c-1.583,0-3.167,0-4.75.008-1.334.008-2.667.024-4,.059a58.174,58.174,0,0,0-8.71.766,29.381,29.381,0,0,0-8.277,2.728A27.844,27.844,0,0,0,3.563,15.726a29.389,29.389,0,0,0-2.725,8.28,58.008,58.008,0,0,0-.762,8.706c-.037,1.333-.051,2.667-.059,4C0,38.3,0,39.879,0,41.463V214.53c0,1.583,0,3.166.009,4.75.008,1.334.024,2.667.059,4a58.016,58.016,0,0,0,.762,8.706,29.387,29.387,0,0,0,2.728,8.28A27.841,27.841,0,0,0,15.73,252.438a29.405,29.405,0,0,0,8.277,2.727,58.1,58.1,0,0,0,8.71.766c1.333.036,2.667.051,4,.059Q39.1,256,41.472,256H214.529c1.583,0,3.167,0,4.75-.009,1.334-.008,2.667-.024,4-.059a58.1,58.1,0,0,0,8.71-.766,29.405,29.405,0,0,0,8.277-2.727,27.84,27.84,0,0,0,12.171-12.171,29.4,29.4,0,0,0,2.729-8.28,58.147,58.147,0,0,0,.762-8.706c.036-1.333.051-2.667.059-4,.01-1.583.009-3.166.009-4.75V41.463Z" transform="translate(0 0.006)"/></g><path class="b" d="M310.586,287.118C280.564,262.554,265.1,238.9,265.1,216.156a45.489,45.489,0,0,1,90.977,0c0,22.744-15.466,46.4-45.489,70.962Zm0-22.744c18.2-16.376,27.293-31.842,27.293-48.218a27.293,27.293,0,0,0-54.586,0C283.293,232.532,292.391,248,310.586,264.374Zm0-39.12c-5.459,0-9.1-3.639-9.1-9.1s3.639-9.1,9.1-9.1,9.1,3.639,9.1,9.1S316.045,225.253,310.586,225.253Z" transform="translate(-150.586 -87.998)"/><path class="c" d="M346.977,307.133v-18.2h-18.2l18.2-18.2h18.2v54.586H256V270.742h18.2l18.2,18.2H274.2v18.2h72.782Z" transform="translate(-150.586 -87.998)"/></g></svg>