<svg xmlns="http://www.w3.org/2000/svg" xmlns:xlink="http://www.w3.org/1999/xlink" width="256" height="256.003" viewBox="0 0 256 256.003"><defs><style>.a{fill-rule:evenodd;fill:url(#a);}.b{fill:#fff;}.c{fill:url(#b);}</style><linearGradient id="a" y1="-0.063" x2="0.928" y2="1" gradientUnits="objectBoundingBox"><stop offset="0" stop-color="#2f2f2f"/><stop offset="1" stop-color="#000525"/></linearGradient><linearGradient id="b" x1="0.024" y1="-0.03" x2="1.045" y2="1" gradientUnits="objectBoundingBox"><stop offset="0" stop-color="#487edd"/><stop offset="1" stop-color="#487edd"/></linearGradient></defs><g transform="translate(-32 -31.999)"><g transform="translate(32 31.999)"><path class="a" d="M256,41.463c0-1.583,0-3.166-.009-4.75-.008-1.334-.024-2.667-.059-4a58.143,58.143,0,0,0-.762-8.706,29.408,29.408,0,0,0-2.728-8.28A27.842,27.842,0,0,0,240.266,3.555,29.38,29.38,0,0,0,231.989.828a58.176,58.176,0,0,0-8.71-.766c-1.333-.036-2.667-.051-4-.059-1.583-.009-3.167-.008-4.75-.008H41.472c-1.583,0-3.167,0-4.75.008-1.334.008-2.667.024-4,.059a58.174,58.174,0,0,0-8.71.766,29.381,29.381,0,0,0-8.277,2.728A27.844,27.844,0,0,0,3.563,15.726a29.389,29.389,0,0,0-2.725,8.28,58.008,58.008,0,0,0-.762,8.706c-.037,1.333-.051,2.667-.059,4C0,38.3,0,39.879,0,41.463V214.53c0,1.583,0,3.166.009,4.75.008,1.334.024,2.667.059,4a58.016,58.016,0,0,0,.762,8.706,29.387,29.387,0,0,0,2.728,8.28A27.841,27.841,0,0,0,15.73,252.438a29.405,29.405,0,0,0,8.277,2.727,58.1,58.1,0,0,0,8.71.766c1.333.036,2.667.051,4,.059Q39.1,256,41.472,256H214.529c1.583,0,3.167,0,4.75-.009,1.334-.008,2.667-.024,4-.059a58.1,58.1,0,0,0,8.71-.766,29.405,29.405,0,0,0,8.277-2.727,27.84,27.84,0,0,0,12.171-12.171,29.4,29.4,0,0,0,2.729-8.28,58.147,58.147,0,0,0,.762-8.706c.036-1.333.051-2.667.059-4,.01-1.583.009-3.166.009-4.75V41.463Z" transform="translate(0 0.006)"/></g><path class="b" d="M10.274,82.191H30.822V92.465H10.274ZM0,92.465H10.274v10.274H0Zm10.274,10.274H20.548v10.274H10.274Zm10.274,10.274H30.822v10.274H20.548ZM0,123.287H20.548V133.56H0Zm61.643-20.548H51.369V82.191H41.1V133.56H51.369V113.013H61.643V133.56H71.917V82.191H61.643ZM82.191,92.465v41.1h30.822V123.287H92.465V113.013h20.548V102.739H92.465V92.465h20.548V82.191H82.191Zm51.369,30.822v-41.1H123.287V133.56H133.56Zm10.274-41.1h10.274V133.56H143.834Z" transform="translate(82.946 77.809)"/><path class="c" d="M102.739,0V41.1h41.1Zm41.1,71.917H10.274V10.274A10.271,10.271,0,0,1,20.548,0H92.465V51.369h51.369Zm0,82.191a10.271,10.271,0,0,1-10.274,10.274H20.548a10.271,10.271,0,0,1-10.274-10.274h0V143.834h133.56v10.274Z" transform="translate(82.946 77.809)"/></g></svg>