<svg xmlns="http://www.w3.org/2000/svg" xmlns:xlink="http://www.w3.org/1999/xlink" width="256" height="256.003" viewBox="0 0 256 256.003"><defs><style>.a{fill-rule:evenodd;fill:url(#a);}.b{fill:#c4a2ea;}.c{fill:#330d84;}.d{fill:#ffbe1b;}.e{fill:#ffe37b;}.f{fill:#fff;}.g{fill:#5d8ef9;}</style><linearGradient id="a" y1="-0.063" x2="0.928" y2="1" gradientUnits="objectBoundingBox"><stop offset="0" stop-color="#2f2f2f"/><stop offset="1" stop-color="#000525"/></linearGradient></defs><g transform="translate(-32 -31.999)"><g transform="translate(32 31.999)"><path class="a" d="M256,41.463c0-1.583,0-3.166-.009-4.75-.008-1.334-.024-2.667-.059-4a58.143,58.143,0,0,0-.762-8.706,29.408,29.408,0,0,0-2.728-8.28A27.842,27.842,0,0,0,240.266,3.555,29.38,29.38,0,0,0,231.989.828a58.176,58.176,0,0,0-8.71-.766c-1.333-.036-2.667-.051-4-.059-1.583-.009-3.167-.008-4.75-.008H41.472c-1.583,0-3.167,0-4.75.008-1.334.008-2.667.024-4,.059a58.174,58.174,0,0,0-8.71.766,29.381,29.381,0,0,0-8.277,2.728A27.844,27.844,0,0,0,3.563,15.726a29.389,29.389,0,0,0-2.725,8.28,58.008,58.008,0,0,0-.762,8.706c-.037,1.333-.051,2.667-.059,4C0,38.3,0,39.879,0,41.463V214.53c0,1.583,0,3.166.009,4.75.008,1.334.024,2.667.059,4a58.016,58.016,0,0,0,.762,8.706,29.387,29.387,0,0,0,2.728,8.28A27.841,27.841,0,0,0,15.73,252.438a29.405,29.405,0,0,0,8.277,2.727,58.1,58.1,0,0,0,8.71.766c1.333.036,2.667.051,4,.059Q39.1,256,41.472,256H214.529c1.583,0,3.167,0,4.75-.009,1.334-.008,2.667-.024,4-.059a58.1,58.1,0,0,0,8.71-.766,29.405,29.405,0,0,0,8.277-2.727,27.84,27.84,0,0,0,12.171-12.171,29.4,29.4,0,0,0,2.729-8.28,58.147,58.147,0,0,0,.762-8.706c.036-1.333.051-2.667.059-4,.01-1.583.009-3.166.009-4.75V41.463Z" transform="translate(0 0.006)"/><path class="b" d="M71.733,129.031a8.059,8.059,0,0,1-8.059-8.059v-17.8a40.247,40.247,0,0,1,40.2-40.2h17.8a8.059,8.059,0,1,1,0,16.119h-17.8a24.109,24.109,0,0,0-24.082,24.082v17.8A8.059,8.059,0,0,1,71.733,129.031ZM214.739,255.01H196.847a8.059,8.059,0,0,1,0-16.119h17.891a24.109,24.109,0,0,0,24.082-24.082V197.024a8.059,8.059,0,0,1,16.119,0v17.785A40.248,40.248,0,0,1,214.739,255.01Zm-93.1,0H103.851a40.247,40.247,0,0,1-40.2-40.2V197.024a8.059,8.059,0,0,1,16.119,0v17.785a24.109,24.109,0,0,0,24.082,24.082h17.785a8.059,8.059,0,0,1,0,16.119ZM246.878,129.069a8.059,8.059,0,0,1-8.059-8.059V103.225a24.109,24.109,0,0,0-24.082-24.082H196.845a8.059,8.059,0,0,1,0-16.119h17.891a40.247,40.247,0,0,1,40.2,40.2V121.01A8.059,8.059,0,0,1,246.878,129.069Z" transform="translate(-31.295 -30.008)"/></g><g transform="translate(-115.982 -115.479)"><path class="c" d="M392.451,323.392H334.8A11.4,11.4,0,0,0,323.394,334.8V392.45A11.4,11.4,0,0,0,334.8,403.855h57.651a11.405,11.405,0,0,0,11.405-11.405V334.8A11.405,11.405,0,0,0,392.451,323.392Z" transform="translate(-87.635 -87.635)"/><path class="d" d="M420.039,366.916H375.691a8.772,8.772,0,0,0-8.773,8.773v44.348a8.773,8.773,0,0,0,8.773,8.773h44.348a8.773,8.773,0,0,0,8.773-8.773V375.689A8.773,8.773,0,0,0,420.039,366.916Z" transform="translate(-121.875 -121.875)"/><path class="e" d="M411.731,353.875a2.679,2.679,0,1,0,2.679,2.679,2.678,2.678,0,0,0-2.679-2.679Zm-67.251,0a2.679,2.679,0,1,0,2.679,2.679,2.678,2.678,0,0,0-2.679-2.679Zm67.251,62.1a2.679,2.679,0,1,0,2.679,2.679,2.679,2.679,0,0,0-2.679-2.679Zm-67.251,0a2.679,2.679,0,1,0,2.679,2.679,2.679,2.679,0,0,0-2.679-2.679Z" transform="translate(-102.114 -111.615)"/><path class="f" d="M467.144,437.123a8.919,8.919,0,0,0-5.031-2.842q.875-.388,1.216-.56a9.031,9.031,0,0,0,1.214-.85,6.946,6.946,0,0,0,2.576-5.929,8.778,8.778,0,0,0-2.283-5.927,8.552,8.552,0,0,0-3.768-2.24,14.3,14.3,0,0,0-1.588-.41v-4.321h-5.961v3.907h-4v-3.907h-5.962v3.907h-6.525v6.414h4.86v21.143h-4.86v6.416h6.525v3.91h5.962v-3.91h4v3.91h5.961V451.78c3.241-.349,5.617-1.344,7.107-3.012a9.145,9.145,0,0,0,2.429-6.271,7.937,7.937,0,0,0-1.872-5.374Zm-17.666-12.758h3.645a11.156,11.156,0,0,1,4.76.73q1.411.728,1.41,2.989t-1.531,2.94a12.183,12.183,0,0,1-4.688.681h-3.6v-7.34Zm10.086,20.342a11.505,11.505,0,0,1-4.887.8h-5.2v-7.822h4.47a14.834,14.834,0,0,1,5.515.751,3.042,3.042,0,0,1,1.727,3.113A3.172,3.172,0,0,1,459.563,444.707Z" transform="translate(-177.035 -158.95)"/><path class="g" d="M250.132,225V214.06a2.063,2.063,0,0,0-4.126,0V225a4.126,4.126,0,1,0,4.126,0Zm13.96,0V214.06a2.063,2.063,0,1,0-4.126,0V225a4.126,4.126,0,1,0,4.126,0Zm13.96,0V214.06a2.063,2.063,0,1,0-4.126,0V225a4.126,4.126,0,1,0,4.126,0Zm13.96,0V214.06a2.063,2.063,0,1,0-4.127,0V225a4.126,4.126,0,1,0,4.126,0Zm13.96,0V214.06a2.063,2.063,0,1,0-4.126,0V225a4.126,4.126,0,1,0,4.126,0Zm-57.9,94.279a4.124,4.124,0,0,0-2.063,7.7v10.941a2.063,2.063,0,1,0,4.127,0V326.976a4.124,4.124,0,0,0-2.063-7.7Zm13.96,0a4.124,4.124,0,0,0-2.063,7.7v10.941a2.063,2.063,0,1,0,4.127,0V326.976a4.124,4.124,0,0,0-2.063-7.7Zm13.96,0a4.124,4.124,0,0,0-2.063,7.7v10.941a2.063,2.063,0,1,0,4.126,0V326.976a4.124,4.124,0,0,0-2.064-7.7Zm13.96,0a4.124,4.124,0,0,0-2.063,7.7v10.941a2.063,2.063,0,1,0,4.126,0V326.976a4.124,4.124,0,0,0-2.063-7.7Zm13.96,0a4.124,4.124,0,0,0-2.063,7.7v10.941a2.063,2.063,0,1,0,4.126,0V326.976a4.124,4.124,0,0,0-2.063-7.7Zm-75.338-19.5a4.122,4.122,0,0,0-3.57,2.063H214.062a2.063,2.063,0,1,0,0,4.126H225a4.125,4.125,0,1,0,3.57-6.189Zm0-13.96a4.122,4.122,0,0,0-3.57,2.063H214.062a2.063,2.063,0,1,0,0,4.127H225a4.125,4.125,0,1,0,3.57-6.19Zm0-13.96a4.122,4.122,0,0,0-3.57,2.063H214.062a2.063,2.063,0,1,0,0,4.126H225a4.125,4.125,0,1,0,3.57-6.189Zm0-13.96a4.12,4.12,0,0,0-3.57,2.063H214.062a2.063,2.063,0,1,0,0,4.127H225a4.125,4.125,0,1,0,3.57-6.189Zm0-13.961A4.122,4.122,0,0,0,225,246H214.062a2.063,2.063,0,1,0,0,4.127H225a4.125,4.125,0,1,0,3.57-6.19Zm109.346,57.905H326.978a4.126,4.126,0,1,0,0,4.126h10.941a2.063,2.063,0,1,0,0-4.127Zm0-13.96H326.978a4.127,4.127,0,1,0,0,4.127h10.941a2.063,2.063,0,0,0,0-4.127Zm0-13.96H326.978a4.126,4.126,0,1,0,0,4.126h10.941a2.063,2.063,0,1,0,0-4.126Zm0-13.961H326.978a4.126,4.126,0,1,0,0,4.127h10.941a2.063,2.063,0,1,0,0-4.127Zm0-13.96H326.978a4.126,4.126,0,1,0,0,4.126h10.941a2.063,2.063,0,1,0,0-4.126Z" transform="translate(0 0)"/></g></g></svg>