<svg xmlns="http://www.w3.org/2000/svg" viewBox="0 0 109 135" width="512" height="634"><style></style><path id="Path 0" fill-rule="evenodd" d="M60 .55c5.22.24 12.09 1.11 15.25 1.94 3.16.83 8 2.64 10.75 4.01 2.75 1.38 6.91 4.43 9.25 6.8 2.34 2.36 5.31 6.53 6.61 9.25 1.29 2.72 2.75 7.43 3.24 10.45.49 3.02.89 22.26.89 42.75.01 29.09.34 38.89 1.51 44.75 1.05 5.24 1.2 8.1.5 9.5-.55 1.1-2.69 2.45-4.75 2.99-2.06.55-5.44 1-7.5 1-2.77.01-4.15-.58-5.27-2.24-.84-1.24-1.92-3.82-2.4-5.75-.49-1.92-1.15-4.74-2.08-9l-5.25 4.6c-2.89 2.53-8.4 6.09-12.25 7.9-3.85 1.82-9.36 3.8-12.25 4.4-2.89.61-8.96 1.1-13.5 1.11-4.54 0-10.84-.68-14-1.5-3.16-.83-7.55-2.41-9.75-3.51-2.2-1.1-5.84-3.69-8.08-5.75-2.25-2.06-5.16-6-6.48-8.75-1.31-2.75-2.87-8.15-3.46-12-.77-5.03-.77-8.97.02-14 .6-3.85 2.06-9.03 3.25-11.5 1.19-2.47 4.22-6.53 6.74-9 2.52-2.47 7.94-6.16 12.05-8.18 4.1-2.03 10.16-4.38 13.46-5.24 3.3-.85 12.08-2.04 19.5-2.63 7.42-.59 16.88-1.32 28.5-2.16l-.5-9.21c-.42-7.68-.93-9.87-3.06-13.15-1.61-2.46-4.4-4.85-7.5-6.39-3.84-1.91-6.95-2.56-13.94-2.88-6.02-.27-11.81.16-17.5 1.3-4.67.94-11.87 3.25-16 5.15-4.12 1.89-8.29 3.43-9.25 3.41-.96-.01-2.76-1.26-4-2.77-1.24-1.51-2.9-4.32-3.68-6.25-1.23-3.04-1.22-3.83.04-6 .8-1.37 4.37-3.95 7.92-5.72 3.56-1.77 9.39-3.93 12.97-4.8 3.58-.87 9.65-1.98 13.5-2.47C47.35.53 54.77.32 60 .55zM43.5 73.43c-2.75.79-7.24 2.93-9.98 4.76-2.75 1.83-5.98 5.1-7.23 7.31-1.69 2.99-2.26 5.64-2.28 10.5-.02 4.8.56 7.67 2.23 10.97 1.73 3.43 3.43 5.06 7.26 6.97 4.11 2.05 6.34 2.47 12.5 2.37 4.5-.08 10.1-.96 14-2.2 3.58-1.14 9.02-3.77 12.09-5.84 3.08-2.07 7.01-5.01 8.75-6.52L84 99V70c-18.21.19-26.2.64-29.5 1.12-3.3.48-8.25 1.52-11 2.31z" style="fill:#fff"/></svg>