<svg xmlns="http://www.w3.org/2000/svg" viewBox="0 0 278 161" width="278" height="161"><style></style><path id="Path 0" d="M.62.75c-.27.41 10.85 36.19 24.7 79.51l25.18 78.76 36-.02c20.15-75.2 26.22-97.03 26.5-97.02.28.01 5.39 18.35 11.37 40.77 5.99 22.41 11.84 44.25 13 48.52l2.13 7.77 36-.02c8.75-27.53 16.32-51.27 22.48-70.52 6.15-19.25 14.94-46.7 19.53-61 4.59-14.3 8.16-26.34 7.92-26.75C225.19.34 216 0 205 0s-20 .22-20 .5-2.73 10.96-6.07 23.75c-3.33 12.79-7.35 28.2-8.93 34.25-1.57 6.05-4.71 18.2-6.98 27-2.26 8.8-4.36 16.68-4.67 17.5-.34.91-1.07-.26-1.85-3-.72-2.47-6.52-25.99-12.9-52.25L132 0 94.5-.04C91.15 12 85.3 35.4 79.34 59.71c-5.96 24.32-11.13 43.89-11.48 43.5-.36-.39-1.54-4.31-2.63-8.71-1.09-4.4-6.99-27.24-13.1-50.75C46.01 20.24 41 .78 41 .5c0-.28-8.98-.5-19.95-.5C10.08 0 .88.34.62.75zm242.33 107.57c-2.5.65-6.1 2.34-8 3.75-1.9 1.41-4.39 3.89-5.55 5.5-1.15 1.61-2.62 4.5-3.26 6.43-.65 1.93-1.16 6.43-1.15 10 .01 3.57.45 8.07.98 10 .53 1.93 2.66 5.48 4.74 7.89 2.09 2.41 5.59 5.34 7.79 6.49 3.21 1.69 5.79 2.11 13 2.11s9.79-.42 13-2.11c2.2-1.15 5.57-3.9 7.5-6.1 1.93-2.19 4.06-5.74 4.73-7.89.68-2.14 1.24-7.04 1.24-10.89.01-5.22-.58-8.27-2.3-12-1.27-2.75-4.08-6.48-6.24-8.28-2.16-1.8-6.18-3.94-8.93-4.76-2.75-.81-6.8-1.44-9-1.4-2.2.04-6.05.61-8.55 1.26z" style="fill:#fff"/></svg>