<svg xmlns="http://www.w3.org/2000/svg" viewBox="0 0 126 149" width="300" height="355"><style></style><path id="Path 0" d="M2.12 1.55C-.2 3.07-.26 3.47-.13 15.81L0 28.5c13.56 5.71 21.32 8.48 26 9.85 4.68 1.36 13.67 3.21 20 4.11 6.33.9 11.73 1.39 12 1.09.27-.3-.78-3.36-2.35-6.8-2.17-4.75-2.7-7.09-2.22-9.75.35-1.93 1.52-4.96 2.6-6.75s3.1-3.81 4.47-4.5c2-1 3-1 5 0 1.38.69 3.18 2.26 4.01 3.5.83 1.24 1.9 3.82 2.38 5.75.5 1.98.51 5.46.02 8-.47 2.48-1.56 5.17-2.43 6-.86.83-1.55 2.29-1.52 3.25.02.99.8 1.75 1.79 1.74.96 0 6.25-.72 11.75-1.59 5.5-.87 12.92-2.39 16.5-3.39 3.58-.99 10.33-3.23 15-4.97 4.67-1.74 9.51-3.81 10.75-4.6 2.14-1.37 2.25-2.07 2.25-13.94 0-11.85-.12-12.58-2.25-14.01C121.81.19 113.47-.02 63-.02 11.61-.02 4.21.17 2.12 1.55zM.5 35.67c-.46.36-.75 9.7-.65 20.75C0 72.74.41 78 2.03 84.5c1.48 5.9 3.33 9.97 7.03 15.5 2.76 4.13 7.37 9.43 10.23 11.78 2.87 2.36 7.91 5.59 11.21 7.2 3.3 1.6 8.92 3.62 12.5 4.48 3.58.87 11 1.84 16.5 2.16 5.5.31 12.58.19 15.74-.27 3.15-.47 5.74-.51 5.75-.1 0 .41-1.71 2.89-3.81 5.5s-5.36 6.04-7.25 7.62c-1.89 1.58-5.34 3.95-7.68 5.25-2.47 1.38-4.25 3.11-4.26 4.13 0 1.58.78 1.68 8.25 1.04 4.54-.39 10.96-1.43 14.26-2.32 3.3-.88 8.85-3.03 12.34-4.79 3.49-1.75 9.12-5.48 12.5-8.29 3.39-2.81 8.04-7.76 10.33-11 2.29-3.24 5.44-8.59 7-11.89l2.83-6c.47-64.14.31-68.5-1-68.5-.83 0-3.64 1.62-6.25 3.6-2.61 1.99-8.8 5.59-13.75 8.01-4.95 2.43-12.6 5.37-17 6.55-6.44 1.73-11.03 2.17-23.5 2.24-13.3.09-16.71-.23-24-2.22-4.67-1.28-12.32-4.12-17-6.32s-11.31-6-14.75-8.43C4.81 36.99 1.85 35 1.67 35c-.19 0-.71.3-1.17.67z" style="fill:#fefefe"/></svg>