<svg xmlns="http://www.w3.org/2000/svg" viewBox="0 0 317 283" width="317" height="283"><style></style><path id="Path 0" fill-rule="evenodd" d="M258 .13c7.32-.09 16.13.48 21.25 1.36 5.1.88 11.15 2.72 14.5 4.42 3.16 1.61 7.62 4.87 9.92 7.25 2.29 2.39 5.08 6.14 6.2 8.34 1.13 2.2 2.81 6.7 3.74 10 1.34 4.76 1.76 11.42 2.39 58.5h-32l-.25-23.25c-.23-21.34-.42-23.58-2.33-27.25-1.36-2.6-3.64-4.85-6.5-6.43-3.47-1.91-6.35-2.52-13.42-2.88-6.31-.32-10.64.01-14.5 1.09-3.86 1.09-6.47 2.62-8.75 5.14-1.79 1.97-3.59 5.27-4 7.33-.41 2.06-.75 46.05-.75 97.75s.34 95.69.75 97.75c.41 2.06 1.99 5.16 3.5 6.88 1.51 1.73 4.1 3.82 5.75 4.66 1.72.87 6.84 1.72 12 1.99 4.95.25 11.48-.04 14.5-.65 4-.81 6.37-2.01 8.69-4.37 1.75-1.79 3.76-4.61 4.46-6.26.95-2.22 1.36-13 1.85-79.5h-26v-30h58l-.3 56.25c-.27 49.9-.5 56.93-2.05 62.25-.95 3.3-2.71 8.02-3.9 10.5-1.19 2.48-4.21 6.55-6.71 9.05-2.5 2.51-7.02 5.78-10.04 7.27-3.02 1.5-9.1 3.37-13.5 4.16-4.49.82-14.15 1.45-22 1.45-7.94 0-17.46-.63-22-1.46-4.4-.8-10.02-2.47-12.48-3.71-2.47-1.24-6.75-4.33-9.5-6.86-3.51-3.21-6.05-6.83-8.43-12-1.99-4.34-3.74-10.09-4.22-13.9-.44-3.57-.8-50.15-.8-103.5s.36-99.92.8-103.5c.48-3.82 2.22-9.54 4.22-13.88 2.2-4.75 5.01-8.87 7.91-11.58 2.48-2.32 6.75-5.36 9.5-6.77 2.75-1.41 7.7-3.05 11-3.65 3.3-.61 7.13-1.27 8.5-1.47 1.38-.21 8.13-.44 15-.52zM0 3l33.75.01c18.56 0 36.45.45 39.75 1.01 3.3.55 9.09 2.46 12.88 4.24 4.19 1.98 8.52 5 11.08 7.74 2.31 2.47 4.9 5.85 5.76 7.5.86 1.65 2.59 6.15 3.85 10 2.13 6.5 2.32 9.09 2.71 36.5.27 18.61.02 32.18-.68 36.75-.6 3.99-2.08 9.84-3.28 13-1.32 3.49-3.97 7.64-6.75 10.55-2.51 2.64-6.37 5.65-8.57 6.7-2.2 1.04-3.32 1.92-2.5 1.95.82.03 3.91 1.74 6.86 3.8 2.94 2.06 6.68 5.78 8.29 8.25 1.62 2.47 3.89 7.43 5.06 11 1.93 5.9 2.17 9.31 2.57 37 .3 20.51.05 33.45-.76 39.5-.66 4.95-2.4 12.13-3.86 15.96-1.69 4.43-4.29 8.75-7.16 11.89-2.49 2.72-7.07 6.2-10.25 7.78-3.16 1.58-8.34 3.55-11.5 4.38-4.6 1.2-12.87 1.5-77.25 1.49V141.5m31.83-62.83L32 124c21.31-.01 29.19-.46 31.25-1.01 2.06-.54 5.18-2.23 6.92-3.74 1.75-1.51 3.99-4.55 4.98-6.75 1.61-3.58 1.81-7.29 1.84-35 .03-30.23-.03-31.11-2.23-35.44-1.24-2.44-3.54-5.37-5.1-6.5-1.57-1.13-5.17-2.36-8-2.74-2.84-.37-10.37-.71-16.74-.75-6.37-.04-11.96.23-12.42.6-.46.36-.76 21.06-.67 46zM32.24 203l.26 47.5c23.32.49 29.5.16 32.48-.71 2.46-.71 5.89-2.64 7.63-4.29 1.88-1.78 3.65-4.83 4.35-7.5.84-3.17 1.1-14.24.87-37.5-.32-31.97-.4-33.13-2.58-37.25-1.5-2.83-3.83-5.17-7-7-4.52-2.62-5.49-2.77-19.93-3.09-11.99-.27-15.31-.06-15.76 1-.32.74-.46 22.72-.32 48.84zM139 3h33v277h-33V141.5" style="fill:#fff"/></svg>