<svg xmlns="http://www.w3.org/2000/svg" viewBox="0 0 240 189" width="240" height="189"><style></style><path id="Path 0" fill-rule="evenodd" d="M212.5.37c5.01.23 8.42 1.03 12 2.83 2.75 1.38 6.47 4.26 8.26 6.4 1.79 2.15 3.99 6.15 4.89 8.9 1 3.05 1.62 8.13 1.58 13-.04 4.4-.82 10.93-1.73 14.5-.92 3.57-3.19 9.43-5.05 13-1.86 3.57-5.98 9.39-9.17 12.93-3.18 3.53-7.92 8.15-10.53 10.25-2.61 2.1-5.31 3.83-6 3.85-.69.02-4.97-2.79-9.52-6.25-4.55-3.45-8.28-6.73-8.29-7.28-.01-.55 1.86-2.35 4.16-4s6.48-5.51 9.29-8.57c2.81-3.06 6.12-7.45 9.61-13.93l-3.75.01c-2.06.01-6-.64-8.75-1.43-3.49-1-6.13-2.66-8.75-5.51-2.06-2.24-4.2-5.76-4.74-7.82-.55-2.06-1.01-5.32-1.03-7.25-.01-1.93.68-5.53 1.54-8 .86-2.47 3.01-6 4.77-7.84 1.77-1.83 4.47-4.04 6.02-4.9 1.54-.86 4.01-1.93 5.5-2.39 1.48-.45 5.84-.67 9.69-.5zM0 1l54.25.02c44.14.01 55.55.29 61.25 1.5 3.85.82 10.26 3.06 14.25 4.98 4.58 2.21 9.28 5.53 12.75 9 3.46 3.46 6.67 8 8.65 12.25 2.74 5.87 3.21 8.12 3.61 17.25.36 8.2.07 11.92-1.36 17-1.01 3.57-3.45 8.98-5.42 12-1.98 3.02-5.37 6.92-7.54 8.66-2.17 1.74-6.42 4.31-9.44 5.71-4.5 2.08-5.14 2.66-3.5 3.19 1.1.36 4.48 1.83 7.5 3.27 3.02 1.44 7.75 4.9 10.5 7.69 2.75 2.78 6.21 7.29 7.69 10.02 1.48 2.73 3.39 7.66 4.25 10.96.86 3.3 1.57 9.6 1.57 14s-.68 10.59-1.5 13.75c-.83 3.16-2.71 8.11-4.17 11-1.46 2.89-4.95 7.53-7.75 10.31-2.8 2.79-8.01 6.49-11.59 8.23-3.58 1.74-9.2 3.94-12.5 4.89-5.3 1.52-12.71 1.75-121.5 2.32V95m39-39v22c44.99.02 51.48-.3 55-1.47 2.48-.82 6.3-3 8.5-4.84 2.2-1.84 5.01-5.44 6.25-8.02 1.27-2.63 2.24-6.52 2.23-8.92-.01-2.34-.91-6.16-2-8.5-1.17-2.51-3.72-5.48-6.23-7.26-2.34-1.66-6.39-3.46-9-4-2.61-.55-16-.99-29.75-.99H39m.05 99.45L39 155c51.44.04 57.31-.24 61-1.53 2.48-.87 5.96-2.68 7.75-4.03 1.79-1.34 4.1-4.13 5.13-6.19 1.03-2.06 2.2-5.32 2.6-7.25.4-1.96.22-5.26-.41-7.5-.62-2.2-2.58-5.75-4.35-7.89-1.77-2.15-5.02-4.85-7.22-6-3.77-1.99-5.75-2.13-34.2-2.41l-30.19-.31" style="fill:#fff"/></svg>