<svg xmlns="http://www.w3.org/2000/svg" viewBox="0 0 212 338" width="212" height="338"><style></style><path id="Path 0" fill-rule="evenodd" d="M106 .11c1.93-.08 7.32.58 12 1.46 4.68.87 10.07 2.27 12 3.11 1.93.84 4.63 2.04 6 2.67 1.38.63 3.06 1.71 3.75 2.4s1.81 1.27 2.5 1.29c.69.03 4.85 3.74 9.25 8.25 5.87 6.02 8.96 10.21 11.61 15.71 1.99 4.13 4.24 9.75 5 12.5 1.12 4.03 1.39 17.61 1.39 70.1 0 45.64-.33 65.82-1.11 67.5-.61 1.32-1.67 4.2-2.35 6.4-.68 2.2-3 6.93-5.15 10.5-2.15 3.57-5.36 8.1-7.15 10.05-1.78 1.95-5.71 5.35-8.74 7.55-3.03 2.2-6.85 4.66-8.5 5.45-1.65.8-3.22 1.7-3.5 2.01-.28.31-3.65 1.54-7.5 2.75-5.57 1.74-9.45 2.18-19 2.17-6.6 0-13.57-.51-15.5-1.13-1.93-.62-5.97-2.05-9-3.17-3.03-1.12-7.53-3.4-10-5.08-2.47-1.67-5.37-3.73-6.44-4.57-1.07-.84-3.1-2.67-4.5-4.07-1.41-1.4-3.79-4.1-5.29-6-1.5-1.9-2.74-4.02-2.75-4.71-.01-.69-.36-1.24-.77-1.23-.41.02-1.72-2.12-2.9-4.75-1.19-2.62-2.62-6.34-3.19-8.27-.56-1.93-1.53-5.3-2.14-7.5-.79-2.81-1.01-22.53-.76-66.5.26-45.08.7-63.89 1.59-67.5.68-2.75 1.98-6.58 2.9-8.5.91-1.92 3.09-5.98 4.84-9 1.75-3.02 5.8-8.09 9.01-11.25S67.75 13 68.14 13c.4 0 1.31-.6 2.04-1.34.73-.74 3.68-2.54 6.57-4s7.16-3.33 9.5-4.14c2.34-.82 6.95-1.89 10.25-2.38s7.57-.96 9.5-1.03zM83 18.4c-4.98 2.55-9.6 5.98-13.75 10.22C65.81 32.13 63 35.67 63 36.5c0 .83-.34 1.5-.75 1.5s-1.3 1.23-1.97 2.75c-.67 1.51-2.14 5.45-3.27 8.75-1.9 5.6-2.04 8.34-2.03 41.25L55 126c96.39 0 103.06-.19 103.5-1.5.28-.83.5-14.66.49-30.75 0-16.09-.48-32.17-1.07-35.75-.58-3.58-1.52-7.85-2.09-9.5-.57-1.65-2-5.02-3.18-7.5-1.18-2.48-3.27-5.85-4.64-7.5-1.36-1.65-4.74-5.18-7.5-7.86-2.75-2.67-7.71-6.16-11.01-7.76-3.3-1.59-8.7-3.55-12-4.35-3.3-.8-8.25-1.43-11-1.39-2.75.03-7.47.6-10.5 1.24-3.03.65-8.87 2.91-13 5.02zM95.15 24c1.02 0 2.59.34 3.49.75.9.41 2.3 2.1 3.1 3.75.8 1.65 1.18 4.01.86 5.25-.33 1.24-1.61 2.96-2.85 3.82-1.54 1.07-3.44 1.39-6 1-2.36-.36-4.12-1.31-4.75-2.57-.55-1.1-1.04-3.32-1.1-4.93-.06-2.09.7-3.52 2.66-5 1.51-1.14 3.58-2.07 4.59-2.07zm22.3-.03c1.13-.02 3.29.88 4.8 2 2.04 1.5 2.74 2.87 2.72 5.28-.02 1.79-.71 4.15-1.54 5.25-1.05 1.38-2.69 2-5.29 2-2.3 0-4.44-.69-5.46-1.75-.92-.96-1.76-3.31-1.85-5.21-.12-2.53.46-4.01 2.2-5.5 1.3-1.12 3.29-2.06 4.42-2.07zM72.5 50.02c1.67-.03 4 .84 5.25 1.96 1.29 1.16 2.25 3.19 2.26 4.77 0 1.51-.67 3.76-1.5 5-1.26 1.88-2.29 2.21-6.25 2-4.19-.22-4.9-.6-6.11-3.25-1.04-2.28-1.1-3.54-.26-5.25.61-1.24 1.67-2.91 2.36-3.71.69-.81 2.6-1.49 4.25-1.52zM94.7 50c1.26 0 3.09.39 4.05.87s2.43 2.29 3.25 4.04c1.4 2.95 1.35 3.36-.6 5.88-1.6 2.06-3.09 2.77-6.25 2.96-3.35.2-4.44-.18-5.66-2-.83-1.24-1.58-3.47-1.67-4.96-.1-1.75.68-3.43 2.21-4.75 1.3-1.12 3.4-2.04 4.67-2.04zm23.3-.03c1.38 0 3.51.9 4.75 2.01 1.47 1.32 2.24 3.14 2.22 5.27-.01 1.79-.8 4.05-1.75 5.03-1.04 1.08-3.1 1.76-5.22 1.72-1.93-.03-4.27-.61-5.21-1.28-1.09-.78-1.78-2.75-1.88-5.41-.15-3.42.26-4.48 2.21-5.76 1.31-.86 3.51-1.57 4.88-1.58zm21.7.03c1.26 0 3.43.67 4.8 1.5 2.05 1.23 2.49 2.26 2.46 5.75-.02 2.84-.61 4.66-1.75 5.47-.94.67-3.28 1.22-5.21 1.22-1.97.01-4.28-.75-5.28-1.72-.98-.94-1.85-3.16-1.92-4.93-.1-2.25.57-3.82 2.23-5.25 1.3-1.12 3.4-2.04 4.67-2.04zM73.04 76c2.99 0 4.33.55 5.47 2.25.83 1.24 1.52 3.38 1.53 4.75.01 1.38-.78 3.49-1.76 4.71-1.25 1.55-2.9 2.22-5.53 2.25-2.96.03-4.18-.54-5.78-2.71-1.12-1.51-2.04-3.68-2.05-4.81 0-1.14.93-3.05 2.07-4.25 1.46-1.53 3.27-2.19 6.05-2.19zm22.01 0c3.15 0 4.36.56 5.98 2.75 1.12 1.51 2.02 3.31 2 4-.01.69-.93 2.6-2.03 4.25-1.53 2.3-2.76 3-5.25 3.02-1.87.01-4.2-.83-5.5-2-1.24-1.11-2.29-3.27-2.35-4.8-.05-1.53.65-3.78 1.55-5 1.22-1.64 2.68-2.22 5.6-2.22zm22.95.06c1.97-.01 4.28.75 5.28 1.72 1.01.97 1.77 3.13 1.75 4.97-.02 1.88-.87 4.09-2.03 5.25-1.2 1.2-3.3 1.99-5.25 1.97-1.79-.02-4.02-.58-4.96-1.25-1.08-.77-1.81-2.85-1.98-5.61-.21-3.45.15-4.67 1.71-5.72 1.09-.73 3.55-1.33 5.48-1.33zm21.8-.03c2.12.01 4.46.76 5.48 1.75 1.11 1.06 1.77 3.15 1.75 5.47-.02 2.75-.63 4.15-2.28 5.26-1.24.83-3.49 1.5-5 1.5-1.58-.01-3.61-.97-4.77-2.26-1.11-1.24-2.05-3.39-2.1-4.78-.04-1.39.67-3.53 1.57-4.75 1.19-1.61 2.67-2.21 5.35-2.19zM72.6 102c3.45 0 4.73.49 5.91 2.25.83 1.24 1.5 3.49 1.5 5-.01 1.58-.97 3.61-2.26 4.77-1.3 1.17-3.63 2.01-5.5 2-2.49-.02-3.72-.72-5.25-3.02-1.1-1.65-2.1-3.69-2.22-4.54-.12-.84.6-2.64 1.6-4 1.45-1.97 2.69-2.46 6.22-2.46zm22.45 0c2.18 0 4.62.67 5.45 1.5.82.83 1.72 2.4 2 3.5s-.02 3.01-.66 4.25c-.64 1.24-1.88 2.8-2.75 3.47-.88.67-2.71 1.24-4.09 1.27-1.37.03-3.51-.86-4.75-1.97-1.24-1.11-2.29-3.27-2.35-4.8-.05-1.53.65-3.78 1.55-5 1.22-1.64 2.68-2.22 5.6-2.22zm22.9.04c3.12.03 4.93.58 5.77 1.75.67.94 1.23 3.17 1.25 4.96.02 1.95-.77 4.05-1.97 5.25-1.1 1.1-3.24 2-4.75 2.01-1.51 0-3.76-.67-5-1.5-1.68-1.13-2.3-2.6-2.45-5.81-.12-2.67.33-4.76 1.2-5.5.77-.66 3.45-1.18 5.95-1.16zm22.2-.04c2.12 0 4.53.67 5.35 1.5.83.83 1.5 3.28 1.5 5.5 0 3.03-.54 4.36-2.25 5.51-1.24.83-3.37 1.49-4.75 1.48-1.37-.02-3.52-1.04-4.78-2.26-1.25-1.23-2.34-3.54-2.43-5.15-.08-1.67.63-3.71 1.68-4.75 1.14-1.14 3.28-1.83 5.68-1.83zM33 126v21.5c0 11.82.49 24.99 1.09 29.25.61 4.26 1.99 10.45 3.07 13.75 1.09 3.3 2.95 8.03 4.13 10.5 1.19 2.47 3.07 5.84 4.19 7.47 1.11 1.64 3.82 4.97 6.02 7.41 2.2 2.44 5.13 5.46 6.5 6.71a482.1 482.1 0 0 0 5.5 4.89c1.65 1.45 6.6 4.37 11 6.49 4.4 2.13 9.91 4.36 12.25 4.95 2.34.6 5.94 1.52 8 2.06 2.06.54 6.9.99 10.75 1 3.85.01 9.93-.61 13.5-1.37 3.57-.77 8.53-2.1 11-2.95 2.47-.86 6.07-2.22 8-3.01 1.93-.8 6.31-3.53 9.75-6.05 3.44-2.53 8.18-6.51 10.53-8.85 2.35-2.34 5.67-6.28 7.37-8.75 1.71-2.47 4.06-6.19 5.23-8.25 1.16-2.06 2.12-4.43 2.12-5.25 0-.82.34-1.49.75-1.48.41.01 1.65-3.25 2.74-7.25 1.69-6.16 2.07-11.46 3.01-62.27h32v28c0 20.77-.39 30-1.5 35.76-.82 4.27-1.84 7.75-2.25 7.75-.41-.01-.75 1.12-.75 2.49 0 1.38-.94 4.64-2.08 7.25-1.15 2.61-2.76 6.32-3.58 8.25-.83 1.93-2.92 5.75-4.66 8.5-1.73 2.75-3.48 5.45-3.88 6-.4.55-3.67 4.49-7.26 8.75-3.6 4.26-6.88 7.77-7.29 7.78-.41.02-3 2.06-5.75 4.52-2.75 2.47-5.56 4.48-6.25 4.47-.69-.01-1.23.32-1.21.73.02.41-1.35 1.43-3.04 2.25-1.69.82-3.06 1.84-3.04 2.25.02.41-.64.75-1.46.75s-2.72.79-4.22 1.75c-1.49.96-4.98 2.58-7.75 3.6-2.76 1.02-6.15 2.1-7.53 2.39-1.37.29-3.08 1.03-3.79 1.64-.93.8-1.29 4.45-1.25 12.87.04 10.73.21 11.84 2.04 12.75 1.1.55 3.01 1.01 4.25 1.02 1.24.01 6.3 1.42 11.25 3.13s11.93 4.45 15.5 6.09c3.57 1.65 9.2 4.82 12.5 7.05 3.3 2.23 6.23 4.34 6.5 4.69.27.34 2.07 1.79 4 3.22 1.93 1.42 5.41 5.11 7.75 8.19 2.34 3.09 4.02 6.06 3.75 6.61-.33.66-32.67 1-187.5 1l-.03-2.25c-.02-1.44 2.32-4.68 6.5-9 3.59-3.71 9.79-8.92 13.78-11.56 3.99-2.65 10.29-6.25 14-8 3.71-1.76 7.09-3.18 7.5-3.17.41.01 2.1-.63 3.75-1.43 1.65-.79 6.15-2.21 10-3.14 3.85-.94 8.01-2.09 9.25-2.57 1.38-.54 2.06-1.46 1.75-2.38-.28-.82-.5-6.68-.5-13 0-11.25-.05-11.5-2.25-11.51-1.24-.01-4.16-.69-6.5-1.5-2.34-.82-7.74-3.24-12-5.38-4.26-2.14-10.67-6.05-14.25-8.68-3.58-2.64-9.65-8.02-13.5-11.96-3.85-3.93-8.81-9.81-11.03-13.06-2.22-3.25-5.56-9.06-7.42-12.91-1.86-3.85-3.75-7.79-4.21-8.75-.46-.96-.84-2.65-.84-3.75s-.34-2.17-.75-2.38c-.41-.21-1.08-1.9-1.48-3.75-.4-1.85-1.42-6.74-2.25-10.87-1.09-5.4-1.56-14.82-1.69-33.58-.09-14.35.21-26.39.67-26.75.46-.37 7.73-.67 31.5-.67z" style="fill:#fff"/></svg>