<svg xmlns="http://www.w3.org/2000/svg" viewBox="0 0 600 600" width="600" height="600"><style></style><path id="Path 0" fill-rule="evenodd" d="M221.5.11 600 0v469H227l-113 56.5C51.85 556.58.77 582 .5 582c-.27 0-.59-105.97-.9-471l110.95-55.44M75 304.5V374h30c0-6.98.45-9 1-9s2.46 1.18 4.25 2.63c1.79 1.44 5.28 3.65 7.75 4.91 2.47 1.25 7.65 2.85 11.5 3.55 5.47.98 8.31 1 13 .08 3.3-.65 8.7-2.44 12-3.99 3.3-1.55 8.5-5.26 11.58-8.25 3.64-3.55 6.85-8.02 9.26-12.93 2.03-4.12 4.35-10.65 5.16-14.5.8-3.85 1.48-10.37 1.49-14.5.02-4.14-.81-10.86-1.86-15-1.04-4.12-3.36-10.43-5.16-14-1.85-3.67-5.71-8.92-8.87-12.07-3.08-3.06-8.07-6.72-11.1-8.14-3.03-1.42-8.2-3.13-11.5-3.8-3.41-.7-8.48-.96-11.75-.61-3.16.34-8.11 1.54-11 2.65-2.89 1.12-7.16 3.6-9.5 5.5-2.34 1.91-4.7 3.24-5.25 2.97-.62-.31-1-8.83-1-22.5v-22H75m119.03 69.47L194 374h30l-.5-138.5-29.45-.55M429 304.5V374h29c0-6.98.45-9.23 1-9.5.55-.27 2.46.9 4.25 2.61s5.5 4.18 8.25 5.49c2.75 1.31 7.7 2.91 11 3.56 4.7.93 7.52.92 13-.06 3.85-.69 9.48-2.44 12.5-3.89 3.06-1.47 8.18-5.32 11.52-8.67 3.86-3.87 7.19-8.47 9.25-12.79 1.78-3.71 3.9-9.56 4.72-13 .81-3.44 1.48-10.3 1.48-15.25 0-4.95-.69-11.93-1.54-15.5-.85-3.57-2.82-9.2-4.38-12.5-1.57-3.3-5.09-8.48-7.84-11.5-2.75-3.02-7.41-6.95-10.35-8.71-2.95-1.77-8.29-3.96-11.86-4.88-4.34-1.1-8.66-1.48-13-1.14-3.57.29-8.98 1.57-12 2.86-3.02 1.29-7.41 3.81-9.75 5.61-2.34 1.79-4.7 3.26-5.25 3.26-.64 0-1-8.17-1-22.5V235h-29m-32.69 37.25c-1.55.86-4.5 3.29-6.58 5.4-2.43 2.49-4.09 3.5-4.68 2.85-.51-.55-1.06-3.02-1.24-5.5l-.31-4.5h-29L354 374h30l.5-58.5c4.7-9.82 6.72-12.3 9.67-14.25 3.71-2.44 5.11-2.75 12.4-2.75h8.23c2.55-17.05 3.47-23.4 3.68-25.11.31-2.52-.03-3.23-1.8-3.74-1.2-.34-4.43-.59-7.18-.55-2.75.04-6.21.42-7.69.83-1.49.42-3.96 1.47-5.5 2.32zm-154.08 37.97.27 40.28c4.86 10.07 8.01 14.72 10.13 16.83 2.13 2.11 6.35 5.02 9.37 6.47 4.66 2.23 6.79 2.62 14 2.56 6.08-.05 10.06-.66 14-2.16 3.02-1.16 7.64-3.92 10.25-6.15 2.61-2.23 5.2-3.82 5.75-3.55.55.27 1 2.52 1 5v4.5h29l-.5-103.5-28.29-.55-.71 67.55c-4.2 7.45-6.43 9.61-9.5 11.2-3.08 1.6-6.16 2.34-9.75 2.32-2.89-.01-6.71-.69-8.5-1.5-1.79-.82-4.15-2.96-5.25-4.75-1.87-3.06-2.03-5.52-2.5-38.77l-.5-35.5-28.55-.56m-112.38 23.28c5.62.22 7.82.8 10.7 2.78 2 1.38 4.79 4.3 6.21 6.5s3.06 5.8 3.65 8c.59 2.2.9 8.73.67 14.5-.31 8.21-.86 11.37-2.51 14.5-1.16 2.2-3.44 5.35-5.05 7-1.62 1.65-4.69 3.56-6.84 4.23-2.14.68-5.7 1.24-7.9 1.25-2.2 0-5.8-.49-8-1.09-2.49-.69-5.6-2.75-8.25-5.49-3.04-3.15-4.71-6.03-5.88-10.15-1.15-4.1-1.5-8.33-1.18-14.75.31-6.45 1.07-10.42 2.68-14 1.23-2.75 3.23-6.07 4.44-7.38 1.2-1.31 3.99-3.24 6.19-4.28 3.01-1.43 5.75-1.83 11.07-1.62zm353.59.07c5.58.18 7.35.7 10.94 3.21 2.42 1.7 5.29 4.95 6.61 7.5 1.28 2.48 2.84 7.65 3.47 11.5.86 5.23.86 8.77.02 14-.62 3.85-2.19 9.02-3.48 11.5-1.32 2.53-4.22 5.81-6.62 7.5-3.92 2.75-4.96 3-12.6 3-7.67 0-8.67-.24-12.66-3.05-2.91-2.05-5.33-4.99-7.34-8.93-2.8-5.49-3-6.63-3-16.95 0-10.02.26-11.62 2.75-16.82 1.51-3.16 4.21-6.87 6-8.23 1.79-1.37 4.6-2.93 6.25-3.47 1.65-.54 6-.88 9.66-.76z" style="fill:#fff"/></svg>