<svg xmlns="http://www.w3.org/2000/svg" viewBox="0 0 401 659" width="401" height="659"><style></style><g id="Page-1"><g id="Group"><path id="Path 0" d="M150.46 189.41C67.98 293.6.39 379.77.25 380.92L0 383l182.7.5c-61.01 207.7-78.83 269.53-78.96 271.39-.13 1.87.21 3.57.76 3.79.55.21 67.34-84.79 148.43-188.89C334.02 365.68 400.39 279.82 400.43 279c.06-1.32-10.53-1.53-88.68-1.75-48.81-.14-88.75-.48-88.75-.75s18.02-61.81 40.04-136.75C285.07 64.81 302.95 2.86 302.79 2.08c-.16-.78-.76-1.57-1.33-1.75-.57-.19-68.52 84.9-151 189.08z" style="fill:#fff"/></g></g></svg>