<svg xmlns="http://www.w3.org/2000/svg" viewBox="0 0 512 512" width="512" height="512"><style></style><path id="Path 0" fill-rule="evenodd" d="M254.75.11c21.47-.09 28.57.25 39 1.85 7.01 1.08 15.45 2.61 18.75 3.39 3.3.79 9.38 2.35 13.5 3.48 4.13 1.12 11.1 3.37 15.5 4.99s10.93 4.16 14.5 5.65c3.57 1.48 9.88 4.35 14 6.36 4.13 2.02 10.88 5.63 15 8.04 4.13 2.4 11.77 7.32 17 10.93 5.23 3.61 12.88 9.29 17 12.61 4.13 3.32 12.46 11 18.52 17.07 6.07 6.06 13.75 14.4 17.07 18.52 3.32 4.13 9 11.78 12.61 17 3.62 5.22 8.03 11.97 9.81 15 1.78 3.03 5.4 9.78 8.05 15 2.65 5.22 6.38 13.32 8.28 18 1.9 4.68 4.83 12.55 6.5 17.5 1.67 4.95 4.24 13.95 5.71 20 1.46 6.05 3.5 16.63 4.53 23.5 1.43 9.53 1.88 18.27 1.9 36.75.02 19.25-.4 27.09-2.01 38-1.11 7.56-3.17 18.25-4.58 23.75-1.4 5.5-3.91 14.05-5.57 19-1.66 4.95-4.58 12.82-6.49 17.5-1.91 4.68-5.13 11.88-7.15 16-2.03 4.13-5.64 10.88-8.05 15-2.4 4.13-7.32 11.77-10.93 17-3.61 5.23-9.29 12.88-12.61 17-3.32 4.13-11 12.46-17.07 18.52-6.06 6.07-14.39 13.75-18.52 17.07-4.12 3.32-11.77 9-17 12.61-5.23 3.61-12.87 8.53-17 10.93-4.12 2.41-10.87 6.02-15 8.04-4.12 2.01-10.43 4.88-14 6.36-3.57 1.49-10.1 4.03-14.5 5.65s-11.37 3.87-15.5 4.99c-4.12 1.13-10.2 2.7-13.5 3.49-3.3.79-11.85 2.31-19 3.38-10.16 1.52-18.34 1.95-37.5 1.94-16.74 0-27.83-.48-35-1.53-5.78-.84-14.55-2.39-19.5-3.44-4.95-1.06-13.05-3.1-18-4.54-4.95-1.44-14.18-4.65-20.5-7.14-6.32-2.48-16.22-6.89-22-9.79-5.78-2.91-12.97-6.74-16-8.52-3.03-1.78-9.78-6.2-15-9.82-5.22-3.61-12.87-9.29-17-12.61-4.12-3.32-12.46-11-18.52-17.07-6.07-6.06-13.75-14.39-17.07-18.52-3.32-4.12-9-11.77-12.61-17-3.61-5.23-8.53-12.87-10.93-17-2.41-4.12-6.02-10.87-8.04-15-2.01-4.12-4.88-10.43-6.36-14-1.49-3.57-4.03-10.1-5.65-14.5S9.94 330.13 8.81 326c-1.13-4.12-2.67-10.2-3.42-13.5-.75-3.3-2.27-11.96-3.38-19.25C.42 282.76 0 275 0 256c0-18.91.43-26.92 2.03-37.75C3.14 210.69 5.2 200 6.61 194.5c1.4-5.5 3.91-14.05 5.57-19 1.66-4.95 4.58-12.82 6.49-17.5 1.91-4.68 5.13-11.87 7.15-16 2.03-4.12 5.64-10.87 8.05-15 2.4-4.12 7.32-11.78 10.93-17 3.61-5.22 9.29-12.87 12.61-17 3.32-4.12 11-12.46 17.07-18.52 6.06-6.07 14.4-13.75 18.52-17.07 4.13-3.32 11.78-9 17-12.61 5.22-3.61 12.88-8.53 17-10.93 4.13-2.41 10.88-6.02 15-8.04 4.13-2.01 10.43-4.88 14-6.36 3.57-1.49 10.1-4.03 14.5-5.65s11.15-3.82 15-4.88c3.85-1.06 10.15-2.66 14-3.56 3.85-.9 11.95-2.43 18-3.4C225.82.64 234.89.19 254.75.11zM160 263.5V408h17V119h-17m247.24 114.75c.37 70.24.61 80.35 2.05 84.75.89 2.75 3.11 7.18 4.92 9.85 2.41 3.55 4.76 5.55 8.79 7.47 5.08 2.43 6.66 2.65 20.75 2.9L459 339v-17c-14.49-.53-19.75-1.29-21.37-2.09-1.58-.78-3.72-3.1-4.75-5.16-1.76-3.52-1.88-6.85-1.88-54.25V210h24v-18h-24v-38h-24.17M82 192.74c-3.71 1.72-8.3 4.88-10.7 7.38-2.31 2.41-5.24 6.63-6.5 9.38-2.29 4.97-2.3 5.28-2.57 54-.24 43.37-.08 49.57 1.39 54 .91 2.75 3.11 7.02 4.9 9.5 1.78 2.48 4.98 5.71 7.11 7.19 2.13 1.49 6.12 3.72 8.87 4.97 4.41 2.01 6.58 2.27 18.5 2.27 12.59-.01 13.89-.19 19.25-2.72 3.16-1.49 7.39-4.17 9.4-5.96 2.01-1.79 4.71-4.94 6-7 1.29-2.06 3.03-6.34 3.86-9.5.87-3.33 1.5-10.07 1.5-16-.01-5.64-.35-10.36-.76-10.5-.41-.14-5.81-.14-12 0L119 290c-.46 21.21-.8 23.27-2.59 25.68-1.15 1.55-3.62 3.59-5.5 4.52-1.87.94-5.55 1.73-8.16 1.75-2.61.03-6.21-.57-8-1.32-1.79-.76-4.37-2.59-5.75-4.08l-2.5-2.71v-95.68c3.88-4.15 6.35-6.04 8-6.88 2.09-1.06 5.03-1.41 9.67-1.15 5.41.3 7.17.84 9.37 2.87 1.5 1.38 3.33 3.96 4.09 5.75.8 1.89 1.37 6.8 1.37 11.75v8.5h23c.86-4.26.82-9.32.47-14s-1.09-10.07-1.65-12c-.55-1.93-2.51-5.75-4.34-8.5-1.84-2.75-5.28-6.43-7.66-8.18s-6.79-4.05-9.82-5.11c-3.03-1.06-8.87-2.17-13-2.48-4.12-.3-9.75-.19-12.5.23-2.75.43-7.92 2.13-11.5 3.78zm244.5-.31c-3.3 1.47-7.74 4.34-9.86 6.37-2.12 2.04-4.87 5.27-6.11 7.2-1.24 1.93-2.8 5.97-3.46 9-.88 3.99-1.12 18.71-.89 53.5l.32 48c3.82 7.75 6.86 11.91 9.22 14.25 2.35 2.34 7.09 5.57 10.53 7.19 3.62 1.71 9.4 3.37 13.75 3.97 5.18.7 9.67.69 14.5-.04 3.99-.6 9.75-2.41 13.39-4.21 3.52-1.74 7.9-4.85 9.75-6.91 1.85-2.06 4.36-5.66 5.59-8 1.95-3.72 2.26-6.02 2.5-18.5L386 290l-22.5-.01c-.93 16.67-1.83 22.85-2.6 24.48-.77 1.63-3.2 3.99-5.4 5.23-2.58 1.46-5.68 2.27-8.75 2.28-2.61.01-6.21-.58-8-1.31-1.79-.74-4.49-2.76-6-4.5L330 313v-44c41.46-.39 54.06-.84 54.75-1.25.95-.57 1.26-6.88 1.27-26 .02-20.64-.27-26.07-1.58-29.75-.88-2.47-2.84-6.3-4.36-8.5-1.52-2.2-5.2-5.62-8.17-7.61-2.98-1.98-7.66-4.31-10.41-5.17-2.75-.85-8.15-1.77-12-2.03-3.85-.26-9.25-.13-12 .3-2.75.42-7.7 1.97-11 3.44zm-90 3.14c-2.75 1.81-6.12 4.45-7.5 5.88-1.37 1.43-3.06 2.59-3.75 2.58-.86-.02-1.25-1.91-1.25-6.03v-6h-34v18h14l-.5 111.5-11.5.5c.02 7.36.35 11.2.76 13.27l.74 3.77L228 339c0-116.32.14-121.23 1.75-123.98.96-1.64 3.32-3.88 5.25-4.97 2.09-1.19 5.41-2 8.25-2.02 2.61-.02 6.1.65 7.75 1.47 1.65.82 3.9 2.96 5 4.75 1.93 3.15 1.99 5.04 2 64V339h39v-17h-15l-.52-108.5c-3.9-9.88-6.37-13.59-9.36-16.52-2.61-2.54-6.36-5.04-8.62-5.73-2.2-.67-6.7-1.19-10-1.15-3.3.03-7.35.54-9 1.12-1.65.59-5.25 2.54-8 4.35zm112 13.96c2.75.3 6.07 1.32 7.38 2.26 1.31.94 3.25 2.84 4.32 4.21 1.72 2.21 1.96 4.35 2.3 34.5l-32.5.5v-15.5c0-11.18.38-16.27 1.38-18.25.76-1.51 2.2-3.43 3.2-4.25 1-.82 3.42-2.07 5.37-2.76 2.06-.73 5.64-1.02 8.55-.71z" style="fill:#feffff"/></svg>