<svg xmlns="http://www.w3.org/2000/svg" viewBox="0 0 225 225" width="225" height="225"><style></style><path id="Path 0" fill-rule="evenodd" d="M70.8 24.99c.38-.01 13.52 4.28 29.2 9.54 16.13 5.4 33.49 11.94 40 15.07 6.32 3.05 15.1 7.93 19.5 10.86 4.4 2.93 10.36 7.85 13.25 10.93 2.89 3.09 6.1 7.52 9.02 14.11l-2.43 3.5c-1.34 1.92-2.75 5.23-3.14 7.35-.68 3.74-.8 3.84-4.46 3.5-3.23-.3-3.51-.17-2 .89.97.68 3.45 1.47 5.51 1.75 2.24.31 4.37.01 5.29-.74.85-.69 1.53-2.49 1.5-4-.02-1.59.59-2.96 1.46-3.25.82-.28 4.54 1.61 8.25 4.18 3.71 2.58 9.69 7.64 13.28 11.25 4.02 4.04 7.78 9.07 9.77 13.07 2.84 5.69 3.23 7.44 3.14 14-.06 4.13-.63 9.52-1.27 11.99-.77 2.95-1.77 4.58-2.92 4.75-1.06.16-2.29-.82-3.14-2.49-.76-1.51-3.23-5.11-5.5-8-2.26-2.89-6.25-6.69-8.86-8.46-2.61-1.76-9.47-5.28-15.25-7.82-5.78-2.53-11.4-4.9-12.5-5.26-1.9-.62-1.91-.59-.13.57 1.03.67 2.83 1.99 6.13 4.65l-2.25.04c-1.24.02-7.43-1.32-13.75-2.97-7.36-1.92-13.75-2.97-24-2.81l9 1.91c5.27 1.11 12.07 3.45 16.4 5.65 4.07 2.06 7.57 4.2 7.78 4.75.21.55-.32 3.03-1.17 5.5-.85 2.47-1.54 5.29-1.53 6.25.01.96 2.94 9.29 6.51 18.5 6.47 16.7 6.49 16.78 6.5 27C178 200 177.81 201.1 176 202c-1.28.64-29.84 1.02-79.25 1.04-72.78.04-77.38-.06-79.56-1.75-1.45-1.12-2.52-3.27-2.88-5.79-.46-3.2.13-5.59 2.97-12 1.95-4.4 4.27-9.8 5.16-12 .88-2.2 1.6-4.22 1.6-4.5-.01-.28-1.99 1.53-4.42 4-2.42 2.47-4.65 4.05-4.95 3.5-.3-.55.32-7.3 1.39-15 1.07-7.7 1.91-14.68 1.86-15.5-.05-.97-.23-1.06-.5-.25-.23.69-1.1 1.25-1.92 1.25-1.25 0-1.5-1.96-1.47-11.75.02-11.53.1-11.91 7.97-29.25l-2.25-.93c-1.24-.51-3.49-1.19-5-1.5-1.51-.31-2.74-1.13-2.73-1.82.01-.69 2.55-3.05 5.64-5.25 3.08-2.2 9.6-7.94 14.48-12.75C37.01 76.94 41 72.55 41 72c0-.63-1.86-.73-5.08-.25-4.54.67-5.01.57-4.43-.94.36-.94 6.02-6.22 24.51-21.81l-10-7c-5.5-3.85-10-7.67-10-8.5 0-.83.34-1.5.75-1.5.41-.01 9.64 1.58 20.5 3.53 10.86 1.94 20.31 3.37 21 3.18.73-.21-.92-2.7-4-6.03-2.89-3.12-5-6.13-4.7-6.68.3-.55.86-1 1.25-1.01zM99.83 96c.58 1.92 1.87 4.29 2.86 5.25 1 .97 3.39 2.13 5.31 2.58 1.92.45 4.96.45 6.75 0 1.79-.46 4.41-2.29 5.83-4.08 1.78-2.24 2.48-4.18 2.25-6.22-.29-2.65-.82-3.07-4.83-3.85-3-.58-5.08-.51-6.25.22-.96.61-2.65.88-3.75.6s-1.89-1.13-1.77-1.89c.13-.77-.54-1.67-1.5-2-.95-.34-1.95-.61-2.21-.61s-1.22 1.46-2.12 3.25c-1.31 2.6-1.42 3.95-.57 6.75z" style="fill:#fff"/></svg>