<svg xmlns="http://www.w3.org/2000/svg" viewBox="0 0 655 442" width="655" height="442"><style></style><path id="Path 0" fill-rule="evenodd" d="m589.5.5 4.5 2.1c2.48 1.15 6.75 4.12 9.5 6.6 2.75 2.47 6.58 7.37 12 17.3L616 384h18c9.9 0 18.67.23 19.5.5 1.25.42 1.5 3.15 1.52 16.25.01 14.32-.21 16.29-2.39 21.75-1.33 3.3-3.92 7.72-5.77 9.82-1.85 2.1-5.38 5.02-12.36 9.18h-613l-4-2.13c-2.2-1.17-5.77-4.09-7.94-6.5-2.16-2.4-4.74-6.17-5.72-8.37-.99-2.2-1.81-5.24-1.82-6.75C2.01 416.24 1.55 415 1 415c-.62 0-1-5.5-1-14.5 0-13.5.14-14.57 2-15.5 1.11-.56 10-1 38-1l.5-357.5 2.31-5c1.27-2.75 4.42-7.16 7-9.81 2.58-2.64 6.27-5.77 8.19-6.95 1.92-1.18 5.3-2.7 7.5-3.38 3.13-.97 60.23-1.2 524-.86zM80 212v172c145.7 0 188.68.23 189.5.5.82.27 1.49 1.06 1.49 1.75-.01.69.85 3.05 1.91 5.25 1.05 2.2 2.97 4.98 4.26 6.18 1.29 1.2 3.58 2.67 5.09 3.25 1.8.7 17.76 1.07 46 1.07 40.24.01 43.49-.12 46.75-1.85 1.93-1.02 4.72-3.61 6.22-5.75 1.49-2.15 2.72-4.8 2.73-5.9.01-1.1.56-2.56 1.23-3.25.96-.98 21.5-1.25 96.02-1.25H576V40H80m331 35.45c4.13.25 10.65 1.44 14.5 2.63 3.85 1.2 8.8 3.34 11 4.75 2.2 1.41 6 4.17 8.45 6.12 2.44 1.95 6.76 6.7 9.59 10.55 3.52 4.79 6.03 9.68 7.95 15.5 2.39 7.22 2.81 10.08 2.76 19-.05 7.95-.6 12.2-2.28 17.5-1.22 3.85-2.95 8.36-3.84 10.02-.9 1.67-3.27 5.27-5.28 8-2 2.74-5.83 6.84-8.5 9.11-2.67 2.26-6.87 5.21-9.35 6.53-2.48 1.33-7.43 3.52-11 4.88-5.62 2.13-8.12 2.46-18.5 2.43-11.97-.04-12.03-.05-22-4.44-8.86-3.89-10.92-5.32-18.02-12.46-4.41-4.44-8.68-9.42-9.5-11.07-.81-1.65-1.77-3.22-2.13-3.5-.36-.28-1.66-3.43-2.89-7-1.47-4.31-2.39-9.86-2.71-16.5-.37-7.77-.07-11.45 1.34-16.5 1.05-3.73 3.72-9.27 6.25-13 2.43-3.58 6.72-8.91 9.54-11.87 2.82-2.95 7.6-6.99 10.62-8.99 3.02-1.99 6.4-4.17 7.5-4.85 1.1-.68 3.57-1.97 5.5-2.86 1.93-.9 5.75-2.26 8.5-3.03 3.15-.88 7.77-1.23 12.5-.95zm-187 9.86c68.32.18 70.62.25 74.44 2.19 2.16 1.1 5.22 3.58 6.79 5.5 2.27 2.77 2.99 4.86 3.46 10 .33 3.68.11 8.02-.5 10-.6 1.92-2.91 5.19-5.14 7.25-2.23 2.06-5.74 4.2-7.8 4.74-2.31.62-30.12 1-72.5 1-43.64.01-70.3-.37-73-1.02-2.34-.56-5.82-2.28-7.75-3.82-2.21-1.76-4.15-4.6-5.26-7.72-.97-2.71-1.75-6.51-1.73-8.43.02-1.92.87-5.3 1.89-7.5 1.01-2.2 3.14-5.24 4.72-6.75 1.59-1.51 4.91-3.4 7.38-4.19 3.77-1.21 15.95-1.42 75-1.25zm-1.5 71.79c67.47-.05 72.25.06 76 1.76 2.2 1 5.35 3.57 7 5.73 2.61 3.4 3.04 4.88 3.32 11.41.29 6.82.06 7.91-2.54 12-1.85 2.92-4.42 5.28-11.78 8.97l-72-.01c-67.88 0-72.23-.11-76-1.85-2.2-1.02-4.99-2.92-6.2-4.23-1.21-1.31-2.91-4.41-3.77-6.88-.86-2.47-1.57-5.62-1.57-7 0-1.37.71-4.53 1.57-7 .87-2.47 2.95-5.85 4.64-7.5 1.68-1.65 4.47-3.53 6.19-4.17 2.29-.86 22.59-1.19 75.14-1.23zm152.75 42.95c.96-.03 3.89 1.02 6.5 2.33 2.61 1.3 6.32 2.71 8.25 3.11 1.93.41 3.95 1.13 4.5 1.6.55.47 4.6 1.22 9 1.68 4.4.46 12.05.44 17-.02 4.95-.47 9.23-1.17 9.5-1.55.27-.39 3.2-1.66 6.5-2.83 3.3-1.17 7.45-2.74 9.22-3.5 2.93-1.25 3.65-1.16 8 .99 2.63 1.29 7.93 4.62 11.78 7.39 3.85 2.77 9.69 7.56 12.97 10.65 3.29 3.08 8.23 8.3 10.99 11.6 2.76 3.3 7.16 9.15 9.8 13 2.63 3.85 4.77 7.56 4.76 8.25-.01.69.32 1.23.73 1.21.41-.02 2.05 2.8 3.65 6.25 1.59 3.46 3.91 8.54 5.15 11.29 1.24 2.75 3.61 9.5 5.27 15 1.66 5.5 3.32 11.8 3.69 14 .37 2.2 1.07 4.45 1.57 5 .49.55 1.19 4.82 1.56 9.5.61 7.97.47 8.9-2.24 14.92-2.01 4.44-4.43 7.75-7.9 10.77-3 2.62-7 4.96-10 5.85-4.25 1.26-18.29 1.48-94 1.48-75.55 0-89.68-.22-93.5-1.47-2.48-.8-6.9-3.61-9.84-6.26-3.28-2.94-6.27-6.81-7.75-10.04-1.87-4.06-2.41-6.95-2.41-12.75 0-4.33.42-7.5 1-7.5.55 0 1-1.01 1-2.25s1.15-6.98 2.56-12.75c1.4-5.77 3.69-13.43 5.07-17 1.38-3.57 4.11-10.1 6.07-14.5 1.95-4.4 3.83-8.23 4.18-8.5.35-.28 1.53-2.22 2.63-4.32 1.09-2.1 4.76-7.5 8.15-12 3.38-4.5 9.23-11.33 13-15.18 3.76-3.85 10.22-9.53 14.34-12.61 4.13-3.09 9.75-6.78 12.5-8.2 2.75-1.43 5.79-2.62 6.75-2.64zM202.5 228.06c43.95-.09 51.62.12 55.5 1.47 2.48.86 5.56 2.56 6.85 3.77s3.26 4 4.38 6.2c1.6 3.16 1.93 5.26 1.54 10-.26 3.3-1.22 7.46-2.13 9.25-.9 1.79-3.29 4.49-8.98 8.75l-110.16.57-4.5-2.32c-3.51-1.82-5.11-3.52-7.27-7.79-1.52-3-2.76-7.03-2.76-8.96.01-1.93.8-5.73 1.77-8.45 1.08-3.05 3.01-5.93 5.01-7.5 1.79-1.4 4.72-3.08 6.5-3.72 2.31-.84 17.94-1.21 54.25-1.27zm-9.25 71.98c29.32-.03 45.7.33 47.5 1.02 1.51.59 4.04 2.28 5.62 3.75 1.58 1.48 3.5 4.15 4.25 5.94.76 1.79 1.39 6.06 1.41 9.5.02 5.32-.4 6.84-2.85 10.25-1.59 2.2-3.74 4.72-4.78 5.61-1.05.88-3.47 2.13-5.4 2.76-2.42.81-16.25 1.16-45 1.17-35.15 0-42.19-.24-46-1.57-2.47-.86-5.57-2.56-6.88-3.77-1.31-1.21-3.21-4-4.23-6.2-1.02-2.2-1.85-6.25-1.85-9s.83-6.8 1.84-9c1.01-2.2 2.69-4.73 3.73-5.62 1.04-.9 3.24-2.34 4.89-3.21 2.61-1.38 8.88-1.6 47.75-1.63z" style="fill:#fff"/></svg>