<svg xmlns="http://www.w3.org/2000/svg" viewBox="0 0 400 604" width="400" height="604"><style></style><path id="Path 0" fill-rule="evenodd" d="M396 0v228l-22.5 24.09-103-.59-.45-95-7.85-8.5c-4.32-4.68-10.29-10.12-13.27-12.11-2.99-1.98-8.36-4.74-11.93-6.14-3.57-1.39-8.97-2.81-12-3.15-3.03-.35-8.2-.18-11.5.37-3.3.54-9.15 2.53-13 4.4-6.77 3.3-7.13 3.66-11.15 11.27-2.28 4.32-5.28 10.56-6.66 13.86-1.38 3.3-4.08 11.4-5.99 18-1.92 6.6-4.41 16.5-5.54 22-1.14 5.5-3.01 17.2-4.18 26-1.73 13.1-2.26 24.33-2.94 62-.45 25.3-.43 52.75.04 61s1.79 22.2 2.92 31 3.22 21.18 4.63 27.5c1.42 6.32 3.67 15.32 5.01 20 1.33 4.68 5.3 14.35 8.82 21.5 3.52 7.15 8.35 15.35 10.72 18.21 2.38 2.87 6.57 6.94 9.32 9.05 2.75 2.1 8.15 4.89 12 6.18 5.6 1.87 8.2 2.22 13 1.73 3.3-.34 7.57-1.06 9.5-1.59 1.93-.54 4.74-1.9 6.25-3.03 2.07-1.54 3.48-4.35 5.67-11.3 1.61-5.09 3.89-13.98 5.06-19.75 1.68-8.28 2.12-13.93 2.08-26.75-.03-8.94-.54-20.64-1.12-26-.59-5.36-2.6-17.4-4.47-26.75-1.88-9.35-4.99-21.95-6.92-28-1.93-6.05-3.52-11.68-3.53-12.5-.02-.82 6.16-7.99 13.73-15.93 7.56-7.94 16.45-16.4 19.75-18.81 3.3-2.41 9.6-5.8 14-7.54 7.67-3.03 8.6-3.16 22.5-3.19 11.64-.01 15.59.35 20 1.87 3.02 1.03 8.43 3.34 12 5.12 3.57 1.78 8.98 5.18 12 7.55 3.02 2.37 7.98 6.81 11.01 9.87 3.02 3.06 7.9 8.71 10.84 12.56 2.93 3.85 7.52 11.5 10.2 17 2.68 5.5 6.1 14.05 7.61 19 2.65 8.7 2.75 9.91 3.11 36.5.36 26.52.28 27.96-2.26 40.5-1.45 7.15-4.63 18.96-7.07 26.25-2.44 7.29-6.46 17.3-8.94 22.25-2.48 4.95-6.36 12.04-8.64 15.75-2.28 3.71-6.49 9.9-9.36 13.75-2.86 3.85-7.81 9.92-10.99 13.5-3.18 3.58-12.59 13.67-20.9 22.44-8.31 8.76-19.84 19.7-25.61 24.3-7.5 5.97-14.65 10.47-25 15.74-7.98 4.05-19.45 9.03-25.5 11.06-6.05 2.03-16.62 4.98-23.5 6.56-12.39 2.85-12.79 2.88-77.5 2.91l-12.5-3.03c-6.87-1.67-16.1-4.2-20.5-5.63-4.4-1.43-12.05-4.52-17-6.86-4.95-2.35-13.28-7.09-18.5-10.55-6.33-4.18-13.68-10.48-22.02-18.86-8.69-8.73-14.78-15.95-19.88-23.58-4.04-6.05-9.48-15.27-12.1-20.5-2.61-5.23-6.88-14.9-9.48-21.5-2.6-6.6-6.26-17.62-8.14-24.5-1.88-6.87-4.74-19.02-6.36-27s-3.95-21.7-5.17-30.5c-2.06-14.76-2.26-20.63-2.6-76C-.11 278.65-.01 274.69 2 260c1.17-8.53 3.03-20.22 4.12-26 1.1-5.78 3.52-16.57 5.38-24 1.85-7.43 5.7-20.25 8.55-28.5 2.85-8.25 7.54-20.18 10.42-26.5 2.89-6.32 8.33-16.68 12.09-23 3.76-6.33 9.57-15.1 12.9-19.5s14.71-17.45 25.28-29 22.27-23.61 25.99-26.79c3.72-3.19 10.82-8.5 15.77-11.8 4.95-3.3 13.5-8.3 19-11.11 5.5-2.81 15.18-6.79 21.5-8.84 6.32-2.06 17.13-5.02 24-6.57 12.11-2.74 13.39-2.83 41-2.86 23.88-.03 29.88.27 37 1.79 4.68 1.01 12.55 3.17 17.5 4.81 4.95 1.65 13.5 5.18 19 7.85 5.5 2.68 13.82 7.38 18.5 10.46 4.68 3.08 8.73 5.6 9 5.59.27 0 13.77-10.34 30-22.98C385.33 2.54 388.9.07 396 0zm-20.62 30.6c-2.21 2.14-6.91 6.04-10.45 8.66-3.54 2.62-9.36 7.03-12.93 9.8-3.57 2.78-8.43 6.48-10.8 8.24-2.36 1.76-5.62 4.21-7.25 5.45-1.62 1.24-3.96 2.26-5.2 2.28-1.24.01-5.04-2.13-8.45-4.75-3.41-2.63-9.94-7.09-14.5-9.92-4.57-2.83-10.1-6.03-12.3-7.11-2.2-1.08-5.35-2.7-7-3.6-1.65-.9-3.79-1.64-4.75-1.64-.96-.01-1.98-.46-2.25-1.01s-1.4-1-2.5-1-2.79-.44-3.75-.97-4.56-1.65-8-2.5c-3.44-.84-7.71-1.52-9.5-1.51-1.79.01-3.83-.56-4.55-1.25-.95-.93-6.16-1.27-19.5-1.27-10.98 0-21.17.54-25.7 1.36-4.12.74-12 2.26-17.5 3.37-5.5 1.11-12.59 3.08-15.75 4.39-3.16 1.31-6.43 2.38-7.25 2.38-.82 0-8.03 3.38-16 7.5-7.97 4.13-16.64 9.07-19.25 10.99-2.61 1.92-11.34 9.68-19.4 17.25-8.05 7.57-14.69 14.1-14.75 14.51-.05.41-2.13 3.45-4.6 6.75-2.47 3.3-4.5 6.22-4.5 6.5 0 .28-2.14 3.81-4.75 7.86-2.61 4.05-6.07 9.56-7.69 12.25-1.62 2.69-4.48 8.49-6.37 12.89-1.89 4.4-5.22 12.5-7.4 18-2.18 5.5-5.01 13.38-6.28 17.5-1.27 4.13-2.86 9.97-3.53 13-.68 3.03-1.61 6.4-2.09 7.5-.47 1.1-1.29 4.47-1.82 7.5-.53 3.03-1.46 7.75-2.07 10.5-.6 2.75-1.42 5.45-1.8 6-.39.55-.99 4.6-1.34 9-.36 4.4-1.11 11.6-1.68 16-.57 4.4-1.57 14.52-2.23 22.5-.77 9.39-1 25.95-.66 47 .29 17.88 1 38.57 1.58 46 .58 7.43 1.5 16.88 2.05 21 .56 4.13 1.47 11.1 2.03 15.5.56 4.4 1.42 10.02 1.92 12.5.5 2.48 1.62 8.32 2.48 13 .86 4.68 2.25 10.19 3.1 12.25.85 2.06 1.55 4.76 1.56 6 0 1.24.58 3.38 1.29 4.75.71 1.38 1.9 5.2 2.66 8.5.75 3.3 1.9 7.13 2.56 8.5.66 1.38 2.38 4.98 3.82 8 1.44 3.02 2.63 5.84 2.64 6.25.01.41 1.18 3.34 2.6 6.5 1.43 3.16 3.01 6.43 3.53 7.25.52.82 1.72 2.79 2.67 4.38.95 1.58 3.71 5.63 6.14 9 2.44 3.36 6.13 8.37 8.22 11.12 2.08 2.75 6.16 7.48 9.07 10.5 2.91 3.02 9.12 8.54 13.79 12.25 4.67 3.71 9.06 7.19 9.75 7.75.69.55 1.59.99 2 .98.41-.02 3.34 1.78 6.5 4 3.16 2.21 6.99 4.31 8.5 4.66 1.51.35 3.88 1.22 5.25 1.95 1.38.72 6.55 2.64 11.5 4.26 4.95 1.63 13.05 3.7 18 4.61 4.95.91 11.03 2.05 13.5 2.54 2.47.48 13.72.88 25 .88s22.53-.39 25-.88c2.47-.48 9.22-1.96 15-3.29 5.77-1.33 13.43-3.6 17-5.05 3.57-1.45 6.84-2.64 7.25-2.65.41 0 2.44-.71 4.5-1.56 2.06-.85 8.29-3.89 13.83-6.75 5.54-2.86 13.62-7.68 17.95-10.7 4.32-3.02 13.29-10.6 19.92-16.84 6.63-6.24 14.76-15.02 18.08-19.5 3.32-4.49 7.39-10.41 9.06-13.16 1.66-2.75 5.3-9.73 8.08-15.5 2.79-5.77 5.74-12.07 6.57-14 .83-1.93 2.52-6.87 3.75-11 1.23-4.12 2.81-10.2 3.51-13.5.7-3.3 1.76-8.02 2.36-10.5.62-2.57 1.1-14.47 1.12-27.75.02-20.18-.26-24.41-2.07-32-1.22-5.13-4.48-13.71-7.87-20.75-4.96-10.28-6.99-13.28-14.16-20.9-4.61-4.89-11.98-11.77-16.38-15.28-4.4-3.51-8.68-6.36-9.5-6.33-.82.02-1.95-.34-2.5-.8s-3.02-1.48-5.5-2.27c-2.48-.78-8.37-1.42-13.1-1.42-5.09 0-9.78.55-11.5 1.34-1.59.74-4.14 1.98-5.65 2.75-1.51.78-3.31 1.42-4 1.44-.69.01-2.6 1.09-4.25 2.4-2.31 1.82-2.92 3.03-2.67 5.22.17 1.57.69 3.75 1.13 4.85.45 1.1 1.54 4.81 2.43 8.25.89 3.44 1.61 7.38 1.61 8.75 0 1.38.34 2.67.75 2.89.41.21 1.08 2.58 1.47 5.25.4 2.67 1.65 10.49 2.79 17.36 1.32 8.03 2.25 19.47 2.6 32 .32 11.3.11 22.65-.49 27-.57 4.13-1.46 9.98-1.98 13-.52 3.02-1.5 7.75-2.18 10.5-.68 2.75-1.63 5.45-2.11 6-.49.55-.88 2.01-.87 3.25.01 1.24-.43 2.48-.98 2.75s-1.23 1.85-1.5 3.5-.95 3-1.5 3-1.53 1.46-2.18 3.25c-.65 1.79-1.44 4.04-1.75 5-.32.97-2.82 4.31-5.57 7.43-2.75 3.12-7.2 7.73-9.88 10.24-2.69 2.52-5.84 5.13-7 5.81-1.17.67-4.37 2.36-7.12 3.74-2.75 1.39-8.15 3.03-12 3.65-3.85.62-11.72.9-17.5.62-9.08-.43-11.51-.95-18-3.81-4.12-1.83-8.85-4.37-10.5-5.65-1.65-1.28-4.94-4.23-7.31-6.55-2.38-2.33-6.73-7.83-9.67-12.23-2.94-4.4-6.69-11.37-8.31-15.5-1.63-4.12-4.14-10.54-5.59-14.25-1.44-3.71-2.61-7.54-2.6-8.5.01-.96-.37-2.2-.84-2.75-.46-.55-1.63-4.6-2.58-9-.96-4.4-2.13-10.02-2.6-12.5-.48-2.48-1.36-7.43-1.97-11-.61-3.57-1.83-11.23-2.72-17-1.24-8.08-1.71-20.65-2.02-54.5-.22-24.2.05-54.35.6-67 .55-12.65 1.7-29.07 2.56-36.5.86-7.43 2.03-15.75 2.6-18.5.58-2.75 1.44-7.03 1.91-9.5.48-2.47 1.81-7.99 2.95-12.25 1.15-4.26 2.09-8.54 2.1-9.5 0-.96.7-3.1 1.55-4.75.86-1.65 2.19-5.25 2.98-8 .78-2.75 2.55-7.25 3.94-10 1.38-2.75 2.51-5.34 2.52-5.75 0-.41 2.59-5.11 5.75-10.45 3.16-5.33 6.88-10.91 8.25-12.39 1.38-1.49 3.18-3.96 4-5.49.82-1.54 5.78-6.07 11-10.07 5.45-4.18 11.63-7.99 14.5-8.95 2.75-.91 5.45-2.04 6-2.5.55-.46 4.38-1.28 8.5-1.83 4.13-.56 11.32-1.01 16-1 4.68 0 10.98.61 14 1.35 3.02.75 7.52 2.33 10 3.51 2.48 1.19 6.35 3.15 8.61 4.36 2.26 1.22 7.16 4.68 10.9 7.71 3.73 3.03 9.34 8.88 12.45 13l5.66 7.5c1.03 68.98 1.61 89.22 1.94 89.5.33.28 16.06.5 34.94.5s34.58-.22 34.89-.5c.31-.28.44-42.53.28-93.9l-.28-93.4" style="fill:#fff"/></svg>