<svg xmlns="http://www.w3.org/2000/svg" viewBox="0 0 340 350" width="340" height="350"><style></style><path id="Path 0" fill-rule="evenodd" d="M125.25.12c.96-.07 2.88.33 4.25.88 1.38.55 4.64 3.18 7.25 5.84 2.61 2.66 5.95 7.05 7.42 9.75 1.48 2.7 3.78 8.29 5.13 12.41 1.35 4.13 3.07 10.42 3.82 14 .93 4.36 1.36 13.07 1.31 26.5-.04 11-.62 26.53-1.28 34.5-.66 7.97-1.67 19.9-2.25 26.5-.59 6.6-1.13 20.55-1.23 31-.1 11.84.33 21.83 1.14 26.5.71 4.13 1.76 9.98 2.32 13 .56 3.02 1.47 7.3 2.03 9.5.55 2.2 1.5 5.8 2.1 8 .61 2.2 1.96 6.02 3.02 8.5 1.06 2.48 2.44 5.62 3.07 6.99.63 1.37 2.84 5.3 4.9 8.75 2.06 3.44 3.52 6.71 3.25 7.26-.27.55-1.53 1-2.8 1-1.26 0-2.73.48-3.25 1.07-.53.59-5.18 1.14-10.45 1.23-6.09.1-10.76-.34-13-1.23-1.93-.76-5.22-3-7.31-4.98-2.1-1.97-4.41-4.94-5.14-6.59-.72-1.65-1.78-4.35-2.34-6-.56-1.65-1.49-5.02-2.06-7.5-.57-2.48-1.32-5.85-1.67-7.5-.62-2.91-.74-2.8-4.15 4-1.93 3.85-3.92 7.11-4.42 7.25-.5.14-.92.81-.93 1.5-.01.69-1.24 2.82-2.73 4.75-1.49 1.93-5.9 6.65-9.81 10.5-4.57 4.51-9.38 8.11-13.52 10.11-3.53 1.71-7.99 3.62-9.92 4.24-1.93.62-7.32 1.13-12 1.13s-10.07-.51-12-1.13c-1.93-.62-4.4-1.46-5.5-1.86-1.1-.41-3.35-1.29-5-1.95-1.65-.67-6.15-3.5-10-6.29-3.85-2.79-8.72-7.14-10.83-9.66-2.1-2.53-4.91-5.94-6.25-7.59-1.33-1.65-2.42-3.56-2.42-4.25s-.34-1.25-.75-1.25-1.38-1.46-2.15-3.25c-.78-1.79-2.19-5.05-3.14-7.25-.95-2.2-2.19-5.35-2.77-7-.57-1.65-1.51-5.25-2.09-8-.57-2.75-1.51-7.14-2.07-9.75-.57-2.61-1.03-10.04-1.04-16.5 0-6.46.69-16.47 1.53-22.25.84-5.78 1.94-12.3 2.44-14.5.5-2.2 1.42-6.03 2.04-8.5.62-2.47 1.82-6.07 2.66-8 .84-1.93 2.93-6.43 4.64-10 1.71-3.57 3.69-7.06 4.4-7.75.72-.69 1.32-1.81 1.34-2.5.02-.69 3.06-4.09 6.75-7.56 3.69-3.47 7.5-6.51 8.46-6.75.96-.24 1.73-.78 1.71-1.19-.02-.41 1.35-1.43 3.04-2.25 1.69-.82 3.05-1.72 3.01-2-.03-.28 4.34-2.7 9.71-5.39 5.38-2.7 11.81-5.5 14.28-6.24 2.47-.74 7.2-1.35 10.5-1.35s7.57.55 9.5 1.21c1.93.66 5.41 2.46 7.75 3.99 2.34 1.53 4.44 2.67 4.68 2.53.23-.14-.02-3.4-.56-7.25S96.46 61.13 95.95 57c-.52-4.12-1.21-11.33-1.54-16-.53-7.63-.35-8.96 1.75-13 1.29-2.47 2.68-4.61 3.09-4.75.41-.14.73-.81.72-1.5-.02-.69 1.33-2.71 3-4.5 1.66-1.79 3.02-3.59 3.02-4-.01-.41 1.9-2.58 4.25-4.82 2.34-2.24 5.39-4.77 6.76-5.62 1.38-.85 3.4-1.78 4.5-2.06 1.1-.29 2.79-.57 3.75-.63zM52.23 109.4c-2.05 2.35-4.37 6.25-5.16 8.68-.79 2.43-1.72 4.87-2.08 5.42-.36.55-1.22 3.7-1.9 7-.69 3.3-1.67 7.91-2.17 10.25-.51 2.34-.92 11.9-.92 21.25s.49 19.36 1.1 22.25c.6 2.89 2.01 9.07 3.14 13.75 1.12 4.68 3.53 11.43 5.34 15 1.81 3.57 4.94 8.3 6.95 10.5 2.47 2.7 5.33 4.53 8.82 5.63 3.94 1.25 6.09 1.41 9.15.67 2.2-.54 5.8-2.23 8-3.75 2.2-1.53 5.59-4.53 7.53-6.67 1.94-2.13 4.92-5.9 6.64-8.38 1.71-2.48 5.37-9.23 8.14-15 2.76-5.77 6.02-13.43 7.24-17 1.91-5.56 2.13-7.73 1.57-15-.35-4.68-.98-11.36-1.38-14.86-.41-3.49-1.08-6.53-1.49-6.75-.41-.21-.76-1.85-.76-3.64-.01-1.79-.24-4.26-.5-5.5-.44-2.03-1.19-1.55-7.74 5.06-3.99 4.02-9.39 8.52-12 10-2.61 1.48-5.2 2.47-5.75 2.19-.55-.28-1.27-3.99-1.61-8.25-.34-4.26-1.19-10-1.9-12.75s-2.07-7.25-3.02-10c-.96-2.75-2.45-6.12-3.33-7.5-.87-1.37-2.5-3.34-3.61-4.36-1.12-1.02-3.04-2.25-4.28-2.75-1.24-.49-3.04-.83-4-.75-.96.07-2.77.33-4.02.56-1.24.24-3.94 2.35-6 4.7zM294 17.7c3.02.31 8.2 1.42 11.5 2.47 3.3 1.05 7.69 3.01 9.75 4.37 2.06 1.35 4.93 3.47 6.36 4.71 1.44 1.24 4.29 4.72 6.33 7.75 2.04 3.03 4.52 7.53 5.51 10 1 2.47 2.22 6.07 2.73 8 .51 1.93 1.57 6.88 2.36 11 .78 4.13 1.43 11.78 1.43 17 .01 5.22-.67 14.45-1.5 20.5-.84 6.05-1.91 12.8-2.39 15-.48 2.2-1.2 5.57-1.59 7.5-.39 1.93-1.38 5.53-2.2 8-.82 2.47-2.12 6.97-2.9 10-.78 3.03-1.82 6.4-2.31 7.5-.49 1.1-1.65 4.03-2.57 6.5-.92 2.47-2.36 6.07-3.19 8-.84 1.93-2.04 4.63-2.67 6-.63 1.38-3.33 6.1-6 10.5s-5.15 8.23-5.51 8.5c-.36.27-1.85 2.07-3.31 4-1.47 1.93-5.29 6.2-8.5 9.5s-8.08 7.84-10.83 10.09-8.49 6.41-12.75 9.25-8.2 5.16-8.75 5.16c-.55 0-1.11.36-1.25.8-.14.43-4.98 3.08-10.75 5.87-5.77 2.8-13.31 6.15-16.75 7.46-5.12 1.94-6.25 2.78-6.25 4.62 0 1.24.41 3.04.92 4s1.81 4.23 2.9 7.25c1.09 3.02 3.43 9.32 5.19 14 1.77 4.68 3.89 10.07 4.71 12 .82 1.93 2.13 4.85 2.91 6.5.78 1.65 1.4 3.34 1.39 3.75-.01.41.93 2.89 2.1 5.5 1.16 2.61 2.7 6.1 3.42 7.75.72 1.65 2.01 5.02 2.87 7.5.86 2.48 1.57 7.09 1.58 10.25 0 3.16-.51 6.76-1.15 8-.64 1.24-2.78 3.72-4.75 5.52-1.97 1.79-4.15 3.26-4.84 3.25-.69-.01-1.25.43-1.25.98s-.9 1-2 1-2.17.34-2.38.75c-.21.41-3.02 1.29-6.25 1.95-3.23.67-7.44 1.44-9.37 1.72-2.43.36-4.13-.01-5.57-1.2-1.14-.95-3.16-3.74-4.5-6.22-1.34-2.48-2.77-4.61-3.18-4.75-.41-.14-.75-.81-.74-1.5.01-.69-.56-2.48-1.25-3.99-.69-1.51-1.6-2.75-2.01-2.75-.41-.01-.74-.57-.74-1.26.01-.69-1.05-3.5-2.35-6.25-1.31-2.75-3.06-6.57-3.9-8.5-.84-1.93-2.08-5.07-2.76-7-.68-1.93-2-5.3-2.94-7.5s-4.52-12.77-7.95-23.5c-3.42-10.73-7.07-22.43-8.09-26-1.02-3.57-2.35-8.41-2.94-10.75l-2.02-8c-.51-2.06-1.38-5.77-1.92-8.25-.54-2.48-1.5-7.2-2.15-10.5-.64-3.3-1.39-7.12-1.67-8.5-.28-1.37-.95-5.2-1.49-8.5s-1.38-9.37-1.88-13.5c-.5-4.12-1.34-14.7-1.88-23.5-.54-8.8-.76-25.45-.49-37 .26-11.55.96-24.15 1.54-28 .59-3.85 1.7-10.04 2.47-13.75.78-3.71 2.11-8.89 2.95-11.5.85-2.61 2.95-7.68 4.67-11.25 1.84-3.83 5-8.24 7.71-10.75 2.52-2.33 5.14-4.24 5.83-4.25.69 0 1.36-.37 1.5-.83.14-.45 3.63-3.07 7.75-5.81 4.13-2.74 9.52-5.92 12-7.07 2.48-1.15 6.07-2.37 8-2.71 1.93-.34 4.18-.18 5 .36 1.19.78 1.44 2.9 1.23 10.27-.15 5.11-.68 10.87-1.17 12.79-.5 1.93-1.4 6.65-2.01 10.5-.61 3.85-1.57 9.47-2.14 12.5-.57 3.03-1.5 7.75-2.07 10.5-.57 2.75-.88 6.13-.68 7.5.31 2.12.79 1.59 3.15-3.5 1.53-3.3 4.67-9.15 6.97-13 2.31-3.85 4.99-7.9 5.98-9 .98-1.1 1.77-2.56 1.76-3.25-.01-.69.32-1.24.73-1.24.41.01 1.48-1.23 2.38-2.75.9-1.52 3.82-5.19 6.5-8.15s5.36-6.11 5.97-7c.6-.89 4.65-4.43 9-7.88 4.34-3.45 8.46-6.71 9.15-7.25.69-.54 3.84-2.19 7-3.67 3.16-1.49 8-3.26 10.75-3.94 2.82-.7 7.4-.99 10.5-.67zm-23.49 41.69c-2.24 2.26-5.92 6.81-8.17 10.11-2.24 3.3-5.25 8.03-6.68 10.5-1.43 2.47-4.14 7.65-6.01 11.5-1.88 3.85-4.37 9.14-5.53 11.75-1.17 2.61-2.11 5.31-2.1 6 .01.69-.39 1.7-.89 2.25-.49.55-1.83 3.7-2.97 7-1.13 3.3-2.95 9.38-4.03 13.5-1.09 4.13-2.72 11.1-3.64 15.5-.91 4.4-2.11 10.7-2.65 14-.54 3.3-1.38 9.38-1.86 13.5-.49 4.13-1.35 14.02-1.92 22-.58 7.98-1.16 15.73-1.3 17.24-.18 1.88.21 2.74 1.24 2.74.82 0 4.65-2.35 8.5-5.22 3.85-2.88 9.21-7.48 11.91-10.24 2.7-2.76 6.07-6.59 7.5-8.52 1.42-1.93 3.21-4.18 3.97-5 .75-.82 2.1-2.74 3-4.26.89-1.52 1.96-2.76 2.37-2.75.41 0 .74-.55.73-1.24-.01-.69.79-2.15 1.79-3.25s4.57-7.62 7.95-14.5c3.37-6.87 6.81-14.07 7.65-16 .84-1.93 2.5-6.43 3.69-10 1.19-3.57 2.53-8.07 2.98-10 .45-1.93 1.52-6.65 2.39-10.5 1.04-4.64 1.57-11.97 1.57-21.75 0-10-.51-16.92-1.59-21.5-.88-3.71-2.3-8.55-3.16-10.75-.86-2.2-2.28-4.8-3.16-5.78-.87-.98-2.27-1.73-3.09-1.67-.82.06-2.15.36-2.95.67-.8.3-3.29 2.41-5.54 4.67z" style="fill:#fdfefd"/></svg>