<svg xmlns="http://www.w3.org/2000/svg" viewBox="0 0 512 512" width="512" height="512"><style></style><path id="Path 0" fill-rule="evenodd" d="M254.25.12c26.93-.09 38.16.24 45.5 1.35 5.36.81 12.9 2.33 16.75 3.37 3.85 1.05 12.4 3.55 19 5.58 6.6 2.02 17.63 6.16 24.5 9.2 6.88 3.04 15.31 7.07 18.75 8.95 3.44 1.89 6.25 3.88 6.25 4.43 0 .55.79 1.02 1.75 1.03.96.02 4.23 1.55 7.25 3.41 3.02 1.85 7.38 5.09 9.68 7.21s4.88 4.41 5.75 5.1c.86.69 2.13.91 2.81.5.82-.5.99-.33.5.5-.49.82 1.74 3.2 6.51 6.96 3.99 3.14 12.2 10.57 18.25 16.52 6.05 5.95 11.34 10.8 11.75 10.79.41-.01 2.55 2.12 4.74 4.73 2.2 2.61 4.01 5.42 4.03 6.25.02.83 1.94 3.88 4.26 6.79s4.78 5.5 5.47 5.75c.69.25 1.25 1.13 1.25 1.96 0 .83 1.24 3.32 2.75 5.54s3.09 4.02 3.5 4c.41-.02 3.46 4.8 6.77 10.71 3.31 5.91 6.56 12.55 7.21 14.75.66 2.2 1.78 4.56 2.48 5.25.71.69 1.29 2.38 1.29 3.75 0 1.38.45 2.5 1 2.5s1.89 2.36 2.99 5.25c1.09 2.89 3.15 9.3 4.57 14.25 1.42 4.95 3.16 10.35 3.87 12 .71 1.65 1.85 5.93 2.53 9.5.68 3.57 1.87 10.55 2.63 15.5.98 6.38 1.38 18.9 1.37 43-.02 29.68-.28 35.46-2.05 45.5-1.12 6.32-2.28 13.07-2.57 15-.29 1.93-1.13 4.85-1.87 6.5-.74 1.65-2.56 7.27-4.04 12.5-1.49 5.23-5.37 15.57-8.62 23-3.26 7.43-8.22 17.55-11.02 22.5-2.81 4.95-6.27 10.16-7.7 11.58-1.42 1.42-3.15 3.79-3.84 5.25-.69 1.47-1.81 3.88-2.5 5.36-.69 1.47-3.39 4.85-6 7.5-2.61 2.64-4.74 5.37-4.73 6.06.01.69-1.56 3.16-3.5 5.5s-3.9 4.25-4.37 4.25c-.47 0-5.66 4.84-11.53 10.75-5.88 5.91-10.68 10.98-10.67 11.25 0 .27-1 1.52-2.22 2.78-1.23 1.25-2.91 2.26-3.73 2.25-.82-.01-3.43 1.66-5.79 3.72-2.37 2.06-4.28 4.31-4.25 5 .02.69-1.2 1.55-2.71 1.92-1.51.37-3.89 1.83-5.29 3.25-1.39 1.42-5.21 4.25-8.5 6.3-3.28 2.04-6.75 3.73-7.71 3.75-.96.01-1.91.59-2.1 1.28-.2.69-4.47 3.39-9.5 6S365.1 490 364 490c-1.1 0-1.98.34-1.96.75.01.41-3.92 2.41-8.75 4.43-4.84 2.02-13.97 5.26-20.29 7.2-6.32 1.94-15.1 4.4-19.5 5.47-4.4 1.07-11.6 2.49-16 3.15-5.62.85-19.46 1.09-46.5.79-35.32-.39-39.29-.61-48-2.64-5.22-1.22-13.1-3.39-17.5-4.83s-8.22-2.93-8.5-3.32c-.28-.38-2.64-.99-5.25-1.35-2.61-.36-10.94-3.38-18.5-6.72-7.56-3.34-16.56-7.61-20-9.5-3.44-1.89-6.25-3.88-6.25-4.43 0-.55-.79-1-1.75-1.01-.96 0-4.56-1.8-8-4-3.44-2.19-6.23-4.33-6.21-4.74.03-.41-3.12-3.11-7-6-3.87-2.89-8.16-5.7-9.54-6.25-1.37-.55-4.08-2.35-6-4s-3.49-3.34-3.47-3.75c.02-.41-4.82-5.6-10.75-11.53s-11.12-10.77-11.53-10.75c-.41.02-2.33-1.88-4.27-4.22-1.94-2.34-3.52-4.93-3.52-5.75 0-.82-1.01-2.52-2.23-3.78-1.23-1.25-2.68-2.29-3.23-2.31-.55-.02-3.98-4.62-7.63-10.22-3.64-5.61-8.9-14.24-11.69-19.19-2.79-4.95-7.73-15.07-10.99-22.5-3.25-7.43-7.13-17.77-8.61-23-1.48-5.23-3.35-10.85-4.16-12.5-.8-1.65-1.45-3.79-1.44-4.75.01-.96-.98-5.46-2.21-10C.64 300.84.55 298.76.52 258c-.02-40.5.09-43.06 2.32-54.5 1.28-6.6 2.94-13.35 3.68-15 .74-1.65 2.57-7.28 4.07-12.5 1.5-5.22 4.26-13.1 6.14-17.5s3.75-8.22 4.14-8.5c.4-.28 1.24-2.3 1.87-4.5.63-2.2 3.87-8.84 7.2-14.75s6.4-10.74 6.81-10.72c.41.02 2.43-2.35 4.48-5.25 2.05-2.9 3.74-6.07 3.75-7.03.01-.96 2.26-3.89 5.01-6.5 2.74-2.61 4.98-5.42 4.97-6.25 0-.83 1.58-3.41 3.52-5.75S62.45 85 63 85c.55 0 3.14-2.33 5.75-5.19 2.61-2.85 4.6-5.66 4.42-6.25-.19-.58.04-.73.5-.33.46.4 4.66-2.76 9.33-7.03 4.67-4.26 10.75-9.52 13.5-11.69s5.22-4.21 5.5-4.53c.28-.32 2.19-1.57 4.25-2.78 2.06-1.21 4.2-3.1 4.75-4.2.55-1.1 3.59-3.56 6.75-5.47 3.16-1.9 6.54-3.48 7.5-3.5.96-.01 1.75-.48 1.75-1.03s2.81-2.54 6.25-4.43c3.44-1.88 11.88-5.91 18.75-8.95 6.88-3.04 17.9-7.18 24.5-9.21 6.6-2.02 15.38-4.57 19.5-5.66 4.13-1.1 10.88-2.56 15-3.25C215.93.67 230.75.2 254.25.12zm-67.5 125.91c-1.24.01-4.95 1.18-8.25 2.61-3.3 1.42-7.07 3.1-8.38 3.72-1.31.63-2.59 1.82-2.84 2.64-.25.82-1.98 4.88-3.86 9-2.93 6.45-3.4 8.58-3.41 15.25-.01 4.26-.35 7.75-.76 7.75-.41 0-.75 40.24-.75 89.42s.35 89.79.78 90.25c.43.45.76 4.32.75 8.58-.02 4.26.31 7.74.72 7.73.41-.01 1.54 1.56 2.5 3.5S165 370.45 165 371c0 .55 1.01 2.41 2.25 4.12 1.74 2.42 2.85 3.04 4.9 2.75 1.46-.2 2.47-.26 2.25-.12-.22.14.16.84.85 1.55.69.72 3.28 2.18 5.75 3.24 4.15 1.79 7.58 1.96 44 2.27 24.1.2 43.98-.1 51-.78 6.32-.61 14.43-1.76 18-2.56 3.57-.8 10.1-2.44 14.5-3.64 4.4-1.21 8.23-2.52 8.5-2.92.27-.4 3.65-2.39 7.5-4.42s8.46-4.77 10.25-6.09c1.79-1.32 3.81-2.42 4.5-2.44.69-.03 3.42-1.94 6.07-4.25 2.65-2.32 5.05-5.11 5.33-6.21.29-1.1 2.43-3.8 4.76-6 2.33-2.2 5.06-5.57 6.06-7.5 1.01-1.93 2.52-4.85 3.37-6.5.85-1.65 2.14-3.56 2.85-4.25.72-.69 1.31-2.15 1.31-3.25s1.01-4.27 2.25-7.04c1.24-2.77 2.59-5.02 3-5 .41.02.95-1.42 1.19-3.21s1.13-6.18 1.97-9.75c.84-3.57 2.28-11.68 3.21-18 1.03-7.06 1.67-17.68 1.66-27.5 0-9.9-.65-20.2-1.69-27-.93-6.05-2.3-13.7-3.06-17-.76-3.3-3-9.82-4.96-14.5-1.97-4.68-3.58-9.51-3.58-10.75.01-1.24-.58-2.59-1.29-3-.72-.41-3.87-4.46-7-9-3.14-4.54-6.15-8.47-6.7-8.75-.55-.28-1-1.4-1-2.5s-.56-1.98-1.25-1.97c-.69.02-2.38-.99-3.76-2.25-1.38-1.25-3.42-2.96-4.54-3.78-1.12-.82-3.03-2.96-4.24-4.75-1.22-1.79-2.89-3.25-3.71-3.25-.82 0-4.43-1.57-8-3.5-3.57-1.93-6.5-3.95-6.5-4.5 0-.55-1.91-1.28-4.25-1.61-2.34-.34-4.7-.99-5.25-1.44-.55-.46-6.4-2.22-13-3.93s-16.21-3.43-21.35-3.82c-5.15-.38-9.54-1.04-9.75-1.45-.22-.41-17.7-.75-38.85-.75-24.6 0-38.65.36-39 1-.3.55-1.56 1.01-2.8 1.03zM254 190.36c20.5.29 24.2.59 29 2.34 3.02 1.11 7.3 2.93 9.5 4.05 2.2 1.13 6.14 3.89 8.75 6.15 2.61 2.25 4.76 4.66 4.77 5.35 0 .69-1.91-.55-8.52-6.75l4 4.21c2.2 2.32 4.34 4.01 4.75 3.75.41-.25 2.11 1.68 3.78 4.29 1.66 2.61 3.87 7 4.9 9.75 1.04 2.75 2.66 8.82 3.61 13.5 1.33 6.57 1.6 11.34 1.16 21-.31 6.88-1.28 15.65-2.16 19.5-.88 3.85-3.02 9.93-4.75 13.5-1.74 3.57-4.76 8.52-6.73 10.98-1.96 2.46-3.41 4.94-3.23 5.5.19.56.06.79-.28.52s-3.64 1.43-7.34 3.78c-3.69 2.36-8.96 5.03-11.71 5.94-3.9 1.28-10.28 1.74-29 2.07-22.86.4-24.2.32-28.25-1.68-2.34-1.16-4.27-2.67-4.29-3.36-.04-.9.45-.83 1.75.25 1.64 1.37 1.68 1.35.54-.25-.69-.96-1.7-1.52-2.25-1.25s-1.68-1.07-2.5-3c-1.27-2.96-1.5-11.51-1.52-55.25-.02-42.75.22-52.36 1.41-55.25.79-1.93 2.49-4.49 3.77-5.69 1.29-1.2 3.47-2.66 4.84-3.24 1.59-.67 11.05-.93 26-.71zm6.5 1.39c5.5-.18 1.23-.33-9.5-.33-10.72 0-15.22.15-10 .33 5.22.18 14 .18 19.5 0zm-41.32 20 .18 8.75c.91-15.5 1.15-20.13 1.12-20.29-.03-.16-.38.4-.77 1.25s-.63 5.48-.53 10.29zm99.56 47.75c.2-2.75.2-7.03 0-9.5-.21-2.47-.38-.22-.38 5 0 5.23.17 7.25.38 4.5zm-99.01 45c.21-2.2.21-6.25.01-9-.21-2.75-.38-.95-.39 4 0 4.95.17 7.2.38 5zm41.77 14.25c6.05-.18 1.32-.33-10.5-.33s-16.78.15-11 .33c5.78.17 15.45.17 21.5 0z" style="fill:#fff"/></svg>