<svg xmlns="http://www.w3.org/2000/svg" viewBox="0 0 600 600" width="600" height="600"><style></style><path id="Path 0" fill-rule="evenodd" d="M298.75.14c18.89-.1 29.68.31 38.5 1.45 6.74.87 17.65 2.69 24.25 4.02 6.6 1.34 17.4 4.04 24 6 6.6 1.95 17.18 5.6 23.5 8.1s17.48 7.53 24.79 11.17c7.31 3.64 13.26 7.07 13.22 7.62-.04.55-4.39 8.88-9.66 18.5-5.27 9.63-9.87 17.87-10.22 18.31-.34.45-5.36-1.52-11.13-4.38-5.77-2.86-15.45-7.19-21.5-9.62-6.05-2.43-14.82-5.53-19.5-6.89-4.68-1.36-13.45-3.6-19.5-4.97-6.05-1.37-16.4-3.23-23-4.12-7.82-1.06-18.96-1.61-32-1.58-11 .02-24.05.54-29 1.17-4.95.62-13.73 2.06-19.5 3.19-5.78 1.14-14.55 3.14-19.5 4.44-4.95 1.31-11.47 3.24-14.5 4.29-3.03 1.05-10 3.79-15.5 6.09-5.5 2.29-14.95 6.78-21 9.96-6.05 3.19-14.82 8.28-19.5 11.31-4.68 3.03-13.45 9.36-19.5 14.07-6.05 4.7-16.86 14.55-24.03 21.89-7.17 7.34-16.44 17.84-20.61 23.34-4.16 5.5-10.05 13.82-13.09 18.5-3.04 4.68-8.26 13.68-11.59 20-3.34 6.32-7.51 15.1-9.27 19.5-1.76 4.4-4.66 12.28-6.44 17.5-1.79 5.22-4.4 14.22-5.81 20-1.41 5.78-3.48 16.8-4.61 24.5-1.56 10.71-2.04 19.11-2.04 35.75-.01 13.84.55 26.03 1.53 33.5.84 6.46 2.63 16.7 3.98 22.75 1.34 6.05 4.41 16.85 6.82 24 2.4 7.15 5.61 15.93 7.13 19.5 1.52 3.57 4.8 10.55 7.29 15.5 2.49 4.95 7.01 13.05 10.05 18 3.03 4.95 9.24 13.95 13.78 20 4.54 6.05 12.97 16.18 29.23 34l-4.88 5.5c-2.69 3.02-9.62 10.45-25.95 27.5l-9.59-10c-5.28-5.5-13.07-14.27-17.33-19.5-4.26-5.23-10.69-13.77-14.29-19-3.6-5.23-8.45-12.65-10.79-16.5-2.34-3.85-7.41-13.3-11.27-21-3.86-7.7-9.14-19.62-11.74-26.5-2.6-6.87-6.15-17.45-7.89-23.5-1.74-6.05-4.26-16.4-5.6-23-1.33-6.6-3.17-18.07-4.07-25.5C.13 324.34-.12 315.6.25 293.5c.41-24.22.82-29.96 3.03-42.5 1.41-7.97 3.53-18.32 4.71-23 1.18-4.68 3.3-12.32 4.71-17 1.41-4.68 4.58-13.68 7.03-20s7.49-17.57 11.21-25c3.71-7.43 9.12-17.32 12.01-22 2.89-4.68 8.24-12.78 11.88-18 3.65-5.22 10-13.55 14.11-18.5 4.11-4.95 12.92-14.4 19.56-21 6.65-6.6 16.34-15.42 21.55-19.59 5.2-4.18 13.73-10.53 18.95-14.13 5.22-3.6 12.65-8.46 16.5-10.8 3.85-2.35 12.63-7.09 19.5-10.54 6.88-3.45 16.32-7.84 21-9.77 4.68-1.92 14.13-5.33 21-7.59 6.88-2.25 18.35-5.42 25.5-7.04 7.15-1.61 17.95-3.62 24-4.46 6.05-.83 12.13-1.7 13.5-1.91 1.38-.22 14.31-.46 28.75-.53zm7.75 47.44c8.25.24 18.82.87 23.5 1.4 4.68.53 14.13 2.08 21 3.44 6.88 1.36 19.48 4.77 28 7.59 8.52 2.81 22.15 8.35 30.27 12.3 13.04 6.35 14.69 7.42 14.09 9.19-.37 1.1-4.99 9.83-10.27 19.39-5.27 9.57-9.93 17.56-10.34 17.75-.41.2-5.14-1.83-10.5-4.51-5.36-2.68-14.25-6.56-19.75-8.61s-14.95-5.01-21-6.58c-6.05-1.56-15.73-3.53-21.5-4.38-6.38-.94-17.56-1.55-28.5-1.55-9.9-.01-21.82.46-26.5 1.04-4.68.58-12.77 1.93-18 3.02-5.22 1.08-15.57 4.03-23 6.56-7.43 2.52-18.34 7.01-24.25 9.98-5.91 2.96-14.69 7.92-19.5 11.01-4.81 3.1-11.68 7.9-15.25 10.68-3.57 2.79-9.87 8.09-14 11.78-4.12 3.7-11.32 11.08-16 16.39-4.68 5.32-11.8 14.47-15.83 20.35-4.03 5.87-10.34 16.75-14.04 24.18-3.69 7.43-8.59 19.13-10.87 26-2.29 6.88-5.35 18.13-6.81 25-2.28 10.71-2.73 15.73-3.17 35-.4 17.8-.16 24.9 1.15 34 .91 6.32 3 16.68 4.64 23 1.64 6.32 4.58 15.77 6.54 21s6.05 14.45 9.1 20.5c3.05 6.05 8.07 14.82 11.15 19.5 3.09 4.68 8.3 11.88 11.58 16 3.28 4.13 9.02 10.76 19.56 22l-2.09 2.75c-1.14 1.51-8 8.97-28.41 30.39l-6.34-6.32c-3.49-3.48-10.06-10.82-14.59-16.32-4.53-5.5-10.74-13.6-13.79-18-3.05-4.4-8.25-12.73-11.56-18.5-3.31-5.77-8.14-15.23-10.73-21-2.6-5.77-6.68-16.35-9.08-23.5-2.39-7.15-5.47-17.95-6.84-24-1.37-6.05-3.25-16.62-4.19-23.5-1.15-8.47-1.69-19.11-1.67-33 .02-15.73.52-23.76 2.15-34.5 1.16-7.7 3.45-19.4 5.07-26 1.61-6.6 4.58-16.72 6.58-22.5 2-5.78 6.9-17.25 10.89-25.5s9.64-18.82 12.56-23.5 9.17-13.68 13.89-20c4.72-6.32 14.44-17.38 21.61-24.56s16.64-15.96 21.03-19.5c4.4-3.54 12.95-9.74 19-13.77 6.06-4.02 17.54-10.61 25.51-14.64 7.97-4.03 20.13-9.35 27-11.84 6.88-2.49 17.9-5.89 24.5-7.56 6.6-1.67 16.5-3.77 22-4.67 5.5-.89 14.73-2.01 20.5-2.47 5.77-.46 17.25-.65 25.5-.41zM509.62 85c.76 0 5.59 4.61 10.74 10.25s12.85 14.75 17.13 20.25c4.27 5.5 10.57 14.28 13.99 19.5 3.42 5.22 8.94 14.45 12.27 20.5 3.32 6.05 8.18 15.72 10.78 21.5 2.61 5.78 6.52 15.45 8.68 21.5 2.17 6.05 5.49 16.63 7.38 23.5 1.88 6.88 4.66 19.47 6.16 28 2.61 14.84 2.73 16.95 2.74 49.5.01 27.85-.31 35.99-1.77 45-.98 6.05-2.92 16.18-4.31 22.5-1.39 6.32-5.22 19.6-8.52 29.5-4.07 12.23-8.83 23.77-14.86 36-4.88 9.9-12.88 24.07-17.77 31.5-4.9 7.43-12.67 18.23-17.28 24-4.6 5.77-12.9 15.17-18.43 20.88-5.53 5.7-14.82 14.48-20.65 19.5-5.83 5.01-15.05 12.3-20.5 16.2-5.44 3.89-14.4 9.79-19.9 13.11-5.5 3.33-15.18 8.64-21.5 11.81s-17.57 8.14-25 11.03c-7.43 2.89-20.02 7.1-28 9.34s-19.68 4.97-26 6.05c-6.32 1.09-15.77 2.5-21 3.13-6.2.75-20.09.98-40 .65-27.15-.44-32.09-.78-45-3.11-7.97-1.43-20.35-4.2-27.5-6.14-7.15-1.94-16.82-4.91-21.5-6.6-4.68-1.69-13.22-5.1-19-7.58-5.78-2.49-13.54-6.04-17.25-7.89-3.71-1.86-7.01-3.94-7.33-4.63-.32-.69 4.07-9.68 9.75-19.98s10.67-18.73 11.08-18.75c.41-.01 7.39 3.08 15.5 6.86 8.11 3.79 20.6 8.78 27.75 11.09 7.15 2.32 17.72 5.27 23.5 6.56 5.78 1.3 15.68 3.15 22 4.11 8.34 1.28 17.54 1.76 33.5 1.76 15.62 0 25.77-.52 35-1.79 7.15-.98 17.73-2.89 23.5-4.23 5.77-1.34 15.45-4.06 21.5-6.03 6.05-1.98 15.95-5.71 22-8.3 6.05-2.59 15.73-7.32 21.5-10.51 5.77-3.18 15-8.86 20.5-12.61s13.82-9.86 18.5-13.57c4.68-3.72 13.37-11.73 19.33-17.81 5.96-6.08 14.13-15.1 18.16-20.05 4.04-4.95 10.8-14.18 15.04-20.5 4.23-6.32 11.45-19.15 16.04-28.5 4.59-9.35 10.35-23.07 12.8-30.5 2.45-7.43 5.66-18.9 7.13-25.5 1.46-6.6 3.33-16.95 4.14-23 .92-6.86 1.48-19.27 1.48-33 0-17.23-.46-25.14-2.13-36.5-1.17-7.98-3.62-20.35-5.46-27.5-1.83-7.15-4.99-17.5-7.02-23-2.03-5.5-6.77-16.3-10.52-24-3.76-7.7-10.29-19.4-14.52-26-4.22-6.6-10.5-15.6-13.96-20-3.46-4.4-9.93-11.94-14.4-16.75-4.46-4.81-8.17-9.21-8.25-9.78-.07-.56 6.28-7.76 14.13-16C501.83 91.74 508.86 85 509.62 85zM305.5 96.68c8.8.26 20.05 1.08 25 1.83 4.95.74 13.5 2.48 19 3.87 5.5 1.38 14.05 3.93 19 5.66 4.95 1.74 14.06 5.59 20.25 8.56 6.93 3.33 11.25 5.98 11.25 6.9 0 .83-4.35 9.49-9.67 19.25s-10.16 18.04-10.75 18.38c-.6.35-5.35-1.38-10.58-3.86-5.23-2.47-13.55-5.84-18.5-7.49-4.95-1.65-12.82-3.88-17.5-4.96-6.15-1.43-13.76-2.12-27.5-2.51-16.5-.46-20.65-.25-31.5 1.61-6.87 1.18-17.23 3.73-23 5.68-5.78 1.94-14.55 5.49-19.5 7.89-4.95 2.39-13.05 7.04-18 10.32-4.95 3.27-12.82 9.3-17.5 13.4-4.68 4.09-11.71 11.23-15.63 15.86-3.92 4.64-9.6 12.25-12.63 16.93-3.02 4.68-7.3 12.1-9.5 16.5-2.21 4.4-5.61 12.72-7.56 18.5-1.96 5.78-4.29 14.1-5.19 18.5-.89 4.4-2 12.5-2.45 18-.45 5.5-.43 16.75.04 25 .57 10 1.68 18.33 3.32 25 1.35 5.5 3.67 13.38 5.15 17.5 1.49 4.13 4.72 11.55 7.18 16.5 2.46 4.95 7.33 13.27 10.83 18.5 3.49 5.23 9.75 13.21 13.9 17.75 5.08 5.56 7.3 8.7 6.79 9.63-.41.76-6.82 7.97-14.25 16.01-7.43 8.05-14.18 14.64-15 14.67-.82.02-4.2-2.8-7.5-6.27-3.3-3.47-8.52-9.45-11.6-13.3-3.08-3.84-8.41-11.26-11.86-16.49-3.44-5.23-8.89-14.9-12.1-21.5-3.22-6.6-7.65-17.4-9.85-24-2.2-6.6-5.25-17.85-6.77-25-2.64-12.33-2.78-14.36-2.8-39.5-.02-23.48.23-27.76 2.2-37.5 1.23-6.05 3.56-15.5 5.19-21 1.63-5.5 4.92-14.72 7.31-20.5 2.39-5.78 7.25-15.62 10.81-21.87 3.56-6.25 10.06-16.15 14.44-22 4.38-5.85 12.27-14.91 17.52-20.13 5.25-5.22 12.91-12.25 17.03-15.62 4.11-3.36 11.76-8.91 16.98-12.32 5.22-3.42 14.9-8.84 21.5-12.05 6.6-3.22 16.05-7.26 21-8.98 4.95-1.73 13.28-4.22 18.5-5.54 5.23-1.33 14.23-3.09 20-3.93 5.77-.83 12.3-1.7 14.5-1.94 2.2-.23 11.2-.21 20 .06zm171 22.16 7.4 7.83c4.07 4.31 9.96 10.98 13.09 14.83 3.13 3.85 8.63 11.28 12.21 16.5 3.59 5.22 8.86 13.78 11.72 19 2.86 5.22 7.14 13.78 9.51 19 2.37 5.22 5.69 13.32 7.37 18 1.68 4.68 3.94 11.43 5.02 15 1.08 3.57 2.88 10.78 4.01 16 1.12 5.22 2.77 14.68 3.66 21 1.06 7.59 1.62 18.81 1.64 33 .02 11.82-.47 25.55-1.07 30.5-.61 4.95-2.05 13.73-3.2 19.5-1.15 5.77-3.42 15.23-5.05 21s-5.2 16.13-7.95 23c-2.74 6.88-7.47 17.23-10.52 23-3.04 5.77-8.91 15.68-13.05 22-4.13 6.32-10.79 15.55-14.8 20.5-4 4.95-13.06 14.63-20.13 21.52-7.07 6.88-18.04 16.39-24.36 21.13-6.32 4.73-15.77 11.19-21 14.35s-13.1 7.55-17.5 9.75-12.73 5.94-18.5 8.3c-5.77 2.36-15.68 5.86-22 7.77-6.32 1.91-16.23 4.4-22 5.52-5.77 1.13-13.65 2.5-17.5 3.05-3.85.54-14.2 1.3-23 1.67-9.92.42-21.51.23-30.5-.51-7.98-.66-20.12-2.31-27-3.67-6.87-1.36-17-3.78-22.5-5.38-5.5-1.59-14.28-4.52-19.5-6.51-5.22-1.99-14.11-5.84-19.75-8.55-5.64-2.72-10.51-5.5-10.83-6.19-.31-.69 3.97-9.35 9.51-19.25 5.54-9.9 10.22-18.45 10.4-19 .17-.55 5.24 1.31 11.24 4.14 6.01 2.83 14.98 6.57 19.93 8.32 4.95 1.74 13.28 4.25 18.5 5.57 5.23 1.33 14.23 3.12 20 3.99 5.77.87 15.68 1.84 22 2.17 6.32.32 17.57.05 25-.59 7.43-.65 19.13-2.34 26-3.75 6.88-1.42 17.68-4.36 24-6.54 6.32-2.19 16.9-6.62 23.5-9.86 6.6-3.24 15.6-8.2 20-11.04 4.4-2.83 11.35-7.68 15.45-10.78 4.1-3.1 12.37-10.36 18.38-16.13s13.96-14.32 17.67-19c3.71-4.68 9.38-12.55 12.59-17.5 3.21-4.95 8.42-14.18 11.57-20.5 3.15-6.32 7.05-15.1 8.68-19.5 1.62-4.4 4.11-12.27 5.53-17.5s3.47-14.9 4.54-21.5c1.07-6.6 2.24-17.4 2.6-24 .36-6.76.15-17.68-.49-25-.63-7.15-2.05-17.73-3.16-23.5-1.11-5.78-4.17-17.03-6.8-25-2.63-7.97-7.55-20.01-10.92-26.75-3.38-6.74-7.79-14.84-9.81-18-2.02-3.16-6.16-9.12-9.2-13.25-3.04-4.12-8.81-11.21-12.83-15.75-4.01-4.54-7.19-8.88-7.05-9.65.14-.77 6.77-8.45 14.75-17.08m-163.25 10.61c4.54-.07 12.64.34 18 .92 5.36.57 14.25 2.11 19.75 3.42 5.5 1.3 12.93 3.47 16.5 4.82 3.57 1.35 10.44 4.32 15.25 6.59 4.81 2.26 8.75 4.46 8.75 4.87 0 .41-4.31 8.85-9.58 18.75-5.27 9.9-9.97 18.45-10.46 19-.57.65-4.15-.47-10.17-3.16-5.11-2.29-12.22-5.05-15.79-6.13-3.57-1.08-10.32-2.53-15-3.23-5.44-.81-12.82-1.05-20.5-.66-6.6.33-14.93 1.26-18.5 2.05-3.57.8-10.55 2.94-15.5 4.75-4.95 1.82-12.71 5.57-17.26 8.34-4.54 2.77-11.51 7.76-15.5 11.09-3.98 3.33-10.29 9.86-14.02 14.5-3.73 4.65-8.97 12.73-11.65 17.95-2.67 5.22-5.98 13.1-7.35 17.5-1.37 4.4-3.05 11.15-3.73 15-.79 4.49-1.07 12.38-.76 22 .35 11.01 1.06 17.26 2.69 23.5 1.22 4.68 4.34 13 6.95 18.5 2.61 5.5 6.57 12.7 8.79 16 2.23 3.3 6.48 8.61 14.84 17.61l-3.57 3.69c-1.96 2.04-8.48 9-14.5 15.48-6.01 6.48-11.61 11.79-12.43 11.79-.82 0-3.54-2.15-6.03-4.78-2.5-2.64-7.25-8.39-10.57-12.79-3.31-4.4-7.65-10.7-9.64-14-2-3.3-5.17-9.37-7.06-13.5-1.9-4.12-4.81-11.55-6.48-16.5-1.67-4.95-4.03-13.95-5.25-20-1.8-8.95-2.21-14.36-2.2-29 .01-13.96.46-20.25 2.01-28 1.1-5.5 2.9-12.93 4-16.5 1.1-3.57 3.64-10.55 5.65-15.5 2-4.95 5.76-12.6 8.35-17s7.22-11.37 10.29-15.5c3.07-4.12 9.6-11.52 14.51-16.42 4.9-4.91 12.52-11.6 16.92-14.86 4.4-3.27 11.15-7.78 15-10.03 3.85-2.25 11.72-6.09 17.5-8.54 5.78-2.44 15.68-5.74 22-7.33 6.32-1.58 15.1-3.26 19.5-3.72 4.4-.46 11.71-.89 16.25-.97zM443.61 156c.77 0 5.53 4.84 10.58 10.75 5.06 5.91 12.14 15.25 15.74 20.75 3.6 5.5 9.28 15.4 12.63 22 3.34 6.6 8.15 18.3 10.67 26 2.53 7.7 5.54 18.84 6.68 24.75 1.15 5.91 2.62 17.39 3.27 25.5.91 11.33.91 17.94 0 28.5-.65 7.56-2.07 18.36-3.16 24-1.09 5.64-3.28 14.52-4.87 19.75-1.59 5.23-4.29 12.99-6.02 17.25-1.72 4.26-4.99 11.46-7.27 16-2.28 4.54-6.23 11.63-8.78 15.75-2.55 4.13-7.55 11.32-11.09 16-3.55 4.68-9.84 12.05-13.97 16.38-4.14 4.34-11.34 11.14-16.02 15.12-4.68 3.98-13 10.29-18.5 14.03-5.5 3.73-16.3 9.87-24 13.62-7.7 3.76-19.4 8.6-26 10.75-6.6 2.16-16.73 4.83-22.5 5.95s-15.68 2.57-22 3.21c-7.15.73-17.18.93-26.5.51-8.25-.36-20.18-1.56-26.5-2.65-6.32-1.09-16.22-3.37-22-5.06-5.78-1.69-12.75-3.95-15.5-5.01-2.75-1.06-9.42-4.05-14.82-6.64-8.4-4.03-9.74-5-9.26-6.71.31-1.1 4.96-9.82 10.32-19.39 5.37-9.56 10.1-17.55 10.51-17.75.41-.2 4.46 1.41 9 3.57s11.85 5.13 16.25 6.6c4.4 1.47 11.94 3.53 16.75 4.57 4.81 1.05 14.49 2.39 21.5 2.98 9.13.77 16.09.77 24.5 0 6.46-.59 16.14-2.03 21.5-3.19 5.36-1.16 13.57-3.47 18.25-5.12s12.77-5.15 18-7.77c5.23-2.62 13.77-7.6 19-11.06 6.25-4.15 13.8-10.61 22.04-18.87 7.8-7.82 14.96-16.16 18.96-22.07 3.53-5.23 8.76-14.23 11.62-20 2.86-5.77 6.54-14.55 8.18-19.5 1.64-4.95 4.01-13.73 5.25-19.5 1.9-8.77 2.28-13.62 2.32-29.5.04-15.6-.34-20.97-2.13-30-1.19-6.05-3.81-15.72-5.81-21.5-2.01-5.78-5.67-14.55-8.15-19.5-2.47-4.95-6.87-12.6-9.78-17-2.91-4.4-8.48-11.71-12.39-16.25-7.01-8.13-7.09-8.28-5.36-10.5.96-1.24 7.54-8.44 14.61-16 7.08-7.56 13.49-13.75 14.25-13.75zM410 192.02c.82-.02 4.43 3.38 8 7.56 3.57 4.18 8.92 11.27 11.88 15.76 2.96 4.49 7.32 12.21 9.69 17.16 2.37 4.95 5.65 13.05 7.3 18 1.64 4.95 3.72 12.6 4.61 17 .89 4.4 2.1 12.73 2.69 18.5.59 5.77.82 15.45.51 21.5-.31 6.05-1.52 15.73-2.7 21.5-1.18 5.77-3.28 14.1-4.67 18.5-1.39 4.4-4.64 12.5-7.22 18s-7.79 14.73-11.59 20.5c-4.8 7.31-10.56 14.16-18.95 22.54-7.65 7.64-15.52 14.35-21.55 18.37-5.23 3.48-13.77 8.47-19 11.08-5.23 2.61-12.87 5.9-17 7.31-4.12 1.4-11.1 3.46-15.5 4.57-4.4 1.11-12.95 2.55-19 3.2-6.22.67-16.65.95-24 .64-7.15-.3-17.73-1.51-23.5-2.69s-13.87-3.28-18-4.66c-4.12-1.38-11.21-4.27-15.75-6.43-4.54-2.16-8.25-4.49-8.25-5.18-.01-.69 4.54-9.35 10.1-19.25s10.29-18.23 10.51-18.5c.22-.27 3.43.93 7.14 2.67 3.71 1.74 9.68 4.06 13.25 5.14 3.57 1.08 9.88 2.52 14 3.2 4.84.8 12.81 1.04 22.5.7 11.87-.43 16.88-1.07 24-3.08 4.95-1.4 13.95-5.02 20-8.05 6.05-3.03 13.93-7.72 17.5-10.43 3.57-2.7 9.65-8.23 13.51-12.28 3.85-4.05 8.94-10.3 11.3-13.87 2.36-3.57 6.05-10.1 8.19-14.5 2.14-4.4 5.13-12.05 6.65-17 2.6-8.51 2.76-10.09 2.8-29 .05-18.03-.18-20.84-2.31-28.5-1.3-4.68-4.71-13.45-7.57-19.5-3-6.32-8.06-14.73-11.9-19.75-3.67-4.81-6.56-9.39-6.42-10.17.14-.78 6.32-7.96 13.75-15.97 7.43-8.01 14.18-14.57 15-14.59zM299.75 214.1c6.33-.06 14.2.52 18 1.32 3.71.79 9.9 2.61 13.75 4.06 3.85 1.44 10.15 4.59 14 7 3.85 2.41 9.48 6.59 12.5 9.28 3.02 2.69 7.69 7.78 10.36 11.32 2.68 3.53 6.56 9.8 8.64 13.92 2.07 4.13 4.78 10.88 6.01 15 1.47 4.89 2.43 11.33 2.77 18.5.32 6.66.03 14.16-.74 19-.69 4.4-2.66 11.82-4.36 16.5-1.71 4.68-5.18 11.65-7.71 15.5-2.53 3.85-7.28 9.87-10.54 13.39-3.26 3.51-8.63 8.32-11.93 10.68-3.3 2.36-9.6 5.95-14 7.99-4.4 2.03-11.37 4.54-15.5 5.58-5.44 1.36-11.07 1.88-20.5 1.88-9.86 0-14.93-.5-21-2.07-4.4-1.13-12.05-4.02-17-6.43-4.95-2.4-11.93-6.8-15.5-9.77-3.57-2.98-8.59-7.85-11.14-10.83-2.55-2.98-6.42-8.35-8.59-11.92-2.18-3.57-5.12-9.43-6.54-13-1.42-3.57-3.35-10.32-4.29-15-1.3-6.48-1.57-11.35-1.14-20.5.31-6.6 1.29-14.7 2.19-18 .89-3.3 3.82-10.5 6.51-16 3.21-6.58 7.22-12.74 11.72-18 3.76-4.4 9.75-10.08 13.31-12.63 3.56-2.55 9.62-6.2 13.47-8.12 3.85-1.91 8.8-4.06 11-4.79 2.2-.72 6.48-1.86 9.5-2.53 3.02-.67 10.56-1.27 16.75-1.33zm-34.25 13.34c-3.85 1.85-10.36 6-14.46 9.21-4.1 3.22-9.87 8.78-12.83 12.35-2.95 3.57-7.3 10.55-9.67 15.5-2.37 4.95-5.12 11.93-6.12 15.5-1.33 4.77-1.81 9.96-1.8 19.5.01 9.29.52 14.86 1.79 19.5.97 3.57 3.22 9.65 4.99 13.5 1.77 3.85 5.05 9.7 7.29 13 2.24 3.3 6.71 8.5 9.94 11.55 3.23 3.06 8.12 7.08 10.87 8.95 2.75 1.87 8.15 4.83 12 6.58 3.85 1.75 10.15 4 14 5 4.86 1.27 10.67 1.82 19 1.83 9.25.01 13.89-.49 20.25-2.2 4.54-1.21 11.06-3.61 14.5-5.33 3.44-1.71 8.95-5.05 12.25-7.41 3.3-2.36 8.54-6.92 11.65-10.13 3.11-3.21 7.22-8.32 9.13-11.34 1.91-3.02 4.61-8.2 6-11.5 1.39-3.3 3.35-8.7 4.35-12 1.38-4.55 1.82-9.27 1.82-19.5-.01-10.94-.43-14.97-2.23-21.25-1.22-4.26-3.63-10.56-5.35-14-1.73-3.44-4.52-8.27-6.22-10.75-1.69-2.47-4.9-6.47-7.12-8.88-2.21-2.41-6.51-6.31-9.53-8.66-3.02-2.35-9.1-6.09-13.5-8.32-4.4-2.23-11.6-4.98-16-6.11-6.09-1.56-10.99-2.04-20.5-1.99-9.09.05-14.55.61-20 2.05-4.12 1.09-10.65 3.49-14.5 5.35zm34 57.6c.55-.01 2.57.39 4.5.9 1.93.51 4.96 2.53 6.75 4.49 1.79 1.96 3.53 5.03 3.88 6.82.44 2.24 0 4.64-1.42 7.75-1.13 2.48-3.33 5.36-4.88 6.41-1.84 1.24-4.59 1.92-7.83 1.93-3.37.01-5.87-.61-7.67-1.91-1.46-1.06-3.37-3.17-4.25-4.68-.87-1.51-1.58-5-1.58-7.75 0-3.69.62-5.82 2.34-8.13 1.29-1.73 3.88-3.73 5.75-4.46 1.88-.73 3.86-1.35 4.41-1.37z" style="fill:#fefefe"/></svg>