<svg xmlns="http://www.w3.org/2000/svg" viewBox="0 0 207 239" width="207" height="239"><style></style><path id="Path 0" fill-rule="evenodd" d="m157.5.93 2.94 2.29c1.61 1.25 12.54 13.53 45.64 52.28l-.07 8c-.03 4.4-.51 12.5-1.05 18s-1.67 18.1-2.52 28c-.84 9.9-1.92 20.7-3.26 30L173.91 164c-13.89 13.47-26.87 25.75-32.41 30.07l-58-.1-7.58 6.77c-4.17 3.72-14.89 13.51-23.82 21.76-8.93 8.25-17 15.17-17.92 15.38-1.53.34-1.61-.61-.94-10.5.41-5.99 1.17-15.6 1.7-21.38.53-5.78.75-10.84.51-11.25-.25-.41-6.64-.76-14.2-.77-11.52-.02-14.1-.31-15.88-1.75-1.18-.95-2.69-2.85-3.37-4.23-.95-1.93-.98-4.78-.14-12.5.6-5.5 1.81-18.55 2.68-29 .87-10.45 2.24-26.2 3.05-35 .81-8.8 1.91-21.62 2.45-28.5.54-6.87 1.22-14.3 1.5-16.5.29-2.2 1.19-12.1 2-22S15.4 22.23 15.87 17c.47-5.22 1.48-10.5 2.24-11.72.77-1.23 2.29-2.66 3.39-3.19 1.21-.58 28.51-1 136-1.16zM52.58 42.54c-.82 1.12-1.91 6.67-2.54 12.96-.61 6.05-1.78 18.65-2.61 28-.83 9.35-2.18 24.42-3 33.5-.83 9.08-1.76 20.1-2.07 24.5-.41 5.79-.2 8.65.78 10.36.75 1.3 2.6 2.99 4.11 3.75 2.2 1.11 10.5 1.39 41.75 1.39h39c26.54-25.19 34.64-33.29 35.12-34.25.48-.96 1.33-6.14 1.87-11.5.55-5.36 1.51-15.6 2.14-22.75.63-7.15.87-14.12.54-15.5-.33-1.37-6.24-9.02-13.13-17-6.9-7.98-13.78-15.29-15.29-16.24-2.5-1.59-6.34-1.75-41.75-1.72-29.36.02-39.55.34-41.25 1.29-1.23.69-2.88 2.13-3.67 3.21zM104.05 56c6.3 0 11.16.42 11.45 1 .28.55-.41 11.69-1.52 24.75s-2.38 25.1-3.62 29.75l-10.68.25c-9.32.22-10.79.03-11.58-1.5-.52-1.03-.52-5.85.02-11.75.51-5.5 1.64-16.94 2.52-25.42.87-8.49 1.79-15.8 2.03-16.25.23-.46 5.36-.83 11.38-.83zm-5.73 62.02c5.05 0 9.85.43 10.68.95 1.22.77 1.39 2.56.92 9.73-.32 4.84-.88 9.36-1.25 10.05-.47.88-3.89 1.25-11.67 1.25-6.33 0-11.21-.42-11.5-1-.28-.55-.18-4.94.21-9.75.43-5.26 1.26-9.25 2.07-10 .89-.81 4.57-1.24 10.54-1.23z" style="fill:#feffff"/></svg>