<svg xmlns="http://www.w3.org/2000/svg" viewBox="0 0 79 76" width="79" height="76"><style></style><path id="Path 0" d="M28 1.59c-3.02.81-7.98 2.97-11 4.82-3.02 1.84-7.2 5.54-9.27 8.22-2.26 2.91-4.63 7.69-5.89 11.87C.14 32.11-.18 35.19.21 42c.3 5.04 1.34 10.74 2.57 14 1.19 3.13 3.94 7.45 6.4 10.04 2.38 2.49 6.57 5.63 9.32 6.98 3.54 1.74 7.19 2.56 12.5 2.85 5.46.28 9.12-.12 13.47-1.49 4.08-1.28 7.56-3.33 11-6.46 3.11-2.84 5.95-6.66 7.43-10 1.8-4.06 2.4-7.18 2.38-12.42-.01-4.76-.64-8.44-1.99-11.5-1.08-2.48-3.09-5.85-4.46-7.5-1.37-1.65-4.7-4.08-7.41-5.4-4.14-2.02-6.05-2.33-12.08-2-6.18.35-7.67.82-11 3.49-2.11 1.7-4.76 4.4-5.88 6-1.12 1.6-2.36 4.82-2.75 7.16-.39 2.34-.27 6.39.27 9 .54 2.61 2 6.07 3.25 7.68 1.25 1.61 3.73 3.52 5.52 4.25 1.79.72 5.27 1.32 7.75 1.32 2.62 0 5.6-.73 7.13-1.75 1.45-.96 3.25-2.99 4-4.5.75-1.51 1.37-4.1 1.37-5.75 0-1.67-.89-3.89-2-5-1.1-1.1-2.67-2-3.5-2-.82 0-2.46 1.01-3.63 2.25-1.64 1.74-1.98 2.99-1.5 5.5.47 2.4.24 3.38-.87 3.75-.83.27-2.24.16-3.14-.25-.9-.41-2.25-1.99-3-3.5S30 42.65 30 41c0-1.7 1.02-4.2 2.34-5.75 1.29-1.51 3.65-3.35 5.25-4.09 2.18-1.01 3.79-1.08 6.41-.31 1.92.56 4.74 2.4 6.25 4.09 1.51 1.68 3.2 4.86 3.75 7.06.55 2.2.71 5.24.36 6.75-.35 1.51-1.48 4.44-2.5 6.5-1.16 2.33-3.47 4.66-6.11 6.15-2.34 1.32-5.6 2.7-7.25 3.05-1.65.36-5.25.09-8-.59-3.68-.91-6.21-2.45-9.57-5.8-3.13-3.11-5.15-6.3-6.39-10.06-1.26-3.8-1.66-7.2-1.31-11 .28-3.02 1.41-7.3 2.52-9.5s4.09-5.91 6.63-8.25c3.22-2.96 6.36-4.74 10.37-5.86 3.88-1.08 7.22-1.38 10.25-.9 2.48.38 6.75 1.74 9.5 3.02s6.77 4.28 8.94 6.66 4.86 6.35 5.98 8.83c1.48 3.27 2.03 6.56 2.02 12-.01 5.92-.59 8.81-2.73 13.75C65.22 60.19 64 64.35 64 66c0 2.21.46 2.99 1.75 2.96.96-.02 3.11-1.48 4.78-3.25 1.67-1.77 4.09-5.91 5.38-9.21 1.29-3.3 2.57-9.15 2.85-13 .3-4.01-.02-9.35-.74-12.5-.7-3.02-2.67-8.16-4.39-11.4-1.72-3.25-5.49-8.08-8.38-10.75-4.01-3.71-6.84-5.33-12-6.87C49.23.77 43.87-.01 40 .04c-3.58.05-8.98.75-12 1.55z" style="fill:#fefefe"/></svg>