<svg xmlns="http://www.w3.org/2000/svg" viewBox="0 0 70 71" width="70" height="71"><style></style><path id="Path 0" d="M21.25 2.56c-4.22 1.96-5.2 2.87-5 4.63.18 1.58 1.23 2.44 3.75 3.09 1.92.49 4.96.74 6.74.56 1.79-.19 3.25-.23 3.25-.09.01.14-2.46 2.73-5.49 5.75-3.03 3.02-5.5 6.4-5.5 7.5 0 1.1-.34 1.87-.75 1.72-.41-.16-2.02-.94-3.57-1.75-2.13-1.11-3.23-1.2-4.5-.36-1.3.86-1.68 2.65-1.68 8v6.89c8.52.8 11.12 1.63 11.83 2.57.64.87 1.54 4.69 2 8.5.48 4.05 1.62 8.07 2.75 9.68 1.05 1.51 1.58 2.74 1.17 2.74-.41-.01-3.67-2.47-7.25-5.47-3.58-3-7.85-5.7-9.5-6-1.65-.3-3.34-.54-3.75-.53-.41 0-.75.91-.75 2.01 0 1.1.87 3.01 1.94 4.25 1.07 1.24 2.75 3.17 3.75 4.3 1 1.12 3.39 3.13 5.31 4.45 1.92 1.33 5.75 3.22 8.5 4.21 2.99 1.07 7.81 1.8 12 1.8 4.72.01 9.09-.72 13.42-2.25 3.91-1.38 8.22-3.86 11-6.36 2.52-2.25 5.71-6.17 7.08-8.71 2.04-3.78 2.26-4.86 1.21-5.91-1.06-1.04-2.53-.03-8 5.51-3.69 3.74-7.27 6.78-7.96 6.75C52.56 60.02 52 59.1 52 58s.45-2.22 1-2.5c.55-.28 1-1.62 1-3 0-1.37.45-2.72 1-3 .55-.28 1-2.08 1-4 0-3.37-.16-3.52-4.25-4.03-2.34-.29-5.09-1.08-6.11-1.75-1.22-.8-1.66-1.91-1.29-3.22.32-1.1 1.94-3.91 3.61-6.25 2.67-3.73 3.44-4.21 6.29-3.9 1.79.19 5.28.95 7.75 1.67 2.47.73 5.29 1.02 6.25.65S70 26.99 70 25.75c-.01-1.24-.91-3.71-2-5.5-1.1-1.79-2.81-3.25-3.8-3.25-.99 0-2.3.56-2.92 1.25-.87.98-1.35.76-2.2-1-.78-1.62-1.85-2.19-3.83-2.05-1.51.11-3.31-.11-4-.5-.69-.38-1.25-1.6-1.25-2.7s.9-3.12 2-4.5c1.1-1.37 1.78-3.17 1.5-4C53.22 2.67 52.1 2 51 2s-2.22-.45-2.5-1C48.21.42 43.48.03 37.25.06c-9.22.05-11.5.41-16 2.5zM.79 30.7C.46 33.34.37 35.84.6 36.25c.22.41 1.53.75 2.9.75 2.38 0 2.49-.25 2.25-5.25-.21-4.44-.57-5.3-2.31-5.55-1.77-.26-2.14.37-2.65 4.5z" style="fill:#fdfdfe"/></svg>