<svg xmlns="http://www.w3.org/2000/svg" viewBox="0 0 264 52" width="264" height="52"><style></style><path id="Path 0" fill-rule="evenodd" d="M70.96 1h5.9l-.31 22.75c-.17 12.51-.37 23.54-.43 24.5-.08 1.2-.83 1.67-4.62 1.25l-.27-24.25M226.5 5c2.3 0 2.5.37 2.5 4.5 0 4.36.1 4.51 3.25 4.75 2.54.2 3.3.74 3.5 2.5.22 1.95-.21 2.25-6.75 2.25v26h4c3.78 0 4 .17 4 3 0 2.76-.28 3-3.5 3-1.93 0-4.51-.51-5.75-1.14-1.24-.62-2.48-1.33-2.75-1.58-.27-.24-.73-6.82-1.5-28.78l-2.75-.25c-2.2-.2-2.7-.7-2.5-2.5.18-1.65.98-2.32 3-2.5 2.56-.23 2.75-.57 2.75-4.75 0-4.13.2-4.5 2.5-4.5zM28 11.29c2.92.18 3.76.78 5.14 3.71.91 1.93 1.95 5.97 2.31 9 .36 3.03.31 8.43-.11 12-.68 5.89-1.16 6.9-5.05 10.75C26.06 50.94 25.9 51 19 51c-3.85 0-8.01-.54-9.25-1.19-1.24-.66-3.07-1.9-4.08-2.75-1-.86-2.47-2.8-3.25-4.31C1.64 41.24 1 37.3 1 34s.56-7.14 1.25-8.53c.69-1.39 2.04-2.51 3-2.5C6.68 22.99 7 23.92 7 28c0 3 .4 4.8 1 4.5.55-.28 1-1.62 1-3 0-1.37.9-4.07 2-6 1.1-1.93 3.46-4.96 5.25-6.75s4.38-3.8 5.75-4.46c1.38-.66 4.07-1.11 6-1zm27 1.82c1.92-.01 5.04.75 6.93 1.69 1.89.93 4.22 3.05 5.18 4.7 1.02 1.75 1.77 5.19 1.89 13.5H57c-10 0-12 .25-12 1.5 0 .82.53 2.51 1.18 3.75.65 1.24 2.23 3.26 3.5 4.5 1.68 1.63 3.5 2.24 6.57 2.23 3.04-.02 4.88-.66 6.48-2.25 1.44-1.44 2.78-1.96 3.75-1.48.84.41 1.53 1.31 1.55 2 .02.69-.77 2.24-1.75 3.46-.98 1.21-2.57 2.23-3.53 2.25-.96.02-1.97.49-2.25 1.04s-2.3 1-4.5 1-4.22-.45-4.5-1c-.28-.55-1.17-1-2-1-.83 0-2.88-1.46-4.58-3.25-1.69-1.79-3.29-4.37-3.56-5.75-.27-1.37-.68-3.51-.92-4.75-.24-1.24-.19-4.61.11-7.5.43-4.07 1.28-6.04 3.77-8.75 1.77-1.93 4.11-4.04 5.2-4.69 1.09-.66 3.56-1.2 5.48-1.2zm-9.12 12.97c.07.5 1.13.98 2.37 1.04 1.24.07 5.29.3 9 .5 3.71.21 6.96.04 7.21-.37s-.88-2.44-2.5-4.5C59.44 19.56 58.42 19 55.08 19c-3.12 0-4.46.62-6.61 3.08-1.49 1.69-2.65 3.49-2.59 4zm47.62-13c1.1-.07 3.69.56 5.75 1.4 2.06.83 4.65 2.87 5.75 4.52 1.39 2.09 2 4.67 2 14H95c-11 0-11.95.15-11.39 1.75.34.96.87 2.65 1.17 3.75.31 1.1 1.72 3.01 3.14 4.25 1.61 1.4 3.9 2.25 6.08 2.26 1.93.01 4.73-.56 6.24-1.25 1.51-.69 2.75-1.6 2.75-2.01.01-.41.69-.75 1.51-.75.82 0 1.72.45 2 1s.28 1.9 0 3-2.3 2.9-4.5 4-5.35 2-7 2c-1.65 0-4.91-.89-7.25-1.97-2.71-1.25-5.05-3.33-6.47-5.75-1.79-3.06-2.22-5.35-2.25-12.03-.02-4.86.38-8.25.97-8.25.55 0 1-.68 1-1.5s1.01-2.51 2.25-3.75c1.24-1.24 3.6-2.76 5.25-3.39 1.65-.63 3.9-1.21 5-1.28zM84.68 25.5c-.61 1.88-.15 2.02 7.58 2.27 4.53.16 8.84-.07 9.58-.5 1.13-.64 1.13-1.17 0-3.23-.74-1.36-1.9-3.04-2.59-3.75s-3.16-1.26-5.5-1.23c-3.02.04-4.85.7-6.33 2.25-1.14 1.21-2.37 3.09-2.74 4.19zM124 13.05c1.38-.01 3.97.53 5.76 1.21 1.8.68 3.26 1.58 3.25 1.99 0 .41.55.76 1.24.76.69.01 3.16-.89 5.5-2 2.34-1.1 5.04-2.02 6-2.03.96-.01 3.32.53 5.25 1.19 1.93.66 3.96 1.68 4.51 2.26.56.59 1.57 2.31 2.25 3.82.68 1.51 1.29 4.21 1.36 6 .12 3.16.15 3.13 1.25-1.02.62-2.35 1.47-4.26 1.88-4.25.41.01.75-.66.75-1.48s1.91-2.62 4.25-3.98c2.34-1.36 5.71-2.49 7.5-2.5 1.79-.01 4.82.77 6.74 1.73s4.38 3.32 5.47 5.25c1.17 2.08 1.99 5.42 2.04 13h-12c-10 0-12 .25-12 1.5 0 .82.64 2.74 1.42 4.25.78 1.51 2.36 3.54 3.5 4.5 1.28 1.08 3.72 1.74 6.33 1.73 3.04-.02 4.88-.66 6.48-2.25 1.44-1.44 2.78-1.96 3.75-1.48.84.41 1.53 1.31 1.55 2 .02.69-.77 2.16-1.75 3.27-.98 1.12-3.02 2.58-4.53 3.25-1.51.68-4.32 1.23-6.25 1.23-1.93 0-4.51-.52-5.75-1.16-1.24-.64-3.72-2.78-5.52-4.75-1.83-2.01-3.52-5.13-3.83-7.09-.31-1.93-.72-3.95-.9-4.5-.19-.55-.38 2.94-.5 16.5l-5.5-.5-.25-13c-.16-8.04-.73-13.87-1.5-15.28-.99-1.81-2.1-2.27-5.36-2.25-3.15.02-4.74.67-6.79 2.78-1.47 1.51-2.73 3.88-2.8 5.25-.07 1.38-.21 5.65-.31 9.5-.11 3.85-.26 8.46-.34 10.25-.13 2.76-.53 3.25-5.15 3.25V36c0-11.11-.31-14.31-1.5-15.5-.82-.82-3.07-1.5-5-1.5-2.51 0-4.28.79-6.25 2.8-1.51 1.54-3.09 4.36-3.51 6.25-.42 1.9-.76 7.61-.75 12.7.01 9.2 0 9.25-4.99 9.25V14h2.5c1.57 0 2.44.53 2.33 1.41-.13 1.13.63 1.03 3.75-.46 2.16-1.03 5.05-1.88 6.42-1.9zm41.88 13.03c.07.5 3.94.92 8.62.92 7.42 0 8.5-.22 8.53-1.75.01-.96-1-2.75-2.25-3.98-1.51-1.47-3.52-2.24-5.95-2.25-2.86-.02-4.26.66-6.36 3.06-1.49 1.69-2.65 3.49-2.59 4zM206 13.07c1.93-.03 4.96.84 6.75 1.93 2.21 1.36 3.57 3.2 4.25 5.75.55 2.06.89 9.38.75 16.25-.24 12.14-.32 12.51-2.5 12.75-2.22.25-2.25.09-2.5-13.15-.22-11.81-.49-13.65-2.25-15.53-1.22-1.31-3.16-2.11-5-2.07-1.65.03-3.68.61-4.5 1.28-.82.67-2.18 2.08-3 3.12-1.07 1.36-1.64 5.37-2 14-.48 11.64-.59 12.11-5 12.6V14h2.5c1.71 0 2.5.55 2.52 1.75 0 1.01.32 1.32.75.72.4-.56 1.86-1.54 3.23-2.18 1.38-.64 4.07-1.18 6-1.22zm44.25-.01c2.06-.03 5.44.78 7.5 1.8 2.06 1.02 4.09 2.59 4.5 3.5.41.9.75 2.99.75 4.64 0 2.33-.44 3-2 3-1.1 0-2.01-.56-2.02-1.25-.01-.69-1.03-2.27-2.25-3.53-1.65-1.68-3.35-2.26-6.55-2.25-2.51.02-4.92.66-5.75 1.53-.79.82-1.43 2.18-1.43 3 0 .82 1.46 2.4 3.25 3.5 1.79 1.09 4.26 1.99 5.5 2 1.24 0 2.48.45 2.75 1s1.18 1 2 1c.82 0 2.64 1.01 4.03 2.25 1.38 1.24 2.79 3.6 3.11 5.25.33 1.69-.01 4.31-.78 6-.75 1.65-2.94 3.79-4.86 4.75-1.93.96-5.19 1.75-7.25 1.75-2.06 0-4.99-.48-6.5-1.07-1.51-.58-3.77-2.05-5.03-3.25-1.3-1.25-2.26-3.35-2.25-4.93.02-1.93.55-2.76 1.78-2.77.96-.01 2.76 1.34 4 3 1.95 2.61 2.89 3.02 7 3.05 3.77.02 5.27-.5 9.75-5.01l-3-2.49c-1.65-1.36-5.25-3-8-3.64-2.75-.63-5.79-1.54-6.75-2.02s-2.46-2.56-3.33-4.62c-.87-2.06-1.35-4.65-1.06-5.75.29-1.1 1.34-2.97 2.33-4.17 1-1.19 2.94-2.62 4.31-3.18 1.38-.56 4.19-1.05 6.25-1.09z" style="fill:#fdfdfd"/></svg>