<svg xmlns="http://www.w3.org/2000/svg" viewBox="0 0 311 237" width="311" height="237"><style></style><path id="Path 0" fill-rule="evenodd" d="M290.5.7c2.2.29 5.58 1.17 7.5 1.97 1.92.79 4.57 2.43 5.88 3.64 1.31 1.2 3.21 3.99 4.23 6.19 1.02 2.2 1.85 6.03 1.85 8.5 0 2.47-.81 6.3-1.8 8.5s-3.57 5.45-5.73 7.23c-2.25 1.85-6.07 3.73-8.93 4.38-2.75.63-6.91.87-9.25.52S278.2 40.1 276 39c-2.2-1.1-5.1-3.46-6.44-5.25-1.33-1.79-2.88-5.28-3.42-7.75-.55-2.47-.67-6.3-.26-8.5.41-2.2 1.61-5.48 2.68-7.29 1.07-1.81 3.52-4.4 5.44-5.74 1.92-1.35 5.52-2.87 8-3.37 2.48-.51 6.3-.69 8.5-.4zM64.25 52.08c4.81-.04 11.11.42 14 1.03 2.89.61 8.63 2.68 12.75 4.59 5.67 2.62 9.24 5.22 14.6 10.63 5.09 5.14 8.12 9.29 10.7 14.67 1.99 4.13 4.33 10.65 5.22 14.5.88 3.85 1.46 8.76.98 14.82L89 121.75c-18.43 5.19-33.83 9.73-34.23 10.09-.4.36.56 3.36 2.13 6.66 1.58 3.3 4.6 7.66 6.73 9.7 2.13 2.03 5.89 4.61 8.37 5.72 2.95 1.34 6.65 2.04 10.75 2.06 3.44.01 8.39-.71 11-1.61 2.61-.89 7-3.09 9.75-4.88s6.91-5.11 9.25-7.37c2.97-2.88 4.85-3.97 6.25-3.62 1.63.41 1.91 1.1 1.5 3.75-.27 1.79-2.29 6.96-4.5 11.5-2.89 5.97-5.8 10.05-10.5 14.75-4.43 4.43-8.81 7.62-13.75 10.01-3.99 1.94-10.4 4.18-14.25 4.99-3.85.8-10.04 1.47-13.75 1.48-3.71.01-10.24-.69-14.5-1.56-4.26-.87-10.68-2.98-14.25-4.7-4.66-2.24-8.92-5.55-15.03-11.67-6.38-6.39-9.38-10.32-11.87-15.55-1.84-3.85-4.24-10.6-5.35-15-1.69-6.74-1.92-10.12-1.48-21.5.42-11 1-14.89 3.1-21 1.42-4.12 4.46-10.43 6.76-14 2.3-3.57 6.69-8.9 9.77-11.84 3.34-3.18 8.83-6.93 13.6-9.27 4.4-2.17 10.93-4.57 14.5-5.33 3.57-.77 10.44-1.44 15.25-1.48zm-7.64 21.17c-1.31 2.89-3.16 8.63-4.12 12.75-1.08 4.68-1.79 12.08-1.86 19.67-.07 6.69.1 12.44.37 12.78.27.34 7.02-1.13 15-3.27l14.5-3.88c.51-6.04.12-12.3-.52-17.8-.65-5.5-2.03-12.81-3.08-16.25-1.16-3.82-3.16-7.59-5.15-9.71-1.79-1.9-4.19-3.48-5.35-3.5-1.15-.02-3.29.86-4.75 1.96s-3.72 4.36-5.04 7.25zm151.91-21.01c8.93.23 10.72.6 16.5 3.43 3.92 1.92 8.49 5.27 11.57 8.5 2.81 2.93 6.47 8.03 8.14 11.33 1.67 3.3 3.95 8.93 5.06 12.5 1.11 3.57 2.57 11.23 3.24 17 .7 5.94.96 14.19.6 19-.34 4.68-1.55 12.1-2.67 16.5-1.13 4.4-3.34 10.7-4.91 14-1.58 3.3-4.71 8.36-6.96 11.25-2.25 2.89-6.9 7.31-10.34 9.82-3.99 2.92-8.78 5.32-13.25 6.64-5.6 1.65-8.9 1.98-16.5 1.64-7.66-.35-10.61-.96-21-5.85v59h-46V54h45v4.5c0 2.48.45 4.5 1 4.5s2.24-1.03 3.75-2.29c1.51-1.26 3.88-3.01 5.25-3.87 1.38-.87 4.52-2.32 7-3.22 3.28-1.19 7.21-1.56 14.52-1.38zm-28.27 22.6L178 76v84c4.26 3.15 6.96 4.05 8.75 4.03 1.79-.01 4.9-.82 6.91-1.78 2.01-.96 4.89-3.55 6.39-5.75s3.65-6.7 4.77-10c1.12-3.3 2.57-10.95 3.23-17 .69-6.45.9-14.93.5-20.5-.37-5.23-1.33-12.43-2.13-16-.81-3.57-2.73-8.75-4.28-11.5-2.03-3.61-4.04-5.62-7.23-7.24-2.42-1.23-5.08-2.2-5.91-2.16-.83.04-2.62.41-4 .83-1.37.41-3.51 1.27-4.75 1.91zM265 55h46v126h-46v-63" style="fill:#feffff"/></svg>