<svg xmlns="http://www.w3.org/2000/svg" viewBox="0 0 512 512" width="512" height="512"><style></style><path id="Path 0" fill-rule="evenodd" d="M259.5.45c18.3.25 29.74.86 35.5 1.9 4.68.84 11.88 2.23 16 3.11 4.13.87 11.55 2.75 16.5 4.19 4.95 1.44 14.18 4.6 20.5 7.04 6.32 2.44 17.13 7.25 24 10.71 6.88 3.45 15.88 8.43 20 11.07 4.13 2.64 12.68 8.66 19 13.39s17.61 14.69 25.07 22.12c7.46 7.44 16.24 16.9 19.5 21.03 3.26 4.13 6.87 8.85 8.01 10.5 1.15 1.64 3.64 5.24 5.55 7.99 1.91 2.75 5.11 7.7 7.11 11s5.97 10.72 8.84 16.5c2.86 5.78 7.11 15.22 9.43 21 2.32 5.78 5.35 14.32 6.74 19 1.39 4.68 3.06 10.75 3.71 13.5.65 2.75 2.03 9.28 3.06 14.5 1.03 5.22 2.35 13.89 2.93 19.25.58 5.36 1.05 17.85 1.05 27.75 0 9.9-.48 22.39-1.07 27.75-.6 5.36-2.18 15.38-3.53 22.25-1.34 6.88-3.58 16.32-4.98 21-1.39 4.68-4.18 13-6.19 18.5-2.01 5.5-6.77 16.3-10.58 24-3.8 7.7-10.6 19.63-15.1 26.5-4.51 6.88-11.09 16.08-14.62 20.46-3.54 4.38-10.25 11.98-14.93 16.89-4.68 4.9-12.55 12.35-17.5 16.54-4.95 4.18-10.8 8.99-13 10.68-2.2 1.69-9.18 6.46-15.5 10.59-6.32 4.14-16.9 10.24-23.5 13.56-6.6 3.32-16.05 7.64-21 9.59-4.95 1.96-14.4 5.2-21 7.2s-17.62 4.71-24.5 6.01c-6.87 1.31-16.89 2.85-22.25 3.43-5.36.58-17.4 1.05-26.75 1.05-9.35 0-21.39-.47-26.75-1.04-5.36-.57-15.6-2.18-22.75-3.58s-18.18-4.11-24.5-6.03c-6.32-1.91-15.55-5.08-20.5-7.04-4.95-1.95-14.62-6.41-21.5-9.89-6.87-3.49-16.78-9.11-22-12.48-5.22-3.38-11.97-7.99-15-10.26-3.03-2.26-9.98-7.96-15.45-12.65-5.47-4.69-14.47-13.49-20-19.56-5.53-6.06-12.09-13.71-14.59-17-2.49-3.28-7.84-10.92-11.88-16.97-4.04-6.05-10.84-18.2-15.12-27-4.28-8.8-9.21-20.05-10.95-25-1.74-4.95-4-11.7-5.01-15-1.02-3.3-3-11.18-4.4-17.5-1.41-6.32-3.24-17.35-4.08-24.5-.84-7.15-1.52-21.1-1.52-31 0-9.95.68-23.59 1.51-30.5.84-6.87 2.24-15.87 3.12-20 .87-4.12 2.44-10.76 3.48-14.75s3.06-10.74 4.48-15c1.43-4.26 4.34-12.03 6.48-17.25 2.14-5.22 6.72-14.9 10.19-21.5 3.47-6.6 9.63-16.95 13.68-23 4.05-6.05 11.09-15.5 15.63-21 4.54-5.5 12.68-14.33 18.09-19.62 5.41-5.29 13.89-12.86 18.84-16.81 4.95-3.96 13.72-10.36 19.5-14.22 5.78-3.86 18.6-11 28.5-15.87 10.35-5.09 23.74-10.75 31.5-13.31 7.43-2.45 18-5.45 23.5-6.67 5.5-1.22 15.4-3.05 22-4.07C230.56.38 236.88.14 259.5.45zm32.97 38.05c-1.3 3.85-5.56 16.22-9.48 27.5-3.91 11.28-7.48 20.72-7.93 21-.45.28-7.51 1.76-15.69 3.31l-14.87 2.81-9.6 24.38.6 30.64L254 156c6.67-8.14 11.73-14.23 15.55-18.79 3.82-4.55 7.31-8.15 7.75-8 .44.16 6.76 11.99 14.05 26.29 11.45 22.49 13.57 26.04 15.69 26.31 1.35.17 2.79-.28 3.19-1 .41-.72.75-4.01.75-7.31l.02-6c11.07-12.4 15.97-17.12 18.02-18.5 2.06-1.37 4.52-2.95 5.47-3.5 1.32-.76 2.06-3.62 3.12-12 .76-6.05 1.28-11.07 1.14-11.15-.14-.09-4.75-1.95-10.25-4.13-7.98-3.18-9.96-4.36-9.8-5.85.1-1.03 1.95-5.7 4.09-10.37l3.91-8.5 32.12-20c-2.96-6.59-3.84-8.84-3.85-9.25-.02-.41 3.36-3.23 7.51-6.25l7.56-5.5c-6.62-3.67-11.24-6-14.54-7.54-3.3-1.54-8.48-3.78-11.5-4.98-3.02-1.2-9.1-3.46-13.5-5.01-4.4-1.56-12.73-3.99-18.5-5.39a2902.7 2902.7 0 0 0-12.74-3.09c-1.77-.42-2.48.05-3.33 2.24-.6 1.52-2.16 5.92-3.46 9.77zm92.32 39.26c-.39.41-3.6 4.34-7.15 8.74l-6.44 8c5.56 6.97 9.11 11.36 11.48 14.25 3.8 4.61 4.59 5.13 6.57 4.3 1.24-.53 7.43-2.56 13.75-4.52 6.32-1.95 12.85-3.66 14.5-3.79l3-.24c.46 12.4.38 16.9.13 18-.26 1.1-3.54 4.1-7.3 6.68-3.76 2.57-7.95 5.15-9.33 5.72-1.37.58-8.46 2.19-15.75 3.58-7.29 1.38-14.15 2.52-15.25 2.52-1.1 0-2 .22-2 .5s2.04 5.79 4.54 12.25 4.27 11.97 3.94 12.25c-.33.28-3.61-.3-7.29-1.27-3.68-.98-7.59-2.03-8.69-2.34-1.64-.46-2.74.68-6.05 6.28-2.86 4.82-5.01 10.51-7.32 19.33-1.79 6.88-3.64 13.18-4.09 14-.71 1.28-1.6 1.13-6.19-1.11l-5.35-2.61C310.86 208.91 303.21 212 302.25 212c-.96.01-3.44-1.12-5.5-2.5L293 207c-10.04 2.71-13.13 3.28-13.33 3-.21-.28-2.47-5.79-5.02-12.25-2.56-6.46-4.65-12.2-4.65-12.75 0-.55 1.33-2.46 2.96-4.25s2.99-3.47 3.02-3.75c.04-.28-1.3-1.51-2.96-2.75L270 172c-8.58 5.81-11.05 8.18-11.03 9 .03.82 1.12 7.57 2.44 15 1.31 7.43 2.09 13.8 1.74 14.16-.36.36-6.27 2.88-13.15 5.59l-12.5 4.94c-11.87 21.3-12.15 21.61-18.76 25.17-6.62 3.56-6.77 3.73-6.77 7.64 0 2.2-.33 4.52-.74 5.15-.4.64-4.78 2.82-9.73 4.86l-9 3.7L184 263c1 9.07.8 10.7-.17 11.23-.73.41-4.48.74-8.33.74-3.85 0-8.47.35-10.27.77-2.63.61-3.27 1.25-3.27 3.26.01 1.98.8 2.79 3.78 3.87 2.07.76 7 2.79 10.95 4.5 6.32 2.75 7.25 3.5 7.65 6.13.25 1.65.73 3.9 1.06 5 .5 1.64-1.51 3.68-11.15 11.34l-11.75 9.34-57-1.12L93 326c2.49 5.81 4.15 9.75 5.29 12.5 1.14 2.75 2.68 5.9 3.4 7 .73 1.1 1.33 2.68 1.33 3.5.01.82-2.36 8.6-5.25 17.28l-5.27 15.78c4.19 4.11 4.82 4.26 6.51 3.19 1.59-1 2.11-1 2.57 0 .32.69.1 4.18-.49 7.75-.59 3.57-1.1 7.4-1.12 8.5-.03 1.48 1.47 2.7 5.74 4.69 3.19 1.48 11.42 5.37 18.29 8.65 9.96 4.75 13.62 7.09 18 11.52 3.03 3.05 5.72 5.38 6 5.17.28-.21 5.9-2 12.5-3.99 6.6-1.98 12.32-3.25 12.71-2.82.39.43 1.29 2.48 2 4.57l1.29 3.78c6.36-8.06 9.03-10.33 10.5-10.61 2.32-.44 2.77-1.56 6.33-15.71l3.83-15.25c-3.22-7.36-4.18-10.06-4.19-10.75-.02-.69 2.68-3.84 6-7 4.76-4.54 6.03-6.38 6.03-8.75 0-2.71.31-3 3.25-3.02 2-.01 5.07-1.26 7.97-3.25 2.6-1.78 4.74-3.79 4.75-4.48.02-.69 1.49-2.17 3.28-3.3 2.27-1.44 4.45-1.95 7.25-1.69 2.2.2 5.46 1.35 7.25 2.55L242 354c2.66-5.04 3.9-7.38 4.47-8.45.57-1.07 4.63-4.76 9.03-8.21 4.4-3.44 8.68-6.28 9.5-6.31.86-.04 2.39 1.97 3.58 4.7 1.15 2.63 6.08 9.72 10.97 15.77 4.88 6.05 9.8 11.76 10.92 12.68 1.11.92 5.63 4.33 10.03 7.57 4.4 3.24 9.18 7.66 10.62 9.82 1.45 2.16 3.92 8.5 5.5 14.08l2.88 10.16c-4.26 5.57-5.27 7.53-4.99 7.94.29.41 2.2-.82 4.25-2.75 2.06-1.92 4.07-3.72 4.47-4 .4-.27 1.64-2.98 2.75-6s2.03-6.4 2.03-7.5c.01-1.1-1.58-4.48-3.51-7.5-1.94-3.02-3.37-5.95-3.18-6.5.18-.55 2.44-1.11 5.01-1.25 2.88-.15 5.53.33 6.92 1.26 1.24.83 3.04 1.5 4 1.5.96-.01 1.52-.46 1.25-1.01s-2.98-2.8-6-5-7.86-5.07-10.75-6.37c-2.89-1.31-6.67-3.9-8.4-5.75-1.73-1.86-5.29-6.75-7.9-10.88-2.62-4.12-6.36-9.52-8.32-12-3.22-4.07-3.68-5.46-4.81-14.5-.69-5.5-1.49-11.01-1.79-12.25-.44-1.87.36-2.8 4.72-5.49 2.89-1.78 7.95-3.79 11.25-4.45 4.95-1.01 6.35-.98 8 .16 1.1.76 2.9 1.16 4 .89 1.53-.37 2.41.35 3.75 3.07 1.25 2.55 3.11 4.19 6.5 5.72 2.61 1.19 6.1 2.12 7.75 2.08 2.69-.07 4.01 1.23 12.8 12.6l9.8 12.67c-.85 15.93-.81 16.09 4.36 27l5.21 11c9.94.94 14.29 1.95 16.08 2.86L388 383c-1.83-4.26-3.87-7.52-5.71-10-2.81-3.78-3.34-5.34-3.32-9.75.03-4.57.29-5.25 2.03-5.25 1.1 0 2.9.45 4 1 1.58.79 2.11.63 2.52-.75.28-.96 1.52-2.08 2.75-2.49 1.22-.4 4.71-.73 7.73-.73 3.02 0 7.15.56 9.18 1.24 3.4 1.14 3.98 1.02 7.75-1.52 2.24-1.51 5.31-2.74 6.82-2.73l2.75.02c-5.05-5.18-5.44-6.46-5.65-12.54-.22-6.04.19-7.96 2.93-14l3.18-7c-4.9-3.87-7.17-5.68-8.2-6.5-1.81-1.43-1.68-1.73 2.93-6.64 2.64-2.82 5.94-5.81 7.31-6.64 1.38-.83 4.98-1.8 8-2.16 3.02-.36 12.25-1.02 20.5-1.46 10.04-.54 17.64-1.52 23-2.97 7.55-2.05 8.04-2.35 8.75-5.4.42-1.78 1.04-12.46 1.37-23.73.47-15.72.24-23.77-1-34.5-.89-7.7-2.94-19.4-4.55-26-1.61-6.6-4.82-17.4-7.13-24-2.31-6.6-6.08-16.05-8.38-21-2.3-4.95-7.08-13.88-10.62-19.84-3.54-5.95-9.99-15.63-14.34-21.5-4.62-6.23-14.48-17.2-23.75-26.41-15.03-14.94-16.04-15.74-19.6-15.63-2.06.07-6 .75-8.75 1.51s-5.32 1.72-5.71 2.13zm-247.29 23.4c-11.24 23.9-14.51 31.4-14.52 32.09-.01.69 3.42 4.63 7.62 8.75 7.53 7.4 7.62 7.55 6.97 11.5-.53 3.14-.28 4.38 1.13 5.76.99.97 3.76 2.1 6.16 2.5 2.4.41 4.52.96 4.71 1.24.18.28-.13 2.3-.69 4.5-.81 3.14-.68 5.08.6 9 .9 2.75 1.45 5.45 1.22 6-.22.55-2.39 1.34-4.8 1.76l-4.4.77c-4.22 22.19-4.4 24.61-3.33 25.2.73.41 2.46.75 3.83.77 1.38.01 3.51.25 4.75.51 1.24.27 2.24 1.05 2.23 1.74-.01.69-3.38 5.41-7.5 10.5-4.11 5.09-7.37 9.63-7.23 10.08.14.46 8.8-1.98 19.25-5.43 15.14-4.99 20.32-6.27 25.5-6.32 3.57-.04 8.69-.41 11.37-.82 3.76-.59 5.16-1.33 6.16-3.26 1.22-2.37 1.08-2.62-2.62-4.75-3.38-1.94-3.75-2.49-2.71-4 .65-.96 2.79-3.45 4.75-5.52l3.55-3.78c-2.77-7.69-3.85-8.76-8.5-11.03l-5.5-2.69c-1.4-10.21-2.76-13.54-6.05-18.73-2.44-3.85-5.33-8.57-6.42-10.5-1.1-1.93-3.24-5.25-4.76-7.39-2.09-2.94-4.61-4.7-10.27-7.18-4.25-1.86-7.61-3.97-7.75-4.86-.14-.86.43-1.57 1.25-1.57.82 0 3.3-.68 5.5-1.5 3.64-1.36 4.09-1.93 4.94-6.25.52-2.61 1.31-6.74 1.75-9.17l.81-4.42c-16.16 1.24-17.5 1.11-17.5-.16 0-.83 1.49-3.86 3.31-6.75s3.17-6.04 3-7c-.17-.96-1.1-1.69-2.06-1.61-.96.08-4.45.56-7.75 1.08l-6 .94zm-37.65 72.39L100 178c-10.08-.46-10.92-.24-10.4 1 .35.82.85 2.18 1.12 3 .28.82-.23 2.63-1.12 4-1.59 2.44-1.55 2.54 1.52 4 1.73.82 3.31 1.84 3.51 2.25.2.41-.19 1.88-.88 3.26-1 2.02-1 2.76.02 3.75.69.68 1.26 2.03 1.25 2.99-.01 1.14-1.25 2.1-3.52 2.75l-3.5 1v13c9.7-.05 12.13-.92 21.18-5.78l10.68-5.72c2.14-9.86 2.11-12.35 1.07-17.5l-1.31-6.5c4.97-6.97 6.4-9.56 6.4-10.25-.01-.69-1.03-3.51-2.27-6.27l-2.25-5.02c-13.83.04-14.38.22-17.99 3.59-3.38 3.15-3.79 4.04-3.66 8zm158.97 204.22c.92 1.8 2.24 3.26 2.93 3.25.69-.01 1.53-.81 1.88-1.77.35-.96.54-3.77.42-6.25-.11-2.48-.53-4.85-.92-5.27-.39-.43-1.9.92-3.35 3-2.58 3.68-2.6 3.85-.96 7.04zM253 393.44c-2.28-.6-2.43-.45-1.7 1.7.44 1.3 1.23 5.29 1.74 8.86.52 3.57 1.51 7.08 2.2 7.79.69.72 1.6 1.28 2.01 1.25.41-.02 1.36-1.05 2.11-2.29.75-1.24 1.63-6.19 1.97-11 .46-6.56.3-8.74-.61-8.72-.67.02-2.12.71-3.22 1.55-1.26.95-2.92 1.27-4.5.86zm120.5 10.36c5.77 7.58 7.87 9.28 9.49 9.45 1.88.19 3.04 1.41 4.75 5 1.24 2.61 2.6 4.76 3.01 4.77.41.01 1.31-2.24 2-5s1.24-6.03 1.23-7.27c-.01-1.24-.8-3.21-1.75-4.39-.95-1.18-3.08-2.83-4.73-3.67-1.65-.83-4.18-1.96-5.62-2.49-2.14-.8-3.15-.56-5.5 1.31l-2.88 2.29zm-78.76 29.38c3.3 3.24 6.6 5.3 10.76 6.73 4.59 1.58 6.15 1.77 6.66.83.36-.68.14-2.02-.5-2.97-.84-1.26-.87-2.76-.11-5.5l1.04-3.77c-9.37 0-14.4-.38-17.23-.84-2.83-.47-5.2-.47-5.26 0-.07.46 2.02 2.94 4.64 5.52z" style="fill:#fff"/></svg>