<svg version="1.2" xmlns="http://www.w3.org/2000/svg" viewBox="0 0 318 442" width="318" height="442"><path id="Path 0" fill-rule="evenodd" d="M86-2c2 0 24.8 22.3 114.1 111.8 61.4 61.4 112.3 113.1 113.2 114.7.8 1.6 2.5 5.9 3.6 9.5 2.1 6.3 2.2 8 2.1 47-.1 33.9-.3 41.3-1.7 45.5-.8 2.8-2.6 7-3.9 9.5-1.5 3-17.7 19.9-49.6 51.8-26.6 26.6-49.3 48.5-51.8 50s-7.4 3.5-11 4.6c-5.8 1.7-10.2 2-42.3 2.3-23.3.2-35.7 0-35.7-.7 0-.5-1.2-1-2.7-1-1.6 0-5.3-1.2-8.3-2.6-3-1.4-8.2-4.7-11.5-7.4-3.3-2.7-25.8-24.8-50.1-49.2C13.2 346.4 6 338.7 3.9 334c-1.4-3-3.1-8.2-3.8-11.5-.9-4.6-1.1-28.8-.9-101.7.3-94.2.3-95.8 2.3-97.8 1.1-1.1 3.6-2.3 5.5-2.6 3.5-.6 3.7-.4 36 32 17.9 17.9 32.8 32.5 33.3 32.6.4 0 .7-39.7.8-88.3.1-48.5.4-89.2.7-90.4C78.2 5 79.6 2.7 81 1c1.5-1.9 3.4-3 5-3zm21.7 236.1c-1.2 1.1-7.6 7.2-14.3 13.7-6.6 6.4-12.6 12.7-13.2 14-.8 1.4-1.2 8.2-1.2 20 .1 12 .5 18.3 1.3 19.7.7 1.1 5.1 5.6 9.8 10 4.8 4.4 8.7 8.3 8.8 8.8 0 .4 9.3 10 20.5 21.5 11.3 11.4 20.2 21.2 19.9 21.7-.3.6-.2.7.3.3.5-.5 3.7 1.9 7.2 5.2l6.2 6h12.3l74.2-74.1c1.2-20.5 1.2-29.1.9-32.4l-.6-6-31.3-31.4c-11-.1-11-.1-18 6.7-3.9 3.8-12.2 12.1-18.5 18.6-6.3 6.4-12.1 11.7-12.7 11.6-.7 0-8.6-7.4-17.5-16.6-9-9.1-17.7-17.4-19.3-18.4-1.6-1.1-4.6-1.9-6.5-1.9-1.9 0-4.1.3-4.8.6-.8.3-2.3 1.4-3.5 2.4z" style="fill:#fff"/></svg>