<svg xmlns="http://www.w3.org/2000/svg" viewBox="0 0 299 367" width="299" height="367"><style></style><path id="Path 0" fill-rule="evenodd" d="M123.11 44c.49 0 1.17.41 1.51.91.35.51-.37 4.67-1.58 9.25-1.45 5.46-2.28 11.79-2.42 18.34-.11 5.5.13 10.67.54 11.5.4.83 1.99 5.23 3.54 9.78 1.54 4.55 3.14 8.27 3.55 8.25.41-.02 1.21 1.21 1.78 2.72.57 1.51 1.58 3.7 2.25 4.87.67 1.17 1.95 2.97 2.85 4 .89 1.03 3.22 5.26 5.17 9.38 1.95 4.13 4 9.3 4.57 11.5.56 2.2 1.01 8.5 1 14-.02 6.27-.76 13.17-1.99 18.5-1.07 4.68-2.87 10.53-3.99 13-1.12 2.47-2.45 5.29-2.96 6.25-.51.96-.94 2.54-.96 3.5-.02.96-1.14 3.55-2.5 5.75-1.35 2.2-2.45 4.68-2.43 5.5.01.82-1.12 3.19-5.04 9l3 1.5c1.65.82 5.59 1.79 8.75 2.15 3.35.37 8.47.12 12.25-.61 3.57-.69 8.97-2.5 12-4.03 3.03-1.53 7.86-5.08 10.75-7.9 2.89-2.81 5.25-5.56 5.25-6.11 0-.55.47-1.11 1.05-1.25.58-.14 2.37-4.07 3.98-8.75 1.6-4.68 2.93-9.51 2.94-10.75.02-1.24.37-2.43.78-2.66.41-.22.75-8.09.75-17.49 0-15.62.15-17.1 1.75-17.1.96 0 2.32.56 3.02 1.25.69.69 3 2.15 5.13 3.25 2.14 1.1 4.94 3.01 6.24 4.25 1.3 1.24 2.58 2.25 2.86 2.25.28 0 1.16.56 1.97 1.25.82.69 2.67 2.15 4.12 3.25 1.45 1.1 6.42 5.71 11.03 10.25 4.61 4.54 8.38 8.7 8.38 9.25 0 .55.9 1.45 2 2s2 1.68 2 2.5c0 .82.45 1.5 1 1.5s1 .68 1 1.5.45 1.5 1 1.5 1 .68 1 1.5.45 1.5 1 1.5.99.56.97 1.25c-.02.69.9 2.38 2.05 3.75 1.14 1.38 3.4 5.99 5.03 10.25 1.62 4.26 3.6 10.56 4.4 14 .8 3.44 1.53 7.6 1.63 9.25.1 1.65.21 6.82.25 11.5.04 4.68-.24 11.43-.63 15-.39 3.57-.94 6.61-1.21 6.75-.27.14 3.67 2.32 8.76 4.86 5.09 2.53 11.73 6.29 14.75 8.34 3.02 2.05 7.9 6.16 10.82 9.14 2.93 2.98 6.65 8.11 8.27 11.41 2.52 5.13 2.95 7.17 2.95 14 0 6.82-.43 8.89-2.93 14-2.01 4.12-5.26 8.19-10.37 13-4.09 3.85-10.77 8.91-14.84 11.24s-12.58 6.32-18.9 8.86c-6.32 2.54-17.35 6.11-24.5 7.94-7.15 1.83-19.53 4.36-27.5 5.62-13.12 2.07-17.94 2.29-50.5 2.31-29.83.03-37.97-.28-47.5-1.77-6.33-.99-16.67-2.93-23-4.32-6.33-1.39-16.67-4.24-23-6.33-6.33-2.09-15.77-5.93-21-8.54-5.23-2.61-12.2-6.65-15.5-8.97-3.3-2.33-7.97-6.44-10.39-9.14-2.41-2.69-5.44-7.15-6.74-9.9-1.94-4.12-2.35-6.63-2.36-14.25-.01-8.05.34-9.93 2.65-14.5 1.47-2.89 4.73-7.44 7.25-10.11 2.53-2.67 8.19-7.26 12.59-10.19 4.4-2.92 11.49-6.92 15.75-8.89 4.26-1.96 8.09-3.38 8.5-3.17.41.21.17-2.6-.54-6.25-.7-3.65-1.04-7.2-.75-7.89.3-.69.09-1.47-.46-1.75s-1.07-2.64-1.15-5.25c-.09-2.61-.17-10.6-.18-17.75-.01-7.15.23-15.47.54-18.5.31-3.03.82-7.75 1.13-10.5.31-2.75 1.5-9.28 2.65-14.5 1.16-5.22 4.35-16.25 7.1-24.5 2.91-8.73 8.15-21.27 12.52-30 4.14-8.25 8.62-16.8 9.96-19 1.34-2.2 2.66-4.79 2.93-5.75.28-.96.95-1.75 1.5-1.75s1-.45 1-1 1.11-2.46 2.47-4.25 2.49-3.81 2.5-4.5c.02-.69.48-1.25 1.03-1.25s1.67-1.58 2.5-3.5c.83-1.92 1.95-3.5 2.5-3.5s1-.67 1-1.5.67-1.72 1.5-2 1.5-1.17 1.5-2c0-.83.9-1.95 2-2.5s2.02-1.56 2.05-2.25c.02-.69 1.15-2.37 2.51-3.75 1.36-1.37 4.76-5.09 7.55-8.25s5.59-5.73 6.23-5.71c.64.03 1.77-.65 2.52-1.5.75-.84 1.76-1.54 2.25-1.54zM78.18 211c-1.66 5.22-3.83 13.32-4.82 18-1.24 5.84-1.81 12.88-1.82 22.5-.02 10.36.44 15.69 1.75 20.5.98 3.57 3.05 9.2 4.61 12.5 1.56 3.3 4.54 8.25 6.62 11 2.09 2.75 6.54 7.41 9.89 10.36 3.68 3.23 10.05 7.27 16.09 10.2 5.5 2.66 13.6 5.77 18 6.9 4.4 1.13 8.79 2.05 9.75 2.05.96-.01 1.75.44 1.75.99 0 .57 2.67.95 6.25.88 5.23-.1 5.76-.26 3.25-.96-2.12-.6-1.09-.72 3.5-.4 4.77.34 6.1.18 5-.6-1.13-.8-.56-.93 2.25-.49 2.78.42 3.56.26 3-.63-.55-.88-.02-1.02 2-.5 2 .51 2.55.38 2-.48-.55-.88-.09-.96 1.75-.32 2.04.71 2.32.61 1.5-.53-.8-1.12-.56-1.25 1.25-.68 1.39.44 2.06.33 1.75-.29-.28-.55.4-1.23 1.5-1.5s2.56-.2 3.25.16c.7.37.91.26.49-.25-.42-.5 2.51-2.65 6.5-4.78 3.99-2.12 9.73-5.76 12.76-8.09 3.03-2.32 8.32-7.33 11.77-11.13 3.44-3.8 8.03-10.28 10.18-14.41 2.16-4.12 4.62-10.43 5.47-14 .85-3.57 1.56-9.65 1.58-13.5.01-3.85-.84-10.37-1.89-14.5-1.05-4.12-3.11-10.2-4.58-13.5-1.47-3.3-4.62-8.93-6.99-12.5-2.38-3.57-5.84-8.34-7.68-10.6l-3.36-4.1c-4.34 14.11-7.4 22.25-9.59 27.2-2.2 4.95-6.39 12.6-9.32 17-2.92 4.4-7.8 10.25-10.84 13s-7.94 6.2-10.89 7.67c-2.95 1.48-7.39 3.15-9.86 3.73-2.47.58-6.97 1.07-10 1.09-3.03.01-7.97-.7-11-1.59-3.03-.89-7.75-2.76-10.5-4.14-2.75-1.39-8.18-5.73-12.06-9.64-5.48-5.52-8.11-9.25-11.72-16.62-2.85-5.8-5.26-12.52-6.19-17.25-.84-4.26-1.53-11.57-1.53-16.25s.43-10.78.95-13.57c.53-2.79.84-5.29.69-5.55-.14-.27-2.33 3.7-4.85 8.82-2.53 5.11-5.96 13.58-7.61 18.8z" style="fill:#fff"/></svg>