<svg xmlns="http://www.w3.org/2000/svg" viewBox="0 0 468 236" width="468" height="236"><style></style><path id="Path 0" d="M271.25.64c-1.24.2-2.25.92-2.24 1.61.01.69 7.54 24.03 16.75 51.87l16.74 50.63c-18.6 4.22-33.23 7.69-44.5 10.44l-20.5 5.01-30.49-31.7c-7.03 2.33-9.06 3.56-9.04 4.25.02.69 3.87 9.24 8.56 19s8.51 17.86 8.5 18c-.02.14-1.85 1.49-4.07 3s-4.03 3.43-4.02 4.25c.01.87 1.4 1.82 3.29 2.26 1.8.42 4.28.76 5.52.75 2.23-.01 2.25.09 1.76 11.24-.27 6.19-.6 15.53-.75 20.75l-.26 9.5h9.98l15.31-41c8.3-1.37 23.16-4.07 38.37-6.89l27.66-5.11c1.04 12.4 2.24 25.45 3.33 37 1.09 11.55 3.07 32.03 4.38 45.5 1.32 13.47 2.53 24.64 2.68 24.81.16.17 2.09.06 4.29-.24s4.49-1.11 5.09-1.81c.61-.69 3.47-9.81 6.37-20.26 2.9-10.45 6.98-24.85 9.08-32 2.09-7.15 6.78-23.57 10.41-36.5 3.64-12.93 7.27-24.51 8.08-25.75.81-1.24 2.71-2.46 4.22-2.71 1.51-.26 13.77-2.55 27.25-5.1 13.48-2.54 29.23-5.69 35-6.99 5.77-1.31 13.2-3.31 16.5-4.46 3.3-1.15 8.65-3.53 11.89-5.29 3.24-1.76 7.18-4.66 8.75-6.45 1.68-1.91 2.76-4.18 2.61-5.5-.17-1.5-1.58-2.91-4.25-4.24-3.19-1.59-6.54-2.07-16.5-2.36-8.95-.26-14.91.12-21 1.32-4.68.92-20.65 4.4-35.5 7.72-14.85 3.33-28.01 6.44-29.25 6.93-1.47.57-3.14.45-4.82-.37-1.41-.69-19.19-21.61-39.5-46.5C281.5 1.83 279.87.01 276.75.14c-1.79.07-4.26.3-5.5.5zM172 136.26c-1.93.58-11 3.47-20.17 6.43-12.11 3.9-17.1 5.98-18.25 7.59-.88 1.22-1.61 3.57-1.62 5.22-.02 1.65.89 4.24 2.01 5.75 1.58 2.14 2.86 2.75 5.78 2.76 2.06.01 7.57-1.28 12.25-2.85s13.68-4.33 20-6.13c7.9-2.24 12.2-4.01 13.75-5.65 1.45-1.54 2.25-3.62 2.25-5.88 0-2.4-.79-4.29-2.5-6-1.84-1.84-3.49-2.47-6.25-2.4-2.06.06-5.32.58-7.25 1.16zm-84.5 30.61c-7.15 3.2-15.7 7.07-19 8.59-3.3 1.52-7.02 3.72-8.28 4.9-1.59 1.5-2.26 3.26-2.25 5.89.02 2.64.77 4.49 2.53 6.25 1.56 1.56 3.63 2.5 5.5 2.5 1.65 0 7.16-1.98 12.25-4.41 5.09-2.42 13.97-6.48 19.75-9.02 5.78-2.54 11.31-5.61 12.29-6.84.99-1.23 1.78-3.47 1.75-4.98-.02-1.68-1.2-3.91-3.04-5.75-1.91-1.91-4-2.99-5.75-2.97-1.51.01-8.6 2.64-15.75 5.84zm-62.06 31.48c-1.14.63-7.39 4.28-13.89 8.1l-11.83 6.96c.22 15.18.62 19.6 1.03 19.62.41.01 7.05-3.79 14.75-8.46 7.7-4.66 16.02-9.74 18.5-11.28 4.14-2.57 4.52-3.15 4.77-7.29.22-3.58-.19-4.97-2-6.78-1.57-1.57-3.35-2.23-5.77-2.15-1.93.07-4.43.64-5.56 1.28z" style="fill:#fffefe"/></svg>