<svg xmlns="http://www.w3.org/2000/svg" viewBox="0 0 318 128" width="318" height="128"><style></style><path id="Path 0" d="M41.75.72 2 1c-.75 3.49-.99 31.5-1 64.5-.03 47.12.24 60.27 1.23 61.27.92.92 5.72 1.26 17.52 1.25L36 128V80l40.27-.5.23-33.5H36V29c38.17 0 42.13-.26 43.43-1.5.86-.82 1.82-3.19 2.12-5.25.3-2.06 1.76-7.46 3.25-12 1.48-4.53 2.48-8.43 2.2-8.66-.28-.24-1.62-.59-3-.78C82.63.61 63.61.57 41.75.72zm134.8.4c-2.43.86-2.92 1.56-2.75 3.96.11 1.61-.25 2.92-.8 2.92s-1.19 1.46-1.43 3.25c-.23 1.79-.91 5.16-1.5 7.5S168.55 24.8 168 27l-2 8c-.55 2.2-1.42 5.69-1.93 7.75-.52 2.06-1.88 7.13-3.04 11.25-1.16 4.13-2.34 7.72-2.63 8-.28.28-.93-.18-1.44-1-.51-.82-.94-2.96-.94-4.75-.01-1.79-.47-3.47-1.02-3.75-.55-.28-1.01-1.51-1.01-2.75-.01-1.24-.43-3.6-.93-5.25-.51-1.65-1.4-4.91-1.99-7.25-.59-2.34-1.52-6.05-2.07-8.25l-2-8c-.55-2.2-1.5-5.91-2.11-8.25-.62-2.34-1.48-5.15-1.91-6.25-.44-1.1-1.06-2.79-1.39-3.75C141.05 1.16 139.11 1 120 1c-11.55 0-21.68.22-22.5.5-.82.28-1.49 1.06-1.49 1.75.01.69-.81 3.05-1.82 5.25-1 2.2-2.77 8.05-3.93 13-1.15 4.95-2.68 12.15-3.41 16-.81 4.32-1.31 14.66-1.31 27 0 12.44.5 22.46 1.31 26.5.71 3.57 1.75 8.75 2.3 11.5.55 2.75 1.38 6.13 1.84 7.5.46 1.38 1.44 4.64 2.17 7.26.74 2.61 1.68 4.75 2.09 4.75.41-.01.74.78.73 1.74-.01.96.56 2.32 1.25 3.02.86.86 4.56 1.26 11.52 1.25 5.64-.01 11.15-.47 12.25-1.02 1.94-.97 2-2.02 2.05-35.25.04-29.85.22-33.74 1.37-30.25.73 2.2 1.87 6.25 2.52 9 .65 2.75 1.6 6.57 2.1 8.5.51 1.93 1.78 6.65 2.82 10.5 1.05 3.85 2.44 9.25 3.09 12 .65 2.75 1.65 6.8 2.23 9 .58 2.2 1.4 5.13 1.82 6.5.43 1.38 1.28 4.41 1.89 6.75L142 128c27.42.08 31.8-.25 32.66-1.21.64-.71 1.86-4.44 2.72-8.29.85-3.85 2.43-10.37 3.51-14.5 1.07-4.12 3.83-14.7 6.13-23.5 2.29-8.8 4.53-17.57 4.96-19.5.45-1.98.85 11.26.92 30.5.07 18.7.46 34.57.87 35.26.53.92 3.93 1.18 12.73 1l12-.26c4.22-8.53 6.36-14.82 7.49-19.5s2.47-10.3 2.98-12.5c.51-2.2 1.21-11.87 1.57-21.5.37-10.28.2-22.04-.43-28.5-.59-6.05-1.5-13.25-2.01-16-.51-2.75-1.4-6.8-1.97-9-.57-2.2-2.2-7.15-3.61-11-1.41-3.85-3.12-7.33-3.79-7.73-.68-.41-8.2-.75-16.73-.77-8.53-.01-17.07-.23-19-.48-1.93-.25-4.83.02-6.45.6zm53.43 1.13c-.01.69 1.34 5.41 3 10.5s3.01 10.04 3 11c-.01.96.4 2.2.91 2.75.5.55 1.19 3.25 1.53 6 .33 2.75 1.08 10.18 1.65 16.5.58 6.32.77 17.13.44 24-.34 6.88-1.25 16.1-2.02 20.5-.78 4.4-2.12 10.7-2.99 14-.87 3.3-2.46 8.36-3.54 11.25-1.08 2.89-1.96 6.15-1.96 7.25 0 1.97.67 2 44 2h44V96h-35c-.76-5.81-.81-26.4-.61-49.5.21-23.1-.02-42.79-.51-43.75-.8-1.6-3.1-1.75-26.38-1.75-19.72 0-25.5.28-25.52 1.25z" style="fill:#feffff"/></svg>