<svg xmlns="http://www.w3.org/2000/svg" viewBox="0 0 301 82" width="301" height="82"><style></style><path id="Path 0" fill-rule="evenodd" d="M139.07-.07 158.5.5l.25 20.75c.16 13 .62 20.75 1.25 20.75.55 0 1-.68 1-1.5s1.91-3.56 4.25-6.08c2.34-2.51 6.72-5.74 9.75-7.16 4.29-2.01 7.15-2.6 13-2.67 5.07-.06 9.42.56 13.41 1.91 3.82 1.29 7.35 3.42 10 6.02 2.25 2.2 5.1 6.03 8.56 12.98L220 26h9.5c8.83 0 9.5.14 9.5 2 0 1.1.34 2.01.75 2.03.41.01 3.34-1.12 6.5-2.5 3.16-1.39 6.88-2.53 8.25-2.53 1.38 0 3.4.45 4.5 1 1.59.79 1.99 1.98 1.94 10.5l2.33-3.5c1.28-1.93 3.65-4.42 5.28-5.54 1.62-1.12 4.97-2.38 7.45-2.79 2.48-.41 6.52-.43 9-.04 2.48.39 6.52 1.45 9 2.36 4.03 1.48 4.48 1.96 4.29 4.58-.11 1.61-.79 4.73-1.51 6.93-1.17 3.58-1.63 3.98-4.3 3.77-1.64-.13-5.12-.47-7.73-.75-4.07-.45-4.71-.28-4.5 1.18.16 1.1 2.66 2.62 7 4.25 3.71 1.4 8.21 3.72 10 5.16 3.15 2.52 3.25 2.85 3.25 10.08 0 6.47-.34 7.92-2.58 10.89-1.41 1.88-4.34 4.32-6.5 5.42-3.22 1.64-5.79 1.99-14.42 1.93-8.11-.06-11.47-.52-14.75-2-3.42-1.55-4.24-2.42-4.18-4.43.05-1.37.88-4.75 1.86-7.5 1.34-3.76 2.25-4.96 3.67-4.84 1.05.09 3.7.86 5.9 1.71s5.35 1.56 7 1.57c1.65.02 3.68-.37 4.5-.87.82-.49 1.22-1.5.87-2.23-.35-.74-3.72-2.23-7.5-3.32-4.35-1.26-8.05-3.1-10.08-5-1.77-1.66-3.21-3.92-3.21-5.02.01-1.1-.57-2.51-1.29-3.14-.71-.62-3.09-1.45-5.29-1.83-2.75-.47-5.17-.2-7.75.89-2.23.94-4.36 2.79-5.25 4.58-1.12 2.24-1.5 6.56-1.5 31h-20l-.04-17.5-2.85 4.5c-1.57 2.47-3.93 5.49-5.24 6.69-1.3 1.21-4.62 3.23-7.37 4.48-4.23 1.94-6.69 2.3-16 2.31-9.79.02-11.54-.26-15.87-2.48-2.68-1.37-6.39-4.19-8.25-6.25-1.86-2.06-3.38-4.43-3.38-5.25 0-.82-.45-1.5-1-1.5-.58 0-1 3.17-1 15h-10c-7.31 0-10.01-.34-10.04-1.25-.03-.91-1.05-.77-3.75.53-2.04.97-5.51 2.04-7.71 2.37-2.2.34-6.47.01-9.5-.73-4.31-1.05-6.48-2.33-10-5.94-2.47-2.53-5.22-6.6-7.69-13.48l-2.07 4c-1.14 2.2-3.8 5.58-5.91 7.5-2.1 1.93-4.84 4.06-6.08 4.75-1.24.69-4.84 1.92-8 2.73-3.16.82-7.78 1.49-10.25 1.49-2.47 0-6.97-.67-10-1.5-3.03-.82-7.08-2.71-9-4.19-1.92-1.49-4.07-3.39-4.77-4.24-.7-.85-1.99-2.89-2.88-4.54-.88-1.65-2.13-6.15-3.91-17L22 50v30H0L.5 2.5 50 2v19H22v10l12.75.02c12.37.02 12.94-.08 19.25-3.2 5.8-2.88 7.42-3.23 15-3.22 6.92.01 9.52.48 14 2.52 3.03 1.38 7.19 4.17 9.25 6.2 2.06 2.02 4.43 5.48 5.25 7.68.82 2.2 1.84 4 2.25 4 .41.01 1.51-2.13 2.44-4.75.93-2.61 3.5-6.55 5.7-8.75 2.24-2.24 6.12-4.74 8.81-5.68 2.91-1.02 6.96-1.55 10.3-1.37 3.03.17 6.96 1.04 12 3.55l.04-14.04M60.38 48.25c-1.04 2.1-1.41 4.49-1.03 6.75.32 1.93 1.55 4.63 2.72 6 1.49 1.74 3.41 2.61 6.29 2.88 3.24.29 4.76-.14 6.99-2 2.23-1.86 2.98-3.48 3.4-7.38.48-4.49.24-5.33-2.36-8.21-1.59-1.77-4.01-3.45-5.39-3.74-1.37-.28-3.96.15-5.75.97-1.79.81-3.98 2.94-4.87 4.73zm62.24-1.03c-1.43 2.48-1.74 4.38-1.28 7.78.34 2.6 1.47 5.35 2.66 6.5 1.43 1.38 3.42 2 6.45 2 3.32 0 5.02-.61 6.98-2.5 1.42-1.37 2.85-3.62 3.17-5 .32-1.37.11-4.07-.47-6-.58-1.93-1.86-4.24-2.84-5.14-.99-.9-3.14-1.88-4.79-2.18-1.65-.3-4.12-.14-5.5.35-1.37.5-3.35 2.38-4.38 4.19zm57.61 1.83c-.69 1.9-1.02 4.8-.73 6.45.29 1.65 1.69 4.13 3.1 5.5 1.92 1.87 3.63 2.5 6.8 2.5 2.43 0 4.88-.64 5.74-1.5.83-.82 2.04-2.51 2.69-3.75.64-1.24 1.17-3.82 1.17-5.75 0-2.42-.85-4.42-2.75-6.5-1.51-1.65-4.1-3.25-5.75-3.54-1.95-.35-4.05.11-6 1.3-1.65 1.01-3.57 3.39-4.27 5.29zM269.5.06l8.25-.03c4.54-.02 8.48.42 8.75.97.27.55-2.09 5.61-11 21.5l-8.75.25c-7.22.21-8.75-.01-8.75-1.25 0-.82 2.59-5.99 5.75-11.47" style="fill:#fefdfd"/></svg>