<svg xmlns="http://www.w3.org/2000/svg" viewBox="0 0 336 336" width="336" height="336"><style></style><path id="Path 0" fill-rule="evenodd" d="M166 .14c3.57-.08 11.45.33 17.5.9 6.05.57 15.28 1.94 20.5 3.03 5.22 1.1 13.55 3.36 18.5 5.03 4.95 1.67 13.5 5.2 19 7.84 5.5 2.65 14.95 8.11 21 12.13 7.9 5.25 14.68 11 24.06 20.37 9.37 9.38 15.12 16.16 20.37 24.06 4.02 6.05 9.48 15.5 12.13 21 2.64 5.5 6.17 14.05 7.84 19 1.67 4.95 3.94 13.28 5.05 18.5 1.11 5.22 2.53 15.35 3.17 22.5.87 9.83.87 16.29 0 26.5-.64 7.43-2.06 17.78-3.17 23-1.11 5.22-3.38 13.55-5.05 18.5-1.67 4.95-5.2 13.5-7.84 19-2.65 5.5-8.11 14.95-12.13 21-5.25 7.9-11 14.68-20.37 24.06-9.38 9.37-16.16 15.12-24.06 20.37-6.05 4.02-15.5 9.48-21 12.13-5.5 2.64-14.05 6.17-19 7.84-4.95 1.67-13.28 3.94-18.5 5.05-5.22 1.11-15.57 2.53-23 3.17-10.21.87-16.67.87-26.5 0-7.15-.64-17.28-2.06-22.5-3.17-5.22-1.11-13.55-3.38-18.5-5.05-4.95-1.67-13.5-5.2-19-7.84-5.5-2.65-14.95-8.11-21-12.13-7.9-5.25-14.68-11-24.06-20.37-9.37-9.38-15.12-16.16-20.37-24.06-4.02-6.05-9.48-15.5-12.13-21-2.64-5.5-6.17-14.05-7.84-19-1.67-4.95-3.94-13.28-5.05-18.5-1.11-5.22-2.53-15.57-3.17-23-.87-10.21-.87-16.67 0-26.5.64-7.15 2.06-17.28 3.17-22.5 1.11-5.22 3.38-13.55 5.05-18.5 1.67-4.95 5.2-13.5 7.84-19 2.65-5.5 8.11-14.95 12.13-21 5.25-7.9 11-14.68 20.37-24.06 9.38-9.37 16.16-15.12 24.06-20.37 6.05-4.02 15.5-9.48 21-12.14 5.5-2.65 14.72-6.37 20.5-8.25 5.78-1.88 14.32-4.17 19-5.09 4.68-.92 12.32-2.04 17-2.49 4.68-.46 11.43-.89 15-.96zm-26.5 26.35c-4.4.91-12.05 3-17 4.66-4.95 1.65-13.05 5.02-18 7.49-4.95 2.47-12.83 7.02-17.5 10.11-5.1 3.37-13.33 10.45-20.57 17.68C59.2 73.67 52.12 81.9 48.75 87c-3.09 4.67-7.64 12.55-10.11 17.5-2.47 4.95-5.84 13.05-7.49 18-1.66 4.95-3.74 12.6-4.64 17-.9 4.4-2.04 12.5-2.53 18-.54 5.93-.54 14.27 0 20.5.49 5.78 1.63 14.1 2.53 18.5.9 4.4 2.98 12.05 4.64 17 1.65 4.95 5.02 13.05 7.49 18 2.47 4.95 7.02 12.82 10.11 17.5 3.37 5.1 10.45 13.33 17.68 20.57 7.24 7.23 15.47 14.31 20.57 17.68 4.67 3.09 12.55 7.64 17.5 10.11 4.95 2.47 13.05 5.84 18 7.49 4.95 1.66 12.6 3.74 17 4.64 4.4.9 12.5 2.04 18 2.53 5.93.54 14.27.54 20.5 0 5.78-.49 14.1-1.63 18.5-2.53 4.4-.9 12.05-2.98 17-4.64 4.95-1.65 13.05-5.02 18-7.49 4.95-2.47 12.82-7.02 17.5-10.11 5.1-3.37 13.33-10.45 20.57-17.68 7.23-7.24 14.31-15.47 17.68-20.57 3.09-4.68 7.64-12.55 10.11-17.5 2.47-4.95 5.84-13.05 7.49-18 1.66-4.95 3.74-12.6 4.64-17 .9-4.4 2.04-12.72 2.53-18.5.54-6.23.54-14.57 0-20.5-.49-5.5-1.63-13.6-2.53-18-.9-4.4-2.98-12.05-4.64-17-1.65-4.95-5.02-13.05-7.49-18-2.47-4.95-7.05-12.82-10.17-17.49-3.13-4.67-9.51-12.5-14.19-17.42-4.68-4.91-11.87-11.61-16-14.88-4.12-3.28-11.1-8.08-15.5-10.68-4.4-2.59-11.82-6.4-16.5-8.46-4.68-2.05-12.32-4.83-17-6.18-4.68-1.34-12.32-3.07-17-3.83-4.68-.77-12.55-1.61-17.5-1.87-4.95-.25-12.82-.1-17.5.34-4.68.44-12.1 1.55-16.5 2.46zm36 72.96c9.35.22 19.7.91 23 1.53 3.3.62 10.84 2.67 16.75 4.57 5.91 1.9 11.01 4.01 11.32 4.7.32.69-.59 5.53-2.01 10.75s-2.81 9.72-3.1 10c-.28.28-4.44-.74-9.24-2.25-4.79-1.52-11.19-3.21-14.22-3.76-3.03-.56-8.65-1.01-12.5-1.01-3.85.01-9.59.69-12.75 1.51-3.16.83-7.66 2.48-10 3.67s-6.5 4.29-9.25 6.89c-2.75 2.6-6.32 7.14-7.93 10.09-1.6 2.95-3.51 7.61-4.23 10.36-.73 2.75-1.33 8.15-1.35 12-.02 4.16.76 9.64 1.92 13.5 1.15 3.8 3.79 9 6.35 12.5 2.41 3.3 6.15 7.22 8.31 8.7 2.16 1.49 5.5 3.36 7.43 4.16 1.93.8 5.53 1.77 8 2.16 2.54.4 6.03.25 8-.34 1.93-.58 4.74-2.43 9-7.18v-32h45v31c0 19.67-.37 31.18-1 31.5-.55.28-2.46-.29-4.25-1.25-2.33-1.25-5.38-1.73-10.75-1.67-4.22.05-14.71 1.55-24 3.44-13.51 2.74-18.85 3.36-29.5 3.4-9.35.04-14.82-.43-19.5-1.69-3.57-.96-10.1-3.52-14.5-5.69-4.4-2.18-10.59-6-13.75-8.5s-7.79-7.13-10.29-10.29c-2.49-3.16-6.1-8.9-8.01-12.75-1.91-3.85-4.19-10.37-5.06-14.5-1.1-5.24-1.44-10.81-1.14-18.5.34-8.55 1.05-12.78 3.18-19 1.5-4.4 4.84-11.12 7.4-14.93 2.57-3.82 7.14-9.14 10.17-11.82 3.03-2.68 7.97-6.4 11-8.25 3.03-1.86 8.54-4.53 12.25-5.94 3.71-1.41 10.24-3.23 14.5-4.04 5.62-1.07 12.41-1.37 24.75-1.07z" style="fill:#fff"/></svg>