<svg xmlns="http://www.w3.org/2000/svg" viewBox="0 0 382 208" width="382" height="208"><style></style><path id="Path 0" fill-rule="evenodd" d="M297.25.59c5.91.23 13.34 1.01 16.5 1.74s10.14 3.43 15.5 6c5.36 2.57 9.86 4.68 10 4.7.14.02 1.15-1.78 4.25-8.01L357 5l-.01 31.75c-.01 17.46.33 33.22 1.51 38.3L345 75l-2.09-7.25c-1.15-3.99-2.97-9.95-4.05-13.25-1.08-3.3-3.51-8.92-5.41-12.5-1.9-3.58-5.37-8.72-7.7-11.44-2.34-2.72-6.95-6.68-10.25-8.8-3.3-2.12-8.93-4.74-12.5-5.83-3.74-1.13-9.26-1.95-13-1.93-3.57.03-8.41.49-10.75 1.02-2.34.54-7.25 2.44-10.92 4.23-3.68 1.79-8.91 5.27-11.63 7.75-2.73 2.48-6.43 6.52-8.22 9-1.8 2.48-4.63 7.2-6.29 10.5-1.66 3.3-3.98 8.92-5.15 12.5-1.18 3.58-2.79 9.54-3.59 13.25-.8 3.71-1.91 12.94-2.47 20.5-.55 7.56-.78 15.21.02 20.25h151l.04 5.25c.03 3.11-.48 5.7-1.25 6.36-.71.61-3.54 1.41-6.29 1.78-2.75.36-6.55 1.44-8.44 2.39-1.88.94-4.36 2.99-5.5 4.54-1.93 2.65-2.09 4.54-3.06 59.16l-14 5.19c-7.7 2.86-18.05 6.24-23 7.52-8.06 2.07-11.25 2.31-30.5 2.29-20.78-.01-21.77-.1-29.5-2.74-4.4-1.51-11.68-4.87-16.18-7.49-4.5-2.61-11.41-7.68-15.37-11.25-3.95-3.57-9.05-8.97-11.32-12-2.28-3.03-6.22-9.55-8.77-14.5-2.54-4.95-5.55-11.7-6.68-15-1.13-3.3-2.64-8.82-4.68-18.54h-13l-2.34 9.27c-1.29 5.1-3.56 12.42-5.04 16.27-1.48 3.85-5.33 11.05-8.56 16-3.23 4.95-8.17 11.42-10.97 14.37-2.8 2.95-7.79 7.29-11.09 9.63-3.3 2.35-9.6 6.06-14 8.24-4.4 2.19-10.47 4.83-13.5 5.87-4.73 1.62-8.52 1.89-27 1.89-19.22 0-22.46-.25-30.5-2.31-4.95-1.28-15.3-4.66-37-12.73l.36-22.98c.23-14.5-.06-25.19-.78-28.98-.72-3.84-2-6.9-3.54-8.5-1.32-1.37-4.57-3.29-7.22-4.25-2.65-.97-6.51-1.76-8.57-1.75-2.45 0-3.92-.52-4.25-1.5-.27-.83-.5-3.75-.5-11.5h150l1.1-2.75c.72-1.81.86-6.67.41-14.25-.38-6.33-1.28-14.87-2-19-.71-4.12-2.3-10.87-3.51-15-1.21-4.12-4.17-11.33-6.57-16-2.4-4.67-6.74-11.17-9.65-14.44-2.9-3.26-7.98-7.66-11.28-9.77-3.3-2.12-8.47-4.6-11.5-5.52-3.65-1.11-9.2-1.69-16.5-1.72-10.41-.05-11.36.12-17.75 3.2-4.22 2.03-9.15 5.59-13.16 9.5-5.31 5.18-7.36 8.22-11.94 17.75-3.04 6.33-6.41 14.42-7.5 18-1.09 3.58-2.24 7.74-2.57 9.25C37.03 74.88 36.74 75 25 75V5h6.5c6.26 0 6.57.12 8.5 3.25 1.09 1.79 2.11 3.61 2.25 4.05.14.44 4.97-1.44 10.75-4.18 5.78-2.73 13.2-5.49 16.5-6.13 3.68-.71 12.95-1.02 24-.79 16.6.33 18.62.57 26 3.14 4.4 1.53 11.79 4.9 16.42 7.47 5.04 2.8 11.68 7.74 16.5 12.28 5.04 4.73 10.55 11.31 14.65 17.5 3.61 5.45 7.8 12.83 9.31 16.41 1.51 3.58 3.57 9.88 4.58 14 1.01 4.13 2.17 9.3 2.58 11.5.41 2.2 1.02 9.63 1.96 29h11l.67-14c.36-7.7 1.39-17.37 2.29-21.5.89-4.12 3.07-11.1 4.83-15.5 1.77-4.4 5.24-11.6 7.71-16 3.18-5.66 7.43-10.95 14.5-18.08 6.98-7.03 12.42-11.47 18-14.7 4.4-2.55 10.93-5.71 14.5-7.02 3.57-1.31 9.65-2.91 13.5-3.56 3.85-.64 8.57-1.35 10.5-1.56 1.93-.22 8.34-.21 14.25.01zM232 126.5c0 .28.66 3.31 1.46 6.75.8 3.44 2.42 9.4 3.6 13.25 1.18 3.85 4.01 10.58 6.29 14.95 2.44 4.67 6.86 10.85 10.73 15 5.32 5.7 8.45 8 16.37 12.05 9.76 4.98 9.83 5 20.92 5.37 8.17.27 12.86-.08 17.63-1.31 3.57-.92 9.18-3.11 12.45-4.87 4.57-2.45 6.13-3.88 6.75-6.19.44-1.65 1.1-10.43 1.46-19.5.43-10.95.27-18.18-.48-21.5-.81-3.59-2.13-5.92-4.65-8.25-1.94-1.79-5.22-3.72-7.28-4.28-2.06-.57-11.4-1.46-20.75-1.98s-23.75-.86-32-.76c-8.25.1-18.94.31-23.75.48-4.81.16-8.75.51-8.75.79zm-173 4c-1.68.84-3.77 3.15-4.75 5.25-1.51 3.23-1.73 6.6-1.59 24.25.12 15.07.51 21.12 1.5 22.84.74 1.28 4.49 3.87 8.34 5.75 3.85 1.88 9.7 3.92 13 4.52 3.3.61 10.72.92 16.5.69 9.67-.39 11.13-.73 18.5-4.25 6.19-2.96 9.71-5.55 15.53-11.44 5.85-5.91 8.68-9.85 12.67-17.61 2.82-5.5 6.25-14.05 7.62-19 1.37-4.95 2.76-10.46 3.08-12.25l.6-3.25c-69.13.12-78.63.44-82.75 1.57-2.89.78-6.6 2.11-8.25 2.93z" style="fill:#fff"/></svg>