<svg xmlns="http://www.w3.org/2000/svg" viewBox="0 0 517 438" width="517" height="438"><style></style><path id="Path 0" d="M70.36 8.33c-4.32 4.59-10.41 11.9-13.53 16.25-3.12 4.36-8.45 13.09-11.84 19.42-3.38 6.33-6.31 12.17-6.5 13-.18.83-.42 1.73-.53 2-.11.27-.14.84-.08 1.25.07.41-.44.74-1.13.72-.69-.01-.92.32-.51.75.41.43.19 1.36-.5 2.07-.68.72-.79 1.26-.24 1.21.56-.05.48.48-.18 1.21-.64.71-1.33 2.42-1.52 3.79-.19 1.38-.65 2.95-1.01 3.5-.36.55-.93 2.8-1.26 5-.33 2.2-.83 5.13-1.1 6.5-.27 1.38-.71 3.85-.97 5.5s-.65 4.8-.85 7c-.21 2.2-.7 7.83-1.09 12.5-.58 6.82-.21 11.67 1.83 24.5 1.39 8.8 3.72 20.05 5.16 25 1.44 4.95 4.72 13.5 7.28 19 2.56 5.5 6.09 12.47 7.83 15.5 1.74 3.03 5.91 9.21 9.27 13.75 3.36 4.54 9.82 11.96 14.36 16.5 4.54 4.54 12.08 11.08 16.75 14.53 5.67 4.19 9.42 6.27 11.25 6.25 1.58-.02 3.14-.77 3.67-1.78.63-1.22-.09-5.08-2.4-12.75-1.82-6.05-4.06-15.28-4.98-20.5-.91-5.22-1.92-15.57-2.23-23-.35-8.17-.1-17.06.62-22.5.65-4.95 1.87-12.37 2.72-16.5.84-4.12 2.89-11.78 4.55-17 1.66-5.22 5.25-14.22 7.97-20 2.72-5.78 7.79-14.78 11.28-20 3.49-5.22 9.77-13.44 13.95-18.25L144 64c.01-54.61-.23-59.87-1.49-61.75L141 0H78.21m184.24 2.22c-1.46 1.97-1.63 6.16-1.54 36.75.08 28.39-.18 35.6-1.47 40.53-.86 3.3-3.23 9.14-5.25 12.97-2.23 4.21-6.37 9.67-10.44 13.75-4.74 4.76-8.91 7.82-14 10.26-3.99 1.92-9.95 4.17-13.25 5.01-3.3.84-7.15 1.52-8.55 1.52-1.4-.01-3.1.55-3.77 1.24-.67.69-1.2 3.28-1.18 5.75.01 2.47 1.28 8.1 2.81 12.5s4.61 10.7 6.84 14c2.23 3.3 6.48 8.18 9.45 10.84 2.97 2.67 7.65 6.11 10.4 7.66 2.75 1.54 8.15 3.77 12 4.95 5.01 1.53 9.7 2.14 16.5 2.15 5.23.02 11.75-.51 14.5-1.16 2.75-.65 8.38-2.77 12.5-4.71 5.71-2.68 9.3-5.34 15.03-11.13 4.26-4.3 8.92-10.21 10.71-13.6 1.74-3.3 4.09-9.6 5.22-14 1.82-7.07 2.06-10.96 2.03-33.5-.02-18.71.3-25.83 1.19-26.75.81-.83 4.43-1.24 10.77-1.23 6.08.01 10.23-.45 11.43-1.25 1.57-1.06 1.78-2.09 1.3-6.27-.32-2.75-1.98-9.27-3.69-14.5-1.7-5.23-5.36-14.22-8.12-20-2.76-5.78-7.38-14.1-10.26-18.5s-6.67-9.69-8.42-11.75L312 0c-47.54 0-47.93.03-49.55 2.22zM438 4.2c-.77.66-1.31 1.79-1.2 2.5.11.71 2.18 7.26 4.59 14.55 2.42 7.29 5.56 18.42 6.98 24.75 1.43 6.33 3.32 16 4.21 21.5.99 6.12 1.81 19.13 2.13 33.5.29 13.52.06 27.96-.56 34-.58 5.78-2.25 16.57-3.7 24-1.45 7.43-4.14 18.68-5.98 25-1.84 6.32-5.43 16.68-7.97 23s-7.77 17.57-11.63 25c-3.86 7.43-9.98 18-13.59 23.5-3.62 5.5-9.94 14.27-14.06 19.5-4.12 5.23-14.06 16.03-22.1 24.01-8.04 7.97-19.12 17.93-24.62 22.13-5.5 4.19-14.73 10.63-20.5 14.29-5.77 3.67-15.23 9.08-21 12.02-5.77 2.95-15 7.22-20.5 9.5-5.5 2.28-15.62 5.94-22.5 8.13-6.87 2.19-19.03 5.28-27 6.86-7.97 1.59-20.35 3.44-27.5 4.12-8.39.8-20.45 1.02-34 .64-11.55-.32-25.5-1.3-31-2.18-5.5-.87-15.18-2.74-21.5-4.14-6.33-1.41-17.46-4.54-24.75-6.97-7.29-2.42-14.06-4.41-15.05-4.41-.99 0-2.43.54-3.2 1.2-.77.66-1.31 2.23-1.2 3.5.13 1.47 2.82 4.59 7.45 8.62 3.99 3.48 10.4 8.83 14.25 11.89 3.85 3.07 11.95 8.81 18 12.76 6.05 3.95 17.75 10.5 26 14.55 8.25 4.05 19.5 9.01 25 11.03 5.5 2.01 16.75 5.37 25 7.46s21.64 4.74 29.75 5.89c10.71 1.53 19.81 2.1 33.25 2.1 13.37 0 22.45-.57 32.75-2.05 7.84-1.13 19.2-3.17 25.25-4.53 6.05-1.36 17.07-4.5 24.5-6.98 7.43-2.47 20.7-8.04 29.5-12.37s20.05-10.42 25-13.54c4.95-3.12 13.27-8.9 18.5-12.85 5.23-3.95 15.52-13.03 22.87-20.18 7.35-7.15 16.99-17.5 21.43-23 4.43-5.5 11.19-14.73 15.01-20.5 3.83-5.77 10.62-17.93 15.1-27s10.25-22.8 12.83-30.5c2.58-7.7 5.58-17.6 6.66-22 1.08-4.4 3-14.07 4.28-21.5 2.04-11.87 2.31-16.7 2.28-40-.04-22.82-.36-28.31-2.3-39.5-1.23-7.15-3.39-17.5-4.79-23s-4.14-14.72-6.09-20.5c-1.96-5.78-5.32-14.55-7.49-19.5-2.16-4.95-5.98-12.83-8.49-17.5-2.52-4.67-7.81-13.45-11.76-19.5-3.96-6.05-10.06-14.6-13.56-19s-8.86-10.6-11.92-13.78c-3.3-3.44-6.39-5.77-7.61-5.75-1.13.02-2.68.57-3.45 1.23z" style="fill:#feffff"/></svg>