<svg xmlns="http://www.w3.org/2000/svg" viewBox="0 0 358 399" width="358" height="399"><style></style><path id="Path 0" fill-rule="evenodd" d="M332.17 1c.46 0 3.34 2.81 6.41 6.25 3.27 3.67 7.4 9.97 10 15.25 2.43 4.95 5.17 11.92 6.1 15.5 1.11 4.3 1.66 10.22 1.61 17.5-.05 7.6-.69 13.32-2.06 18.5-1.09 4.13-3.68 10.88-5.74 15-2.07 4.13-5.13 9.53-6.81 12-1.68 2.47-6.23 7.81-10.12 11.87-3.88 4.05-10.21 9.49-14.06 12.1-3.85 2.61-8.8 5.67-11 6.81-2.2 1.14-4.45 1.77-5 1.4-.55-.38-3.54-3.83-6.64-7.68-3.1-3.85-8.84-10.04-12.75-13.75-3.91-3.71-10.82-9.51-15.36-12.88-4.54-3.37-9.3-6.63-10.58-7.25-2.13-1.03-2.27-1.54-1.65-6.12.37-2.75 1.78-8.37 3.14-12.5 1.36-4.12 3.57-9.41 4.91-11.75 1.33-2.34 2.99-4.25 3.68-4.26.69 0 2.6 3 4.25 6.67s4.24 7.72 5.75 9c1.51 1.29 3.99 2.36 5.5 2.38 1.51.03 3.32-.53 4.02-1.25.69-.71 1.14-2.63 1-4.26-.26-2.81.08-3.09 6.23-5.32 3.57-1.3 9.62-4.46 13.43-7.03 3.81-2.58 8.66-6.71 10.78-9.18 2.12-2.47 5.42-7.65 7.34-11.5 1.91-3.85 4.19-10.37 5.06-14.5 1.07-5.12 1.35-9.47.88-13.7-.38-3.41-.34-6.45.08-6.75.42-.3 1.14-.55 1.6-.55zm-39.42 83.25c-3.63-.24-3.73-.16-3.06 2.5.65 2.55.52 2.7-1.75 2.05a152.7 152.7 0 0 1-4.19-1.25c-1.02-.32-2.06.09-2.5.97-.48.97.06 2.41 1.5 4 1.24 1.36 2.02 2.93 1.75 3.48-.31.62-1.74.4-3.75-.58-1.79-.87-3.81-1.32-4.5-1-.69.32-1.25 1.26-1.25 2.08 0 .82 2.59 3.69 5.75 6.36 3.16 2.67 7.55 7.41 9.75 10.53 2.2 3.12 4.45 5.68 5 5.68.55.01 1.56-.68 2.25-1.53 1-1.23 1-2.2.01-4.79-.68-1.79-3.95-6.08-7.25-9.54-4.48-4.69-5.69-6.54-4.76-7.25.89-.69 2.75.59 6.5 4.45 2.89 2.97 6.69 7.13 8.44 9.25 3.07 3.68 3.27 3.77 5 2.07 1.74-1.71 1.73-1.93-.44-6-1.24-2.33-2.25-4.57-2.25-4.98 0-.41.56-.74 1.25-.72.69.01 2.04.8 3.01 1.75.96.94 2.09 1.36 2.5.93.41-.44-.16-2.35-1.26-4.25s-1.64-3.79-1.2-4.21c.44-.41 1.67-.19 2.75.5 1.07.69 1.94.91 1.92.5-.02-.41-1.03-1.9-2.25-3.3s-4.36-4.21-6.97-6.25c-2.61-2.03-5.2-3.7-5.75-3.7-.55 0-.89.56-.75 1.25.17.86-.93 1.17-3.5 1zm-.07 5.27c1 .18 2.16.36 2.57.4.41.05 2.1 1.21 3.75 2.58 1.65 1.38 3 3.18 3 4 0 .82-.45 1.5-1 1.5s-2.81-1.46-5.02-3.25c-2.22-1.79-4.27-3.77-4.57-4.4-.33-.7.18-1.02 1.27-.83zM217 93.46c4.13.25 10.2 1.4 13.5 2.54 3.3 1.15 8.7 3.47 12 5.16 3.3 1.69 9.38 5.36 13.5 8.17 4.13 2.81 12.24 9.85 18.03 15.64 5.79 5.79 13.08 14.35 16.19 19.03 3.11 4.68 7.32 12.1 9.34 16.5 2.03 4.4 4.35 11.15 5.15 15 .91 4.34 1.22 9.09.83 12.5-.34 3.03-1.73 7.41-3.08 9.75s-2.97 4.14-3.59 4c-.62-.14-2.78-4.3-4.8-9.25s-5.52-12.37-7.79-16.5c-2.26-4.12-6.69-11.1-9.84-15.5-3.15-4.4-8.02-10.65-10.83-13.88-2.81-3.24-8.93-9.26-13.61-13.39-4.68-4.14-12.55-10.2-17.5-13.48-4.95-3.28-12.37-7.64-16.5-9.69-4.12-2.05-10.2-4.77-13.5-6.05-3.3-1.28-6.45-2.69-7-3.14-.63-.52-.27-1.59 1-2.91 1.1-1.15 4.02-2.73 6.5-3.52 2.96-.94 7.07-1.28 12-.98zm-67.5 15.04c8.8.17 18.47.82 21.5 1.44 3.03.63 7.53 1.62 10 2.21 2.48.59 7.88 2.23 12 3.63 4.13 1.41 10.43 3.87 14 5.46 3.57 1.6 9.2 4.53 12.5 6.52 3.3 1.99 9.38 6.07 13.5 9.06 4.13 3 11.72 9.78 16.89 15.06 5.16 5.29 12.39 14.12 16.07 19.62 3.67 5.5 8.5 13.82 10.73 18.5 2.23 4.68 5.43 12.77 7.1 18 1.68 5.23 3.85 13.55 4.84 18.5 1.3 6.49 1.8 13.75 1.82 26 .02 10.24-.51 19.78-1.32 24-.74 3.85-2.42 10.94-3.74 15.75-1.31 4.81-4.2 12.91-6.4 18-2.21 5.09-5.76 12.18-7.88 15.75-2.13 3.57-6.57 10.1-9.87 14.5-3.31 4.4-9.77 11.6-14.37 16.01-4.61 4.4-11.52 10.35-15.37 13.23-3.85 2.87-12.18 7.9-18.5 11.18-6.32 3.28-15.55 7.29-20.5 8.92-4.95 1.63-12.6 3.71-17 4.63-4.4.93-12.95 2.05-19 2.5-6.05.44-15.5.44-21-.01s-14.28-1.71-19.5-2.8c-5.22-1.09-12.43-2.98-16-4.19-3.57-1.21-10.78-4.2-16-6.64-5.22-2.45-14-7.45-19.5-11.11-6.22-4.15-13.97-10.65-20.5-17.2-5.78-5.79-13.26-14.58-16.62-19.52-3.37-4.95-8.21-13.16-10.75-18.25-2.55-5.09-5.95-13.19-7.57-18-1.62-4.81-3.91-13.48-5.1-19.25-1.68-8.11-2.18-14.14-2.21-26.5-.04-11.02.49-18.96 1.68-25.5.95-5.23 3.09-13.77 4.76-19 1.66-5.23 4.58-12.87 6.48-17 1.9-4.12 5.09-10.2 7.08-13.5 1.98-3.3 5.95-9.15 8.82-13 2.86-3.85 8.96-10.72 13.57-15.27 4.6-4.55 11.96-10.96 16.36-14.24 4.4-3.29 13.18-8.63 19.5-11.88s15.78-7.26 21-8.91c5.22-1.65 13.1-3.7 17.5-4.56 4.4-.87 9.57-1.77 11.5-2.01 1.93-.24 10.7-.3 19.5-.13zm-61.91 37.95c-2.15 1.68-5.82 5.75-8.15 9.05-2.34 3.3-5.44 8.7-6.89 12-1.45 3.3-3.5 8.93-4.55 12.5-1.05 3.57-2.47 10.78-3.14 16-.99 7.63-.97 10.97.07 17 .71 4.13 2.25 9.49 3.43 11.91 1.18 2.43 3.38 5.47 4.89 6.75 1.51 1.29 4.21 2.61 6 2.93 2 .36 4.79-.05 7.25-1.06 2.2-.91 5.46-2.75 7.25-4.09 1.79-1.34 5.04-4.8 7.22-7.69 2.19-2.89 5.72-9.3 7.86-14.25 2.14-4.95 4.73-12.37 5.76-16.5 1.32-5.31 1.86-11 1.83-19.5-.03-9.86-.43-12.98-2.2-17.5-1.18-3.03-3.63-6.98-5.44-8.8-2.49-2.5-4.36-3.4-7.78-3.73-2.47-.25-5.62.09-7 .74-1.37.66-4.26 2.56-6.41 4.24zM171 157.66c-2.47 2.74-5.97 7.88-7.77 11.41-1.81 3.54-4.44 10.48-5.86 15.43-2 6.99-2.7 12.12-3.11 23-.42 11.1-.17 15.66 1.2 22 .96 4.4 3.16 10.67 4.89 13.93 1.94 3.65 4.69 7.03 7.15 8.78 3.02 2.15 5.1 2.83 8.5 2.8 2.87-.04 5.95-.91 8.5-2.43 2.2-1.3 5.38-4.11 7.08-6.23 1.69-2.12 4.23-5.87 5.65-8.35 1.42-2.48 3.7-7.65 5.08-11.5 1.37-3.85 3.27-11.05 4.2-16 1.26-6.61 1.59-12.32 1.26-21.5-.36-10.05-.97-14.07-3.12-20.5-1.71-5.13-4.01-9.58-6.41-12.42-2.06-2.43-5.2-5.02-6.99-5.75-1.79-.73-4.26-1.32-5.5-1.31-1.24.01-4.05.84-6.25 1.84-2.2.99-6.03 4.05-8.5 6.8zm56.9 6.47c.05 1.03 2.46 4.61 5.35 7.97 2.89 3.35 7.43 9.09 10.09 12.75 2.67 3.66 6.77 10.47 9.11 15.15 2.35 4.68 5.5 12.32 7.01 17 1.58 4.9 3.65 9.26 4.89 10.29 1.18.99 3.28 1.79 4.65 1.78 1.38-.01 3.5-1.04 4.73-2.29 1.22-1.26 2.24-3.4 2.26-4.78.02-1.37-1.26-6.32-2.84-11-1.57-4.68-4.79-12.32-7.15-17-2.35-4.68-6.2-11.43-8.55-15-2.35-3.57-6.83-9.43-9.97-13-3.13-3.57-6.44-7.07-7.34-7.77-.9-.69-3.07-1.26-4.82-1.25-2.22.01-3.85.82-5.36 2.65-1.19 1.45-2.12 3.48-2.06 4.5zm-18.4 95.48c-3.85 1.85-10.82 4.51-15.5 5.91-4.68 1.4-13.9 3.64-20.5 4.97-6.6 1.33-15.82 2.9-20.5 3.49-4.68.59-17.16 1.06-27.75 1.04-10.59-.01-22.74-.5-27-1.09-4.26-.58-11.12-1.75-15.25-2.6-4.12-.84-11.55-3.34-16.5-5.54-4.95-2.2-9.89-4.06-10.97-4.14-1.17-.09-2.08.56-2.25 1.6-.15.96.78 2.76 2.07 4 1.29 1.24 3.65 3.4 5.25 4.8 1.59 1.4 5.44 7.48 8.55 13.5 3.11 6.02 7.03 15.45 8.71 20.95 1.67 5.5 3.71 13.38 4.52 17.5.81 4.13 1.77 10.2 2.12 13.5.36 3.3 1.3 8.14 2.08 10.75 1.16 3.88 2.19 5.2 5.67 7.22 2.34 1.36 8.07 3.58 12.75 4.93 4.68 1.35 11.2 2.94 14.5 3.53 3.3.6 11.74 1.08 18.75 1.08 8.69-.01 15.86-.64 22.5-1.98 5.36-1.08 12.22-2.82 15.25-3.87 3.02-1.05 8.2-3.18 11.5-4.73 3.3-1.54 8.7-4.61 12-6.82 3.3-2.21 8.18-6.06 10.85-8.56 2.67-2.5 6.8-7.48 9.17-11.05 2.38-3.57 5.67-9.87 7.32-14 1.65-4.12 3.75-11.1 4.66-15.5.92-4.4 2.09-14.07 2.62-21.5.53-7.43.72-16.54.42-20.25-.43-5.43-.93-6.95-2.54-7.75-1.1-.55-2.56-.98-3.25-.96-.69.03-3.73 1.88-6.75 4.13-3.02 2.24-8.65 5.59-12.5 7.44zM98.25 147c3.82 0 5.31.54 7.62 2.75 1.58 1.51 3.43 4.78 4.12 7.25.78 2.83 1.02 7.28.66 12-.39 4.92-1.43 9.22-3.02 12.5-1.33 2.75-4.16 6.46-6.28 8.24-2.12 1.78-5.2 3.52-6.85 3.85-1.65.34-4.46.34-6.25.01-2.49-.46-3.96-1.71-6.26-5.35-2.71-4.26-3.02-5.58-3.02-12.75-.01-4.67.64-9.87 1.55-12.5.86-2.47 2.67-6.19 4.02-8.25 1.35-2.06 3.92-4.65 5.71-5.75 2.05-1.25 5.01-1.99 8-2zm86.5 9c1.24 0 3.71.6 5.5 1.33 1.79.74 4.39 2.65 5.79 4.25 1.4 1.61 3.37 5.39 4.39 8.42 1.43 4.27 1.73 7.41 1.35 14-.32 5.54-1.3 10.59-2.83 14.5-1.29 3.3-3.94 7.6-5.9 9.56-1.95 1.95-5.35 4.14-7.55 4.86-2.2.71-5.46 1.03-7.25.69-1.79-.34-4.49-1.66-6-2.95-1.51-1.28-3.84-4.54-5.17-7.25-2.1-4.24-2.43-6.33-2.44-15.41-.01-8.12.44-11.63 1.96-15.5 1.09-2.75 3.1-6.65 4.48-8.68 1.45-2.11 4.4-4.55 6.97-5.75 2.45-1.14 5.46-2.07 6.7-2.07zm38.51 107.66c.52.25.87 3.69.78 7.65-.08 3.95-.47 8.92-.85 11.04-.69 3.84-.71 3.86-11.19 7.79-5.77 2.17-14.55 5.03-19.5 6.36-4.95 1.33-13.27 3.21-18.5 4.17-7.39 1.37-14.94 1.77-34 1.79-18.55.01-27.05-.4-35-1.71-5.78-.94-13.2-2.43-16.5-3.3-3.3-.87-6.05-1.66-6.1-1.76-.06-.11-1.74-3.56-3.74-7.69-2-4.12-3.64-8.06-3.65-8.75 0-.69.33-1.24.74-1.23.41.02 2.55.46 4.75.99s8.5 1.74 14 2.69c7.42 1.28 15.8 1.73 32.5 1.75 13.82.02 25.78-.48 31-1.29 4.68-.73 13-2.23 18.5-3.34 5.5-1.11 15.06-3.55 21.25-5.42 6.19-1.87 14.25-4.93 17.91-6.8 3.66-1.86 7.08-3.19 7.6-2.94zM170 324.55c.82.16 3.97.56 7 .9 3.15.35 8.24 1.99 11.91 3.83 3.53 1.77 6.9 4.04 7.5 5.04.9 1.5.57 2.24-1.91 4.24-1.65 1.33-5.48 3.74-8.5 5.36-3.02 1.62-9.78 4.38-15 6.13-5.22 1.75-13.32 3.8-18 4.56-4.68.76-12.55 1.38-17.5 1.39-4.95 0-12.78-.56-17.39-1.25-5.76-.86-8.54-1.72-8.87-2.75-.27-.82.24-3.3 1.12-5.5.89-2.2 2.97-5.69 4.63-7.75 1.87-2.33 5.56-4.96 9.76-6.95 5.05-2.39 8.19-3.21 12.45-3.25 3.13-.03 6.28.48 7 1.14 1.06.96.84 1.89-3.59 8.81l4.69-4.25c2.59-2.34 6.61-5.21 8.95-6.39 2.34-1.18 6.5-2.47 9.25-2.87 2.75-.39 5.68-.59 6.5-.44z" style="fill:#fefefe"/></svg>