<svg xmlns="http://www.w3.org/2000/svg" viewBox="0 0 387 317" width="387" height="317"><style></style><path id="Path 0" d="M296.5.23c-1.65.59-4.8 2.29-7 3.78-2.2 1.48-5.35 4.38-7 6.42-1.65 2.05-4.35 5.18-6 6.97-2.39 2.58-4.33 3.5-9.5 4.5-3.57.69-11.45 2.8-17.5 4.69-7.57 2.36-15.21 5.78-24.5 10.97-7.43 4.15-18 9.72-23.5 12.38s-11.12 5.17-12.5 5.58c-1.37.41-7.45 1.52-13.5 2.46-7.97 1.25-12.38 2.5-16 4.55-2.75 1.56-7.47 4.56-10.5 6.68-4.25 2.97-6.97 4.05-12 4.76-3.57.5-9.43 1.4-13 1.99-3.58.6-9.42 1.72-13 2.5-3.58.79-7.85 1.94-9.5 2.57-1.65.63-4.35 2.37-6 3.86-1.65 1.49-5.47 3.65-8.5 4.79-3.03 1.14-9.33 2.36-14 2.71-6.34.47-9.38 1.2-11.95 2.87-2.47 1.6-3.84 3.52-4.82 6.74-.87 2.87-1.17 6.86-.83 11 .3 3.58.83 7.4 1.18 8.5.48 1.5-.41 3-3.54 6-2.29 2.2-5.49 6.36-7.1 9.25L43 142c-5.81-4.92-9.86-7.4-12.75-8.68C27.36 132.05 24.1 131 23 131c-1.1 0-3.57.68-5.5 1.5-1.93.82-5.35 3.41-7.61 5.75-2.27 2.34-5.04 6.05-6.16 8.25s-2.6 6.03-3.29 8.5c-1.07 3.85-.99 5.58.55 12 1 4.13 3.31 10.88 5.13 15 1.83 4.13 4.24 8.87 5.35 10.54 1.12 1.67 5.85 10.62 10.53 19.88 6.11 12.11 10.21 18.85 14.57 23.97 4.87 5.7 7.64 7.92 14 11.2 6.21 3.2 8.41 4.94 10.14 8 1.21 2.15 2.88 7.06 3.7 10.91.82 3.85 1.78 10.15 2.12 14 .34 3.85 1.28 9.7 2.09 13 .92 3.74 2.49 7.05 4.18 8.77 1.48 1.53 3.6 2.77 4.7 2.78 1.1 0 2.98-1.02 4.18-2.27 1.19-1.26 2.52-3.63 2.95-5.28.43-1.65 3.05-5.99 5.82-9.64 2.78-3.64 6.18-7.54 7.55-8.66 1.38-1.12 4.19-2.75 6.25-3.62 2.98-1.25 4.52-1.36 7.5-.52 2.06.58 6.9 2.6 10.75 4.49 4.85 2.37 9.62 5.94 15.5 11.61 4.68 4.51 10.3 9 12.5 9.99 2.2 1 5.01 1.82 6.25 1.83 1.24.01 3.04-.37 4-.85s2.09-2.05 2.5-3.5c.49-1.7.22-3.69-.75-5.63-.82-1.65-3.86-4.53-6.75-6.4-2.89-1.86-6.6-4.84-8.25-6.61-1.65-1.77-4.69-4.29-6.75-5.6-2.06-1.32-3.75-3.07-3.75-3.89 0-1.08.63-1.32 2.25-.85 1.24.35 2.7 1.28 3.25 2.06.73 1.03 1.81 1.2 3.95.6 1.64-.45 3.74-2.13 4.74-3.81.99-1.65 1.8-3.79 1.81-4.75 0-.96-1.52-3.44-3.37-5.5s-5.34-5.09-7.75-6.73c-2.41-1.64-6.35-4.56-8.75-6.5-2.41-1.94-5.41-5.32-6.67-7.52-1.27-2.2-3.46-4.56-4.88-5.25-1.42-.69-5.39-1.23-8.83-1.21-3.85.03-6.73-.45-7.51-1.25-.95-.97-.99-2.02-.18-4.29.6-1.65 1.64-3.68 2.32-4.5.69-.82 2.57-4.83 4.18-8.89 1.62-4.07 3.61-7.61 4.44-7.87.83-.27 4.2.58 7.5 1.89 5.03 1.99 7.78 2.37 16.98 2.37h10.97c5.48 10.07 8.09 14.35 9.34 16 1.25 1.65 2.26 3.34 2.24 3.75-.01.41 2.56 3.37 5.72 6.57 3.16 3.2 12.28 12.93 20.25 21.62 7.97 8.69 21.25 22.76 29.5 31.27 8.25 8.51 17.25 16.91 20 18.67 2.75 1.75 7.03 3.98 9.5 4.96 2.47.97 7.43 2.02 11 2.34 3.61.32 13.83-.18 23-1.14 10.56-1.09 22.08-1.59 32-1.38 14.55.32 15.9.52 22 3.23 3.57 1.59 8.75 3.07 11.5 3.29 4.19.34 5.52-.01 8.25-2.14 1.91-1.5 3.26-3.47 3.28-4.79.02-1.24-.77-2.98-1.75-3.87-.98-.89-2.79-2.13-4.03-2.75-1.24-.62-5.74-2.02-10-3.11-4.26-1.1-10-2-12.75-2.01-2.75-.01-7.59-.58-10.75-1.27-3.35-.72-5.96-1.86-6.25-2.74-.28-.82-.11-1.95.37-2.5s3.29-2.07 6.25-3.38 12.81-3.91 21.88-5.79c10.34-2.14 17.17-4.05 18.29-5.12.99-.94 2-2.5 2.25-3.46s.01-2.65-.54-3.75-2.46-2.73-4.25-3.63c-1.79-.89-5.73-1.67-8.75-1.72-3.98-.08-6.6.51-9.5 2.13-2.2 1.24-5.8 3.1-8 4.15-2.2 1.05-8.27 3.02-13.5 4.38-5.23 1.36-12.09 2.75-15.25 3.08L297 280c.03-9.08-.5-12.03-1.23-12.77-.7-.69-2.62-1.24-4.27-1.22-2.34.04-4.64 1.64-10.5 7.33-4.12 4.01-8.29 8.5-9.25 9.97-.96 1.48-3.1 3.37-4.75 4.19-2.59 1.29-3.38 1.31-5.75.11-1.51-.77-5.5-4.48-8.85-8.25-3.36-3.77-7.03-8.66-8.17-10.86-1.13-2.2-3.72-5.57-5.75-7.5-2.04-1.93-6.24-6.65-9.33-10.5-3.1-3.85-8.01-10.6-10.93-15-2.91-4.4-6.18-10.93-7.28-14.5-1.09-3.57-1.98-7.4-1.98-8.5.01-1.1.84-4.47 1.85-7.5 1.01-3.03 4.17-8.99 7.02-13.25 2.84-4.26 6.63-9.22 8.42-11.02 1.79-1.8 6.18-5.68 9.75-8.63 3.57-2.95 7.74-5.98 9.25-6.73 1.51-.75 3.99-1.37 5.5-1.38 1.51 0 3.88.76 5.25 1.71 1.38.94 3.09 2.4 3.81 3.25.72.85 4.67 8.52 8.78 17.05 4.11 8.53 8.3 17.07 9.32 19 1.02 1.93 2.81 6.99 3.97 11.25 2.09 7.62 2.09 7.82.27 12-1.02 2.34-2.84 5.15-4.04 6.25-1.4 1.29-2.16 3.16-2.14 5.25.02 1.85.57 3.3 1.28 3.37.69.06 2.15.01 3.25-.11s3.35-.89 5-1.71 4.01-1.22 5.25-.9c1.31.35 2.87 2.06 3.75 4.1.82 1.93 1.5 4.85 1.5 6.5 0 2 .67 3.33 2 4 1.1.55 3.13 1 4.5 1 1.76 0 3.07-.97 4.43-3.25 1.07-1.79 3.66-4.25 5.75-5.47 2.45-1.42 5.53-2.23 8.57-2.25 2.61-.02 6.89.46 9.5 1.05 2.61.6 7.9 2.01 11.75 3.14 3.85 1.13 8.12 2.78 9.48 3.67 1.37.89 4.18 3.3 6.25 5.36 2.48 2.46 4.71 3.76 6.52 3.79 1.51.03 3.88-.83 5.25-1.91 2.06-1.61 2.46-2.72 2.29-6.29-.17-3.71.16-4.52 2.25-5.59 1.36-.69 2.88-2.04 3.39-3 .62-1.15.52-2.61-.27-4.25-.66-1.37-3.22-3.86-5.68-5.53-2.46-1.67-7.85-4.45-11.98-6.19-4.12-1.73-13.12-4.57-20-6.31-6.87-1.74-15.65-4.7-19.5-6.58-5.56-2.72-7.38-4.19-8.85-7.16-1.01-2.05-2.25-5.98-2.73-8.73-.49-2.75-1.54-8.15-2.34-12-.79-3.85-2.08-8.8-2.86-11-.79-2.2-3.69-8.28-6.44-13.5-2.76-5.22-5.58-11.3-6.27-13.5-.7-2.2-1.02-5.12-.71-6.5.31-1.37 4.38-7 9.05-12.5 5.09-5.98 8.94-11.51 9.58-13.75.78-2.74 4.11-6.78 12.37-15 6.21-6.19 18.47-18.69 27.25-27.79 8.77-9.09 18.76-20.34 22.2-25C374.19 45.31 378.8 39.02 381 36c2.64-3.63 4.37-7.37 5.09-11 .6-3.02.83-6.96.5-8.75-.32-1.79-1.49-4.15-2.59-5.25-1.1-1.1-3.69-2.23-5.75-2.52-2.06-.28-6.9-1.23-10.75-2.1-3.85-.88-9.36-2.45-12.25-3.49-3.71-1.33-7.67-1.86-13.5-1.77-4.54.06-9.6.41-11.25.77-1.69.37-6.49-.11-11-1.09-4.4-.97-10.7-1.73-14-1.7-3.3.03-7.35.54-9 1.13z" style="fill:#fefefe"/></svg>