<svg xmlns="http://www.w3.org/2000/svg" viewBox="0 0 236 235" width="236" height="235"><style></style><path id="Path 0" fill-rule="evenodd" d="M121 2.48c16.86.34 20.65.72 28 2.81 4.68 1.32 9.4 2.77 10.5 3.2 1.1.43 4.93 2.13 8.5 3.78 3.57 1.64 9.09 4.73 12.25 6.86s6.09 3.88 6.5 3.9c.41.02 2.55 1.55 4.75 3.41 2.2 1.85 6.5 5.78 9.56 8.72 3.06 2.94 7.6 8.04 10.09 11.34 2.5 3.3 6.87 10.27 9.72 15.5 2.85 5.22 5.18 9.84 5.16 10.25-.02.41.41 1.54.95 2.5.53.96 2.07 5.58 3.42 10.25s2.94 12.33 3.53 17c.6 4.67 1.06 12.55 1.04 17.5-.02 4.95-.63 12.82-1.35 17.5-.72 4.68-2.39 11.77-3.71 15.76-1.33 4-2.75 7.26-3.16 7.25-.41 0-.75 1.12-.75 2.49 0 1.38-1.18 4.86-2.63 7.75-1.45 2.89-5.23 9.07-8.41 13.75-3.18 4.68-9.91 12.55-14.95 17.5-5.04 4.95-11.95 10.76-15.34 12.9-3.39 2.15-7.29 4.63-8.67 5.51-1.37.89-5.43 2.91-9 4.49-3.57 1.58-7.4 3.23-8.5 3.67-1.1.43-4.25 1.44-7 2.24-2.75.81-7.7 2.08-11 2.83-3.83.87-12.15 1.35-23 1.33-14.36-.02-18.4-.38-26-2.31-4.95-1.26-11.03-2.96-13.5-3.78-2.47-.81-8.33-3.39-13-5.72-4.67-2.34-11.65-6.45-15.5-9.14-3.85-2.69-10.8-8.75-15.44-13.46-4.64-4.71-10.03-11.03-11.99-14.06-1.95-3.03-4.1-6.4-4.77-7.5-.67-1.1-1.63-2.9-2.14-4-.51-1.1-2.56-5.37-4.56-9.5-1.99-4.12-4.74-12.11-6.11-17.75-1.56-6.41-2.72-14.84-3.11-22.5-.38-7.41-.16-16 .56-21.75.65-5.22 1.8-11.75 2.55-14.5.74-2.75 2.23-7.47 3.29-10.5 1.07-3.03 3.58-8.76 5.58-12.75s5.16-9.61 7.01-12.5c1.85-2.89 6.22-8.4 9.71-12.25 3.49-3.85 7.94-8.48 9.88-10.29 1.95-1.82 6.69-5.41 10.54-7.99 3.85-2.58 10.6-6.5 15-8.72 4.4-2.22 10.7-4.83 14-5.81 3.3-.98 7.58-2.21 9.5-2.72 1.92-.51 5.53-1.37 8-1.91 2.47-.53 13.28-.79 24-.58zM108.42 62.5c-.93 2.2-2.58 6.03-3.66 8.5-1.09 2.47-3.2 7.2-4.7 10.5s-3.82 6.72-5.15 7.61c-1.68 1.12-6.03 1.82-14.41 2.31-6.6.39-14 1.24-16.44 1.9-3.17.84-4.97 2.04-6.25 4.18-.99 1.65-1.82 4.13-1.84 5.5-.03 1.75 1.55 4 5.26 7.5 2.91 2.75 8.56 7.92 12.55 11.5s7.69 7.74 8.23 9.25c.55 1.51.79 3.09.54 3.5-.24.41-1.41 5.25-2.59 10.75-1.17 5.5-2.32 10.9-2.54 12-.23 1.1-.64 3.46-.92 5.25-.42 2.73.06 3.81 3 6.75 1.92 1.93 4.4 3.5 5.5 3.5 1.1 0 3.91-.91 6.25-2.02 2.34-1.11 7.17-3.85 10.75-6.1 3.58-2.24 8.3-4.98 10.5-6.09 2.6-1.3 4.96-1.79 6.75-1.4 1.51.34 6.91 3.05 12 6.02 5.09 2.98 9.49 5.34 9.77 5.25.29-.09 1.64.86 3 2.11 1.37 1.25 3.72 2.26 5.23 2.25 1.51-.01 3.88-.47 5.25-1.02 1.38-.55 3.18-2.35 4-4 .82-1.65 1.51-4.01 1.52-5.25.01-1.24-.41-2.7-.92-3.25-.52-.55-1.17-3.25-1.45-6-.29-2.75-1.22-7.7-2.07-11-.85-3.3-1.56-7.46-1.56-9.25-.02-2.7 1.13-4.39 6.83-10 3.77-3.71 9.52-9.22 12.78-12.25 5.64-5.22 5.92-5.71 5.65-9.75-.23-3.53-.83-4.62-3.53-6.43-2.72-1.82-5.79-2.38-18.75-3.43-14.65-1.18-15.62-1.39-17.75-3.82-1.24-1.41-2.54-3.81-2.9-5.32-.35-1.51-1.48-3.99-2.5-5.5-1.02-1.51-1.84-3.09-1.84-3.5.01-.41-.89-2.66-2-5-1.1-2.34-2.01-4.7-2.01-5.25 0-.55-1.46-2.56-3.25-4.46-2.3-2.44-4.13-3.46-6.25-3.47-1.65-.01-4.21.76-5.7 1.71-1.48.94-3.45 3.52-4.38 5.72zm9.5 9.41c.32.43 1.86 1.2 3.43 1.69 2.28.72 3.39 2.21 5.53 7.4 1.47 3.58 3.57 8.29 4.65 10.48 1.22 2.46 2.92 4.24 4.47 4.68 1.38.39 6.78 1.23 12 1.87 7.29.89 10.03 1.67 11.78 3.32 1.25 1.18 2.26 2.94 2.25 3.9-.02.96-1.02 3.21-2.23 5s-2.9 3.64-3.75 4.13c-.85.48-4.14 3.52-7.3 6.75-5.59 5.71-5.73 5.99-5.11 10.12.35 2.34 1 4.7 1.45 5.25.44.55 1.17 4.21 1.61 8.12.65 5.75.51 7.45-.7 8.8-.89.99-2.92 1.64-5 1.6-2-.05-6.49-1.67-10.49-3.8-3.85-2.05-7.68-4.33-8.5-5.08-.98-.88-2.57-1.13-4.51-.71-1.65.36-3.22 1.01-3.5 1.46-.28.44-1.68 1.43-3.12 2.21-1.43.77-4.92 2.64-7.75 4.15-2.82 1.51-6.25 2.75-7.63 2.75-1.37 0-3.4-.45-4.5-1-1.62-.81-2-1.99-1.98-6.25.01-2.89.5-8.18 1.08-11.75.58-3.57 1.13-7.25 1.23-8.16.09-.92-1.86-4.16-4.33-7.21-2.47-3.04-4.95-5.55-5.5-5.57-.55-.03-2.46-1.74-4.25-3.8-1.8-2.08-3.26-4.88-3.26-6.26 0-1.37.67-3.51 1.5-4.75.88-1.31 2.86-2.44 4.76-2.7 1.79-.25 6.97-1.04 11.53-1.75 6.56-1.03 8.88-1.87 11.25-4.05 1.63-1.51 2.96-3.54 2.94-4.5-.01-.96 1.07-4.22 2.41-7.25 1.52-3.44 3.66-6.32 5.7-7.69 1.79-1.21 3.52-1.84 3.84-1.4z" style="fill:#feffff"/></svg>