<svg xmlns="http://www.w3.org/2000/svg" viewBox="0 0 639 836" width="639" height="836"><style>.shp0,.shp1{fill:#fefefe}.shp1{opacity:.059}</style><g id="Background"><path id="Path 0" fill-rule="evenodd" class="shp0" d="M227 1.05c7.43-.03 18.45.41 24.5.97 6.05.57 20.45 2.39 32 4.06 11.55 1.67 32.25 5.45 46 8.4 13.75 2.96 30.48 6.64 49.35 11.02l.4 20.5c.24 12.62.85 21.56 1.57 23.25.65 1.51 1.86 2.75 2.68 2.75.82 0 2.91 1.24 4.64 2.75 1.72 1.51 4.05 4.55 5.17 6.75 1.13 2.2 3.5 7.83 5.28 12.5 3.09 8.1 3.38 8.49 6.08 8.21 1.55-.16 6.65-.54 11.33-.85 6.15-.41 12.52.05 23 1.65 12.79 1.96 16.56 2.13 32 1.48 12.99-.55 18.53-.41 21.5.51 2.2.69 4.84 1.98 5.87 2.88 1.03.89 2.21 2.52 2.63 3.62.45 1.17.3 2.54-.37 3.29-.77.89-3.97 1.29-10.13 1.26-4.95-.02-18-.95-29-2.07-11-1.11-25.62-2.07-32.5-2.12-6.87-.05-15.43.5-19 1.22-3.57.73-7.29 2.14-8.25 3.12-1.05 1.08-1.74 3.31-1.73 5.55.01 2.06-.85 6.68-1.92 10.25-1.07 3.57-3.61 8.75-5.64 11.5s-5.56 6.93-11.96 13.57l.77 15.71c.42 8.65 1.14 17.07 1.59 18.72.77 2.86 1.41 3.17 13.73 6.64 7.1 2 16.96 5.3 21.91 7.33 4.95 2.03 12.82 5.98 17.5 8.76 4.68 2.79 12.55 8.11 17.5 11.81 4.95 3.71 13.75 11.63 19.56 17.6 5.8 5.97 13.4 14.46 16.89 18.86 3.49 4.4 9.36 12.5 13.06 18 3.69 5.5 9.17 14.05 12.17 19 3 4.95 6.87 11.7 8.6 15 2.93 5.58 3.62 6.21 9.94 8.98 3.73 1.64 10.16 5.19 14.28 7.89 4.13 2.69 10.88 7.7 15 11.13 4.13 3.42 9.98 8.89 13 12.15 3.02 3.26 9.77 11.54 14.98 18.39 5.21 6.85 12.68 17.64 16.6 23.96 3.92 6.32 10.62 17.57 14.9 25 4.28 7.43 9.04 16.65 10.59 20.5 1.55 3.85 3.27 10.15 3.82 14 .55 3.85 1.25 9.59 2.11 18.5l-3.75-.04c-2.06-.01-4.87-.67-6.25-1.46-1.37-.79-3.06-1.45-3.75-1.46-.81-.03-1.26 1.47-1.28 4.21-.01 2.65-.67 4.91-1.75 6.01-1.46 1.49-2.79 1.66-8.72 1.1-4.39-.42-8.86-.21-12 .55-2.75.68-7.6 2.43-10.78 3.91-4.03 1.87-5.63 3.13-5.3 4.18.26.82 1.82 8.48 3.45 17 1.64 8.52 3.51 19.1 4.16 23.5.64 4.4 1.74 14.52 2.43 22.5.93 10.65.97 14.87.15 15.91-.61.78-3.36 2.42-6.11 3.64-2.75 1.23-7.7 2.94-11 3.8-3.3.86-15.23 3.15-26.5 5.08-11.27 1.92-22.19 3.97-24.25 4.54-2.52.69-4.08 1.85-4.75 3.53-.55 1.38-1.24 7.11-1.53 12.75-.29 5.64-.96 24.31-1.5 41.5-.92 29.59-1.11 31.66-3.56 39-1.43 4.26-3.45 8.99-6.41 13.25l4.17 4.75c2.3 2.61 5.46 6.77 7.04 9.25 1.57 2.48 3.76 7.42 4.85 11 1.48 4.87 1.98 9.33 1.96 17.75-.02 9.4-.45 12.53-2.61 19-1.42 4.26-4.07 9.77-5.89 12.25-1.83 2.48-4.28 5.4-5.45 6.5-1.18 1.1-2.12 2.34-2.1 2.75.02.41 1.94 1.46 4.28 2.32 2.77 1.02 12.09 2.08 26.75 3.04 12.38.8 24.27 2.01 26.43 2.67 2.17.67 5.2 2.46 6.75 3.97 1.86 1.81 2.82 3.78 2.82 5.75 0 2.67-.33 3-3 3-1.65 0-14.59-1.11-28.75-2.46-14.16-1.36-32.73-2.94-41.25-3.52-8.52-.57-24.95-1.05-36.5-1.07-11.55-.01-23.25.42-26 .95-2.75.54-6.91 1.68-9.25 2.54-2.34.86-4.7 1.33-5.25 1.06-.55-.27-1-1.17-1-2 0-.83-.68-2.17-1.5-3-1.11-1.11-3.83-1.5-10.5-1.5-4.95 0-10.12-.45-11.5-1-1.81-.73-2.5-1.75-2.51-3.75-.01-2.72.09-2.76 8.25-3.51 4.54-.42 8.63-1.09 9.07-1.5.45-.41-1.09-2.99-3.41-5.74-2.33-2.75-5.35-7.48-6.71-10.5-1.88-4.17-2.6-7.8-2.97-15-.28-5.39.03-12.53.72-16.5.66-3.85 2.62-10.37 4.35-14.5 1.74-4.12 5.52-10.42 13.66-20.5l-7.73-1.89c-4.24-1.04-7.84-1.94-7.99-2-.14-.06.21-12.94.8-28.61.58-15.67 1.48-33.45 1.99-39.5.52-6.05 1.74-14.26 2.71-18.23.97-3.98 1.54-7.24 1.27-7.25-.27 0-16.02 2.25-35 5-18.98 2.76-37.2 5.48-40.5 6.05-3.3.57-6.9 1.3-8 1.62-1.93.57-1.97 1.11-1.21 14.7.43 7.76 1.2 23.11 1.7 34.11s.93 28.1 1.02 56l-6.25 3.86c-3.45 2.13-6.94 4.24-7.76 4.7-1.18.66.1 2.48 6.06 8.64 4.15 4.29 8.71 9.38 10.12 11.3 1.41 1.92 3.59 6.2 4.84 9.5 1.53 4.04 2.47 9.26 3.48 26l3-.24c1.65-.13 9.75-.53 18-.87 9.65-.41 16.96-.24 20.5.48 3.02.61 6.4 1.77 7.5 2.56 1.36.97 1.68 1.78 1 2.5-.55.59-5.5 2.01-11 3.16-5.5 1.15-13.15 2.16-17 2.25-3.85.09-8.57-.2-10.5-.63-3.38-.77-4.05-.36-20 12.21-9.07 7.16-19.87 15.05-24 17.56-4.12 2.5-11.55 5.95-16.5 7.68-7.44 2.59-10.99 3.21-20.5 3.61-9.6.4-12.82.12-19.5-1.66-6.63-1.76-10.06-3.53-20.06-10.37-6.64-4.53-13.97-9.14-16.3-10.24-4.08-1.92-4.36-1.93-7.19-.25-1.64.97-4.95 1.75-7.45 1.75-3.61 0-5.01-.54-9.69-5.5h-23.16c-12.73 0-24.5.31-26.15.7-2.81.65-3.06.46-4-2.96-.84-3.09-1.55-3.77-4.5-4.38-1.93-.4-14.97-1.68-29-2.84s-28.2-2.59-31.5-3.17c-3.3-.58-7.01-1.46-8.25-1.95-1.3-.52-2.14-1.62-2-2.61.16-1.06 1.57-1.98 3.75-2.43 1.92-.4 17.67-.31 35 .19s42.07 1.82 55 2.93 32.72 2.7 44 3.54c11.28.84 20.95 1.93 21.5 2.43.65.58 1.43-2.63 2.24-9.28.69-5.59 2.18-13.77 3.31-18.17 1.14-4.4 4.31-12.73 7.04-18.5 2.73-5.77 4.96-10.73 4.96-11 0-.27-1.48-.86-3.28-1.31-1.8-.44-4.73-2.35-6.52-4.25-1.81-1.91-3.95-5.77-4.83-8.69-1.12-3.7-1.82-12.18-2.38-28.75-.77-22.6-.9-23.73-3.52-29.5-2.69-5.92-2.71-6.06-1.11-11 .98-3.05 1.58-8.12 1.52-13-.05-4.82-1.15-12.57-5.43-31l-42.5-.6c-33.42-.48-44.74-.98-53-2.34-5.78-.95-14.55-2.77-19.5-4.02-4.95-1.26-11.7-3.36-21-7.05l-.67-8.99c-.36-4.95-1.14-16.42-1.73-25.5-.59-9.08-1.41-26.99-2.6-63.1l-6-6.01-2.25 3.56C66.9 501.58 65.2 503 64 503c-1.1 0-4.14-.66-6.75-1.47-2.74-.84-12.8-1.89-23.75-2.47-10.92-.58-21.13-1.64-24-2.49-2.75-.82-5.9-2.14-7-2.93-1.93-1.39-1.95-1.77-.62-10.29.75-4.87 3.77-18.53 6.69-30.35 2.93-11.82 7.55-28.25 10.27-36.5 2.73-8.25 6.74-19.5 8.92-25 2.18-5.5 6.48-15.18 9.55-21.5 3.07-6.32 8.42-16.24 11.89-22.03 3.46-5.8 8.71-13.67 11.66-17.5 2.95-3.84 6.55-8 8-9.26 1.45-1.26 5.56-3.82 9.14-5.71 3.81-2 7.02-4.47 7.75-5.96.69-1.4 1.9-9.85 2.68-18.79.95-10.77 2.12-18.1 3.47-21.75 1.11-3.02 3.9-8.2 6.2-11.5 2.3-3.3 5.8-7.83 7.79-10.07 1.99-2.24 9.61-10.56 16.95-18.5 9.32-10.08 14.21-16.24 16.23-20.43 1.58-3.3 4.06-10.5 5.5-16 2.01-7.64 2.74-13.3 3.12-24 .27-7.7.08-18.05-.42-23-.7-6.82-1.99-11.71-9.77-31.38l-5-.54c-2.75-.3-14.9-1.77-27-3.26-13.81-1.71-27.03-2.73-35.5-2.74-7.42-.02-18.9.36-25.5.84-8.19.6-13.11.53-15.5-.21-1.93-.59-4.74-2.46-6.25-4.15-1.58-1.76-2.75-4.23-2.77-8.56l6.76.74c3.72.4 22.51 1.4 41.76 2.22 19.25.82 42.2 2 51 2.62 8.8.62 16.34 1.31 16.75 1.53.41.21 2.6-3.32 4.87-7.86 2.26-4.54 6.9-12.53 10.31-17.75 3.4-5.22 8.35-14.22 11-20 2.65-5.78 6.63-13.87 8.86-18 2.23-4.12 5.43-9.52 7.12-12 1.69-2.48 5.55-7.01 8.58-10.08 3.03-3.07 7.31-6.79 9.51-8.26 2.2-1.47 6.93-3.77 10.5-5.11 5.68-2.14 8.2-2.45 20-2.5zm-9.85 14.15c-.61 1.81-2.48 9.15-4.17 16.3s-4.14 19.75-5.45 28c-1.31 8.25-3.07 20.85-3.91 28-.84 7.15-1.77 15.47-2.08 18.5-.31 3.03-1.23 16.07-2.05 29-.81 12.93-1.48 27.89-1.49 33.25V178c12.01-1.16 30.57-1.47 49-1.43 25.1.06 36.76.49 46.5 1.75 7.15.92 20.88 2.81 30.5 4.21 9.63 1.39 24.36 3.65 32.75 5 8.39 1.36 15.59 2.48 16 2.49.41 0 .38-2.13-.07-4.75-.45-2.63-1.21-36.95-1.67-76.27-.47-39.33-1.23-72.55-1.68-73.82-.66-1.84-2.52-2.84-8.83-4.75-4.4-1.33-13.4-3.51-20-4.86-6.6-1.34-18.75-3.39-27-4.54-8.25-1.16-30.07-3.42-48.5-5.03-18.43-1.6-36.48-3.18-40.13-3.51l-6.63-.59m-24.15 16.69c-3.51 3.25-9.95 11.08-14.31 17.41l-7.94 11.5c5.68 15.5 8.41 25.17 9.73 31.5 1.61 7.65 2.42 14.85 2.43 21.5.02 6.93-.61 12.46-2.05 18-1.2 4.65-3.51 10.2-5.51 13.25-3.22 4.91-3.65 5.21-6.69 4.68-1.79-.32-5.5-.99-8.25-1.5s-5.12-.82-5.27-.68c-.14.14-.92 4.53-1.72 9.75-.8 5.22-1.77 16.7-2.15 25.5-.39 8.8-.4 16.79-.03 17.75.59 1.55 1.77 1.19 10.42-3.23 5.36-2.74 13.24-7.24 17.5-10L188 179c0-18.99.66-32.6 1.47-42.5.81-9.9 3.75-38.02 6.54-62.5 2.79-24.48 4.93-46.03 4.76-47.91l-.3-3.4m-42.59 63.05c.07.69-.78 1.82-1.88 2.51-1.1.69-1.77 1.47-1.49 1.75s-.16 1.85-.98 3.5-2.01 5.47-2.63 8.5c-.63 3.03-.86 8.09-.52 11.25.36 3.35 1.77 7.88 3.37 10.87 1.51 2.81 3.76 5.51 5 6 1.24.48 2.36 1.3 2.5 1.82.14.51 2.5 1.24 5.25 1.6l5 .66c1.93-9.07 2.48-16.65 2.48-22.7 0-6.64-.8-15.36-2.01-22-1.1-6.05-2.56-11.58-3.24-12.29-.67-.72-1.52-1.28-1.87-1.25-.35.02-2.54 1.95-4.87 4.28s-4.18 4.81-4.11 5.5zm223.69 5.76c-.87 2.75-2.03 8.83-2.57 13.5s-.99 14.91-.99 22.75c-.01 7.84.22 14.93.49 15.75.35 1.05 1.13 1.27 2.59.75 1.15-.41 2.81-1.87 3.7-3.25.88-1.37 2.58-4.3 3.76-6.5 1.19-2.2 2.67-6.36 3.3-9.25.63-2.89 1.15-8.06 1.16-11.5 0-3.44-.49-8.95-1.08-12.25-.6-3.3-1.72-7.01-2.51-8.25-.78-1.24-1.22-2.81-.97-3.5.24-.69-.57-2.33-1.8-3.65-1.74-1.87-2.38-2.09-2.87-1-.34.77-1.34 3.65-2.21 6.4zM266.5 186.53c-5.88 1.83-6.17 1.83-15-.08-6.96-1.51-12.51-1.92-24.5-1.82-10.36.08-17.99.68-23 1.79-4.12.92-7.93 2.1-8.45 2.62-.52.53-1.99.96-3.25.96-1.27 0-3.09.4-4.05.88-.96.49-2.87 1.34-4.25 1.9-1.37.55-5.87 2.67-10 4.71-4.12 2.03-8.4 4.22-9.5 4.87-1.1.65-4.03 2.49-6.5 4.09-2.47 1.6-4.95 3.27-5.5 3.7-.55.44-2.35 1.95-4 3.36-1.65 1.42-3.68 2.78-4.5 3.04-.82.25-2.51 2.03-3.75 3.95-1.24 1.93-4.05 4.74-6.26 6.25-2.2 1.51-4.23 3.76-4.5 5-.27 1.24-1.39 2.47-2.49 2.75-1.1.28-2 1.18-2 2 0 .82-.67 1.72-1.5 2s-1.5.95-1.5 1.5-1.24 2.92-2.75 5.27c-1.51 2.34-3.33 5.16-4.03 6.25-.71 1.09-3.26 6.03-5.68 10.98-2.41 4.95-5.29 11.7-6.38 15-1.1 3.3-2.71 9.49-3.58 13.75-.87 4.26-1.58 9.32-1.58 11.25 0 2.97.49 3.73 3.25 5.02 1.79.84 4.26 1.51 5.5 1.5 1.59-.01 2.25.57 2.25 1.98 0 1.1-.71 2.68-1.57 3.5-.87.82-1.88 1.5-2.25 1.51-.37 0-1.68 1.46-2.91 3.25-2.12 3.07-2.24 4.26-2.31 22.74-.03 10.73-.46 27.15-.95 36.5-.49 9.35-1.6 23.98-2.47 32.5-.87 8.52-2 19.55-2.5 24.5-.51 4.95-1.65 15.52-2.53 23.5-.89 7.98-1.99 24.85-2.46 37.5-.48 13.05-.47 31.87.04 43.5.64 14.73 1.24 20.69 2.15 21.16.69.36 5.54.91 10.76 1.22 5.22.31 23.45 1.02 40.5 1.58s46.3 1.5 65 2.07c18.7.58 39.4 1.46 46 1.96 6.6.5 17.85 1.69 25 2.63 7.15.94 16.82 1.66 21.5 1.59 4.68-.07 16.15-1.05 25.5-2.18 9.35-1.13 23.3-2.72 31-3.53 7.7-.81 16.93-1.91 20.5-2.46 3.57-.54 11.45-1.47 17.5-2.06 6.05-.59 22.25-2.42 36-4.07 13.75-1.65 37.38-4.58 52.5-6.51 15.13-1.93 43.92-5.74 64-8.47 20.08-2.72 36.56-5.06 36.63-5.19.07-.13-1.39-7.89-3.23-17.24-1.85-9.35-4.28-21.05-5.41-26-1.12-4.95-4.1-17.55-6.63-28-2.52-10.45-5.24-20.8-6.05-23-.81-2.2-2.3-5.8-3.31-8-1-2.2-2.76-6.93-3.9-10.5-1.14-3.57-4.33-15.95-7.09-27.5s-6-24.6-7.21-29c-1.2-4.4-3.31-10.48-4.68-13.5-1.38-3.02-2.85-5.95-3.28-6.5-.43-.55-2.91-3.7-5.51-7-2.6-3.3-5.31-6.56-6.03-7.25-.71-.69-1.29-1.59-1.28-2 .01-.41-.89-1.76-2-3-1.11-1.24-2.71-3.71-3.55-5.5-.84-1.79-2.88-5.73-4.52-8.75-1.65-3.02-4.29-7.75-5.87-10.5s-3.82-6.8-4.97-9-2.99-5.35-4.07-7c-1.09-1.65-2.66-4.35-3.49-6-.83-1.65-2.08-3.9-2.78-5-.7-1.1-2.67-4.02-4.39-6.5-1.72-2.48-3.82-5.85-4.68-7.5-.86-1.65-2.94-4.46-4.63-6.25S472 253.55 472 253c0-.55-4.73-5.72-10.5-11.5s-13.19-12.3-16.47-14.5c-3.28-2.2-6.54-3.98-7.25-3.96-.7.03-1.79-.53-2.41-1.25-.63-.71-5.58-3.26-11-5.66-5.43-2.4-10.77-4.72-11.87-5.14-1.1-.43-3.57-1.45-5.5-2.27-1.93-.82-5.3-2.05-7.5-2.73-2.2-.69-4.58-1.75-5.29-2.37-.96-.83-1.59-.8-2.45.13-.65.7-3.5 1.25-6.46 1.25-3.25 0-9.84-1.4-17.05-3.61-6.46-1.99-15.57-4.87-20.25-6.4-4.68-1.53-14.12-4.16-21-5.83-6.87-1.67-17.9-3.75-24.5-4.62-6.6-.87-13.12-1.76-14.5-1.98-1.37-.22-5.43.16-9 .85-3.57.69-9.2 2.09-12.5 3.12zM77.5 327.5c9.14.44 10.5.89 10.5 2 0 .82-.45 1.5-1 1.5s-3.36-.48-6.25-1.07l-5.25-1.08c-5.95 5.93-9.66 10.24-12.09 13.4-2.42 3.16-4.41 6.2-4.41 6.75 0 .55-.45 1-1 1s-1.25.79-1.56 1.75c-.3.96-1.83 4.23-3.4 7.25-1.56 3.02-2.55 5.78-2.19 6.12.36.34 5.69 1.46 11.86 2.5 6.16 1.03 11.11 2.01 11 2.16-.12.16-5.38-.4-11.71-1.25-6.33-.84-11.95-1.54-12.5-1.54-.55 0-2.09 2.81-3.43 6.25-1.34 3.45-2.74 6.71-3.12 7.26-.38.55-1.2 3.36-1.82 6.25-.62 2.89-1.58 5.48-2.13 5.75-.55.27-1.34 2.8-1.75 5.61-.41 2.82-1.09 5.29-1.5 5.5-.41.22-.74 1.63-.73 3.14.01 1.51-.4 3.2-.9 3.75-.5.55-2.19 6.27-3.76 12.72-1.57 6.44-2.63 11.94-2.36 12.2.27.27 5.9 1.2 12.5 2.07 6.6.88 16.27 2.47 21.5 3.55 5.22 1.09 12.25 2.53 15.61 3.22l6.12 1.24c1.02-17.05 1.77-25.15 2.32-29 .55-3.85 1.67-12.62 2.5-19.5.82-6.87 1.76-19.25 2.09-27.5.32-8.25.1-20.62-.49-27.5-.6-6.87-1.55-14.19-2.12-16.25-.56-2.06-1.37-3.72-1.78-3.69-.41.03-2.55 1.27-4.75 2.75l-4 2.69zm460.55 13.29c2.3 4.97 2.63 5.26 5.45 4.74 1.65-.31 4.24-.55 5.75-.54l2.75.01c-4.26-3.61-7.39-5.72-9.7-7.02-2.32-1.29-4.23-2.72-4.25-3.16-.03-.45-.78-.82-1.67-.82-.89 0-1.42.34-1.19.75.23.41 1.52 3.13 2.86 6.04zm17.7 7.21c1.79 1.93 3.59 5.14 4 7.15.55 2.67.35 4.09-.75 5.3-.83.9-3.08 1.87-5 2.15-1.92.29-4.51.71-5.75.96-1.3.25-2.25 1.18-2.26 2.19 0 .96.7 4.45 1.57 7.75.86 3.3 2.26 7.57 3.11 9.5.85 1.93 2.24 5.07 3.09 7 .84 1.93 1.92 4.29 2.39 5.25.47.96 1.98 5.13 3.35 9.25 1.38 4.13 2.5 8.18 2.5 9 0 1.21 1.6 1.51 8.25 1.53 4.54.02 11.63.54 15.75 1.16 4.13.62 9.52 1.17 12 1.22 3.79.08 4.54-.23 4.76-1.91.14-1.1-.31-2.98-1-4.17-.7-1.19-3.82-6.82-6.94-12.5-3.12-5.68-8.86-15.28-12.75-21.33-3.9-6.05-8.21-12.35-9.59-14-1.38-1.65-4.42-5.16-6.75-7.79-2.33-2.64-4.68-4.78-5.23-4.77-.55.02-2.58-1.43-4.5-3.21l-3.5-3.23m17 81c5.72 2.44 10.11 2.98 15.5 2.96 4.67-.02 10.26-.44 12.41-.93l3.91-.9c-11.49-1.94-16.84-2.47-19.32-2.43-2.48.05-6.3.36-8.5.69l-4 .61zm1 13.14c5.59 3.47 7.37 3.66 16 3.19 6.73-.37 11.18-1.14 13.62-2.35 1.99-1 3.45-2.19 3.25-2.64-.2-.46-6.33-.82-13.62-.79-8.4.02-14.35.51-16.25 1.31l-3 1.28zM622.58 453c1.01 2.48 3.09 5.96 4.63 7.75 1.53 1.79 3.35 3.26 4.04 3.27.93.01 1.06-1.16.5-4.5-.41-2.49-1.59-6.21-2.63-8.27-1.03-2.06-3.07-4.31-4.54-4.99-2.31-1.08-2.74-1.02-3.24.5-.32.96.24 3.76 1.24 6.24zm-590.33-4.96c2.06 1.08 5.89 2.44 8.5 3.03 2.61.59 11.05 1.46 18.75 1.94 7.7.47 14.22.67 14.5.44.28-.23-.74-.88-2.25-1.44-1.51-.55-9.39-2.14-17.5-3.52s-17.23-2.48-20.25-2.45l-5.5.05M579.22 461c.55 3.57 1.79 8.07 2.76 10 .98 1.93 2.52 4.18 3.44 5 1.52 1.37 1.66 1.23 1.61-1.5-.03-1.65-.95-6.82-2.03-11.5-1.58-6.77-2.41-8.63-4.06-9.16-1.15-.36-2.23-.36-2.4 0-.17.36.13 3.59.68 7.16zm33.37 6.25c.78 2.61 1.94 5.09 2.58 5.5.87.55.98-.18.45-2.75-.4-1.93-1.59-6.09-2.63-9.25-1.04-3.16-2.11-5.75-2.37-5.75-.26 0-.24 1.69.04 3.75.29 2.06 1.16 5.89 1.93 8.5zM26.5 458.5c16.28 2.8 24.6 4.24 29 5 4.4.76 10.25 1.62 13 1.9l5 .52c-11.94-6.12-15.52-7.15-22.25-7.91-4.81-.55-9.65-.92-10.75-.83-1.1.08-4.7.42-8 .74l-6 .58zm571.99 7.75c.83 2.61 1.96 4.98 2.51 5.25.55.27.04-2.09-1.14-5.25-1.17-3.16-2.31-5.98-2.52-6.25-.22-.27-.39-.05-.38.5.01.55.7 3.14 1.53 5.75zM11.48 476.5c-.36 1.65-.92 3.9-1.22 5-.51 1.83-.4 1.87 1.25.5.99-.82 2.63-3.3 3.63-5.5s1.83-4.56 1.84-5.25c.01-.69-.36-1.25-.83-1.25s-1.56.79-2.42 1.75c-.87.96-1.88 3.1-2.25 4.75zm18.05-1c-.4 2.2-1.81 6.14-3.13 8.75L24 489c4.26 1.61 5.95 1.91 6.5 1.69.55-.21 2.46-4.5 4.25-9.54 1.79-5.03 3.02-9.6 2.75-10.15-.27-.55-1.83-1-3.45-1s-3.14.34-3.37.75c-.23.41-.75 2.55-1.15 4.75zm26.13 3.75c-.37.96.01 4 .84 6.75s1.84 5.01 2.25 5.03c.41.01 1.31-1.11 2-2.5S62 484.2 62 482s-.23-4.68-.5-5.5c-.27-.82-1.12-1.5-1.89-1.5-.76 0-1.82.56-2.34 1.25-.53.69-1.25 2.04-1.61 3zm18.01 5.5c.94 2.66 1.87 4.09 2.12 3.25.25-.82.17-3.41-.17-5.75s-1.02-4.47-1.51-4.74c-.48-.28-1.16.17-1.5 1-.33.82.14 3.63 1.06 6.24zM518 552.44c-6.87.89-20.37 2.75-30 4.13-9.62 1.38-26.27 3.86-37 5.5-10.73 1.65-25.12 3.87-32 4.93-6.87 1.07-23.3 3.29-36.5 4.93-13.2 1.65-31.43 3.66-40.5 4.48-9.07.82-24.6 1.77-34.5 2.11-9.9.33-29.93.12-44.5-.48s-40-2.01-56.5-3.13c-17.68-1.2-47.04-2.29-71.5-2.65l-41.5-.61c-3.77 3.64-4.33 5.08-3.96 6.6.29 1.24.97 4.95 1.5 8.25.54 3.3 1.17 6.9 1.41 8 .34 1.6 1.99 2.34 8.24 3.7 4.29.93 10.96 2.18 14.81 2.77 3.85.6 13.3 1.75 21 2.57 7.7.82 28.18 1.94 45.5 2.48 21.72.68 41.44.65 63.5-.1 17.6-.6 47.3-1.45 66-1.9 26.21-.63 37.21-1.3 48-2.93 7.7-1.16 34.02-4.6 58.5-7.64 24.48-3.05 55.07-7.07 68-8.94 12.93-1.86 28.9-4.32 35.5-5.46 6.6-1.14 22.13-4.15 34.5-6.69 12.38-2.54 23.4-4.8 24.5-5.03 1.38-.29 2.23-1.58 2.74-4.13.41-2.03.74-5.72.73-8.2 0-2.48-.33-5.07-.74-5.77-.45-.79-3.59-1.44-8.23-1.7-4.12-.23-15.83.42-26 1.44s-24.12 2.59-31 3.47zm-28.5 40.5c-4.95.53-13.27 1.82-18.5 2.88-5.23 1.05-11.07 2.61-13 3.47-1.93.85-4.51 1.81-5.75 2.13-1.98.51-2.27 1.28-2.43 6.33-.17 5.53-.19 5.57-.5 1L449 604c-5.81 2.96-8.63 5.1-10.02 6.66-1.39 1.56-3.57 4.42-4.85 6.34-1.28 1.92-1.95 3.82-1.48 4.2.47.39 8.73 1.69 18.35 2.89 9.63 1.2 21.1 2.54 25.5 2.97 4.4.43 13.63.82 20.5.87l12.5.09c1.13-9.7 1.63-18.03 1.83-24.77l.37-12.25c-7.91.18-10.88.4-11.7.6-.82.2-5.55.8-10.5 1.34zM262 617.06c-4.12.64-10.43 2.08-14 3.2-3.57 1.12-7.51 3.09-8.75 4.39-1.72 1.8-2.25 3.53-2.25 7.35v5c5.04-1.15 13.7-1.49 22.5-1.48 8.8 0 22.98.79 31.5 1.75 10.77 1.21 17.91 1.51 23.39.99l7.9-.76c-1.03-16.66-1.81-21.53-2.55-22.29-.89-.93-4.34-1.25-12.24-1.11-6.05.1-17.07.55-24.5 1-7.43.44-16.87 1.33-21 1.96zm243.76 22.83c3.87.45 5.26.28 5.25-.64 0-.69-.69-1.48-1.51-1.75-.82-.27-4.09-.49-7.25-.47-4.75.03-5.4.22-3.75 1.14 1.1.61 4.37 1.38 7.26 1.72zm-222.03 5.35c2.07.41 4.67.75 5.77.77 1.26.01 1.63-.31 1-.88-.55-.49-3.11-1.2-5.68-1.57-2.57-.38-4.72-.32-4.77.13-.05.44 1.61 1.14 3.68 1.55zm152.77 3.55c3.3.65 18.38 1.5 33.5 1.89 21.23.55 27.33.44 26.75-.48-.41-.66-1.99-1.19-3.5-1.18-1.51.01-3.34-.56-4.05-1.25-.97-.95-7.95-1.32-27.5-1.48-14.41-.12-27.32.13-28.7.56-2.13.65-1.62.94 3.5 1.94zM254 656.33c9.08 2.08 16.02 2.85 33 3.65 11.82.56 23.3 1 25.5.99 2.79-.02 3.55-.3 2.5-.92-.82-.48-5.32-1.82-10-2.97-4.68-1.15-16.15-2.76-25.5-3.58-9.35-.82-20.6-1.46-25-1.42-4.4.03-8.9.41-10 .84-1.45.56 1.14 1.49 9.5 3.41zm169.01 4.02c-.51 1.73-1.28 8.63-1.72 15.33l-.79 12.17c4.65 1.28 12.75 1.63 21 1.6 8.25-.02 26.14-.36 39.75-.75L506 688a86.944 86.944 0 0 0 2.62-15c.5-5.78.33-7.76-.74-8.61-.76-.62-6.11-1.9-11.88-2.85-5.77-.95-17.02-2.1-25-2.54-7.98-.45-21.83-1.04-30.79-1.31l-16.28-.5m-186.78 21.92c-.23 7.36.1 17.22.74 21.89.65 4.67 2.17 13.12 3.39 18.77l2.22 10.28c6.2-.06 13.4-.54 20-1.12 6.6-.58 17.18-1.89 23.5-2.92 6.32-1.02 15.32-2.86 20-4.09 4.68-1.22 9.06-2.83 9.75-3.57.69-.74 2.82-1.8 4.75-2.35 3.01-.86 3.59-1.53 4.14-4.75.35-2.06.13-8.7-.5-14.75-.62-6.05-1.14-14.26-1.14-18.25V671c-14.34-.86-27.73-1.99-39-3.07-11.27-1.08-24.55-2.4-29.5-2.95-4.95-.54-10.12-1.23-11.5-1.54-1.42-.32-3.35.06-4.47.86-1.74 1.26-2.01 2.92-2.38 14.81zM484.5 703.1c1.65 1.66 7.27 6.59 12.5 10.96 5.23 4.36 10.85 10.07 12.5 12.68 2.64 4.19 3.04 5.83 3.37 13.76.27 6.34-.09 10.48-1.21 14-1.13 3.59-3.07 6.43-6.87 10.09-2.91 2.79-6.64 5.78-8.29 6.63-1.65.85-5.48 2.1-8.5 2.78-3.53.79-9.8 1.06-17.5.73-6.75-.28-14.29-1.2-17.25-2.11-2.89-.89-8.06-3.56-11.5-5.94-3.44-2.37-7.91-6.53-9.94-9.25-2.36-3.14-4.12-6.93-4.85-10.43-.64-3.02-.95-7.75-.7-10.5.26-2.75 1.99-9.13 3.85-14.17 1.87-5.04 3.06-9.54 2.67-10-.4-.46-1.87-.04-3.25.92-1.39.96-3.88 3.89-5.53 6.5-1.65 2.61-3.71 7.9-4.57 11.75-.86 3.85-1.93 12.4-2.39 19-.66 9.56-.55 12.56.56 14.75.77 1.51 3.76 4.62 6.65 6.9 2.89 2.28 7.5 5.19 10.25 6.46 2.75 1.27 7.93 3.07 11.5 4.01 4.37 1.15 10.27 1.7 18 1.67 8.68-.02 13.46-.57 19.5-2.23 4.4-1.21 11.14-3.86 14.98-5.88s9.5-6.16 12.57-9.18c3.06-3.02 6.67-7.75 8.01-10.5 1.96-4.01 2.5-6.88 2.74-14.5.3-9.15.18-9.77-3.25-16.75-1.95-3.99-5.46-9.32-7.8-11.84-2.61-2.82-6.95-5.89-11.25-7.97-3.85-1.85-9.48-3.82-12.5-4.36l-5.5-1m12.04 28.17c2.57 3.53 4.53 7.34 4.51 8.75-.01 1.38-1.33 4.52-2.93 7-1.6 2.48-5.32 6.99-8.26 10.04-3.13 3.23-7.86 6.75-11.36 8.45-3.4 1.65-8.6 3.2-12 3.58l-6 .66c13.33.24 18.67-.41 24-1.81 4.4-1.16 9.69-2.96 11.75-4.01 2.06-1.05 5.39-3.37 7.39-5.16l3.64-3.25c-.95-10.85-2-16.25-2.96-19-.96-2.78-3.53-6.87-5.78-9.22-2.22-2.33-4.6-4.24-5.29-4.25-.69-.02-1.25.42-1.25.97s2.04 3.81 4.54 7.25zm-21.79 6.2c.69 5.91.58 6.51-1.25 7.16-1.1.4-3.35.14-5-.56-1.65-.7-4.35-1.51-6-1.78-1.65-.28-5.6.11-8.77.86-3.25.77-5.76 1.92-5.75 2.62.01.69.63 2.49 1.38 4 .75 1.51 3.34 4.46 5.75 6.55 2.42 2.09 5.29 4.05 6.39 4.36 1.12.32 4.14-.47 6.87-1.8 2.68-1.3 8.86-5.62 13.75-9.61 4.88-3.99 8.9-7.81 8.92-8.5.03-.69-2.11-3.6-4.75-6.48-2.74-3-5.64-5.23-6.79-5.22-1.1 0-2.79.45-3.75.98-1.52.84-1.65 1.83-1 7.42zM306.48 749c3.67 4.13 7.93 9.3 9.48 11.5 1.54 2.2 3.3 5.8 3.92 8 .61 2.2 1.11 7.71 1.11 12.25.01 5.15-.52 9.28-1.4 11-.78 1.51-2.69 3.92-4.25 5.35-1.56 1.43-4.86 3.96-7.34 5.61-2.48 1.65-6.98 3.91-10 5.03-3.02 1.12-9.77 2.62-15 3.34-7.53 1.04-10.9 1.06-16.25.11-3.71-.65-8.66-2.07-11-3.14-2.34-1.07-6.05-3.91-8.25-6.31-2.2-2.41-4.58-5.24-5.29-6.31-1.1-1.65-1.21-1.05-.77 4.07.39 4.52 1.28 7.11 3.6 10.5 1.7 2.48 4.97 5.7 7.27 7.16 2.31 1.46 5.99 3.14 8.19 3.74 2.2.6 9.29 1.09 15.75 1.09 10.45.01 12.77-.33 21-3.06 5.09-1.69 12.36-4.73 16.16-6.75 3.81-2.02 9.81-6.38 13.34-9.68l6.41-6c-4.77-3.49-6.16-5.17-6.16-6 0-.83 1.83-2.29 4.08-3.25l4.07-1.75c-1.04-9.3-2.48-15.15-3.88-19-1.41-3.85-3.67-8.8-5.03-11-1.37-2.2-3.66-5.28-5.11-6.85-1.45-1.57-4.43-4.1-6.63-5.63-2.2-1.53-7.15-3.74-11-4.92-3.85-1.18-7.17-2.13-7.37-2.12-.21.01.54 1.26 1.65 2.77 1.11 1.51 5.03 6.13 8.7 10.25zm-30.71 13.79c.4.71 2.29 1.38 4.19 1.5 2.63.16 3.54-.21 3.75-1.54.18-1.1-1.11-2.69-3.46-4.25-2.06-1.38-4.09-2.51-4.5-2.5-.41 0-.74 1.24-.73 2.75 0 1.51.34 3.33.75 4.04zm26.71-.79c.4 1.92 1.5 5.3 2.46 7.5.95 2.2 2.5 4.67 3.44 5.5.94.83 1.69 2.51 1.66 3.75-.02 1.24-.67 3.49-1.45 5-.78 1.51-2.69 3.96-4.25 5.45-1.56 1.48-5.09 3.69-7.84 4.9-3.52 1.55-7.67 2.34-14 2.66-7.42.37-10.01.08-14.75-1.66-3.25-1.18-6.36-3.08-7.16-4.35-.77-1.24-1.71-5.17-2.08-8.75-.38-3.58-1.32-9.54-2.1-13.25-.77-3.71-1.79-6.96-2.26-7.23-.46-.26-1.7.47-2.75 1.62-1.57 1.73-1.86 3.42-1.68 9.73.13 4.19 1.05 10.78 2.05 14.63l1.82 7c12.61 6.84 13.38 7 22.91 7 9.23 0 10.5-.25 16.5-3.2 3.57-1.76 8.07-4.5 10-6.07 1.93-1.58 4.75-5.09 6.28-7.8 1.9-3.37 2.78-6.36 2.78-9.43 0-3.37-.73-5.51-2.88-8.5-1.59-2.2-3.91-4.9-5.16-6l-2.27-2m-25.39 23.75-4.64 1.25c4.91 3.2 7.44 3.74 11.28 3.67 3.02-.06 6.85-.38 8.5-.71 1.65-.34 3.79-.8 4.75-1.03 1.33-.33 1.75-1.45 1.74-4.68-.01-2.34-.17-5.26-.35-6.5-.18-1.24-.74-2.24-1.23-2.22-.5.01-4.17 2.04-8.16 4.5s-9.34 5.03-11.89 5.72zm1.89-736.11c5.36-.08 14.14.33 19.5.91 5.36.58 16.27 2.37 24.25 3.99s20.35 4.45 27.5 6.28c7.15 1.84 14.3 3.98 15.89 4.76 1.59.78 2.94 1.87 3 2.42.06.55-2.59 1.14-5.89 1.3-4.12.21-13.2-1.12-29-4.24-12.65-2.5-24.01-4.55-25.25-4.55-1.24-.01-2.26.1-2.27.24-.02.14.99 2.5 2.23 5.25 1.89 4.17 2.26 6.73 2.26 15.5-.01 9.57-.26 10.98-2.85 16-1.56 3.03-5.15 7.66-7.98 10.29-2.96 2.77-7.04 5.42-9.64 6.26-2.48.81-5.96 1.47-7.75 1.46-1.79 0-5.39-.55-8-1.2-3.55-.89-6.2-2.6-10.48-6.75-5.73-5.55-5.74-5.57-5.74-11.56 0-3.3.67-9.04 1.49-12.75.81-3.71 2.76-8.66 4.33-11 1.57-2.34 5.61-6.73 8.97-9.75 3.36-3.02 6.13-5.84 6.15-6.25.02-.41-4.24-.75-9.47-.75s-10.18-.23-11-.5c-.82-.27-1.51-1.15-1.51-1.95-.01-.88 1.29-1.67 3.25-1.98 1.79-.29 4.39-.7 5.76-.91 1.38-.22 6.89-.45 12.25-.52zm9.43 16.79c-.38.59.68 1.85 2.37 2.82 1.68.96 4.49 3.02 6.25 4.56 2.95 2.6 3.2 3.29 3.2 9.03 0 4.73-.62 7.4-2.58 11.19-2.53 4.86-2.69 4.97-7 4.87-2.47-.06-6.55-1.16-9.24-2.5-2.91-1.45-5.43-3.59-6.36-5.4-.85-1.65-1.76-6.37-2.02-10.5-.41-6.58-.65-7.32-1.92-6-.81.84-1.93 5.26-2.52 10-.98 7.85-.91 8.69.91 11 1.08 1.38 3.94 3.73 6.35 5.23 2.41 1.5 6.63 3.03 9.38 3.4 3.71.5 5.84.24 8.25-.98 1.79-.91 3.59-1.43 4-1.17.41.27 1.65-.46 2.75-1.6 1.78-1.86 2-3.45 2-14.33 0-9.47-.34-12.62-1.5-13.92-.82-.92-1.16-1.89-.75-2.15.41-.27-.08-1.27-1.08-2.23-1.01-.96-2.78-2.25-3.93-2.86-1.19-.63-2.91-.77-3.99-.32-1.04.43-2.2 1.27-2.57 1.86zm-7.56 15.82c.49 1.24 2.68 3.49 4.89 5l4 2.75c3.14-3.87 4.04-5.56 4.02-6.25-.02-.69-1.04-1.87-2.28-2.63-1.24-.76-3.6-1.61-5.25-1.89-1.65-.28-3.73-.22-4.63.13-1.23.49-1.41 1.18-.75 2.89zM340 74.39c6.25.37 8.17.92 11.5 3.3 2.2 1.57 4.79 4.42 5.75 6.34 1 1.98 1.75 5.72 1.75 8.72 0 2.89-.68 6.6-1.5 8.25-.82 1.65-3.41 5.04-5.75 7.54-4.16 4.45-4.38 4.54-10.25 4.46-3.3-.05-7.57-.65-9.5-1.33-1.93-.69-6.09-2.92-9.25-4.96-4.48-2.89-5.75-4.26-5.75-6.21 0-1.37.68-5.54 1.51-9.25.88-3.97 2.68-8.35 4.35-10.62 1.57-2.13 4.38-4.5 6.25-5.27 2.29-.95 5.83-1.26 10.89-.97zm5.35 9.11c1.26 1.65 2.6 3.79 2.97 4.75.38.96 1.47 1.62 2.43 1.46 1.13-.18 1.63-.98 1.41-2.25-.19-1.08-1.09-2.79-2-3.81-.91-1.02-2.88-2.5-4.37-3.28-1.49-.78-2.71-1.07-2.72-.65-.01.43 1.02 2.13 2.28 3.78zm-18.17 9.97c-.1.84.27 1.75.82 2.03.55.28.77 1.17.5 2-.32.96.31 1.7 1.75 2.07 1.24.31 2.35.42 2.46.25.12-.18-.26-2.12-.84-4.32s-.83-5.46-.57-7.25c.27-1.79.06-3.25-.45-3.25s-1.51 1.56-2.21 3.47c-.7 1.91-1.36 4.16-1.46 5zm13.05 1.3c.7.69 2.06 1.26 3.02 1.25.99-.01 1.76-.78 1.77-1.77.01-.96-.56-2.32-1.25-3.02-.7-.69-2.06-1.26-3.02-1.25-.99.01-1.76.78-1.77 1.77-.01.96.56 2.32 1.25 3.02zm-119.78 21.61c1.13.28 8.12 1.2 15.55 2.05 7.43.86 25.88 4.04 41 7.08 15.13 3.04 30.43 6.01 34 6.61 3.57.59 14.23 1.37 23.68 1.73 15.29.58 17.48.88 20 2.75 1.55 1.16 2.93 3.07 3.07 4.25.19 1.61-.43 2.31-2.5 2.81-1.51.36-9.95.38-18.75.03-8.99-.35-22.79-1.7-31.5-3.09-8.52-1.36-27.43-4.73-42-7.5-14.57-2.77-31-5.85-36.5-6.84-9.91-1.78-10-1.83-10.27-4.78-.16-1.64.27-3.57.94-4.29.67-.73 2.15-1.09 3.28-.81z"/><path id="Path 1" class="shp1" d="M371.38 147c0 6.32.16 8.8.36 5.5.2-3.3.2-8.47 0-11.5-.2-3.03-.36-.32-.36 6z"/><path id="Path 2" fill-rule="evenodd" class="shp0" d="M245 313.16c3.57.02 8.75.58 11.5 1.24 2.87.69 4.89 1.72 4.75 2.4-.14.66.31.94 1 .63.71-.33 3.28 1.71 5.97 4.75 4.41 4.98 4.75 5.76 5.33 12.32.35 3.85.47 8.53.29 10.4-.31 3.08-.67 3.43-3.84 3.73-1.93.18-9.57.67-30.5 1.87l3 3.03c1.65 1.67 4.57 3.33 6.5 3.7 1.93.37 5.64.92 8.25 1.22 4.46.52 4.95.33 8-2.97 1.79-1.94 3.81-3.52 4.5-3.5.69.01 1.25.7 1.25 1.52 0 .82-.23 2.18-.5 3-.29.88-1.02 1.2-1.75.76-.83-.49-1-.32-.5.5.44.72-.19 2.29-1.5 3.77-1.24 1.38-2.81 2.51-3.5 2.5-.69-.02-1.25.42-1.25.97s-2.14 1.26-4.75 1.57c-2.61.31-7 .3-9.75-.03-2.75-.34-5.9-1.38-7-2.32-1.1-.95-3.96-3.07-10.72-7.72l.4-17c.34-14.02.74-17.66 2.28-20.77 1.02-2.07 2.8-4.18 3.95-4.68 1.15-.51 5.02-.91 8.59-.89zm-5.5 12.92c1.96 11.17 2.86 14.7 3.27 15.04.4.35 4.44.91 8.98 1.25l8.25.63c2.5-11.77 2.58-14.01 1.77-15.5-.6-1.1-1.81-2.55-2.68-3.22-.88-.67-2.94-1.19-4.59-1.16-1.65.03-5.7.71-9 1.51l-6 1.45zm183.25-11.99c3.99-.05 8.49.39 10 .97 1.51.58 4.46 2.26 6.54 3.75 2.08 1.48 3.78 3.14 3.77 3.69-.01.55.81 1.9 1.82 3s2.36 3.57 3 5.5c.63 1.93 1.14 7.55 1.12 12.5-.02 4.95-.59 10.84-1.27 13.08-.67 2.24-2.8 5.71-4.73 7.7-1.93 2-3.95 3.31-4.49 2.92-.59-.41-.69-.19-.25.55.49.83-.77 2.09-3.76 3.75-3.4 1.89-5.97 2.5-10.5 2.5-3.3 0-7.24-.64-8.75-1.42-1.51-.79-4.12-2.92-5.8-4.75-1.67-1.83-4.04-5.02-5.25-7.08-1.23-2.09-1.87-4.3-1.45-4.99.5-.82.33-.99-.5-.5-.81.48-1.47-.06-1.87-1.51-.34-1.24-.34-2.81 0-3.5s.06-1.4-.63-1.58c-.89-.24-1.21-2.78-1.12-8.75.07-4.63.77-10.22 1.55-12.42.79-2.2 1.97-3.89 2.62-3.75.66.14.99-.09.74-.5-.25-.41.15-1.76.89-3s2.07-2.25 2.96-2.25c.88 0 1.52-.44 1.4-.97-.11-.54 1.35-1.4 3.25-1.91 1.9-.52 6.72-.98 10.71-1.03zm-13.5 17.28c-1.79 2-3.7 5.32-4.24 7.38-.55 2.06-1 4.54-1 5.5-.01.96.33 1.97.74 2.23.41.27 1.65-.42 2.75-1.53s3.01-2 4.25-1.98c1.95.03 2.2.47 1.85 3.28-.21 1.79-.66 4.26-1 5.5-.53 1.98-.14 2.32 3.15 2.86 2.06.34 5.55.08 7.75-.57 2.2-.65 5.71-2.4 7.8-3.89 2.08-1.49 5.34-4.61 7.25-6.93 1.9-2.32 3.46-5.01 3.48-5.97.01-.96-1.34-3.66-3-6-1.67-2.34-4.6-4.93-6.53-5.75-1.93-.82-5.64-1.48-8.25-1.46-2.61.03-6.32.87-8.25 1.88-1.93 1-4.96 3.46-6.75 5.45zm10.25 30.64c-6.58.06-6.85.15-4.5 1.49 1.38.79 4.3 1.44 6.5 1.44 2.2.01 5.8-.8 8-1.8s4.58-2.57 5.28-3.48c.7-.91.93-1.62.5-1.58-.43.05-2.58.93-4.78 1.97-2.68 1.27-6.32 1.92-11 1.96zm-80-46.74c5.79.31 10.25 1.12 12.5 2.26 1.93.98 5.37 3.62 7.65 5.87 2.28 2.26 5.05 5.9 6.16 8.1 1.5 2.98 2.18 6.92 3.3 27l-3.3 2.25c-1.82 1.23-6.24 3.17-9.81 4.29-3.72 1.17-11 2.33-27.5 3.35l-2.85-2.94c-1.57-1.62-3.94-5.09-5.25-7.7-1.32-2.61-3.07-7.56-3.89-11-.81-3.44-1.48-9.4-1.48-13.25 0-3.85.22-7.9.49-9 .3-1.23 3.3-3.49 7.74-5.86 7.18-3.82 7.32-3.85 16.24-3.37zm-12.75 11.54c-2.06 1.2-3.75 2.64-3.75 3.19 0 .55 1.73 3.36 3.84 6.25s4.47 6.34 5.25 7.67c1.31 2.24 1.85 2.38 7.41 1.89 3.3-.29 7.35-1.21 9-2.05 1.65-.83 3.56-2.7 4.25-4.14.69-1.44 1.24-3.41 1.22-4.37-.01-.96-1.25-3.3-2.75-5.19-1.5-1.89-4.52-4.25-6.72-5.23-2.2-.98-5.12-1.76-6.5-1.72-1.37.03-3.62.39-5 .79-1.37.39-4.19 1.71-6.25 2.91zm13 28.19c-3.71 0-7.87-.45-9.25-1-2.17-.87-2.5-.73-2.5 1 0 1.22 1.17 2.58 3 3.5 1.65.82 5.48 1.5 8.5 1.5 3.02 0 8.65-.68 12.5-1.5l7-1.5c0-6.2-.11-7.97-.25-7.92-.14.04-2.95 1.39-6.25 2.99-4.82 2.35-7.33 2.92-12.75 2.93z"/><path id="Path 3" class="shp1" d="M75.39 327.82c-1.03.18-1.76.63-1.63 1 .13.38 1.48.7 2.99.73 1.51.02 4.66.36 7 .75 3.42.56 4.25.41 4.25-.8 0-1.12-1.37-1.56-5.37-1.75-2.96-.14-6.21-.1-7.24.07z"/><path id="Path 4" class="shp0" d="M71.41 341.75c-.37 2.06-.4 5.55-.07 7.75s1.53 4.9 2.67 6c1.4 1.36 3.43 2 6.28 2h4.21l.42-19.5H72.08"/><path id="Path 5" class="shp1" d="M48.7 364.75c-1.51 1.65-.86 1.85 11.6 3.51 7.26.97 13.29 1.64 13.4 1.5.12-.14-5.06-1.19-11.5-2.32-7.49-1.32-11.65-2.49-11.55-3.25.08-.65.04-1.19-.1-1.19s-.97.79-1.85 1.75z"/><path id="Path 6" fill-rule="evenodd" class="shp0" d="M320.25 399.5c72.73 0 91.75.26 91.75 1.25 0 .69-.79 1.46-1.75 1.72-.96.27-5.12 1.19-9.25 2.06-6.26 1.32-15.54 1.58-56 1.57-26.68-.01-55.25-.29-63.5-.62s-23.42-.23-33.71.21c-14.4.62-19.08 1.16-20.32 2.31-1.37 1.28-1.45 2.33-.54 7.25.59 3.16 1.52 5.98 2.07 6.25.55.27 8.99-.38 18.75-1.47 9.76-1.08 22.7-2.43 28.75-2.99 6.05-.57 19.32-1.52 29.5-2.11 10.18-.59 33.13-1.38 51-1.75 17.88-.37 46.68-.34 64 .07 17.32.41 36.44.86 53.44 1.25l.62-4.5c.34-2.48.92-5.06 1.28-5.75.36-.69 1.79-1.25 3.16-1.25 1.78 0 2.64.65 2.99 2.25.26 1.24.49 10.01.5 19.5 0 9.81-.45 18.44-2.11 22.75l-12.19-.82c-6.71-.45-23.21-1.68-36.69-2.73-13.48-1.05-33.95-2.59-45.5-3.4-11.55-.82-34.27-1.88-50.5-2.35-16.23-.48-42.77-.6-59-.28-16.23.32-36.93.35-62.5-.42l.24-4c.14-2.2 1.17-6.25 2.31-9 1.13-2.75 2.6-6.09 3.25-7.41.76-1.52 1.02-5.12.25-16.99l3.97-.3c2.19-.17 45.27-.3 95.73-.3zm-28.75 25.02c-6.05.81-14.37 1.9-18.5 2.43-4.12.52-12.23 1.76-18 2.75l-10.5 1.8c59.9.86 69.77 1.33 70.29 2.18.54.89 2.51.83 8.21-.25 5.26-1 15.11-1.43 33-1.43 18.65 0 31 .56 46 2.09 16.55 1.69 25.47 2.03 46.33 1.75 24.46-.32 25.91-.45 27.32-2.34.99-1.33 1.3-3.17.91-5.5-.32-1.93-.69-3.55-.82-3.61-.13-.06-13.97-.62-30.74-1.25-16.77-.63-48.73-1.33-71-1.55-22.27-.23-47.48.01-56 .52-8.52.52-20.45 1.6-26.5 2.41z"/><path id="Path 7" class="shp1" d="M292 399.75c10.73.16 27.82.16 38 0s1.4-.3-19.5-.3-29.23.14-18.5.3zm65-.01c4.68.19 11.88.19 16 0 4.13-.18.3-.34-8.5-.34-8.8.01-12.18.16-7.5.34z"/><path id="Path 8" class="shp0" d="M418.58 401.54c-.5.44-.84 1.17-.75 1.63.1.46 1.41 1.45 2.92 2.2 1.51.76 5.23 1.64 8.25 1.97 3.02.33 14.05.72 24.5.87 16.1.23 19 .05 19-1.19 0-.84-2.13-2.24-5-3.3-4.05-1.49-9.1-1.95-26.5-2.41-11.82-.31-21.91-.21-22.42.23z"/><path id="Path 9" class="shp1" d="M273 405.73c2.48.21 6.07.21 8 0 1.93-.22-.1-.39-4.5-.39-4.4.01-5.98.18-3.5.39zm57.5 1.01c3.3.2 8.93.2 12.5 0 3.57-.19.88-.35-6-.35-6.87 0-9.8.16-6.5.35zm35.5 0c4.68.19 12.1.19 16.5 0 4.4-.18.57-.33-8.5-.33s-12.68.15-8 .33zm10 5.99c2.48.21 6.07.21 8 0 1.93-.22-.1-.39-4.5-.39-4.4.01-5.98.18-3.5.39zm20 0c2.48.21 6.07.21 8 0 1.93-.22-.1-.39-4.5-.39-4.4.01-5.98.18-3.5.39zm-9 9c2.48.21 6.07.21 8 0 1.93-.22-.1-.39-4.5-.39-4.4.01-5.98.18-3.5.39zm-152 17c1.93.21 5.3.21 7.5 0 2.2-.22.63-.39-3.5-.39-4.12 0-5.93.17-4 .39zm20.5.01c2.75.2 7.48.2 10.5 0 3.02-.2.77-.37-5-.37-5.78 0-8.25.17-5.5.37zm80-.02c1.65.22 4.8.22 7 .01 2.2-.22.85-.4-3-.4-3.85-.01-5.65.17-4 .39z"/><path id="Path 10" class="shp0" d="M562.55 551c-.3.55-1.56.99-2.8.98-2.15-.01-2.21.23-1.47 5.25.53 3.57 1.5 5.86 3 7.09 1.22 1 3.35 1.67 4.72 1.5 2.19-.28 2.54-.87 2.82-4.82.17-2.48.06-5.96-.25-7.75-.46-2.63-1.04-3.25-3.02-3.25-1.35 0-2.7.45-3 1zm-89.05 11.61c-.42 1.04-.48 3.35-.13 5.14.36 1.88 1.79 4.11 3.38 5.28 1.65 1.22 4.25 2.03 6.5 2 2.73-.02 4.02-.58 4.75-2.03.55-1.1 1.02-3.46 1.04-5.25.03-1.79-.53-3.8-1.25-4.46-.71-.67-4.04-1.52-7.41-1.89-5.43-.6-6.21-.47-6.88 1.21zm-363.16 17.14c.36 2.06 1.22 4.26 1.91 4.88.69.63 2.94 1.41 5 1.75 3.34.55 3.86.35 4.75-1.88.55-1.37 1-3.85 1-5.5v-3h-13.31m240.25 3.93c-.62 1.07-1.08 3.09-1.03 4.5.05 1.42 1.55 4.18 3.34 6.15 2.07 2.28 3.96 3.46 5.22 3.25 1.09-.18 2.55-1.45 3.24-2.83.69-1.37 1.27-4.86 1.28-7.75L362 578c-9.83 0-11.17.39-12.06 1.93zm-147.44 1.74c-.46.36-.76 2.39-.67 4.5.1 2.17.6 3.61 1.17 3.33.55-.27.76.06.48.75-.29.69.04 2.09.75 3.11.91 1.34 2.96 2.02 7.27 2.41l6 .54c-1.18-10.89-1.93-13.19-3.19-14.08-1-.69-3.87-1.26-6.39-1.25-2.52.01-4.96.32-5.42.69z"/><path id="Path 11" class="shp1" d="M447.86 603.69c-.95 1.19-.99 1.49-.11 1 .91-.5 1.34.62 1.57 4.06.31 4.57.33 4.53.5-1 .1-3.16.01-5.75-.21-5.75-.21 0-1 .76-1.75 1.69z"/><path id="Path 12" class="shp0" d="M581.07 788.03c-1.6.59-2.37 1.6-2.25 2.94.12 1.34 1.28 2.38 3.43 3.05 1.79.56 4.71 1.01 6.5 1 1.79-.01 4.15-.47 5.25-1.02 1.33-.67 2-2 2-4v-3c-9.69.1-13.59.53-14.93 1.03z"/></g></svg>