<svg xmlns="http://www.w3.org/2000/svg" viewBox="0 0 141 141" width="141" height="141"><style></style><path id="Path 0" fill-rule="evenodd" d="M87.5.5 95 3.3c4.13 1.54 10.2 4.45 13.5 6.46 3.3 2.01 9.15 6.86 13 10.77 3.85 3.91 8.7 10 10.78 13.54 2.07 3.54 4.74 9.35 5.92 12.93 1.65 5 2.25 9.74 2.58 20.5.33 10.68.05 15.54-1.18 20.5-.89 3.58-3.38 10.1-5.55 14.5-2.16 4.4-6.32 10.82-9.24 14.27-2.92 3.45-7.78 8.13-10.81 10.4-3.03 2.26-8.65 5.61-12.5 7.44-3.85 1.83-9.7 4.02-13 4.86-3.8.98-10.4 1.53-18 1.52-7.66-.02-14.17-.6-18-1.61-3.3-.86-8.7-2.82-12-4.33-3.3-1.52-8.81-4.85-12.25-7.41-3.44-2.55-8.76-7.68-11.82-11.39-3.07-3.71-7.3-10.35-9.41-14.75C4.91 97.1 2.48 90.58 1.6 87 .31 81.69-.02 73.23-.16 40.92-.26 19.04.06 1.01.55.62 1.03.22 20.8.04 87.5.5zM48.51 24.59c-3.52 1.71-8.7 5.58-12.59 9.41-4.67 4.6-7.67 8.7-10.25 14-2.22 4.56-4.13 10.44-4.86 15-.95 5.88-.95 9.02 0 14.5.66 3.86 2.85 10.36 4.87 14.5 2.46 5.04 5.65 9.48 9.74 13.55 3.97 3.95 8.68 7.33 13.58 9.75 4.76 2.34 10.24 4.13 15 4.87 5.97.94 9.03.9 15-.16 4.33-.77 10.46-2.82 14.5-4.85 4.38-2.2 9.26-5.79 13.02-9.59 3.31-3.34 7.45-8.77 9.19-12.07 1.75-3.3 3.87-8.92 4.72-12.5.85-3.58 1.54-8.97 1.54-12 0-3.03-.59-7.75-1.33-10.5-.73-2.75-2.64-7.7-4.24-11-1.82-3.77-5.5-8.6-9.9-13-4.09-4.09-9.29-8.11-12.5-9.68-3.03-1.47-8.2-3.39-11.5-4.25-3.3-.87-8.92-1.54-12.5-1.49-3.58.06-8.52.66-11 1.35-2.48.69-7.19 2.56-10.49 4.16zM71 39.11c4.72 0 9.05.63 11.7 1.7 2.3.93 6.13 3.3 8.5 5.28 2.36 1.97 5.62 6.02 7.24 9 2.29 4.21 3.04 7.07 3.39 12.91.31 5.18-.05 9.05-1.14 12.5-.98 3.07-3.44 7.06-6.39 10.34-2.92 3.25-6.95 6.38-10.3 7.97-4.56 2.17-6.87 2.62-13.5 2.58-6.64-.03-8.89-.49-13.25-2.72-2.89-1.47-6.71-3.96-8.5-5.54s-4.57-5.51-6.19-8.75C40 79.26 39.63 77.41 39.63 70c0-7.17.41-9.28 2.58-13.5 1.42-2.75 4.54-6.93 6.94-9.28 2.39-2.36 6.6-5.15 9.35-6.2 3.32-1.27 7.51-1.91 12.5-1.91zM58.65 64c-1.08 1.92-1.96 4.85-1.95 6.5 0 1.65.78 4.35 1.71 6 .94 1.65 3.14 4 4.9 5.23 1.9 1.33 4.7 2.24 6.94 2.25 2.06.01 5.1-.65 6.75-1.48 1.65-.83 3.92-2.74 5.04-4.25 1.12-1.51 2.29-4.1 2.61-5.75.31-1.65.07-4.69-.54-6.75-.72-2.44-2.42-4.7-4.86-6.46-2.13-1.54-5.48-2.88-7.75-3.09-2.98-.28-4.88.22-7.44 1.96-1.9 1.29-4.33 3.92-5.41 5.84z" style="fill:#fff"/></svg>