<svg xmlns="http://www.w3.org/2000/svg" viewBox="0 0 240 240" width="240" height="240"><style></style><path id="Path 0" d="M3.77 2.92.5 5.84C0 192.53.24 229.71.95 232.25c.7 2.51 2.12 4.41 4.3 5.75 3.2 1.96 5.08 1.99 115.6 2H233.2l6.8-7V6c-5.48-5.48-6.81-6-10.7-6-4.63 0-4.83.14-14.82 10.25-5.56 5.64-26.73 28-47.05 49.7-20.31 21.7-39.18 41.89-41.93 44.87l-5 5.42C61.51 47.67 38.79 23.5 31.94 16.18 25.1 8.85 18.26 2.21 16.75 1.43 15.24.64 12.43 0 10.52 0 8.08 0 6.05.88 3.77 2.92z" style="opacity:.992;fill:#fff"/></svg>