<svg xmlns="http://www.w3.org/2000/svg" viewBox="0 0 201 210" width="201" height="210"><style></style><path id="Path 0" fill-rule="evenodd" d="m20.32-.3 9.59.64C35.19.7 47.26.99 74 1l-.25 2.73c-.22 2.44-.84 2.87-5.75 3.98-3.03.68-6.31 2.04-7.3 3.02-1.19 1.17-2.11 4.31-2.71 9.27-.49 4.13-.94 21.9-.98 39.5-.05 17.6-.5 41.9-1.01 54-.6 14.38-1.47 24.08-2.53 28-.88 3.3-2.81 8.47-4.27 11.5-1.46 3.03-5.14 8.13-8.18 11.34-3.04 3.21-7.54 6.96-10.02 8.33-2.48 1.36-6.98 3.12-10 3.91-3.02.79-7.86 1.43-10.75 1.43C7.36 178 4.1 177.55 3 177c-1.33-.67-2-2-2-4 0-1.65.45-4.01 1-5.25.56-1.24 2.17-2.93 3.6-3.75 2.26-1.31 3.35-1.32 8.74-.1 3.39.77 7.51 1.59 9.16 1.82 1.73.24 3.95-.25 5.25-1.15 1.24-.86 2.99-3.03 3.88-4.82.9-1.79 2.26-7.07 3.02-11.75.76-4.68 1.82-19.75 2.35-33.5s.94-41.2.92-61c-.02-25.18-.39-37.05-1.23-39.5-.81-2.38-2.31-4.06-4.69-5.25C31.07 7.79 28.04 7 26.25 7s-3.93-.22-4.75-.5c-.96-.32-1.44-1.63-1.34-3.65M81.44.77l35.53.54c19.92.3 37.73 1.02 40.53 1.64 2.75.61 8.15 2.65 12 4.53 4.34 2.14 8.68 5.26 11.42 8.23 2.43 2.63 5.22 6.59 6.2 8.79.98 2.2 2.34 7.38 3.04 11.5.99 5.93 1 9.12.05 15.25-.67 4.26-2.28 9.89-3.6 12.5-1.31 2.61-4.57 6.91-7.25 9.55-2.67 2.64-6.89 5.74-9.36 6.89-2.47 1.15-6.75 2.74-9.5 3.54-3.17.92-12.41 1.69-45.51 2.77L115 102l-5.75 2.98c-3.16 1.65-8.22 5.18-11.25 7.86-3.03 2.68-6.62 5.21-8 5.63-1.37.42-3.85 1.59-5.5 2.61-1.65 1.02-3.56 1.87-4.25 1.89-.99.02-1.14-9.3-.72-44.72.29-24.61.84-52.12 1.22-61.12M115 43.5V58c24.11 0 27.89-.37 31.14-1.75 2.94-1.24 4.69-2.84 6-5.5 1.02-2.06 1.86-5.33 1.86-7.25s-.79-5.1-1.75-7.06c-1.19-2.42-3.11-4.18-6-5.5-3.54-1.61-6.51-1.94-17.75-1.94H115m39 73.27c1.98.18 2.5.78 2.5 2.88 0 2.05.34 2.46 1.5 1.83.82-.46 3.64-1.31 6.25-1.9 3.32-.76 7.69-.78 14.5-.07 5.36.55 12.35 1.57 15.52 2.25 3.32.71 5.76 1.77 5.75 2.49-.02.97-2.44 1.08-10.77.5-5.91-.41-13.45-.75-16.75-.75-4.18 0-7.36.67-10.5 2.22-2.47 1.23-8.26 5.28-12.86 9-4.6 3.73-9.45 7.68-10.79 8.78-1.9 1.57-2.8 1.76-4.14.9-.94-.61-1.85-1.96-2.01-3-.18-1.09 1.96-4.88 10.3-15.86l-3.5 1.96c-1.93 1.08-9.57 7.98-17 15.33-12.39 12.28-13.68 13.29-15.75 12.27-1.24-.6-2.26-1.89-2.27-2.85-.02-.96 1.15-4 2.59-6.75 1.43-2.75 3.57-6.58 6.88-12l-3.97 3.11c-2.19 1.71-5.83 5.31-8.1 8-2.27 2.69-7.22 9.57-11 15.29-3.78 5.71-7.22 10.55-7.63 10.75-.41.19-1.65.13-2.75-.15-1.25-.31-2.01-1.34-2.02-2.75-.01-1.24.65-4.28 2.98-11.25l-3.59 4c-1.98 2.2-5.95 6.93-8.81 10.5-2.86 3.57-7.99 10.66-11.38 15.75-3.4 5.09-6.16 9.36-6.14 9.5.03.14 6.66-3.49 14.75-8.07 8.09-4.57 24.38-13.13 36.21-19.02 11.83-5.89 28.25-13.47 36.5-16.85 8.25-3.37 21.19-8.2 28.75-10.72 7.56-2.53 14.2-4.37 14.75-4.09.55.28 1 1.06 1 1.75s-3.04 2.29-6.75 3.56-13.5 5.09-21.75 8.47c-8.25 3.39-23.32 10.26-33.5 15.27-10.17 5.01-25.25 12.95-33.5 17.65-8.25 4.69-19.72 11.44-25.5 14.99-5.78 3.55-16.12 10-23 14.32-12.26 7.72-12.68 7.89-22 9.13-5.22.69-9.84 1.28-10.25 1.31-.41.03-.75-.74-.74-1.7.01-1.16 5.72-5.44 17.02-12.75 16.18-10.46 17.26-11.37 22.16-18.5 2.84-4.12 7.85-11.1 11.15-15.5 3.3-4.4 8.73-11.12 12.08-14.93 3.34-3.81 9.46-9.8 13.58-13.32 5.23-4.46 8.11-6.26 9.5-5.95 1.42.32 3.91-1.33 8.58-5.67 3.74-3.48 9.79-7.75 14-9.88 4.08-2.06 9.12-4.08 11.19-4.5 3.63-.72 3.77-.65 3.73 4.75l3.75-2.5c2.06-1.38 7.13-3.62 11.25-4.98 4.13-1.36 8.63-2.37 10-2.25zm43.95 15.69c.3-.03 1.11.65 1.8 1.5 1.04 1.28.6 2.42-2.63 6.79-2.14 2.89-6.54 8.4-9.78 12.25-3.25 3.85-8.14 8.48-10.87 10.29-2.78 1.83-4.2 3.27-3.22 3.25 1.16-.03 1.75.72 1.75 2.21 0 1.65-1.67 3.37-6.25 6.44-3.44 2.3-8.4 5.23-11.02 6.5-3.98 1.93-4.76 2.76-4.75 5.06.01 1.75-.62 2.96-1.73 3.31-.96.31-7.82 2.52-15.25 4.9-7.43 2.39-14.74 4.61-16.25 4.94-1.89.41-2.83 1.3-3 2.85-.22 2.01-1.36 2.48-10.75 4.45-5.78 1.21-15.9 2.73-22.5 3.37-6.6.65-15.49.89-19.75.55-5.2-.42-7.75-1.03-7.75-1.87-.01-.9 3.55-1.43 12.75-1.89 7.01-.35 16.01-1.25 19.98-2 3.98-.75 6.91-1.64 6.5-1.99-.4-.35-2.42-1.13-4.48-1.75-3-.9-3.7-1.56-3.5-3.32.24-2.15.62-2.21 14.25-2.38 8.63-.11 15.65-.7 18.3-1.55 2.37-.75 3.95-1.72 3.5-2.15-.44-.43-2.15-.76-3.8-.74-1.65.02-5.14-.31-7.77-.72-4.46-.71-4.76-.95-4.73-6.76l12.75-.11c8.22-.07 15.24-.72 19.75-1.81 3.85-.94 10.14-3.14 20.97-8.08l-22.97-1-.61-6 7.81-.75c4.29-.42 10.5-1.27 13.8-1.89 3.3-.63 8.25-2.17 11-3.43 3.07-1.41 7.75-5.12 12.14-9.62 3.93-4.02 8.52-8.88 10.21-10.81 1.69-1.92 3-3.97 2.91-4.55-.09-.58.47-1.59 1.24-2.25.77-.66 1.65-1.22 1.95-1.24z" style="fill:#fefffe"/></svg>