<svg xmlns="http://www.w3.org/2000/svg" viewBox="0 0 380 141" width="380" height="141"><style></style><path id="Path 0" d="M61 1.59c-1.37.25-5.2 1.17-8.5 2.05-3.3.88-8.92 3.09-12.5 4.93-3.58 1.83-7.85 4.24-9.5 5.37-1.65 1.12-5.41 4.41-8.36 7.3-2.95 2.89-6.76 7.28-8.47 9.76-1.7 2.48-4.29 6.98-5.75 10-1.45 3.02-3.47 8.2-4.48 11.5C2.07 56.96 1.6 61.71 1.6 71c0 9.2.48 14.08 1.81 18.5 1 3.3 3.65 9.6 5.9 14 3.05 5.98 6.23 10.17 12.63 16.62 7.24 7.28 10.03 9.32 18.06 13.19 5.94 2.87 12.68 5.21 18 6.27 6.09 1.21 10.91 1.52 17 1.08 4.67-.33 11.2-1.34 14.5-2.24 3.3-.89 9.15-3.19 13-5.1 3.85-1.91 9.47-5.5 12.5-7.99 3.03-2.49 7.63-7.06 10.22-10.18 2.6-3.11 4.73-6.32 4.72-7.15 0-.83-.85-2.85-1.9-4.5-1.04-1.65-3.14-6.6-4.68-11-2.52-7.22-2.79-9.31-2.79-21.5 0-12.17.28-14.29 2.78-21.5 1.53-4.4 3.65-9.46 4.71-11.25 1.07-1.79 1.94-3.7 1.94-4.25 0-.55-1.91-3.49-4.25-6.52-2.34-3.04-6.95-7.7-10.25-10.35-3.3-2.66-8.03-5.99-10.5-7.41-2.47-1.43-8.1-3.79-12.5-5.25-6.12-2.04-10.46-2.74-18.5-3-5.78-.18-11.62-.13-13 .12zm114.5 1.05c-3.85.81-11.16 3.47-16.25 5.91-7.05 3.39-11.06 6.18-16.85 11.7-4.17 3.99-8.45 8.71-9.5 10.5L131 34c4.52 9.69 6.65 15.2 7.65 18.5 1.35 4.44 1.83 9.26 1.83 18.5s-.48 14.06-1.83 18.5c-1 3.3-3.13 8.81-4.74 12.25L131 108c2.93 5.04 7.32 9.81 11.64 13.87 5.9 5.52 10.11 8.43 16.86 11.65 4.95 2.36 11.47 4.88 14.5 5.62 3.03.73 10.22 1.32 16 1.32 5.78 0 12.97-.59 16-1.32 3.03-.74 9.55-3.26 14.5-5.62 6.75-3.22 10.96-6.13 16.86-11.65 4.32-4.06 8.71-8.83 9.75-10.62L249 108c-4.52-9.69-6.65-15.2-7.65-18.5-1.35-4.44-1.83-9.26-1.83-18.5s.48-14.06 1.83-18.5c1-3.3 3.13-8.81 4.74-12.25L249 34c-2.95-5.04-7.23-9.76-11.4-13.75-5.8-5.53-9.79-8.3-16.85-11.69-5.23-2.51-12.62-5.12-17-6-4.26-.86-10.79-1.52-14.5-1.48-3.71.05-9.9.75-13.75 1.56zm119 .01c-3.85.82-9.7 2.67-13 4.12-3.3 1.44-8.48 4.29-11.5 6.33-3.02 2.04-7.09 5.21-9.03 7.05-1.94 1.84-5.32 5.51-7.5 8.14l-3.97 4.8c4.99 10.39 7.15 15.66 8.03 18.41.88 2.75 1.85 9.95 2.17 16 .47 9.25.22 12.35-1.59 19.5-1.19 4.67-3.56 11.42-5.27 15l-3.11 6.5c3.39 4.65 6.71 8.41 9.57 11.36 2.86 2.95 7.22 6.76 9.7 8.45 2.48 1.7 7.65 4.54 11.5 6.31 3.85 1.77 10.82 3.99 15.5 4.93 6.21 1.26 10.79 1.55 17 1.09 4.68-.35 10.98-1.3 14-2.11 3.02-.8 9.32-3.36 14-5.67 6.73-3.33 10.29-5.99 17.1-12.78 7.22-7.21 9.33-10.1 13.19-18.08 2.67-5.53 5.24-12.74 6.15-17.25C378.3 80.49 379 74.3 379 71c0-3.3-.7-9.49-1.56-13.75-.91-4.51-3.48-11.72-6.15-17.25-3.86-7.97-5.98-10.89-13.19-18.1-7.21-7.21-10.13-9.33-18.1-13.19-5.53-2.67-12.74-5.24-17.25-6.15-4.26-.86-10.79-1.52-14.5-1.48-3.71.05-9.9.75-13.75 1.57z" style="fill:#fff"/></svg>