<svg xmlns="http://www.w3.org/2000/svg" viewBox="0 0 238 230" width="238" height="230"><style>.shp0{fill:#fffeff}.shp1{fill:#fdfdfe}</style><g id="Background"><path id="Path 0" class="shp0" d="M56.5 1.03c-1.65.45-5.7 1.38-9 2.06-3.3.68-6.45 1.5-7 1.82-.55.32-2.8 1.1-5 1.74-2.2.63-6.03 1.91-8.5 2.83-2.47.92-6.08 2.35-8 3.18-1.92.82-6.58 2.93-10.34 4.67-3.77 1.74-7.37 3.78-8 4.52-.88 1.02-.82 2.7.24 7 .78 3.11 2.73 8.12 4.34 11.15 1.72 3.22 6.12 8.52 10.6 12.77 4.21 4 8.22 7.26 8.91 7.25.69-.01 1.24.32 1.23.73-.01.41 1.79 1.76 4 3s5.82 3.26 8.03 4.5l4.01 2.25c-8.93 4.89-12.98 7.03-14.77 7.91C25.46 79.28 24 80.45 24 81c0 .55-.56 1-1.25.99-.69-.01-4.12 2.81-7.62 6.25C11.62 91.68 7.7 96.3 6.4 98.5c-1.29 2.2-3.26 6.47-4.38 9.5C.91 111.03 0 114.74 0 116.25c0 2.25.73 3.07 4 4.5 2.21.96 4.01 2.09 4 2.5 0 .41.56.74 1.25.73.69 0 4.06 1.35 7.5 3 3.44 1.66 6.92 3.02 7.75 3.02.83 0 1.72.45 2 1s1.4 1 2.5 1 2.79.4 3.75.9c.96.49 4.9 1.87 8.75 3.07 3.85 1.19 8.69 2.25 10.75 2.35 2.06.1 3.74.52 3.75.93 0 .41 1.8.75 4 .75h4l.5-47.5c4.65-9.12 6.34-11.93 6.75-12.13.41-.2 2.44.06 4.5.59s6.07 1.09 8.9 1.25c2.83.16 4.97.63 4.75 1.04-.22.41.95.75 2.6.75 2.22 0 2.87-.39 2.5-1.5-.28-.82-.05-2.62.5-4 .67-1.67.67-2.33 0-2-.55.28-1 .05-1-.5s-.79-.74-1.75-.43c-.96.32-1.41.2-1-.25.41-.45-.49-1.4-2-2.11s-3.2-1.1-3.75-.88c-.55.23-1-.61-1-1.87 0-1.26.22-2.28.5-2.26.28.02 1.29-.02 2.25-.08.96-.07 1.57-.46 1.34-.87-.22-.41.79-.88 2.25-1.03 1.46-.15 2.88-.75 3.16-1.33.28-.59.95-1.13 1.5-1.23.55-.09.89-.5.75-.91-.14-.41.13-1.31.59-2 .47-.69 1.14-2.04 1.5-3 .52-1.37.12-1.75-1.84-1.75-1.37 0-2.28.45-2 1 .28.55-.06.77-.75.48-.69-.29-4.4-.08-8.25.46-3.85.54-7.12 1.34-7.26 1.77-.14.44-1.94.61-4 .39-2.06-.22-4.19-.9-4.75-1.5-.56-.61-2.02-4.03-3.26-7.6-2.07-5.99-2.25-8.26-2.24-28.75L64 0c-3.49.16-5.85.57-7.5 1.03zm117.71 22.38c.16 12.87-.05 23.22-.46 23-.41-.23-1.52 2.18-2.45 5.34-.94 3.16-2.18 6.24-2.75 6.85-.58.6-2.73 1.28-4.79 1.5-2.06.22-3.86.05-4-.39-.14-.43-3.41-1.23-7.26-1.77-3.85-.54-7.56-.75-8.25-.46-.69.29-1.03.07-.75-.48.29-.58-1.08-1-3.25-1-3.69 0-3.75.06-3.63 3.75.06 2.06.51 3.81 1 3.88.48.07 2.91.72 5.38 1.45 2.47.73 5.8 2.02 7.39 2.87 1.59.85 3.06 2.34 3.25 3.3.2.96-.09 1.53-.64 1.25s-2.46.15-4.25.95c-1.79.8-4.71 1.82-6.49 2.25-3.19.79-3.21.83-1.58 3.3 1.13 1.71 1.28 2.58.48 2.75-.64.14-1.16.7-1.16 1.25s2.03 1 4.5 1 4.32-.34 4.1-.75c-.22-.41 1.92-.88 4.75-1.04 2.83-.16 6.84-.72 8.9-1.25 2.06-.53 4.09-.79 4.5-.57.41.21 1.71 2.34 2.87 4.75 1.17 2.4 2.63 5.6 3.25 7.11.72 1.76 1.13 10.79 1.13 25l-.01 22.25c5.05.26 9.21-.26 12.51-1 3.3-.74 8.48-2.06 11.5-2.94 3.02-.89 6.29-2.05 7.25-2.59.96-.53 2.65-.97 3.75-.97s2.23-.45 2.5-1 1.18-1 2-1c.82 0 6.68-2.47 13-5.5 10.56-5.05 11.5-5.73 11.49-8.25-.01-1.51-.53-4.32-1.15-6.25-.63-1.93-2.09-5.41-3.24-7.75-1.16-2.34-2.44-4.25-2.85-4.25-.41 0-.73-.56-.71-1.25.02-.69-3.02-4.31-6.75-8.04-3.73-3.73-7.13-6.77-7.54-6.75-.41.02-1.61-.75-2.65-1.71-1.05-.96-5.26-3.55-9.36-5.75-6.02-3.23-7.21-4.24-6.17-5.25.71-.69 1.99-1.25 2.86-1.25.86 0 1.57-.34 1.57-.75-.01-.41 1.68-1.48 3.75-2.36 2.06-.89 4.43-2.26 5.25-3.04.82-.78 3.07-2.51 5-3.85 1.93-1.34 5.76-4.7 8.53-7.47 2.76-2.77 5.95-6.6 7.08-8.53 1.13-1.92 3.07-6.42 4.32-10 1.24-3.58 2.1-7.4 1.91-8.5-.23-1.35-2.77-3.2-7.84-5.7-4.12-2.03-9.07-4.36-11-5.17-1.93-.81-5.52-2.21-8-3.11-2.48-.89-6.98-2.45-10-3.46-3.02-1.02-7.98-2.38-11-3.03-3.02-.65-6.85-1.59-8.5-2.09-1.65-.51-4.03-.92-5.29-.93L173.93 0"/><path id="Path 1" class="shp1" d="M97.57 59.23c-1.06 2.18-1.26 3.6-.59 4.27.67.67 2.42.56 5.26-.32 2.98-.92 8.94-1.22 19.83-1l15.58.32-1.23-6-37.26-.54m-4.8 23.57c.08 1.81.52 3.67.97 4.13.46.46 10.39.84 22.07.84 18.92 0 21.42-.19 22.92-1.75 1.4-1.46 1.47-2.09.43-3.81-.98-1.62-1.9-1.93-4.25-1.46-1.65.33-7.28.86-12.5 1.17-5.52.33-12.64.07-17-.62-4.12-.66-8.69-1.33-10.14-1.5-2.39-.27-2.62 0-2.5 3zM47.27 208.71l.23 19.79c8.25.39 10.5.07 10.5-.5 0-.55-.74-1.34-1.64-1.75-.9-.41-2.02-1.54-2.5-2.5-.54-1.1-.32-3.34.59-6 .8-2.34 1.06-4.48.58-4.75-.48-.27-1.37-1.85-1.98-3.5-.61-1.65-.87-3.68-.58-4.5.29-.82.76-2.62 1.05-4 .29-1.37 1.3-3.3 2.25-4.28.95-.98 2.97-1.77 4.48-1.75 2.4.03 2.72-.32 2.5-2.72-.25-2.71-.35-2.75-7.98-3.04l-7.73-.29"/><path id="Path 2" fill-rule="evenodd" class="shp0" d="M66 189.54c1.93.36 4.29 1.06 5.25 1.56.96.49 2.43 2.47 3.25 4.4.82 1.93 1.5 4.85 1.5 6.5 0 1.65-.22 3.68-.5 4.5-.28.82-.95 1.27-1.5 1s-.78.18-.5 1c.28.82.05 1.73-.5 2s-1 1.85-1 3.5.5 3.34 1.11 3.75c.61.41.84 1.54.5 2.5-.35 1.01-.19 1.54.39 1.25.55-.27 1.22.18 1.5 1 .28.82.5 2.63.5 4 0 2.42-.2 2.49-6 2.25-5.48-.23-6-.44-6-2.5 0-1.24-.45-2.25-1-2.25s-.89-1.07-.75-2.38c.14-1.31-.09-2.21-.5-2-.41.21-.97-.52-1.25-1.62s-.95-2-1.5-2-1.05 1.01-1.11 2.25c-.07 1.24-.07 3.71 0 5.5.09 2.67-.18 3.12-1.53 2.5-.9-.41-2.02-1.54-2.5-2.5-.54-1.1-.32-3.34.59-6 .8-2.34 1.06-4.48.58-4.75-.48-.27-1.37-1.85-1.98-3.5-.61-1.65-.87-3.68-.58-4.5.29-.82.76-2.62 1.05-4 .29-1.37 1.12-3.29 1.85-4.25.77-1.01 2.66-1.75 4.48-1.75 2.9 0 3.13-.24 2.9-3.05-.24-2.98-.16-3.04 3.25-2.41zm-8.17 13.13c.15 2.99.45 3.3 2.92 3.08 2.11-.19 2.82-.83 3.03-2.75.16-1.37-.29-3.08-1-3.79-.7-.72-1.77-1.28-2.36-1.25-.6.02-1.46.34-1.92.71-.46.36-.76 2.16-.67 4zM102 189h12v14.5c0 12 .26 14.59 1.5 15 .82.27 2.18.27 3 0 1.24-.41 1.5-3 1.5-29.5h3c2.4 0 2.89.35 2.45 1.75-.3.96-.8 3.32-1.12 5.25-.39 2.4.1 5.07 1.57 8.5 1.18 2.75 2.13 6.13 2.1 7.5-.03 1.38.29 2.17.72 1.76.43-.41 1.36-.19 2.07.5.72.68 1.27 2.59 1.24 4.24-.04 1.65-1.07 4.42-2.3 6.16-1.23 1.74-3.58 3.65-5.23 4.24-1.65.59-5.25 1.05-8 1.01-2.84-.03-6.29-.81-8-1.8-1.65-.96-3.77-3.29-4.7-5.18-1.37-2.76-1.71-6.4-1.75-18.68"/><path id="Path 3" class="shp1" d="M125.04 192.75c-.56 2.06-1.02 4.65-1.01 5.75.01 1.1.92 4.02 2.02 6.5 1.1 2.48 1.98 5.63 1.95 7-.03 1.38.29 2.17.72 1.76.43-.41 1.36-.19 2.07.5 1.06 1.01 1.29-1.19 1.25-12.01L132 189c-5.53 0-6.06.49-6.96 3.75z"/><path id="Path 4" class="shp0" d="M160.09 207.75c.07 10.31.3 19.2.52 19.75.22.55 2.31 1.12 4.65 1.27 2.63.17 4.52-.21 4.97-1 .41-.7.8-4.64.87-8.77.07-4.12.3-6.71.52-5.75.23 1.09.85 1.47 1.62 1 .73-.44.97-.34.57.25-.37.55.2 2.91 1.26 5.25s2.38 4.02 2.93 3.75c.62-.31.71.29.25 1.57-.51 1.41-.27 2.37.75 2.99.82.5 3.64.92 6.25.92l4.75.02v-40l-10.5.5c-.19 7.75-.29 11.35-.35 13-.08 2.6-.59 2-3.79-4.5-2.04-4.12-4.18-7.83-4.78-8.23-.59-.41-3.22-.75-5.84-.75l-4.76-.02"/></g></svg>