<svg xmlns="http://www.w3.org/2000/svg" viewBox="0 0 235 214" width="235" height="214"><style></style><path id="Path 0" d="M225.35 2.75c-.33.96-.1 3.66.52 6S227 17.28 227 22.5c0 5.22-.51 10.74-1.12 12.25-.62 1.51-1.64 3.87-2.25 5.24-.62 1.37-3.03 4.4-5.35 6.75-2.33 2.34-4.69 4.26-5.25 4.26-.57 0-1.03.45-1.03 1s-.68 1-1.5 1-1.61.34-1.75.75c-.14.41-3.18 2.22-6.75 4.02-3.57 1.81-6.84 3.27-7.25 3.25-.41-.01-5.48 2.23-11.25 4.98-5.77 2.75-10.5 5.45-10.5 6 0 .55-.68 1-1.5 1s-3.52 2.25-6 5c-2.47 2.75-4.5 5.9-4.5 7 0 1.1-.34 2-.75 1.99-.41 0-1.36 3.26-2.11 7.25-1.09 5.82-1.13 9.05-.2 16.26.64 4.95 1.56 10.35 2.04 12 .49 1.65 1.42 5.03 2.07 7.5.65 2.47 1.55 5.4 2.01 6.5.46 1.1 1.87 5.15 3.14 9 1.26 3.85 2.63 7.11 3.05 7.25.41.14.75 1.38.75 2.75 0 1.38.45 2.72 1 3 .55.28 1 1.4 1 2.5s.45 2 1 2 1 .68 1 1.5.84 3.41 1.88 5.75c1.03 2.34 2.82 6.73 3.99 9.75 1.67 4.35 1.87 5.81.93 7-.66.82-2.23 2.51-3.5 3.75-1.26 1.24-4.78 3.38-7.8 4.75-3.02 1.38-7.97 3.63-11 5-3.03 1.38-6.18 2.5-7 2.5-.82 0-1.61.34-1.75.75-.14.41-2.28 1.47-4.75 2.34-2.6.92-4.61 2.29-4.75 3.25-.22 1.44.91 1.66 8.5 1.62 4.81-.02 11.22-.66 14.25-1.42 3.02-.76 6.85-1.81 8.5-2.32 1.65-.51 4.46-1.67 6.25-2.57 1.79-.91 5.27-3.67 7.75-6.15 2.48-2.48 4.95-5.62 5.5-7 .55-1.37.99-4.86.99-7.75-.01-2.89-.57-6.82-1.25-8.75-.67-1.93-1.5-3.73-1.82-4-.33-.27-1.23-2.64-2.01-5.26-.77-2.61-1.75-4.75-2.16-4.75-.41.01-.75-.89-.75-1.99s-.34-2.11-.75-2.25c-.41-.14-1.61-2.72-2.66-5.75-1.04-3.03-2.96-7.75-4.26-10.5-1.3-2.75-2.35-5.56-2.34-6.25 0-.69-.44-1.25-.99-1.25s-1.18-1.46-1.41-3.25c-.22-1.79-.89-5.05-1.49-7.25s-1.77-7.15-2.59-11c-.83-3.85-1.51-8.8-1.52-11-.01-2.2 1.06-6.24 2.39-9 1.33-2.75 4.71-7.14 7.52-9.75 2.8-2.61 5.55-4.75 6.1-4.75.55 0 2.24-.81 3.75-1.8 1.51-.99 7.93-4.44 14.25-7.67 6.32-3.22 13.07-7.02 15-8.44 1.93-1.43 5.2-4.16 7.28-6.09 2.08-1.93 3.77-4.06 3.75-4.75-.02-.69.31-1.23.72-1.21.41.02 2.21-2.9 4-6.5 2.77-5.58 3.25-7.61 3.24-13.79-.01-3.99-.64-9.28-1.41-11.75-.77-2.47-2.34-6.64-3.49-9.25-1.15-2.61-2.55-4.75-3.11-4.75-.57 0-1.3.79-1.63 1.75zM103.5 2.68c-2.2.19-6.03.84-8.5 1.44-2.47.61-7.2 2.03-10.5 3.16-3.3 1.12-8.47 3.4-11.5 5.06-3.03 1.66-8.43 6.04-12 9.72-3.57 3.68-7.69 9.12-9.14 12.07C50.41 37.08 48.67 41.97 48 45c-.71 3.19-1 8.65-.69 13 .29 4.13.92 9.3 1.4 11.5.47 2.2 2.6 7.38 4.72 11.5 2.12 4.13 4.46 8.06 5.21 8.75.75.69 1.35 1.59 1.34 2-.02.41 1.9 2.81 4.25 5.32 2.35 2.51 5.28 4.88 6.52 5.25 1.24.37 2.25 1.13 2.25 1.68s.79.99 1.75.98c.96-.01 2.33.56 3.05 1.25.93.91 5.05 1.23 14.5 1.14 10.26-.1 14.3-.54 18.12-2 2.7-1.03 5.06-2.43 5.25-3.12.23-.89-1.26-1.25-5.17-1.25-3.03 0-6.51.41-7.75.9-1.41.57-4.67.47-8.75-.27-4.03-.72-8.4-2.38-11.5-4.35-2.75-1.75-6.69-4.78-8.75-6.73-2.06-1.95-4.86-5.46-6.22-7.8-1.36-2.34-3.4-6.72-4.53-9.75-1.12-3.03-2.51-8.65-3.07-12.5-.73-5.04-.7-8.26.13-11.5.63-2.47 2.4-7.2 3.92-10.5 1.53-3.3 4.86-8.14 7.4-10.75 2.54-2.61 4.96-4.74 5.37-4.73.41.01 1.65-.78 2.75-1.75 1.1-.98 4.93-2.73 8.5-3.9 3.57-1.17 8.53-2.66 11-3.32 2.89-.77 9.16-1.03 17.5-.74 7.15.24 15.03.98 17.5 1.64 2.47.66 5.96 1.39 7.75 1.62 1.79.24 3.47.88 3.75 1.43.28.55 1.29.99 2.25.98.96 0 4.56 1.35 8 3 3.44 1.66 6.7 3.02 7.25 3.02.55 0 2.46.84 4.25 1.86s5.5 2.64 8.25 3.58c2.75.95 7.48 2.14 10.5 2.64 3.02.5 7.75.61 10.5.24 4-.54 5.75-1.44 8.75-4.5 3.7-3.77 3.75-3.91 3.5-11.06-.19-5.49-.61-7.31-1.75-7.55-1-.2-1.96 1.13-2.88 3.99-.75 2.37-2.89 5.76-4.75 7.55-2.87 2.77-3.92 3.18-7.12 2.79-2.06-.26-5.44-.71-7.5-1-2.06-.3-3.75-.99-3.75-1.54s-.56-.99-1.25-.99c-.69.01-3.16-.89-5.5-2-2.34-1.1-4.81-2.02-5.5-2.03-.69-.01-2.37-.9-3.75-1.98-1.37-1.08-2.95-1.96-3.5-1.96-.55-.01-2.91-.92-5.25-2.03-2.34-1.1-4.93-2.01-5.75-2.01-.82 0-1.72-.45-2-1s-1.62-1-3-1c-1.37 0-2.72-.45-3-1-.28-.55-2.19-1.21-4.25-1.46-2.06-.26-6.9-.91-10.75-1.45-3.85-.54-9.93-.93-13.5-.87-3.57.06-8.3.27-10.5.46zm-72.33 83.1c-6.46 6.52-11.81 12.94-13.55 16.25-1.59 3.01-4.18 7.83-5.75 10.72-1.58 2.89-2.87 5.93-2.87 6.75 0 .82-.34 1.5-.75 1.5s-1.33 1.69-2.05 3.75c-.71 2.06-2.17 6.9-3.23 10.75C1.59 140.49 1.02 145.8 1 154c-.02 6.32.46 13.07 1.07 15 .6 1.93 1.51 4.51 2.01 5.75.51 1.24 1.48 3.49 2.17 5 .69 1.51 1.81 3.31 2.5 4S10 185.45 10 186s2.85 3.81 6.34 7.25c3.48 3.44 8.2 7.15 10.48 8.25 2.29 1.1 4.14 2.23 4.13 2.5-.02.27 1.45 1.11 3.26 1.85 1.81.74 4.19 1.69 5.29 2.11 1.1.42 3.57 1.24 5.5 1.83 1.93.58 7.55 1.58 12.5 2.22 5.69.73 20.3 1.03 39.7.82 21.69-.23 31.08-.67 32-1.5 1.04-.94.7-1.47-1.7-2.62-1.65-.79-7.5-1.72-13-2.08-5.5-.35-17.65-1.52-27-2.6-9.35-1.08-19.47-2.4-22.5-2.94-3.03-.54-8.2-1.69-11.5-2.55-3.3-.86-6.9-1.96-8-2.45-1.1-.49-3.8-1.66-6-2.6-2.2-.94-5.8-2.89-8-4.34-2.2-1.45-5.47-4.22-7.27-6.14-1.79-1.93-3.26-4.07-3.25-4.76.01-.69-.34-1.36-.78-1.5-.44-.14-1.79-2.39-3-5s-2.68-6.66-3.26-9c-.59-2.34-.88-8.75-.64-14.25.23-5.5.75-11.35 1.15-13 .4-1.65 2.03-5.81 3.64-9.25 1.6-3.44 2.9-6.59 2.88-7-.01-.41 1.71-4.12 3.82-8.25 2.12-4.12 6.04-11.1 8.72-15.5 2.67-4.4 6.34-10.03 8.14-12.5 1.81-2.47 3.3-5.29 3.32-6.25.01-.96-.68-1.75-1.55-1.75s-6.38 4.85-12.25 10.78zm60.08 71.86c-1.24.2-2.25 1.04-2.25 1.86 0 1.22 1.65 1.51 8.75 1.54 4.81.01 12.57.66 17.25 1.42 4.68.77 9.63 1.73 11 2.14 1.38.41 3.85 1.49 5.5 2.4 2.6 1.44 3.04 2.31 3.34 6.58.18 2.71-.14 8.74-.72 13.42s-1.18 12.06-1.33 16.41c-.21 5.68.06 8 .96 8.25.69.19 1.82-.22 2.53-.91.7-.69 2.03-3.73 2.96-6.75.93-3.02 2.13-7.98 2.66-11 .53-3.02 1.25-8.87 1.6-13 .35-4.12.36-10.2.01-13.5-.58-5.59-.86-6.12-4.06-7.75-2.99-1.52-6.26-1.73-24.7-1.61-11.69.07-22.26.3-23.5.5z" style="fill:#fefdfd"/></svg>