<svg xmlns="http://www.w3.org/2000/svg" viewBox="0 0 400 400" width="400" height="400"><style></style><path id="Path 0" fill-rule="evenodd" d="m236.5.63 14 3.64c7.7 2 17.38 4.97 21.5 6.6 4.13 1.63 10.54 4.35 14.25 6.04 3.71 1.7 11.36 5.84 17 9.2 5.64 3.36 14.52 9.32 19.75 13.24s14.23 11.87 20 17.67c5.77 5.8 13.71 14.8 17.64 20.01 3.93 5.21 9.29 13.07 11.91 17.47 2.63 4.4 7.35 13.4 10.51 20 3.15 6.6 7.32 16.95 9.26 23 1.94 6.05 4.48 15.95 5.65 22 1.97 10.15 2.1 13.55 1.39 77l-3.11 12c-1.7 6.6-4.64 16.27-6.53 21.5-1.88 5.23-6.17 14.9-9.53 21.5-3.36 6.6-9.39 16.8-13.4 22.68-4.01 5.87-10.89 14.8-15.29 19.86-4.4 5.05-12.05 12.76-17 17.12-4.95 4.37-14.4 11.61-21 16.09-6.6 4.47-17.85 10.98-25 14.47-7.15 3.48-18.62 8.1-25.5 10.26-6.87 2.17-17.22 4.89-23 6.05-9.71 1.95-12.99 2.08-76.5 1.33l-12.5-3.24c-6.87-1.78-16.78-4.85-22-6.81-5.22-1.96-14.45-6.04-20.5-9.06-6.05-3.02-14.15-7.53-18-10.02-3.85-2.48-10.6-7.26-15-10.61-4.4-3.34-12.73-10.82-18.52-16.6-5.78-5.79-13.25-14.12-16.59-18.52s-8.64-12.05-11.78-17c-3.14-4.95-7.76-13.27-10.26-18.5s-5.62-12.2-6.93-15.5c-1.31-3.3-3.91-11.4-5.79-18S1.67 240.13 1.02 236c-.81-5.11-1.06-17.85-.38-72.5l3.63-14c2.01-7.7 5.04-17.6 6.74-22 1.7-4.4 5.25-12.28 7.87-17.5 2.63-5.22 7.44-13.78 10.68-19 3.25-5.22 8.6-12.87 11.89-17 3.3-4.12 10.5-12.01 16.02-17.52S72 43.1 77.5 39c5.5-4.11 14.95-10.34 21-13.86 6.05-3.51 14.83-8.07 19.5-10.12 4.67-2.06 12.78-5.17 18-6.92 5.22-1.75 14.68-4.27 21-5.61C168.08.15 169.74.07 236.5.63zM161 30.41c-5.78 1.3-15 4.04-20.5 6.08s-14.72 6.16-20.5 9.15c-5.78 2.99-14.78 8.45-20 12.13-5.36 3.77-15.17 12.36-22.52 19.71C70.3 84.66 61.44 94.76 57.72 100c-3.7 5.22-9.63 15.35-13.18 22.5-3.55 7.15-7.84 17.05-9.55 22-1.7 4.95-4.29 14.63-5.75 21.5-2.4 11.31-2.65 14.54-2.65 34s.25 22.69 2.65 34c1.46 6.88 4.05 16.55 5.75 21.5 1.71 4.95 6 14.85 9.55 22 3.55 7.15 9.48 17.27 13.18 22.5 3.72 5.24 12.58 15.34 19.76 22.52 7.18 7.18 17.28 16.04 22.52 19.76 5.22 3.7 15.35 9.63 22.5 13.18 7.15 3.55 17.05 7.84 22 9.55 4.95 1.7 14.63 4.29 21.5 5.75 11.31 2.4 14.54 2.65 34 2.65s22.69-.25 34-2.65c6.88-1.46 16.55-4.05 21.5-5.75 4.95-1.71 14.85-6 22-9.55 7.15-3.55 17.27-9.48 22.5-13.18 5.24-3.72 15.34-12.58 22.52-19.76 7.18-7.18 16.04-17.28 19.76-22.52 3.7-5.23 9.63-15.35 13.18-22.5 3.55-7.15 7.84-17.05 9.55-22 1.7-4.95 4.29-14.62 5.75-21.5 2.4-11.31 2.65-14.54 2.65-34s-.25-22.69-2.65-34c-1.46-6.87-4.05-16.55-5.75-21.5-1.71-4.95-6-14.85-9.55-22-3.55-7.15-9.48-17.28-13.18-22.5-3.72-5.24-12.58-15.34-19.76-22.52-7.18-7.18-17.28-16.04-22.52-19.76-5.23-3.7-15.35-9.63-22.5-13.18-7.15-3.55-17.05-7.84-22-9.55-4.95-1.7-14.4-4.22-21-5.61-9.64-2.02-15.64-2.58-30.5-2.89-10.18-.2-21.65.06-25.5.59-3.85.53-11.72 2.03-17.5 3.33zm67.5 35.92c10.44.29 12.98.72 19.5 3.27 4.13 1.62 11.55 5.6 16.5 8.86 7.34 4.81 16.45 13.32 49.27 45.97 22.15 22.04 40.26 40.52 40.25 41.07-.02.55-8.24 9.21-18.27 19.25-10.04 10.04-18.7 18.26-19.25 18.26-.55-.01-16.75-15.78-36-35.07-24.74-24.77-37.2-36.52-42.5-40.06-4.12-2.75-9.07-5.42-11-5.93-1.93-.52-5.07-.94-7-.94-2.01.01-5.63 1.22-8.5 2.86-2.75 1.57-6.19 4.61-7.64 6.74-1.46 2.14-3.2 5.69-3.89 7.89-.68 2.2-1 6.03-.71 8.5.29 2.47 1.75 6.97 3.24 10 2.17 4.4 10.22 13.03 40.1 43 20.56 20.63 37.38 38.18 37.39 39 0 .82-7.98 9.49-17.74 19.25-9.76 9.77-18.43 17.75-19.25 17.74-.82 0-18.6-17.04-39.5-37.86-32.58-32.45-38.86-38.25-44-40.7-3.31-1.57-8.24-3.01-11-3.21-4.26-.31-5.8.13-10.41 2.96-4 2.46-6.21 4.75-8.5 8.82-2.56 4.56-3.07 6.53-2.98 11.5.07 4.19.92 7.81 2.8 12 2.38 5.29 7.13 10.44 40.14 43.5 20.58 20.63 37.43 38.18 37.44 39 0 .82-7.98 9.49-17.74 19.25C179.49 341.02 170.82 349 170 349c-.82 0-25.8-24.21-55.5-53.79-29.7-29.59-56.81-56.36-60.25-59.5-3.44-3.14-6.25-6.27-6.25-6.96.01-.69 6.82-8.11 15.14-16.5 8.72-8.79 15.93-15.25 17-15.25 1.02 0 5.35 2.85 17.36 12.65l-.33-9.08c-.22-5.98.22-11.46 1.3-16.07.9-3.85 3.06-9.93 4.81-13.5 2.27-4.64 5.76-9.09 12.2-15.54 6.39-6.41 10.77-9.87 15.02-11.88 3.3-1.56 9.15-3.49 13-4.29 4.69-.97 9.14-1.21 13.5-.74 3.57.38 7.74 1.09 12 2.45l-.01-10.75c-.01-7.62.59-13.08 2.05-18.75 1.13-4.4 3.48-10.7 5.22-14 1.9-3.61 6.57-9.43 11.7-14.61 4.7-4.74 10.57-9.66 13.04-10.92 2.47-1.27 6.97-3.13 10-4.14 4.42-1.48 7.86-1.77 17.5-1.5z" style="fill:#fff"/></svg>