<svg xmlns="http://www.w3.org/2000/svg" viewBox="0 0 205 183" width="205" height="183"><style></style><g id="Background" fill-rule="evenodd"><path id="Path 0" d="M114 .07c2.82-.07 19.14 3.82 43.75 10.41C179.34 16.27 197.22 21 197.5 21c.28 0 .5.67.5 1.5s-1.01 1.74-2.25 2.03c-1.24.29-19.69 3.89-41 8-21.31 4.11-39.34 8.03-40.05 8.72-.72.69-5.9 2.15-21.73 5.25l.02 18.5c.01 10.18-.15 32.68-.35 50-.23 20.32-.14 24.75.86-6.5l5-1.23c2.75-.68 8.15-1.78 19-3.66l42.76 11.45c35.76 9.56 42.77 11.73 42.75 13.19 0 1.01-.96 1.94-2.26 2.19-1.24.25-24.52 4.72-51.75 9.93-27.23 5.22-50.85 9.63-55.5 10.13l-.25 14.25c-.22 12.8-.43 14.25-2 14.27-.96.01-20.65-12.07-85.75-53.69l-.25-50.67C5 24.58 5.02 24 7 24c1.1 0 19.66 4.73 41.25 10.51 21.59 5.78 40.04 10.73 41 11 .96.27 1.75.15 1.75-.26.01-.41-18.46-5.7-41.03-11.75C17.74 24.86 9 22.18 9.23 21c.23-1.15 12.03-3.77 50.28-11.17C87.01 4.51 111.53.12 114 .07zM203 26v49c0 26.95-.34 49.18-.75 49.41-.41.22-19.65-4.65-42.75-10.82-23.1-6.18-42.56-11.54-43.25-11.91-.96-.52-1.25-7.51-1.25-29.68 0-22.15.3-29.17 1.25-29.71.69-.4 19.03-4.17 40.75-8.39 21.72-4.22 40.96-7.73 46-7.9z" style="fill:#fff"/><path id="Path 1" d="M376.5 39.33c4.78.22 8.75 1.11 12.5 2.81 3.02 1.37 7.27 4.26 9.44 6.42 2.16 2.17 5.09 6.41 6.5 9.44 2.09 4.48 2.56 6.98 2.54 13.5-.02 5.87-.57 9.2-2.07 12.5-1.12 2.47-3.8 6.47-5.97 8.87-2.17 2.41-5.96 5.4-8.44 6.65-2.48 1.25-7.09 2.77-10.25 3.38-3.97.76-7.3.79-10.75.1-2.75-.55-6.46-1.59-8.25-2.31s-5-2.63-7.14-4.25c-2.14-1.62-5.18-4.85-6.75-7.19-1.57-2.34-3.57-7.06-4.44-10.5-.98-3.86-1.34-7.78-.93-10.25.35-2.2 1.27-6.03 2.04-8.5.77-2.47 3.13-6.53 5.25-9 2.12-2.47 5.63-5.6 7.79-6.95 2.16-1.35 5.73-3.04 7.93-3.75 2.23-.72 7.1-1.15 11-.97zM364.58 57c-1.01.82-2.73 3.3-3.82 5.5-1.53 3.06-1.92 5.46-1.63 10.17.25 4.25 1.02 7.05 2.46 9 1.15 1.56 3.63 3.86 5.5 5.11 2.24 1.5 4.86 2.27 7.66 2.25 2.34-.02 5.91-.82 7.93-1.78 2.02-.96 4.7-3.32 5.96-5.25 1.25-1.93 2.56-5.3 2.91-7.5.36-2.2.17-5.8-.4-8-.57-2.2-2.08-5.32-3.35-6.93-1.26-1.61-4.1-3.74-6.3-4.73-2.2-.99-4.9-1.79-6-1.77-1.1.01-3.6.56-5.55 1.22-1.95.67-4.37 1.89-5.37 2.71zM480.5 39.42c4.08.24 8.98 1.28 11.75 2.5 2.61 1.14 6.61 3.77 8.87 5.83 2.27 2.06 5.25 6 6.62 8.75 1.38 2.75 2.85 7.25 3.28 10 .45 2.85.36 7.37-.22 10.5-.55 3.03-1.86 7.19-2.9 9.25-1.05 2.06-4.04 5.81-6.65 8.32-2.86 2.75-6.94 5.39-10.25 6.63-3.54 1.32-8 2.07-12.5 2.1-5.56.04-8.23-.51-13-2.68-3.3-1.5-7.73-4.39-9.84-6.42-2.11-2.04-4.98-5.95-6.39-8.7-1.52-3-2.75-7.41-3.06-11-.28-3.3.03-8.25.7-11 .66-2.75 2.75-7.36 4.64-10.25 1.9-2.89 5.36-6.55 7.7-8.14 2.34-1.59 6.5-3.61 9.25-4.49 3.36-1.08 7.3-1.48 12-1.2zm-12.78 18.34c-1.53 1.51-3.52 4.77-4.41 7.24-1.14 3.14-1.43 5.86-.95 9 .38 2.47 1.72 6.07 2.98 8 1.27 1.93 3.96 4.29 5.98 5.25 2.02.96 5.48 1.75 7.68 1.75 2.2 0 5.35-.68 7-1.5 1.65-.82 4.24-3.16 5.75-5.18 2.02-2.71 2.86-5.15 3.15-9.25.32-4.41-.1-6.59-2-10.45-1.32-2.68-3.75-5.69-5.4-6.69-1.65-.99-4.8-2.04-7-2.33-2.2-.28-5.35-.08-7 .45-1.65.53-4.25 2.2-5.78 3.71zm68.53-18.68c2.61-.04 6.44.62 8.5 1.47 2.06.86 5.04 2.77 6.63 4.25 1.58 1.49 3.71 4.5 4.72 6.7 1.02 2.2 1.87 4.79 1.88 5.75.02 1.51-1 1.75-7.48 1.75-7.19 0-7.55-.11-8.75-2.73-.69-1.49-2.46-3.18-3.94-3.75-1.95-.74-3.4-.67-5.25.23-2.02.99-2.56 1.99-2.56 4.75 0 3 .47 3.7 3.25 4.89 1.79.76 6.4 2.32 10.25 3.46 4.9 1.46 7.96 3.07 10.19 5.37 1.75 1.8 3.66 4.52 4.25 6.03.58 1.51 1.05 4.44 1.04 6.5-.01 2.06-.85 5.55-1.87 7.75s-2.92 4.99-4.23 6.19c-1.31 1.21-4.18 2.96-6.38 3.89-2.2.94-6.48 1.7-9.5 1.69-3.45-.01-7.37-.83-10.5-2.2-2.75-1.2-6.06-3.17-7.35-4.38-1.28-1.2-2.92-3.31-3.62-4.69-.71-1.37-1.57-3.96-2.53-9h8.5c6.89 0 8.5.28 8.5 1.5 0 .82 1.24 2.42 2.75 3.53 1.51 1.12 3.54 2.02 4.5 2 .96-.01 2.99-1.13 4.5-2.47 2.63-2.34 2.68-2.56 1.22-5.25-1.25-2.28-3.26-3.38-10.65-5.81-5.01-1.65-10.34-4.12-11.85-5.5-1.5-1.37-3.34-3.96-4.1-5.75-.75-1.79-1.36-4.94-1.35-7 .01-2.06.83-5.55 1.81-7.75.98-2.2 3.34-5.18 5.23-6.62 1.89-1.44 4.79-3.1 6.44-3.67 1.65-.58 5.14-1.09 7.75-1.13zM237 40h13c7.15 0 15.36.51 18.25 1.13 3.98.86 6.25 2.13 9.38 5.25 2.43 2.42 4.59 5.77 5.25 8.12.61 2.2 1.11 5.35 1.11 7 0 1.65-.5 4.8-1.11 7-.65 2.35-2.82 5.71-5.25 8.13-2.42 2.43-5.78 4.6-8.13 5.25-2.2.61-6.81 1.11-16.5 1.12v19h-16V71m16-9v7c6.2 0 9.24-.48 10.75-1.08 1.51-.59 3.08-1.6 3.48-2.25.41-.64.75-2.63.75-4.42.01-1.79-.66-3.93-1.48-4.75-1-1-3.5-1.5-7.5-1.5h-6m34-15h16v23h20V40h16v62h-16V78h-20v24h-16V71m119-31h42v15h-13v47h-16V55h-13v-7.5M563 40h16v23h20V40h16v62h-16V78h-20v24h-16V71m58-31h40l-.5 14.5-23.5.5v9h21l-.5 13.5-20.5.5v10h24v14h-40V71m46-31h16v48l18.5.5.5 13.5h-35V71m28.04-31.04 42.46.54v14L724 55v47h-16V55h-13l.02-7.52M781 40v15h-24v9h21v14h-21v10h24v14h-40l-.17-30.33c-.09-16.69.21-30.64.67-31 .46-.37 9.53-.67 39.5-.67zm6 0h13c7.15 0 15.36.52 18.25 1.17 3.94.87 6.27 2.18 9.34 5.25 3.23 3.23 4.37 5.33 5.43 10.08 1.08 4.86 1.1 6.86.09 10.5-.68 2.47-2.34 5.96-3.68 7.75-1.33 1.79-4.28 4.04-10.65 6.75l4.81 6c2.64 3.3 6.41 7.93 11.91 14.59l-19-.12-13-18.47-.5 18.5h-16V71m16-8v8c8 .06 10.37-.57 12.25-1.97 2.2-1.62 2.75-2.83 2.75-6.03 0-2.67-.67-4.67-2-6-1.52-1.52-3.33-2-7.5-2H803" style="fill:#231f20"/></g></svg>