<svg xmlns="http://www.w3.org/2000/svg" viewBox="0 0 351 351" width="351" height="351"><style></style><path id="Path 0" d="M157.5.55c-.55.21-5.72 1.09-11.5 1.94-5.78.85-12.97 2.27-16 3.16-3.03.89-9.1 2.86-13.5 4.38s-10.7 3.96-14 5.43c-3.3 1.46-10.05 4.97-15 7.79-4.95 2.82-11.47 6.96-14.48 9.19-3.01 2.23-6.36 4.73-7.43 5.56-1.07.83-6.19 5.55-11.38 10.5-5.18 4.95-12.43 12.83-16.1 17.5-3.67 4.67-7.85 10.3-9.28 12.5-1.42 2.2-4.14 6.7-6.03 10-1.88 3.3-4.58 8.47-5.99 11.5-1.4 3.03-3.73 8.54-5.18 12.25C10.18 115.96 9 119.45 9 120c0 .55-.43 1.79-.96 2.75s-1.88 5.57-3 10.25-2.46 12.1-2.98 16.5c-.51 4.4-1.22 12.05-1.58 17-.35 4.95-.13 15.53.49 23.5.63 8.06 2.26 19.17 3.65 25 1.39 5.78 3.41 13.2 4.5 16.5 1.09 3.3 2.64 7.46 3.43 9.25.8 1.79 1.45 3.47 1.45 3.75 0 .28 2.07 4.66 4.6 9.75s7.59 13.72 11.25 19.19c3.66 5.46 10.28 14.01 14.72 19 4.44 4.98 10.74 11.35 14 14.15 3.26 2.8 9.31 7.57 13.43 10.58 4.13 3.02 10.88 7.45 15 9.85 4.13 2.39 10.76 5.84 14.75 7.67 3.99 1.82 7.81 3.31 8.5 3.31.96 0 1.25-5.02 1.25-21.75 0-19.36.26-22.85 2.36-31.75 1.3-5.5 3.16-13.37 4.14-17.5.98-4.12 2.74-11.55 3.91-16.5 1.18-4.95 3.03-12.82 4.12-17.5 1.09-4.68 2.9-12.32 4.02-17 1.12-4.68 2.29-10.07 2.6-12 .34-2.07-.09-5.44-1.04-8.25-.89-2.61-2.1-8.24-2.69-12.5-.78-5.61-.77-9.96.04-15.75.69-4.91 2.3-10.51 4.19-14.5 1.9-4.03 5.11-8.49 8.46-11.75 4.18-4.07 6.68-5.61 11.14-6.86 3.47-.97 7.33-1.37 9.75-1.02 2.2.33 5.8 1.79 8 3.25s4.68 3.6 5.5 4.76c.82 1.15 2.29 4.13 3.25 6.61.96 2.48 1.75 6.76 1.76 9.51.01 2.75-1.07 9.28-2.41 14.5-1.33 5.22-3.38 12.65-4.56 16.5-1.17 3.85-2.82 9.47-3.66 12.5-.84 3.03-2.17 7.41-2.95 9.75-.79 2.34-1.43 7.29-1.42 11 .01 5.11.62 8.03 2.5 12 1.62 3.42 3.97 6.31 6.74 8.3 2.34 1.68 5.82 3.52 7.75 4.1 1.93.57 7.78.88 13 .68 8.37-.32 10.33-.77 16.5-3.78 3.85-1.88 8.96-5.25 11.36-7.49 2.4-2.23 5.85-6.09 7.67-8.56 1.81-2.47 4.65-7.2 6.29-10.5 1.64-3.3 3.97-8.93 5.16-12.5 1.2-3.57 2.86-11 3.69-16.5.82-5.5 1.5-14.28 1.5-19.5 0-5.22-.71-13.32-1.58-18-1-5.36-3.04-11.46-5.53-16.5-2.17-4.4-5.83-10.25-8.13-13-2.3-2.75-6.94-7.18-10.31-9.85s-8.82-6.11-12.12-7.65c-3.3-1.54-9.6-3.81-14-5.04-6.58-1.85-10.49-2.25-22-2.23-10.82.02-15.7.48-21.5 2.03-4.12 1.11-10.43 3.32-14 4.92-3.57 1.6-8.71 4.46-11.4 6.36-2.7 1.91-6.22 4.59-7.83 5.96-1.61 1.38-5.06 5.2-7.67 8.5-2.6 3.3-5.87 8.03-7.25 10.5-1.39 2.47-3.49 7.2-4.68 10.5-1.19 3.3-2.84 9.6-3.67 14-.82 4.4-1.49 10.25-1.49 13 .01 2.75.86 9.05 1.89 14 1.03 4.95 3.08 11.7 4.56 15 1.48 3.3 4.01 7.91 5.61 10.25L110 215c-4.45 17.44-6.37 22.9-7.12 23.4-.92.6-2.74.1-5.46-1.5-2.25-1.32-5.41-3.52-7.03-4.9-1.63-1.37-4.97-4.97-7.43-8-2.46-3.03-6.12-8.65-8.14-12.5-2.02-3.85-4.78-10.37-6.14-14.5-1.36-4.12-2.94-11.55-3.51-16.5-.69-5.97-.72-12.54-.08-19.5.52-5.78 2.13-14.55 3.58-19.5 1.44-4.95 2.98-9.68 3.42-10.5.43-.82 2.1-4.2 3.7-7.5s4.77-8.7 7.06-12c2.29-3.3 7.42-9.3 11.4-13.34 3.99-4.04 10.85-9.74 15.25-12.65 4.4-2.92 10.03-6.22 12.5-7.33 2.47-1.11 6.53-2.89 9-3.95 2.47-1.07 8.32-2.9 13-4.08 4.68-1.18 11.88-2.58 16-3.12 4.13-.53 12.34-.98 18.25-1 5.91-.02 14.24.45 18.5 1.05 4.26.59 10 1.75 12.75 2.58 2.75.82 7.03 2.2 9.5 3.06 2.47.85 6.97 2.72 10 4.14 3.03 1.42 8.65 4.61 12.5 7.1 3.85 2.49 10.54 7.91 14.88 12.03 4.33 4.13 9.79 10.21 12.13 13.51 2.34 3.3 5.39 8.25 6.78 11 1.38 2.75 3.24 6.57 4.12 8.5.89 1.93 2.32 5.97 3.18 9 .86 3.03 1.95 7.3 2.42 9.5.48 2.2 1.16 8.05 1.52 13 .36 4.95.17 13.5-.41 19s-1.99 13.6-3.12 18c-1.13 4.4-3.04 10.7-4.24 14-1.2 3.3-3.94 9.38-6.09 13.5-2.15 4.13-6.71 11.1-10.13 15.5-3.42 4.4-8.43 9.96-11.13 12.36-2.7 2.4-6.94 5.75-9.41 7.45-2.47 1.7-7.43 4.52-11 6.27-3.57 1.75-10.1 4.19-14.5 5.42-5.84 1.63-10.84 2.26-18.5 2.31-8.26.05-11.78-.39-16.5-2.05-3.3-1.16-8.24-3.39-10.98-4.94-2.74-1.55-6.93-4.84-9.31-7.32-4.19-4.37-4.36-4.44-5.78-2.5-.8 1.1-1.46 2.56-1.45 3.25.01.69-2.05 9.01-4.57 18.5-2.53 9.49-5.46 19.84-6.5 23-1.05 3.16-3.32 8.79-5.05 12.5-1.73 3.71-5.55 11.14-8.5 16.5-2.95 5.36-5.19 10.31-4.99 11 .21.69 2.35 1.82 4.75 2.51 2.41.69 9.56 2.23 15.88 3.41 9.06 1.69 15.53 2.16 30.5 2.21 12.05.05 21.56-.42 26-1.27 3.85-.74 10.82-2.23 15.5-3.32 4.68-1.09 11.88-3.11 16-4.5 4.13-1.39 9.86-3.6 12.75-4.91 2.89-1.31 5.47-2.38 5.75-2.38.28 0 5.34-2.78 11.25-6.18 5.91-3.41 13.22-8.02 16.24-10.25 3.03-2.24 7.08-5.41 9-7.04 1.93-1.63 7.59-7.03 12.57-12s11.77-12.63 15.09-17.03c3.31-4.4 8.61-12.5 11.77-18s7.03-12.93 8.58-16.5c1.56-3.57 4.21-10.55 5.89-15.5 1.68-4.95 4.26-14.62 5.73-21.5 2.42-11.33 2.67-14.52 2.68-34 .01-11.87-.49-24.19-1.12-27.5-.62-3.3-2-9.6-3.06-14s-2.69-10.7-3.62-14c-.93-3.3-2.03-6.45-2.46-7-.43-.55-1.28-2.58-1.89-4.5-.61-1.92-3.11-7.55-5.57-12.5-2.45-4.95-6.05-11.47-8.01-14.5-1.95-3.03-4.12-6.34-4.81-7.37-.69-1.02-3.44-4.62-6.1-8-2.67-3.37-6.97-8.38-9.57-11.13-2.61-2.75-7.18-7.27-10.16-10.05-2.99-2.78-9.03-7.76-13.43-11.06-4.4-3.31-12.05-8.33-17-11.14-4.95-2.82-11.7-6.33-15-7.79-3.3-1.47-9.15-3.81-13-5.2-3.85-1.39-10.15-3.4-14-4.46-3.85-1.06-12.85-2.8-20-3.87-8.8-1.32-17.84-1.92-28-1.86-8.25.05-15.45.26-16 .48z" style="fill:#feffff"/></svg>