<svg xmlns="http://www.w3.org/2000/svg" viewBox="0 0 404 512" width="404" height="512"><style></style><path id="Path 0" d="M196 2.1c-1.93 1.15-5.19 3.74-7.27 5.75l-3.76 3.65c.02 48.05-.28 83.6-.67 110l-.69 48c-9.39-6.44-16.16-10.33-21.11-12.79-4.95-2.47-11.7-5.4-15-6.52-3.3-1.12-10.72-3.02-16.5-4.22-8.95-1.86-12.57-2.1-24.5-1.64-10.52.41-16.36 1.17-23.5 3.08-5.22 1.4-11.97 3.49-15 4.63-3.03 1.15-9.73 4.42-14.9 7.27-5.17 2.86-12.35 7.66-15.95 10.69-3.6 3.03-9.2 8.65-12.44 12.5-3.25 3.85-7.66 10.15-9.8 14-2.15 3.85-5.22 10.38-6.82 14.5-1.61 4.13-3.97 12.45-5.25 18.5l-2.32 11c.36 133.3.75 192.02 1.1 216.5l.64 44.5c5.61 5.17 8.93 7.53 10.99 8.58 2.99 1.53 5.87 1.92 14.25 1.92H38c-.04-129.04.2-188.55.51-215.5.43-38.49.87-50.39 2.05-55.5.83-3.57 2.43-8.97 3.56-12 1.13-3.03 3.64-8.2 5.57-11.5 1.94-3.3 5.61-8.45 8.17-11.44 2.55-3 7.34-7.43 10.64-9.86 3.3-2.43 8.25-5.55 11-6.95 2.75-1.39 7.92-3.39 11.5-4.44 3.58-1.05 10.55-2.17 15.5-2.5 6.55-.42 11.32-.11 17.5 1.14 4.68.95 11.65 3.05 15.5 4.67 3.85 1.62 10.13 5.29 13.95 8.16 3.82 2.87 9.34 8.15 12.27 11.72 2.92 3.57 6.73 9.2 8.46 12.5 1.74 3.3 4.15 8.93 5.36 12.5 1.22 3.57 2.77 10.78 3.45 16 .97 7.5.98 11.08.01 17-.67 4.13-2.31 10.65-3.66 14.5-1.34 3.85-4.1 9.7-6.13 13-2.04 3.3-5.88 8.48-8.55 11.5-2.66 3.02-7.17 7.25-10 9.39-2.84 2.15-8.31 5.4-12.16 7.24-3.85 1.84-11.05 4.25-16 5.34-7.87 1.74-12.8 1.99-39.25 2.01L57 329v40c57.62-.69 67.06-1.16 72-2.33 3.57-.84 10.78-2.96 16-4.69 5.22-1.73 13.32-5.19 18-7.68 4.68-2.49 11.2-6.46 14.5-8.82 3.3-2.35 8.51-6.69 11.57-9.63 3.06-2.94 7.11-7.3 9-9.69l3.43-4.34c8.73 10.6 13.62 15.7 16.5 18.18 2.87 2.48 8.21 6.44 11.86 8.81 3.65 2.38 9.79 5.8 13.64 7.62 3.85 1.81 9.7 4.22 13 5.36 3.3 1.13 10.73 3.04 16.5 4.24 8.95 1.86 12.57 2.1 24.5 1.64 10.42-.4 16.43-1.18 23.5-3.06 5.23-1.38 12.88-3.89 17-5.57 4.13-1.68 10.82-4.97 14.89-7.3 4.06-2.33 10.34-6.72 13.95-9.74 3.6-3.02 9.21-8.65 12.45-12.5 3.25-3.85 7.66-10.15 9.8-14 2.15-3.85 5.22-10.37 6.83-14.5 1.6-4.12 3.93-12.68 5.17-19 1.76-9 2.24-14.86 2.21-27-.03-11.73-.55-17.94-2.13-25.5-1.15-5.5-3.26-13.15-4.7-17-1.43-3.85-3.92-9.36-5.54-12.25-1.61-2.89-5.29-8.48-8.18-12.43-2.89-3.95-7.95-9.61-11.25-12.59-3.3-2.97-9.6-7.79-14-10.71-4.4-2.92-10.7-6.65-14-8.3-3.3-1.64-9.82-4.35-14.5-6-4.68-1.66-11.87-3.79-16-4.73-6.05-1.39-13.84-1.8-40.25-2.11L240 143v40c52.53 0 61.37.36 67.5 1.55 4.4.86 11.15 2.86 15 4.47 3.85 1.6 10.15 5.1 14 7.77 3.85 2.67 9.25 7.43 12 10.59 2.75 3.15 6.69 8.74 8.76 12.42 2.06 3.69 4.91 10.3 6.32 14.7 1.48 4.61 2.8 11.6 3.13 16.5.4 6.02.06 10.98-1.15 17-.94 4.68-2.88 11.43-4.31 15-1.43 3.57-4.17 9.2-6.09 12.5-1.93 3.3-6.69 9.19-10.58 13.09-4.15 4.16-10.4 9.02-15.08 11.73-4.4 2.56-11.6 5.65-16 6.88-6.15 1.72-10.66 2.24-19.5 2.24-8.99.01-13.24-.49-19.5-2.27-4.4-1.26-10.7-3.79-14-5.62-3.3-1.83-8.33-5.29-11.17-7.69-2.84-2.4-7.34-7.06-10-10.37-2.66-3.3-6.48-9.15-8.51-13-2.02-3.84-4.71-10.36-5.99-14.49l-2.31-7.5L221.97 0C201.12.01 199 .31 196 2.1z" style="fill:#fff"/></svg>