<svg xmlns="http://www.w3.org/2000/svg" viewBox="0 0 258 260" width="258" height="260"><style></style><path id="Path 0" fill-rule="evenodd" d="M126 .13c16.23-.07 40.07.54 53 1.34 12.93.81 31.38 2.36 41 3.45 9.63 1.1 20.08 2.35 23.24 2.78 5.04.7 5.8 1.1 6.23 3.3.27 1.38 1.39 10.15 2.49 19.5 1.1 9.35 2.76 26 3.7 37 1.26 14.77 1.71 30.73 1.7 61-.01 29.95-.47 46.53-1.72 61.5-.94 11.27-2.62 28.15-3.72 37.5-1.11 9.35-2.21 18.01-2.46 19.25-.31 1.51-1.37 2.41-3.21 2.74-1.51.26-11.3 1.59-21.75 2.95-10.45 1.35-25.3 3.15-33 4-7.7.85-20.52 1.99-28.5 2.54s-23.27 1-34 1c-10.72 0-26.03-.45-34-1-7.97-.56-22.82-1.93-33-3.06-10.18-1.13-26.15-3.13-35.5-4.45-10.74-1.51-17.25-2.87-17.67-3.68-.36-.71-1.61-9.61-2.76-19.79-1.15-10.18-2.83-27.05-3.72-37.5-1.17-13.58-1.64-30.98-1.68-61-.03-31.54.39-47.11 1.69-62.5.95-11.28 2.63-28.15 3.73-37.5 1.1-9.35 2.22-17.9 2.49-19 .37-1.55 1.66-2.17 5.7-2.74C17.15 7.35 27.82 6.07 38 4.92s27.5-2.67 38.5-3.38S109.78.2 126 .13zM96.5 60.95c-4.4 2.15-10.14 5.96-12.75 8.48C81.14 71.94 77.65 76.7 76 80c-1.65 3.3-3.54 9.04-4.21 12.75-.96 5.39-.94 8.06.1 13.25.72 3.57 2.33 8.53 3.58 11 1.25 2.47 4.71 6.75 7.7 9.5 2.98 2.75 8.33 6.43 11.88 8.19 3.55 1.75 14.77 5.44 24.95 8.2 10.18 2.76 20.07 5.67 22 6.47 1.93.81 4.63 2.67 6 4.13 1.94 2.07 2.5 3.72 2.48 7.34-.01 2.66-.77 5.85-1.75 7.42-.95 1.51-3.87 3.71-6.48 4.88-2.85 1.28-7.76 2.34-12.25 2.65-4.12.29-11.1-.05-15.5-.76-4.4-.7-11.15-2.36-15-3.68-3.85-1.32-10.04-3.96-13.75-5.87L79 162c-1.47 5.81-3.24 12.9-4.89 19.5-2.23 8.95-2.69 12.19-1.8 12.73.65.4 5.01 2.13 9.69 3.84 4.68 1.7 12.32 3.98 17 5.06 4.69 1.09 14.33 2.23 21.5 2.55 10.19.47 14.84.22 21.5-1.14 4.68-.95 11.2-2.81 14.5-4.15 3.3-1.33 8.93-4.6 12.5-7.26 3.89-2.89 8.08-7.2 10.45-10.73 2.17-3.25 4.76-8.49 5.75-11.65.99-3.16 1.8-8.56 1.81-12 .01-3.44-.73-8.73-1.63-11.75-.9-3.02-2.63-7.07-3.85-9-1.21-1.93-4.23-5.3-6.69-7.5-2.47-2.2-7.83-5.63-11.91-7.63-4.09-1.99-16.2-6.2-26.93-9.35-10.72-3.15-21.07-6.52-23-7.48-1.93-.96-3.84-2.49-4.25-3.4-.41-.9-.76-3.78-.78-6.39-.02-3.67.49-5.23 2.25-6.88 1.26-1.16 3.41-2.69 4.78-3.38 1.38-.7 5.88-1.5 10-1.78 4.13-.28 11.1.04 15.5.71 4.4.68 11.15 2.15 15 3.27 3.85 1.13 9.48 3.12 12.5 4.43 3.02 1.31 5.57 2.27 5.65 2.13.09-.14 2.26-6.78 4.84-14.75 3.69-11.45 4.4-14.66 3.34-15.25-.73-.41-3.81-1.68-6.83-2.83-3.02-1.15-8.87-2.93-13-3.96-4.12-1.02-10.43-2.33-14-2.9-3.57-.58-11.68-1.01-18-.97-6.32.04-14.65.72-18.5 1.52-3.85.79-10.6 3.2-15 5.34z" style="fill:#fff"/></svg>