<svg xmlns="http://www.w3.org/2000/svg" viewBox="0 0 155 232" width="155" height="232"><style></style><path id="Path 0" d="M68.5 3.11c-4.4.35-10.92 1.42-14.5 2.37-3.58.95-8.75 2.73-11.5 3.95-2.75 1.22-7.48 3.81-10.5 5.75-3.02 1.95-7.75 5.85-10.5 8.67-2.75 2.82-6.69 7.95-8.76 11.39-2.34 3.9-4.38 9.09-5.4 13.76-1.18 5.44-1.47 10.11-1.06 17 .33 5.45 1.45 12.16 2.65 15.75 1.14 3.44 3.25 8.16 4.69 10.5 1.44 2.34 4.03 5.76 5.75 7.6 1.72 1.84 5.83 5.2 9.13 7.45 3.3 2.26 9.6 5.62 14 7.47 4.4 1.85 16.44 5.58 26.75 8.3 10.31 2.71 22.46 6.3 27 7.97 4.54 1.67 10.28 4.33 12.75 5.91 2.47 1.58 6.41 4.94 8.75 7.46 2.96 3.2 4.75 6.34 5.88 10.34 1.06 3.73 1.46 7.86 1.15 11.75-.27 3.3-1.48 8.25-2.69 11-1.2 2.75-3.63 6.5-5.39 8.34-1.76 1.84-5.79 4.65-8.95 6.25-3.16 1.6-8.79 3.62-12.5 4.49-4.06.95-11.13 1.56-17.75 1.54-6.6-.02-13.4-.65-17-1.59-3.3-.85-9.83-3.41-14.5-5.69-6.82-3.32-10.28-5.9-17.5-13.03-4.95-4.89-9.32-8.76-9.7-8.6-.39.16-4.78 3.78-9.75 8.04-4.98 4.26-9.07 8.54-9.09 9.5-.02.96 1.91 4.45 4.3 7.75 2.39 3.3 7.25 8.21 10.79 10.9 3.55 2.7 10.95 7.06 16.45 9.69 5.5 2.64 13.6 5.72 18 6.84 4.4 1.13 12.27 2.5 17.5 3.04 6.14.63 13.21.64 20 .02 5.78-.53 13.42-1.66 17-2.51 3.58-.85 10.55-3.5 15.5-5.88 6.62-3.19 10.72-6.02 15.5-10.72 3.57-3.51 7.94-9.08 9.69-12.38 1.76-3.3 3.94-9.15 4.86-13 1.24-5.25 1.53-9.75 1.15-18-.36-7.59-1.18-12.86-2.65-17-1.17-3.3-3.18-7.8-4.47-10-1.28-2.2-4.41-6.14-6.96-8.75-2.54-2.61-7.66-6.7-11.37-9.09-3.71-2.39-10.58-5.95-15.25-7.93-4.67-1.97-13.22-4.92-19-6.55-5.78-1.64-15.67-4.41-22-6.16-6.33-1.76-14.65-4.68-18.5-6.5-4.4-2.09-8.58-5.03-11.25-7.92-2.95-3.19-4.75-6.36-5.88-10.35-1.05-3.69-1.46-7.89-1.16-11.75.27-3.51 1.52-8.22 3.02-11.36 1.64-3.46 4.1-6.53 6.91-8.63 2.4-1.8 6.27-4.22 8.61-5.39s7.06-2.79 10.5-3.61C64.69 30.7 71.78 30.02 77 30c6.41-.01 12.1.65 17.5 2.04 4.4 1.13 10.92 3.59 14.5 5.48 3.58 1.88 8.64 5.46 11.25 7.95 2.61 2.49 5.09 4.54 5.5 4.56.41.01 5.25-3.6 10.75-8.02 5.5-4.43 10.15-8.6 10.34-9.28.19-.68-2.73-4.17-6.5-7.77-4.61-4.4-9.78-8.04-15.84-11.15-4.95-2.53-11.92-5.5-15.5-6.6-3.58-1.09-9.87-2.48-14-3.07-4.12-.6-9.97-1.22-13-1.38-3.03-.15-9.1 0-13.5.35z" style="fill:#fff"/></svg>