<svg xmlns="http://www.w3.org/2000/svg" viewBox="0 0 482 482" width="482" height="482"><style></style><path id="Path 0" fill-rule="evenodd" d="M241.5.4c7.7.24 16.25.69 19 1.02 2.75.32 11.52 1.53 19.5 2.68 7.98 1.15 15.29 2.5 16.25 3 .96.49 3.1.9 4.75.9s3.23.45 3.5 1 1.4 1 2.5 1 3.46.65 5.25 1.44c1.79.79 5.95 2.24 9.25 3.23 3.3.98 7.57 2.58 9.5 3.56 1.93.98 3.95 1.77 4.5 1.76.55-.02 5.05 2.06 10 4.61 4.95 2.56 10.01 5.27 11.25 6.03 1.24.75 2.93 1.37 3.75 1.37.82 0 1.61.35 1.75.78.14.43 4.97 3.92 10.75 7.75 5.77 3.84 10.95 7.17 11.5 7.4.55.24 1.9 1.37 3 2.52 1.1 1.14 4.25 3.84 7 6s9.98 8.91 16.06 14.99c6.08 6.08 12.83 13.31 14.99 16.06 2.16 2.75 4.86 5.9 6 7 1.15 1.1 2.28 2.45 2.52 3 .23.55 3.54 5.72 7.35 11.5 3.8 5.78 7.29 10.61 7.75 10.75.45.14.83.92.83 1.75s1.07 3.41 2.38 5.75c1.3 2.34 4 7.29 6 11 1.99 3.71 3.62 7.31 3.61 8 0 .69.8 2.82 1.78 4.75.98 1.93 2.58 6.2 3.56 9.5.99 3.3 2.44 7.46 3.23 9.25S472 173.9 472 175c0 1.1.45 2.22 1 2.5.55.28 1 1.85 1 3.5s.42 3.79.92 4.75c.51.96 1.66 6.03 2.55 11.25.89 5.22 1.84 13.1 2.12 17.5.27 4.4.93 9.35 1.47 11 .53 1.65.97 8.63.97 15.5 0 6.88-.44 13.85-.97 15.5-.54 1.65-1.2 6.6-1.47 11-.28 4.4-1.23 12.27-2.12 17.5-.89 5.23-2.04 10.29-2.55 11.25-.5.96-.92 3.1-.92 4.75s-.45 3.23-1 3.5-1 1.4-1 2.5-.65 3.46-1.44 5.25c-.79 1.79-2.24 5.95-3.23 9.25-.98 3.3-2.58 7.57-3.56 9.5-.98 1.93-1.78 4.06-1.78 4.75.01.69-1.62 4.29-3.61 8-2 3.71-4.7 8.66-6 11-1.31 2.34-2.38 4.7-2.38 5.25 0 .55-.69 1.79-1.53 2.75-.84.96-4.44 6.14-8 11.5-3.56 5.36-6.47 9.98-6.47 10.25 0 .27-1.11 1.51-2.46 2.75-1.35 1.24-2.48 2.59-2.5 3-.02.41-1.73 2.66-3.79 5s-8.7 9.23-14.75 15.31c-6.05 6.08-13.25 12.83-16 14.99s-5.9 4.86-7 6c-1.1 1.15-2.45 2.28-3 2.52-.55.23-5.73 3.56-11.5 7.4-5.78 3.83-10.61 7.32-10.75 7.75-.14.43-.93.78-1.75.78s-2.51.62-3.75 1.37c-1.24.76-6.3 3.47-11.25 6.03-4.95 2.55-9.45 4.63-10 4.61-.55-.01-2.57.78-4.5 1.76-1.93.98-6.2 2.6-9.5 3.6-3.3 1.01-9.26 2.91-13.25 4.23-3.99 1.32-7.93 2.4-8.75 2.4-.82 0-2.29.41-3.25.9-.96.5-8.27 1.85-16.25 3s-16.75 2.37-19.5 2.71c-2.75.33-11.53.61-19.5.62-7.97 0-18.32-.45-23-1s-13.45-1.77-19.5-2.7c-6.05-.93-11.79-2.11-12.75-2.61-.96-.51-2.43-.92-3.25-.92-.82 0-4.76-1.08-8.75-2.4-3.99-1.32-9.95-3.22-13.25-4.23-3.3-1-7.57-2.62-9.5-3.6-1.93-.98-3.95-1.77-4.5-1.76-.55.02-5.05-2.06-10-4.61-4.95-2.56-10.01-5.27-11.25-6.03-1.24-.75-2.92-1.37-3.75-1.37-.83 0-1.61-.35-1.75-.78-.14-.43-4.97-3.92-10.75-7.75-5.77-3.84-10.95-7.17-11.5-7.4-.55-.24-1.9-1.37-3-2.52-1.1-1.14-4.25-3.84-7-6s-9.95-8.91-16-14.99c-6.05-6.08-12.69-12.97-14.75-15.31-2.06-2.34-3.77-4.59-3.79-5-.02-.41-1.15-1.76-2.5-3s-2.49-2.59-2.53-3c-.03-.41-1.59-2.77-3.47-5.25-1.87-2.48-4.99-7.31-6.93-10.75-1.94-3.44-3.98-6.25-4.53-6.25-.55 0-1-.68-1-1.5s-1.07-3.41-2.38-5.75c-1.3-2.34-4-7.29-6-11-1.99-3.71-3.62-7.31-3.61-8 0-.69-.8-2.82-1.78-4.75-.98-1.93-2.58-6.2-3.56-9.5-.99-3.3-2.44-7.46-3.23-9.25S10 308.1 10 307c0-1.1-.45-2.23-1-2.5s-1-2.07-1-4c0-1.93-.34-3.67-.75-3.89-.41-.21-1.06-2.35-1.44-4.75-.39-2.4-1.21-7.51-1.83-11.36-.62-3.85-1.62-11.05-2.21-16C1.18 259.55.71 248.97.74 241c.03-7.97.48-18.32 1-23 .53-4.68 1.74-13.45 2.69-19.5.95-6.05 2.15-11.79 2.65-12.75.51-.96.92-3.1.92-4.75s.45-3.22 1-3.5c.55-.28 1-1.4 1-2.5s.65-3.46 1.44-5.25c.79-1.79 2.24-5.95 3.23-9.25.98-3.3 2.58-7.57 3.56-9.5.98-1.93 1.78-4.06 1.78-4.75-.01-.69 1.62-4.29 3.61-8 2-3.71 4.7-8.66 6-11 1.31-2.34 2.38-4.92 2.38-5.75 0-.83.45-1.5 1-1.5s2.59-2.81 4.53-6.25c1.94-3.44 5.06-8.28 6.93-10.75 1.88-2.47 3.44-4.84 3.47-5.25.04-.41 1.09-1.76 2.33-3 1.25-1.24 4.03-4.5 6.19-7.25s8.91-9.95 14.99-16c6.08-6.05 12.97-12.69 15.31-14.75 2.34-2.06 4.37-3.75 4.51-3.75.14 0 1.38-1.04 2.75-2.32 1.37-1.27 2.94-2.51 3.49-2.75.55-.23 5.73-3.56 11.5-7.4 5.78-3.83 10.61-7.32 10.75-7.75.14-.43.92-.78 1.75-.78s2.51-.62 3.75-1.37c1.24-.76 6.3-3.47 11.25-6.03 4.95-2.55 9.45-4.63 10-4.61.55.01 2.57-.78 4.5-1.76 1.93-.98 6.2-2.58 9.5-3.56 3.3-.99 7.46-2.44 9.25-3.23S173.9 10 175 10c1.1 0 2.22-.45 2.5-1 .28-.55 1.85-1 3.5-1s3.79-.42 4.75-.92c.96-.51 7.94-1.86 15.5-3 7.56-1.15 15.89-2.09 18.5-2.1 2.61 0 5.43-.46 6.25-1.01.9-.6 7.1-.82 15.5-.57zm-10.75 101.57c-.41.02-6.68 3.66-13.93 8.1-7.25 4.43-13.1 8.48-13 9 .1.51-.5.93-1.32.93-.82 0-3.86 1.42-6.75 3.16-2.89 1.74-8.4 5.2-12.25 7.7-3.85 2.49-9.57 5.91-12.72 7.59-3.14 1.68-6.74 3.94-8 5.03-1.25 1.09-4.42 3.01-7.03 4.25-2.61 1.25-5.63 3.08-6.7 4.06-1.08.99-3.43 2.45-5.23 3.25-1.81.8-4.86 2.63-6.8 4.05-1.94 1.43-4.42 2.89-5.52 3.25-1.1.36-3.35 1.78-5 3.15-2.53 2.11-2.76 2.66-1.5 3.52.83.57 4.43 2.8 8 4.98 3.57 2.17 8.64 5.2 11.26 6.73 2.62 1.53 9.15 5.59 14.5 9.02 5.36 3.44 11.77 7.26 14.24 8.5 2.47 1.24 4.83 2.71 5.23 3.26.4.55 2.06 1.68 3.67 2.5 1.62.82 5.56 3.04 8.77 4.92s8.3 5.09 11.33 7.13c3.03 2.04 10 6.45 15.5 9.81 5.5 3.35 10.56 6.1 11.25 6.12.69.01 1.25.36 1.24.77 0 .41 2.48 2.21 5.5 4L241 240c8.53-5.04 11.01-6.84 11.01-7.25-.01-.41.55-.76 1.24-.77.69-.02 5.75-2.78 11.25-6.14s12.93-8.01 16.5-10.32c3.57-2.32 9.09-5.86 12.25-7.87s6.2-3.65 6.75-3.65c.55 0 1.82-.79 2.83-1.75 1-.96 3.81-2.77 6.25-4.01 2.43-1.24 8.8-5.06 14.16-8.5 5.35-3.43 11.88-7.49 14.5-9.02 2.62-1.53 7.69-4.56 11.26-6.73 3.57-2.18 7.18-4.41 8-4.98 1.26-.86 1.03-1.41-1.5-3.52-1.65-1.37-3.9-2.79-5-3.15-1.1-.36-3.58-1.82-5.52-3.25-1.94-1.42-5.09-3.26-7-4.07-1.91-.82-4.27-2.28-5.23-3.25-.96-.98-3.89-2.79-6.5-4.04-2.61-1.24-5.78-3.16-7.03-4.25-1.26-1.09-4.86-3.35-8-5.03-3.15-1.68-8.87-5.1-12.72-7.59-3.85-2.5-9.36-5.96-12.25-7.7-2.89-1.74-5.93-3.16-6.75-3.16-.82 0-1.5-.45-1.5-1s-5.85-4.6-13-9-13.34-8.01-13.75-8.03c-.41-.01-2.55-1.37-4.75-3.02s-4.69-2.98-5.54-2.97c-.85.01-3.33 1.36-5.5 2.99-2.18 1.64-4.3 2.99-4.71 3zM121.81 320.78c.93.71 5.07 3.34 9.19 5.85 4.13 2.51 10.65 6.54 14.5 8.96 3.85 2.41 9.03 5.4 11.5 6.65 2.47 1.24 4.72 2.53 5 2.86.28.33 4.34 3.03 9.03 6 4.69 2.97 10.32 6.3 12.49 7.4 2.18 1.1 5.02 2.9 6.31 4 1.3 1.1 4.34 3.13 6.76 4.5 2.43 1.38 9.81 5.76 16.41 9.75s12.22 7.25 12.5 7.25c.28 0 .5-27 .5-60v-60c-4.66-1.94-6.01-2.84-6.01-3.25.01-.41-.67-.75-1.49-.75s-2.74-1.15-4.25-2.56c-1.51-1.41-3.87-2.86-5.25-3.21-1.37-.36-3.62-1.7-5-2.98-1.37-1.29-3.4-2.61-4.5-2.95-1.1-.34-2.52-1.11-3.15-1.71-.64-.6-4.83-3.34-9.32-6.09-4.48-2.75-11.16-6.93-14.84-9.29-3.68-2.35-7.94-4.6-9.46-5-1.53-.39-2.76-1.16-2.73-1.71.02-.55-1.65-1.95-3.73-3.1-2.07-1.16-9.84-5.82-17.27-10.36-7.43-4.54-14.74-9.11-16.25-10.15-1.51-1.04-2.86-1.89-3-1.89-.14 0-.11 27.11.06 60.25.29 55.12.46 60.36 2 61.53zm216.44-105.79c-.14.56-1.04 1.01-2 1.02-.96 0-3.1.91-4.75 2.03-1.65 1.11-4.46 2.68-6.25 3.49s-3.24 2.03-3.23 2.72c.02.69-1.33 1.59-3 2-1.66.41-3.66 1.43-4.45 2.25-.78.82-1.8 1.51-2.25 1.52-.45 0-2.39 1.05-4.32 2.33-1.93 1.27-7.77 4.96-13 8.18-5.23 3.22-9.73 6.11-10 6.42-.27.3-2.25 1.45-4.39 2.55-2.13 1.1-4.05 2.56-4.25 3.25-.2.69-1.04 1.25-1.86 1.25-.82 0-3.98 1.35-7 3s-5.5 3.34-5.49 3.75c0 .41-1.35 1.31-3 2L256 264c0 93 .23 120 .5 120s5.9-3.26 12.5-7.25 13.98-8.37 16.41-9.75c2.42-1.37 5.46-3.4 6.76-4.5 1.29-1.1 4.13-2.9 6.31-4 2.17-1.1 7.8-4.43 12.49-7.4 4.69-2.97 8.76-5.67 9.03-6 .27-.33 2.52-1.62 5-2.86 2.48-1.25 7.65-4.24 11.5-6.65 3.85-2.42 10.38-6.45 14.5-8.96 4.13-2.51 8.26-5.14 9.19-5.85 1.54-1.17 1.71-6.41 2-61.53.17-33.14.08-60.21-.19-60.16-.27.06-5.68 3.43-12 7.49-6.32 4.07-11.61 7.85-11.75 8.41z" style="opacity:.984;fill:#feffff"/></svg>