<svg xmlns="http://www.w3.org/2000/svg" viewBox="0 0 193 159" width="193" height="159"><style></style><path id="Path 0" fill-rule="evenodd" d="M90.75.1c1.24-.05 3.49.53 5 1.31 1.51.78 3.93 2.69 5.37 4.25s4.18 5.32 6.09 8.34c1.91 3.02 4.39 7.3 5.5 9.5 1.65 3.23 2.88 4.25 6.41 5.3 2.41.71 5.28 1.69 6.38 2.18 1.1.49 7.4 2.3 14 4.03 6.6 1.73 14.47 3.76 17.5 4.51 3.03.74 7.07 1.81 9 2.36 1.93.56 6.43 1.84 10 2.86 3.57 1.01 8.19 2.83 10.25 4.05 2.06 1.21 4.48 3.67 5.37 5.46 1.26 2.51 1.47 4.62.91 9.25-.39 3.3-3.16 15.67-6.16 27.5s-6.06 23.53-6.79 26c-.73 2.47-1.84 6.3-2.46 8.5-.62 2.2-2.28 8.05-3.68 13-1.4 4.95-3.2 10.35-4 12-.8 1.65-3.1 4.13-5.12 5.5-3.13 2.13-4.73 2.48-10.75 2.37-4.28-.08-11.6-1.32-18.57-3.15-6.32-1.66-15.78-4.23-21-5.69-5.22-1.47-11.3-3.11-13.5-3.65-2.2-.53-5.58-1.36-7.5-1.83-1.92-.48-5.08-1.36-7-1.96-1.92-.6-4.74-1.09-6.25-1.09-1.51 0-4.44.91-6.5 2.03-2.06 1.12-3.97 2.48-4.25 3.02-.28.54-2.3 1.41-4.5 1.94s-5.69.97-7.75.99c-2.06.01-4.76-.5-6-1.14-1.24-.63-3.25-2.09-4.48-3.25-1.23-1.15-2.24-2.65-2.25-3.34-.01-.69-.36-1.23-.77-1.21-.41.02-1.87-2.11-3.25-4.73-1.37-2.62-3.06-5.33-3.75-6.03-.69-.71-1.25-2.18-1.25-3.28 0-1.1-.45-2-1-2s-2.14-2.14-3.53-4.75c-1.39-2.61-2.52-5.54-2.5-6.5.02-.96-.31-1.73-.72-1.71-.41.02-2.44-2.68-4.5-6s-3.73-6.38-3.71-6.79c.03-.41-.67-1.42-1.55-2.25-.88-.83-2.49-3.3-3.57-5.5-1.08-2.2-2.82-5.35-3.87-7-1.05-1.65-1.94-3.79-1.98-4.75-.04-.96-1.24-2.99-2.67-4.5-1.43-1.51-3.23-3.99-4-5.5-.77-1.51-1.66-5.11-1.97-8-.52-4.75-.26-5.74 2.75-10.35 1.83-2.8 4.78-6.29 6.57-7.75S12.45 40 13 40c.55 0 3.59-1.42 6.75-3.16 3.16-1.73 9.35-5.08 13.75-7.44 4.4-2.36 9.13-4.92 10.5-5.69 1.38-.78 8.58-4.89 16-9.14 7.42-4.26 15.19-8.83 17.25-10.15 2.06-1.33 5.44-2.82 7.5-3.32 2.06-.49 4.76-.94 6-1zm-18.8 20.17c-3.06 1.78-12.2 7.06-20.32 11.73-8.12 4.67-16.87 9.73-19.44 11.24-2.58 1.51-5.59 3.15-6.69 3.64-1.1.49-3.96 2.63-6.36 4.75-3.85 3.41-4.42 4.46-4.8 8.87-.26 3.04.08 5.85.87 7.16.71 1.19 3.31 5.69 5.77 10 2.47 4.31 5.29 9.19 6.26 10.84.97 1.65 2.56 4.58 3.52 6.5.95 1.92 1.97 3.72 2.26 4 .29.28 4.34 7.18 9 15.35 5.32 9.33 9.6 15.63 11.48 16.94 1.65 1.15 5.03 2.31 7.5 2.59 3.76.42 4.34.26 3.56-.94-.52-.79-1.75-2-2.75-2.69-1.47-1.01-1.81-2.63-1.81-8.5 0-5.12.9-10.34 3.05-17.75 1.67-5.78 3.47-12.97 3.99-16 .51-3.03 2.08-9.78 3.49-15 1.4-5.22 2.93-10.85 3.39-12.5.46-1.65 1.84-6.83 3.06-11.5 1.23-4.67 2.89-10.3 3.71-12.5.81-2.2 2.23-4.85 3.14-5.88.92-1.03 3.36-2.95 5.42-4.25C91.31 25.07 94.35 24 96 24c1.65 0 3-.45 3-1s-1.46-2.56-3.25-4.47c-2.52-2.69-4.26-3.59-7.75-3.97-2.9-.33-5.57.03-7.5.99-1.65.82-5.5 2.94-8.55 4.72zm18.53 22.75c-1.36 1.91-2.92 5.51-3.46 7.98-.55 2.47-2.29 9.22-3.87 15-1.59 5.78-4.92 17.92-7.4 27-2.48 9.08-4.78 17.85-5.1 19.5-.31 1.65-.14 4.46.39 6.25s1.75 4.12 2.71 5.18c.96 1.05 3.78 2.8 6.25 3.87 2.47 1.07 9.9 3.39 16.5 5.16s15.15 4.02 19 5c3.85.99 10.6 2.78 15 3.98 4.4 1.2 9.35 2.6 11 3.11 1.65.51 5.14.93 7.75.94 3.97.01 5.33-.52 8.31-3.24 2.06-1.89 4.16-5.14 5-7.75.8-2.47 2.75-9.45 4.34-15.5 1.59-6.05 3.81-14.37 4.94-18.5 1.12-4.12 3.42-12.79 5.1-19.25 1.68-6.46 3.06-13.21 3.07-15 0-1.79-.77-4.37-1.72-5.75-.95-1.37-2.64-3.26-3.76-4.19-1.12-.93-6.98-3.05-13.03-4.71-6.05-1.67-17.97-4.84-26.5-7.04-8.53-2.21-18.43-4.92-22-6.03-3.58-1.11-8.53-2-11-1.99-2.47.02-5.52.59-6.77 1.27-1.24.68-3.38 2.8-4.75 4.71zm19.02 22.07c1.1-.01 3.69.97 5.77 2.19 2.07 1.22 3.98 2.78 4.25 3.47.26.69-.7 2.71-2.13 4.5-1.94 2.41-2.48 4.02-2.12 6.25.27 1.65 1.9 5.25 3.63 8 2.24 3.59 3.12 6.2 3.11 9.25 0 2.34-.77 5.49-1.69 7-.92 1.51-3.28 4.44-5.25 6.52-1.96 2.07-4.13 3.75-4.82 3.75-.69-.01-3.26-1.26-5.72-2.77s-4.48-3.31-4.5-4c-.02-.69 1.1-2.26 2.49-3.5 1.38-1.24 2.92-3.6 3.41-5.25.78-2.6.38-3.8-3.05-9-2.6-3.96-3.93-7.11-3.91-9.25.02-1.79.99-5.16 2.17-7.5s3.09-5.46 4.25-6.94c1.16-1.49 3.01-2.71 4.11-2.72zm34.58-.09c1.06 0 3.52 1.24 5.47 2.75 1.95 1.51 3.52 3.54 3.5 4.5-.03.96-.5 1.97-1.05 2.25s-1.68 1.85-2.5 3.5c-1.38 2.77-1.33 3.33.63 7.25 1.18 2.34 2.45 4.47 2.84 4.75.39.28 1.23 2.08 1.88 4 .65 1.92 1.18 4.63 1.18 6 0 1.38-1.29 4.53-2.87 7-1.59 2.47-4.09 5.63-8.28 9.5l-5.45-3c-3-1.65-5.45-3.56-5.44-4.25 0-.69 1.36-2.6 3.01-4.25 2-2 3-4 3-6 0-1.65-.78-4.24-1.73-5.75-.95-1.51-1.96-2.97-2.25-3.25-.28-.28-1.08-1.51-1.77-2.75S133 83.65 133 82s.84-4.69 1.88-6.75c1.03-2.06 3.09-5.21 4.58-7 1.49-1.79 3.57-3.25 4.62-3.25z" style="fill:#feffff"/></svg>