<svg xmlns="http://www.w3.org/2000/svg" viewBox="0 0 111 111" width="111" height="111"><style></style><path id="Path 0" d="M3.14 2.86C1.07 4.93 1 5.8 1 28.5c0 22.17.11 23.61 2 25.5 1.57 1.57 3.33 2 8.25 1.99 3.44 0 8.95.71 12.25 1.57 3.3.86 8.19 2.77 10.87 4.25 2.68 1.48 6.84 4.83 9.25 7.44 2.41 2.61 5.73 7.56 7.38 11 2.43 5.08 3.12 8.11 3.69 16.25.54 7.69 1.12 10.4 2.5 11.75 1.62 1.57 4.28 1.75 25.31 1.75 22.17 0 23.61-.11 25.5-2 1.74-1.74 2-3.33 2-12.25 0-5.64-.67-13.62-1.48-17.75-.81-4.12-2.12-9.53-2.9-12-.78-2.48-2.41-6.75-3.61-9.5-1.2-2.75-4.54-8.6-7.43-13-2.89-4.4-7.92-10.74-11.17-14.08-3.25-3.35-8.61-8.07-11.92-10.5-3.3-2.43-9.38-6.08-13.5-8.12-4.12-2.03-11.54-4.88-16.49-6.34-7.03-2.07-11.97-2.77-22.61-3.19C5.96.76 5.18.84 3.14 2.86z" style="fill:#fff"/></svg>