<svg xmlns="http://www.w3.org/2000/svg" viewBox="0 0 138 119" width="138" height="119"><style></style><path id="Path 0" fill-rule="evenodd" d="m31.97 1 18.53.02 67 66.97-49.37 49.51-22.81-22.14A1990.134 1990.134 0 0 1 1 51l.09-19.5 5.2-5.91c2.87-3.25 9.82-10.11 15.45-15.25m3.03 17.11c.09 1.13.97 2.83 1.95 3.77.98.95 2.45 1.76 3.28 1.79.83.03 2.4-.88 3.5-2.03 1.64-1.71 1.82-2.56.98-4.78-.74-1.98-1.82-2.78-4.01-3-1.64-.16-3.64.27-4.43.95-.79.69-1.36 2.17-1.27 3.3zM91.08 2l17.42-.04L137 30l-.09 18.5-15.41 15.57-22.75-22.79C86.23 28.75 75.98 18.25 75.96 17.94c-.02-.31 3.37-4.02 7.54-8.25m20.88 19.06c.34 1.24 1.52 2.7 2.62 3.25 1.1.55 2.9.77 4 .5s2.45-1.4 3-2.5c.67-1.33.67-2.67 0-4-.55-1.1-1.87-2.45-2.94-3-1.51-.78-2.53-.51-4.62 1.25-1.99 1.67-2.52 2.83-2.06 4.5z" style="fill:#fff"/></svg>