<svg xmlns="http://www.w3.org/2000/svg" viewBox="0 0 400 400" width="400" height="400"><style></style><path id="Path 0" fill-rule="evenodd" d="M204 .38c23.19.24 27.75.55 36.5 2.52 5.5 1.23 13.15 3.13 17 4.22 3.85 1.09 7.9 2.35 9 2.81 1.1.46 5.38 2.1 9.5 3.65 4.13 1.55 11.77 5.04 17 7.75s12.65 6.95 16.5 9.42c3.85 2.48 7.11 4.89 7.25 5.37.14.49.93.88 1.75.88s2.06.9 2.75 2c.69 1.11 1.7 2.02 2.25 2.04.55.02 4.78 3.28 9.39 7.25 4.62 3.96 11.82 11.04 16 15.71 4.19 4.67 9.07 10.41 10.86 12.75 1.79 2.34 3.25 4.47 3.25 4.75 0 .28.92 1.51 2.05 2.75s4.2 5.85 6.83 10.25 7.29 13.17 10.36 19.5c3.07 6.33 7.15 16.22 9.07 22 1.91 5.78 4.54 15.22 5.83 21 2.21 9.85 2.36 12.5 2.36 43s-.15 33.15-2.36 43c-1.29 5.78-3.92 15.23-5.83 21-1.92 5.77-6 15.68-9.07 22-3.07 6.32-7.73 15.1-10.36 19.5-2.63 4.4-5.7 9.01-6.83 10.25-1.13 1.24-2.05 2.48-2.05 2.75s-1.46 2.41-3.25 4.75-6.67 8.07-10.86 12.75c-4.18 4.68-11.38 11.75-16 15.71-4.61 3.97-8.84 7.23-9.39 7.25-.55.02-1.56.93-2.25 2.04-.69 1.1-1.93 2-2.75 2-.82 0-1.61.36-1.75.81-.14.44-2.5 2.34-5.25 4.21s-8.15 5.1-12 7.18c-3.85 2.08-10.15 5.29-14 7.13-3.85 1.84-9.25 4.14-12 5.11-2.75.98-5.9 2.15-7 2.62-1.1.46-5.15 1.73-9 2.82-3.85 1.09-11.5 2.98-17 4.21-8.37 1.87-13.91 2.31-34 2.67-15.47.28-27.38.01-33.5-.77-5.22-.67-14.9-2.54-21.5-4.16s-16.28-4.55-21.5-6.51c-5.22-1.95-14.9-6.35-21.5-9.78-6.6-3.42-15.37-8.49-19.5-11.26-4.12-2.77-8.62-6.01-10-7.19-1.37-1.18-2.72-2.13-3-2.11-.28.02-3.75-3-7.71-6.72-3.97-3.72-8.02-7.51-9-8.42-.99-.92-4.07-4.07-6.85-7-2.79-2.94-6.61-7.35-8.5-9.81-1.89-2.45-4.24-5.38-5.21-6.5-.97-1.11-1.76-2.59-1.75-3.28.01-.69-.33-1.36-.77-1.5-.43-.14-1.78-1.71-3-3.5C32 309.46 31 307.55 31 307c0-.55-1.01-2.07-2.25-3.37-1.24-1.3-4.58-7.04-7.43-12.75-2.86-5.71-6.77-14.65-8.71-19.88-1.93-5.23-4.64-13.77-6.02-19-1.38-5.22-3.28-14-4.23-19.5-1.29-7.5-1.71-15.75-1.7-33 .01-17.38.43-25.32 1.73-32.5.95-5.22 2.85-13.78 4.22-19 1.36-5.22 3.87-13.32 5.55-18 1.69-4.67 5.6-13.62 8.7-19.89 3.1-6.26 6.65-12.45 7.89-13.75C29.99 95.06 31 93.55 31 93c0-.55 1-2.46 2.21-4.25 1.22-1.79 2.57-3.36 3-3.5.44-.14.78-.81.77-1.5-.01-.69.78-2.17 1.75-3.28.97-1.12 3.32-4.05 5.21-6.5 1.89-2.46 5.71-6.87 8.5-9.81 2.78-2.93 5.86-6.08 6.85-7 .98-.91 5.03-4.7 9-8.42 3.96-3.72 7.43-6.74 7.71-6.72.28.02 1.85-1.12 3.5-2.53 1.65-1.42 7.5-5.4 13-8.87C98 27.16 106.78 22.2 112 19.6c5.22-2.6 13.55-6.24 18.5-8.08 4.95-1.85 13.72-4.56 19.5-6.02 5.78-1.46 14.32-3.27 19-4.03C175.04.5 185.15.18 204 .38zm-18 18.91c-5.22.27-13.32 1.22-18 2.11-4.68.9-11.65 2.57-15.5 3.73-3.85 1.15-11.95 3.93-18 6.17-6.05 2.24-15.28 6.52-20.5 9.51-5.22 2.99-11.3 6.64-13.5 8.1-2.2 1.47-6.18 4.23-8.85 6.13-2.67 1.9-11 9.54-18.5 16.96-7.51 7.42-14.1 14.25-14.65 15.18-.55.92-3.91 5.87-7.46 11-3.55 5.12-9.07 14.38-12.25 20.57C35.6 124.94 33 130.45 33 131c0 .55-.85 2.91-1.89 5.25s-2.21 5.15-2.59 6.25c-.39 1.1-1.59 5.38-2.68 9.5-1.09 4.13-2.59 10.65-3.33 14.5-.74 3.85-1.86 12.63-2.51 19.5-.64 6.88-.87 16.55-.51 21.5.36 4.95 1.33 13.72 2.14 19.5.82 5.78 2.86 15.22 4.54 21 1.67 5.78 3.95 12.98 5.06 16 1.1 3.02 4.32 10.23 7.14 16 2.82 5.77 5.47 10.95 5.89 11.5.41.55 2.84 4.15 5.39 8 2.55 3.85 6.61 9.48 9.02 12.5 2.41 3.02 8.76 9.95 14.11 15.4 5.34 5.44 14 13.1 19.22 17.01 5.22 3.92 13.1 9.23 17.5 11.8 4.4 2.57 11.6 6.3 16 8.3 4.4 2 9.35 4.23 11 4.95 1.65.72 7.05 2.48 12 3.92 4.95 1.43 12.15 3.25 16 4.03 3.85.78 11.5 1.97 17 2.64 6.17.76 15.93 1.02 25.5.69 8.53-.3 19.32-1.24 24-2.1 4.68-.87 13.45-2.97 19.5-4.69 6.05-1.71 12.8-3.87 15-4.78 2.2-.92 8.73-4.01 14.5-6.87 5.77-2.86 12.3-6.23 14.5-7.5 2.2-1.26 4.23-2.57 4.5-2.9.27-.33 1.51-1.12 2.75-1.75 1.24-.63 3.26-2.01 4.5-3.05 1.24-1.05 5.82-4.76 10.19-8.25 4.36-3.49 9.76-8.19 12-10.43 2.23-2.24 7.68-8.54 12.11-14 4.43-5.46 10.57-13.97 13.64-18.92 3.08-4.95 7.05-11.93 8.83-15.5 1.78-3.57 4.11-8.75 5.18-11.5 1.08-2.75 2.54-6.35 3.26-8 .72-1.65 2.27-6.6 3.44-11s2.84-11.15 3.71-15c.86-3.85 2-11.72 2.53-17.5.53-5.78.68-17.25.33-25.5-.35-8.38-1.46-18.97-2.52-24-1.04-4.95-2.85-12.6-4.02-17-1.17-4.4-2.52-8.9-3-10-.48-1.1-1.73-4.25-2.78-7-1.05-2.75-4.27-9.72-7.16-15.5-2.89-5.78-6.54-12.41-8.12-14.75-1.58-2.34-2.87-4.47-2.87-4.75 0-.28-.86-1.51-1.9-2.75-1.05-1.24-4.6-5.62-7.9-9.75-3.29-4.12-7.95-9.53-10.35-12.02-2.39-2.48-7.5-7.21-11.35-10.52-3.85-3.3-9.02-7.55-11.5-9.44-2.48-1.9-4.61-3.8-4.75-4.23-.14-.44-.7-.79-1.25-.79s-2.91-1.23-5.25-2.72c-2.34-1.5-5.37-3.36-6.75-4.14-1.37-.78-5.65-2.98-9.5-4.89-3.85-1.91-9.25-4.37-12-5.46-2.75-1.1-9.05-3.29-14-4.88-4.95-1.59-12.15-3.53-16-4.32-3.85-.8-9.7-1.93-13-2.53-3.3-.59-11.27-1.25-17.7-1.47-6.44-.21-11.84-.25-12-.08-.17.16-4.58.52-9.8.78zm20 12.36c3.57.19 9.43.61 13 .92 3.57.31 10.78 1.42 16 2.45 5.22 1.04 14 3.4 19.5 5.26 5.5 1.85 11.35 4.06 13 4.91 1.65.86 4.8 2.32 7 3.26s7.38 3.67 11.5 6.07c4.13 2.41 8.59 5.3 9.92 6.43s2.68 2.06 3 2.08c.32.01 2.83 1.73 5.58 3.82 2.75 2.08 9.08 7.81 14.07 12.72 4.98 4.91 11.54 12.08 14.56 15.93 3.02 3.85 7.11 9.47 9.09 12.5 1.98 3.03 5.68 9.55 8.21 14.5 2.54 4.95 5.96 12.49 7.59 16.75 1.64 4.26 4.13 12.14 5.53 17.5 1.4 5.36 3.19 14.25 3.98 19.75s1.43 16.07 1.43 23.5-.64 18-1.43 23.5c-.79 5.5-2.58 14.39-3.98 19.75-1.4 5.36-3.7 12.79-5.11 16.5-1.41 3.71-4.59 10.8-7.07 15.75-2.49 4.95-7.37 13.27-10.85 18.5-3.49 5.23-8.91 12.43-12.06 16-3.15 3.57-7.8 8.53-10.34 11.01-2.54 2.48-7.77 7.08-11.62 10.21-3.85 3.14-7.56 5.73-8.25 5.75-.69.01-1.36.38-1.5.82-.14.43-1.82 1.88-3.75 3.22-1.93 1.35-6.65 4.16-10.5 6.25-3.85 2.08-7.56 3.78-8.25 3.77-.69-.02-1.25.42-1.25.97s-.68 1-1.5 1-2.51.65-3.75 1.45c-1.24.79-6.98 3.02-12.75 4.94-5.78 1.92-15.45 4.53-21.5 5.8-9.58 2-13.85 2.29-33 2.27-18.68-.01-23.58-.34-32.5-2.2-5.78-1.2-14.78-3.56-20-5.24-5.22-1.69-14.9-5.73-21.5-8.98-6.6-3.26-14.92-7.83-18.5-10.18-3.58-2.34-6.72-4.51-7-4.81-.28-.3-2.53-2.11-5-4.02-2.47-1.9-6.49-5.28-8.93-7.5-2.43-2.21-6.93-6.66-10-9.88-3.06-3.21-8.15-9.29-11.31-13.5-3.15-4.21-6.52-9.22-7.5-11.15-.97-1.93-2.1-3.61-2.51-3.75-.41-.14-.75-.93-.75-1.75s-.34-1.49-.75-1.48c-.41.01-2.29-3.25-4.17-7.25-1.89-4-4.24-9.07-5.24-11.27-1-2.2-1.81-4.68-1.81-5.5 0-.82-.41-1.95-.92-2.5s-1.84-4.15-2.96-8c-1.12-3.85-3-11.95-4.19-18-1.76-8.97-2.16-14.6-2.17-30.5 0-16.77.35-21.25 2.49-32 1.36-6.87 3.94-16.78 5.72-22 1.77-5.22 3.79-10.62 4.48-12 .69-1.37 2.78-5.8 4.64-9.84 1.86-4.04 4.05-8.1 4.88-9.03.83-.93 2.29-3.25 3.26-5.16.98-1.91 4.35-6.92 7.5-11.14 3.16-4.22 8.89-10.98 12.74-15.01 3.85-4.04 10.6-10.32 15-13.95 4.4-3.64 11.15-8.65 15-11.14 3.85-2.49 11.5-6.8 17-9.57 5.5-2.78 15.4-6.84 22-9.03 6.6-2.19 16.28-4.73 21.5-5.64 5.22-.91 14.22-2.01 20-2.42 5.78-.42 13.43-.61 17-.42zm-94.79 86.29c-.83 1.4-1.22 8.04-1.24 20.81-.04 17.32.12 18.96 2 21.5L114 163c38.48.07 38.5.07 41.25-2.47L158 158c-.44-35.61-.84-41.24-1.8-42.2-.95-.96-6.34-1.36-20.5-1.53-10.56-.12-20.12.19-21.24.7-1.13.5-2.59 1.84-3.25 2.97zm65.52.03L177 159c6.17 3.79 8.3 4 24.5 4.03 16.57.04 18.22-.12 20.75-2L225 159c0-33.12-.38-39.74-1.25-41.47-.77-1.51-2.41-2.67-4.25-3.01-1.65-.3-10.43-.54-19.5-.53-14.63.02-16.88.24-19.88 2l-3.39 1.98zm69.01.07c-1.47 2.51-1.74 5.64-1.74 20.46 0 11.35.41 18.29 1.16 19.75.64 1.24 1.88 2.8 2.75 3.47 1.12.85 7.2 1.23 20.42 1.25l18.82.03 5.85-6-.5-38.18c-5.45-4.78-5.81-4.82-23.75-4.7-10.04.06-18.93.3-19.76.53-.83.23-2.3 1.76-3.25 3.39zm-134.98 61.38c-.4 1.14-.74 10.52-.75 20.83-.01 18.67 0 18.76 2.49 21.25l2.5 2.5c34.69-.43 40.24-.84 41.2-1.8.95-.95 1.39-6.57 1.65-21l.34-19.7-5.01-6c-29.8-.28-37.62.06-39.19.74-1.38.6-2.83 2.03-3.23 3.18zm68.46-1.04c-2.21 2.07-2.27 2.61-2.25 21.37.03 19.18.04 19.26 2.53 21.75l2.5 2.5c37.19-.47 39.85-.72 41.32-2.25 1.46-1.52 1.68-4.43 1.68-22.25V179c-6.18-3.79-8.18-3.99-23.5-3.92-9.35.04-17.68.32-18.5.63-.82.3-2.52 1.5-3.78 2.67zm65.22 2.87c-.3 1.24-.41 10.5-.25 20.59.31 18.21.33 18.35 2.81 20.29 2.28 1.78 4.12 1.95 20.5 1.9 9.9-.03 19.07-.39 20.38-.79 1.32-.41 3-1.98 3.75-3.49 1-2 1.37-7.33 1.36-19.5-.01-9.53-.48-18.04-1.1-19.75-.6-1.65-2.28-3.57-3.74-4.26-1.81-.86-8.01-1.26-19.65-1.25-15.22.02-17.34.23-20.25 2.01-1.79 1.1-3.5 3.01-3.81 4.25zm-132.69 58.28c-1.52 2.15-1.75 4.96-1.72 21.72.03 17.69.2 19.43 2 21.5 1.92 2.19 2.48 2.25 22.22 2.26l20.25.01c3.25-5.58 3.5-8.72 3.5-24.52 0-18.4-.01-18.51-2.5-21L153 237l-39.5.06m63.28 24c.16 18.8.24 19.51 2.44 21.67 2.2 2.15 2.96 2.23 22.78 2.28l20.5.05c2.11-4.28 2.5-10.85 2.51-23.81.01-12.99-.38-19.59-1.25-21.49l-1.26-2.74c-40.75-.02-41.21.03-43.52 2.29-2.34 2.29-2.36 2.55-2.2 21.75zm69.18-21.43c-2.06 2.51-2.17 3.58-2.1 21.25.07 17.1.24 18.85 2.11 21.37L248 285c33.7-.05 39.97-.42 41.09-1.28.87-.67 2.11-2.23 2.75-3.47.75-1.45 1.16-8.28 1.16-19.25 0-11.06-.41-17.79-1.17-19.25-.65-1.24-1.77-2.81-2.5-3.5-.97-.91-6.69-1.25-21.26-1.25h-19.94" style="fill:#fffefe"/></svg>