<svg xmlns="http://www.w3.org/2000/svg" viewBox="0 0 232 227" width="232" height="227"><style></style><path id="Path 0" d="M19.81.88c-1.49.45-3.96 1.51-5.5 2.35-1.55.84-4.5 3.38-6.56 5.65-2.06 2.27-4.49 5.81-5.4 7.87C1.3 19.12.68 23.26.67 28c-.02 4.51.56 8.9 1.47 11 .82 1.92 3.27 5.48 5.43 7.91 2.16 2.42 6.18 5.45 8.93 6.74 3.84 1.79 6.74 2.33 12.5 2.33 5.73 0 8.68-.55 12.5-2.31 3.21-1.49 6.96-4.54 10.5-8.53 3.4-3.85 6.84-6.67 9-7.4 1.93-.65 7.32-1.15 12-1.12 4.77.03 9.6.61 11 1.32 1.38.7 5.24 4.04 8.59 7.42 3.35 3.38 7.51 7.38 9.25 8.89 1.75 1.53 3.6 4.42 4.15 6.5.55 2.06 1 6.67 1 10.25s-.42 8.07-.93 10c-.65 2.43-2.99 5.34-7.63 9.5-3.69 3.3-7.65 7.8-8.81 10-1.69 3.21-2.11 5.78-2.11 13s.42 9.79 2.11 13c1.16 2.2 4.31 5.94 6.99 8.31 2.99 2.63 6.83 4.87 9.89 5.76 2.75.8 6.8 1.45 9 1.45s6.25-.65 9-1.45c3.06-.89 6.9-3.13 9.89-5.76 2.68-2.37 5.83-6.11 6.99-8.31 1.69-3.21 2.11-5.78 2.11-13s-.42-9.79-2.11-13c-1.16-2.2-5.12-6.7-8.81-10-4.64-4.16-6.98-7.07-7.63-9.5-.51-1.93-.93-6.42-.93-10s.45-8.19 1-10.25c.54-2.06 2.4-4.99 4.13-6.5 1.73-1.51 5.01-4.55 7.29-6.75 2.57-2.48 4.81-5.9 5.87-9 .95-2.75 1.72-7.47 1.72-10.5 0-3.03-.76-7.75-1.7-10.5-1.03-2.99-3.34-6.61-5.77-9.02-2.23-2.21-5.85-4.89-8.05-5.96-2.34-1.13-6.91-2.11-11-2.36-4.1-.24-8.66.11-11 .86-2.2.7-5.8 2.49-8 3.99-2.2 1.49-5.35 4.6-7 6.9-1.65 2.31-4.57 4.96-6.5 5.89-2.5 1.21-6.07 1.7-12.5 1.7-5.83 0-10.19-.53-12.39-1.5-1.86-.83-5.46-3.93-8-6.89-2.53-2.96-6.64-6.55-9.11-7.96C39.37 1.07 36.96.52 30.5.31c-4.4-.14-9.21.12-10.69.57zm172.14.35c-1.95.7-4.43 1.92-5.5 2.72-1.07.8-3.23 2.6-4.79 4-1.57 1.4-4 4.8-5.42 7.55-2.1 4.07-2.57 6.39-2.56 12.5.01 4.32.64 8.98 1.48 11 .81 1.92 3.25 5.48 5.41 7.91 2.16 2.42 6.18 5.45 8.93 6.74 3.84 1.79 6.74 2.33 12.5 2.33s8.66-.54 12.5-2.33c2.75-1.29 6.77-4.32 8.93-6.74 2.16-2.43 4.61-5.99 5.44-7.91.92-2.14 1.47-6.41 1.44-11-.04-4.57-.7-8.96-1.69-11.25-.89-2.06-3.31-5.6-5.37-7.87-2.06-2.27-5.55-5.05-7.75-6.17-2.78-1.43-6.44-2.16-12-2.4-4.8-.2-9.42.17-11.55.92zM20.5 86.45c-2.75.79-6.8 2.72-9 4.29-2.2 1.58-5.23 4.87-6.73 7.31-1.51 2.45-3.2 6.92-3.77 9.95-.71 3.79-.7 7.21.02 11 .57 3.03 2.15 7.41 3.51 9.75 1.36 2.34 4.38 5.63 6.72 7.31 2.34 1.68 6.72 3.76 9.75 4.62 3.67 1.05 7.33 1.38 11 .97 3.03-.33 7.75-1.7 10.5-3.03 2.75-1.33 6.31-3.93 7.91-5.77 1.6-1.84 3.81-5.38 4.91-7.85 1.39-3.11 2-6.66 2-11.5s-.61-8.39-2-11.5c-1.1-2.47-3.31-6.01-4.91-7.85-1.6-1.84-5.16-4.42-7.91-5.74-2.76-1.32-7.68-2.62-11-2.89-3.7-.31-7.92.05-11 .93zm175.25-.41c-2.06.53-5.44 1.8-7.5 2.82-2.06 1.02-5.46 3.84-7.54 6.25-2.11 2.44-4.45 6.62-5.26 9.39-.81 2.75-1.47 6.8-1.47 9s.74 6.47 1.64 9.5c1.36 4.57 2.86 6.68 8.87 12.5 5.62 5.43 7.52 8.01 8.49 11.5.7 2.55 1.06 7.75.83 12-.28 5.28-1.02 8.53-2.5 11-1.16 1.93-3.74 4.63-5.75 6-2 1.38-4.99 4.53-6.64 7-1.65 2.47-3.48 6.3-4.07 8.5-.6 2.22-.8 6.78-.46 10.25.33 3.44 1.45 7.94 2.48 10 1.02 2.06 3.39 5.29 5.25 7.17 1.86 1.87 5.63 4.46 8.38 5.74 3.59 1.67 6.83 2.33 11.5 2.34 3.57.01 8.52-.66 11-1.49 2.48-.83 6.25-2.97 8.39-4.76 2.14-1.79 5.07-5.27 6.5-7.75 2.32-4 2.61-5.57 2.61-14.08 0-8.93-.21-9.91-3.05-14.5-1.67-2.71-5.27-6.61-8-8.67-2.72-2.07-5.72-5.22-6.66-7-1.2-2.29-1.72-5.76-1.76-11.75-.04-4.68.39-9.85.93-11.5.55-1.65 4.01-5.7 7.7-9 4.38-3.92 7.5-7.73 9.01-11 1.72-3.72 2.31-6.79 2.31-12 0-5.24-.59-8.26-2.33-12-1.29-2.75-4.32-6.77-6.74-8.93-2.43-2.16-5.87-4.53-7.66-5.25-1.79-.73-5.84-1.53-9-1.78s-7.44-.03-9.5.5zM19.81 171.88c-1.49.45-3.96 1.51-5.5 2.35-1.55.84-4.5 3.38-6.56 5.65-2.06 2.27-4.48 5.81-5.37 7.87C1.35 190.11.75 194.28.75 199s.6 8.89 1.63 11.25c.89 2.06 3.31 5.6 5.37 7.87 2.06 2.27 5.55 5.08 7.75 6.25 3.27 1.74 5.73 2.12 13.5 2.12 7.83 0 10.2-.37 13.5-2.16 2.2-1.18 5.44-3.66 7.2-5.49 1.76-1.84 4.19-5.59 5.4-8.34 1.51-3.43 2.21-7.04 2.24-11.5.02-4.62-.62-7.94-2.21-11.5-1.23-2.75-3.67-6.5-5.43-8.34-1.76-1.83-5-4.27-7.2-5.42-2.86-1.49-6.29-2.17-12-2.38-4.4-.17-9.21.07-10.69.52zm84.19.88c-2.55.91-6.47 3.57-9.06 6.17-2.89 2.89-5.19 6.41-6.26 9.57-.94 2.75-1.7 7.47-1.7 10.5 0 3.03.76 7.75 1.7 10.5 1.07 3.16 3.37 6.68 6.26 9.56 2.88 2.89 6.4 5.19 9.56 6.26 2.75.94 7.7 1.7 11 1.7s8.25-.76 11-1.7c3.16-1.07 6.68-3.37 9.56-6.26 2.89-2.88 5.19-6.4 6.26-9.56.94-2.75 1.7-7.47 1.7-10.5 0-3.03-.76-7.75-1.7-10.5-1.07-3.16-3.37-6.68-6.26-9.56-2.88-2.89-6.4-5.19-9.56-6.26-2.87-.98-7.77-1.66-11.5-1.61-3.57.05-8.53.81-11 1.69z" style="fill:#fff"/></svg>