<svg xmlns="http://www.w3.org/2000/svg" viewBox="0 0 225 225" width="225" height="225"><style></style><path id="Path 0" fill-rule="evenodd" d="M116 21.98c.28-.04 1.17.64 2 1.52.98 1.03 1.15 1.89.5 2.47-.55.49-3.25 2.01-6 3.37-2.75 1.37-7.7 3.2-11 4.07-3.3.87-5.55 1.21-5 .76.55-.46 3.03-2.45 5.5-4.43 2.47-1.98 6.53-4.52 9-5.65 2.47-1.12 4.72-2.08 5-2.11zm32.5 1.48c2.25.28 5.03 1.49 6.35 2.77 1.28 1.25 2.97 3.51 3.75 5.02.77 1.51 1.41 4.21 1.42 6 .02 1.79-.62 4.83-1.41 6.75-.79 1.92-3.28 5.41-9.61 12l3.57 5.25c1.96 2.89 4.26 7.72 5.11 10.75.85 3.03 1.55 8.42 1.55 12s-.78 9.2-1.73 12.5c-.95 3.3-3.18 8.25-4.95 11s-5.1 6.69-7.39 8.75c-2.29 2.06-6.3 4.81-8.91 6.11-2.61 1.3-7.22 2.94-10.25 3.64-3.75.86-8.21 1.03-22.5-.21l-2.28 2.86c-1.26 1.57-2.29 3.98-2.3 5.35 0 1.38.75 3.18 1.69 4 1.34 1.19 5.92 1.6 22.29 2 20.44.5 20.65.52 26.6 3.5 4.07 2.03 6.86 4.29 8.68 7 1.47 2.2 3.23 6.03 3.91 8.5.7 2.59 1 7.26.71 11-.31 3.77-1.51 8.6-2.88 11.5-1.3 2.75-4.4 7.06-6.89 9.59-2.49 2.52-7.23 5.96-10.53 7.64-3.3 1.69-8.7 3.78-12 4.65-3.59.95-10.21 1.6-16.5 1.61-7.06.02-12.96-.59-18-1.85-4.12-1.04-9.3-2.8-11.5-3.9-2.2-1.11-6.07-4.2-8.61-6.88-2.53-2.67-5.17-6.66-5.87-8.86-.76-2.37-.97-5.22-.53-7 .4-1.65 1.92-4.18 3.37-5.63 1.65-1.63 4.33-2.9 7.14-3.36 3.47-.57 5.4-.31 8.42 1.12 2.35 1.13 5.64 4.16 8.25 7.62 2.97 3.94 5.98 6.6 9.58 8.44 4.28 2.19 6.63 2.7 12.75 2.73 5.81.04 8.4-.44 11.5-2.1 2.2-1.17 5.2-3.42 6.66-4.98 1.46-1.56 3.09-4.41 3.63-6.34.72-2.58.61-4.35-.41-6.75-.76-1.79-2.6-4.04-4.08-5-2.31-1.5-6.07-1.82-25.93-2.25-21.7-.47-23.42-.64-26.05-2.62-1.55-1.17-3.61-3.19-4.58-4.5-.97-1.31-2.1-4.81-2.5-7.79-.67-4.87-1.24-5.84-5.74-9.76-2.75-2.39-5.37-4.34-5.83-4.34-.45.01 1.25-2.13 8.43-9.49l2.2 2.18c1.21 1.2 3.33 2.64 4.7 3.19 2.25.89 2.88.54 6.25-3.44 2.06-2.44 3.76-4.77 3.78-5.18.01-.41-1.18-1.87-2.64-3.25-1.46-1.37-4.11-4.75-5.88-7.5-1.77-2.75-4.02-7.47-5-10.5-1.03-3.2-1.77-8.43-1.75-12.5.01-3.85.49-8.8 1.07-11 .78-3 2.61-5.4 7.35-9.61 3.48-3.09 9.24-7.49 12.82-9.78 3.58-2.29 9.2-5.05 12.5-6.14 3.3-1.09 9.38-2.58 13.5-3.32 7.31-1.32 7.63-1.29 12.5 1.14 2.75 1.36 6.24 3.55 7.75 4.85 2.27 1.95 3.02 2.14 4.33 1.11.96-.77 1.45-2.38 1.25-4.17-.26-2.29-1.04-3.14-3.65-4-1.83-.59-4.42-2.32-5.75-3.83-1.67-1.89-2.42-3.93-2.41-6.5.01-2.06.8-4.7 1.75-5.87s2.63-2.64 3.73-3.27c1.1-.64 3.8-.93 6-.65zm-46.65 44.51c-2.96 2.88-5.05 5.98-5.74 8.53-.61 2.2-1.12 6.03-1.14 8.5-.02 3.03.89 6.3 2.79 10 2.23 4.33 3.99 6.19 8.28 8.76 4.54 2.71 6.47 3.26 11.46 3.26 4.99 0 6.92-.55 11.46-3.26 4.29-2.57 6.05-4.43 8.28-8.76 1.99-3.88 2.82-6.97 2.82-10.5-.01-2.75-.65-6.58-1.42-8.5-.78-1.92-2.7-5.04-4.28-6.92-1.57-1.88-5.11-4.47-7.86-5.74-2.82-1.31-6.74-2.28-9-2.23-2.2.05-5.58.6-7.5 1.22-1.92.61-5.59 3.15-8.15 5.64zM91.92 32.5l4.58 5.34 4.5-2.03c2.81-1.26 7.69-2.24 13-2.6 8.23-.55 8.59-.49 11.25 2.11 1.55 1.51 2.75 3.77 2.75 5.18 0 2.38-.28 2.5-5.75 2.49-3.16 0-8.45.71-11.75 1.57-3.3.86-8.67 3-11.93 4.75C95.31 51.07 89.34 55.76 78 67l-2.5-2.5c-1.37-1.37-2.49-3.06-2.48-3.75.01-.69.84-3.05 1.85-5.25 1-2.2 3.69-5.69 5.97-7.75 2.29-2.06 5.96-4.76 8.15-6 3.71-2.09 3.95-2.5 3.46-5.75M90 37.08c.83-.03-.01 1.16-1.9 2.68-1.87 1.51-6.14 4.19-9.5 5.97-3.35 1.78-6.89 3.24-7.85 3.25-1.22.01-1.67-.65-1.5-2.21.16-1.44 1.68-3.03 4.25-4.45 2.2-1.22 6.47-2.88 9.5-3.7 3.03-.82 6.17-1.51 7-1.54zM63.77 83.02c1.5 0 3.32.34 4.04.75.97.54 1.39 4.43 1.59 14.73.15 7.7-.16 14.9-.69 16-.52 1.1-2.14 3.25-3.58 4.77-1.45 1.53-3.19 2.76-3.88 2.75-.69-.01-1.48.65-1.75 1.48s-.95 1.28-1.5 1-1-1.17-1-2c0-.83.92-2.74 2.05-4.25 1.37-1.83 1.99-4.08 1.89-6.75-.09-2.2.13-4.9.5-6 .36-1.11.08-2.79-.64-3.77-1.15-1.56-1.3-1.33-1.3 5.77l-12-.37 4 1.36c2.2.74 4.79 1.39 5.75 1.43 1.28.06 1.76.95 1.79 3.33.03 1.79-.53 3.82-1.25 4.51-.86.84-3.12 1.1-12.29.28l4.75 1.48c3.59 1.12 4.75 1.97 4.75 3.48 0 1.22-1.17 2.58-3 3.5-2.26 1.13-3.92 1.27-6.75.57-2.06-.52-4.42-1.71-5.25-2.66-.97-1.11-1.54-4.03-1.62-8.31-.07-3.63.38-7.24 1-8.02.62-.78 1.35-3.23 1.62-5.44.41-3.34 1.1-4.37 4-5.97 3.44-1.9 3.58-1.9 8-.05 2.47 1.03 4.83 1.99 5.25 2.13.41.14.44-2.11.07-5-.53-4.08-.31-5.86 1.02-8 1.19-1.92 2.52-2.75 4.43-2.73zm7.6 30.22c.62.23 1.27 1.73 1.44 3.34.24 2.22-.62 4-3.58 7.42-2.14 2.47-5.31 5.06-7.06 5.75-2.17.85-3.65.93-4.67.25-1.26-.84-.97-1.48 1.75-3.93 1.79-1.62 4.94-4.32 7-6 2.06-1.69 3.8-4.01 3.87-5.15.06-1.15.62-1.9 1.25-1.68z" style="fill:#fefdfd"/></svg>