<svg xmlns="http://www.w3.org/2000/svg" viewBox="0 0 400 400" width="400" height="400"><style></style><path id="Path 0" fill-rule="evenodd" d="m270.5 51.98 4.44 2.26c2.45 1.24 5.82 3.99 10.56 9.94l.5 134.32 3.75-.77c2.06-.43 7.57-1.27 12.25-1.87 4.68-.6 13.9-.87 20.5-.61 9.06.37 13.35 1.02 17.5 2.65 3.02 1.19 6.85 3.18 8.5 4.44 1.65 1.25 5.48 2.83 8.5 3.51 3.02.68 7.41 2.34 9.75 3.7 2.34 1.35 4.93 3.8 5.75 5.45.82 1.65 1.5 5.03 1.5 7.5 0 3.67-.6 5.17-3.25 8.13-1.79 2-5.39 4.7-8 6-2.61 1.3-5.54 3.51-6.5 4.9-.96 1.38-1.52 2.68-1.25 2.87.27.19 1.96 1.08 3.75 1.97 2.03 1.02 3.85 3.04 4.84 5.38.93 2.19 1.35 5 1.02 6.75-.31 1.65-2.04 4.44-3.84 6.2-1.8 1.76-4.96 3.9-7.02 4.75-2.06.85-3.98 2-4.25 2.55-.27.55.63 2.35 2 4 1.75 2.1 2.5 4.2 2.5 7 0 3.11-.67 4.67-3 7-1.65 1.65-3.45 3-4 3-.55 0-1.24.79-1.52 1.75-.29.96-.06 2.2.51 2.75.58.55 1.04 2.69 1.03 4.75-.01 2.06-.36 4.51-.77 5.45-.41.93-3.85 3.74-7.63 6.25-3.78 2.5-8.73 5.78-11 7.29-2.27 1.51-8.17 4.07-13.12 5.7-4.95 1.64-17.77 4.53-28.5 6.45-10.73 1.91-26.02 4.39-34 5.5-7.97 1.12-21.7 2.54-30.5 3.16-8.8.63-20.95.84-27 .49-6.05-.36-15.28-1.32-20.5-2.14-5.22-.82-13.55-2.85-18.5-4.51-4.95-1.65-11.93-4.63-15.5-6.62-3.57-1.98-9.87-6.93-21.5-18.36l-39 .02c-35.84.02-39.32-.12-43-1.82-2.2-1.02-4.99-2.92-6.19-4.23-1.21-1.31-2.9-4.07-3.75-6.13C25.18 295.43 25 281.94 25 181.5s.18-113.93 1.56-117.25c.85-2.06 2.54-4.82 3.75-6.13 1.2-1.31 3.99-3.21 6.19-4.23 3.81-1.76 9.34-1.85 234-1.91zm-16.25 57.11c-4.26 1.7-12.47 5.5-18.25 8.46-5.78 2.95-15.22 8.46-21 12.22-5.78 3.77-15 10.49-20.5 14.92-5.5 4.44-14.06 12.29-19.03 17.44-4.97 5.15-11.77 12.97-15.11 17.37s-7.94 11.04-10.22 14.75c-2.28 3.71-6 10.46-8.27 15-2.27 4.54-5.45 11.85-7.07 16.25s-4.05 12.5-5.41 18c-1.35 5.5-2.74 14.5-3.08 20-.4 6.41-.18 12.34.62 16.5.68 3.57 2.52 9.2 4.08 12.5 1.55 3.3 4.59 8.02 6.74 10.5 2.15 2.48 6.35 6.15 9.33 8.17 2.98 2.02 8.57 4.87 12.42 6.33 3.85 1.46 9.93 3.32 13.5 4.14 3.88.89 14.35 1.71 26 2.05 14.43.41 23.4.13 34.5-1.07 8.25-.89 24.45-3.2 36-5.13 11.55-1.93 25.39-4.63 30.75-6 5.36-1.37 12.56-3.76 16-5.32 3.44-1.55 7.92-4.36 9.96-6.25 2.04-1.88 3.73-3.98 3.75-4.67.03-.94-1.32-1.06-5.47-.5-4.87.66-5.51.55-5.5-1 .01-1.31 1.91-2.31 7.62-4 6.95-2.05 7.74-2.56 9.04-5.75.78-1.93 1.29-4.18 1.12-5-.17-.87-1.97-1.8-4.28-2.22-2.2-.4-6.58-.96-9.74-1.25-3.64-.34-5.75-.99-5.76-1.78 0-.81 3.08-1.7 8.75-2.52 4.82-.7 9.44-1.89 10.26-2.66.82-.76 2.58-3.57 3.91-6.23 1.32-2.66 2.62-6.41 2.88-8.34.25-1.93.18-5.19-.16-7.25L342 243c-20.61-1.79-23-2.31-23-3.5 0-.82.23-1.5.5-1.5s4.89-.68 10.25-1.51 10.65-1.7 11.75-1.92c1.1-.23 2.63-1.9 3.4-3.74 1.12-2.65 1.17-4.1.25-7.08-.63-2.06-2.84-5.5-4.9-7.65-2.62-2.73-5.4-4.38-9.25-5.49-3.02-.87-10.9-2.06-17.5-2.64-6.6-.59-15.82-.8-20.5-.47-4.68.33-14.35 1.28-21.5 2.13-7.15.84-21.32 3.1-31.5 5.01-10.18 1.91-23.11 4.57-28.75 5.92C205.61 221.9 200.1 223 199 223c-1.11 0-2-.67-2-1.5 0-1 3.25-2.62 9.75-4.87 5.36-1.86 11.21-3.66 13-4 1.79-.35 3.26-.97 3.27-1.38 0-.41-2.13-1.09-4.75-1.51-2.63-.43-7.58-1.21-11.02-1.75-3.78-.6-6.26-1.48-6.27-2.24-.02-.69 1.45-1.59 3.25-2.01 1.8-.42 9.12-.74 16.27-.7 7.15.03 16.15.45 20 .93 6.03.75 9.33.43 23.76-2.3l16.75-3.17L281 102c-4.26.11-8.54 1.01-12.25 2.07-3.71 1.06-10.24 3.32-14.5 5.02zM362.04 223.5c1.06-1.1 1.71-2.34 1.44-2.75-.26-.41-1.27-1.15-2.23-1.65-1.53-.78-1.71-.44-1.44 2.75.31 3.63.33 3.64 2.23 1.65z" style="fill:#fff"/></svg>