<svg xmlns="http://www.w3.org/2000/svg" viewBox="0 0 382 334" width="382" height="334"><style></style><path id="Path 0" d="M25 1.79c-6.14.27-6.61.47-8.38 3.5-1.03 1.76-4.73 8.16-8.23 14.21-3.49 6.05-6.36 11.45-6.37 12-.01.66 43.47.92 128.98.75 85.25-.17 129.17.09 129.5.75.27.55-.29 2.24-1.25 3.75a580.9 580.9 0 0 0-2.97 4.75c-.67 1.1-2.36 4.14-3.75 6.75-1.41 2.64-2.2 5.31-1.79 6 .49.83.32 1-.5.5-.81-.49-1.94.48-3.24 2.75-1.1 1.93-1.67 4.06-1.26 4.75.44.74.34.96-.25.54-.54-.39-1.55.4-2.24 1.75-.69 1.35-1.02 2.91-.75 3.46.27.55.07.89-.46.75-.52-.14-3.45 3.91-6.5 9C232.5 82.84 230 87.45 230 88c0 .55-.36 1.11-.8 1.25-.44.14-2.56 3.4-4.72 7.25-2.15 3.85-3.82 7.56-3.7 8.25.13.75-.27.95-1.01.5-.87-.53-1.02-.24-.5 1 .4.96.39 1.54-.02 1.29-.41-.26-1.42.76-2.24 2.25-.82 1.49-4 6.98-7.06 12.21-3.06 5.23-8.43 14.45-11.93 20.5-3.5 6.05-9.37 16.18-13.05 22.5-3.68 6.32-7.88 13.64-9.33 16.25L173 186c3.49 6.13 4.95 7.6 5.49 7.21.59-.42.69-.2.25.54-.42.7.43 3.33 1.93 6 1.47 2.61 3.38 5.99 4.25 7.5.87 1.52 1.95 2.42 2.4 2 .45-.41.54-.07.2.75-.35.84.31 2.6 1.5 4 1.17 1.38 1.87 1.94 1.56 1.25-.32-.69.09-1.48.92-1.75.83-.27 1.5-.95 1.5-1.5s2.7-5.5 6-11 6-10.23 6-10.5c0-.27 1.73-3.31 3.84-6.75s5.93-9.96 8.5-14.5c2.73-4.84 4.35-8.76 3.91-9.49-.5-.82-.33-.99.5-.5.83.49 1.92-.61 3.25-3.26 1.1-2.2 1.66-4.56 1.25-5.24-.45-.74-.34-.96.25-.56.55.38 2.25-1.2 3.77-3.51 1.52-2.3 2.54-4.75 2.25-5.44-.29-.69-.18-1.04.23-.79.41.25 2.97-3.46 5.68-8.25 2.7-4.79 5.67-9.83 6.59-11.21.92-1.37 3.04-4.98 4.71-8 1.67-3.02 5.57-9.89 8.65-15.25 3.32-5.75 5.32-10.26 4.88-11-.44-.74-.34-.97.25-.55.55.38 2.77-2.29 4.99-6 2.2-3.69 4-7.21 4-7.83 0-.62.34-.96.75-.75.41.21.74.04.73-.37 0-.41 1.8-3.79 4-7.5 2.36-3.96 3.71-7.26 3.27-7.99-.5-.82-.33-.99.5-.5.82.48 1.79-.39 2.8-2.51.86-1.79 2.65-5.05 3.99-7.25 1.34-2.2 2.22-4.56 1.95-5.25-.27-.69-.04-1.14.51-1 .55.14 1.67-.87 2.49-2.25.82-1.37 2.06-3.74 2.75-5.26.69-1.52 1.49-2.74 1.76-2.71.27.03 1.16-1.43 1.96-3.24.81-1.81 2.66-5.09 4.11-7.29 1.45-2.2 4.25-6.93 6.23-10.5l3.59-6.5C95.04 1.5 28.57 1.63 25 1.79zm290.39 11.64c-3.79 6.56-7.8 13.54-8.92 15.5-1.11 1.96-3.72 6.5-5.79 10.07-2.07 3.57-4.17 7.18-4.66 8-.5.82-2.51 4.31-4.46 7.75-1.96 3.44-3.26 6.81-2.9 7.5.37.7.26.91-.25.49-.5-.42-1.92 1.05-3.16 3.25-1.24 2.22-1.92 4.57-1.51 5.26.49.83.32 1-.5.5-.81-.49-1.94.48-3.24 2.75-1.1 1.93-1.67 4.06-1.26 4.75.44.74.33.97-.25.56-.55-.38-2.52 2.08-4.42 5.5-1.88 3.41-6.65 11.59-10.61 18.19-3.95 6.6-7.92 13.46-8.82 15.25-.9 1.79-1.31 3.81-.9 4.5.49.83.32 1-.5.5-.83-.5-2.22 1.05-4.24 4.75-1.71 3.13-2.68 6.03-2.25 6.74.45.74.34.96-.25.55-.56-.38-2.78 2.3-5 6.01-2.2 3.69-3.9 7.38-3.77 8.2.13.82-.09 1.17-.5.76-.4-.4-2.55 2.52-4.78 6.5-2.22 3.98-4.55 8.14-5.18 9.24-.62 1.1-2.73 4.81-4.7 8.25-2.05 3.6-3.26 6.78-2.83 7.5.49.83.32 1-.5.5-.8-.48-1.71.23-2.56 2-.72 1.51-1.96 3.88-2.75 5.25-.78 1.38-1.7 2.73-2.03 3-.33.27-1.21 1.63-1.96 3-.76 1.38-1.4 2.73-1.44 3-.04.27-1.34 2.52-2.89 5-1.56 2.48-3.46 5.51-4.22 6.75-.76 1.24-1.06 2.81-.65 3.5.49.83.32 1-.5.5-.82-.5-1.24-.08-1.24 1.25 0 1.1-.45 1.77-1 1.5s-1.06-.09-1.13.41c-.06.5-1.53 3.43-3.25 6.51-1.71 3.09-3.35 5.62-3.62 5.63-.27.01-1.4-1.55-2.5-3.46-1.1-1.9-2.45-3.15-2.99-2.78-.58.41-.69.18-.25-.56.43-.73-1.04-4.4-3.51-8.77-2.34-4.13-4.66-7.17-5.16-6.75-.51.43-.62.22-.25-.48.36-.69-.18-2.49-1.21-4-1.03-1.51-3.06-5.11-4.5-8-1.78-3.55-3.03-5.01-3.87-4.5-.82.5-.99.33-.5-.5.43-.73-1.34-4.99-4.26-10.25-3.43-6.17-5.39-8.76-6.24-8.25-.82.5-.99.33-.5-.5.41-.69.29-2.15-.26-3.25-.61-1.22-1.49-1.71-2.25-1.26-.83.49-1 .32-.5-.5.43-.71-.59-3.71-2.38-6.99-1.72-3.16-4.59-8.23-6.37-11.25-1.78-3.02-5.84-10-9.03-15.5-3.18-5.5-6.36-10.68-7.06-11.5-.7-.82-1.3-1.84-1.34-2.25-.04-.41-.3-1.43-.57-2.25-.27-.82-.95-1.27-1.5-1s-.77-.18-.5-1c.27-.82-.02-1.5-.67-1.5-.64 0-.88-.34-.52-.75.35-.41-.19-1.87-1.21-3.25-1.01-1.37-2.86-4.52-4.1-7-1.25-2.48-2.55-4.73-2.88-5-.34-.28-1.7-2.53-3.02-5-1.32-2.48-3.91-6.86-5.75-9.75L101 77c-32.78 0-33.95.13-33.34 1.75.37.96 1.6 3.1 2.75 4.75s2.13 3.23 2.17 3.5c.05.27.39 1.29.76 2.25.36.96 1.11 1.52 1.66 1.25.55-.27.77.18.5 1-.27.82-.05 1.5.5 1.5s.9.34.78.75 1.54 3.9 3.69 7.75 4.16 7.23 4.47 7.5c.31.27 1.78 2.75 3.28 5.5 1.5 2.75 3.18 4.89 3.75 4.75.57-.14.8.2.53.75s.4 2.8 1.5 5 2.23 4 2.5 4 .16-.56-.25-1.24c-.5-.82-.33-.99.5-.5.75.44.96 1.45.52 2.49-.52 1.24-.37 1.53.5 1 .77-.47 1.04-.29.72.5-.28.69 1.11 3.73 3.09 6.75 1.99 3.02 4.87 7.75 6.41 10.5s5.48 9.73 8.76 15.5c3.28 5.77 6.47 10.39 7.1 10.25.63-.14.92.43.65 1.25-.27.82 1.14 4.31 3.15 7.75 2.01 3.44 5.01 8.5 6.66 11.25 1.66 2.75 3.61 6.24 4.35 7.75.74 1.51 1.79 2.52 2.34 2.25.6-.3.71.2.27 1.25-.58 1.39-.42 1.55.75.76 1.09-.73 1.28-.66.73.25-.41.68-.08 2.37.75 3.74.83 1.38 1.95 2.27 2.5 2s.77.18.5 1c-.27.82 1.64 5.07 4.25 9.43 2.61 4.37 5.09 7.74 5.5 7.5.41-.23.42.36.02 1.32-.58 1.39-.42 1.54.74.75 1.09-.74 1.28-.67.73.25-.41.69.23 2.93 1.42 5 1.19 2.06 5.4 9.38 9.35 16.25 3.95 6.88 10.28 17.85 14.08 24.39 3.8 6.53 7.25 12.05 7.66 12.25.41.2 2.35-2.68 4.3-6.39 1.95-3.71 4.55-8.55 5.78-10.75 1.23-2.2 4.52-7.82 7.3-12.5 2.79-4.68 5.37-9.18 5.73-10 .37-.82 1.54-2.85 2.61-4.5 1.07-1.65 2.73-4.57 3.68-6.5.96-1.93 2.61-4.62 3.66-6 1.29-1.69 1.7-3.31 1.27-5-.55-2.15-.42-2.33.89-1.25 1.3 1.06 1.76.68 3.08-2.5.85-2.06 3.3-6.68 5.45-10.25 2.15-3.57 3.59-6.95 3.2-7.49-.38-.54-.25-.67.3-.29.55.39 1.67-.52 2.48-2.01.82-1.49 4.08-7.1 7.25-12.46 3.17-5.36 5.77-9.98 5.77-10.25 0-.27 1.8-3.43 4-7s3.7-7.06 3.34-7.75c-.37-.7-.26-.92.25-.5.5.42 2.82-2.62 5.16-6.75 2.48-4.38 3.94-8.02 3.5-8.74-.5-.82-.33-.99.5-.5.76.45 1.64-.04 2.25-1.26.55-1.1.7-2.56.34-3.25-.36-.69-.25-.92.25-.52.5.39 2.6-2.19 4.66-5.75 2.17-3.75 3.44-7.01 3.01-7.73-.44-.74-.34-.97.25-.55.55.38 2.76-2.29 4.96-6 2.19-3.69 4.48-7.6 5.1-8.7.61-1.1 7.19-12.57 14.61-25.5 7.43-12.93 14.89-25.75 16.58-28.5 1.7-2.75 3.23-5.68 3.41-6.5.18-.82.59-1.73.91-2 .32-.27 2.69-3.99 5.25-8.25 2.57-4.26 4.67-7.98 4.67-8.25 0-.27 2.03-3.76 4.51-7.75s4.5-7.81 4.5-8.5c-.01-.69.33-1.23.74-1.21.41.02 1.4-1.44 2.19-3.25.8-1.81 2.31-4.41 3.37-5.79 1.27-1.65 1.63-3.01 1.06-4-.6-1.07-.49-1.28.39-.75.8.49 1.77-.31 2.74-2.25l1.5-3c-5.04-.14-12.85-.26-20.61-.34l-14.12-.16m37.08 11.2c-2.25 3.74-5.27 8.94-6.72 11.55-1.48 2.68-2.3 5.29-1.88 5.99.5.82.33.99-.5.5-.86-.51-3.01 2.44-6.91 9.51-3.11 5.64-6.41 11.38-7.34 12.75-.93 1.38-3.06 4.98-4.73 8-1.67 3.02-6.39 11.35-10.5 18.5s-8.91 15.48-10.68 18.5c-1.77 3.02-2.96 6.06-2.65 6.75.31.69.11 1.02-.44.75s-3.43 3.66-6.4 8.75c-2.96 5.09-6.86 11.95-8.65 15.25-1.79 3.3-4.09 7.24-5.1 8.75-1.02 1.51-1.52 3.31-1.11 4 .44.74.34.97-.25.56-.55-.39-2.76 2.43-4.99 6.4-2.2 3.91-5.19 9.17-6.65 11.7-1.46 2.52-3.6 6.28-4.75 8.34-1.16 2.06-1.87 4.2-1.6 4.75.27.55.07.89-.46.75s-1.9 1.32-3.03 3.25c-1.14 1.93-2.28 4.29-2.54 5.25-.26.96-.92 1.75-1.47 1.75-.55 0-.77.68-.5 1.5s.05 1.27-.5 1-1.3.29-1.66 1.25c-.37.96-.72 1.98-.79 2.25-.06.27-1.34 2.41-2.83 4.75-1.56 2.43-2.4 4.79-1.98 5.5.44.74.34.96-.25.54-.55-.4-1.88 1.04-2.99 3.24-1.1 2.17-2.34 3.95-2.75 3.96-.41 0-.68.41-.6.9.08.49-3.3 6.79-7.5 14-4.57 7.83-7.35 13.61-6.91 14.36.49.83.32 1-.5.5-.85-.52-3.26 2.83-7.74 10.75-3.58 6.32-6.27 11.95-6 12.5.27.55.04.89-.53.75-.56-.14-2.51 2.45-4.33 5.75-1.81 3.3-5.32 9.38-7.79 13.5-2.46 4.13-6.48 11-8.92 15.27-2.43 4.28-4.66 7.77-4.93 7.76-.27-.01-1.39-1.71-2.47-3.77-1.08-2.07-4.12-7.25-6.75-11.51s-4.79-8.09-4.8-8.5c-.02-.41-1.48-3.13-3.25-6.03-1.78-2.9-3.64-4.93-4.14-4.5-.51.44-.62.23-.25-.47.36-.69-.42-2.94-1.73-5-1.32-2.06-3.51-5.77-4.87-8.25-1.37-2.48-4.4-7.87-6.75-12-2.34-4.12-6.84-12-9.98-17.5-3.15-5.5-9.09-15.85-13.2-23-4.12-7.15-8.68-15.14-10.15-17.75-1.77-3.16-3.08-4.5-3.9-4-.82.5-.99.33-.5-.5.41-.69.29-2.15-.26-3.25-.61-1.23-1.48-1.71-2.24-1.25-.82.5-.99.33-.5-.5.42-.7-.5-3.55-2.1-6.5-1.56-2.89-6.35-11.32-10.65-18.75-4.3-7.43-9.32-16.2-11.14-19.5-1.82-3.3-3.78-5.89-4.34-5.75-.57.14-.8-.2-.53-.75s-1.15-3.81-3.17-7.25c-2.01-3.44-4.15-6.58-4.75-6.98-.59-.41-.74-.75-.33-.75.41-.01-.04-1.35-1-2.96-.96-1.62-2.2-2.64-2.75-2.27-.55.38-.67.24-.27-.3s-3.54-8.53-8.75-17.74C59.26 78.54 55 70.55 55 70c0-.66 30.11-1.01 88.25-1.04l88.25-.03c4.06-6.53 6.72-11.13 8.54-14.43 1.81-3.3 4.1-7.35 5.09-9 1-1.65 2.27-3.79 2.84-4.75.98-1.66-5.15-1.75-122.97-1.75H1c5.28 8.91 8.42 14.43 10.38 18 1.96 3.57 4.03 6.39 4.59 6.25.57-.14.8.2.53.75s2.95 6.96 7.17 14.25S33 94.43 35.02 98c2.03 3.57 7.46 12.97 12.08 20.87s9.97 17.19 11.9 20.63c1.93 3.44 3.99 6.88 4.59 7.63.61.75 1.39 2.16 1.75 3.12.37.96 1.11 1.52 1.66 1.25.55-.27.79.06.54.75s.65 3.05 2.01 5.25c1.35 2.2 3.03 5.13 3.73 6.5.7 1.38 2.72 5.09 4.49 8.25 1.78 3.16 3.68 5.52 4.23 5.25.55-.27.77.06.48.75-.29.69 1.1 3.95 3.08 7.25s4.84 8.25 6.36 11c1.52 2.75 5.11 9.05 7.97 14 2.87 4.95 5.63 9.68 6.14 10.5.51.82 2.35 3.98 4.09 7l10.66 18.5c4.13 7.15 8.39 14.57 9.47 16.5 1.08 1.93 5.07 9.01 8.86 15.75 4.76 8.46 7.27 12.02 8.13 11.5.82-.5.99-.33.5.5-.42.71.54 3.39 2.26 6.25 1.65 2.75 3 5.23 3 5.5 0 .27 2.32 4.44 5.15 9.25 2.83 4.81 6.77 11.55 8.75 14.98l3.6 6.24 39 .08c9.16-15.97 11.19-20.55 10.75-21.29-.5-.82-.33-.99.5-.5.86.51 2.79-2.01 6.14-8.01 2.69-4.81 9.06-15.95 14.15-24.75s10.32-17.69 11.61-19.75c1.29-2.06 2.35-3.98 2.35-4.25s2.04-3.99 4.54-8.25 4.95-8.43 5.46-9.25c.5-.82 2.61-4.43 4.68-8 2.07-3.57 3.66-6.84 3.54-7.25-.12-.41.12-.74.53-.72.41.01 1.31-1.11 2-2.5s1.25-2.76 1.25-3.03.48-1.06 1.06-1.75c.58-.69 3.79-5.98 7.14-11.75 3.34-5.77 8.27-14.21 10.94-18.75 2.67-4.54 4.86-8.48 4.86-8.75 0-.27 2.5-4.66 5.56-9.75 3.07-5.09 5.97-9.93 6.45-10.75.49-.82 1.81-3.19 2.94-5.25s1.72-4.31 1.31-5c-.44-.74-.33-.97.25-.56.56.39 3.94-4.3 7.74-10.75 3.71-6.29 6.75-11.67 6.75-11.94 0-.27.85-1.74 1.88-3.25 1.04-1.51 2.89-4.55 4.13-6.75 1.23-2.2 6.68-11.76 12.11-21.25 5.93-10.34 9.58-17.75 9.14-18.5-.55-.92-.36-.99.73-.25 1.16.79 1.32.64.74-.75-.44-1.05-.31-1.65.32-1.5.57.14 4.56-5.82 8.85-13.25 4.3-7.43 8.61-14.85 9.58-16.5l1.78-3c-12.69-21.7-16.7-28.36-17.1-28.8-.4-.44-2.57 2.26-4.81 6z" style="fill:#fff"/></svg>