<svg xmlns="http://www.w3.org/2000/svg" viewBox="0 0 514 600" width="200" height="233"><style></style><path id="Path 0" d="M258 193.25c0 126.39-.36 197.06-1.04 204.25-.58 6.05-1.74 14.38-2.59 18.5-.89 4.35-3.28 10.86-5.69 15.5-2.85 5.51-6.64 10.61-12.16 16.36-4.41 4.6-11.39 10.56-15.52 13.24-4.32 2.81-11.52 6.25-17 8.11-9.13 3.1-10.12 3.23-25.5 3.25-12.56.01-17.4-.38-22.5-1.83-3.57-1.01-10.65-3.7-15.72-5.98-5.07-2.28-11.51-5.95-14.32-8.15-2.81-2.2-7.17-6.7-9.68-10-2.52-3.3-5.86-8.81-7.43-12.25-1.57-3.44-3.76-9.96-4.88-14.5-1.11-4.54-2.29-12.75-2.62-18.25-.4-6.96-.11-12.74.98-19 .85-4.95 2.81-12.37 4.34-16.5 1.53-4.12 4.86-10.65 7.39-14.5 2.54-3.85 7.72-9.94 11.53-13.53 3.8-3.6 9.84-8.19 13.41-10.21 3.57-2.02 9.2-4.62 12.5-5.77 3.3-1.15 9.15-2.79 13-3.65 4.57-1.02 12.65-1.61 23.25-1.7 8.94-.08 16.25.2 16.25.61s.45.75 1 .75c.65 0 1-14.67 1-42 0-23.1.34-41.82.75-41.59.41.22.62-4.62.46-10.75l-.29-11.16c-13.5-1.93-24.17-2.49-32.42-2.49s-19.05.49-24 1.09c-4.95.6-13.95 2.34-20 3.87-6.05 1.52-15.72 4.61-21.5 6.86-5.78 2.25-15.23 6.92-21.01 10.38-5.78 3.46-13.43 8.54-17 11.28-3.57 2.75-10.03 8.37-14.36 12.5-4.33 4.13-10.59 10.89-13.92 15.01-3.33 4.13-8.84 11.77-12.26 17-3.41 5.23-8.91 15.35-12.22 22.5-3.31 7.15-7.61 17.95-9.55 24-1.94 6.05-4.57 16.18-5.85 22.5C.72 367.4.5 371.13.52 396c.01 25 .23 28.46 2.33 38 1.27 5.77 3.88 15.23 5.8 21 1.93 5.77 6.19 15.9 9.48 22.5s8.39 15.6 11.33 20c2.94 4.4 9.58 12.73 14.75 18.5s10.95 11.49 12.84 12.7c1.9 1.21 5.7 3.98 8.45 6.14 2.75 2.17 9.28 6.7 14.5 10.08 5.22 3.38 14 8.34 19.5 11.02 5.5 2.68 14.5 6.55 20 8.6 5.5 2.04 15.18 4.76 21.5 6.03 6.32 1.28 15.89 2.8 21.25 3.38 5.36.58 15.49 1.05 22.5 1.05 7.43-.01 18.17-.82 25.75-1.94 7.15-1.07 17.05-3.12 22-4.57 4.95-1.44 12.38-3.98 16.5-5.63 4.13-1.66 11.77-5.42 17-8.36 5.23-2.94 13.1-8.02 17.5-11.3 4.4-3.28 12.96-11.08 19.02-17.33 6.73-6.95 13.88-15.65 18.38-22.37 4.04-6.05 9.97-16.4 13.16-23 3.19-6.6 7.59-17.4 9.78-24 2.18-6.6 4.94-16.5 6.12-22 1.19-5.5 2.66-13.15 3.27-17 .74-4.65 1.31-43.4 1.69-115.23l.58-108.24c14.95 11.21 25.07 17.46 32.14 21.12s17.13 8.24 22.36 10.18c5.23 1.94 14.45 4.92 20.5 6.61 6.05 1.7 16.85 4.24 24 5.63 7.15 1.4 18.29 2.85 24.75 3.23l11.76.7c-.01-50.37.28-72.43.64-81.5l.66-16.5c-17.68-2.12-27.08-3.77-32.31-5.05-5.23-1.27-12.87-3.52-17-5-4.12-1.49-9.98-3.94-13-5.46-3.02-1.51-9.32-5.3-14-8.41-4.68-3.11-9.18-5.83-10-6.06-.82-.22-5.32-4.37-10-9.22-4.68-4.85-11.04-12.64-14.14-17.31-3.11-4.67-7.44-12.09-9.64-16.49-2.19-4.4-5.33-11.83-6.97-16.5-1.64-4.67-3.94-12.77-5.1-18-1.17-5.23-2.59-15.46-3.14-22.75L356 0h-98v193.25z" style="fill:#fff"/></svg>