<svg xmlns="http://www.w3.org/2000/svg" viewBox="0 0 333 270" width="333" height="270"><style></style><path id="Path 0" fill-rule="evenodd" d="M62 .31c8.5.3 10.31.72 17.25 4.01 4.8 2.28 9.56 5.5 12.5 8.46 2.61 2.62 6.06 7.01 7.66 9.75 1.59 2.73 3.58 7.22 4.41 9.97.86 2.85 1.5 8.66 1.47 13.5-.03 6.35-.62 10.02-2.32 14.5-1.26 3.3-3.26 7.58-4.46 9.5-1.19 1.92-3.93 5.24-6.09 7.38-2.16 2.13-5.63 5.05-11.5 9.12l.1 11c.05 6.05.41 12.8.8 15 .63 3.53 1.17 4.16 8.68 6.8l21-14.8c11.55-8.14 22.57-16.02 24.5-17.51 2.59-2.01 3.7-3.79 4.25-6.85.41-2.28 1.76-6.24 3-8.82 1.24-2.57 4.05-6.46 6.25-8.65 2.2-2.19 6.47-5.15 9.5-6.57 4.49-2.12 6.97-2.6 13.5-2.6 6.64 0 8.94.46 13.5 2.67 3.03 1.48 7.56 4.85 10.07 7.5 2.76 2.91 5.44 7.12 6.75 10.58C204.18 77.83 205 82.27 205 86c0 3.51-.81 8.18-1.96 11.25-1.08 2.89-3.67 7.24-5.75 9.67-2.09 2.42-5.36 5.41-7.29 6.63-1.93 1.21-6.2 2.99-9.5 3.95-4.29 1.25-7.57 1.55-17 .42L127 146l10.25.47c5.64.26 30.72.74 101.25 1.67l4.58-5.82c2.52-3.2 7.47-7.76 11-10.12 3.53-2.37 8.9-5.25 11.92-6.41 3.64-1.39 8.72-2.26 15-2.57 7.11-.35 11.01-.04 15.5 1.24 3.3.95 8.68 3.14 11.96 4.88 3.28 1.74 8.26 5.41 11.07 8.16 2.91 2.85 6.49 7.8 8.3 11.5 1.75 3.57 3.69 9.43 4.31 13 .82 4.77.82 8.23.01 13-.61 3.57-2.56 9.43-4.35 13-1.78 3.57-5.51 8.75-8.3 11.5-2.78 2.75-7.74 6.42-11.03 8.17-3.28 1.74-8.67 3.87-11.97 4.73-3.3.86-9.15 1.56-13 1.56-3.85 0-9.7-.7-13-1.56-3.3-.86-8.48-2.88-11.5-4.48-3.02-1.6-7.54-4.83-10.04-7.17-2.49-2.34-5.87-5.98-10.46-11.92l-97.73 1.67 4.86 3.44c4.2 2.97 5.8 3.49 11.62 3.75 3.71.17 9.56 1.24 13 2.37 3.44 1.14 8.61 3.61 11.5 5.5 2.89 1.89 6.35 4.9 7.69 6.69 1.34 1.79 3.46 5.5 4.72 8.25 1.79 3.94 2.28 6.8 2.29 13.5.01 7.49-.36 9.27-3.12 15-2.01 4.16-5.06 8.3-8.51 11.5-4.19 3.9-7.01 5.53-12.84 7.41-5.63 1.81-8.84 2.28-12.98 1.9-3.03-.28-8.2-1.73-11.5-3.21-3.3-1.49-7.95-4.59-10.33-6.9-2.39-2.31-5.28-6-6.43-8.2-1.16-2.2-2.81-6.68-5.24-15.89L94 216l-6.25 2.45c-3.44 1.35-10.53 3.02-15.75 3.7-7.72 1.01-11.28 1-19-.08-5.22-.73-11.97-2.19-15-3.25-3.03-1.06-8.2-3.35-11.5-5.1-3.3-1.75-8.76-5.89-12.14-9.2-4.03-3.94-7.21-8.26-9.23-12.52-1.69-3.57-3.6-9.65-4.23-13.5-.65-3.94-.88-10.17-.53-14.25.35-3.99 1.75-10.29 3.11-14 1.37-3.71 4.18-9.18 6.25-12.16 2.08-2.97 6.02-7.36 8.77-9.75 2.75-2.39 8.47-6.26 20.44-12.84L39 86l-4.25-2.87c-2.34-1.57-5.84-4.61-7.79-6.75-1.95-2.13-4.76-5.91-6.25-8.38-1.48-2.47-3.37-6.97-4.19-10-.82-3.03-1.5-8.87-1.5-13 0-4.12.61-9.53 1.36-12 .74-2.48 2.38-6.52 3.65-9 1.26-2.48 4.58-6.91 7.38-9.86 2.8-2.94 7.12-6.53 9.59-7.96 2.47-1.43 6.97-3.41 10-4.4C51.14.42 54.84.06 62 .31zM45.25 17.88c-2.06 1.03-5.52 3.84-7.69 6.25-2.17 2.4-4.84 6.39-5.94 8.87-1.36 3.07-2 6.73-2.02 11.5-.03 5.36.54 8.27 2.43 12.42 1.58 3.46 4.45 7.19 7.97 10.35 3.52 3.16 7.08 5.35 9.89 6.08l4.4 1.15-1.38 39H66.2l-.7-38.72c7.75-2.87 11.8-5.23 14-7.1 2.2-1.86 5.32-5.82 6.93-8.79 2.22-4.09 3.03-7.08 3.35-12.39.32-5.33-.06-8.31-1.61-12.5-1.21-3.31-3.76-7.29-6.39-10-2.4-2.48-6.38-5.47-8.83-6.66-2.45-1.18-7.15-2.4-10.45-2.7-3.3-.3-7.69-.11-9.75.41-2.06.52-5.44 1.8-7.5 2.83zm112.32 56.46c-2.7 3.39-3.07 4.61-3.07 10.21v6.36c-39.53 28.07-51.53 36.75-52.17 37.4-.91.91-.21 2.28 3 5.89l4.17 4.7c45.22-34.6 51.45-38.88 53-38.39 1.1.35 3.8 1.11 6 1.7 2.89.76 5.04.74 7.75-.08 2.06-.62 5.16-2.37 6.88-3.88 1.73-1.51 3.82-4.1 4.64-5.75.83-1.65 1.51-5.25 1.52-8 0-3.54-.7-6.14-2.39-8.9-1.32-2.14-4.2-4.95-6.4-6.23-2.55-1.48-5.63-2.33-8.5-2.35-2.47-.01-6.04.77-7.93 1.73-1.88.96-4.81 3.48-6.5 5.59zM42.5 130.16c-2.2.77-6.03 2.56-8.5 3.99-2.47 1.42-6.41 4.45-8.75 6.72-2.34 2.27-5.58 6.49-7.21 9.38-1.63 2.89-3.49 8.18-4.13 11.75-.88 4.92-.88 7.84-.01 12 .63 3.03 2.23 7.75 3.54 10.5 1.35 2.83 4.95 7.39 8.27 10.5 3.24 3.03 8.34 6.7 11.34 8.17 3 1.48 7.48 3.15 9.95 3.73 2.47.58 8.1 1.06 12.5 1.08 4.4.02 10.7-.68 14-1.54 3.3-.86 8.23-2.77 10.96-4.25 2.73-1.48 7.23-4.96 10-7.73 2.77-2.76 6.38-7.71 8.01-11 2.69-5.37 2.98-6.9 2.95-15.46-.02-8.04-.41-10.34-2.57-15-1.4-3.03-4.57-7.75-7.04-10.5-2.67-2.98-7.27-6.48-11.4-8.66-3.8-2.01-8.71-4.11-10.91-4.67-2.2-.56-6.7-1.23-10-1.49-3.3-.27-8.47-.13-11.5.3-3.03.43-7.3 1.41-9.5 2.18zm221.5 13c-2.48 1.41-5.81 4.09-7.41 5.95-1.59 1.87-3.84 5.55-5 8.18l-2.09 4.79c-44.18-.05-73.54-.41-93.75-.82L119 160.5V175c55.41-.79 84.78-1.3 101-1.64l29.5-.62c1.07 4.46 2.76 7.9 4.44 10.51 1.73 2.68 5.35 6.27 8.31 8.22 2.89 1.91 7.5 4.16 10.25 4.99 2.75.84 7.48 1.53 10.5 1.54 3.02.01 7.98-.72 11-1.62 3.02-.9 7.07-2.65 9-3.9 1.93-1.24 4.94-3.77 6.7-5.62 1.76-1.85 4.22-5.61 5.46-8.36 1.55-3.44 2.26-6.88 2.25-11-.02-4.27-.72-7.44-2.44-11-1.33-2.75-4.01-6.59-5.95-8.53-1.93-1.95-6.22-4.86-9.52-6.47-4.97-2.43-7.47-2.99-14.5-3.21-4.95-.16-10.17.27-12.5 1.01-2.2.71-6.02 2.44-8.5 3.86zM104.23 204.5l37.27 23.1c.89 12.52 1.6 14.95 3.69 17.99 1.48 2.15 4.41 4.87 6.5 6.04 2.1 1.17 5.38 2.39 7.31 2.72 1.93.33 5.3.17 7.5-.36s5.44-1.99 7.2-3.23c1.76-1.24 4.35-4.06 5.76-6.26 2-3.12 2.56-5.27 2.55-9.75-.01-3.65-.71-7.12-1.91-9.5-1.05-2.06-2.96-4.74-4.25-5.94-1.29-1.21-4.04-2.9-6.1-3.75-2.06-.86-5.66-1.57-8-1.58-2.38-.01-6.35.98-9.03 2.25l-4.77 2.27c-27.09-18.21-35.32-23.5-35.76-23.5-.45 0-2.42 2.14-4.39 4.75l-3.57 4.75z" style="fill:#fdfdfc"/></svg>