<svg xmlns="http://www.w3.org/2000/svg" viewBox="0 0 173 48" width="173" height="48"><style></style><path id="Path 0" d="M46 5.5c0 4.36-.1 4.51-3.25 4.75-2.5.19-3.25.71-3.25 2.25s.75 2.06 3.25 2.25L46 15c-.01 24.35.33 28.02 1.49 29.75C48.75 46.63 49.91 47 54.5 47c5.11 0 5.48-.16 5.25-2.25-.19-1.69-1-2.33-3.25-2.59-1.65-.18-3.58-.86-4.29-1.5-.94-.83-1.29-4.6-1.25-13.41L51 15c6.81-.45 7.55-.91 7.75-2.75.22-2-.19-2.25-3.75-2.25h-4c0-8.63-.2-9-2.5-9S46 1.37 46 5.5zm51.8-.25c-.28 4.01-.49 4.26-3.55 4.5-2.72.21-3.21.62-3 2.5.2 1.76.96 2.3 3.5 2.5L98 15c-.06 26.64.17 28.73 1.72 30.22 1.17 1.14 3.42 1.74 6.53 1.75 4.41.03 4.75-.15 4.75-2.47 0-2.06-.48-2.5-2.75-2.48-1.51.01-3.32-.56-4.02-1.25-.88-.89-1.26-4.95-1.25-13.52L103 15c6.81-.45 7.55-.91 7.75-2.75.22-2-.19-2.25-3.75-2.25h-4c0-8.61-.21-9-2.45-9-2.16 0-2.48.49-2.75 4.25zM23 5.7c-.82.3-3.24 2.18-5.37 4.17-2.13 2-4.94 5.88-6.24 8.63-1.3 2.75-2.38 6.13-2.4 7.5-.02 1.98-.22 2.19-.99 1-.53-.82-.98-3.41-.98-5.75C7.01 18.91 6.78 17 6.5 17s-1.4.45-2.5 1c-1.16.58-2.46 2.78-3.1 5.25C.29 25.59.07 29.53.42 32c.34 2.47 1.66 6.07 2.92 8 1.27 1.93 4.07 4.38 6.23 5.46 2.57 1.28 6.04 1.98 10 2 4.99.03 6.82-.45 10.25-2.71 2.6-1.71 4.93-4.36 6.16-7 1.41-3.04 1.98-6.39 1.99-11.75 0-4.12-.67-9.97-1.5-13-.83-3.03-2.06-6.08-2.74-6.79-.68-.72-3.03-1.24-5.23-1.18-2.2.07-4.68.37-5.5.67zm96.25 4.84c-1.79.8-3.7 2.36-4.25 3.46-.55 1.1-1.02 3.69-1.04 5.75-.03 2.18.71 4.66 1.75 5.93 1.06 1.3 4.64 3.01 8.79 4.2 3.85 1.1 7.78 2.82 8.72 3.81.95 1 1.74 2.37 1.75 3.06.02.69-.98 2.16-2.22 3.27-1.46 1.31-3.65 2.02-6.25 2.02s-4.79-.71-6.25-2.02c-1.24-1.11-2.25-2.7-2.25-3.52 0-.93-.94-1.5-2.5-1.5-2.15 0-2.5.46-2.53 3.25-.01 2.22.81 4.04 2.59 5.75 2.22 2.13 3.73 2.55 10.27 2.86 7.05.34 7.93.16 10.92-2.25 2.84-2.28 3.25-3.21 3.26-7.36 0-2.61-.67-5.76-1.5-7-1.01-1.5-3.91-2.95-8.76-4.35-3.99-1.15-8.05-2.84-9.03-3.75-.98-.91-1.77-2.21-1.75-2.9.02-.69 1.27-2.17 2.78-3.28 1.51-1.12 3.54-2.02 4.5-2 .96.01 3.1.71 4.75 1.53 1.78.89 3.2 2.52 3.5 4 .37 1.87 1.13 2.5 3 2.5 2.15 0 2.5-.46 2.53-3.25.01-2.1-.78-4.02-2.25-5.43-1.26-1.2-3.52-2.67-5.03-3.25-1.51-.59-4.44-1.05-6.5-1.03-2.06.02-5.21.7-7 1.5zM61.01 22.75c0 7.01.45 14.44 1 16.5.56 2.13 2.18 4.63 3.74 5.78 2.03 1.51 4.25 2.03 8.5 2 3.16-.01 6.65-.48 7.75-1.03 1.33-.67 2-.67 2 0 0 .55 1.13 1 2.5 1H89V10h-5v26c-4.92 5.05-6.82 6-8.92 6-1.7 0-3.98-.45-5.08-1s-2.46-2.46-3.02-4.25-1.01-8.54-1-15L66 10h-5m95.54 3.62c-.48.39-.8 2.89-.71 5.55L156 24c-9.13.48-9.52.71-9.75 3.25-.24 2.67-.1 2.75 4.75 2.75h5c0 10.94.03 11 3 11s3-.06 3-5.5V30c9.85 0 9.99-.08 9.75-2.75-.23-2.54-.62-2.77-5-3L162 24c-.46-9.68-.82-10.55-2.54-10.79-1.13-.16-2.44.02-2.92.41z" style="fill:#fff"/></svg>