<svg xmlns="http://www.w3.org/2000/svg" viewBox="0 0 326 199" width="326" height="199"><style></style><path id="Path 0" d="M132 1.49c-5.78.69-13.65 1.81-17.5 2.49-3.85.67-10.37 2.14-14.5 3.24-4.12 1.11-8.85 2.37-10.5 2.8-1.65.43-6.37 2-10.5 3.47-4.12 1.48-12.22 4.93-18 7.67-5.78 2.73-14.33 7.52-19 10.64-4.67 3.12-11.82 8.83-15.88 12.68-4.06 3.86-9.29 9.49-11.62 12.52-2.33 3.03-5.85 8.65-7.81 12.5-1.96 3.85-4.12 9.03-4.8 11.5C1.22 83.47.48 90.68.26 97c-.31 8.71.02 13.32 1.37 19 1.04 4.38 3.04 9.35 4.82 11.95 1.93 2.81 4.15 4.75 6.05 5.29 1.65.46 6.38.55 10.5.2 4.13-.34 13.35-2.13 20.5-3.97 7.15-1.84 18.63-5.13 25.5-7.32 6.88-2.19 14.97-4.88 18-5.99 3.03-1.1 13.82-5.02 24-8.71 10.18-3.69 23-8.44 28.5-10.56 5.5-2.12 10.08-3.75 10.19-3.62.1.12-2.83 1.79-6.5 3.7-3.68 1.91-15.24 8.17-25.69 13.9-10.45 5.74-24.18 13.6-30.5 17.47-6.33 3.87-15.33 9.75-20 13.07-4.67 3.31-11.06 8.52-14.18 11.56-3.25 3.16-5.98 6.81-6.39 8.53-.47 1.96-.22 3.87.71 5.5.79 1.38 4.12 4.38 7.4 6.68 3.28 2.29 6.3 4.2 6.71 4.25.41.04 3.56 1.37 7 2.95 3.44 1.59 8.95 3.81 12.25 4.93 3.3 1.13 7.8 2.56 10 3.19 2.2.62 6.7 1.8 10 2.61 3.3.82 9.15 2.12 13 2.91 3.85.79 13.19 2.12 20.75 2.96 7.56.83 20.28 1.52 28.25 1.52 7.97 0 20.91-.69 28.75-1.54 7.84-.85 17.63-2.22 21.75-3.05 4.13-.84 9.52-1.99 12-2.58 2.48-.58 9.9-2.83 16.5-5.01 6.6-2.18 16.73-6.21 22.5-8.97 5.77-2.75 14.1-7.37 18.5-10.25 4.4-2.89 10.93-7.73 14.5-10.75 3.57-3.03 8.81-8.4 11.63-11.93 2.83-3.53 6.75-9.35 8.72-12.92 1.97-3.57 4.59-9.43 5.82-13 1.87-5.42 2.25-8.66 2.27-19.5.01-11.72-.26-13.79-2.8-21-1.55-4.4-4.89-11.37-7.42-15.5-2.56-4.16-8.42-11.28-13.17-16-4.7-4.68-12.37-11.01-17.05-14.08-4.68-3.06-10.52-6.73-13-8.14-2.48-1.41-9.23-4.57-15-7.03-5.77-2.45-14.32-5.62-19-7.05-4.68-1.43-12.32-3.46-17-4.51-4.68-1.06-11.43-2.43-15-3.04-3.57-.62-10.89-1.58-16.25-2.14-5.36-.55-18.19-.96-28.5-.89C150.94.19 137.78.8 132 1.49z" style="fill:#fff"/></svg>