<svg xmlns="http://www.w3.org/2000/svg" viewBox="0 0 153 126" width="153" height="126"><style></style><path id="Path 0" d="M44.04 1.75c-2.86 1.44-4.5 3.77-9.33 13.25-3.23 6.33-7.96 14.42-10.53 18-2.56 3.58-7.41 9.42-10.78 13-3.37 3.58-7.76 7.63-9.76 9C.56 57.12.01 58.07.01 61.25 0 63.92.72 65.72 2.5 67.5c2.06 2.06 3.47 2.5 8 2.5 3.02 0 6.74-.62 8.25-1.38l2.75-1.37c-3.18 15.72-3.57 21.02-3.25 28.25.34 7.73.98 11.22 2.84 15.4 1.34 3 4.29 7.1 6.66 9.25 2.4 2.17 6.1 4.33 8.5 4.96 2.34.61 6.72.84 9.75.51 3.03-.34 7.86-1.73 10.75-3.11 2.89-1.38 7.76-4.87 10.83-7.76 3.07-2.89 8.21-9.07 11.41-13.75 3.2-4.68 8.78-14.35 12.39-21.5 6.2-12.27 6.57-12.78 6.6-9 .02 2.2.51 6.92 1.09 10.5.58 3.57 1.95 8.53 3.05 11 1.09 2.47 3.2 5.76 4.68 7.3 1.57 1.63 5 3.46 8.2 4.38 3.41.98 7.59 1.4 11 1.1 3.03-.27 7.97-1.62 11-3 3.03-1.39 7.03-4.05 8.9-5.9 1.87-1.86 4.22-5.18 5.23-7.38 1.01-2.22 1.84-6.34 1.85-9.25.01-2.89-.43-6.15-.98-7.25-.55-1.1-1.79-2.02-2.75-2.04-.96-.03-2.43.7-3.25 1.62-.82.92-4.09 3.64-7.25 6.04-3.24 2.47-6.84 4.38-8.25 4.38-1.65 0-3.08-.94-4.19-2.75-1.38-2.23-1.86-6.91-2.57-24.75-.49-12.1-1.3-23.69-1.81-25.75-.51-2.06-2.17-5.13-3.68-6.81-1.89-2.11-4-3.24-6.75-3.63-2.57-.36-5.07-.02-7 .93-2.47 1.23-5.31 5.92-16 26.38C81.35 59.3 72.08 75.67 67.9 82c-4.18 6.32-9.36 13-11.5 14.84-3.78 3.23-3.95 3.28-5.72 1.5-1.05-1.06-2.06-3.97-2.38-6.84-.3-2.75-.01-8.82.65-13.5.66-4.67 3.68-18.17 6.7-30 3.03-11.83 5.75-24.65 6.04-28.5.3-3.87.04-8.9-.57-11.25-.81-3.07-2.02-4.8-4.37-6.25C54.96.91 52.15.01 50.5.01c-1.65-.01-4.56.78-6.46 1.74z" style="fill:#fff"/></svg>