<svg xmlns="http://www.w3.org/2000/svg" viewBox="0 0 135 142" width="135" height="142"><style></style><path id="Path 0" d="M13.5.67c-.46.36-.76 5.09-.67 10.5.17 9.61.24 9.88 3.17 12.33l3 2.5c-6.76 8.91-9.72 13.52-10.93 16-1.22 2.48-3.06 6.75-4.09 9.5C2.94 54.25 1.59 60.33.97 65 .14 71.23.13 75.9.93 82.5c.6 4.95 2.1 11.73 3.33 15.07s4.04 9.14 6.24 12.88c2.31 3.94 6.98 9.62 11.05 13.44 4.67 4.38 9.89 8.03 15.5 10.83 4.65 2.32 11.71 4.91 15.7 5.75 3.99.84 10.63 1.53 14.75 1.53 4.13 0 10.76-.64 14.75-1.42 3.99-.77 9.5-2.38 12.25-3.57s7.7-3.98 11-6.2 8.41-6.57 11.35-9.67c2.94-3.1 6.86-8.11 8.72-11.14 1.85-3.03 3.38-5.95 3.4-6.5.02-.55.75-2.35 1.62-4 .87-1.65 2.22-6.26 2.99-10.25.78-3.99 1.42-10.4 1.42-14.25v-7c-64.13 0-72 .27-72.01 1.25 0 .69 2.81 4.06 6.25 7.49l6.26 6.24c33.33-.03 43.22.19 43.5.47.28.28-.29 2.99-1.25 6.03s-2.7 7.21-3.85 9.27c-1.16 2.06-3.29 5.33-4.74 7.25-1.45 1.92-3.76 4.65-5.15 6.06-1.38 1.41-4.09 3.65-6.01 4.98-1.92 1.33-5.3 3.37-7.5 4.54-2.2 1.16-6.59 2.86-9.75 3.77-3.16.91-9.01 1.64-13 1.63-4.22 0-9.97-.82-13.75-1.95-3.58-1.06-8.75-3.18-11.5-4.7s-7.92-5.72-11.5-9.32c-4.02-4.06-7.71-9.03-9.68-13.04-1.76-3.56-3.67-8.27-4.25-10.47-.58-2.2-1.06-8.05-1.06-13 0-4.95.46-10.8 1.03-13 .56-2.2 2.6-7.15 4.52-11 1.93-3.85 4.97-8.58 6.78-10.5 1.8-1.92 5.27-5.13 7.72-7.13 2.44-2 6.46-4.65 8.94-5.89 2.48-1.24 7.54-3.1 11.25-4.12S65.25 21 68 21s8.04.86 11.75 1.91c3.71 1.06 9.22 3.14 12.25 4.64 3.12 1.54 8.34 5.58 12.05 9.33 3.6 3.64 7.99 9.21 9.75 12.37L117 55c10.85 0 14.22-.45 14.5-1 .28-.55-.48-3.59-1.68-6.75s-2.87-6.87-3.7-8.25c-.83-1.37-3.41-4.75-5.74-7.5l-4.23-5c5.77-5.42 5.85-5.78 5.88-15.25.01-5.36-.29-10.1-.67-10.53-.38-.43-4.42 2.94-8.98 7.5l-8.28 8.28C94.33 11.54 88.58 9.33 85 8.39 80.67 7.25 74.82 6.7 67.5 6.73c-6.05.03-13.25.58-16 1.23S43.13 10.7 39 12.6l-7.5 3.45C19.1 3.62 15.24.01 14.92.01 14.6 0 13.96.3 13.5.67z" style="fill:#fff"/></svg>