<svg xmlns="http://www.w3.org/2000/svg" viewBox="0 0 249 247" width="249" height="247"><style></style><path id="Path 0" fill-rule="evenodd" d="M128.5.56c6.6.22 15.6 1.11 20 1.97 4.4.86 11.38 2.7 15.5 4.1 4.13 1.4 11.1 4.35 15.5 6.55 4.4 2.21 11.15 6.08 15 8.61 3.85 2.53 12.06 9.69 29.5 27.21l3.25-1.63c1.79-.9 4.94-1.58 7-1.5 2.06.07 4.99.84 6.5 1.71 1.51.88 3.65 2.79 4.75 4.25 1.93 2.57 2 4.2 1.95 85.67l-2.72 10c-1.5 5.5-4.79 14.28-7.32 19.5-2.52 5.22-6.99 12.88-9.93 17-2.94 4.13-9.53 11.6-14.66 16.61-5.13 5.01-12.69 11.4-16.82 14.19-4.12 2.8-12.22 7.31-18 10.03-5.78 2.71-13.65 5.71-17.5 6.67-3.85.95-8.01 2.13-9.25 2.61-1.24.49-2.25 1.57-2.25 2.39 0 .82-1.46 3.1-3.25 5.06-1.79 1.95-4.82 4.02-6.75 4.59-1.93.57-4.85.72-6.5.34-1.65-.38-4.12-1.37-5.5-2.21-2.23-1.37-2.77-1.37-5-.02-1.37.83-3.85 1.83-5.5 2.21-1.65.39-4.58.23-6.5-.35-1.92-.59-4.71-2.32-6.19-3.84-1.47-1.53-3.1-3.9-3.61-5.28-.78-2.11-2.31-2.87-9.81-4.87-4.89-1.3-13.84-4.7-19.89-7.55-6.05-2.85-14.15-7.37-18-10.04-3.85-2.67-11.19-8.95-16.32-13.95-5.13-5-11.72-12.46-14.66-16.59-2.94-4.12-7.41-11.78-9.93-17-2.53-5.22-5.82-14-10.04-29.5L1.53 96c-.03-39.97.04-41.6 1.97-44.17 1.1-1.46 3.24-3.37 4.75-4.25 1.51-.87 4.44-1.64 6.5-1.71 2.06-.08 5.21.6 10.25 3.13l11.25-11.31c6.19-6.21 14.4-13.37 18.25-15.9 3.85-2.53 11.05-6.62 16-9.09 4.95-2.46 12.83-5.62 17.5-7.01 4.67-1.4 11.65-3.03 15.5-3.62 3.85-.6 8.35-1.28 10-1.5 1.65-.23 8.4-.23 15-.01zM105 12.08c-4.12.6-10.76 2.18-14.75 3.51-3.99 1.32-10.51 3.92-14.5 5.76-3.99 1.84-10.85 5.77-15.25 8.74-4.4 2.96-11.88 9.22-16.62 13.9s-10.36 11.11-12.5 14.3c-2.13 3.18-4.33 5.75-4.88 5.71-.55-.04-2.91-1.86-5.25-4.04C18.91 57.78 16.1 56 15 56c-1.1 0-2.5 1.01-3.11 2.25-.79 1.58-.99 13.67-.69 40.75.39 35.8.58 39.06 2.62 46.5 1.21 4.4 4.41 12.5 7.12 18 2.74 5.55 7.97 13.82 11.74 18.57 3.75 4.71 9.97 11.39 13.82 14.84 3.85 3.45 7.9 6.84 9 7.52 1.1.68 4.92 3.09 8.5 5.35s11.67 6.09 18 8.52c6.33 2.43 14.83 5.04 18.89 5.81 4.07.76 7.52 1.84 7.67 2.39.16.55.54 2.69.86 4.75.36 2.35 1.32 4.12 2.58 4.75 1.41.7 2.59.63 4-.25 1.11-.69 2.01-2.26 2-3.5 0-1.24.22-2.93.5-3.75.36-1.09 2-1.5 6-1.5s5.64.41 6 1.5c.28.82.5 2.51.5 3.75-.01 1.24.89 2.81 2 3.5 1.41.88 2.59.95 4 .25 1.26-.63 2.22-2.4 2.58-4.75.32-2.06.7-4.2.86-4.75.15-.55 3.6-1.63 7.67-2.39 4.06-.77 12.57-3.38 18.89-5.81 6.32-2.43 14.43-6.26 18-8.52 3.57-2.26 7.4-4.67 8.5-5.35 1.1-.68 5.15-4.07 9-7.52 3.85-3.45 10.07-10.13 13.82-14.84 3.77-4.75 9-13.02 11.74-18.57 2.71-5.5 5.91-13.6 7.12-18 2.04-7.44 2.23-10.7 2.62-46.5.3-27.08.1-39.17-.69-40.75C236.5 57.01 235.1 56 234 56s-3.91 1.78-6.25 3.96c-2.34 2.18-4.7 4-5.25 4.04-.55.04-2.75-2.53-4.88-5.71-2.14-3.19-7.76-9.62-12.5-14.3-4.74-4.68-12.22-10.94-16.62-13.9-4.4-2.97-11.15-6.84-15-8.6-3.85-1.76-9.47-4.13-12.5-5.25-3.03-1.13-9.1-2.74-13.5-3.59-4.4-.84-12.72-1.75-18.5-2.01-5.78-.26-11.85-.29-13.5-.06-1.65.23-6.37.91-10.5 1.5zM76.5 77.36c9.82.31 11.8.7 18.5 3.63 4.13 1.81 9.97 5.22 13 7.59 3.03 2.37 7.71 7.37 15.33 17.92l-2.89 5.5c-2.15 4.1-2.88 6.9-2.9 11-.01 3.95.76 7.12 2.72 11.25 1.54 3.23 3.4 5.75 4.24 5.75.84 0 2.7-2.52 4.24-5.75 1.96-4.13 2.73-7.3 2.72-11.25-.02-4.1-.75-6.9-5.79-16.5l4.92-6.81c2.7-3.74 7.38-8.74 10.41-11.11 3.03-2.37 8.88-5.77 13-7.57 6.31-2.76 9.08-3.36 17.5-3.79 7.93-.41 11.14-.14 15.5 1.27 3.03.98 8.2 3.14 11.5 4.8 3.4 1.7 8.63 5.65 12.06 9.11 3.33 3.35 7.44 8.57 9.13 11.6 1.7 3.03 3.81 8.42 4.69 12 .88 3.58 1.61 9.65 1.62 13.5 0 3.85-.67 9.7-1.51 13-.83 3.3-2.75 8.45-4.25 11.45-1.51 3-5.67 8.46-9.24 12.12-3.93 4.03-8.87 7.86-12.5 9.69-3.3 1.67-8.7 3.81-12 4.76-4.47 1.29-8.42 1.62-15.5 1.29-7.91-.36-10.67-.95-16.5-3.56-3.85-1.73-9.64-5.08-12.86-7.44-3.23-2.37-7.83-7.12-10.25-10.56-2.41-3.44-4.95-6.41-5.64-6.6-.69-.2-1.89-.08-2.67.25s-3.32 3.3-5.64 6.6-6.86 7.94-10.08 10.31c-3.22 2.36-9.01 5.71-12.86 7.44-5.83 2.61-8.59 3.2-16.5 3.56-7.08.33-11.03 0-15.5-1.29-3.3-.95-8.7-3.09-12-4.76-3.63-1.83-8.57-5.66-12.5-9.69-3.58-3.66-7.73-9.12-9.24-12.12-1.5-3-3.42-8.15-4.25-11.45-.84-3.3-1.51-9.15-1.51-13 .01-3.85.74-9.92 1.62-13.5.88-3.58 2.99-8.97 4.69-12 1.69-3.03 5.8-8.25 9.13-11.6 3.33-3.36 8.54-7.36 11.56-8.9 3.02-1.53 7.75-3.62 10.5-4.64 4.03-1.49 7.14-1.78 16-1.5zm-.47 15.39c1.67 2.06 3.02 4.76 3 6-.01 1.24-1.27 3.39-2.78 4.78-1.51 1.4-3.65 2.54-4.75 2.54s-3.24-.92-4.75-2.04c-2.09-1.54-2.75-2.87-2.75-5.53 0-2.27.88-4.56 2.5-6.5 1.38-1.65 2.5-3.22 2.5-3.5 0-.28-1.46-.49-3.25-.47-1.79.02-5.95 1.32-9.25 2.9-3.35 1.61-7.74 4.8-9.94 7.22-2.17 2.39-5.07 6.82-6.45 9.85-1.46 3.21-2.67 8-2.91 11.5-.22 3.3.15 8.03.83 10.5.68 2.47 2.25 6.3 3.49 8.5 1.24 2.2 4.33 5.91 6.86 8.25 2.54 2.34 6.76 5.22 9.37 6.4 3.63 1.64 6.76 2.16 13.25 2.19 6.38.03 9.62-.46 13-1.95 2.47-1.1 6.08-3.16 8-4.58s5.19-5 7.25-7.95c2.5-3.57 4.2-7.53 5.12-11.86.98-4.6 1.12-8.18.5-12.25-.48-3.16-1.96-7.89-3.29-10.5-1.32-2.61-4.36-6.62-6.75-8.9-2.38-2.28-6.24-5.09-8.58-6.25-2.34-1.15-6.09-2.5-8.33-3-2.41-.52-4.26-.52-4.5 0-.23.5.95 2.59 2.61 4.65zm79.61 3.45c-2.68 2.36-6.28 6.77-8 9.8-2.95 5.17-3.14 6.11-3.12 15.5.03 8.86.33 10.57 2.67 15 1.45 2.75 4.59 6.87 6.98 9.17 2.38 2.29 6.36 5.21 8.83 6.5 3.43 1.77 6.53 2.41 13 2.68 5.14.21 10.08-.17 12.5-.94 2.2-.71 5.35-2.17 7-3.26 1.65-1.08 4.5-3.36 6.34-5.06 1.84-1.7 4.38-5.12 5.65-7.59 1.27-2.47 2.88-7.2 3.58-10.5 1.05-4.96 1.03-7.13-.12-12.5-.86-4-2.78-8.62-4.99-12-1.98-3.03-5.37-6.71-7.53-8.19-2.16-1.49-6.07-3.62-8.68-4.75C187.14 88.93 184.1 88 183 88c-1.1 0-2.01.56-2.03 1.25-.02.69.89 2.15 2.03 3.25 1.46 1.42 2.06 3.24 2.03 6.25-.02 3.45-.5 4.53-2.53 5.75-1.37.83-3.74 1.51-5.25 1.53-1.57.01-3.71-.96-4.98-2.25-1.22-1.26-2.24-3.52-2.25-5.03-.01-1.51 1.09-4.21 2.45-6s2.49-3.59 2.5-4c.02-.41-.98-.73-2.22-.7-1.24.03-4.5.91-7.25 1.95s-7.19 3.83-9.86 6.2zM63.12 91c1.71 0 1.7.13-.17 2.25-1.09 1.24-1.98 3.49-1.97 5 .01 1.51 1.03 4.11 2.27 5.76 1.24 1.66 3.6 3.52 5.25 4.14 2.41.9 3.69.8 6.5-.52 2.33-1.08 4.04-2.88 5.11-5.38 1.52-3.51 1.5-3.99-.25-7.5-1.57-3.17-1.63-3.75-.36-3.75.83 0 2.67 1.01 4.1 2.25 1.42 1.24 3.66 4.05 4.97 6.25 1.31 2.2 2.39 4.9 2.39 6 0 1.1.5 2.45 1.1 3 .8.73.78 2.1-.08 5-.65 2.2-2.15 5.96-3.33 8.35-1.76 3.56-3.24 4.87-8.15 7.22-3.3 1.58-7.46 2.88-9.25 2.9-1.79.02-4.04-.37-5-.87-.96-.49-3.86-1.96-6.43-3.25-3.17-1.59-5.22-3.48-6.36-5.85-.92-1.92-2.08-4.29-2.57-5.25-.49-.96-.89-4-.89-6.75s.45-5.22 1-5.5c.55-.28.94-1.39.86-2.49-.08-1.19 1.78-3.79 4.65-6.5 2.63-2.48 5.6-4.51 6.61-4.51zm106.06 0c1.41 0 1.5.29.52 1.65-.66.91-1.2 3.54-1.2 5.85 0 2.31.68 5.01 1.5 6 .82.99 2.85 2.36 4.5 3.04 1.9.78 3.91.93 5.5.39 1.38-.46 3.74-2.44 5.25-4.39 1.51-1.95 2.77-4.33 2.78-5.29.02-.96-.88-2.99-2-4.5-1.63-2.21-1.73-2.75-.53-2.75.82 0 3.19 1.28 5.25 2.84 2.06 1.57 4.76 4.94 6 7.5 1.31 2.72 2.25 6.54 2.25 9.16 0 2.55-1.01 6.78-2.33 9.75-1.91 4.3-3.23 5.73-7.25 7.9-2.71 1.46-6.72 3.12-8.92 3.7-3.19.82-4.81.7-8-.59-2.2-.9-5.43-2.56-7.19-3.69-1.75-1.14-3.85-3.19-4.66-4.57-.82-1.37-2.24-4.75-3.17-7.5-1.44-4.28-1.5-5.58-.4-9 .7-2.2 1.95-5.35 2.77-7 .83-1.65 2.88-4.24 4.56-5.75 1.68-1.51 3.83-2.75 4.77-2.75z" style="fill:#fff"/></svg>