<svg xmlns="http://www.w3.org/2000/svg" viewBox="0 0 282 236" width="282" height="236"><style></style><path id="Path 0" fill-rule="evenodd" d="M167.25.99c2.96-.01 5.62.84 8.75 2.81 2.47 1.56 5.74 4.26 7.25 6.02 1.51 1.75 2.75 4.31 2.75 5.68 0 1.5-.8 2.9-2 3.5-1.1.55-2.02 1.79-2.04 2.75-.02.96-.65 2.2-1.41 2.75-.75.55-7.31 12.47-14.57 26.5-7.27 14.03-16.08 30.68-19.59 37-5.93 10.69-6.53 12.35-8.45 23.5-1.14 6.6-2.86 13.8-3.81 16-.96 2.2-17.69 26.23-37.19 53.4-19.49 27.18-36.68 50.46-38.19 51.75-1.64 1.4-4.67 2.6-7.5 2.97-3.02.39-7.12.02-11.25-1.01-3.58-.89-9.42-3.06-13-4.83-3.66-1.8-9.34-5.91-13-9.4-3.58-3.4-7.97-8.59-9.76-11.53C1.98 205.16.81 201.8.45 198c-.39-4.08-.06-6.43 1.26-9.1.99-1.98 17.54-25.75 36.8-52.82 28.16-39.59 35.89-49.8 39.5-52.23 2.47-1.65 8.31-4.97 12.99-7.36 7.53-3.86 9.82-5.78 19.99-16.68 6.32-6.77 19.6-20.78 29.5-31.14 9.91-10.36 18.35-19.7 18.76-20.75.41-1.06 1.43-1.92 2.25-1.92.93 0 1.5-.94 1.5-2.5 0-2.27.39-2.5 4.25-2.51zm-52 0c3.33.01 3.75.29 3.75 2.51 0 1.56.57 2.5 1.5 2.5.82 0 1.91 1.01 2.41 2.25.5 1.24 3.43 4.72 6.51 7.75 3.93 3.85 5.59 6.25 5.55 8-.03 1.78-2.7 5.17-9.26 11.77-5.06 5.1-10 9.26-10.96 9.25-1.21-.01-3.27-3.05-6.62-9.77-2.68-5.36-5.63-10.42-6.55-11.25-.92-.83-1.65-2.29-1.62-3.25.02-.96-.86-1.97-1.96-2.25s-2.01-1.29-2.03-2.25c-.01-.96 1.01-3.33 2.29-5.25 1.27-1.92 4.77-4.97 7.77-6.76 3.6-2.14 6.76-3.26 9.22-3.25zm54.12 59.04c.62.01 4.06 2.86 7.63 6.33 4.48 4.35 9.46 7.83 16 11.2 5.23 2.69 11.3 6.71 13.5 8.93 2.2 2.22 19.63 25.85 38.73 52.52 19.11 26.67 35.25 50.06 35.87 51.99.63 1.93.87 5.52.53 8-.36 2.7-2.14 6.9-4.43 10.5-2.11 3.3-6.55 8.48-9.87 11.5-3.33 3.02-8.92 6.95-12.44 8.72-3.51 1.77-9.76 3.96-13.89 4.86-6 1.32-8.35 1.42-11.75.53-2.34-.61-5.55-2.35-7.13-3.86-1.59-1.51-18.32-24.35-37.18-50.75-18.85-26.4-35.44-50.47-36.85-53.5-2.21-4.74-2.57-6.88-2.59-25.5l11.37-20.75c6.25-11.41 11.88-20.74 12.5-20.72z" style="fill:#fff"/></svg>