<svg xmlns="http://www.w3.org/2000/svg" viewBox="0 0 512 512" width="512" height="512"><style></style><path id="Path 0" fill-rule="evenodd" d="M274 1.13c2.48-.08 8.32.35 13 .95 4.68.59 12.66 2.17 17.75 3.5s13.19 4.11 18 6.18c4.81 2.07 12.29 5.78 16.62 8.25C343.7 22.48 351.23 27.54 365 38l7.25-5.04c3.99-2.77 10.63-6.34 14.75-7.92 4.13-1.59 10.65-3.43 14.5-4.1 4.2-.74 11-1 17-.67 6.92.38 12.46 1.37 18 3.2 4.4 1.45 11.15 4.49 15 6.73 4.11 2.4 10.41 7.55 23.5 20.8l6.75-.01c3.71-.01 8.77.65 11.25 1.47 2.48.81 6.7 3.4 9.39 5.76 2.68 2.35 5.83 6.08 9.11 12.28v374l-2.11 4c-1.17 2.2-4.32 5.93-7 8.28-2.69 2.36-6.91 4.95-9.39 5.76-3.91 1.29-28.58 1.48-187.25 1.47-180.3-.01-182.82-.04-188-2.01-2.89-1.1-5.36-2-5.5-2-.14 0-1.52 2.14-3.08 4.75s-5.66 8.13-9.12 12.25c-3.45 4.13-9.35 10.2-13.1 13.5-3.75 3.3-10.11 7.98-14.14 10.39-4.02 2.42-9.78 5.24-12.81 6.29-3.02 1.04-8.65 2.33-12.5 2.87-4.85.68-8.84.64-13-.13-3.3-.62-7.8-1.96-10-2.98s-6.19-3.78-8.88-6.15c-2.68-2.36-6.38-6.99-8.21-10.29-1.84-3.3-4.32-9.82-5.51-14.5C0 468.52-.19 465.76.3 453c.38-9.67 1.22-17 2.55-22 1.09-4.12 2.73-9.75 3.65-12.5.92-2.75 3.91-9.73 6.65-15.5s7.38-14.1 10.31-18.5c2.93-4.4 7.11-10.02 13.23-17l-4.41-6c-2.43-3.3-5.69-8.7-7.25-12-1.55-3.3-3.62-8.93-4.61-12.5-1.2-4.39-1.81-10.24-1.85-18-.05-8.34.46-13.56 1.88-19 1.07-4.12 3.77-11 6-15.27s6.04-10.12 8.47-13c2.44-2.88 6.85-7.25 9.81-9.73 2.96-2.48 7.95-5.97 11.08-7.76s9.29-4.4 13.69-5.79c5.22-1.65 11.73-2.78 29.47-3.95l.26-86c.27-84.49.31-86.08 2.33-90.5 1.14-2.47 3.73-6.19 5.75-8.25 2.03-2.06 5.6-4.76 7.94-6 4.23-2.24 4.51-2.25 106.75-2.75l.27-9.25c.23-7.63.75-10.21 2.95-14.75 1.47-3.02 4.38-7.47 6.48-9.88 2.09-2.41 6.5-5.86 9.8-7.66 3.3-1.8 8.25-4.03 11-4.95 2.75-.92 7.7-2.03 11-2.46 3.3-.44 8.02-.85 10.5-.92zm-22.9 17.94c-2.97 1.34-7.12 4.34-9.25 6.68-2.12 2.34-4.57 5.94-5.45 8-.88 2.06-1.59 6.23-1.58 9.25.01 3.02.55 7.52 1.19 10 .64 2.48 2.53 7.2 4.21 10.5 1.67 3.3 4.72 8.25 6.77 11s7.39 8.49 11.87 12.75c4.48 4.26 12.08 10.32 16.89 13.45 4.81 3.14 12.01 7.19 16 9 3.99 1.82 7.48 3.3 7.75 3.3.27 0 1.54-2.36 2.81-5.25s3.8-7.5 5.63-10.25 13.27-15.04 25.44-27.31l22.12-22.32c-6.2-5.46-11.6-9.45-16-12.4-4.4-2.94-11.82-7.13-16.5-9.32-4.68-2.18-11.43-4.93-15-6.11-3.57-1.17-9.65-2.81-13.5-3.64-3.85-.82-11.27-1.69-16.5-1.92-5.67-.25-11.92.1-15.5.87-3.3.71-8.43 2.39-11.4 3.72zM394.96 35.5l76.89 77c1.66-6.2 2.14-11.83 2.15-16.5.01-4.67-.68-11.2-1.53-14.5-.85-3.3-2.92-8.92-4.6-12.5-1.68-3.58-5.15-9.14-7.71-12.36-2.56-3.23-7.36-7.89-10.66-10.36-3.3-2.48-8.25-5.63-11-7.01-2.75-1.39-8.37-3.37-12.5-4.4-4.51-1.14-10.68-1.86-15.5-1.8-4.4.04-9.7.61-11.77 1.26l-3.77 1.17zM357.5 60.06c15.5 15.4 20.11 19.66 20.25 19.41.14-.26-1.05-3.06-2.64-6.22-1.59-3.16-4.97-8.56-7.5-12-2.54-3.44-4.76-6.25-4.94-6.25-.18 0-1.42 1.14-2.75 2.53l-2.42 2.53zM389.55 73c1.68 4.21 2.78 9.31 3.14 14.5l.54 8 10.27 10.45c11.45-.08 16.18.63 20 1.9 3.3 1.1 6.1 1.92 6.21 1.82.12-.09-9.45-9.84-21.27-21.67l-21.48-21.5M326.5 91.03l29.46 29.47c5.84-2.09 9.34-3.83 11.54-5.2l4-2.5c-25.57-25.43-33.24-32.81-33.54-32.8-.29 0-2.99 2.48-6 5.52l-5.46 5.51zm105.2 43.16 15.2 15.31 4.06-4c-5.01-6.1-8.48-9.88-10.96-12.33-2.48-2.45-6.52-5.83-9-7.52-2.48-1.68-6.75-3.89-9.5-4.91l-5-1.86m-50.57 11.62c3.92 3.88 5.18 4.78 5.32 4.5.14-.28 1.26-2.41 2.5-4.75s1.91-4.19 1.5-4.11c-.41.07-2.68 1.08-5.03 2.25l-4.29 2.11zm-56.75 8.77c.38 5.08 1.64 11.93 2.79 15.23 1.16 3.3 2.43 6.32 2.82 6.71.39.39 1.98-1.63 3.52-4.5 1.55-2.87 4.25-6.21 6-7.44 1.76-1.23 4.76-2.69 6.69-3.25 1.93-.56 5.07-1.02 7-1.01l3.5.01C331 134.6 330 134.06 325 133.53c-3.02-.32-7.98-1.23-11-2.03l-5.5-1.46m77.6 4.22c-1.32 2.33-2.97 5.81-3.67 7.74l-1.27 3.5 34.84 35 11.5-11.51-39-38.96m30.95 61.32c-4.51 4-11.55 8.97-16 11.29-4.37 2.27-10.54 4.86-13.7 5.75L384 210c2.5 6.59 5.4 13 8.05 18.5 2.66 5.5 7.72 13.82 11.26 18.5 3.53 4.68 9.07 10.69 12.31 13.36 3.23 2.68 8.58 6.22 11.88 7.88 3.51 1.77 8.28 3.23 11.5 3.54 3.32.32 7.46-.02 10.46-.87 3.22-.92 6.66-2.98 9.85-5.91 3.13-2.87 6.14-7.04 8.31-11.5 1.87-3.85 4.05-10.15 4.84-14 .79-3.85 1.74-10.37 2.1-14.5.39-4.32.16-11.52-.54-17-.67-5.22-2.06-13.1-3.08-17.5-1.03-4.4-3.01-11.04-4.4-14.75-1.4-3.71-4.11-9.9-6.04-13.75-1.93-3.85-3.62-7-3.76-7-.15 0-6.79 6.57-14.75 14.6-7.97 8.03-18.11 17.82-22.54 21.75zm-59.35-11.6c-1.05 2.06-2.96 4.69-4.25 5.84-1.29 1.15-4.15 3.13-6.35 4.4-3.71 2.14-3.85 2.39-2 3.35 1.1.56 5.15 1.85 9 2.85 3.85 1.01 8.01 1.82 9.25 1.82 1.81-.01 2.16-.45 1.78-2.26-.26-1.24-.94-4.95-1.51-8.25-.57-3.3-.92-8.98-.79-12.63.17-4.93-.14-6.89-1.25-7.65-1.24-.86-1.52-.22-1.73 3.88-.14 2.69-1.11 6.59-2.15 8.65zm-67.44 24.02c-7.98 14.15-14.32 25.84-14.08 25.98.23.14 11.11-6.12 24.17-13.91 13.06-7.8 24.51-14.66 25.43-15.25 1.46-.94.12-2.57-9.66-11.82l-11.35-10.73m72.1 10.26c.42 3.41.98 6.99 1.25 7.95.42 1.54 1 1.62 4.73.69 2.34-.58 4.58-1.37 4.99-1.75.41-.38-2.07-3.48-5.5-6.89l-6.24-6.21M66 265.15c-6.48 3.21-10.3 6-16.07 11.78-5.78 5.78-8.56 9.58-11.77 16.07-2.31 4.68-4.91 11.88-5.78 16-1.09 5.2-1.39 9.95-.97 15.5.33 4.4.88 9.13 1.21 10.5.56 2.29 3.89-.78 38.99-36 34.82-34.94 38.17-38.58 36.13-39.33-1.23-.45-6.29-1.01-11.24-1.24-5.72-.26-11.37.13-15.5 1.06-3.58.8-10.33 3.35-15 5.66zm126-4.52c-4.12.87-10.2 2.49-13.5 3.59-3.3 1.11-10.38 4.1-15.74 6.65l-9.74 4.63c30.68 31 41.41 42.7 43.63 46 2.23 3.3 5.22 8.7 6.65 12 1.44 3.3 3.08 7.91 3.66 10.25.91 3.73 1.31 4.18 3.29 3.66 1.24-.33 5.85-2.13 10.25-4.01s11.58-5.55 15.96-8.16c4.88-2.91 11.45-8.21 17.02-13.74 6.12-6.07 10.19-11.12 12.48-15.5 2.76-5.27 3.49-7.92 3.84-14 .35-6.09.05-8.35-1.63-12-1.14-2.48-4-6.32-6.37-8.55-2.36-2.23-6.78-5.25-9.8-6.72-3.03-1.47-8.2-3.4-11.5-4.29-3.83-1.03-11.25-1.74-20.5-1.94-7.97-.18-15.85-.13-17.5.11-1.65.24-6.37 1.15-10.5 2.02zm-63.78 35.1c-2.63 3.18-6.12 8.36-7.75 11.54-1.63 3.17-2.75 5.96-2.47 6.21.28.25 7.03-6.03 15-13.95 13.09-13 14.35-14.56 13-16.01-.82-.89-1.79-1.59-2.15-1.56-.36.02-2.94 1.83-5.75 4.02-2.8 2.19-7.25 6.58-9.88 9.75zM68 344.09c2.47-1.08 7.2-2.68 10.5-3.54 3.3-.86 8.03-1.55 10.5-1.54 4.11.01 4.96-.45 9.74-5.25l5.24-5.26c.06-11.48.88-16.43 2.31-20.75 1.23-3.71 2.22-6.75 2.21-6.75-.01 0-10.14 10.14-22.51 22.54-19.83 19.87-21.96 22.3-17.99 20.55zm59.5-.3 15.61 7.71 35.39-35.47c-8.53-8.57-11.23-11.05-11.51-11.04-.28 0-9.28 8.74-20 19.4l-19.49 19.4zm53.25 10.22c.69-.01 4.43-.57 8.31-1.26 6.82-1.21 7.04-1.34 6.42-3.75-.35-1.37-.79-3.74-.98-5.25-.19-1.51-.73-2.75-1.2-2.75s-3.77 2.93-7.33 6.51c-3.56 3.58-5.91 6.5-5.22 6.5zM58 365.92l-4.5 3.93 4.52 4.65c15.86-15.89 20.25-20.49 19.97-20.47-.27.02-3.86 1.82-7.99 4-4.12 2.18-9.52 5.73-12 7.89zm69.18-3.14 1.32 3.27 5-4.93c-6.3-3.19-8.54-4.12-9.05-4.12-.5 0-.39.56.25 1.25s1.76 2.72 2.48 4.53zM77.5 394 89 405.5c22.48-22.48 29.01-29.56 29-30.25 0-.69-1.09-3.61-2.42-6.5-1.33-2.89-3.06-5.79-3.84-6.46-1.18-.99-4.32 1.69-17.84 15.25L77.5 394zm97.5-27.09c-4.99.04-8.17.55-9.5 1.54-1.87 1.39-1.69 1.49 2.75 1.52 2.61.02 6.66.91 9 2 2.34 1.08 5.2 2.99 6.36 4.25 1.15 1.25 3.24 4.3 4.64 6.78l2.54 4.5c2.42-6.98 3.6-10.8 4.16-13 .57-2.2 1.04-5.24 1.04-6.75.01-2.22-.42-2.73-2.24-2.62-1.24.06-4.28.48-6.75.92-2.47.44-7.87.83-12 .86zM42.12 381.69c-2.36 2.65-6.21 7.74-8.56 11.31-2.35 3.57-5.75 9.43-7.54 13-1.8 3.57-4.17 8.75-5.27 11.5-1.1 2.75-3.07 8.82-4.39 13.5-1.31 4.68-2.83 12.55-3.39 17.5-.69 6.16-.68 11.52.04 17 .58 4.4 2.05 10.49 3.27 13.54 1.22 3.04 3.57 7.16 5.22 9.15 1.65 1.98 5.25 4.88 8 6.42 4.24 2.39 6.14 2.82 12.5 2.83 5.94.01 8.85-.56 14-2.72 3.58-1.5 8.95-4.19 11.95-5.98 2.99-1.78 9.54-7.29 14.53-12.24 5-4.95 11.32-12.15 14.04-16 2.72-3.85 7.3-11.73 10.19-17.5l5.24-10.5c-10.42-4.73-15.7-7.61-18.45-9.44-2.75-1.83-14.47-12.97-26.05-24.76L46.4 376.88m85.63 29.62c-.54 3.3-1.49 8.25-2.11 11-.91 4.05-.87 5.13.23 5.71.74.39 4.05.46 7.35.15 3.3-.32 8.7-1.24 12-2.06 3.3-.82 7.13-2.07 8.5-2.77l2.5-1.28c-8.03-4.46-11.52-7.32-12.94-9.25-1.41-1.93-3.02-5.75-3.56-8.5s-1.13-5.82-1.31-6.81c-.26-1.45-1.25-.86-5 3-4.04 4.15-4.82 5.63-5.66 10.81zm41.96 20c39.92 22.62 51.62 29.03 51.76 28.84.14-.19-6.4-11.59-14.52-25.34-8.13-13.75-15-25-15.27-25-.27 0-5.33 4.84-11.23 10.75l-10.74 10.75z" style="fill:#fff"/></svg>