<svg xmlns="http://www.w3.org/2000/svg" viewBox="0 0 278 208" width="278" height="208"><style></style><path id="Path 0" d="M146.5.99c-2.2.43-5.8 1.66-8 2.75s-5.16 2.6-6.59 3.37c-1.42.76-5.82 4.09-9.78 7.39-3.96 3.3-10.52 9.82-14.56 14.5-4.05 4.67-9.14 10.75-11.3 13.5-2.17 2.75-6.35 8.6-9.29 13-2.94 4.4-5.62 8.22-5.96 8.5-.34.28-1.83 2.64-3.32 5.25-1.48 2.61-2.81 4.75-2.95 4.75-.14 0-.27-8.66-.3-19.25-.05-15.45-.4-20.34-1.81-24.75-.96-3.02-2.51-6.84-3.44-8.49-.94-1.64-3.28-4.45-5.2-6.24-1.92-1.78-5.86-4.15-8.75-5.26C51.67 8.64 47.61 8 42.5 8c-4.74 0-9.25.65-12.25 1.78-2.61.97-6.77 3.41-9.25 5.42-2.48 2-6.07 6.27-8 9.47-1.92 3.21-4.54 8.98-5.82 12.83-1.29 3.85-2.75 9.02-3.26 11.5-.51 2.48-1.6 10.35-2.41 17.5S.03 87.15.02 96.5c-.01 9.35.64 23.08 1.45 30.5.81 7.43 1.93 16.2 2.49 19.5.57 3.3 2.2 10.05 3.63 15 1.43 4.95 4.1 12.15 5.92 16 1.82 3.85 5.29 9.7 7.7 13 2.42 3.3 6.62 7.63 9.34 9.62 2.72 2 7.65 4.62 10.95 5.83 4.96 1.82 7.65 2.15 15.5 1.88 8.55-.3 10.18-.68 16.34-3.83 3.76-1.93 8.26-4.85 10-6.5 1.74-1.65 4.51-4.8 6.16-7 1.65-2.2 3.56-4.56 4.25-5.25.69-.69 1.25-1.7 1.25-2.25s.58-1.56 1.29-2.25c.71-.69 3.59-5.97 6.4-11.75 2.82-5.78 7-14.55 9.29-19.5 2.3-4.95 6.96-14.51 10.35-21.25L128.5 116c1.13 24.12 1.94 30.35 3.29 34.5 1.07 3.3 3.02 8.23 4.33 10.95 1.31 2.73 4.85 7.46 7.88 10.52 3.03 3.06 7.75 6.65 10.5 7.98 4.25 2.06 6.49 2.43 15 2.45 8.75.02 10.69-.3 15.5-2.6 3.03-1.44 7.71-4.57 10.4-6.96 2.7-2.39 6.58-6.81 8.62-9.84 2.05-3.03 9.69-17.43 16.98-32 7.3-14.58 13.77-27.51 14.38-28.74.62-1.24 1.46-2.25 1.87-2.25.41-.01.75-.46.75-1.01s1.87-4.26 4.16-8.25 8.58-14 13.97-22.25c5.4-8.25 11.41-17.25 13.35-20 1.94-2.75 4.66-7.25 6.04-10 2.08-4.12 2.51-6.4 2.48-13-.03-6.62-.42-8.56-2.27-11.21-1.23-1.77-4.02-4.02-6.21-5-2.8-1.26-6.37-1.77-12-1.74-6.91.05-8.92.49-14.52 3.23-3.57 1.74-9.65 5.51-13.5 8.37-3.85 2.87-12.42 10.64-19.03 17.28-6.62 6.64-13.59 14.09-15.49 16.57-1.9 2.48-4.36 5.5-5.47 6.72l-2.01 2.23c.53-19.19.16-27.03-.52-30.45-.66-3.3-1.71-7.57-2.34-9.5-.62-1.93-1.36-3.73-1.64-4-.28-.27-1.09-1.62-1.81-3-.72-1.37-2.07-3.41-3-4.53-.93-1.11-3.49-3.35-5.69-4.97-2.37-1.76-6.44-3.46-10-4.19-3.3-.68-7.35-1.21-9-1.17-1.65.05-4.8.43-7 .85z" style="fill:#fff"/></svg>