<svg xmlns="http://www.w3.org/2000/svg" viewBox="0 0 127 120" width="127" height="120"><style></style><path id="Path 0" fill-rule="evenodd" d="M103.25.54c3.16.25 7.44 1.35 9.5 2.44 2.06 1.09 4.44 2.55 5.29 3.25.84.7 2.63 2.84 3.96 4.77 1.33 1.93 3 5.98 3.7 9 .7 3.02 1.28 7.19 1.3 13H90l1.07 2.75c.58 1.51 2.05 3.75 3.25 4.98 1.2 1.23 3.64 2.47 5.43 2.75 1.83.29 4.78-.14 6.75-.98 1.92-.83 4.06-2.4 4.75-3.5 1.05-1.69 2.33-2.01 8-2 5.75 0 6.75.26 6.78 1.75.01.96-1.25 3.55-2.81 5.75s-4.16 5.04-5.78 6.31c-1.62 1.27-5.19 2.96-7.94 3.76-2.75.8-6.69 1.45-8.75 1.44-2.06-.01-6.34-.9-9.5-1.99-4.11-1.41-6.84-3.19-9.57-6.25-2.4-2.68-4.4-6.31-5.38-9.77-1.06-3.73-1.4-7.91-.6-20.5l-2.28 7c-1.26 3.85-4 12.3-9.92 30.55L48 55l-.82-3.25c-.45-1.79-2.34-8.87-7.55-28.25l-3.83 15c-2.11 8.25-4.16 15.34-4.57 15.77-.4.42-4.04.64-15.46.23L14.03 49c-.96-3.02-4.5-14.39-7.88-25.25S0 3.55 0 3c0-.58 3.33-1 16-1l1.46 5.25c.8 2.89 2.71 10.09 7.04 26.75l8-32.04 15 .02 2.78 11.26c1.54 6.19 3.37 13.28 5.36 20.26L58.91 21C60.72 14.13 62.6 7.04 64 2h7.5c4.13 0 7.72.45 8 1 .28.55-.11 2.69-.85 4.75s-1.64 5.1-2.66 9.75l1.62-3c.89-1.65 3.03-4.5 4.76-6.34 1.72-1.83 4.48-4.04 6.13-4.91 1.65-.87 4.35-1.94 6-2.37 1.65-.44 5.59-.59 8.75-.34zm-12.5 19.3C90.01 21.97 90.16 22 101 22h11c-2.33-4.65-4.01-6.68-5.25-7.51-1.24-.83-3.9-1.5-5.92-1.5-2.36.01-4.67.84-6.5 2.35-1.55 1.29-3.17 3.31-3.58 4.5zM21.75 62c2.97 0 7.09.82 9.5 1.89 2.34 1.04 4.81 2.61 5.5 3.5 1.12 1.45 1.77 1.28 6.42-1.64 4.05-2.55 6.48-3.32 11.25-3.59 5.4-.3 6.53-.02 10.08 2.55 2.2 1.59 4.79 4.56 5.75 6.59C71.36 73.64 72 77.39 72 81.5c0 5.03-.62 7.79-2.75 12.23-1.6 3.33-5.37 8.37-9 12-3.44 3.45-9.29 8.11-13 10.35-4.8 2.9-7.47 3.93-9.25 3.56-1.37-.29-5.87-2.72-10-5.42-4.12-2.69-9.65-7.1-12.28-9.81-2.63-2.7-6-7.38-7.5-10.41-2.24-4.53-2.72-6.83-2.7-13 .01-5.16.56-8.51 1.75-10.75.95-1.79 3.42-4.38 5.48-5.75 2.82-1.89 5.06-2.51 9-2.5zM79 62h14v11H79v-5.5m22.09-5.5h13.16l.25 12.5 8.5.5v9l-8.5.5-.24 11c-.17 7.69.13 11.39 1 12.29.68.72 2.7 1.28 7.74 1.21v11h-6.5c-3.58 0-7.74-.49-9.25-1.09-1.51-.6-3.42-2.06-4.25-3.25-1.1-1.58-1.63-6.05-2.5-31.16l-3.25-.25C94.1 84.01 94 83.86 94 79.5s.1-4.51 6.5-5l.3-6.25M79 75h14v44H79V97" style="fill:#fff"/></svg>