<svg xmlns="http://www.w3.org/2000/svg" viewBox="0 0 149 68" width="149" height="68"><style></style><path id="Path 0" d="M75.52.64c-.47.38-.79 2.53-.71 4.78.15 3.94.29 4.11 4.17 4.83L83 11v46l-8 1 .5 9.5h33l.5-9.5-8-1V38h23l-.5 18.43C116.02 58 116 58.03 116 63v5h33c0-9.97-.02-10-3.75-10.79l-3.75-.79V11.5c7.46-1.98 7.53-2.1 7.52-6.75L149 0h-33c.16 9.52.26 9.67 3.83 10.57l3.67.93.5 15.5h-23V11l8.12-1.5-.62-9C83.61.08 75.99.26 75.52.64zM0 24c0 3.36.41 4.99 1.25 4.96.69-.03 1.92.7 2.75 1.61.83.91 4.46 9.6 8.08 19.3l6.59 17.63L32 68c4.65-12.4 5.99-16.56 5.97-17.25-.01-.69.32-.87.75-.41.43.47 2.14 4.52 3.8 9l3.03 8.16 12.95.64C69.35 39.81 73.09 31 73.82 30.29c.73-.71 1.97-1.29 2.75-1.29 1.07 0 1.37-1.18 1.18-4.75l-.25-4.75L55 19c0 9.33.27 10 2 10 1.1 0 2.23.45 2.5 1s-.74 4.6-2.25 9-2.98 8-3.25 8.01c-.27 0-1.72-3.71-3.2-8.25-1.49-4.54-2.5-8.6-2.25-9.01.25-.41 1.35-.75 2.45-.75 1.73 0 2-.67 2-5v-5H28c0 7.96.52 9.43 2.25 10.84 1.24 1.01 2.61 3.15 3.04 4.75.57 2.1.16 4.65-1.5 9.16-1.26 3.44-2.52 6.26-2.79 6.26-.27.01-1.8-3.93-3.39-8.75-1.58-4.82-3.16-9.35-3.5-10.08-.39-.84.21-1.48 1.64-1.75C25.73 29.05 26 28.39 26 24v-5H0" style="fill:#fff"/></svg>