<svg xmlns="http://www.w3.org/2000/svg" viewBox="0 0 535 562" width="535" height="562"><style>.shp0{fill:#fefefe}.shp1{fill:#fffefe}</style><g id="Background"><path id="Path 0" class="shp0" d="M202 1.5c0 .27-4.74 20.41-10.54 44.75-5.8 24.34-14.35 60.22-19.01 79.75-4.65 19.53-8.45 36.29-8.45 37.25 0 1.54 1.12 1.75 9.5 1.75h9.5c1.44-5.81 4.4-18.53 7.52-32 3.11-13.47 6.3-26.75 7.09-29.5s1.42-6.69 1.41-8.75c-.01-2.06.35-3.86.81-4 .46-.14 1.81-4.19 3-9 1.26-5.06 2.17-11.91 2.17-16.25 0-6.83.18-7.5 2-7.5 1.87 0 2-.67 2-10.5V37c3.88 0 5 .45 5 1s1.57 1 3.5 1c3.22 0 3.5.24 3.5 3 0 2.67.33 3 3 3 2.53 0 3 .39 3 2.5 0 2.19.43 2.5 3.5 2.5 3.22 0 3.5.24 3.5 3 0 2 .5 3 1.5 3 .82 0 1.5.45 1.5 1s.9 1 2 1c1.33 0 2 .67 2 2 0 1.56.67 2 3 2 2.53 0 3 .39 3 2.5s.47 2.5 3 2.5c2.53 0 3 .39 3 2.5 0 1.67.67 2.67 2 3 1.1.28 2 .95 2 1.5s.68 1 1.5 1 1.73.9 2 2c.36 1.44 1.33 2 3.5 2 2.53 0 3 .39 3 2.5 0 1.82.8 2.84 2.96 3.75 1.63.69 3.21 2.04 3.5 3 .38 1.23 1.58 1.75 4.04 1.75 3.22 0 3.5.24 3.5 3 0 2.67.33 3 3 3 2.53 0 3 .39 3 2.5s.47 2.5 3 2.5c2.53 0 3 .39 3 2.5 0 2.19.43 2.5 3.5 2.5 3.22 0 3.5.24 3.5 3s.28 3 3.5 3c3.22 0 3.5.24 3.5 3 0 2.67.33 3 3 3 2.53 0 3 .39 3 2.5s.47 2.5 3 2.5c2.55 0 3.04.42 3.25 2.75.21 2.32.75 2.79 3.5 3 2.73.21 3.25.65 3.25 2.75 0 2 .5 2.5 2.5 2.5 1.83 0 2.5.53 2.5 2 0 1.9.67 2 13.25 2 7.29-.01 18.2-.44 24.25-.98 6.05-.53 25.18-2.09 42.5-3.46s43.2-3.41 57.5-4.52c14.3-1.11 28.36-2.25 31.25-2.53L505 126c0 7.6-.25 8-2.5 8-1.78 0-2.64.65-2.99 2.25-.26 1.24-.49 3.49-.5 5-.01 1.77-.54 2.75-1.51 2.75-1.15 0-1.5 1.28-1.5 5.5 0 4.96-.22 5.52-2.25 5.75-1.87.21-2.42 1.15-3.25 5.51-.57 3.02-1.53 5.26-2.25 5.25-.76-.01-1.25 1.35-1.25 3.49 0 2.44-.45 3.5-1.5 3.5-1.25 0-1.5-2-1.5-12v-12h-31l.5 15.5 14.5.5.5 14.5c11.97.44 13.5.84 13.5 2 0 .82-.45 1.5-1 1.5s-1 1.13-1 2.5c0 1.38-.45 2.5-1 2.5s-1 1.57-1 3.5c0 2.44-.45 3.5-1.5 3.5-.93 0-1.5.94-1.5 2.5 0 1.38-.45 2.5-1 2.5s-1 1.57-1 3.5c0 2.44-.45 3.5-1.5 3.5-.82 0-1.78 1.01-2.13 2.25-.34 1.24-.79 13.61-1 27.5-.32 21.94-.17 25.25 1.13 25.25.82 0 1.79-.79 2.14-1.75.36-.96 3.48-8.72 6.95-17.25s10.2-24.95 14.95-36.5 11.04-26.85 13.97-34c2.93-7.15 7.64-18.62 10.46-25.5l10.06-24.5c2.71-6.6 4.94-12.79 4.95-13.75.01-1.25-.77-1.75-2.73-1.75-1.51-.01-25.48 1.8-53.25 4.02-27.77 2.21-64.23 5.13-81 6.49-16.77 1.35-34.77 2.73-40 3.05l-9.5.6c-53.52-45.46-85.36-72.5-105.28-89.41C221.3 14.84 204.32 1 203.5 1c-.82 0-1.5.23-1.5.5z"/><path id="Path 1" class="shp1" d="M209 47.5c0 9.83-.13 10.5-2 10.5-1.82 0-2 .67-2 7.5 0 4.34-.91 11.19-2.17 16.25-1.19 4.81-2.54 8.86-3 9-.46.14-.82 1.94-.81 4 .01 2.06-.63 6-1.42 8.75-.79 2.75-4.25 17.15-7.68 32-3.43 14.85-6.39 27.56-6.58 28.25-.26.96 3.6 1.25 16.91 1.25h17.25l-.5-16 31.5.5.5 134.5h-15v94c10.85 0 14.68.23 15.5.5.89.3 1.5-.11 1.5-1 0-1.15 1.28-1.5 5.5-1.5h5.5c0-7.75.45-10 1-10s1.23-1.12 1.5-2.5c.27-1.37.95-2.5 1.5-2.5s1-1.35 1-3v-3l16.99.5.51-190 57-.53L341 149h31v31l-16-.5V396h16.5l-.5-19c6.33 0 7-.38 7-2 0-1.7.67-2 4.5-2h4.5c0-8.52.45-11 1-11s1.23-2.25 1.5-5l.5-5 17 .5V165h45.5l-.5-16h31c0 22 .25 24 1.5 24 1.05 0 1.5-1.06 1.5-3.5 0-2.14.49-3.5 1.25-3.49.72.01 1.68-2.23 2.25-5.25.83-4.36 1.38-5.3 3.25-5.51 2.03-.23 2.25-.79 2.25-5.75 0-4.22.35-5.5 1.5-5.5.97 0 1.5-.98 1.51-2.75.01-1.51.24-3.76.5-5 .35-1.6 1.21-2.25 2.99-2.25 2.25 0 2.5-.4 2.5-4v-4c-8.14.79-22.2 1.93-36.5 3.04s-40.18 3.15-57.5 4.52c-17.32 1.37-36.45 2.93-42.5 3.46-6.05.54-16.96.97-24.25.98-12.58 0-13.25-.1-13.25-2 0-1.47-.67-2-2.5-2-2 0-2.5-.5-2.5-2.5 0-2.1-.52-2.54-3.25-2.75-2.75-.21-3.29-.68-3.5-3-.21-2.33-.7-2.75-3.25-2.75-2.53 0-3-.39-3-2.5s-.47-2.5-3-2.5c-2.67 0-3-.33-3-3 0-2.76-.28-3-3.5-3-3.22 0-3.5-.24-3.5-3s-.28-3-3.5-3c-3.07 0-3.5-.31-3.5-2.5 0-2.11-.47-2.5-3-2.5-2.53 0-3-.39-3-2.5s-.47-2.5-3-2.5c-2.67 0-3-.33-3-3 0-2.76-.28-3-3.5-3-2.46 0-3.66-.52-4.04-1.75-.29-.96-1.87-2.31-3.5-3-2.16-.91-2.96-1.93-2.96-3.75 0-2.11-.47-2.5-3-2.5-2.17 0-3.14-.56-3.5-2-.27-1.1-1.18-2-2-2-.82 0-1.5-.45-1.5-1s-.9-1.22-2-1.5c-1.33-.33-2-1.33-2-3 0-2.11-.47-2.5-3-2.5-2.53 0-3-.39-3-2.5s-.47-2.5-3-2.5c-2.33 0-3-.44-3-2 0-1.33-.67-2-2-2-1.1 0-2-.45-2-1s-.68-1-1.5-1c-1 0-1.5-1-1.5-3 0-2.76-.28-3-3.5-3-3.07 0-3.5-.31-3.5-2.5 0-2.11-.47-2.5-3-2.5-2.67 0-3-.33-3-3 0-2.76-.28-3-3.5-3-1.93 0-3.5-.45-3.5-1s-1.12-1-2.5-1H209"/><path id="Path 2" class="shp0" d="m217.23 156.72.27 7.78 15 1L233 396c25.79-.58 28.17-.92 32.9-3.06 2.96-1.34 7.13-4.35 9.25-6.69 2.12-2.34 4.84-6.16 6.05-8.5 1.78-3.43 2.21-5.99 2.25-13.25l.05-9-16.5-.5c0 4.65-.45 6-1 6s-1.23 1.13-1.5 2.5c-.27 1.38-.95 2.5-1.5 2.5s-1 2.25-1 5v5c-9.72 0-11 .35-11 1.5 0 .89-.61 1.3-1.5 1-.82-.27-4.65-.5-8.5-.5h-7v-94h15l-.5-134.5-31.53-.55m124.24 7.8.29 7.75 14.5.5.5 14.5 15.5.5v-31h-31.09"/><path id="Path 3" class="shp1" d="M468.11 198.5c.07 10.45.26 18.32.44 17.5.17-.82.57-3.19.88-5.25.37-2.41 1.1-3.75 2.07-3.75 1.05 0 1.5-1.06 1.5-3.5 0-1.93.45-3.5 1-3.5s1-1.12 1-2.5c0-1.56.57-2.5 1.5-2.5 1.05 0 1.5-1.06 1.5-3.5 0-1.93.45-3.5 1-3.5s1-1.12 1-2.5c0-1.37.45-2.5 1-2.5s1-.68 1-1.5c0-1.17-1.56-1.56-7-1.75l-7-.25"/><path id="Path 4" class="shp0" d="M139.5 194.42c-9.9 6.16-30.37 18.86-45.5 28.21-15.12 9.35-36.5 22.55-47.5 29.34-11 6.79-25.95 15.99-33.23 20.44-8.2 5.02-13.14 8.64-13 9.54.13.8 3.83 3.67 8.23 6.36 4.4 2.7 18.35 11.22 31 18.94A86203.1 86203.1 0 0 1 80 331.98c9.63 5.89 30.89 18.87 47.25 28.86 16.36 9.99 30.43 18.16 31.25 18.16 1.26 0 1.46-1.86 1.25-11.75l-.25-11.75c-5.98-.46-6.5-.9-6.5-3 0-2-.5-2.5-2.5-2.5-1.56 0-2.5-.57-2.5-1.5s-.94-1.5-2.5-1.5-2.5-.57-2.5-1.5-.94-1.5-2.5-1.5-2.5-.57-2.5-1.5c0-.82-.68-1.5-1.5-1.5s-1.5-.45-1.5-1-1.12-1-2.5-1c-1.56 0-2.5-.57-2.5-1.5s-.94-1.5-2.5-1.5-2.5-.57-2.5-1.5c0-1.08-1.11-1.5-4-1.5-3.6 0-4-.25-4-2.5 0-2.33-.33-2.5-5-2.5-4.89 0-5-.07-5-3 0-2.83-.22-3-4-3-3.6 0-4-.25-4-2.5 0-2-.5-2.5-2.5-2.5-1.56 0-2.5-.57-2.5-1.5s-.94-1.5-2.5-1.5-2.5-.57-2.5-1.5c0-.83-.89-1.5-2-1.5-1.1 0-2.22-.68-2.5-1.5-.28-.82-.95-1.5-1.5-1.5s-1.67-.68-2.5-1.5c-.83-.83-3.28-1.5-5.5-1.5-3.6 0-4-.25-4-2.5 0-2.33-.33-2.5-5-2.5-4.89 0-5-.07-5-3 0-2.83-.22-3-4-3-3.6 0-4-.25-4-2.5 0-2.49-.04-2.5-9.25-2.48l-9.25.03c1.18-5.08 1.52-7.11 1.51-7.8-.01-.76 1.35-1.25 3.49-1.25 1.92 0 4.17-.23 5-.5.83-.27 1.5-1.62 1.5-3 0-2.25.4-2.5 4-2.5 2.2 0 4-.45 4-1s.67-1 1.5-1 1.5-.68 1.5-1.5c0-.93.94-1.5 2.5-1.5s2.5-.57 2.5-1.5.94-1.5 2.5-1.5 2.5-.57 2.5-1.5c0-.83.89-1.5 2-1.5 1.1 0 2-.45 2-1s.9-1 2-1 2-.45 2-1 1.13-1.23 2.5-1.5c2.27-.45 2.5-.97 2.5-5.5v-5c14.44 0 16-.29 16-1.5 0-.93.94-1.5 2.5-1.5 2 0 2.5-.5 2.5-2.5 0-2.25.4-2.5 4-2.5 2.2 0 4-.45 4-1s.67-1 1.5-1 1.72-.68 2-1.5 1.4-1.5 2.5-1.5c1.11 0 2-.67 2-1.5 0-.93.94-1.5 2.5-1.5 2 0 2.5-.5 2.5-2.5 0-2.25.4-2.5 4-2.5 2.89 0 4-.42 4-1.5 0-.93.94-1.5 2.5-1.5 2.41 0 2.5-.23 2.5-6.5V211c16.83 0 21-.4 21-1 0-.55.9-1.22 2-1.5 1.88-.47 1.99-1.23 1.75-12.67-.15-7.08-.67-12.26-1.25-12.4-.55-.12-9.1 4.82-19 10.99z"/><path id="Path 5" class="shp1" d="M157.51 208.69c-1.1.25-1.88.87-1.75 1.38.14.53-4.31.93-10.26.93H135c0 12.77-.09 13-2.5 13-1.56 0-2.5.57-2.5 1.5 0 1.08-1.11 1.5-4 1.5-3.6 0-4 .25-4 2.5 0 2-.5 2.5-2.5 2.5-1.56 0-2.5.57-2.5 1.5 0 .83-.89 1.5-2 1.5-1.1 0-2.22.68-2.5 1.5-.28.82-1.17 1.5-2 1.5-.83 0-1.5.45-1.5 1s-1.8 1-4 1c-3.6 0-4 .25-4 2.5 0 2-.5 2.5-2.5 2.5-1.56 0-2.5.57-2.5 1.5 0 1.21-1.56 1.5-8 1.5h-8c0 9.53-.23 10.05-2.5 10.5-1.37.27-2.5.95-2.5 1.5s-.9 1-2 1-2 .45-2 1-.9 1-2 1c-1.11 0-2 .67-2 1.5 0 .93-.94 1.5-2.5 1.5s-2.5.57-2.5 1.5-.94 1.5-2.5 1.5-2.5.57-2.5 1.5c0 .82-.67 1.5-1.5 1.5s-1.5.45-1.5 1-1.8 1-4 1c-3.6 0-4 .25-4 2.5 0 1.38-.67 2.73-1.5 3s-3.08.5-5 .5c-2.14 0-3.5.49-3.49 1.25.01.69-.33 2.72-.75 4.52l-.76 3.28c18.46-.05 18.5-.04 18.5 2.45 0 2.25.4 2.5 4 2.5 3.78 0 4 .17 4 3 0 2.93.11 3 5 3 4.67 0 5 .17 5 2.5 0 2.25.4 2.5 4 2.5 2.22 0 4.67.67 5.5 1.5.83.82 1.95 1.5 2.5 1.5s1.22.68 1.5 1.5 1.4 1.5 2.5 1.5c1.11 0 2 .67 2 1.5 0 .93.94 1.5 2.5 1.5s2.5.57 2.5 1.5.94 1.5 2.5 1.5c2 0 2.5.5 2.5 2.5 0 2.25.4 2.5 4 2.5 3.78 0 4 .17 4 3 0 2.93.11 3 5 3 4.67 0 5 .17 5 2.5 0 2.25.4 2.5 4 2.5 2.89 0 4 .42 4 1.5 0 .93.94 1.5 2.5 1.5s2.5.57 2.5 1.5.94 1.5 2.5 1.5c1.38 0 2.5.45 2.5 1s.68 1 1.5 1 1.5.68 1.5 1.5c0 .93.94 1.5 2.5 1.5s2.5.57 2.5 1.5.94 1.5 2.5 1.5 2.5.57 2.5 1.5.94 1.5 2.5 1.5c2 0 2.5.5 2.5 2.5 0 2.14.5 2.54 3.49 2.75l3.5.25c.01-114.31-.1-147.45-.24-147.38-.14.06-1.15.32-2.24.57z"/><path id="Path 6" class="shp0" d="M468.69 300.14c-.34.75-.77 13.51-.98 28.36-.32 23.74-.62 27.91-2.48 34.5-1.17 4.13-3.54 10.88-5.28 15-1.74 4.13-5.7 11.32-8.81 15.99-3.1 4.68-9.46 12.34-14.14 17.03-4.68 4.69-12.55 11.21-17.5 14.48-4.95 3.28-13.27 7.63-18.5 9.67s-11.42 4.08-13.77 4.52c-2.78.53-4.26 1.33-4.25 2.31.01 1.23 3.29 1.73 18.27 2.77 10.04.71 26.8 1.94 37.25 2.75s34.3 2.6 53 3.98c18.7 1.39 35.91 2.74 38.25 3.01 3.56.41 4.25.21 4.27-1.26 0-.96-13.65-34.6-30.35-74.75-16.71-40.15-30.64-73.9-30.96-75-.33-1.1-1.23-2.61-2.01-3.36-1.19-1.15-1.5-1.15-2.01 0zm-78.07 56.82c-.34 2.77-1.07 5.04-1.62 5.04s-1 2.48-1 5.5v5.5c-8.33 0-9 .3-9 2 0 1.62-.67 2-3.5 2H372l.5 18.5c8.52-.11 13.02-.94 15.5-1.91 2.48-.97 6.41-3.3 8.75-5.18 2.84-2.28 5.32-5.64 7.47-10.16 2.92-6.12 3.23-7.64 3.25-16.25l.03-9.5-16.25-.58"/><path id="Path 7" class="shp1" d="M480.08 381.25c-.07 3.48-.29 3.75-3.08 3.75h-3c0 10.85-.23 14.68-.5 15.5-.27.82-1.18 1.5-2 1.5-.93 0-1.5.94-1.5 2.5 0 1.38-.45 2.5-1 2.5s-1.23.9-1.5 2c-.29 1.17-1.33 2-2.5 2-1.56 0-2 .67-2 3 0 2.53-.39 3-2.5 3s-2.5.47-2.5 3c0 2.89-.17 3-4.5 3H449c0 7.96.04 8 4.25 8.5 2.34.27 11.23.95 19.75 1.5s19.44 1.33 24.26 1.75c6.74.58 8.75.46 8.75-.5-.01-.69-.69-1.25-1.51-1.25-.93 0-1.5-.94-1.5-2.5 0-1.37-.45-2.5-1-2.5s-1-1.12-1-2.5c0-1.37-.45-2.5-1-2.5s-1-1.57-1-3.5c0-2.44-.45-3.5-1.5-3.5s-1.5-1.06-1.5-3.5-.45-3.5-1.5-3.5c-.93 0-1.5-.94-1.5-2.5 0-1.37-.45-2.5-1-2.5s-1-1.12-1-2.5c0-1.37-.45-2.5-1-2.5s-1-1.57-1-3.5c0-2.44-.45-3.5-1.5-3.5-.93 0-1.5-.94-1.5-2.5 0-1.37-.45-2.5-1-2.5s-1-1.57-1-3.5c0-2.44-.45-3.5-1.5-3.5-.82 0-1.69-.56-1.92-1.25-.23-.69-.46.44-.5 2.5z"/><path id="Path 8" class="shp0" d="M208.25 442.72c-18.29.15-33.25.62-33.26 1.03-.01.41 6.41 27.02 14.25 59.13 8.59 35.17 14.76 58.53 15.51 58.75.69.2 17.96-13.92 38.38-31.38 20.43-17.46 50.69-43.34 67.25-57.51 16.57-14.16 30.8-26.67 31.62-27.79l1.5-2.04c-46.11-.32-62.99-.41-67.25-.41h-7.75L268 459c24.33 0 25 .11 25 2 0 1.62-.67 2-3.5 2-3.22 0-3.5.24-3.5 3s-.28 3-3.5 3c-3.22 0-3.5.24-3.5 3s-.28 3-3.5 3c-3.33 0-3.5.17-3.5 3.5 0 3.42-.1 3.5-4 3.5-3.33 0-4 .33-4 2 0 1.45-.75 2.07-2.75 2.25-2.32.21-2.79.75-3 3.5-.23 2.99-.55 3.27-4 3.5-3.29.22-3.78.59-4 3-.21 2.33-.7 2.75-3.25 2.75-2.67 0-3 .33-3 3 0 2.76-.28 3-3.5 3-3.22 0-3.5.24-3.5 3s-.28 3-3.5 3c-3.22 0-3.5.24-3.5 3s-.28 3-3.5 3c-3.22 0-3.5.24-3.5 3s-.28 3-3.5 3c-2.94 0-3.51.36-3.58 2.25-.04 1.24-.27 1.69-.5 1-.23-.69-1.54-1.25-2.92-1.25-2.49 0-2.5-.05-2.48-9.25.01-6.27-.72-12.24-2.25-18.51-1.79-7.3-2.64-9.26-4.02-9.25-1.51.01-1.75-1.01-1.75-7.49 0-4.12-.38-7.61-.85-7.75-.46-.14-1.14-3.29-1.5-7L199 459h58l-.5-16.5c-11.62-.05-29.96.06-48.25.22z"/><path id="Path 9" class="shp1" d="m256.75 450.5.25 8.5h-58c1.01 10.46 1.69 13.61 2.15 13.75.47.14.85 3.63.85 7.75 0 6.48.24 7.5 1.75 7.49 1.38-.01 2.23 1.95 4.02 9.25 1.53 6.27 2.26 12.24 2.25 18.51-.02 9.2-.01 9.25 2.48 9.25 1.38 0 2.69.56 2.92 1.25.23.69.46.24.5-1 .07-1.89.64-2.25 3.58-2.25 3.22 0 3.5-.24 3.5-3s.28-3 3.5-3c3.22 0 3.5-.24 3.5-3s.28-3 3.5-3c3.22 0 3.5-.24 3.5-3s.28-3 3.5-3c3.22 0 3.5-.24 3.5-3 0-2.67.33-3 3-3 2.55 0 3.04-.42 3.25-2.75.22-2.41.71-2.78 4-3 3.45-.23 3.77-.51 4-3.5.21-2.75.68-3.29 3-3.5 2-.18 2.75-.8 2.75-2.25 0-1.67.67-2 4-2 3.9 0 4-.08 4-3.5 0-3.33.17-3.5 3.5-3.5 3.22 0 3.5-.24 3.5-3s.28-3 3.5-3c3.22 0 3.5-.24 3.5-3s.28-3 3.5-3c2.83 0 3.5-.38 3.5-2 0-1.89-.67-2-12.5-2H268l.5-17h-12"/></g></svg>