<svg xmlns="http://www.w3.org/2000/svg" viewBox="0 0 400 400" width="400" height="400"><style></style><path id="Path 0" d="M287.86 5.75c-1.8 3.16-3.78 6.65-4.39 7.75-.61 1.1-2.5 4.48-4.19 7.5-1.7 3.02-4.76 8.42-6.8 12-2.05 3.58-4.5 7.85-5.44 9.5-.94 1.65-3.21 5.7-5.04 9s-4.2 7.58-5.28 9.5c-1.07 1.92-3.64 6.42-5.72 10-2.08 3.58-4.65 8.08-5.72 10-1.08 1.92-3.45 6.2-5.28 9.5s-4.1 7.35-5.04 9c-.94 1.65-3.51 6.15-5.71 10-2.2 3.85-4.88 8.58-5.96 10.5s-3.46 6.2-5.29 9.5-4.1 7.35-5.04 9a17392.79 17392.79 0 0 1-12 21c-1.27 2.2-3.29 5.8-4.51 8-1.22 2.2-6.02 10.75-10.67 19-4.64 8.25-9.48 16.8-10.74 19-1.27 2.2-5.22 9.18-8.79 15.5-3.57 6.32-7.61 13.53-8.99 16-1.38 2.47-2.91 4.95-3.4 5.5-.49.55-.87 1.9-.84 3 .02 1.1 1.66 4.93 3.63 8.5 1.97 3.57 5.17 9.43 7.1 13 1.93 3.57 4.66 8.52 6.05 11 1.39 2.48 3.86 6.98 5.48 10 1.62 3.02 4.42 8.2 6.21 11.5 1.8 3.3 4.38 8.02 5.74 10.5 1.36 2.48 4.06 7.43 6 11 1.94 3.57 4.76 8.75 6.27 11.5 1.51 2.75 3.98 7.25 5.5 10s3.99 7.25 5.5 10c1.51 2.75 4.33 7.93 6.27 11.5 1.94 3.57 4.89 8.98 6.56 12 1.67 3.02 4.77 8.65 6.89 12.5 2.13 3.85 4.41 8.03 5.07 9.28l1.21 2.28c86.19-.05 96.49-.33 96.47-1.31-.02-.69-1.66-4.18-3.65-7.75-1.99-3.57-4.95-8.98-6.57-12-1.63-3.02-4.21-7.75-5.74-10.5-1.52-2.75-4.02-7.25-5.55-10-1.54-2.75-4.11-7.48-5.72-10.5-1.62-3.02-3.97-7.3-5.22-9.5-1.26-2.2-3.63-6.48-5.26-9.5-1.64-3.02-4.91-9.1-7.27-13.5-2.36-4.4-4.61-8.45-5-9-.39-.55-3.08-5.5-5.99-11s-5.63-10.45-6.05-11c-.41-.55-2.54-4.37-4.71-8.5-2.18-4.12-4.99-9.3-6.24-11.5-1.25-2.2-4.07-7.37-6.25-11.5-3.24-6.12-3.77-7.87-2.9-9.5.6-1.1 2.39-4.25 4-7 1.6-2.75 5.72-9.95 9.15-16 3.43-6.05 7.24-12.8 8.47-15 1.24-2.2 5.06-8.95 8.5-15 3.44-6.05 7.41-13.03 8.81-15.5 1.4-2.47 3.43-6.07 4.52-8 1.08-1.93 4.76-8.45 8.17-14.5 3.41-6.05 7.23-12.8 8.49-15a17392.79 17392.79 0 0 0 12-21c.94-1.65 2.84-5.03 4.21-7.5 1.38-2.47 3.98-7.2 5.8-10.5 1.81-3.3 3.64-6.45 4.06-7 .42-.55 2.01-3.25 3.53-6s3.65-6.58 4.72-8.5c1.08-1.92 4.9-8.67 8.49-15s7.29-12.85 8.22-14.5c.93-1.65 3.17-5.7 4.98-9 1.81-3.3 3.64-6.45 4.06-7 .42-.55 2.01-3.25 3.53-6s3.52-6.35 4.45-8c.92-1.65 3.32-6.04 5.33-9.75C386.35 4.04 388 .77 388 .5c0-.27-21.79-.5-48.42-.5h-48.42M28.98 61.31c-1.83 1.79-2.32 3.27-2.17 6.5.1 2.31 1.27 6.1 2.59 8.44 1.31 2.34 5.14 8.86 8.5 14.5 3.35 5.64 6.1 10.47 6.1 10.75 0 .28 1.58 2.97 3.5 6s3.5 5.72 3.5 6c0 .28 1.58 2.97 3.5 6s3.49 5.61 3.47 5.75c-.02.14 3.36 6.1 7.51 13.25 4.14 7.15 7.53 13.56 7.53 14.25-.01.69-2.88 6.31-6.39 12.5s-7.26 12.82-8.34 14.75c-1.07 1.93-3.2 5.75-4.72 8.5-1.52 2.75-3.11 5.45-3.53 6-.42.55-2.25 3.7-4.06 7-1.81 3.3-4.2 7.57-5.3 9.5-1.1 1.93-4.79 8.45-8.2 14.5-3.41 6.05-7.11 12.57-8.21 14.5-1.11 1.93-3.81 6.65-6.01 10.5-2.2 3.85-5.03 8.8-6.29 11-1.27 2.2-3.39 6.02-4.72 8.5-1.34 2.48-2.8 4.95-3.25 5.5-.45.55-1.57 3.02-2.51 5.5-1.52 4.05-1.54 4.8-.19 7.5.82 1.65 2.67 3.79 4.1 4.75 2.37 1.59 6.07 1.75 39.86 1.77 32.35.03 37.78-.19 41.25-1.62 2.2-.91 5.04-2.83 6.31-4.27 1.26-1.45 4.03-5.56 6.13-9.13 2.11-3.57 4.71-8.07 5.78-10a4737.97 4737.97 0 0 0 11.08-20c1.36-2.47 2.81-4.95 3.23-5.5.42-.55 1.63-2.57 2.7-4.5 1.07-1.93 3.44-6.2 5.28-9.5 1.83-3.3 4.53-8.03 5.99-10.5 1.46-2.47 4.16-7.2 5.99-10.5 1.84-3.3 4.21-7.57 5.29-9.5 1.07-1.93 3.64-6.43 5.72-10 2.08-3.57 4.65-8.07 5.72-10 1.08-1.93 3.45-6.2 5.28-9.5s4.22-7.57 5.32-9.5c1.1-1.93 2.58-4.62 3.3-6 1.18-2.27.92-3.19-2.82-10-2.27-4.12-4.87-8.62-5.79-10-.91-1.37-3.15-5.2-4.99-8.5-1.83-3.3-4.46-8.03-5.84-10.5-1.38-2.47-3.26-5.85-4.18-7.5-.92-1.65-2.87-4.91-4.34-7.25-1.46-2.34-2.66-4.47-2.66-4.75 0-.28-1.57-2.97-3.5-6s-3.5-5.72-3.5-6c0-.28-2.34-4.44-5.2-9.25-2.86-4.81-5.9-9.49-6.75-10.39-.85-.89-3.13-2.58-5.05-3.74-3.41-2.06-4.57-2.11-43.58-2.12H31.34" style="fill:#fffefe"/></svg>