<svg xmlns="http://www.w3.org/2000/svg" viewBox="0 0 244 171" width="244" height="171"><style></style><path id="Path 0" fill-rule="evenodd" d="M118.75.17c29.84-.09 60.89.29 69 .86 8.11.57 18.13 1.5 22.25 2.08 4.13.57 9.75 2.05 12.5 3.28s6.69 3.89 8.75 5.92c2.06 2.03 4.61 5.38 5.65 7.44 1.05 2.06 2.6 7.13 3.46 11.25.85 4.13 2.02 12.45 2.6 18.5.57 6.05 1.04 22.25 1.04 36 .01 13.75-.48 29.95-1.08 36-.6 6.05-1.73 14.38-2.53 18.5-.79 4.13-2.44 9.47-3.66 11.89-1.23 2.41-4.29 6.23-6.81 8.5-2.53 2.26-6.8 4.9-9.5 5.87-2.71.96-11.45 2.42-19.42 3.23-11.14 1.13-29.55 1.47-79.5 1.48-50.48.01-68.13-.32-79-1.47-7.7-.82-16.45-2.27-19.45-3.24-3.24-1.05-7.3-3.42-10-5.85-2.74-2.47-5.63-6.44-7.27-10-1.66-3.6-3.34-10.01-4.31-16.41C.13 125.24-.06 116.48.3 81c.35-34.88.72-43.71 2.06-49.25.9-3.71 2.34-8.44 3.19-10.5.85-2.06 3.44-5.7 5.75-8.08s5.55-5.04 7.2-5.91c1.65-.86 5.25-2.17 8-2.9 2.75-.72 10.63-1.78 17.5-2.35C50.88 1.45 58.3.84 60.5.66c2.2-.18 28.41-.4 58.25-.49zM97.86 86.08 98 121c25.19-14.72 38.68-22.49 46.23-26.75 7.55-4.26 13.73-7.97 13.72-8.25 0-.28-3.7-2.59-8.22-5.14-4.53-2.56-18.08-10.28-30.12-17.17L97.72 51.17" style="fill:#fff"/></svg>