<svg xmlns="http://www.w3.org/2000/svg" viewBox="0 0 423 220" width="423" height="220"><style></style><path id="Path 0" fill-rule="evenodd" d="M81 .51c5.22.25 13.1 1.39 17.5 2.52 4.4 1.14 11.38 3.83 15.5 5.99 4.13 2.16 10.17 6.07 13.44 8.7 3.27 2.63 7.77 7.03 10 9.78a210.1 210.1 0 0 1 8.06 10.63l4-5.71c2.2-3.14 6.7-8.24 10-11.34 3.3-3.1 9.15-7.51 13-9.8 3.85-2.29 10.38-5.3 14.5-6.68 4.13-1.39 11.1-3.03 15.5-3.66 4.44-.64 11.33-.86 15.5-.5 4.13.35 10.43 1.34 14 2.19 3.57.85 10.55 3.5 15.5 5.9 4.95 2.39 11.61 6.51 14.8 9.16 3.19 2.64 8.06 7.51 10.82 10.81 2.75 3.3 6.96 10.05 9.34 15 2.39 4.95 5.03 12.15 5.89 16 .85 3.85 1.79 9.59 2.65 18.5l3.25-2.39c1.79-1.31 5.5-3.52 8.25-4.9 2.75-1.38 8.15-3.57 12-4.86 6.07-2.04 8.93-2.35 21.5-2.35 11.51 0 15.63.38 20 1.86 3.02 1.03 7.52 3.01 10 4.41 2.48 1.4 6.19 3.82 12 8.23V5h45v210l-42.5-.5.75-13-5.88 5.38c-3.23 2.96-8.12 6.5-10.87 7.87s-7.93 3.11-11.5 3.85c-3.57.75-11 1.37-16.5 1.37s-13.15-.66-17-1.47c-3.85-.8-11.05-3.45-16-5.88-5.99-2.95-11.34-6.58-16-10.85-3.85-3.53-8.85-9.31-11.12-12.84-2.27-3.54-5.3-9.24-6.75-12.68-1.45-3.44-3.31-9.4-4.13-13.25-.82-3.85-1.49-8.69-1.48-10.75.01-2.5-.32-3.42-.99-2.75-.55.55-9.28 15.4-37.78 65l-25.62.25c-23.85.23-25.63.13-25.6-1.5.02-.96 7-13.9 15.52-28.75s15.37-27.11 15.22-27.24c-.15-.13-4.32-1.1-9.27-2.15-4.95-1.06-11.7-3.14-15-4.63-3.3-1.49-8.7-4.54-12-6.79-3.3-2.25-8.28-6.36-11.06-9.14-2.78-2.78-6.61-7.41-11.94-15.55l-26.67 46.25c-14.67 25.44-26.93 47.04-27.25 48-.53 1.61-2.71 1.75-26.58 1.75-22.44 0-26-.21-26-1.5 0-.82 7.02-13.76 15.6-28.75 11.69-20.42 15.26-27.43 14.25-27.98-.74-.41-2.25-.74-3.35-.75-1.1-.01-4.7-.69-8-1.52-3.3-.83-10.27-3.61-15.5-6.17-8.14-3.99-10.87-6.03-19.06-14.24-8.13-8.17-10.25-11-14.22-19.09-2.56-5.22-5.37-12.2-6.23-15.5C1.62 96.2.66 89 .34 83.5c-.4-6.95-.09-12.74 1-19 .86-4.95 2.87-12.15 4.46-16 1.59-3.85 4.48-9.48 6.43-12.5 1.95-3.02 5.5-7.71 7.91-10.41 2.4-2.69 6.84-6.81 9.86-9.13 3.02-2.33 8.65-5.8 12.5-7.72 3.85-1.92 8.8-4.06 11-4.76 2.2-.7 7.15-1.87 11-2.61C68.72.57 75.27.23 81 .51zM59.5 49.97c-2.2 1.51-5.46 4.39-7.25 6.39S48.1 61.8 47 64c-1.1 2.2-2.38 6.59-2.85 9.75-.47 3.16-.52 7.78-.12 10.25.4 2.47 1.91 6.86 3.35 9.75 1.44 2.89 4.42 7.05 6.62 9.25s6.36 5.24 9.25 6.75c4.65 2.43 6.33 2.74 14.75 2.74 8.09 0 10.17-.35 14-2.38 2.47-1.31 5.85-3.52 7.5-4.9 1.65-1.39 4.26-4.14 5.8-6.12 1.54-1.97 3.72-6.06 4.85-9.09 1.23-3.33 2.04-7.87 2.02-11.5-.01-3.48-.86-8.31-2.03-11.5-1.17-3.2-4.03-7.74-6.83-10.85-2.98-3.32-7.09-6.48-10.81-8.31-4.18-2.06-7.97-3.09-12.5-3.39-4.3-.29-8.19.11-11.5 1.17-2.75.88-6.8 2.84-9 4.35zM196 48.74c-1.93 1.18-5.39 4.08-7.7 6.45-2.31 2.37-5.44 7.01-6.97 10.31-2.26 4.9-2.76 7.37-2.73 13.5.03 5.99.57 8.66 2.72 13.25 1.47 3.16 4.82 7.91 7.43 10.54 2.61 2.64 7 5.88 9.75 7.2 3.47 1.66 7.29 2.52 12.5 2.8 5.8.31 8.75-.05 13-1.62 3.41-1.25 7.72-4.05 11.34-7.35 3.6-3.28 6.86-7.43 8.5-10.82 2.24-4.63 2.66-6.84 2.66-14 0-7.02-.45-9.46-2.56-14-1.41-3.02-4.33-7.45-6.5-9.84-2.17-2.39-6.64-5.68-9.94-7.31-4.22-2.09-7.92-3.09-12.5-3.38-3.59-.23-8.51.16-11 .86-2.47.7-6.07 2.24-8 3.41zm131.11 61.01c-2.97 1.51-7.38 5-9.82 7.75-2.43 2.75-5.23 7.25-6.23 10s-2.12 7.25-2.48 10c-.36 2.75-.19 7.47.39 10.5.59 3.03 2.29 7.92 3.8 10.87 1.5 2.96 4.64 7.12 6.98 9.25 2.34 2.13 6.61 4.99 9.5 6.35 2.89 1.36 7.5 2.76 10.25 3.12 2.9.38 7.95.1 12-.67 4.77-.9 8.75-2.47 12.5-4.91 3.02-1.98 6.69-5.15 8.14-7.05 1.45-1.9 3.7-5.49 5-7.96 2.07-3.94 2.36-5.87 2.36-15.5 0-10.06-.23-11.45-2.75-16.25-1.51-2.89-4.66-7.14-7-9.45-2.34-2.31-6.95-5.44-10.25-6.95-3.49-1.6-8.51-2.95-12-3.24-3.3-.27-8.02-.07-10.5.45-2.48.51-6.93 2.17-9.89 3.69z" style="fill:#fff"/></svg>