<svg xmlns="http://www.w3.org/2000/svg" viewBox="0 0 337 488" width="337" height="488"><style></style><path id="Path 0" fill-rule="evenodd" d="M168.34.01c1.19.01 5.31 2.56 9.16 5.68 3.85 3.11 12.18 9.05 18.5 13.19 6.32 4.14 17.8 10.72 25.5 14.62 7.7 3.91 18.95 9.03 25 11.4 6.05 2.36 16.4 5.77 23 7.59 6.6 1.81 17.63 4.26 24.5 5.44 6.88 1.18 19.38 2.47 43.09 3.57l-.37 126c-.34 113.35-.54 126.85-2.06 134.5-.93 4.68-3.13 13.45-4.87 19.5-2.01 6.94-5.87 16.35-10.48 25.5-4.01 7.98-10.21 18.55-13.79 23.5-3.57 4.95-10 13.05-14.29 18-4.29 4.95-12.29 13.01-17.77 17.92-5.48 4.9-15.14 12.77-21.46 17.48-6.32 4.71-17.35 12.1-24.5 16.43-7.15 4.33-17.72 10.25-23.5 13.16-5.78 2.9-15.34 7.36-21.25 9.9-5.96 2.55-12.31 4.61-14.25 4.61-1.93 0-8.31-2.06-14.25-4.6-5.91-2.53-15.93-7.24-22.25-10.47-6.32-3.22-16.45-8.84-22.5-12.48-6.05-3.65-16.18-10.41-22.5-15.03-6.33-4.63-16.22-12.59-22-17.7-5.78-5.11-14.04-13.33-18.36-18.26-4.32-4.93-10.05-11.89-12.73-15.46-2.67-3.57-7.53-11-10.79-16.5-3.27-5.5-7.75-14.27-9.97-19.5-2.22-5.23-5.18-13.55-6.58-18.5-1.4-4.95-3.31-12.82-4.23-17.5C.82 314.36.61 300.82-.09 61.5l15.3-.71c8.41-.39 20.69-1.64 27.29-2.78 6.6-1.14 15.6-3 20-4.14 4.4-1.13 12.05-3.42 17-5.09 4.95-1.67 14.18-5.22 20.5-7.89 6.32-2.68 16.45-7.61 22.5-10.96 6.05-3.35 15.95-9.39 22-13.42 6.05-4.03 13.4-9.4 16.34-11.92 2.93-2.53 6.31-4.58 7.5-4.58zm-6.03 29.77c-3.19 2.43-9.75 6.85-14.56 9.82-4.81 2.97-14.49 8.28-21.5 11.81-7.01 3.52-17.36 8.25-23 10.5-5.64 2.25-15.54 5.69-22 7.64-6.46 1.95-17.15 4.65-23.75 5.98-6.6 1.34-17.76 3.01-24.79 3.7l-12.8 1.27c.69 229.53.72 231.12 2.85 240.5 1.18 5.23 3.56 13.55 5.29 18.5 1.73 4.95 5.8 14.18 9.04 20.5 3.25 6.32 9.62 16.45 14.15 22.5 4.53 6.05 12.97 15.74 18.75 21.52 5.78 5.79 14.79 13.85 20.01 17.91 5.22 4.05 14.22 10.5 20 14.31 5.78 3.82 15 9.47 20.5 12.56 5.5 3.08 15.85 8.26 23 11.51s13.9 5.91 15 5.91c1.1 0 7.85-2.66 15-5.91s17.5-8.43 23-11.51c5.5-3.09 14.73-8.74 20.5-12.56 5.77-3.81 14.77-10.26 20-14.31 5.23-4.06 14.23-12.12 20.01-17.91 5.78-5.78 14.22-15.47 18.75-21.52 4.53-6.05 10.9-16.18 14.15-22.5 3.24-6.32 7.31-15.55 9.04-20.5 1.73-4.95 4.11-13.27 5.29-18.5 2.13-9.38 2.16-10.97 2.5-125l.35-115.5c-19.83-1.96-30.99-3.63-37.59-4.97-6.6-1.33-17.29-4.03-23.75-5.98-6.46-1.95-16.36-5.39-22-7.64-5.64-2.25-15.99-6.98-23-10.5-7.01-3.53-16.69-8.84-21.5-11.81-4.81-2.97-11.53-7.39-14.94-9.82l-6.18-4.41m.12 8.66c.96-.01 4.79 2.18 8.5 4.87 3.71 2.7 11.25 7.58 16.75 10.86 5.5 3.27 13.82 7.87 18.5 10.22 4.68 2.35 13.23 6.19 19 8.53 5.77 2.33 14.1 5.42 18.5 6.85 4.4 1.43 12.73 3.71 18.5 5.07 5.77 1.37 15.23 3.17 21 4.02 5.77.84 13.09 1.54 22 1.55l.01 109.75c0 95.64-.2 110.97-1.59 119.25-.87 5.23-3.07 14-4.88 19.5s-5.43 14.27-8.04 19.5c-2.62 5.23-7.37 13.32-10.58 18-3.2 4.68-9.44 12.66-13.87 17.75s-13.11 13.58-19.3 18.86c-6.19 5.29-17.55 13.81-25.25 18.93-7.7 5.12-18.72 11.8-24.5 14.83-5.78 3.04-15.11 7.58-20.75 10.08-5.81 2.58-11.76 4.55-13.75 4.55-1.93 0-7.21-1.6-11.75-3.56s-13.87-6.49-20.75-10.08c-6.87-3.58-17.68-9.91-24-14.06s-14.43-9.82-18-12.59c-3.57-2.78-10.06-8.23-14.42-12.13-4.36-3.89-11.11-10.71-15-15.15-3.89-4.43-9.85-12.08-13.23-17-3.39-4.91-8.4-13.43-11.15-18.93s-6.39-14.39-8.1-19.75c-1.7-5.36-3.77-13.91-4.6-19-1.26-7.8-1.49-26.37-1.51-228.25l9.75-.71c5.37-.4 14.71-1.62 20.76-2.71 6.05-1.1 16.63-3.61 23.5-5.58 6.88-1.98 17.68-5.65 24-8.17 6.32-2.52 15.55-6.61 20.5-9.09 4.95-2.48 13.5-7.22 19-10.54 5.5-3.32 12.93-8.2 16.5-10.83 3.57-2.64 7.29-4.82 8.25-4.84zM166.72 99c-.91 2.47-2.18 6.97-2.82 10-.68 3.22-.89 8.19-.5 12 .36 3.57.94 8.07 1.3 10 .63 3.45.59 3.49-2.28 2.85-1.83-.41-4.04-.09-5.92.87-1.65.84-3.56 1.92-4.25 2.4-.94.66-.45 2.02 2 5.5 2.73 3.87 3.3 5.68 3.59 11.25.29 5.74-.05 7.37-2.54 12.13-2.03 3.88-4.34 6.49-7.84 8.84-4.76 3.21-5.29 3.33-12.96 3-6.13-.26-8.7-.83-11-2.44-1.65-1.16-3.85-3.86-4.89-6-1.23-2.53-1.89-6.01-1.87-9.9.01-3.32.77-7.78 1.7-10 .93-2.2 2.78-5.46 4.12-7.25 1.34-1.79 2.1-3.3 1.69-3.36-.41-.05-2.1-.02-3.75.08s-4.46 1.05-6.25 2.11c-1.79 1.06-3.93 1.92-4.75 1.92-.82 0-4.99-2.96-9.25-6.59-4.26-3.62-11.12-8.79-15.25-11.48-4.12-2.69-7.61-4.68-7.75-4.41-.14.26 9.42 16.45 21.25 35.98L120 192h97c33.32-55.03 42.89-71.22 42.75-71.48-.14-.27-3.62 1.71-7.75 4.4-4.12 2.69-10.99 7.86-15.25 11.48-4.26 3.63-8.43 6.6-9.25 6.6-.82 0-2.96-.86-4.75-1.92s-4.6-2.01-6.25-2.11c-1.65-.1-3.34-.13-3.75-.08-.41.06.84 2.47 2.79 5.36 1.95 2.89 3.81 6.82 4.13 8.75.32 1.93.41 6.2.19 9.5-.26 3.93-1.12 7.03-2.48 9-1.15 1.65-3.73 3.79-5.73 4.75-2.33 1.12-6.1 1.76-10.4 1.79-5.99.03-7.31-.33-11.71-3.25-3.54-2.35-5.79-4.87-7.84-8.79-2.49-4.77-2.83-6.39-2.54-12.16.29-5.61.85-7.39 3.59-11.25 2.45-3.46 2.94-4.81 2-5.47-.69-.48-2.6-1.56-4.25-2.4-1.81-.92-4.19-1.3-6-.94l-3 .58c1.24-6.09 1.87-10.33 2.2-13.36.33-3.06.03-8.38-.67-12-.7-3.58-2.03-8.3-2.96-10.5l-1.68-4m-51.26 119.75c-2.81 7.29-6.69 17.19-8.62 22-1.93 4.81-2.95 8.44-2.26 8.06.69-.39 13.18-9.89 27.75-21.13 14.57-11.24 26.93-20.83 27.45-21.31.54-.5-7.63-.87-19.13-.87h-20.08M203 223.19c14.57 11.23 26.95 20.67 27.5 20.98.55.3-2.71-9.06-7.25-20.81-4.54-11.75-8.25-21.58-8.25-21.86 0-.28-9.11-.51-20.25-.52-12.11-.01-19.85.35-19.25.89.55.5 12.93 10.09 27.5 21.32zm-46.5 15.31c-.25 2.2-1.37 17.05-2.5 33s-2.26 30.91-2.52 33.25L151 309c-11.2 0-12.27-.33-14-2.5-1.1-1.37-2.9-2.73-4-3s-3.35.18-5 1c-1.85.93-3.23 2.55-3.61 4.25-.34 1.51-.11 3.76.5 5 .61 1.24 2.68 2.93 4.61 3.75 2.51 1.08 7.17 1.5 16.5 1.5h13c0 38.82-.02 39.02-2.47 41.75l-2.47 2.75c3.44 3.45 5.68 4.47 7.19 4.48 1.51.01 2.96.36 3.21.77.25.41-.08 2.21-.75 4-.96 2.58-.94 4.22.11 8 .72 2.61 2.11 6.55 3.07 8.75l1.76 4c3.63-9.3 4.68-14.02 4.67-16.5-.01-2.48-.2-5.4-.42-6.5-.32-1.59.21-2.07 2.6-2.33 1.65-.18 4-1.31 5.22-2.5l2.22-2.17c-4.92-5.48-4.94-5.68-4.94-25V319c23.87 0 27.19-.35 29.99-1.75 1.93-.97 3.94-2.95 4.5-4.45.76-2.04.64-3.33-.49-5.27-.82-1.41-2.74-3.01-4.25-3.55-2.06-.73-3.38-.6-5.25.52-1.37.82-2.72 2.18-3 3-.38 1.13-2.11 1.5-7 1.5H186c-.76-6.59-1.89-21.32-3-37s-2.24-30.53-2.51-33c-.44-4.05-1.03-4.92-5.99-8.75-3.02-2.34-5.84-4.22-6.25-4.19-.41.03-3.13 1.94-6.03 4.25-4.49 3.57-5.34 4.79-5.72 8.19z" style="fill:#fff"/></svg>