<svg xmlns="http://www.w3.org/2000/svg" viewBox="0 0 370 173" width="370" height="173"><style></style><path id="Path 0" fill-rule="evenodd" d="M368.5 1.5v138l-10.5.5-.5-127.5L33 12l-.17-4.83c-.09-2.66.21-5.14.67-5.51.46-.36 76.03-.55 335-.16zM17 17h336v139h-11l-.5-127.5L17 28v-5.5M336.91 33l-.41 138.5H1.5l-.26-68c-.14-37.4-.04-68.56.23-69.25.38-.99 34.9-1.25 335.44-1.25zM12.24 103.5l.26 57h313l.38-116.5c-280.71 0-313.03.26-313.41 1.25-.27.69-.37 26.9-.23 58.25zm215.51-31.4c2.34-.05 6.39.62 9 1.5 2.61.88 5.82 2.57 7.13 3.75 1.31 1.18 2.99 3.61 3.75 5.4.75 1.79 1.37 3.92 1.37 4.75 0 .97-1.32 1.69-3.75 2.03-2.06.3-4.99.75-6.5 1-2.24.38-3.07-.08-4.5-2.53-.96-1.65-2.87-3.49-4.25-4.09-1.86-.81-3.14-.77-5 .15-1.37.68-2.83 1.73-3.23 2.34-.41.6-.75 2.11-.75 3.35-.01 1.25.98 2.9 2.23 3.7 1.24.8 5.18 2.2 8.75 3.1 3.57.9 8.41 2.72 10.75 4.04 2.84 1.61 4.79 3.66 5.87 6.16 1.14 2.66 1.48 5.64 1.16 10.25-.28 4.1-1.15 7.56-2.36 9.38-1.06 1.59-3.95 4.05-6.42 5.46-4 2.29-5.47 2.55-13.25 2.37-6.43-.15-9.81-.74-12.75-2.21-2.2-1.1-4.93-3.24-6.06-4.75-1.13-1.51-2.59-4.42-3.25-6.47-.65-2.05-.97-3.93-.69-4.19.28-.25 3.51-.83 7.19-1.28 6.56-.79 6.72-.76 7.6 1.69.5 1.38 2.21 3.53 3.81 4.78 1.59 1.26 3.46 2.27 4.15 2.25.69-.01 2.62-.82 4.3-1.78 1.67-.96 3.29-2.65 3.6-3.75.3-1.1.12-2.9-.42-4-.53-1.1-2.26-2.53-3.85-3.18-1.58-.64-6.03-2.1-9.88-3.25-3.85-1.14-8.24-3.2-9.75-4.57-1.51-1.38-3.2-3.62-3.75-5-.55-1.37-1-4.97-1-8 0-3.19.73-7.02 1.75-9.12.96-1.99 3.32-4.55 5.25-5.7 1.93-1.15 4.85-2.4 6.5-2.78 1.65-.38 4.91-.74 7.25-.8zM43 73l13.75-.01c10.63-.01 14.86.39 18.66 1.75 2.94 1.06 5.64 2.86 6.75 4.51 1.01 1.51 2.09 5.11 2.4 8 .42 3.95.11 6.12-1.25 8.75-.99 1.92-2.82 3.95-4.06 4.5-1.24.55-2.25 1.22-2.23 1.5.01.28 1.48 1.17 3.25 2 1.79.83 4.04 3.06 5.04 5 1.41 2.72 1.69 4.84 1.25 9.5-.32 3.4-1.35 7.08-2.38 8.5-.99 1.38-3.58 3.4-5.74 4.5-3.37 1.71-6.24 2.04-35.44 2.5v-30.5m13.83-12.83L57 97c10.63-.46 11.63-.85 12.86-3 .87-1.52 1.18-3.58.79-5.25-.4-1.68-1.82-3.33-3.65-4.25-1.65-.83-4.27-1.5-5.83-1.5-1.56 0-3.21.3-3.67.67-.46.36-.76 3.51-.67 7zM57 115c0 7.46.15 8.04 2.25 8.58 1.24.33 3.38.33 4.75.02 1.38-.31 3.74-1.47 5.25-2.58 2.2-1.62 2.75-2.81 2.75-6.02 0-3.2-.55-4.41-2.75-6.03-1.88-1.4-4.25-2.03-7.5-2L57 107m53-34v21.5c0 18.84.22 21.82 1.75 24.06.96 1.4 3.21 2.98 5 3.5 2.42.7 4.02.56 6.25-.56 1.65-.83 3.45-2.62 4-4 .56-1.39 1-11.83 1-44.5h15l.02 21.75c.02 17.21-.31 22.69-1.55 26.25-.86 2.47-2.78 5.77-4.27 7.33-1.48 1.56-4.27 3.48-6.2 4.28-2.11.87-6.88 1.44-12 1.44s-9.89-.57-12-1.44c-1.92-.8-4.71-2.72-6.19-4.28-1.47-1.56-3.24-4.18-3.91-5.83-.79-1.92-1.39-10.84-1.68-24.74-.24-11.96-.18-22.42.14-23.25C95.81 73.36 97.64 73 110 73zm44.11-.14 15.73.32c14.58.3 16.09.51 20.69 2.88 4.07 2.1 5.28 3.37 6.67 7 .93 2.44 1.72 6.35 1.75 8.69.03 2.34-.63 5.94-1.46 8-.84 2.06-3.09 4.88-8.52 8.75l6.01 11.25c3.31 6.19 6.02 11.93 6.02 12.75 0 1.2-1.5 1.5-15 1.5l-6-12c-5.62-11.25-6.17-11.98-11.5-11.5l-.09 23H154.5l-.19-30.32M168.25 93l.25 6.5c10.16.53 11.64.2 13.37-1.46 1.41-1.36 2.14-3.3 2.16-5.79.02-2.34-.64-4.38-1.75-5.43-.98-.93-4.04-1.98-6.8-2.35-3.65-.49-5.36-.3-6.25.68-.78.85-1.14 3.77-.98 7.85zM254 73h44v12l-14.5.5-.5 48.5h-14V85h-15v-6" style="fill:#fefefe"/></svg>