<svg xmlns="http://www.w3.org/2000/svg" viewBox="0 0 309 180" width="309" height="180"><style></style><path id="Path 0" d="m3 .89-2.5.7C.09 62.71.38 77.95 1 79.5c.97 2.43 1.27 2.5 11 2.5h10c0-79-.05-80.03-2-81-1.1-.55-4.81-.96-8.25-.9C8.31.15 4.38.51 3 .89zm24.56.35c-.33.78-.47 5.43-.33 10.34l.27 8.92c8.53 1.1 13.03 2.4 15.5 3.6 2.47 1.21 5 2.69 5.6 3.29.61.61 2.07 2.8 3.25 4.86 1.25 2.18 2.16 5.53 2.17 8 .02 2.34-.66 5.94-1.5 8-.83 2.06-2.64 4.88-4.02 6.25-1.37 1.38-3.96 3.15-5.75 3.95-1.79.8-5.95 1.82-9.25 2.26l-6 .8V81.5c8.53.5 13.7.11 17-.53 3.3-.65 7.58-1.88 9.5-2.74 1.92-.85 4.85-2.49 6.5-3.64 1.65-1.15 3.67-2.84 4.5-3.76.82-.91 2.29-2.6 3.25-3.75.96-1.14 2.39-3.32 3.16-4.83.78-1.51 2.17-5 3.09-7.75 1.29-3.82 1.57-7.35 1.23-15-.25-5.5-.81-11.35-1.24-13-.43-1.65-2.15-5.03-3.83-7.5-1.67-2.47-4.64-5.97-6.6-7.77-1.96-1.79-4.12-3.26-4.81-3.25C58.56 7.99 58 7.55 58 7s-.69-1-1.53-1c-.84 0-3.2-.85-5.25-1.9-2.05-1.04-6.42-2.19-9.72-2.55-3.3-.36-7.65-.89-9.67-1.19-2.62-.38-3.85-.13-4.27.88zm138.51-.21-2.43.91L164 82h21l.04-80.5C179.2.35 175.47.05 173 .07c-2.47.03-5.59.46-6.93.96zm27.51.22c-.2.69-.3 19.03-.22 40.75l.14 39.5 20.5.5c.03-70.51-.25-79.79-1.23-80.77-.84-.83-4.28-1.26-10.04-1.25-6.16.02-8.89.39-9.15 1.27zM102.6 6.21c-1.44 2.91-2.62 5.63-2.61 6.04 0 .41-1.39 3.79-3.1 7.5-1.71 3.71-3.45 7.65-3.87 8.75-.42 1.1-1.78 4.25-3.02 7s-2.59 5.9-3 7c-.41 1.1-1.66 4.03-2.77 6.5-1.11 2.47-2.79 6.3-3.74 8.5-.94 2.2-2.34 5.35-3.12 7-.78 1.65-1.4 3.56-1.39 4.25.01.69-.88 2.71-1.98 4.5-1.09 1.79-1.99 4.49-2 6V82c17.67 0 22-.39 22-1 0-.55.91-2.91 2.01-5.25 1.11-2.34 2.01-5.04 2-6 0-.96.44-1.75.99-1.75s1-.68 1-1.5 1.35-4.43 3-8c1.65-3.57 3-7.18 3-8 0-.82.34-1.68.75-1.89.41-.22 1.43-2.7 2.25-5.52.82-2.82 1.84-5.12 2.25-5.11.41.01.75-.88.75-1.98s.45-2.22 1-2.5c.55-.28 1-1.62 1-3 0-1.37.45-2.5 1-2.5s1-1.12 1-2.5c0-1.37.45-2.72 1-3 .55-.28 1-1.4 1-2.5s.45-2 1-2 1-1.12 1-2.5c0-1.37.45-2.72 1-3 .55-.28 1-1.4 1-2.5s.45-2 1-2 .89-1.46.75-3.25l-.25-3.25-18.28-.57M229.58 2.5c-.32.83-.28 2.29.1 3.25.37.96.94 1.97 1.27 2.25.33.28 1.71 2.64 3.07 5.25 1.37 2.61 2.82 4.75 3.23 4.75.41 0 .74.56.73 1.25-.01.69.78 2.15 1.76 3.25s2.9 4.14 4.27 6.75c1.37 2.61 2.83 4.75 3.24 4.75.41 0 .75.45.75 1s1.79 3.81 3.98 7.25 4.44 6.81 5 7.5c.6.73 1.02 7.69 1.02 16.75V82l23.5-.5c.41-25.75.13-31.5-.5-31.5-.55 0-1-.9-1-2s-.34-2.11-.75-2.25c-.41-.14-1.87-2.4-3.25-5.03-1.37-2.63-2.84-4.77-3.25-4.75-.41.02-.75-.87-.75-1.97s-.34-2-.75-2.01c-.41 0-1.22-1.01-1.79-2.25-.57-1.23-2.15-4.27-3.5-6.74-1.35-2.47-2.69-4.72-2.96-5-.28-.28-1.16-1.85-1.97-3.5s-2.8-5.03-4.43-7.5c-1.63-2.47-3.45-4.83-4.03-5.23-.59-.41-5.87-.75-11.74-.75-8.56-.02-10.78.28-11.25 1.48zm53.35 1.73c-1.42 1.8-3.22 4.73-4 6.52-.79 1.79-1.77 3.25-2.18 3.25-.41 0-.76.56-.77 1.25-.01.69-.9 2.38-1.98 3.75-1.08 1.38-1.97 3.51-1.98 4.75-.01 1.24.32 2.26.73 2.27.41 0 1.88 2.26 3.25 5.01 1.38 2.75 2.84 5 3.25 4.99.41-.01.75.66.75 1.48s.68 2.18 1.5 3c.82.82 1.98 1.5 2.57 1.5.59 0 1.6-.58 2.25-1.29.65-.71 1.74-2.28 2.43-3.5.69-1.21 1.81-3.21 2.5-4.42.69-1.22 1.81-2.79 2.5-3.5S295 27.55 295 27s.56-1.58 1.25-2.28c.69-.7 2.07-2.62 3.06-4.25 1-1.63 2.01-3.76 2.25-4.72.24-.96.78-1.73 1.19-1.71.41.02 1.43-1.35 2.25-3.04.82-1.69 1.84-3.06 2.25-3.04.41.02.64-1.42.5-3.21l-.25-3.25-22-.54M126.08 12.43c-.04.86-.42 1.57-.83 1.56-.41 0-1.39 2.14-2.17 4.75-.78 2.62-1.72 5.44-2.09 6.26-.37.82-1.2 2.51-1.83 3.75-.64 1.24-1.16 4.05-1.16 6.25 0 2.24.94 5.65 2.13 7.75 1.21 2.13 1.86 4.51 1.5 5.5-.49 1.35-1.49 1.66-4.38 1.36-2.06-.21-4.43-.05-5.25.37-.82.41-2.18 2.84-3 5.39-.82 2.56-1.84 4.64-2.25 4.64-.41-.01-.75 1.79-.75 3.99v4h23.5c2.06 5.04 3.43 8.07 4.38 10l1.72 3.5h22.9c-.39-5.04-1.41-8.41-2.51-10.75-1.11-2.34-2.01-4.81-2-5.5 0-.69-.44-1.25-.99-1.25s-1-.9-1-2-.45-2.22-1-2.5c-.55-.28-1-1.62-1-3 0-1.37-.45-2.5-1-2.5s-1-.68-1-1.5-.39-2.29-.87-3.25c-.49-.96-1.84-3.66-3-6-1.17-2.34-2.13-4.7-2.13-5.25 0-.55-1.4-4.04-3.11-7.75s-3.45-7.65-3.86-8.75c-.42-1.1-1.63-3.8-2.69-6-1.2-2.5-2.72-4.12-4.05-4.32-1.38-.21-2.16.23-2.21 1.25zm102.67 48.26L219 61c-.78 10.46-.65 15.07-.21 17l.79 3.5h27.92c.4-14.72.18-19.29-.24-19.65-.42-.35-2.56-.83-4.76-1.06-2.2-.22-8.39-.27-13.75-.1zM.53 97.63c-.47.39-.79 17.95-.7 39.04.09 21.08.4 39.01.67 39.83.4 1.21 2.56 1.5 11 1.5H22l-.5-80.5c-15.58-.44-20.49-.25-20.97.13zm44.52.02c-.8.28-1.36 1.15-1.25 1.93.11.78-.7 1.87-1.8 2.42-1.1.55-2.02 1.56-2.04 2.25-.02.69-.83 1.93-1.8 2.75-.96.82-2.84 3.07-4.16 5-1.32 1.93-3.33 4.33-4.45 5.33-1.9 1.7-2.05 2.98-2.05 17.53 0 14.91.11 15.81 2.27 18.16 1.25 1.37 2.26 3.04 2.25 3.73-.01.69.32 1.23.73 1.21.41-.02 1.42 1.35 2.25 3.04.83 1.69 1.84 3.06 2.25 3.04.41-.02.97.86 1.25 1.96s1.63 3.13 3 4.5c1.38 1.38 2.5 2.95 2.5 3.5 0 .55 1.13 1.68 2.5 2.5 1.9 1.14 5.18 1.44 13.75 1.25 10.84-.24 11.26-.33 11.5-2.5.14-1.24-.2-2.25-.75-2.25s-1-.68-1-1.5-.45-1.5-1-1.5-.99-.56-.98-1.25c.01-.69-.79-2.15-1.79-3.25-.99-1.1-3.26-4.02-5.03-6.5-1.78-2.48-6-8.55-9.39-13.5-3.38-4.95-6.52-9.11-6.98-9.25-.46-.14-.83-.93-.83-1.75s1.46-3.41 3.25-5.75 4.02-4.92 4.96-5.75c.94-.82 1.74-1.95 1.78-2.5.04-.55 3.2-4.37 7.03-8.5 3.83-4.12 6.97-8.06 6.97-8.75.01-.69.46-1.25 1.01-1.25s.89-1.01.75-2.25c-.24-2.18-.63-2.26-11.75-2.44-6.33-.1-12.15.05-12.95.34zm54.95.02c-1.37.25-4.41 1.32-6.75 2.39s-4.59 1.94-5 1.94c-.41 0-2.1 1.13-3.75 2.5-1.65 1.38-3.9 3.3-5 4.27-1.1.97-3.12 3.28-4.5 5.12-1.37 1.84-3.01 4.76-3.63 6.48-.62 1.72-1.68 4.93-2.35 7.13-.75 2.45-1.08 7.69-.83 13.5.26 6.29.98 10.68 2.12 13 .95 1.93 1.72 3.84 1.71 4.25-.01.41 1.33 2.21 2.98 4 1.64 1.79 2.99 3.81 3 4.5 0 .69.79 1.47 1.75 1.74s2.99 1.62 4.5 3c1.51 1.38 4.66 3.35 7 4.38 2.34 1.03 6.05 2.42 8.25 3.1 2.2.68 4.9 1.07 6 .87 1.83-.33 2.02-1.25 2.25-11.1.22-9.66.07-10.74-1.5-10.74-.96-.01-3.1-.85-4.75-1.88-1.65-1.04-3.9-2.81-5-3.95-1.1-1.14-2.46-2.66-3.03-3.37-.56-.72-1.65-3.32-2.42-5.8-1.23-3.98-1.2-5.11.28-9.75.98-3.07 3.22-6.9 5.42-9.22 2.06-2.18 4.31-3.98 5-4 .69-.02 2.4-.59 3.81-1.28 2.52-1.23 2.55-1.39 2.25-11.25-.31-9.88-.34-10-2.81-10.13-1.37-.08-3.62.06-5 .3zm14.5-.01c-.46.37-.75 4.99-.66 10.26.17 9.4.23 9.6 2.92 10.84 1.51.69 3.08 1.26 3.49 1.25.41-.01 2.66 1.96 5 4.37 2.83 2.91 4.7 6.01 5.59 9.25 1.09 3.95 1.11 5.62.1 8.87-.69 2.2-2.42 5.74-3.85 7.87-1.43 2.14-4.38 4.71-6.59 5.76-2.2 1.04-4.56 1.89-5.25 1.88-.91-.01-1.25 2.55-1.25 9.49 0 5.23.22 10.18.5 11 .3.89 1.72 1.5 3.5 1.5 1.65 0 4.91-.91 7.25-2.01 2.34-1.11 4.81-2.01 5.5-2 .69 0 1.25-.33 1.25-.74s1.23-1.29 2.75-1.95c1.51-.66 5-3.37 7.75-6.02 2.75-2.65 6.35-7.51 7.99-10.8 2.57-5.13 3.05-7.34 3.35-15.48.2-5.6-.15-11.14-.86-13.5-.67-2.2-2.17-6.02-3.35-8.5-1.17-2.47-3.03-5.57-4.13-6.88-1.1-1.31-2.51-2.89-3.14-3.5-.62-.62-1.97-1.8-3-2.63-1.02-.84-3.55-2.52-5.61-3.75-2.06-1.23-4.6-2.24-5.63-2.24-1.04 0-2.05-.38-2.25-.85-.2-.47-2.66-1.15-5.45-1.51-2.8-.37-5.46-.36-5.92.02zm64.5.28c-1.93.38-5.07 1.51-7 2.5-1.93.99-4.85 3.22-6.5 4.96-1.65 1.75-4 4.96-5.22 7.14-1.42 2.55-2.23 5.74-2.27 8.96-.03 2.75.63 6.69 1.47 8.75.83 2.06 3.32 5.55 5.52 7.75 2.2 2.2 4.68 4 5.5 4 .82 0 1.5.45 1.5 1s1.01 1.18 2.25 1.41c1.24.22 5.18 1.14 8.75 2.04 3.57.9 8.3 2.14 10.5 2.77 2.2.62 5.02 2.06 6.28 3.21 1.25 1.14 2.26 2.41 2.25 2.82-.02.41-1.04 1.66-2.28 2.77-1.24 1.11-3.04 2.01-4 2-1.55-.02-1.75 1.11-1.76 9.73l-.01 9.75c12.03-1.17 15.63-1.96 15.77-2.51.14-.54 1.15-.99 2.25-.99s2-.34 2-.75c-.01-.41.99-1.2 2.22-1.75 1.22-.55 3.59-3.21 5.25-5.92 2.77-4.51 3.03-5.67 3.03-13.79 0-4.87-.45-9.18-1-9.58-.55-.39-1.57-1.83-2.27-3.21-.7-1.37-3.4-3.9-6-5.61-2.6-1.71-7.43-4.03-10.73-5.16-3.3-1.12-8.47-2.59-11.5-3.25-3.03-.65-6.62-1.79-8-2.52-1.37-.72-2.64-2.36-2.81-3.64-.24-1.81.48-2.71 3.25-4.07L189 115c0-11.62-.22-15.68-.5-16.5-.3-.89-1.62-1.45-3.25-1.39-1.51.07-4.32.44-6.25.83zm15.59.26c-.37.81-.54 5.04-.38 9.39.28 7.59.39 7.92 2.79 8.24 1.38.19 2.95.76 3.5 1.27.55.51 2.01.93 3.25.92 1.24-.01 2.24.32 2.22.73-.01.41 1.11 1.31 2.5 2s3.21 1.25 4.03 1.25c.82 0 1.5-.45 1.5-1s1.8-3.36 4-6.25c2.19-2.89 4.01-6.15 4.03-7.25.02-1.1-.77-2.78-1.75-3.72-.98-.95-2.23-1.73-2.78-1.74-.55-.01-2.91-.92-5.25-2.03-2.34-1.1-7.12-2.3-10.62-2.65-5.1-.52-6.51-.35-7.04.84zm-31.12 55.63c-1.01 1-1.75 2.35-1.65 3 .1.64-.17 1.28-.61 1.42-.43.14-1.82 1.67-3.1 3.4-1.27 1.74-2.26 3.76-2.19 4.5.06.74 2.36 2.81 5.1 4.6 2.74 1.79 5.43 3.25 5.98 3.25.55 0 1 .45 1 1s1.24.99 2.75.98c1.51-.01 3.2.41 3.75.93.55.52 3.7 1.09 7 1.27l6 .32c.48-17.92.37-18.5-1.5-18.5-1.1 0-2.79-.39-3.75-.87s-4.11-1.94-6.98-3.25c-2.88-1.31-5.25-2.72-5.25-3.13-.01-.41-1.08-.75-2.37-.75-1.3 0-3.18.82-4.18 1.83z" style="fill:#fffefe"/></svg>