<svg xmlns="http://www.w3.org/2000/svg" viewBox="0 0 166 195" width="166" height="195"><style></style><path id="Path 0" fill-rule="evenodd" d="M118 0h21.01l-.51 157.5-20.5.5v-10l-4.75 3.65c-2.61 2.01-7 4.65-9.75 5.87-2.75 1.21-7.92 2.94-11.5 3.84-3.58.89-9.42 1.63-13 1.64-3.58.01-9.2-.48-12.5-1.09-3.3-.6-8.7-2.24-12-3.63-3.3-1.38-7.8-3.77-10-5.29s-5.35-4.05-7.01-5.63c-1.65-1.57-4.9-5.33-7.22-8.36-2.32-3.03-5.63-8.87-7.36-13-2.7-6.48-3.2-9.06-3.64-19-.4-8.73-.12-13.06 1.12-18 .9-3.58 3.08-9.42 4.85-13 1.76-3.58 5.91-9.37 9.23-12.89 3.32-3.51 8.39-7.89 11.28-9.75 2.89-1.85 8.51-4.46 12.5-5.81 3.99-1.35 10.85-2.74 15.25-3.09 4.4-.36 10.7-.2 14 .33 3.3.54 9.15 2.22 13 3.72C104.35 50.02 109.86 53 118 59V29.5M60 73.19c-2.47 1.45-5.93 4.14-7.67 5.97-1.74 1.84-4.34 5.59-5.78 8.34-1.44 2.75-3.09 7.7-3.67 11-.86 4.87-.75 7.23.58 12.5.9 3.58 2.68 8.3 3.95 10.5 1.28 2.2 4.52 5.93 7.2 8.29 2.69 2.37 6.92 5.28 9.39 6.49 3.66 1.78 6.28 2.19 14 2.2 8.51.02 10.08-.28 15-2.83 3.03-1.57 7.64-4.94 10.25-7.5 2.73-2.67 5.9-7.2 7.45-10.65 2.19-4.85 2.7-7.43 2.67-13.5-.03-5.12-.71-9.24-2.14-13-1.17-3.06-4.24-7.88-6.92-10.85-2.97-3.31-7.1-6.49-10.81-8.32-4.41-2.18-7.86-3.08-13-3.39-3.97-.24-8.95.12-11.5.84-2.47.69-6.53 2.45-9 3.91zm86.76 101.39c4.81.04 10.2.16 11.99.25 1.83.1 3.26.72 3.27 1.42 0 .75-2.11 1.56-5.25 2.02-2.9.43-9.77 1.47-15.27 2.32-5.5.84-12.03 1.97-14.5 2.51-2.47.53-7.43 1.67-11 2.53-3.57.85-8.3 1.97-10.5 2.47-2.2.51-7.83 1.62-12.5 2.47-4.67.84-11.2 1.95-14.5 2.46-3.3.51-12.41.94-20.25.95-7.84.01-16.39-.42-19-.97-2.61-.54-7.9-1.66-11.75-2.48-3.85-.83-10.34-2.74-14.41-4.27-4.08-1.52-7.57-3.32-7.75-4.01-.21-.76.65-1.25 2.16-1.25 1.38 0 7.67.9 14 2 8.24 1.43 16.4 2.03 28.75 2.1 15.13.09 19.52-.29 35.75-3.08 10.17-1.75 20.97-3.57 24-4.05 3.03-.49 10.22-1.37 16-1.98 5.78-.6 10.84-1.18 11.26-1.29.42-.11 4.69-.16 9.5-.12z" style="fill:#fdfcfc"/></svg>