<svg xmlns="http://www.w3.org/2000/svg" viewBox="0 0 182 182" width="182" height="182"><style></style><path id="Path 0" fill-rule="evenodd" d="M95 .6c5.22.25 12.42 1.07 16 1.81 3.58.75 9.65 2.61 13.5 4.14 3.85 1.53 10.15 4.62 14 6.86 4.26 2.49 10.72 7.81 16.5 13.59 5.78 5.78 11.1 12.24 13.59 16.5 2.24 3.85 5.33 10.15 6.86 14 1.53 3.85 3.47 10.15 4.31 14 .92 4.2 1.53 12.01 1.53 19.5s-.61 15.3-1.53 19.5c-.84 3.85-2.78 10.15-4.31 14-1.53 3.85-4.62 10.15-6.86 14-2.49 4.26-7.81 10.72-13.59 16.5-5.78 5.78-12.24 11.1-16.5 13.59-3.85 2.24-10.15 5.33-14 6.86-3.85 1.53-10.15 3.47-14 4.31-4.2.92-12.01 1.53-19.5 1.53s-15.3-.61-19.5-1.53c-3.85-.84-10.15-2.78-14-4.31-3.85-1.53-10.15-4.62-14-6.86-4.26-2.49-10.72-7.81-16.5-13.59-5.78-5.78-11.1-12.24-13.59-16.5-2.24-3.85-5.33-10.15-6.86-14-1.53-3.85-3.47-10.15-4.31-14C1.32 106.3.71 98.49.71 91s.61-15.3 1.53-19.5c.84-3.85 2.78-10.15 4.31-14 1.53-3.85 4.62-10.1 6.86-13.89 2.25-3.78 7.24-10.26 11.09-14.39 3.85-4.13 9.7-9.42 13-11.77 3.3-2.34 9.15-5.84 13-7.76 3.85-1.92 10.15-4.44 14-5.59 3.85-1.15 10.15-2.52 14-3.03C82.35.55 89.78.34 95 .6zM65 14.77c-3.02 1.07-7.52 2.96-10 4.21-2.48 1.24-7.2 4.17-10.5 6.5S35.58 32.87 32 36.74c-3.58 3.86-7.96 9.44-9.74 12.39-1.79 2.95-4.35 8.07-5.7 11.37-1.35 3.3-3.25 8.92-4.21 12.5-1.19 4.42-1.75 10.17-1.75 18s.56 13.58 1.75 18c.96 3.58 2.86 9.2 4.21 12.5 1.35 3.3 3.91 8.47 5.7 11.49 1.78 3.02 7.29 9.55 12.25 14.5 4.95 4.96 11.48 10.47 14.5 12.25 3.02 1.79 8.19 4.35 11.49 5.7 3.3 1.35 8.92 3.25 12.5 4.21 4.42 1.19 10.17 1.75 18 1.75s13.58-.56 18-1.75c3.58-.96 9.2-2.86 12.5-4.21 3.3-1.35 8.47-3.91 11.49-5.7 3.02-1.78 9.55-7.29 14.5-12.25 4.96-4.95 10.47-11.48 12.25-14.5 1.79-3.02 4.35-8.19 5.7-11.49 1.35-3.3 3.25-8.92 4.21-12.5 1.19-4.42 1.75-10.17 1.75-18s-.56-13.58-1.75-18c-.96-3.58-2.86-9.2-4.21-12.5-1.35-3.3-3.91-8.47-5.7-11.49-1.78-3.02-7.29-9.55-12.25-14.5-4.95-4.96-11.48-10.47-14.5-12.25-3.02-1.79-8.19-4.35-11.49-5.7-3.3-1.34-8.7-3.16-12-4.04-3.3-.87-10.28-1.79-15.5-2.03-5.9-.28-12.15.08-16.5.94-3.85.77-9.47 2.27-12.5 3.34zm27.5 23.55c6.63.24 8.93.79 13.42 3.23 3.28 1.79 6.71 4.73 8.69 7.45 1.8 2.48 3.82 6.52 4.49 9 .67 2.48 1 7.42.75 11-.32 4.47-1.27 7.9-3.02 11-1.4 2.47-4.44 6.08-10.92 11.5l6.03 23c3.32 12.65 6.04 24.24 6.06 28.5H91c-25.06 0-27-.13-26.97-1.75.02-.96 2.84-12.67 12.47-50.28l-3.29-2.23c-1.81-1.23-4.63-4.27-6.26-6.74-1.63-2.47-3.46-6.97-4.06-10-.6-3.03-.77-7.53-.39-10 .39-2.48 1.72-6.52 2.96-9 1.24-2.48 4.23-6.2 6.65-8.27 2.41-2.08 6.19-4.43 8.39-5.23 2.59-.95 6.82-1.36 12-1.18z" style="fill:#fefefe"/></svg>