<svg xmlns="http://www.w3.org/2000/svg" viewBox="0 0 512 331" width="512" height="331"><style></style><path id="Path 0" fill-rule="evenodd" d="M253.42.02c13.24.01 31.51.67 40.58 1.46 9.07.8 19.88 1.88 24 2.42 4.13.54 10.2 1.44 13.5 2 3.3.56 8.48 1.44 11.5 1.95 3.02.52 7.3 1.43 9.5 2.01 2.2.59 8.5 2.18 14 3.53 5.5 1.34 14.5 3.8 20 5.46 5.5 1.66 14.05 4.57 19 6.45 4.95 1.89 11.25 4.44 14 5.67 2.75 1.22 9.05 4.22 14 6.66 4.95 2.44 11.02 5.59 13.5 7.02 2.48 1.42 5.74 3.43 7.25 4.47 1.51 1.03 2.98 1.88 3.25 1.88s2.64 1.61 5.25 3.58c2.61 1.96 6.32 4.75 8.25 6.19 1.93 1.44 7.77 6.92 13 12.18 5.23 5.25 10.18 10.45 11 11.55.83 1.1 3.1 4.47 5.04 7.5 1.94 3.03 4.34 7.3 5.34 9.5s2.42 5.8 3.15 8 1.81 6.7 2.4 10c.6 3.3 1.08 8.59 1.08 11.75-.01 3.16-.72 8.79-1.6 12.5-.87 3.71-2.69 9.45-4.05 12.75-1.35 3.3-4.88 9.6-7.83 14-2.96 4.4-7.77 10.67-10.7 13.92-2.93 3.26-8.93 8.92-13.33 12.58s-11.6 9.05-16 11.99c-4.4 2.93-9.12 6.09-10.5 7.01-1.37.93-9.48 5.09-18 9.26s-18.43 8.59-22 9.82c-3.57 1.24-6.87 2.51-7.32 2.83-.45.33.32 4.41 1.71 9.09 1.4 4.68 4.39 12.32 6.66 17 2.26 4.68 6.4 11.88 9.18 16 2.78 4.13 7.56 10.65 10.61 14.5 3.05 3.85 11.97 13.3 19.82 21 7.84 7.7 14.07 14.23 13.82 14.5-.24.27-4.16-.47-8.71-1.66-4.55-1.2-11.2-3.07-14.77-4.18-3.57-1.11-9.43-3.12-13-4.47-3.57-1.35-8.98-3.45-12-4.66-3.02-1.2-9.1-3.83-13.5-5.83s-13.85-6.63-21-10.27c-7.15-3.65-19.3-10.58-27-15.41-7.7-4.83-19.18-12.64-37-25.91l-14 1.62c-10.95 1.26-21.74 1.55-49.5 1.32-25.15-.21-39-.76-47.5-1.88-6.6-.87-15.37-2.06-19.5-2.65-4.12-.59-13.12-2.21-20-3.59-6.87-1.38-16.78-3.59-22-4.9-5.22-1.31-15.57-4.39-23-6.83-7.42-2.45-17.55-6.13-22.5-8.18-4.95-2.05-14.62-6.55-21.5-9.99-6.87-3.45-14.98-7.89-18-9.88-3.02-1.99-8.82-5.98-12.89-8.88-4.06-2.9-11.27-9.09-16.02-13.77s-10.48-10.97-12.73-14c-2.25-3.03-5.72-8.43-7.7-12-1.99-3.57-4.11-8.07-4.71-10-.61-1.93-1.73-5.97-2.49-9-.76-3.03-1.41-9.32-1.44-14-.02-5.26.69-11.36 1.88-16 1.06-4.12 2.89-9.75 4.08-12.5s4.59-8.6 7.55-13c2.97-4.4 8.22-10.94 11.68-14.54 3.46-3.59 8.99-8.8 12.29-11.58 3.3-2.77 8.92-7.05 12.5-9.5s8.3-5.53 10.5-6.84c2.2-1.31 9.4-5.15 16-8.54 6.6-3.38 15.83-7.65 20.5-9.47 4.67-1.83 9.85-3.9 11.5-4.6 1.65-.71 8.06-2.89 14.25-4.86 6.19-1.96 18.56-5.32 27.5-7.45 8.94-2.14 19.4-4.41 23.25-5.05 3.85-.63 8.35-1.38 10-1.65 1.65-.26 8.04-1.05 14.21-1.74 6.16-.69 15.61-1.63 21-2.08 5.38-.46 9.98-1 10.21-1.21.23-.22 11.25-.38 24.5-.37zM205 31.04c-5.22.66-16.25 2.51-24.5 4.13s-18.82 4.08-23.5 5.48c-4.68 1.39-10.3 3.14-12.5 3.88-2.2.73-7.6 2.65-12 4.26-4.4 1.61-12.5 5.11-18 7.77-5.5 2.66-13.6 7.09-18 9.84S86.47 72.98 84 74.9c-2.47 1.92-7.67 6.66-11.55 10.54-3.88 3.88-8.43 9.09-10.12 11.56-1.68 2.47-4.2 6.75-5.6 9.5-1.39 2.75-3.24 7.7-4.11 11-.87 3.3-1.58 9.15-1.58 13 0 3.85.7 9.7 1.56 13 .85 3.3 2.93 8.47 4.6 11.5 1.67 3.03 3.74 6.85 4.6 8.5.86 1.65 5.42 6.86 10.13 11.57 4.71 4.71 10.28 9.88 12.37 11.5 2.09 1.61 6.81 4.84 10.5 7.18 3.68 2.33 10.64 6.27 15.45 8.75 4.81 2.47 13.59 6.46 19.5 8.85 5.91 2.39 15.47 5.72 21.25 7.4 5.78 1.69 13.43 3.77 17 4.64 3.57.86 8.97 2.05 12 2.64 3.03.58 9.32 1.74 14 2.58 4.68.83 14.57 2.16 22 2.95 8.33.89 23.83 1.43 40.5 1.42 16.63-.01 31.8-.56 39.5-1.44 6.88-.77 14.37-1.78 16.65-2.23 4.12-.8 4.19-.77 10 5.22 3.22 3.32 10.58 9.8 16.35 14.4 5.77 4.6 13.65 10.49 17.5 13.08 3.85 2.6 10.6 6.85 15 9.46 4.4 2.61 11.49 6.5 15.75 8.64 4.26 2.14 7.75 3.66 7.75 3.39s-3.81-8.04-8.47-17.25-8.48-17.09-8.5-17.5c-.02-.41-.88-2.66-1.92-5-1.03-2.34-2.79-6.72-3.9-9.75-1.11-3.03-2.73-7.41-3.61-9.75-.88-2.34-1.6-5.04-1.6-6 0-1.19 1.37-2.18 4.25-3.07 2.34-.73 6.95-2.47 10.25-3.88 3.3-1.41 9.38-4.11 13.5-6.01 4.13-1.89 11.32-5.73 16-8.51 4.68-2.79 10.98-6.9 14-9.13 3.02-2.23 7.49-5.88 9.92-8.1 2.43-2.23 6.14-5.85 8.25-8.05 2.11-2.2 3.82-4.22 3.8-4.5-.02-.28 1.11-1.85 2.5-3.5s2.54-3.45 2.55-4c.02-.55.62-1.68 1.35-2.5.73-.82 2.12-3.53 3.1-6 .97-2.47 2.38-6.97 3.12-10 .73-3.03 1.35-7.75 1.37-10.5.02-2.75-.43-6.8-.99-9-.55-2.2-1.54-5.8-2.2-8-.65-2.2-2.28-6.03-3.62-8.5-1.34-2.47-3.37-5.85-4.52-7.5a288.96 288.96 0 0 0-3.1-4.4c-.57-.77-4.63-4.99-9.03-9.38-4.4-4.39-12.27-10.81-17.5-14.27-5.23-3.46-13.1-8.11-17.5-10.33-4.4-2.21-10.93-5.33-14.5-6.93-3.57-1.59-12.12-4.72-19-6.95-6.87-2.23-13.62-4.33-15-4.67-1.37-.34-4.98-1.3-8-2.13-3.02-.83-10-2.41-15.5-3.51-5.5-1.1-12.93-2.44-16.5-2.97-3.57-.54-13.25-1.64-21.5-2.46-9.28-.93-24.15-1.45-39-1.37-13.2.07-27.37.49-31.5.93-4.12.44-11.78 1.33-17 1.98zM120.21 86.1c1.58-.09 1.73 2.61 2.29 69.77l6 6.28-2.75 2.43c-2.13 1.87-3.88 2.42-7.75 2.42-3.92 0-5.44-.49-7.02-2.25-1.11-1.24-2.26-3.6-2.54-5.25-.28-1.65-.39-18.3.06-70.99l5-1.16c2.75-.64 5.77-1.2 6.71-1.25zM381 86v33c0 20.99.39 34 1.07 35.75.58 1.51 2.05 3.76 5.43 7.25l-2.5 2.53c-2.03 2.04-3.45 2.51-7.5 2.48-2.75-.02-5.5-.37-6.11-.78-.61-.4-1.85-2.19-2.75-3.98-1.44-2.86-1.61-7.49-1.14-73.65l4.5-1.2c2.48-.66 5.51-1.25 9-1.4zm22 0 .05 43.5 3.73-4.15c2.04-2.28 5.86-6.67 13.22-15.35h8c4.4 0 8 .22 8 .5s-2.61 3.54-5.79 7.25c-3.19 3.71-7.21 8.33-8.94 10.25-2.85 3.18-3.01 3.68-1.71 5.5.79 1.1 5.72 8.53 10.95 16.5 5.24 7.97 9.51 15.06 9.51 15.75-.02.89-2.24 1.25-15.52 1.22L421 161c-1.93-3.28-3.84-5.98-4.25-5.99-.41 0-.75-.69-.75-1.51 0-.82-.34-1.5-.75-1.5s-1.32-1.23-2.01-2.75c-.69-1.51-2.16-3.87-5.27-7.75l-2.46 3c-2.17 2.65-2.49 4.12-3.01 22h-13V88.6l4.5-1.2c2.48-.66 5.51-1.25 9-1.4zM95.64 87.16c4.54.19 8.73.79 9.31 1.34.72.69.51 2.49-2.45 10.73l-4.25-.62c-2.34-.33-5.15-.16-6.25.39-1.1.55-2.67 2.35-3.5 4-.83 1.65-1.5 3.9-1.5 5 0 1.76.67 2 11 2v11H87l-.5 45.5h-13L73 121h-8v-11h4c3.86 0 4.02-.13 4.53-3.75.29-2.06 1.53-5.76 2.75-8.22 1.22-2.47 4.21-5.99 6.66-7.85 4.34-3.29 4.63-3.36 12.7-3.02zm197.61 6.91c1.53-.06 1.75.95 1.75 15.93h15v11h-15l-.02 14.75c-.02 13.41.16 14.96 2 17 1.11 1.24 2.92 2.47 4.02 2.75 1.1.28 3.69.05 5.75-.49 2.06-.55 4.09-1 4.5-1 .41-.01.75 2.69.75 5.99 0 3.3-.45 6.22-1 6.5-.55.28-5.16.5-10.25.49-7.41 0-9.85-.39-12.25-1.93-1.65-1.06-3.9-3.42-5-5.24-1.77-2.94-2.03-5.36-2.5-38.82h-3c-2.72 0-3-.3-2.99-3.25.01-1.79.24-4.26.5-5.5.35-1.6 1.21-2.25 2.99-2.25 2.39 0 2.5-.26 2.46-5.88-.04-5.75.03-5.9 3.25-7.09 1.81-.67 4.19-1.59 5.29-2.06 1.1-.46 2.79-.87 3.75-.9zM207 109.03c4.13-.04 9.07.46 11 1.1 1.93.64 5.3 2.59 7.5 4.33 2.2 1.74 5.09 5.39 6.42 8.11 1.8 3.64 2.44 6.62 2.46 11.43.02 3.57-.28 7.06-.67 7.75-.53.93-5.65 1.25-20.21 1.25-14.92 0-19.51.29-19.53 1.25-.01.69 1.02 2.82 2.29 4.75 1.27 1.93 3.65 4.18 5.28 5 1.63.82 5.43 1.49 8.46 1.48 3.88-.01 6.61-.68 13-4.48l2 3.5c1.1 1.93 2.11 4.47 2.25 5.66.18 1.55-.74 2.75-3.25 4.24-2.8 1.66-5.59 2.14-14 2.42-7.77.26-11.54-.05-14.5-1.2-2.2-.85-5.73-3.25-7.85-5.33-2.11-2.09-4.42-4.91-5.13-6.29-.71-1.37-1.84-5.2-2.51-8.5-.71-3.48-.94-8.1-.55-11 .38-2.75 1.55-7.03 2.61-9.5 1.05-2.47 3.61-6.14 5.67-8.14 2.07-2 5.56-4.57 7.76-5.71 2.95-1.52 5.97-2.08 11.5-2.12zM197.26 126c-1.28 1.93-2.3 4.06-2.29 4.75.02.93 3.31 1.25 13.03 1.25 11.94 0 12.95-.14 12.41-1.75-.33-.96-1.11-2.8-1.75-4.07-.64-1.28-2.06-2.92-3.16-3.64-1.1-.72-3.57-1.58-5.5-1.9-1.93-.33-5.06-.04-6.97.63-2 .72-4.43 2.7-5.77 4.73zM274 109l-.59 5.75c-.32 3.16-.88 6.13-1.25 6.59-.36.45-2.23.33-4.16-.29-2.46-.78-4.32-.81-6.25-.08-1.51.57-3.35 1.59-4.08 2.28-.73.69-1.96 2.38-2.75 3.75-1.03 1.81-1.56 7.61-2.42 39.5h-13L239 110h7c6.32 0 6.99.19 6.92 1.97-.08 1.86.12 1.84 3.67-.5 3.07-2.02 5-2.47 17.41-2.47zm62 .06c7.15-.01 10.49.44 13.5 1.83 2.2 1.02 4.98 2.92 6.18 4.23 1.2 1.31 2.74 3.73 3.42 5.38.69 1.69 1.48 10.2 1.82 19.5.54 14.78.83 16.87 2.84 20 2.12 3.33 2.15 3.59.49 5.3-1.18 1.21-3.23 1.81-6.25 1.81-3.58.01-4.96-.51-6.75-2.55-1.91-2.17-2.52-2.37-4-1.31-.96.69-2.87 1.87-4.25 2.62-1.5.82-5.2 1.32-9.25 1.25-3.71-.07-8.21-.74-10-1.49-1.79-.76-4.23-2.44-5.43-3.75-1.2-1.31-2.67-3.62-3.25-5.13-.59-1.51-1.08-4.66-1.09-7-.02-2.34.61-5.82 1.39-7.75.78-1.93 2.93-4.98 4.77-6.8 2.08-2.05 5.45-3.9 8.86-4.88 3.02-.87 8.31-1.64 11.75-1.7 4.27-.08 6.25-.52 6.25-1.37 0-.69-1.01-2.31-2.25-3.62-1.35-1.42-4.05-2.66-6.75-3.11-3.15-.52-6.08-.26-9.75.87-5.21 1.6-5.26 1.59-6.12-.64-.48-1.24-1.16-3.71-1.5-5.5-.57-2.95-.33-3.39 2.62-4.71 2.1-.95 6.6-1.47 12.75-1.48zm-6.07 34.74c-1.1 1.49-1.98 3.94-1.96 5.45.01 1.51.93 3.65 2.03 4.75 1.42 1.42 3.33 2 6.58 2 3.77 0 5.09-.53 7.5-3 2.44-2.51 2.92-3.82 2.92-8 0-4.37-.28-5.06-2.25-5.49-1.24-.26-2.7-.44-3.25-.39-.55.05-2.93.52-5.28 1.04-2.77.61-4.99 1.9-6.29 3.64zM133.55 110c5.74 0 6.55.25 7.39 2.25.52 1.24 3.72 9.22 7.11 17.75s6.33 15.72 6.53 16c.2.28.81-.62 1.36-2 .55-1.37 2.54-6.78 4.43-12 1.89-5.22 4.49-12.33 8.13-22.07l13.5.07-.62 3.25c-.34 1.79-1.19 4.38-1.88 5.75-.69 1.38-4.96 12.4-9.48 24.5-4.51 12.1-8.77 23.35-9.46 25-.7 1.65-1.89 4.54-2.66 6.42-.77 1.88-3.25 5.03-5.5 7-2.26 1.97-6.2 4.14-8.75 4.83-2.56.69-6.22 1.25-11.65 1.25l-.01-11.5 6.26-1.26c3.44-.69 6.83-1.81 7.54-2.5.72-.68 1.29-2.59 1.27-4.24-.02-1.65-.88-5.47-1.92-8.5-1.04-3.03-4.01-10.9-6.6-17.5s-6.47-16.16-8.63-21.25c-2.15-5.09-3.66-9.7-3.36-10.25.3-.55 3.45-1 7-1z" style="fill:#fff"/></svg>