<svg xmlns="http://www.w3.org/2000/svg" viewBox="0 0 512 512" width="512" height="512"><style></style><path id="Path 0" fill-rule="evenodd" d="M254.25.13c11.41-.07 25.14.34 30.5.92 5.36.58 15.15 2.14 21.75 3.46 6.6 1.32 16.05 3.58 21 5.02 4.95 1.44 13.27 4.21 18.5 6.15 5.23 1.95 14.45 5.88 20.5 8.75 6.05 2.87 15.73 8.06 21.5 11.54 5.77 3.48 15.45 10.01 21.5 14.5 6.05 4.49 14.83 11.74 19.52 16.1 4.69 4.36 12.08 11.76 16.44 16.43 4.36 4.67 11.6 13.45 16.08 19.5 4.49 6.05 11.01 15.72 14.49 21.5 3.48 5.78 8.67 15.45 11.54 21.5 2.87 6.05 6.8 15.28 8.75 20.5 1.94 5.22 4.71 13.55 6.15 18.5 1.44 4.95 3.7 14.4 5.02 21 1.32 6.6 2.88 16.39 3.46 21.75.58 5.36 1.05 18.3 1.05 28.75s-.47 23.39-1.05 28.75c-.58 5.36-2.14 15.15-3.46 21.75-1.32 6.6-3.58 16.05-5.02 21-1.44 4.95-4.21 13.27-6.15 18.5-1.95 5.23-5.88 14.45-8.75 20.5-2.87 6.05-8.06 15.73-11.54 21.5-3.48 5.77-10.01 15.45-14.5 21.5-4.49 6.05-11.74 14.83-16.1 19.52-4.36 4.69-11.75 12.08-16.43 16.44-4.68 4.36-13.45 11.6-19.5 16.08-6.05 4.49-15.73 11.01-21.5 14.49-5.77 3.48-15.45 8.67-21.5 11.54-6.05 2.87-15.27 6.8-20.5 8.75-5.23 1.94-13.55 4.71-18.5 6.15-4.95 1.44-14.4 3.7-21 5.02-6.6 1.32-16.39 2.88-21.75 3.46-5.36.58-18.3 1.05-28.75 1.05s-23.39-.47-28.75-1.05c-5.36-.58-15.15-2.14-21.75-3.46-6.6-1.32-16.05-3.58-21-5.02-4.95-1.44-13.28-4.21-18.5-6.15-5.22-1.95-14.45-5.88-20.5-8.75-6.05-2.87-15.72-8.06-21.5-11.54-5.78-3.48-15.45-10-21.5-14.49-6.05-4.48-14.83-11.72-19.5-16.08-4.67-4.36-12.07-11.75-16.43-16.44-4.36-4.69-11.61-13.47-16.1-19.52-4.49-6.05-11.02-15.73-14.5-21.5-3.48-5.77-8.67-15.45-11.54-21.5-2.87-6.05-6.8-15.27-8.75-20.5-1.94-5.23-4.71-13.55-6.15-18.5-1.44-4.95-3.7-14.4-5.02-21-1.32-6.6-2.88-16.39-3.46-21.75C.47 279.39 0 266.45 0 256s.47-23.39 1.05-28.75c.58-5.36 2.14-15.15 3.46-21.75 1.32-6.6 3.58-16.05 5.02-21 1.44-4.95 4.21-13.28 6.15-18.5 1.95-5.22 5.88-14.45 8.75-20.5 2.87-6.05 8.06-15.72 11.54-21.5 3.48-5.78 10-15.45 14.49-21.5 4.48-6.05 11.72-14.83 16.08-19.5 4.36-4.67 11.75-12.07 16.44-16.43 4.69-4.36 13.47-11.61 19.52-16.1 6.05-4.49 15.72-11.02 21.5-14.5 5.78-3.48 15.45-8.67 21.5-11.54 6.05-2.87 15.28-6.8 20.5-8.75 5.22-1.94 13.55-4.71 18.5-6.15 4.95-1.44 14.4-3.71 21-5.04s15.6-2.83 20-3.33C229.9.67 242.84.2 254.25.13zM214 17.49c-5.22.9-12.87 2.48-17 3.52-4.12 1.05-12.9 3.75-19.5 6.02-6.6 2.26-18.3 7.15-26 10.85-7.7 3.71-18.5 9.57-24 13.03-5.5 3.46-14.69 9.96-20.43 14.44-5.74 4.48-15.64 13.36-22 19.72-6.36 6.36-15.24 16.26-19.72 22-4.48 5.74-10.98 14.93-14.44 20.43-3.46 5.5-9.33 16.3-13.05 24-3.73 7.7-9.02 20.75-11.76 29-2.75 8.25-5.9 19.5-7.01 25-1.1 5.5-2.57 14.28-3.27 19.5-.69 5.22-1.26 19.18-1.26 31s.57 25.77 1.26 31c.7 5.23 2.17 14 3.27 19.5 1.11 5.5 4.26 16.75 7.01 25 2.74 8.25 8.03 21.3 11.76 29 3.72 7.7 9.59 18.5 13.05 24 3.46 5.5 9.96 14.69 14.44 20.43 4.48 5.74 13.36 15.64 19.72 22 6.36 6.36 16.26 15.24 22 19.72 5.74 4.48 14.93 10.98 20.43 14.44 5.5 3.46 16.3 9.33 24 13.05 7.7 3.73 20.75 9.02 29 11.76 8.25 2.75 19.5 5.9 25 7.01 5.5 1.1 14.28 2.57 19.5 3.27 5.22.69 19.18 1.26 31 1.26s25.77-.57 31-1.26c5.23-.7 14-2.17 19.5-3.27 5.5-1.11 16.75-4.26 25-7.01 8.25-2.74 21.3-8.03 29-11.76 7.7-3.72 18.5-9.59 24-13.05 5.5-3.46 14.69-9.96 20.43-14.44 5.74-4.48 15.64-13.36 22-19.72 6.36-6.36 15.24-16.26 19.72-22 4.48-5.74 10.98-14.93 14.44-20.43 3.46-5.5 9.32-16.3 13.03-24 3.71-7.7 8.74-19.85 11.18-27 2.44-7.15 5.37-17.05 6.51-22 1.15-4.95 2.88-14.18 3.85-20.5 1.31-8.52 1.76-17.58 1.76-35s-.45-26.48-1.76-35c-.97-6.32-2.7-15.55-3.85-20.5-1.14-4.95-4.07-14.85-6.51-22-2.44-7.15-7.47-19.3-11.18-27-3.71-7.7-9.57-18.5-13.03-24-3.46-5.5-9.96-14.69-14.44-20.43-4.48-5.74-13.36-15.64-19.72-22-6.36-6.36-16.26-15.24-22-19.72-5.74-4.48-14.93-10.98-20.43-14.44-5.5-3.46-16.3-9.32-24-13.03-7.7-3.71-19.85-8.74-27-11.18-7.15-2.44-17.05-5.37-22-6.51-4.95-1.14-13.73-2.79-19.5-3.67-5.77-.87-19.5-1.77-30.5-1.99-11-.22-24.05-.01-29 .47-4.95.48-13.28 1.6-18.5 2.49zM92 101h142v50h-34v108l2.78-2.25c1.52-1.24 26.74-24.52 56.04-51.75 29.29-27.23 53.24-49.95 53.21-50.5-.02-.55-7.24-3.47-32.05-12L280 101h143l-.5 49.5-12.5.5c-8.87.35-13.1.94-14.57 2-1.13.82-23.97 20.06-99.43 84l6.34 8.25c3.49 4.54 17.97 23.55 32.18 42.25s32.01 42.1 39.54 52c7.54 9.9 14.54 18.75 15.57 19.66 1.03.91 9.86 4.17 19.62 7.25 9.76 3.07 17.98 5.59 18.25 5.59.27 0 .5 9.45.5 42H281l.5-49.5 13-.5c7.81-.3 12.95-.9 12.87-1.5-.08-.55-13.58-20.9-30-45.21-16.43-24.32-30.21-44.23-30.62-44.25-.41-.02-11.1 9.3-46.77 41.46l.52 45.83L236 372v42H95v-50l33.5-.5.27-102c.16-56.1.06-102.9-.21-104-.38-1.57-4.34-3.39-36.56-15v-20.75" style="opacity:.988;fill:#fefefe"/></svg>