<svg xmlns="http://www.w3.org/2000/svg" viewBox="0 0 220 386" width="220" height="386"><style></style><path id="Path 0" fill-rule="evenodd" d="M97 0v99h25V0l8.75.02c4.81.01 11.45.72 14.75 1.57 3.3.86 9.15 3.06 13 4.91 3.85 1.84 11.05 6.25 16 9.79 4.95 3.54 11.7 9.32 15 12.85 3.3 3.52 8.83 10.67 12.29 15.88 3.45 5.22 7.66 13.08 9.34 17.48 1.68 4.4 4.22 12.72 5.65 18.5 2.15 8.68 2.59 12.84 2.59 24s-.44 15.32-2.59 24c-1.43 5.78-3.97 14.1-5.65 18.5-1.68 4.4-5.86 12.28-9.28 17.5-3.7 5.65-9.99 13.24-24.85 28v79c0 67.76-.22 79.96-1.55 85.75-.98 4.28-2.9 8.73-5.25 12.17-2.03 2.97-5.95 6.92-8.7 8.76-2.76 1.84-8.35 4.22-12.5 5.31-6.75 1.78-10.86 1.98-41 1.98-26.4.01-34.67-.31-39-1.47-3.03-.81-7.75-3.01-10.5-4.89s-6.67-5.83-8.7-8.77c-2.37-3.42-4.26-7.76-5.25-12.09-1.33-5.79-1.55-18.03-1.56-165.25l-3.63-2.5c-2-1.37-6.39-5.43-9.75-9.01-3.36-3.59-8.94-10.79-12.4-16-3.45-5.22-7.66-13.09-9.34-17.49-1.68-4.4-4.18-12.72-5.56-18.5-2.26-9.47-2.45-11.92-1.98-25 .41-11.55 1.12-16.84 3.45-26 1.62-6.33 4.25-14.65 5.85-18.5 1.6-3.85 5.6-11.03 8.89-15.96 3.29-4.94 8.68-11.86 11.98-15.39 3.3-3.53 10.05-9.31 15-12.85 4.95-3.53 11.92-7.85 15.5-9.6 3.58-1.74 9.2-3.93 12.5-4.86C76.91.87 83.27.11 97 0zM73 30.66c-4.12 2.13-10.2 5.93-13.5 8.46-3.3 2.52-8.02 6.81-10.5 9.53-2.48 2.73-6.28 7.64-8.45 10.91-2.17 3.27-5.2 8.75-6.75 12.19-1.54 3.44-3.7 9.96-4.79 14.5-1.34 5.55-2 11.69-2 18.75 0 7.06.66 13.2 2 18.75 1.09 4.54 3.25 11.06 4.79 14.5 1.55 3.44 4.58 8.92 6.75 12.19 2.17 3.27 5.97 8.18 8.45 10.91 2.48 2.72 6.98 6.87 10 9.2 3.02 2.34 9.21 6.1 13.75 8.35 4.54 2.26 11.74 5.11 16 6.34 6.32 1.82 10.25 2.24 21.25 2.24s14.93-.42 21.25-2.24c4.26-1.23 11.46-4.08 16-6.34 4.54-2.25 10.72-6.01 13.75-8.35 3.03-2.33 7.53-6.48 10-9.2 2.47-2.73 6.28-7.64 8.45-10.91 2.17-3.27 5.2-8.75 6.75-12.19 1.54-3.44 3.7-9.96 4.79-14.5 1.34-5.55 2-11.69 2-18.75 0-7.06-.66-13.2-2-18.75-1.09-4.54-3.25-11.06-4.79-14.5-1.55-3.44-4.58-8.92-6.75-12.19-2.17-3.27-5.98-8.18-8.45-10.91-2.47-2.72-6.97-6.85-10-9.18-3.03-2.32-8.43-5.81-12-7.74-3.57-1.94-7.51-3.8-8.75-4.13L138 27c.01 74.47-.21 80.84-1.49 82.75-1.5 2.23-1.7 2.25-26.51 2.25-20.89 0-25.25-.25-26.5-1.5-.83-.83-1.6-1.61-1.72-1.75-.12-.14-.46-18.63-.75-41.1L80.5 26.8M69.85 272.92c.14 59.31.47 78.15 1.41 79.98.68 1.33 2.51 3.35 4.06 4.5 2.73 2.03 3.9 2.1 35.18 2.1s32.45-.07 35.18-2.1c1.55-1.15 3.38-3.17 4.06-4.5.94-1.84 1.23-20.43 1.25-80.15 0-42.76-.33-77.92-.74-78.12-.41-.21-5.93.91-12.25 2.49-6.32 1.57-15.21 3.32-19.75 3.87-5.55.68-10.95.68-16.5 0-4.54-.55-13.38-2.26-19.65-3.8-6.27-1.53-11.63-2.58-11.92-2.32-.28.25-.43 35.38-.33 78.05zM85 218h25v12H97v111H85v-61.5" style="fill:#fff"/></svg>