<svg xmlns="http://www.w3.org/2000/svg" viewBox="0 0 358 183" width="358" height="183"><style></style><path id="Path 0" fill-rule="evenodd" d="M248 .22c5.77.4 12.98 1.2 16 1.79 3.02.58 7.52 1.54 10 2.14 2.48.59 8.44 2.38 13.25 3.96 4.81 1.59 12.01 4.51 16 6.5 3.99 1.98 10.85 6 15.25 8.94 4.4 2.93 9.98 7.26 12.4 9.64 2.41 2.37 6.59 7.46 9.27 11.31 2.69 3.85 5.66 9.25 6.6 12 1.07 3.12 1.72 8.1 1.72 13.25.01 4.54.35 8.25.76 8.25.41 0 .52 1.13.25 2.5-.32 1.62.38 3.91 2 6.5 1.38 2.2 3.4 6.7 4.5 10s2 7.69 2.01 9.75c0 2.06-.49 6.45-1.09 9.75-.6 3.3-2.52 8.66-4.26 11.91-1.88 3.51-5.83 8.38-9.74 12-3.62 3.35-9.25 7.52-12.5 9.28-3.26 1.75-9.07 4.38-12.92 5.84-3.85 1.46-11.05 3.55-16 4.63-5.41 1.19-16.58 5.18-28 10.01-10.45 4.41-21.6 9.21-24.78 10.67-3.82 1.76-6.1 2.32-6.74 1.66-.62-.65.3-4 2.61-9.5 1.96-4.68 3.98-9.06 4.49-9.75.69-.94-.37-1.4-4.33-1.86-2.89-.33-10.43-1.92-16.75-3.54-6.51-1.66-15.84-5.01-21.5-7.7-5.5-2.62-12.93-6.73-16.5-9.14-3.57-2.41-9.31-7.22-12.75-10.7-3.44-3.47-6.25-6.99-6.25-7.81 0-.82 1.91-2.57 4.25-3.89 2.34-1.31 6.61-4.46 9.5-7 2.89-2.53 5.7-4.61 6.25-4.61.55 0 4.26 1.53 8.25 3.4 3.99 1.87 10.85 4.57 15.25 5.99s10.81 3.27 14.25 4.1c4.51 1.09 6.46 1.2 7 .4.41-.61 1.54-.84 2.5-.5 1.16.4 1.75.1 1.75-.89 0-.82-1.24-1.77-2.75-2.1-1.51-.34-5.45-1.28-8.75-2.09-3.3-.82-8.7-2.41-12-3.53-3.3-1.12-8.03-2.94-10.5-4.04-2.47-1.1-6.75-3.06-14.5-6.73l-5.5 4.29c-3.03 2.36-7.75 5.71-10.5 7.44-2.75 1.74-7.93 4.47-11.5 6.07-3.57 1.61-8.97 3.72-12 4.7-3.03.98-11.57 5.38-19 9.77S114.44 144.35 97 155l2.04-6.75c1.12-3.71 2.24-7.99 2.5-9.5.25-1.51.8-2.57 1.21-2.35.41.23.75-.67.75-2 0-1.89-.53-2.4-2.5-2.41-1.37 0-7.67-.46-14-1-6.33-.55-15.1-1.73-19.5-2.61-4.4-.89-11.83-2.96-16.5-4.6-4.67-1.64-12.1-4.84-16.5-7.13-4.4-2.28-10.7-6.31-14-8.95-3.3-2.65-7.69-6.92-9.74-9.5-2.06-2.59-3.53-5.26-3.25-5.95.27-.69.04-1.03-.51-.75s-1.94-1.64-3.1-4.25C2.75 84.64 1.34 79.35.77 75.5 0 70.3.06 67.08.97 63c.68-3.03 2.65-8.18 4.38-11.46 1.73-3.28 6.07-8.95 9.65-12.6 3.58-3.64 8.75-8.23 11.5-10.19 2.75-1.96 8.6-5.36 13-7.55 4.4-2.19 12.05-5.34 17-6.99 4.95-1.66 12.6-3.76 17-4.66 4.4-.91 13.85-2.16 21-2.78 9.82-.85 16.3-.84 26.5.05 7.43.65 17.1 2.05 21.5 3.1 4.4 1.06 11.6 3.14 16 4.63 4.4 1.49 8.68 3.39 9.5 4.22.82.83.94 1.22.25.87-.74-.38-2.58.97-4.5 3.31a295.95 295.95 0 0 0-5.39 6.75c-1.18 1.54-2.98 4.83-4 7.3-1.38 3.35-1.85 6.93-1.81 14 .04 6.77.55 10.65 1.8 13.5.97 2.2 2.9 6.03 4.3 8.5 1.55 2.76 2.87 4.11 3.39 3.5.49-.58-.69-4.1-2.85-8.44-3.48-7.01-3.69-7.98-3.69-17 0-6.97.5-10.78 1.83-14.06 1.01-2.47 2.48-5.29 3.25-6.25.78-.96 1.2-2.2.92-2.75-.28-.55.06-.89.75-.75s1.14-.54 1-1.5c-.14-.96.1-1.64.54-1.5.43.14 3.24-1.85 6.25-4.41 3-2.56 9.06-6.42 13.46-8.58s9.35-4.4 11-4.98c1.65-.58 4.8-1.53 7-2.12 2.2-.59 6.25-1.55 9-2.14 2.75-.59 9.95-1.4 16-1.8 6.05-.4 15.73-.39 21.5 0zm-33.75 48.1-.75 13.81 10.92-.63c6.61-24.03 8.55-31.45 8.57-32 .03-.55-3.11-1.56-6.97-2.25S218.1 26 217 26c-1.69 0-2 .67-2 4.25 0 2.34-.33 10.47-.75 18.07zm32.76.93L247 65l9.5.05c6.68-23.68 8.83-31.23 9.08-32.05.29-.99-.49-1.73-2.32-2.17-1.52-.37-5.47-.99-8.78-1.37-5.74-.65-6.06-.57-6.74 1.68-.39 1.3-.72 9.45-.73 18.11zm31.44-4.5c-.26.73.7 1.52 2.3 1.89 1.51.35 4.32 1.42 6.25 2.38 1.93.95 4.01 2.8 4.64 4.11.86 1.79.85 3.1-.07 5.37-.83 2.06-2.52 3.55-5.39 4.75-2.3.96-4.19 2.31-4.19 3-.01.69.33 2.72.75 4.52.55 2.38 1.31 3.26 2.76 3.23 1.1-.02 5.15-1.16 9-2.53 3.85-1.38 8.28-3.73 9.84-5.23 1.56-1.51 3.47-3.98 4.25-5.49.78-1.51 1.41-4.21 1.4-6 0-1.79-.9-4.6-2-6.25-1.1-1.65-3.91-4.26-6.25-5.79-2.33-1.54-6.49-3.62-9.24-4.63-2.75-1.01-6.41-2.15-8.13-2.53-3.02-.66-3.17-.53-4.3 3.63-.64 2.38-1.37 4.88-1.62 5.57zm-165.53-.11c.09.47 1.49 2.32 3.12 4.11 1.63 1.79 3.97 5.16 5.21 7.5 1.92 3.63 2.25 5.79 2.25 14.75 0 9.59-.24 10.93-2.76 15.5-1.52 2.75-3.32 5.78-4 6.73-1.06 1.49-.7 2.28 2.55 5.5l3.79 3.77c4.8-4.65 7.82-9.37 9.81-13.5 3.5-7.28 3.61-7.84 3.61-19 0-10.78-.19-11.91-3.09-18-1.8-3.81-5.12-8.48-8-11.28-2.7-2.63-5.21-4.76-5.58-4.75-.38.02-2.12 1.78-3.87 3.92-1.76 2.15-3.13 4.28-3.04 4.75zM59.05 56.95 59 64l13.5-.5v-13l-13.41-.59M83 68.5V75c12.01-.01 18.54-.35 22.26-.76l6.76-.74L112 62H83m127.99 14.75c.01 1.83.71 2.35 3.76 2.81 2.06.3 4.76.75 6 1 1.71.33 2.37-.1 2.74-1.81.26-1.24.59-3.88.71-5.86l.23-3.62c-7.7-1-10.44-1.28-11.07-1.28-.63.01-1.43 1.47-1.77 3.26-.34 1.79-.61 4.26-.6 5.5zm33.11-2.6c-.07 1.84-.35 4.36-.61 5.6-.4 1.84.02 2.33 2.26 2.71 1.51.25 4.32.59 6.24.75l3.49.29c1.25-8.53 1.48-11.06 1.32-11.14-.17-.07-3.06-.45-6.44-.85l-6.14-.71m-78.47 11.84c2.06 2.56 4.54 4.81 5.5 5 1.19.25.26-1.49-2.88-5.39-2.55-3.16-4.72-5.89-4.82-6.07-.11-.17-.5.17-.87.75-.38.59 1.01 3.16 3.07 5.71zm114.23 2.61c-.02 3.99.18 4.3 3.25 5.01 1.8.42 4.51.76 6.02.75 1.51 0 2.94-.57 3.17-1.26.23-.69.68-3.16 1-5.5.52-3.83.36-4.29-1.67-4.69-1.24-.24-4.12-.69-6.41-.99-3.14-.42-4.31-.19-4.75.93-.33.83-.6 3.41-.61 5.75zM59 87.5V94h14V81H59m242 35.68c-.27.33.85.27 2.5-.13 1.65-.41 3.9-.93 5-1.15 1.1-.23 2.43-.87 2.95-1.41.6-.63.6-.95 0-.89-.52.05-2.97.74-5.45 1.53s-4.73 1.71-5 2.05zm-13.5 2.21c-1.65.05-5.48.79-8.5 1.64-3.02.86-5.27 1.74-5 1.96.27.22 2.3.01 4.5-.47s7.38-1.42 11.5-2.1c4.13-.68 8.18-1.6 9-2.05 1.1-.59.83-.79-1-.74-1.37.04-3.62.43-5 .87-1.37.44-3.85.84-5.5.89zm-24.5 7.79c-.27.31.4.29 1.5-.05 1.1-.35 3.13-.86 4.5-1.14 1.38-.28 2.93-.96 3.45-1.5.6-.63.6-.96 0-.92-.52.04-2.75.74-4.95 1.55-2.2.82-4.23 1.74-4.5 2.06zm-11 3.88c.27.23 2.64-.26 5.25-1.07 2.61-.82 4.75-1.71 4.75-1.99s-.34-.46-.75-.42c-.41.04-2.77.75-5.25 1.58-2.48.82-4.27 1.68-4 1.9zm-11 4c.27.23 2.64-.26 5.25-1.07 2.61-.82 4.75-1.71 4.75-1.99s-.34-.46-.75-.42c-.41.04-2.77.75-5.25 1.58-2.48.82-4.27 1.68-4 1.9zm-10.25 2.88c-.41-.24-1.17.42-1.67 1.46-.87 1.78-.71 1.83 2.52.75 1.89-.63 3.43-1.49 3.42-1.9-.01-.41.32-.54.73-.28s1.65-.18 2.75-.97 1.55-1.42 1-1.4c-.55.02-2.57.66-4.5 1.41-1.93.76-3.84 1.17-4.25.93z" style="fill:#fffefe"/></svg>