<svg xmlns="http://www.w3.org/2000/svg" viewBox="0 0 186 207" width="186" height="207"><style></style><path id="Path 0" fill-rule="evenodd" d="M138 .42c2.47.25 5.63 1.33 7 2.39 1.38 1.06 3.29 3 4.27 4.31.97 1.31 9.22 23.3 18.34 48.88 9.11 25.58 16.62 47.63 16.69 49 .06 1.38-1.1 4.19-2.59 6.25-2.37 3.28-3.92 4.13-12.46 6.85-5.36 1.71-11.78 4.13-14.25 5.37-2.47 1.25-5.96 3.9-7.75 5.9-1.79 2-3.72 5.54-4.3 7.88-.83 3.35-.73 5.26 2.05 13.75l-2.75 1.01c-1.51.56-2.86.9-2.99.75-.13-.14-2.27-5.77-4.75-12.51s-5.07-12.87-5.76-13.64c-1.05-1.16-2.26-.63-7.45 3.25-3.41 2.55-6.22 5.2-6.25 5.89-.03.69 1.19 2.15 2.7 3.25 2.21 1.62 3 1.76 4.04.75.84-.81 1.57-.9 2.1-.25.44.55 2 4.26 3.46 8.25s2.65 7.7 2.65 8.25c0 .55-1.35 1.22-3 1.5-2.17.36-3 1.06-3 2.5 0 1.1.67 2.68 1.5 3.5.83.82 1.84 1.51 2.25 1.52.41.01 5.14-1.56 20.25-7.02l1.13 3.75c.62 2.06.94 5.55.7 7.75-.23 2.2-1.12 5.13-1.97 6.5-1.29 2.08-8.19 4.87-41.46 16.76-26.13 9.33-41.28 14.25-43.9 14.25-2.2 0-5.58-.84-7.5-1.87-1.92-1.03-4.27-3.17-5.21-4.75-.95-1.59-12.54-33.15-25.75-70.14C7.87 85.02 0 61.69 0 59c0-2.2.63-5.24 1.4-6.75.78-1.51 2.47-3.74 3.75-4.95 1.48-1.38 25.62-10.53 65.35-24.77C125.69 2.75 134.06.01 138 .42zm-21.16 27.26c.91 1.2 2.45 2.44 3.41 2.75.96.31 1.97.12 2.25-.43s.84-1.02 1.25-1.03c.41-.02 2.04 3.46 3.62 7.75 1.59 4.28 3.05 8.34 3.25 9.03.21.69-.07 1.25-.62 1.25s-2.12.45-3.5 1c-2.25.9-2.4 1.29-1.5 4 .6 1.8 1.7 3 2.75 3.01.96.01 5.92-1.45 11.02-3.25 7.5-2.63 9.28-3.64 9.3-5.26.01-1.1-.68-2.56-1.53-3.25-.84-.69-2.78-1.02-4.29-.73-2.71.51-2.81.35-7.17-12.25-2.43-7.02-4.91-13.1-5.5-13.5-.59-.41-1.31-.75-1.59-.75-.28-.01-3.28 2.12-6.67 4.73-6 4.64-6.11 4.8-4.48 6.93zM86.01 36.5c-.04.55.73 1.78 1.71 2.72.98.95 2.48 1.74 3.33 1.75.85.02 1.98-.43 2.5-.99.62-.66 1.96 1.7 3.82 6.75 1.59 4.27 3.05 8.33 3.25 9.02.21.69-.97 1.7-2.62 2.25-2 .67-3 1.67-3 3 0 1.1.67 2.67 1.5 3.5.83.83 1.84 1.49 2.25 1.48.41-.01 4.8-1.48 9.75-3.26 7.42-2.68 9.04-3.64 9.25-5.49.14-1.22-.42-2.9-1.25-3.73-1.14-1.14-2.1-1.26-4-.5-1.84.74-2.63.67-2.98-.25-.26-.69-2.28-6.31-4.5-12.5-2.21-6.19-4.66-11.91-5.45-12.72-1.25-1.29-2.17-.88-7.45 3.25-3.32 2.6-6.06 5.17-6.11 5.72zm-29.3 6.19c-1.53 1.54-3.05 4.39-3.38 6.31-.32 1.92-.32 5.3.01 7.5s1.74 6.36 3.13 9.25c1.44 2.98 3.93 6.2 5.78 7.44 1.79 1.2 5.05 2.38 7.25 2.62 2.49.28 5.23-.17 7.25-1.18 1.79-.9 4.17-2.87 5.28-4.38 1.42-1.91 2.03-4.27 2.03-7.75-.01-2.75-.73-7.02-1.59-9.5-.87-2.48-2.68-5.96-4.03-7.75-1.34-1.79-3.45-3.88-4.69-4.65-1.24-.77-3.6-1.64-5.25-1.92-1.65-.29-4.35-.13-6 .34-1.65.47-4.26 2.12-5.79 3.67zm-36.8 13.94c-1.44 2.09-1.98 4.51-1.96 8.87.01 4.78.68 7.32 3.28 12.45 2.02 3.99 4.42 7.15 6.27 8.25 1.65.99 4.35 2.08 6 2.43 2.02.42 4.47-.04 7.5-1.42 3.25-1.48 5.03-3.12 6.38-5.88 1.36-2.75 1.74-5.11 1.37-8.33-.29-2.47-1.5-6.75-2.69-9.5-1.2-2.75-3.16-6.06-4.37-7.35-1.2-1.28-3.43-2.97-4.94-3.75-1.51-.77-3.99-1.38-5.5-1.36-1.51.02-4.24.64-6.05 1.38-1.82.74-4.2 2.64-5.29 4.21zm117.1 14.52c-.81 1.84-1.38 5.49-1.25 8.1.13 2.61 1.14 6.89 2.23 9.5 1.09 2.61 3.6 6.33 5.57 8.25 2.99 2.93 4.42 3.56 8.76 3.84 4.16.27 5.87-.13 8.68-2.03 2.27-1.54 4.03-3.87 5-6.62 1.36-3.85 1.34-4.85-.25-10.72-.96-3.56-2.89-8.16-4.29-10.22-1.4-2.06-3.76-4.53-5.25-5.49-1.56-1.01-4.62-1.74-7.21-1.74-2.66.01-5.73.78-7.5 1.89-1.65 1.04-3.67 3.39-4.49 5.24zm-33.74 9.57c-1.34 1.59-2.62 4.71-2.96 7.28-.4 2.94-.03 6.32 1.04 9.75.91 2.89 2.66 6.8 3.9 8.7 1.24 1.9 3.83 4.36 5.75 5.47 1.92 1.11 5.08 2.03 7 2.04 1.92.02 4.96-.87 6.75-1.96 1.79-1.1 4.01-3.24 4.93-4.75 1.3-2.12 1.57-4.24 1.18-9.25-.37-4.59-1.37-8.07-3.44-11.85-1.61-2.94-4.27-6.18-5.92-7.2-1.65-1.02-4.35-2.08-6-2.35-1.65-.27-4.54-.08-6.43.43-1.89.5-4.5 2.17-5.8 3.69zM66.91 94.63c-1.37 1.99-1.97 4.48-1.94 8.12.01 2.89.92 7.61 2.01 10.5 1.09 2.89 3.23 6.57 4.75 8.18 1.52 1.61 4.23 3.52 6.02 4.25 1.79.73 4.04 1.31 5 1.31.96-.01 3.55-.89 5.75-1.97 2.2-1.07 4.79-3.31 5.75-4.98.96-1.67 1.75-4.84 1.75-7.04s-.74-6.14-1.64-8.75c-.9-2.61-2.59-6.19-3.75-7.95-1.16-1.77-3.69-4.11-5.61-5.22-1.92-1.11-4.85-2.01-6.5-2.01-1.65.01-4.49.61-6.3 1.35-1.82.74-4.2 2.64-5.29 4.21zm-33.66 16.99c.69.89 2.04 2.01 3 2.5 1.02.51 2.48.5 3.5-.03 1.51-.78 2.19.3 5 8L48 131c-5.67 2.01-6.85 2.99-6.53 3.75.29.69.53 1.7.53 2.25s.79 1.43 1.75 1.95c1.27.69 4.37.03 11.25-2.42 9.14-3.24 9.49-3.48 9.25-6.2-.14-1.56-.81-3.16-1.5-3.57-.69-.41-1.81-.52-2.5-.25s-1.81.72-2.5 1c-.83.33-2.23-2.3-4.14-7.75-1.58-4.54-3.69-10.51-4.68-13.26-.99-2.75-2.45-5.29-3.25-5.64-.89-.39-3.8 1.25-7.56 4.25-5.26 4.2-5.94 5.12-4.87 6.51zm51.6 30.82c-1.96 2.28-2.35 3.83-2.34 9.39 0 5.2.61 7.94 2.75 12.42 1.64 3.45 4.04 6.62 5.99 7.94 1.79 1.2 5.05 2.39 7.25 2.63 2.64.29 5.32-.2 7.89-1.44 2.14-1.03 4.5-3.12 5.25-4.63.75-1.51 1.37-4.89 1.37-7.5.01-2.61-.75-7-1.69-9.75-1.06-3.1-3.34-6.61-6.02-9.25-3.88-3.83-4.77-4.24-9.05-4.19-2.61.04-5.72.42-6.9.86-1.18.43-3.2 2.01-4.5 3.52zm-35 16.32c.12.41.76 1.44 1.43 2.3.67.86 2.01 1.87 2.97 2.25.96.38 1.98.24 2.25-.31s.95-1 1.5-1 2.35 3.82 4 8.5 3 8.72 3 9c0 .28-1.58.95-3.5 1.5-3.35.96-3.46 1.13-2.5 4 .67 2 1.67 3 3 3 1.1 0 6.07-1.46 11.03-3.25 8.43-3.03 9.04-3.44 9-6-.02-2.03-.62-2.88-2.28-3.24-1.24-.27-3.13-.38-4.21-.25-1.65.2-2.65-1.69-6.43-12.26-2.46-6.87-4.95-12.83-5.54-13.23-.59-.41-1.3-.75-1.57-.75-.27-.01-3.17 2.01-6.43 4.5-3.26 2.48-5.83 4.84-5.72 5.24zM66.8 46.19c.89.17 2.66 1.89 3.93 3.81 1.27 1.92 2.83 5.75 3.47 8.5.99 4.28.92 5.39-.52 7.75-.97 1.59-2.42 2.64-3.43 2.5-1.01-.14-2.89-2.59-4.43-5.75-1.48-3.02-2.96-7.08-3.29-9-.41-2.42-.09-4.22 1.03-5.81.9-1.27 2.36-2.17 3.24-2zM32.81 59.28c.83.67 2.56 3.47 3.84 6.22 1.28 2.75 2.33 6.91 2.34 9.25.01 2.46-.62 4.88-1.49 5.75-.83.83-2.06 1.37-2.75 1.21-.69-.16-2.51-2.75-4.05-5.75-1.55-3-3.07-7.49-3.4-9.96-.51-3.91-.29-4.73 1.71-6.22 1.85-1.38 2.6-1.48 3.8-.5zM149.82 71.2c.86.17 2.7 2.55 4.08 5.3 1.39 2.75 2.77 7.08 3.06 9.63.39 3.31.11 5.1-.96 6.29-.82.92-2.29 1.65-3.25 1.62-1.13-.02-2.7-2.07-4.44-5.79-1.48-3.16-2.89-7.55-3.13-9.75-.32-2.91.05-4.49 1.33-5.8.96-.99 2.46-1.66 3.31-1.5zm-36.46 12.77c.63-.02 1.92.77 2.86 1.75.95.98 2.64 4.14 3.75 7.03 1.12 2.89 2.03 6.26 2.04 7.5 0 1.24-.67 3.26-1.5 4.5-.83 1.24-2.18 2.25-3.01 2.25-.85 0-2.79-2.7-4.5-6.25-1.65-3.44-3.11-7.87-3.25-9.85-.14-1.99.36-4.35 1.11-5.25.75-.91 1.88-1.66 2.5-1.68zM80.3 97.67c1.09 1.01 2.65 3.41 3.48 5.33.83 1.92 1.85 5.08 2.27 7 .42 1.92.36 4.74-.14 6.25-.67 2.02-1.57 2.75-3.41 2.75-2.04 0-2.95-.97-4.95-5.25-1.35-2.89-2.77-7.05-3.15-9.25-.58-3.38-.33-4.36 1.62-6.33 2.24-2.27 2.36-2.28 4.28-.5zm105.29 15.36c.05-.02-.54 2.78-1.31 6.22-.76 3.44-3.19 10.07-5.39 14.75-2.2 4.68-6.08 11.88-8.63 16-2.55 4.13-7.09 10.88-10.08 15-2.99 4.13-5.72 7.81-6.06 8.2-.34.38-.62-1.87-.62-5 0-4.23-1-8.28-3.87-15.7-3.04-7.85-3.73-10.8-3.25-13.75.34-2.06 1.86-5.15 3.37-6.86s5.45-4.37 8.75-5.91c3.3-1.53 9.26-3.73 13.25-4.89 4.56-1.31 8.46-3.19 10.5-5.06 1.79-1.63 3.29-2.98 3.34-3zM95.8 145.19c.89.17 2.56 1.66 3.7 3.31 1.15 1.65 2.68 5.47 3.4 8.5.72 3.03 1.03 6.51.7 7.75-.33 1.24-1.61 2.53-2.85 2.87-1.65.45-2.74-.02-4.07-1.75-1.01-1.3-2.69-5.41-3.75-9.12-1.78-6.24-1.81-6.94-.33-9.31.87-1.41 2.32-2.42 3.2-2.25z" style="fill:#fff"/></svg>