<svg xmlns="http://www.w3.org/2000/svg" viewBox="0 0 579 512" width="579" height="512"><style></style><path id="Path 0" fill-rule="evenodd" d="M328 .49c19.02.24 32.33.89 40 1.96 6.32.89 16.68 2.68 23 3.98 6.32 1.3 16.45 3.79 22.5 5.54 6.05 1.74 15.27 4.76 20.5 6.69 5.23 1.93 15.35 6.36 22.5 9.83 7.15 3.48 17.05 8.87 22 11.99 4.95 3.12 13.27 8.88 18.5 12.79 5.23 3.92 14.16 11.65 19.86 17.18 5.7 5.53 13.09 13.43 16.42 17.55 3.33 4.13 9.04 12 12.68 17.5 3.64 5.5 9.17 15.17 12.27 21.5 3.11 6.32 7.53 17.13 9.82 24 2.3 6.88 5.25 17.68 6.55 24 1.31 6.32 2.91 18.47 3.57 27 .89 11.76.9 18.64.04 28.5-.63 7.15-2.07 17.5-3.21 23-1.14 5.5-3.88 15.4-6.1 22-2.22 6.6-6.53 16.95-9.58 23-3.06 6.05-7.58 14.15-10.06 18-2.48 3.85-6.79 9.93-9.57 13.5-2.79 3.57-7.79 9.56-11.13 13.31-3.33 3.75-10.28 10.5-15.43 15-5.16 4.5-12.81 10.71-17 13.8-4.2 3.08-11.9 8.22-17.13 11.41-5.23 3.19-14.9 8.37-21.5 11.52-6.6 3.14-16.5 7.39-22 9.44s-15.4 5.27-22 7.17c-6.6 1.89-17.4 4.53-24 5.86-6.6 1.33-17.62 3.14-24.5 4.02-6.87.87-20.82 1.85-31 2.16-10.54.32-25.39.06-34.5-.6-8.8-.65-22.07-2.02-29.5-3.06s-19.35-3.06-26.5-4.5c-7.15-1.44-19.97-4.4-28.5-6.57-8.53-2.18-21.46-5.87-41.97-12.46l-.08 89 8.78 3.39c6.2 2.39 10.01 4.6 12.98 7.5 2.68 2.61 4.22 5.02 4.25 6.61.02 1.38-.87 3.96-3.96 9H87l-1.97-3.25c-1.08-1.79-1.98-4.26-2-5.5-.02-1.24 1.43-3.9 3.22-5.92 1.79-2.02 5.95-4.9 9.25-6.4s7.91-3.22 14.5-4.93l.09-382.5-3.79 2.93c-2.09 1.6-7.4 5.94-11.8 9.64-4.4 3.69-12.67 11.38-18.38 17.07-5.71 5.7-13.76 14.86-17.88 20.36-4.12 5.5-8.34 11.69-9.37 13.75-1.74 3.5-1.77 4.17-.38 10 .81 3.44 1.49 8.16 1.5 10.5 0 2.34-.59 5.71-1.31 7.5-.73 1.79-2.64 4.28-4.25 5.53-1.61 1.26-4.05 2.27-5.43 2.25-2.17-.04-4.92-3.82-20.75-28.54C1.02 147.6.08 145.87 1.42 143.75c.78-1.24 7.81-8.1 15.62-15.25s19.44-17.2 25.83-22.33c6.4-5.13 17.48-13.51 24.63-18.63 7.15-5.11 17.5-12.13 23-15.59 5.5-3.46 13.6-8.4 18-10.97 4.4-2.57 13.63-7.64 20.5-11.26 6.88-3.62 18.57-9.27 26-12.55 7.43-3.29 18.22-7.77 24-9.96 5.78-2.19 15.56-5.61 21.75-7.59 6.19-1.99 17.21-5.17 24.5-7.06 7.29-1.89 17.97-4.35 23.75-5.47 5.78-1.11 15.45-2.73 21.5-3.58 6.05-.85 15.05-1.96 20-2.46 4.95-.5 21.82-.75 37.5-.56zm-55.5 35.97c-8.25 1.39-21.53 4.3-29.5 6.47-7.97 2.18-18.1 5.29-22.5 6.92-4.4 1.63-11.82 4.61-16.5 6.63-4.68 2.01-10.97 5.05-14 6.75-3.03 1.69-8.1 4.7-11.29 6.68l-5.79 3.59c.06 222.81.19 287.5.33 287.49.14 0 4.75 1.83 10.25 4.07s15.18 5.65 21.5 7.56c6.32 1.92 16.45 4.58 22.5 5.92 6.05 1.34 16.63 3.34 23.5 4.44 6.88 1.1 21.5 2.73 32.5 3.63 13.71 1.11 25.5 1.44 37.5 1.06 9.63-.31 22.45-1.31 28.5-2.23 6.05-.91 16.63-3.2 23.5-5.1 6.88-1.89 17.23-5.43 23-7.87 5.77-2.44 14.55-6.74 19.5-9.56 4.95-2.82 12.53-7.67 16.85-10.77 4.32-3.1 11.07-8.61 15-12.23 3.93-3.63 10.36-10.38 14.28-15 3.92-4.63 9.74-12.46 12.95-17.41 3.2-4.95 7.73-13.05 10.06-18 2.33-4.95 5.6-13.05 7.27-18 1.66-4.95 3.91-13.27 5-18.5 1.08-5.22 2.45-13.89 3.03-19.25.58-5.36 1.06-13.69 1.06-18.5 0-4.81-.47-13.7-1.04-19.75-.56-6.05-2.12-16.4-3.45-23-1.32-6.6-4.04-16.72-6.04-22.5-2-5.78-5.64-14.78-8.1-20-2.47-5.22-7.77-14.45-11.78-20.5-4.35-6.54-11.72-15.61-18.2-22.39-5.99-6.26-15.62-14.92-21.39-19.25-5.77-4.33-16.12-10.75-23-14.28-6.87-3.52-17.23-8.05-23-10.05-5.77-2.01-14.1-4.49-18.5-5.52-4.4-1.03-13.18-2.55-19.5-3.38-6.32-.82-17.12-1.7-24-1.95-6.87-.25-17.68-.07-24 .41-6.32.47-18.25 1.99-26.5 3.37z" style="fill:#fff"/></svg>