<svg xmlns="http://www.w3.org/2000/svg" viewBox="0 0 117 97" width="117" height="97"><style></style><path id="Path 0" d="M38.05.66c-.89.31-1.37 1.63-1.25 3.42.11 1.61 2.68 7.2 5.7 12.42 3.02 5.23 7.92 13.66 10.87 18.75 2.95 5.09 5.48 10.15 5.61 11.25.14 1.1.2 2.9.15 4-.06 1.1-4.89 10.1-10.73 20-5.84 9.9-11.03 19.13-11.54 20.5-.5 1.38-.68 3.29-.39 4.25C36.96 96.86 39.11 97 63 97h26c4.59-4.26 8.25-9.55 11.1-14.5 2.84-4.95 7.79-13.5 11-19 4.7-8.06 5.84-10.87 5.88-14.5.04-3.83-1.07-6.44-7.49-17.5-4.14-7.15-7.53-13.11-7.51-13.25.01-.14-2.01-3.4-4.48-7.25-2.47-3.85-5.96-7.9-7.75-9C86.73.15 84.81.01 63 .08c-12.93.04-24.15.3-24.95.58zM21.4 7.75C19.98 9.81 14.59 18.7 9.42 27.5.99 41.86.02 44.01 0 48.5c-.03 4.44.82 6.45 7.57 18C11.74 73.65 16.3 81.53 17.7 84c1.39 2.47 3.38 5.74 4.42 7.25 1.09 1.6 2.82 2.76 4.13 2.78 1.24.02 2.95-.77 3.8-1.75.85-.98 3.16-4.48 5.13-7.78 1.96-3.3 4.3-7.46 5.19-9.25.9-1.79 1.62-5.39 1.61-8-.01-3.4-.86-6.24-3-10-1.68-2.95-2.96-6.67-2.94-8.5.02-1.79 1.37-5.73 3-8.75C41.13 36.11 42 33.11 42 29.75c0-3.97-.98-6.47-6-15.25C30.47 4.82 29.76 4 26.99 4c-2.35 0-3.57.82-5.59 3.75z" style="fill:#fff"/></svg>