<svg xmlns="http://www.w3.org/2000/svg" viewBox="0 0 187 186" width="187" height="186"><style></style><path id="Path 0" fill-rule="evenodd" d="M61.48 0c.84 0 16.03 6.25 33.77 13.88 17.74 7.64 45.07 19.4 60.75 26.14 15.68 6.74 29.18 12.85 30 13.57 1.31 1.15.19 4.43-8.9 26.11-5.71 13.64-11.62 27.72-13.12 31.3-1.51 3.58-6.44 15.5-10.97 26.5-4.52 11-10.83 26.3-14.01 34-3.18 7.7-6.39 14.12-7.14 14.27-.75.15-30.61-13.42-66.36-30.15C22.59 135.54.42 124.65.25 123.6c-.14-.88 2.18-6.66 5.14-12.85 2.96-6.19 16.45-33.64 29.98-61C51.71 16.69 60.47 0 61.48 0zm21.77 82.75c-1.51 3.16-3.02 5.97-3.35 6.25-.34.28-.65 1.85-.7 3.5-.08 2.86.38 3.21 10.03 7.5 5.57 2.47 10.38 4.63 10.7 4.79.31.15 2.6-4.07 5.07-9.4 2.47-5.32 4.61-10.06 4.75-10.53.14-.48-3.79-2.77-8.72-5.11-4.93-2.34-8.76-4.59-8.5-5 .26-.41-.2-.97-1.03-1.25-.83-.28-2.4-.5-3.5-.5-1.33 0-2 .67-2 2 0 1.1-1.24 4.59-2.75 7.75z" style="opacity:.992;fill:#fefdfc"/></svg>