<svg xmlns="http://www.w3.org/2000/svg" viewBox="0 0 649 689" width="649" height="689"><style></style><path id="Path 0" fill-rule="evenodd" d="M327 .37c31.79.29 32.72.35 42.5 3.01 5.5 1.5 12.02 3.41 14.5 4.25 2.48.84 8.33 3.1 13 5.02 4.67 1.93 12.33 5.58 17 8.11 4.67 2.54 12.1 6.93 16.5 9.76s12.5 8.78 18 13.22c5.5 4.44 15.17 13.28 21.5 19.65 9.21 9.29 12.2 11.71 15 12.16 1.92.31 9.8 2.38 17.5 4.58 7.7 2.21 19.4 6.27 26 9.02 6.6 2.75 14.7 6.48 18 8.29 3.3 1.8 7.8 4.3 10 5.54 2.2 1.24 7.83 4.88 12.5 8.08s12.75 9.56 17.95 14.13c5.19 4.57 12.55 11.91 16.36 16.31 3.8 4.4 10.07 12.72 13.92 18.5 3.86 5.78 8.93 14.32 11.27 19s5.88 12.89 7.87 18.25c2 5.36 4.75 14.36 6.13 20 1.37 5.64 3.22 15.43 4.11 21.75 1.27 9.02 1.49 16.14 1.04 33-.38 14.15-1.23 25.26-2.48 32.5-1.05 6.05-3.56 17.07-9.28 38l3.09 10.5c1.7 5.77 4.2 16.46 5.56 23.75 1.35 7.29 2.94 19.66 3.53 27.5.59 7.84.78 19.43.42 25.75-.37 6.32-1.31 16-2.11 21.5-.79 5.5-2.62 14.5-4.05 20-1.44 5.5-4.16 14.05-6.03 19-1.88 4.95-5.9 13.73-8.93 19.5-3.02 5.77-8.38 14.55-11.91 19.5-3.53 4.95-9.01 11.88-12.18 15.4-3.18 3.52-6.79 6.78-8.03 7.25-1.24.47-2.81 2.07-3.5 3.56-.69 1.49-4.4 5.36-8.25 8.6-3.85 3.24-11.95 9.2-18 13.24-6.05 4.04-17.52 10.48-25.5 14.31s-19.23 8.57-25 10.52c-5.77 1.95-15.67 4.86-33.5 9.38l-11 11.22c-6.05 6.17-15.5 14.85-21 19.3-5.5 4.44-14.27 10.89-19.5 14.32-5.23 3.43-14.45 8.7-20.5 11.71-6.05 3-15.27 7.05-20.5 9-5.23 1.94-13.32 4.5-18 5.68-4.68 1.19-12.77 2.77-18 3.51-5.23.75-14 1.64-19.5 2-5.5.35-16.07.14-23.5-.47s-18-2.02-23.5-3.14-15.18-3.77-21.5-5.9c-6.32-2.12-15.77-5.84-21-8.27-5.23-2.42-13.77-7.03-19-10.24s-13.77-9-19-12.88c-5.23-3.88-16.02-13.46-38.5-35.54l-10.5-2.52c-5.77-1.39-15.45-4.14-21.5-6.11-6.05-1.97-17.75-6.84-26-10.82-8.25-3.99-19.5-10.17-25-13.74-5.5-3.57-14.05-9.9-19-14.07-4.95-4.17-11.03-9.76-13.51-12.44-2.47-2.67-6.8-7.56-9.61-10.86-2.82-3.3-7.71-9.83-10.88-14.5-3.16-4.67-8.6-14.35-12.09-21.5-3.48-7.15-7.71-17.27-9.4-22.5-1.7-5.23-3.94-13.77-4.99-19-1.05-5.23-2.38-13.1-2.95-17.5-.58-4.46-.87-18.19-.65-31 .27-15.57.93-25.91 2.06-32 .91-4.95 2.71-13.5 4.01-19 1.3-5.5 3.07-12.14 3.93-14.75 1.51-4.55 1.48-5.12-.9-13.5-1.36-4.81-3.37-12.57-4.45-17.25s-2.69-13.45-3.56-19.5C1.63 293.45.65 282.43.33 275c-.33-7.61-.07-19.18.59-26.5.65-7.15 2.08-17.5 3.18-23 1.11-5.5 3.73-15.18 5.83-21.5s6.08-16.22 8.85-22c2.77-5.78 8.05-15 11.73-20.5 3.69-5.5 9.92-13.78 13.84-18.39 3.93-4.61 10.53-11.4 14.65-15.08 4.13-3.68 10.43-8.91 14-11.63 3.57-2.72 10.55-7.46 15.5-10.53 4.95-3.07 12.15-7.18 16-9.12 3.85-1.95 10.82-5.12 15.5-7.05 4.68-1.94 12.77-4.88 18-6.54 5.23-1.66 12.88-3.91 17-5 4.13-1.09 9.19-2.25 11.25-2.57 2.4-.38 3.75-1.13 3.75-2.09 0-.83 4.84-6.29 10.75-12.15 5.91-5.85 14.35-13.54 18.75-17.08 4.4-3.54 12.73-9.59 18.5-13.45 5.77-3.86 16.35-9.86 23.5-13.35 7.15-3.48 17.95-7.94 24-9.91 6.05-1.96 15.05-4.45 20-5.53C293.59.27 297.78.11 327 .37zm-40 38.75c-4.12 1.16-10.76 3.41-14.75 5-3.99 1.58-11.19 4.85-16 7.26-4.81 2.41-13.02 7.25-18.25 10.75l-9.5 6.37c25.57 1.06 37.73 1.87 43.5 2.47 5.77.61 17.02 2.23 25 3.6s17.2 3.1 20.5 3.84c5.68 1.28 6.85 1.18 22-1.91 8.8-1.8 21.85-4.04 29-4.99 7.15-.95 19.3-1.95 27-2.23 7.7-.27 15.58-.57 17.5-.67 1.92-.09 3.65-.6 3.83-1.14.19-.53-2.74-3.12-6.5-5.75S399 54.64 393.5 51.84c-5.5-2.8-12.25-5.99-15-7.08-2.75-1.1-9.5-3.32-15-4.93-5.5-1.61-14.27-3.58-19.5-4.37-5.23-.8-14.45-1.41-20.5-1.36-6.05.05-15.05.73-20 1.5-4.95.78-12.37 2.36-16.5 3.52zm115.47 66.9c.57.01 9.58 4.25 20.03 9.42 10.45 5.18 24.4 12.63 31 16.57 6.6 3.94 18.08 11.27 25.5 16.28l13.5 9.12c-6.06-10.78-10.09-17.51-12.87-21.91-2.77-4.4-8.33-12.5-12.33-18l-7.29-10c-17.45-2.12-30.12-3.02-39.41-3.36-12.92-.49-17.17-.35-18.03.61-.71.79-.75 1.26-.1 1.27zm-205.79 1.1c-6.08.68-9.81 1.54-9.78 2.24.02.63-1.43 2.94-3.22 5.14-1.8 2.2-4.83 6.25-6.76 9-1.92 2.75-5.32 7.93-7.57 11.5-2.24 3.57-6.16 10.21-8.71 14.75L156 158c11.24-7.93 17.65-12.29 21.5-14.8 3.85-2.51 12.18-7.66 18.5-11.45 6.32-3.79 20.5-11.36 31.5-16.83l20-9.95c-27.12.25-36.35.49-38 .68-1.65.2-7.42.86-12.82 1.47zM272 134.94c-6.87 2.89-18.8 8.34-26.5 12.11-7.7 3.78-17.02 8.57-20.7 10.66-3.69 2.08-9.99 5.78-14 8.21-4.02 2.43-11.12 6.98-15.8 10.11-4.68 3.13-13.9 9.71-20.5 14.63-6.6 4.93-15.82 12.2-20.5 16.18-4.68 3.97-11.65 10.33-15.5 14.12-3.85 3.79-7.9 7.04-9 7.23-1.39.23-2.09 1.24-2.31 3.32-.16 1.64-1.83 9.96-3.69 18.49-1.87 8.52-4.29 21.57-5.39 29-1.09 7.43-2.56 18.9-3.26 25.5-.73 6.83-1.25 23.84-1.22 39.5.03 18.91.58 32.34 1.76 43 .94 8.52 2.82 22.02 4.19 30 1.36 7.98 3.59 19.11 4.95 24.75 1.36 5.64 2.47 11.15 2.47 12.25 0 1.11 2.08 3.89 4.67 6.25 2.57 2.34 7.64 7 11.25 10.35 3.62 3.36 11.57 10.11 17.67 15 6.1 4.9 16.68 12.88 23.5 17.74 6.83 4.87 20.06 13.39 29.41 18.95 9.35 5.56 24.2 13.58 33 17.82 8.8 4.25 21.63 9.96 28.5 12.7 6.88 2.74 19.7 7.31 28.5 10.18 8.8 2.86 16.9 5.63 18 6.15 1.48.71 5.14.01 14-2.65 6.6-1.99 17.18-5.45 23.5-7.71 6.32-2.25 16.68-6.33 23-9.06 6.33-2.74 17.13-7.79 24-11.23 6.88-3.43 17-8.83 22.5-11.98 5.5-3.15 15.85-9.57 23-14.27 7.15-4.69 16.6-11.24 21-14.56 4.4-3.31 12.95-10.16 19-15.21 6.05-5.04 15.05-12.94 20-17.53 8.52-7.92 9.09-8.71 10.74-14.9.96-3.6 3.11-13.74 4.78-22.54 1.67-8.8 3.91-23.2 4.98-32 1.07-8.8 2.39-23.43 2.94-32.5.55-9.07 1.02-20.32 1.05-25 .03-4.68-.37-15.02-.89-23s-1.67-20.12-2.56-27c-.88-6.87-2.74-18.12-4.13-25-1.38-6.87-3.84-17.45-5.46-23.5-1.81-6.73-3.67-11.58-4.8-12.5-1.02-.82-2.15-2.29-2.51-3.25-.35-.96-1.31-1.75-2.14-1.75-.83 0-4.31-2.61-7.75-5.81-3.44-3.19-9.85-8.74-14.25-12.33s-11.83-9.43-16.5-12.98c-4.67-3.55-13.23-9.63-19-13.52-5.77-3.88-15.56-10.05-21.75-13.71-6.19-3.66-18.79-10.41-28-15.01s-23.5-11.07-31.75-14.38c-8.25-3.31-19.95-7.6-26-9.55-6.05-1.95-14.04-4.48-17.75-5.63-3.71-1.14-7.09-2.06-7.5-2.03-.41.02-9.3 2.88-19.75 6.34-10.45 3.47-24.62 8.66-31.5 11.55zm-170.5 6.79c-4.95 3.41-12.78 9.7-17.41 13.98-4.62 4.28-10.97 10.94-14.11 14.79-3.13 3.85-7.6 9.93-9.92 13.5-2.33 3.57-6.41 11-9.07 16.5s-6 13.6-7.41 18c-1.42 4.4-3.5 12.5-4.62 18-1.13 5.5-2.32 15.18-2.64 21.5-.33 6.32-.28 16 .11 21.5l.7 10c10.14-17.05 15.61-25.6 18.69-30 3.08-4.4 7.83-10.93 10.56-14.5 2.73-3.57 6.06-7.85 7.41-9.5 1.34-1.65 5.43-6.36 9.08-10.46 3.64-4.11 8.33-9.28 10.41-11.5 2.08-2.22 3.77-4.83 3.75-5.79-.02-.96 2.38-8.61 5.33-17s7.28-19.75 9.62-25.25c2.35-5.5 6.97-15.4 10.28-22 3.31-6.6 7.05-13.69 8.31-15.75 1.25-2.06 2.2-3.74 2.11-3.73-.1.02-5.13 2.61-11.18 5.78-6.05 3.16-15.05 8.53-20 11.93zM534.39 160c3.52 7.97 8.88 21.47 11.91 30 3.04 8.53 5.78 17.19 6.11 19.25.38 2.4 1.13 3.75 2.09 3.75.83 0 4.25 3.04 7.62 6.75 3.36 3.71 10.27 11.93 15.36 18.25s13.06 17.13 17.72 24c4.66 6.88 9.95 15.2 11.76 18.5 2.51 4.57 3.5 5.64 4.15 4.5.47-.82.87-4.09.87-7.25.01-3.16.47-5.98 1.02-6.25.55-.27 1-2.75 1-5.5s-.45-5.23-1-5.5c-.55-.27-1-2.52-1-5 0-2.47-.49-7.76-1.08-11.75-.59-3.99-1.97-10.85-3.06-15.25-1.1-4.4-3.05-10.93-4.34-14.5-1.29-3.57-3.46-8.97-4.81-12-1.35-3.03-4.44-8.87-6.87-13-2.43-4.12-6.78-10.65-9.66-14.5-2.87-3.85-8.83-10.6-13.24-15-4.4-4.4-10.35-9.86-13.22-12.12-2.87-2.27-8.59-6.38-12.72-9.13-4.12-2.75-11.66-7.08-16.75-9.62-5.09-2.55-9.4-4.63-9.57-4.63-.18 0 2.29 4.84 5.49 10.75s8.7 17.28 12.22 25.25zm36 178.5c.06 18.7-.25 39.4-.7 46l-.8 12c3.72-5.43 6.04-9.25 7.56-12 1.52-2.75 4.39-7.93 6.38-11.5 1.99-3.57 5.95-11.9 8.8-18.5l5.18-12c-5.06-11.62-8.68-19.27-11.3-24.5-2.63-5.23-7.23-13.55-10.23-18.5-3-4.95-5.76-9.31-6.12-9.69-.36-.38-.26 2.77.23 7s.94 22.99 1 41.69zM62.99 320c-3.17 6.32-6.94 14.31-8.38 17.75L52 344c4.06 9.69 7.71 17.45 10.74 23.5 3.02 6.05 8.03 15.17 11.13 20.27 3.1 5.1 5.76 9.15 5.91 9 .15-.15-.23-6.57-.85-14.27-.62-7.7-1.12-25.48-1.11-39.5.01-14.02.57-31.29 1.26-38.37.68-7.08 1.02-13.07.76-13.33-.27-.25-2.87 3.51-5.78 8.37-2.92 4.86-7.9 14.01-11.07 20.33zm533.15 102.5c-5.15 7.7-11.66 16.93-14.46 20.5-2.8 3.57-8.71 10.68-13.14 15.79-4.42 5.1-8.49 9.27-9.04 9.24-.55-.02-1.56 1.32-2.25 2.97-.69 1.65-2.37 3.45-3.75 4-1.96.78-2.5 1.71-2.48 4.25.02 1.79-1.75 8.43-3.91 14.75-2.17 6.32-5.74 16-7.93 21.5-2.2 5.5-6.22 14.73-8.93 20.5s-6.81 13.88-9.11 18c-2.3 4.13-4.06 7.63-3.91 7.78.15.16 4.1-1.65 8.77-4.02 4.67-2.36 12.55-6.94 17.5-10.18 4.95-3.23 12.75-9.07 17.33-12.98 4.59-3.9 11.26-10.47 14.84-14.6 3.57-4.12 8.89-11.1 11.82-15.5 2.93-4.4 7.12-11.6 9.33-16s4.96-10.48 6.11-13.5c1.16-3.02 3.22-9.55 4.59-14.5 1.37-4.95 3.15-13.95 3.96-20 .82-6.05 1.49-14.82 1.49-19.5.01-4.68-.23-11.54-.54-15.25-.3-3.71-.88-6.75-1.29-6.75-.41 0-1.84 2.14-3.19 4.75-1.34 2.61-6.66 11.05-11.81 18.75zm-559.64-9c-.41 6.62-.23 15.18.47 21.5.63 5.77 1.99 14.32 3 19 1.02 4.68 3.05 12.1 4.52 16.5 1.47 4.4 4.85 12.5 7.52 18 2.68 5.5 7.7 14.04 11.18 18.98 3.47 4.93 9.69 12.53 13.81 16.88 4.13 4.35 10.65 10.47 14.5 13.6 3.85 3.13 9.7 7.52 13 9.75 3.3 2.23 10.72 6.57 16.5 9.65 5.78 3.08 10.84 5.61 11.25 5.62.41.01-.91-2.79-2.94-6.23-2.03-3.44-6.48-12.1-9.89-19.25s-8.67-19.3-11.7-27c-3.03-7.7-7.24-19.3-9.36-25.77-2.22-6.77-4.39-11.77-5.11-11.75-.69.01-4.32-3.47-8.08-7.73-3.75-4.26-10.64-12.48-15.3-18.25s-12.78-17.02-18.05-25c-5.26-7.98-10.3-15.96-11.2-17.75-.89-1.79-1.82-3.25-2.07-3.25-.25 0-.65.34-.9.75s-.77 5.7-1.15 11.75zm130.3 134c3.03 4.95 9.26 14.17 13.83 20.5l8.33 11.5c21.34 2.01 29.11 2.81 31.04 3.08 1.93.26 7.26.58 11.84.7 4.59.12 8.53-.12 8.75-.53.23-.41 2.1-.78 4.16-.81l3.75-.07c-5.43-2.49-13.3-6.26-21-9.98-7.7-3.72-20.52-10.52-28.5-15.12s-20.11-12.16-26.98-16.81c-6.86-4.65-12.99-8.84-13.63-9.3-.64-.45-.25 1.12.87 3.5 1.12 2.39 4.51 8.39 7.54 13.34zm289.7 5.42c-7.15 4.29-18.62 10.69-25.5 14.24-6.87 3.54-16.55 8.35-21.5 10.69l-9 4.24c31.77-.68 45.27-1.43 50.5-2.1l9.5-1.22c10.85-14.8 16.51-23.19 19.59-28.18 3.07-5 6.93-11.68 8.58-14.84 1.65-3.16 2.74-5.71 2.42-5.66-.33.05-5.32 3.45-11.09 7.56-5.77 4.11-16.35 10.98-23.5 15.27zM281 615.11c-9.13 1.24-22.9 2.26-33.5 2.48-9.9.21-18.1.49-18.23.64-.12.15 4.38 3.36 10 7.13 5.63 3.77 14.73 9.03 20.23 11.68 5.5 2.66 14.05 6.23 19 7.94 4.95 1.71 13.5 4.07 19 5.24 7.88 1.69 13.5 2.14 26.5 2.16 11.75.01 19.09-.49 25.5-1.75 4.95-.97 13.73-3.32 19.5-5.22s15.23-5.81 21-8.69 14.93-8.16 20.34-11.73l9.84-6.49c-32.3-1.79-47.3-3.08-54.18-4.01-6.87-.93-19.02-2.99-27-4.59-7.98-1.59-14.73-2.83-15-2.75-.27.07-6.57 1.42-14 2.99-7.43 1.57-20.48 3.81-29 4.97z" style="fill:#fff"/></svg>