<svg xmlns="http://www.w3.org/2000/svg" viewBox="0 0 225 225" width="225" height="225"><style></style><path id="Path 0" d="M104.64 4.47c-.7 1.91-1.36 4.38-1.46 5.5-.1 1.12-.63 2.03-1.18 2.03-.55 0-1.29 1.69-1.64 3.75-.35 2.06-1.26 4.65-2.01 5.75-.75 1.1-1.35 2.9-1.34 4 .01 1.1-.4 2.45-.91 3-.52.55-1.88 3.7-3.03 7-1.14 3.3-2.08 7.46-2.08 9.25.01 2.18.58 3.46 1.76 3.88.96.35 5.46 4.4 10 9S111 66.67 111 67.5c0 .83.34 1.49.75 1.48.41-.02 2.16 3.02 3.89 6.75 1.73 3.72 3.65 9.47 4.26 12.77.61 3.3 1.11 8.25 1.09 11l-.02 5c7.39 1.17 16.96 1.5 26.03 1.48l16.5-.04c-7.75 6.99-10.34 9.03-10.75 9.04-.41.01-1.99 1.1-3.5 2.43s-4.78 4.23-7.25 6.46c-2.47 2.23-4.84 4.07-5.25 4.09-.41.02-2.15 1.5-3.85 3.29-2.45 2.56-2.96 3.78-2.43 5.75.38 1.38.99 3.75 1.36 5.27.37 1.53 1.01 2.77 1.42 2.75.41-.01 1 1.67 1.3 3.73.31 2.06 1.17 5.55 1.91 7.75s1.96 6.64 2.7 9.87c.73 3.22 1.68 6.03 2.09 6.25.41.21.75.83.75 1.38 0 .55-2.81-.45-6.25-2.23-3.44-1.77-6.36-3.57-6.5-4-.14-.42-1.26-.78-2.5-.79-1.77-.02-2.83 1.21-4.98 5.75-1.5 3.17-2.99 7.12-3.31 8.77-.54 2.69-.11 3.37 4.22 6.59 2.65 1.98 5.83 3.89 7.07 4.25 1.24.37 2.25 1.11 2.25 1.66 0 .55.68 1 1.5 1s1.5.45 1.5 1 .68 1 1.5 1 1.61.37 1.75.82c.14.45 3.06 2.7 6.5 5s6.7 4.18 7.25 4.18c.55 0 1 .45 1 1s.45 1 1 1 5.95 3.6 12 8 11.68 8 12.5 8c.82 0 1.5-.79 1.5-1.75-.01-.96-1.15-5.8-2.54-10.75-1.39-4.95-3-10.57-3.58-12.5-.57-1.93-1.23-4.74-1.46-6.25-.23-1.51-.87-2.75-1.42-2.75-.55 0-.99-1.01-.99-2.25.01-1.24-1.36-6.97-3.06-12.75-1.69-5.78-3.44-11.18-3.9-12-.45-.82-1.15-3.3-1.56-5.5-.41-2.2-1.09-4.45-1.49-5-.41-.55-1.05-2.57-1.42-4.5-.37-1.93-.9-4.85-1.16-6.5-.44-2.69.03-3.36 4.58-6.5 2.79-1.93 6.07-4.32 7.29-5.32 1.21-1 3.34-2.81 4.71-4.02 1.38-1.21 4.3-3.54 6.5-5.18 2.2-1.64 4.9-3.78 6-4.75 1.1-.97 2.34-1.76 2.75-1.75.41.01 1.85-.99 3.19-2.23 1.34-1.24 5.05-4.37 8.25-6.96s6.15-4.73 6.56-4.75c.41-.02 2.21-1.41 4-3.07 1.79-1.67 3.59-3.02 4-3 .41.01 1.58-.76 2.59-1.72 1-.96 2.81-2.42 4.01-3.25 1.19-.83 2.17-2.06 2.16-2.75-.01-.76-1.48-1.28-3.76-1.33-2.06-.04-17.93-.25-35.25-.46-17.32-.21-35.21-.63-39.75-.92-7.85-.51-8.3-.67-9.36-3.29-.61-1.51-1.51-3.54-2-4.5s-.89-2.54-.9-3.5c0-.96-.69-3.1-1.53-4.75-.84-1.65-1.74-4.46-1.99-6.25-.26-1.79-.92-3.25-1.47-3.25-.55 0-1-1.35-1-3s-.45-3.23-1-3.5-1-1.51-1.01-2.75c0-1.24-.69-3.6-1.53-5.25-.84-1.65-1.74-4.46-1.99-6.25-.26-1.79-.92-3.25-1.47-3.25-.55 0-1-1.35-1-3s-.45-3.23-1-3.5-1-1.51-1.01-2.75c0-1.24-.6-3.37-1.34-4.75-.73-1.37-1.68-4.07-2.1-6-.43-1.93-1.63-5.41-2.66-7.75C109.85 4.91 109 2.55 109 2c0-.55-.69-1-1.54-1-.85 0-2.12 1.56-2.82 3.47zM44 53.96c-4.67.42-10.52 1.32-13 1.99-2.48.68-7.16 2.65-10.41 4.39-3.24 1.74-7.65 5.19-9.79 7.66-2.14 2.47-4.83 6.53-5.97 9-1.15 2.47-2.55 7.88-3.12 12-.75 5.42-.72 9.51.13 14.75.64 3.99 2.11 9.16 3.27 11.5 1.15 2.34 3.74 5.98 5.75 8.08 2 2.11 5.44 4.77 7.64 5.9 2.2 1.14 10.3 3.8 18 5.91 7.7 2.12 17.38 4.81 21.5 5.99 4.13 1.18 9.75 3.25 12.5 4.61 2.75 1.36 6.47 3.89 8.27 5.62 1.8 1.72 3.53 4.49 3.85 6.14.36 1.84-.03 4.26-1.01 6.25-.89 1.79-3.3 4.38-5.36 5.76-2.46 1.65-6.34 2.9-11.25 3.64-5.54.83-9.46.83-15 .01-4.73-.7-8.7-1.96-10.75-3.39-1.83-1.28-4.73-5.1-6.65-8.77-2.07-3.95-4.42-6.99-6-7.75-1.64-.79-7.12-1.25-14.85-1.26H-.5c.94 13.46 1.85 17.1 3.98 21.51 1.6 3.31 5.18 8.24 8 11 2.81 2.75 7.57 6.21 10.57 7.68 3 1.47 8.15 3.41 11.45 4.3 3.3.9 11.85 1.88 19 2.19 9.64.42 15.33.15 22-1.04 4.95-.88 11.7-2.89 15-4.45 3.3-1.57 8.17-5.06 10.82-7.77 2.65-2.7 6.13-7.61 7.73-10.91 1.6-3.3 3.4-9.15 3.99-13 .79-5.08.78-8.78-.03-13.5-.61-3.57-2.17-8.75-3.47-11.5-1.4-2.96-4.74-7.17-8.2-10.32-3.44-3.14-7.9-6.07-10.84-7.13-2.75-.99-10.4-3.25-17-5.03-6.6-1.77-17.17-4.81-23.5-6.75-9.27-2.84-12.13-4.18-14.75-6.9-2.28-2.37-3.26-4.34-3.28-6.62-.01-1.79 1-4.83 2.27-6.75 1.26-1.92 4.08-4.38 6.27-5.45 2.59-1.26 6.79-2.08 11.99-2.34 6.35-.32 9.19.03 13.75 1.69 4.01 1.47 6.66 3.24 8.74 5.85 1.65 2.06 3.22 4.99 3.5 6.5.28 1.51 1.52 3.42 2.76 4.25 1.75 1.16 4.93 1.44 14.25 1.25l12-.25c-.4-7.75-1.27-12.25-2.2-15-.92-2.75-2.67-6.8-3.9-9s-4.29-5.91-6.82-8.25c-2.52-2.34-6.72-5.33-9.33-6.65-2.61-1.32-7.45-3.09-10.75-3.93-3.3-.84-9.37-1.73-13.5-1.99-4.12-.27-11.33-.14-16 .28z" style="fill:#fff"/></svg>