<svg xmlns="http://www.w3.org/2000/svg" viewBox="0 0 381 381" width="381" height="381"><style></style><path id="Path 0" fill-rule="evenodd" d="M194 1.43c20.51.3 24.97.66 35 2.85 6.33 1.37 16.45 4.15 22.5 6.16 6.05 2.02 15.95 6.07 22 9.01 6.05 2.94 15.05 8.01 20 11.28 4.95 3.26 12.38 8.66 16.5 11.99 4.13 3.33 11.78 10.49 17.01 15.92 5.23 5.42 12.04 13.24 15.12 17.36 3.08 4.13 7.66 10.88 10.17 15 2.51 4.13 6.83 12.22 9.59 18 2.77 5.78 6.58 15.22 8.48 21 1.91 5.77 4.38 15 5.5 20.5s2.51 14.73 3.09 20.5c.58 5.77 1.05 14.32 1.05 19s-.47 13.23-1.05 19c-.58 5.77-1.96 15-3.06 20.5-1.11 5.5-3.81 15.4-6.01 22-2.2 6.6-6.17 16.5-8.82 22-2.65 5.5-8.45 15.4-12.88 22-4.43 6.6-11.37 15.82-15.43 20.5-4.05 4.68-11.39 12.02-16.31 16.32-4.92 4.3-14.12 11.29-20.45 15.55-6.33 4.25-16.23 10.04-22 12.86-5.77 2.83-15.9 6.94-22.5 9.15s-16.5 4.91-22 6.02c-5.5 1.1-14.73 2.48-20.5 3.06-5.77.58-14.33 1.05-19 1.05s-13.23-.47-19-1.05c-5.77-.58-15-1.97-20.5-3.09-5.5-1.12-14.73-3.59-20.5-5.5-5.77-1.9-15.23-5.71-21-8.48-5.77-2.76-13.87-7.08-18-9.59-4.12-2.51-10.87-7.09-15-10.17-4.12-3.08-11.94-9.89-17.36-15.12-5.43-5.23-12.59-12.88-15.92-17.01-3.33-4.12-8.73-11.55-11.99-16.5-3.27-4.95-8.34-13.95-11.28-20-2.94-6.05-6.99-15.95-9.01-22-2.01-6.05-4.78-16.18-6.15-22.5-2.07-9.54-2.58-15.17-3.01-33-.4-16.92-.16-23.95 1.15-33 .92-6.32 2.83-16 4.26-21.5 1.43-5.5 4.05-13.82 5.82-18.5 1.78-4.68 5.49-13 8.25-18.5 2.77-5.5 7.7-14.05 10.96-19 3.25-4.95 9.31-13.05 13.45-18 4.14-4.95 10.19-11.49 13.43-14.54 3.25-3.05 9.05-8.06 12.9-11.13 3.85-3.08 10.82-8.09 15.5-11.13 4.68-3.05 14.13-8.24 21-11.54 6.88-3.31 16.77-7.38 22-9.05 5.23-1.68 12.42-3.75 16-4.61 3.58-.86 10.55-2.21 15.5-2.99 6.51-1.03 15.51-1.33 32.5-1.08zm102.5 79.72c-6.05 1.15-17.08 4.06-24.5 6.48-7.42 2.43-18 6.6-23.5 9.27-5.5 2.68-14.73 8.02-20.5 11.86-5.77 3.85-14.95 11.22-20.39 16.37-5.44 5.15-13.11 13.64-17.05 18.87-3.94 5.23-9.17 13.63-11.61 18.69-2.45 5.05-5.01 9.21-5.7 9.25-.79.04-1.25-1.33-1.26-3.69 0-2.06-.45-5.44-1-7.5-.54-2.06-2.68-5.61-4.74-7.87-2.06-2.27-5.77-5.15-8.25-6.4-2.48-1.26-7.42-3.11-11-4.12-5.39-1.52-10.02-1.83-27-1.79-19.48.04-20.95.18-29.5 2.81-4.95 1.52-11.68 4.19-14.96 5.94-3.28 1.75-8.61 5.66-11.85 8.68-3.87 3.62-6.96 7.71-9.03 11.98-2.79 5.73-3.16 7.47-3.15 15 0 7.2.42 9.37 2.68 14.02 1.47 3.02 4.95 7.75 7.73 10.5 2.78 2.75 7.65 6.58 10.82 8.51 3.17 1.93 11.16 5.47 17.76 7.87 6.6 2.41 14.02 5.39 16.5 6.64 2.48 1.24 5.79 3.54 7.37 5.12 1.57 1.57 3.26 3.87 3.75 5.11.48 1.24.88 4.61.87 7.5 0 2.89-.45 6.94-1 9-.59 2.23-2.82 5.58-5.49 8.25-3.25 3.25-5.96 4.9-9.75 5.95-2.89.79-7.73 1.75-10.75 2.12l-5.5.68c-4.48-12.98-6.84-18.89-8.14-21.5-1.3-2.61-4.27-6.83-6.61-9.37-2.34-2.54-6.05-5.52-8.25-6.62-2.55-1.28-5.99-2-9.5-2-3.49 0-6.96.73-9.5 1.99-2.2 1.1-5.46 3.63-7.25 5.62-1.79 2-3.51 4.87-3.83 6.38-.32 1.51-.77 3.31-1 4-.23.69.26 3.5 1.08 6.25.96 3.21 2.93 6.43 5.5 9 2.2 2.2 6.14 5.07 8.75 6.39 2.61 1.31 7.9 3.35 11.75 4.54 3.85 1.18 12.63 2.66 19.5 3.28 9.37.85 15.5.84 24.5-.02 6.6-.64 14.7-1.85 18-2.69 3.3-.83 9.6-3.27 14-5.41s10.41-6.08 13.36-8.74c3.64-3.3 6.44-7.08 8.75-11.85 1.86-3.85 3.84-9.48 4.39-12.5.62-3.4.67-7.6.12-11-.49-3.02-2-7.75-3.37-10.5s-4.91-7.19-7.87-9.86c-3.05-2.76-9.27-6.73-14.38-9.18-4.95-2.37-12.83-5.64-17.5-7.26-4.67-1.61-10.52-3.95-13-5.19-2.48-1.23-5.33-2.98-6.35-3.88-1.02-.89-2.55-2.98-3.4-4.63-.93-1.8-1.55-5.6-1.55-9.5 0-3.95.61-7.68 1.56-9.5.87-1.65 3.07-4.41 4.9-6.14 1.84-1.73 5.25-4.09 7.59-5.25 2.34-1.16 6.16-2.38 8.5-2.72l4.25-.6c3.68 11.4 5.89 16.96 7.29 19.71 1.39 2.75 4.6 7.17 7.12 9.82 3.32 3.48 5.98 5.23 9.59 6.3 3.11.91 6.51 1.22 9 .81 2.2-.36 5.91-1.73 8.25-3.04 2.34-1.32 4.7-3.29 5.25-4.39.55-1.1 1.67-2 2.5-2 .83 0 1.49.79 1.49 1.75-.01.96-.93 4.68-2.05 8.25-1.11 3.57-2.68 10.55-3.48 15.5-.8 4.95-1.45 13.5-1.44 19 .01 5.5.68 13.15 1.48 17 .81 3.85 3.12 10.38 5.14 14.5 2.7 5.54 5.64 9.46 11.26 15.02 5.47 5.4 9.71 8.55 15.1 11.18 4.13 2.02 10.42 4.47 14 5.45 4.92 1.35 10.14 1.78 21.5 1.76 12.15-.02 16.71-.45 24-2.27 4.95-1.24 12.83-4.05 17.5-6.26s11.2-5.99 14.5-8.41c3.3-2.41 8.1-6.32 10.66-8.68 2.56-2.36 6.72-6.88 9.25-10.04 2.52-3.16 6.11-8.79 7.98-12.5 1.86-3.71 4.13-9.23 5.04-12.25.9-3.02 2.08-8.76 2.61-12.75.63-4.74.61-9.94-.05-15-.69-5.29-2.15-10.13-4.61-15.25-2.38-4.96-5.5-9.39-9.24-13.1-3.1-3.07-7.89-6.74-10.64-8.13-2.75-1.4-7.48-3.28-10.5-4.17-3.35-.98-9.12-1.62-14.75-1.61-5.09.01-12.4.69-16.25 1.51-3.85.82-10.04 2.73-13.75 4.23-3.71 1.5-9.34 4.43-12.5 6.5-3.16 2.07-6.42 3.77-7.25 3.77-.83 0-1.51-.56-1.51-1.25-.01-.69 1.16-4.18 2.61-7.75 1.44-3.57 4.43-10.1 6.63-14.5s5.93-10.7 8.28-14c2.35-3.3 7.58-9.18 11.63-13.07 4.05-3.89 10.28-9.04 13.86-11.45 3.58-2.4 10.1-6.05 14.5-8.1 4.4-2.06 11.15-4.62 15-5.69 3.85-1.08 9.48-2.26 12.5-2.64 3.02-.37 6.07-.99 6.76-1.36.85-.47 1.15-2.55.92-6.44-.32-5.36-.51-5.74-2.76-5.63-1.33.06-3.32.3-4.42.53-1.1.24-6.95 1.36-13 2.5zM253 171.72c2.48.28 6.04 1.25 7.92 2.14 1.88.9 4.94 3.44 6.8 5.64 1.85 2.2 4.03 6.25 4.84 9 .81 2.75 1.75 7.93 2.08 11.5.33 3.57.09 11.23-.53 17-.61 5.77-2.04 13.88-3.17 18-1.13 4.13-3.77 11.1-5.88 15.5-2.22 4.65-6.07 10.46-9.19 13.88-2.95 3.23-6.61 6.49-8.12 7.25-1.51.75-4.89 1.84-7.5 2.42-3.33.74-6.1.73-9.25-.01-2.98-.7-5.75-2.32-8.2-4.8-2.04-2.06-4.59-5.76-5.67-8.24-1.08-2.48-2.52-7.43-3.2-11-.87-4.52-1.06-11.84-.63-24 .44-12.5 1.27-20.55 2.91-28.18 2.15-10.06 2.56-10.96 6.79-15.3 2.48-2.54 6.75-5.71 9.5-7.05 2.75-1.34 7.48-2.85 10.5-3.35 3.02-.5 7.52-.68 10-.4z" style="fill:#fff"/></svg>