<svg xmlns="http://www.w3.org/2000/svg" viewBox="0 0 118 104" width="118" height="104"><style></style><path id="Path 0" d="M23.5 24.76C10.31 37.82-.38 49.19-.25 50.01c.14.82 10.26 11.5 22.5 23.74C34.49 85.98 45.17 96 46 96.01c.83.01 3.18-1.67 5.24-3.74 2.05-2.08 3.74-4.22 3.75-4.77.01-.55-8.09-9.1-17.99-19-9.9-9.9-18.01-18.45-18.01-19 0-.55 10.13-11.12 22.51-23.5C53.88 13.63 64 2.94 64 2.25 64 1.35 61.68 1 55.74 1h-8.26m18.48 11.52-4.46 4.51C89.78 45.29 97.99 54.17 97.99 55c0 .83-10.17 11.63-22.62 24C61.53 92.77 53 101.98 53.38 102.75c.41.84 3.17 1.25 8.37 1.25l7.75.01 49-49.01C82.07 18.57 71.26 8 70.96 8c-.3 0-2.55 2.03-5 4.52zM54.03 26.75c.01 1.51-1.36 4.77-3.06 7.25-1.69 2.48-4.29 6.27-5.77 8.43-2.24 3.26-2.75 5.2-3 11.5-.23 5.79.12 8.38 1.5 11 .99 1.88 3.38 4.72 5.3 6.3 2.21 1.81 5.16 3.08 8 3.45 3.37.43 5.69.04 9.25-1.55 3.21-1.44 5.64-3.48 7.5-6.31 2.36-3.59 2.74-5.19 2.71-11.25-.02-4.69-.61-8.17-1.75-10.32-.94-1.79-2.05-3.25-2.46-3.24-.41 0-.58 2.36-.37 5.25.21 2.88-.13 6.93-.75 8.99C70.51 58.31 69.55 60 69 60c-.55 0-1.22-.67-1.5-1.5S67 54.75 67 52s-.51-7.36-1.12-10.25c-.62-2.89-2.02-7.05-3.12-9.25-1.09-2.2-2.95-5.02-4.12-6.28-1.18-1.25-2.7-2.26-3.39-2.25-.7.02-1.24 1.25-1.22 2.78z" style="fill:#fff"/></svg>