<svg xmlns="http://www.w3.org/2000/svg" viewBox="0 0 202 173" width="202" height="173"><style></style><path id="Path 0" fill-rule="evenodd" d="M102.18 1.28c88.64.22 88.68.22 91.5 2.34 1.55 1.17 3.72 3.34 4.82 4.82 1.96 2.65 2 4.27 2 78.06 0 75.23 0 75.36-2.12 78.18-1.17 1.55-3.34 3.72-4.82 4.82-2.66 1.97-4.27 2-92.56 2s-89.9-.03-92.56-2c-1.48-1.1-3.65-3.27-4.82-4.82-2.11-2.81-2.12-3.22-2.41-75.5-.16-39.98-.05-74.14.25-75.93.3-1.79 1.59-4.66 2.88-6.38 1.29-1.73 3.88-3.74 5.75-4.47 2.77-1.09 20.04-1.3 92.09-1.12zM30 15.75V23h42V8.5H30M90.51 23 87 30H16c-.21 3.49-.31 6.52-.37 9l-.1 4.5H186.2l.3-27.5H94.02M79.64 56.81c-2.68 1.48-7 4.94-9.6 7.69-2.6 2.75-5.92 7.36-7.38 10.25-1.46 2.89-3.19 8.29-3.83 12-.9 5.15-.9 8.41-.02 13.75.64 3.85 2.41 9.45 3.93 12.45s5.01 7.79 7.76 10.65c3.18 3.3 7.55 6.42 12 8.55 6.69 3.2 7.51 3.35 18.52 3.35 10.92 0 11.87-.17 18-3.17 3.57-1.75 8.73-5.4 11.48-8.11 2.75-2.72 6.43-7.59 8.19-10.83 1.85-3.43 3.68-8.82 4.38-12.89.9-5.32.91-8.56.04-13.5-.63-3.58-2.3-8.97-3.73-12-1.44-3.07-5.08-7.97-8.23-11.09-3.11-3.08-7.56-6.57-9.9-7.75-2.34-1.19-6.84-2.84-10-3.67-3.16-.82-8-1.47-10.75-1.43-2.75.04-7.47.74-10.5 1.56-3.03.82-7.69 2.71-10.36 4.19zm-64 93.94L15.5 157h171l-.05-13.5c-132.09-.4-170.49-.17-170.56.24-.06.42-.17 3.57-.25 7.01zM103 65.36c4.18.22 8.1 1.15 11 2.6 2.47 1.24 5.78 3.45 7.34 4.9 1.57 1.45 3.99 4.89 5.38 7.64 1.4 2.75 2.76 7.47 3.04 10.5.31 3.43-.09 7.57-1.06 11-.85 3.03-3.05 7.38-4.88 9.68-1.82 2.31-5.79 5.55-8.82 7.22-4.87 2.69-6.47 3.04-14 3.09-7.28.05-9.21-.32-13.5-2.55-2.75-1.44-5.9-3.43-7-4.43-1.1-1.01-3.31-4.23-4.92-7.17-2.1-3.83-3.06-7.17-3.39-11.84-.34-4.67.05-8.05 1.37-12 1.01-3.03 3.21-7.02 4.89-8.88 1.68-1.86 4.4-4.33 6.05-5.48 1.65-1.16 5.03-2.67 7.5-3.36 2.47-.7 7.42-1.11 11-.92zM91.61 79.57c-1.59 1.06-3.81 3.28-4.94 4.93-1.12 1.65-2.37 4.13-2.78 5.5-.48 1.6-.23 3.31.68 4.75 1.37 2.16 1.51 2.18 3.46.5 1.12-.96 2.02-2.76 2-4-.02-1.24 1.06-3.49 2.39-5 1.41-1.61 4.22-3.19 6.75-3.8 2.79-.68 4.42-1.65 4.58-2.75.14-.93-.59-2.07-1.61-2.52-1.03-.45-3.17-.53-4.75-.18-1.59.35-4.19 1.51-5.78 2.57z" style="fill:#fff"/></svg>