<svg xmlns="http://www.w3.org/2000/svg" viewBox="0 0 812 662" width="812" height="662"><style></style><path id="Path 0" d="M542.5 1.01c-3.85.49-10.6 1.62-15 2.52-4.4.89-12.95 3.23-19 5.18-6.05 1.96-16.62 6.41-23.5 9.9-6.99 3.55-17.13 9.83-23 14.24-5.77 4.34-15.23 12.79-21.02 18.77-6.21 6.43-13.53 15.38-17.87 21.88-4.04 6.05-9.04 14.38-11.11 18.5-2.06 4.13-5.34 11.78-7.28 17-1.95 5.22-4.69 14.67-6.09 21-1.41 6.32-3.04 17.57-3.63 25-.75 9.47-.75 17.08-.02 25.5.57 6.6 1.5 14.7 2.06 18 .56 3.3.89 6.09.74 6.19-.15.11-7.26-.44-15.78-1.23-8.52-.78-21.57-2.36-29-3.49-7.43-1.14-18.9-3.2-25.5-4.59-6.6-1.39-17.18-3.86-23.5-5.51-6.32-1.64-18.48-5.27-27-8.06-8.52-2.8-20.9-7.24-27.5-9.87-6.6-2.63-14.7-5.97-18-7.43-3.3-1.46-12.53-5.95-20.5-9.97-7.97-4.02-19.45-10.21-25.5-13.75-6.05-3.54-16.4-10.03-23-14.42-6.6-4.4-15.61-10.67-20.01-13.93-4.41-3.27-11.61-8.84-16-12.39-4.4-3.55-13.61-11.48-20.49-17.63-6.87-6.15-16.33-15.17-21.01-20.05-4.68-4.88-13.01-13.95-18.5-20.16C61 36 56.05 31.06 55.5 31.23c-.55.18-3.37 5.03-6.27 10.79-2.89 5.77-6.64 14.75-8.32 19.98-1.68 5.22-3.94 13.78-5.02 19-1.07 5.22-2.41 15.13-2.97 22-.71 8.77-.69 16.38.08 25.5.61 7.15 2.03 17.28 3.17 22.5 1.13 5.22 3.61 14 5.51 19.5s5.92 14.95 8.93 21c3.02 6.05 8.5 15.25 12.19 20.45 3.68 5.19 10.57 13.52 15.31 18.5 4.73 4.98 11.93 11.73 16 15 4.06 3.27 7.84 6.35 8.39 6.85.6.54-1.6.63-5.5.22-3.58-.37-11-1.58-16.5-2.68s-13.6-3.14-18-4.53c-4.4-1.39-12.72-4.74-18.5-7.44-5.78-2.7-11.17-4.91-12-4.9-1.29.02-1.39 1.59-.73 11.27.43 6.19 1.47 15.31 2.32 20.26.85 4.95 2.36 11.93 3.35 15.5.98 3.57 2.92 9.65 4.3 13.5 1.38 3.85 4.62 11.27 7.21 16.5s7.55 13.77 11.04 19c3.49 5.23 10.32 13.88 15.18 19.22 4.85 5.35 11.98 12.33 15.83 15.52 3.85 3.18 10.83 8.31 15.5 11.39s12.66 7.69 17.75 10.24S138.4 391.8 145 394c6.6 2.2 12.76 4 13.7 4 1.05 0 1.34.35.75.91-.52.5-5.45 1.69-10.95 2.66-6.6 1.16-15.43 1.77-26 1.81-8.8.03-19.6-.52-24-1.21-4.4-.69-8.22-.98-8.5-.65-.28.34.55 3.62 1.84 7.3 1.29 3.67 4.01 10.28 6.05 14.68s7.27 13.4 11.63 20c4.95 7.49 11.69 15.9 17.95 22.39 5.52 5.72 12.96 12.74 16.53 15.61 3.57 2.86 9.65 7.25 13.5 9.76 3.85 2.5 11.5 6.81 17 9.58 5.5 2.77 14.72 6.61 20.5 8.54 5.78 1.92 15 4.39 20.5 5.47s14.05 2.27 19 2.63l9 .67c-13.95 10.11-22.05 15.55-27 18.61-4.95 3.05-13.72 8.15-19.5 11.33-5.78 3.17-16.12 8.22-23 11.21-6.87 2.99-17 7.05-22.5 9.02-5.5 1.98-15.4 5.14-22 7.04-6.6 1.91-17.85 4.61-25 6-7.15 1.4-18.85 3.32-26 4.27-8.99 1.19-20.4 1.74-37 1.79-13.2.05-27.71-.26-32.25-.67-7.43-.68-8.23-.58-8 .94.14.95 4.88 4.5 10.75 8.06 5.78 3.49 20.4 11.24 32.5 17.21 12.1 5.97 27.4 12.98 34 15.58 6.6 2.6 19.2 7.1 28 10.01 8.8 2.9 23.43 7.13 32.5 9.41 9.07 2.27 24.15 5.44 33.5 7.04 9.35 1.6 23.97 3.71 32.5 4.69 12.19 1.4 23.19 1.77 51.5 1.73 27.1-.04 39.71-.47 51-1.75 8.25-.94 21.07-2.64 28.5-3.78 7.43-1.14 18.68-3.17 25-4.52 6.32-1.34 17.35-3.99 24.5-5.88 7.15-1.9 19.52-5.64 27.5-8.33 7.98-2.68 20.8-7.44 28.5-10.57 7.7-3.13 21.88-9.65 31.5-14.49 9.63-4.84 22.45-11.86 28.5-15.6 6.05-3.74 15.05-9.51 20-12.83 4.95-3.31 13.5-9.4 19-13.54 5.5-4.14 14.5-11.33 20-15.98s18.12-16.6 28.03-26.55c9.92-9.96 21.78-22.6 26.36-28.1 4.57-5.5 12.02-14.95 16.54-21 4.53-6.05 11.84-16.4 16.25-23 4.4-6.6 11.51-18.07 15.79-25.5 4.27-7.43 10.71-19.35 14.29-26.5 3.58-7.15 8.75-18.18 11.47-24.5 2.72-6.32 6.88-16.68 9.25-23 2.36-6.32 6.39-18.02 8.95-26 2.56-7.98 6.42-21.7 8.58-30.5s5.03-22.07 6.38-29.5c1.35-7.43 3.16-19.12 4.02-26 .86-6.87 2.02-19.25 2.56-27.5.55-8.25 1.01-22.99 1.01-32.75L730 166c17.44-13.49 30.2-25.07 39.6-34.45 9.41-9.38 20.67-21.55 25.02-27.05 4.35-5.5 10.15-13.07 12.9-16.81 3.32-4.55 4.65-7.15 3.98-7.82-.67-.67-4.81.47-12.5 3.46-6.33 2.45-16 5.89-21.5 7.64s-15.17 4.47-21.5 6.05c-6.33 1.57-15.55 3.57-20.5 4.44-4.95.86-10.35 1.81-12 2.1-2.34.41-.91-.97 6.5-6.27 5.23-3.73 13.56-10.84 18.52-15.79 4.96-4.95 11.93-12.9 15.5-17.66 3.56-4.76 8.71-12.41 11.44-17 2.73-4.59 6.88-12.84 9.23-18.34 2.35-5.5 4.28-11.01 4.29-12.25.01-1.24-.54-2.24-1.23-2.24-.69.01-9.8 4.26-20.25 9.44-10.45 5.19-25.08 11.68-32.5 14.44-7.42 2.75-19.35 6.61-26.5 8.57-7.15 1.97-15.56 4.13-18.69 4.81l-5.69 1.23c-11.33-10.93-17.32-16.15-20.62-18.66-3.3-2.51-9.04-6.43-12.75-8.7-3.71-2.28-10.24-5.89-14.5-8.03-4.26-2.14-12.48-5.54-18.25-7.55s-15.9-4.77-22.5-6.13c-9.1-1.88-16.11-2.57-29-2.89-9.35-.24-20.15-.02-24 .47z" style="fill:#fffffe"/></svg>