<svg xmlns="http://www.w3.org/2000/svg" viewBox="0 0 118 141" width="118" height="141"><style></style><g id="Background"><path id="Path 0" d="M1.6.74c-.29.42 1.26 2.56 3.44 4.76l3.97 4C1.57 16.89.88 18.08 2 18.47c.82.29 18.97.64 40.32.78l38.81.25-81.15 107L0 141c90.68 0 117.21-.34 117.46-.75.26-.41-1.32-2.55-3.5-4.75l-3.97-4c6.24-6.2 7.71-8.35 7.28-8.78-.42-.43-20.23-.76-44.02-.75L30 122c20.51-26.74 38.97-50.93 54.26-71l27.8-36.5-.56-14C26.73.1 1.88.32 1.6.74z" style="fill:#fff"/><path id="Path 1" d="M-13 259.01c-12.38.46-26.33 1.31-31 1.89-4.67.57-8.72 1.29-9 1.59-.28.3-.05.97.5 1.48.55.52 6.4 1.45 13 2.06 6.7.63 42.48 1.36 81 1.66 47.08.37 77.1.15 94.5-.68 14.02-.67 27.49-1.51 29.92-1.86 2.43-.36 4.57-1.21 4.75-1.9.2-.75-.98-1.46-2.92-1.76-1.79-.28-8.87-.97-15.75-1.54-6.87-.57-41.75-1.2-77.5-1.4-35.75-.21-75.13 0-87.5.46z" style="fill:#f6f6f6"/></g></svg>